%TF.GenerationSoftware,KiCad,Pcbnew,10.0.5-1.fc44app2*%
%TF.CreationDate,2026-08-31T16:04:31+01:00*%
%TF.ProjectId,MO_v0.1_debug_board,4d4f5f76-302e-4315-9f64-656275675f62,rev?*%
%TF.SameCoordinates,PX81c6a80PY70ca830*%
%TF.FileFunction,Paste,Top*%
%TF.FilePolarity,Positive*%
%FSLAX46Y46*%
G04 Gerber Fmt 4.6, Leading zero omitted, Abs format (unit mm)*
G04 Created by KiCad (PCBNEW 10.0.5-1.fc44app2) date 2026-08-31 16:04:31*
%MOMM*%
%LPD*%
G01*
G04 APERTURE LIST*
G04 Aperture macros list*
%AMRoundRect*
0 Rectangle with rounded corners*
0 $1 Rounding radius*
0 $2 $3 $4 $5 $6 $7 $8 $9 X,Y pos of 4 corners*
0 Add a 4 corners polygon primitive as box body*
4,1,4,$2,$3,$4,$5,$6,$7,$8,$9,$2,$3,0*
0 Add four circle primitives for the rounded corners*
1,1,$1+$1,$2,$3*
1,1,$1+$1,$4,$5*
1,1,$1+$1,$6,$7*
1,1,$1+$1,$8,$9*
0 Add four rect primitives between the rounded corners*
20,1,$1+$1,$2,$3,$4,$5,0*
20,1,$1+$1,$4,$5,$6,$7,0*
20,1,$1+$1,$6,$7,$8,$9,0*
20,1,$1+$1,$8,$9,$2,$3,0*%
G04 Aperture macros list end*
%ADD10RoundRect,0.200000X0.275000X-0.200000X0.275000X0.200000X-0.275000X0.200000X-0.275000X-0.200000X0*%
%ADD11C,2.000000*%
%ADD12RoundRect,0.200000X0.200000X0.275000X-0.200000X0.275000X-0.200000X-0.275000X0.200000X-0.275000X0*%
%ADD13RoundRect,0.200000X-0.200000X-0.275000X0.200000X-0.275000X0.200000X0.275000X-0.200000X0.275000X0*%
G04 APERTURE END LIST*
D10*
%TO.C,R8*%
X24600000Y65150000D03*
X24600000Y66800000D03*
%TD*%
D11*
%TO.C,j3*%
X89300000Y80420000D03*
%TD*%
%TO.C,j5*%
X15375000Y31705000D03*
%TD*%
%TO.C,j7*%
X32175000Y51305000D03*
%TD*%
D10*
%TO.C,R16*%
X32140000Y44470000D03*
X32140000Y46120000D03*
%TD*%
D11*
%TO.C,j9*%
X1955000Y62820000D03*
%TD*%
D10*
%TO.C,R3*%
X89270000Y73030000D03*
X89270000Y74680000D03*
%TD*%
D11*
%TO.C,j15*%
X75250000Y47990000D03*
%TD*%
%TO.C,j16*%
X90175000Y38055000D03*
%TD*%
D12*
%TO.C,R5*%
X23345000Y28990000D03*
X21695000Y28990000D03*
%TD*%
D13*
%TO.C,R13*%
X82630000Y22490000D03*
X84280000Y22490000D03*
%TD*%
D11*
%TO.C,j10*%
X77500000Y37050000D03*
%TD*%
D13*
%TO.C,R9*%
X71990000Y40470000D03*
X73640000Y40470000D03*
%TD*%
D10*
%TO.C,R2*%
X47800000Y69610000D03*
X47800000Y71260000D03*
%TD*%
D11*
%TO.C,j2*%
X47575000Y75880000D03*
%TD*%
D13*
%TO.C,R14*%
X70920000Y48240000D03*
X72570000Y48240000D03*
%TD*%
%TO.C,R11*%
X68110000Y37180000D03*
X69760000Y37180000D03*
%TD*%
D11*
%TO.C,j4*%
X77450000Y42030000D03*
%TD*%
D10*
%TO.C,R1*%
X83090000Y71440000D03*
X83090000Y73090000D03*
%TD*%
D11*
%TO.C,j14*%
X95105000Y25130000D03*
%TD*%
D13*
%TO.C,R4*%
X71900000Y43940000D03*
X73550000Y43940000D03*
%TD*%
D11*
%TO.C,j13*%
X92800000Y25030000D03*
%TD*%
D13*
%TO.C,R10*%
X70760000Y51150000D03*
X72410000Y51150000D03*
%TD*%
%TO.C,R12*%
X82600000Y25640000D03*
X84250000Y25640000D03*
%TD*%
D11*
%TO.C,j8*%
X24820000Y72405000D03*
%TD*%
D10*
%TO.C,R15*%
X88270000Y32535000D03*
X88270000Y34185000D03*
%TD*%
D11*
%TO.C,j1*%
X83000000Y78180000D03*
%TD*%
%TO.C,j6*%
X45300000Y82380000D03*
%TD*%
D13*
%TO.C,R6*%
X39740000Y80530000D03*
X41390000Y80530000D03*
%TD*%
D11*
%TO.C,j12*%
X71905000Y32080000D03*
%TD*%
%TO.C,j11*%
X75200000Y50230000D03*
%TD*%
M02*
