%TF.GenerationSoftware,KiCad,Pcbnew,10.0.5-1.fc44app2*%
%TF.CreationDate,2026-08-31T16:04:31+01:00*%
%TF.ProjectId,MO_v0.1_debug_board,4d4f5f76-302e-4315-9f64-656275675f62,rev?*%
%TF.SameCoordinates,PX81c6a80PY70ca830*%
%TF.FileFunction,Soldermask,Top*%
%TF.FilePolarity,Negative*%
%FSLAX46Y46*%
G04 Gerber Fmt 4.6, Leading zero omitted, Abs format (unit mm)*
G04 Created by KiCad (PCBNEW 10.0.5-1.fc44app2) date 2026-08-31 16:04:31*
%MOMM*%
%LPD*%
G01*
G04 APERTURE LIST*
G04 APERTURE END LIST*
G36*
X4680426Y4392531D02*
G01*
X4926807Y4326514D01*
X5162463Y4228902D01*
X5383362Y4101366D01*
X5585724Y3946088D01*
X5766088Y3765724D01*
X5921366Y3563362D01*
X6048902Y3342463D01*
X6146514Y3106807D01*
X6212531Y2860426D01*
X6245825Y2607536D01*
X6245825Y2352464D01*
X6212531Y2099574D01*
X6146514Y1853193D01*
X6048902Y1617537D01*
X5921366Y1396638D01*
X5766088Y1194276D01*
X5585724Y1013912D01*
X5383362Y858634D01*
X5162463Y731098D01*
X4926807Y633486D01*
X4680426Y567469D01*
X4427536Y534175D01*
X4172464Y534175D01*
X3919574Y567469D01*
X3673193Y633486D01*
X3437537Y731098D01*
X3216638Y858634D01*
X3014276Y1013912D01*
X2833912Y1194276D01*
X2678634Y1396638D01*
X2551098Y1617537D01*
X2453486Y1853193D01*
X2387469Y2099574D01*
X2354175Y2352464D01*
X2354175Y2607536D01*
X2387469Y2860426D01*
X2453486Y3106807D01*
X2551098Y3342463D01*
X2678634Y3563362D01*
X2833912Y3765724D01*
X3014276Y3946088D01*
X3216638Y4101366D01*
X3437537Y4228902D01*
X3673193Y4326514D01*
X3919574Y4392531D01*
X4172464Y4425825D01*
X4427536Y4425825D01*
X4680426Y4392531D01*
G37*
G36*
X94980426Y4492531D02*
G01*
X95226807Y4426514D01*
X95462463Y4328902D01*
X95683362Y4201366D01*
X95885724Y4046088D01*
X96066088Y3865724D01*
X96221366Y3663362D01*
X96348902Y3442463D01*
X96446514Y3206807D01*
X96512531Y2960426D01*
X96545825Y2707536D01*
X96545825Y2452464D01*
X96512531Y2199574D01*
X96446514Y1953193D01*
X96348902Y1717537D01*
X96221366Y1496638D01*
X96066088Y1294276D01*
X95885724Y1113912D01*
X95683362Y958634D01*
X95462463Y831098D01*
X95226807Y733486D01*
X94980426Y667469D01*
X94727536Y634175D01*
X94472464Y634175D01*
X94219574Y667469D01*
X93973193Y733486D01*
X93737537Y831098D01*
X93516638Y958634D01*
X93314276Y1113912D01*
X93133912Y1294276D01*
X92978634Y1496638D01*
X92851098Y1717537D01*
X92753486Y1953193D01*
X92687469Y2199574D01*
X92654175Y2452464D01*
X92654175Y2707536D01*
X92687469Y2960426D01*
X92753486Y3206807D01*
X92851098Y3442463D01*
X92978634Y3663362D01*
X93133912Y3865724D01*
X93314276Y4046088D01*
X93516638Y4201366D01*
X93737537Y4328902D01*
X93973193Y4426514D01*
X94219574Y4492531D01*
X94472464Y4525825D01*
X94727536Y4525825D01*
X94980426Y4492531D01*
G37*
G36*
X25361256Y6991246D02*
G01*
X25524257Y6923729D01*
X25670954Y6825709D01*
X25795709Y6700954D01*
X25893729Y6554257D01*
X25961246Y6391256D01*
X25995666Y6218215D01*
X25995666Y6041785D01*
X25961246Y5868744D01*
X25893729Y5705743D01*
X25795709Y5559046D01*
X25670954Y5434291D01*
X25524257Y5336271D01*
X25361256Y5268754D01*
X25188215Y5234334D01*
X25011785Y5234334D01*
X24838744Y5268754D01*
X24675743Y5336271D01*
X24529046Y5434291D01*
X24404291Y5559046D01*
X24306271Y5705743D01*
X24238754Y5868744D01*
X24204334Y6041785D01*
X24204334Y6218215D01*
X24238754Y6391256D01*
X24306271Y6554257D01*
X24404291Y6700954D01*
X24529046Y6825709D01*
X24675743Y6923729D01*
X24838744Y6991246D01*
X25011785Y7025666D01*
X25188215Y7025666D01*
X25361256Y6991246D01*
G37*
G36*
X27901256Y6991246D02*
G01*
X28064257Y6923729D01*
X28210954Y6825709D01*
X28335709Y6700954D01*
X28433729Y6554257D01*
X28501246Y6391256D01*
X28535666Y6218215D01*
X28535666Y6041785D01*
X28501246Y5868744D01*
X28433729Y5705743D01*
X28335709Y5559046D01*
X28210954Y5434291D01*
X28064257Y5336271D01*
X27901256Y5268754D01*
X27728215Y5234334D01*
X27551785Y5234334D01*
X27378744Y5268754D01*
X27215743Y5336271D01*
X27069046Y5434291D01*
X26944291Y5559046D01*
X26846271Y5705743D01*
X26778754Y5868744D01*
X26744334Y6041785D01*
X26744334Y6218215D01*
X26778754Y6391256D01*
X26846271Y6554257D01*
X26944291Y6700954D01*
X27069046Y6825709D01*
X27215743Y6923729D01*
X27378744Y6991246D01*
X27551785Y7025666D01*
X27728215Y7025666D01*
X27901256Y6991246D01*
G37*
G36*
X30441256Y6991246D02*
G01*
X30604257Y6923729D01*
X30750954Y6825709D01*
X30875709Y6700954D01*
X30973729Y6554257D01*
X31041246Y6391256D01*
X31075666Y6218215D01*
X31075666Y6041785D01*
X31041246Y5868744D01*
X30973729Y5705743D01*
X30875709Y5559046D01*
X30750954Y5434291D01*
X30604257Y5336271D01*
X30441256Y5268754D01*
X30268215Y5234334D01*
X30091785Y5234334D01*
X29918744Y5268754D01*
X29755743Y5336271D01*
X29609046Y5434291D01*
X29484291Y5559046D01*
X29386271Y5705743D01*
X29318754Y5868744D01*
X29284334Y6041785D01*
X29284334Y6218215D01*
X29318754Y6391256D01*
X29386271Y6554257D01*
X29484291Y6700954D01*
X29609046Y6825709D01*
X29755743Y6923729D01*
X29918744Y6991246D01*
X30091785Y7025666D01*
X30268215Y7025666D01*
X30441256Y6991246D01*
G37*
G36*
X32981256Y6991246D02*
G01*
X33144257Y6923729D01*
X33290954Y6825709D01*
X33415709Y6700954D01*
X33513729Y6554257D01*
X33581246Y6391256D01*
X33615666Y6218215D01*
X33615666Y6041785D01*
X33581246Y5868744D01*
X33513729Y5705743D01*
X33415709Y5559046D01*
X33290954Y5434291D01*
X33144257Y5336271D01*
X32981256Y5268754D01*
X32808215Y5234334D01*
X32631785Y5234334D01*
X32458744Y5268754D01*
X32295743Y5336271D01*
X32149046Y5434291D01*
X32024291Y5559046D01*
X31926271Y5705743D01*
X31858754Y5868744D01*
X31824334Y6041785D01*
X31824334Y6218215D01*
X31858754Y6391256D01*
X31926271Y6554257D01*
X32024291Y6700954D01*
X32149046Y6825709D01*
X32295743Y6923729D01*
X32458744Y6991246D01*
X32631785Y7025666D01*
X32808215Y7025666D01*
X32981256Y6991246D01*
G37*
G36*
X35521256Y6991246D02*
G01*
X35684257Y6923729D01*
X35830954Y6825709D01*
X35955709Y6700954D01*
X36053729Y6554257D01*
X36121246Y6391256D01*
X36155666Y6218215D01*
X36155666Y6041785D01*
X36121246Y5868744D01*
X36053729Y5705743D01*
X35955709Y5559046D01*
X35830954Y5434291D01*
X35684257Y5336271D01*
X35521256Y5268754D01*
X35348215Y5234334D01*
X35171785Y5234334D01*
X34998744Y5268754D01*
X34835743Y5336271D01*
X34689046Y5434291D01*
X34564291Y5559046D01*
X34466271Y5705743D01*
X34398754Y5868744D01*
X34364334Y6041785D01*
X34364334Y6218215D01*
X34398754Y6391256D01*
X34466271Y6554257D01*
X34564291Y6700954D01*
X34689046Y6825709D01*
X34835743Y6923729D01*
X34998744Y6991246D01*
X35171785Y7025666D01*
X35348215Y7025666D01*
X35521256Y6991246D01*
G37*
G36*
X38061256Y6991246D02*
G01*
X38224257Y6923729D01*
X38370954Y6825709D01*
X38495709Y6700954D01*
X38593729Y6554257D01*
X38661246Y6391256D01*
X38695666Y6218215D01*
X38695666Y6041785D01*
X38661246Y5868744D01*
X38593729Y5705743D01*
X38495709Y5559046D01*
X38370954Y5434291D01*
X38224257Y5336271D01*
X38061256Y5268754D01*
X37888215Y5234334D01*
X37711785Y5234334D01*
X37538744Y5268754D01*
X37375743Y5336271D01*
X37229046Y5434291D01*
X37104291Y5559046D01*
X37006271Y5705743D01*
X36938754Y5868744D01*
X36904334Y6041785D01*
X36904334Y6218215D01*
X36938754Y6391256D01*
X37006271Y6554257D01*
X37104291Y6700954D01*
X37229046Y6825709D01*
X37375743Y6923729D01*
X37538744Y6991246D01*
X37711785Y7025666D01*
X37888215Y7025666D01*
X38061256Y6991246D01*
G37*
G36*
X40601256Y6991246D02*
G01*
X40764257Y6923729D01*
X40910954Y6825709D01*
X41035709Y6700954D01*
X41133729Y6554257D01*
X41201246Y6391256D01*
X41235666Y6218215D01*
X41235666Y6041785D01*
X41201246Y5868744D01*
X41133729Y5705743D01*
X41035709Y5559046D01*
X40910954Y5434291D01*
X40764257Y5336271D01*
X40601256Y5268754D01*
X40428215Y5234334D01*
X40251785Y5234334D01*
X40078744Y5268754D01*
X39915743Y5336271D01*
X39769046Y5434291D01*
X39644291Y5559046D01*
X39546271Y5705743D01*
X39478754Y5868744D01*
X39444334Y6041785D01*
X39444334Y6218215D01*
X39478754Y6391256D01*
X39546271Y6554257D01*
X39644291Y6700954D01*
X39769046Y6825709D01*
X39915743Y6923729D01*
X40078744Y6991246D01*
X40251785Y7025666D01*
X40428215Y7025666D01*
X40601256Y6991246D01*
G37*
G36*
X43141256Y6991246D02*
G01*
X43304257Y6923729D01*
X43450954Y6825709D01*
X43575709Y6700954D01*
X43673729Y6554257D01*
X43741246Y6391256D01*
X43775666Y6218215D01*
X43775666Y6041785D01*
X43741246Y5868744D01*
X43673729Y5705743D01*
X43575709Y5559046D01*
X43450954Y5434291D01*
X43304257Y5336271D01*
X43141256Y5268754D01*
X42968215Y5234334D01*
X42791785Y5234334D01*
X42618744Y5268754D01*
X42455743Y5336271D01*
X42309046Y5434291D01*
X42184291Y5559046D01*
X42086271Y5705743D01*
X42018754Y5868744D01*
X41984334Y6041785D01*
X41984334Y6218215D01*
X42018754Y6391256D01*
X42086271Y6554257D01*
X42184291Y6700954D01*
X42309046Y6825709D01*
X42455743Y6923729D01*
X42618744Y6991246D01*
X42791785Y7025666D01*
X42968215Y7025666D01*
X43141256Y6991246D01*
G37*
G36*
X45681256Y6991246D02*
G01*
X45844257Y6923729D01*
X45990954Y6825709D01*
X46115709Y6700954D01*
X46213729Y6554257D01*
X46281246Y6391256D01*
X46315666Y6218215D01*
X46315666Y6041785D01*
X46281246Y5868744D01*
X46213729Y5705743D01*
X46115709Y5559046D01*
X45990954Y5434291D01*
X45844257Y5336271D01*
X45681256Y5268754D01*
X45508215Y5234334D01*
X45331785Y5234334D01*
X45158744Y5268754D01*
X44995743Y5336271D01*
X44849046Y5434291D01*
X44724291Y5559046D01*
X44626271Y5705743D01*
X44558754Y5868744D01*
X44524334Y6041785D01*
X44524334Y6218215D01*
X44558754Y6391256D01*
X44626271Y6554257D01*
X44724291Y6700954D01*
X44849046Y6825709D01*
X44995743Y6923729D01*
X45158744Y6991246D01*
X45331785Y7025666D01*
X45508215Y7025666D01*
X45681256Y6991246D01*
G37*
G36*
X48221256Y6991246D02*
G01*
X48384257Y6923729D01*
X48530954Y6825709D01*
X48655709Y6700954D01*
X48753729Y6554257D01*
X48821246Y6391256D01*
X48855666Y6218215D01*
X48855666Y6041785D01*
X48821246Y5868744D01*
X48753729Y5705743D01*
X48655709Y5559046D01*
X48530954Y5434291D01*
X48384257Y5336271D01*
X48221256Y5268754D01*
X48048215Y5234334D01*
X47871785Y5234334D01*
X47698744Y5268754D01*
X47535743Y5336271D01*
X47389046Y5434291D01*
X47264291Y5559046D01*
X47166271Y5705743D01*
X47098754Y5868744D01*
X47064334Y6041785D01*
X47064334Y6218215D01*
X47098754Y6391256D01*
X47166271Y6554257D01*
X47264291Y6700954D01*
X47389046Y6825709D01*
X47535743Y6923729D01*
X47698744Y6991246D01*
X47871785Y7025666D01*
X48048215Y7025666D01*
X48221256Y6991246D01*
G37*
G36*
X50761256Y6991246D02*
G01*
X50924257Y6923729D01*
X51070954Y6825709D01*
X51195709Y6700954D01*
X51293729Y6554257D01*
X51361246Y6391256D01*
X51395666Y6218215D01*
X51395666Y6041785D01*
X51361246Y5868744D01*
X51293729Y5705743D01*
X51195709Y5559046D01*
X51070954Y5434291D01*
X50924257Y5336271D01*
X50761256Y5268754D01*
X50588215Y5234334D01*
X50411785Y5234334D01*
X50238744Y5268754D01*
X50075743Y5336271D01*
X49929046Y5434291D01*
X49804291Y5559046D01*
X49706271Y5705743D01*
X49638754Y5868744D01*
X49604334Y6041785D01*
X49604334Y6218215D01*
X49638754Y6391256D01*
X49706271Y6554257D01*
X49804291Y6700954D01*
X49929046Y6825709D01*
X50075743Y6923729D01*
X50238744Y6991246D01*
X50411785Y7025666D01*
X50588215Y7025666D01*
X50761256Y6991246D01*
G37*
G36*
X53301256Y6991246D02*
G01*
X53464257Y6923729D01*
X53610954Y6825709D01*
X53735709Y6700954D01*
X53833729Y6554257D01*
X53901246Y6391256D01*
X53935666Y6218215D01*
X53935666Y6041785D01*
X53901246Y5868744D01*
X53833729Y5705743D01*
X53735709Y5559046D01*
X53610954Y5434291D01*
X53464257Y5336271D01*
X53301256Y5268754D01*
X53128215Y5234334D01*
X52951785Y5234334D01*
X52778744Y5268754D01*
X52615743Y5336271D01*
X52469046Y5434291D01*
X52344291Y5559046D01*
X52246271Y5705743D01*
X52178754Y5868744D01*
X52144334Y6041785D01*
X52144334Y6218215D01*
X52178754Y6391256D01*
X52246271Y6554257D01*
X52344291Y6700954D01*
X52469046Y6825709D01*
X52615743Y6923729D01*
X52778744Y6991246D01*
X52951785Y7025666D01*
X53128215Y7025666D01*
X53301256Y6991246D01*
G37*
G36*
X55841256Y6991246D02*
G01*
X56004257Y6923729D01*
X56150954Y6825709D01*
X56275709Y6700954D01*
X56373729Y6554257D01*
X56441246Y6391256D01*
X56475666Y6218215D01*
X56475666Y6041785D01*
X56441246Y5868744D01*
X56373729Y5705743D01*
X56275709Y5559046D01*
X56150954Y5434291D01*
X56004257Y5336271D01*
X55841256Y5268754D01*
X55668215Y5234334D01*
X55491785Y5234334D01*
X55318744Y5268754D01*
X55155743Y5336271D01*
X55009046Y5434291D01*
X54884291Y5559046D01*
X54786271Y5705743D01*
X54718754Y5868744D01*
X54684334Y6041785D01*
X54684334Y6218215D01*
X54718754Y6391256D01*
X54786271Y6554257D01*
X54884291Y6700954D01*
X55009046Y6825709D01*
X55155743Y6923729D01*
X55318744Y6991246D01*
X55491785Y7025666D01*
X55668215Y7025666D01*
X55841256Y6991246D01*
G37*
G36*
X58381256Y6991246D02*
G01*
X58544257Y6923729D01*
X58690954Y6825709D01*
X58815709Y6700954D01*
X58913729Y6554257D01*
X58981246Y6391256D01*
X59015666Y6218215D01*
X59015666Y6041785D01*
X58981246Y5868744D01*
X58913729Y5705743D01*
X58815709Y5559046D01*
X58690954Y5434291D01*
X58544257Y5336271D01*
X58381256Y5268754D01*
X58208215Y5234334D01*
X58031785Y5234334D01*
X57858744Y5268754D01*
X57695743Y5336271D01*
X57549046Y5434291D01*
X57424291Y5559046D01*
X57326271Y5705743D01*
X57258754Y5868744D01*
X57224334Y6041785D01*
X57224334Y6218215D01*
X57258754Y6391256D01*
X57326271Y6554257D01*
X57424291Y6700954D01*
X57549046Y6825709D01*
X57695743Y6923729D01*
X57858744Y6991246D01*
X58031785Y7025666D01*
X58208215Y7025666D01*
X58381256Y6991246D01*
G37*
G36*
X60921256Y6991246D02*
G01*
X61084257Y6923729D01*
X61230954Y6825709D01*
X61355709Y6700954D01*
X61453729Y6554257D01*
X61521246Y6391256D01*
X61555666Y6218215D01*
X61555666Y6041785D01*
X61521246Y5868744D01*
X61453729Y5705743D01*
X61355709Y5559046D01*
X61230954Y5434291D01*
X61084257Y5336271D01*
X60921256Y5268754D01*
X60748215Y5234334D01*
X60571785Y5234334D01*
X60398744Y5268754D01*
X60235743Y5336271D01*
X60089046Y5434291D01*
X59964291Y5559046D01*
X59866271Y5705743D01*
X59798754Y5868744D01*
X59764334Y6041785D01*
X59764334Y6218215D01*
X59798754Y6391256D01*
X59866271Y6554257D01*
X59964291Y6700954D01*
X60089046Y6825709D01*
X60235743Y6923729D01*
X60398744Y6991246D01*
X60571785Y7025666D01*
X60748215Y7025666D01*
X60921256Y6991246D01*
G37*
G36*
X63461256Y6991246D02*
G01*
X63624257Y6923729D01*
X63770954Y6825709D01*
X63895709Y6700954D01*
X63993729Y6554257D01*
X64061246Y6391256D01*
X64095666Y6218215D01*
X64095666Y6041785D01*
X64061246Y5868744D01*
X63993729Y5705743D01*
X63895709Y5559046D01*
X63770954Y5434291D01*
X63624257Y5336271D01*
X63461256Y5268754D01*
X63288215Y5234334D01*
X63111785Y5234334D01*
X62938744Y5268754D01*
X62775743Y5336271D01*
X62629046Y5434291D01*
X62504291Y5559046D01*
X62406271Y5705743D01*
X62338754Y5868744D01*
X62304334Y6041785D01*
X62304334Y6218215D01*
X62338754Y6391256D01*
X62406271Y6554257D01*
X62504291Y6700954D01*
X62629046Y6825709D01*
X62775743Y6923729D01*
X62938744Y6991246D01*
X63111785Y7025666D01*
X63288215Y7025666D01*
X63461256Y6991246D01*
G37*
G36*
X66001256Y6991246D02*
G01*
X66164257Y6923729D01*
X66310954Y6825709D01*
X66435709Y6700954D01*
X66533729Y6554257D01*
X66601246Y6391256D01*
X66635666Y6218215D01*
X66635666Y6041785D01*
X66601246Y5868744D01*
X66533729Y5705743D01*
X66435709Y5559046D01*
X66310954Y5434291D01*
X66164257Y5336271D01*
X66001256Y5268754D01*
X65828215Y5234334D01*
X65651785Y5234334D01*
X65478744Y5268754D01*
X65315743Y5336271D01*
X65169046Y5434291D01*
X65044291Y5559046D01*
X64946271Y5705743D01*
X64878754Y5868744D01*
X64844334Y6041785D01*
X64844334Y6218215D01*
X64878754Y6391256D01*
X64946271Y6554257D01*
X65044291Y6700954D01*
X65169046Y6825709D01*
X65315743Y6923729D01*
X65478744Y6991246D01*
X65651785Y7025666D01*
X65828215Y7025666D01*
X66001256Y6991246D01*
G37*
G36*
X68541256Y6991246D02*
G01*
X68704257Y6923729D01*
X68850954Y6825709D01*
X68975709Y6700954D01*
X69073729Y6554257D01*
X69141246Y6391256D01*
X69175666Y6218215D01*
X69175666Y6041785D01*
X69141246Y5868744D01*
X69073729Y5705743D01*
X68975709Y5559046D01*
X68850954Y5434291D01*
X68704257Y5336271D01*
X68541256Y5268754D01*
X68368215Y5234334D01*
X68191785Y5234334D01*
X68018744Y5268754D01*
X67855743Y5336271D01*
X67709046Y5434291D01*
X67584291Y5559046D01*
X67486271Y5705743D01*
X67418754Y5868744D01*
X67384334Y6041785D01*
X67384334Y6218215D01*
X67418754Y6391256D01*
X67486271Y6554257D01*
X67584291Y6700954D01*
X67709046Y6825709D01*
X67855743Y6923729D01*
X68018744Y6991246D01*
X68191785Y7025666D01*
X68368215Y7025666D01*
X68541256Y6991246D01*
G37*
G36*
X71081256Y6991246D02*
G01*
X71244257Y6923729D01*
X71390954Y6825709D01*
X71515709Y6700954D01*
X71613729Y6554257D01*
X71681246Y6391256D01*
X71715666Y6218215D01*
X71715666Y6041785D01*
X71681246Y5868744D01*
X71613729Y5705743D01*
X71515709Y5559046D01*
X71390954Y5434291D01*
X71244257Y5336271D01*
X71081256Y5268754D01*
X70908215Y5234334D01*
X70731785Y5234334D01*
X70558744Y5268754D01*
X70395743Y5336271D01*
X70249046Y5434291D01*
X70124291Y5559046D01*
X70026271Y5705743D01*
X69958754Y5868744D01*
X69924334Y6041785D01*
X69924334Y6218215D01*
X69958754Y6391256D01*
X70026271Y6554257D01*
X70124291Y6700954D01*
X70249046Y6825709D01*
X70395743Y6923729D01*
X70558744Y6991246D01*
X70731785Y7025666D01*
X70908215Y7025666D01*
X71081256Y6991246D01*
G37*
G36*
X73621256Y6991246D02*
G01*
X73784257Y6923729D01*
X73930954Y6825709D01*
X74055709Y6700954D01*
X74153729Y6554257D01*
X74221246Y6391256D01*
X74255666Y6218215D01*
X74255666Y6041785D01*
X74221246Y5868744D01*
X74153729Y5705743D01*
X74055709Y5559046D01*
X73930954Y5434291D01*
X73784257Y5336271D01*
X73621256Y5268754D01*
X73448215Y5234334D01*
X73271785Y5234334D01*
X73098744Y5268754D01*
X72935743Y5336271D01*
X72789046Y5434291D01*
X72664291Y5559046D01*
X72566271Y5705743D01*
X72498754Y5868744D01*
X72464334Y6041785D01*
X72464334Y6218215D01*
X72498754Y6391256D01*
X72566271Y6554257D01*
X72664291Y6700954D01*
X72789046Y6825709D01*
X72935743Y6923729D01*
X73098744Y6991246D01*
X73271785Y7025666D01*
X73448215Y7025666D01*
X73621256Y6991246D01*
G37*
G36*
X25969134Y9566194D02*
G01*
X25985355Y9555355D01*
X25996194Y9539134D01*
X26000000Y9520000D01*
X26000000Y7820000D01*
X25996194Y7800866D01*
X25985355Y7784645D01*
X25969134Y7773806D01*
X25950000Y7770000D01*
X24250000Y7770000D01*
X24230866Y7773806D01*
X24214645Y7784645D01*
X24203806Y7800866D01*
X24200000Y7820000D01*
X24200000Y9520000D01*
X24203806Y9539134D01*
X24214645Y9555355D01*
X24230866Y9566194D01*
X24250000Y9570000D01*
X25950000Y9570000D01*
X25969134Y9566194D01*
G37*
G36*
X27901256Y9531246D02*
G01*
X28064257Y9463729D01*
X28210954Y9365709D01*
X28335709Y9240954D01*
X28433729Y9094257D01*
X28501246Y8931256D01*
X28535666Y8758215D01*
X28535666Y8581785D01*
X28501246Y8408744D01*
X28433729Y8245743D01*
X28335709Y8099046D01*
X28210954Y7974291D01*
X28064257Y7876271D01*
X27901256Y7808754D01*
X27728215Y7774334D01*
X27551785Y7774334D01*
X27378744Y7808754D01*
X27215743Y7876271D01*
X27069046Y7974291D01*
X26944291Y8099046D01*
X26846271Y8245743D01*
X26778754Y8408744D01*
X26744334Y8581785D01*
X26744334Y8758215D01*
X26778754Y8931256D01*
X26846271Y9094257D01*
X26944291Y9240954D01*
X27069046Y9365709D01*
X27215743Y9463729D01*
X27378744Y9531246D01*
X27551785Y9565666D01*
X27728215Y9565666D01*
X27901256Y9531246D01*
G37*
G36*
X30441256Y9531246D02*
G01*
X30604257Y9463729D01*
X30750954Y9365709D01*
X30875709Y9240954D01*
X30973729Y9094257D01*
X31041246Y8931256D01*
X31075666Y8758215D01*
X31075666Y8581785D01*
X31041246Y8408744D01*
X30973729Y8245743D01*
X30875709Y8099046D01*
X30750954Y7974291D01*
X30604257Y7876271D01*
X30441256Y7808754D01*
X30268215Y7774334D01*
X30091785Y7774334D01*
X29918744Y7808754D01*
X29755743Y7876271D01*
X29609046Y7974291D01*
X29484291Y8099046D01*
X29386271Y8245743D01*
X29318754Y8408744D01*
X29284334Y8581785D01*
X29284334Y8758215D01*
X29318754Y8931256D01*
X29386271Y9094257D01*
X29484291Y9240954D01*
X29609046Y9365709D01*
X29755743Y9463729D01*
X29918744Y9531246D01*
X30091785Y9565666D01*
X30268215Y9565666D01*
X30441256Y9531246D01*
G37*
G36*
X32981256Y9531246D02*
G01*
X33144257Y9463729D01*
X33290954Y9365709D01*
X33415709Y9240954D01*
X33513729Y9094257D01*
X33581246Y8931256D01*
X33615666Y8758215D01*
X33615666Y8581785D01*
X33581246Y8408744D01*
X33513729Y8245743D01*
X33415709Y8099046D01*
X33290954Y7974291D01*
X33144257Y7876271D01*
X32981256Y7808754D01*
X32808215Y7774334D01*
X32631785Y7774334D01*
X32458744Y7808754D01*
X32295743Y7876271D01*
X32149046Y7974291D01*
X32024291Y8099046D01*
X31926271Y8245743D01*
X31858754Y8408744D01*
X31824334Y8581785D01*
X31824334Y8758215D01*
X31858754Y8931256D01*
X31926271Y9094257D01*
X32024291Y9240954D01*
X32149046Y9365709D01*
X32295743Y9463729D01*
X32458744Y9531246D01*
X32631785Y9565666D01*
X32808215Y9565666D01*
X32981256Y9531246D01*
G37*
G36*
X35521256Y9531246D02*
G01*
X35684257Y9463729D01*
X35830954Y9365709D01*
X35955709Y9240954D01*
X36053729Y9094257D01*
X36121246Y8931256D01*
X36155666Y8758215D01*
X36155666Y8581785D01*
X36121246Y8408744D01*
X36053729Y8245743D01*
X35955709Y8099046D01*
X35830954Y7974291D01*
X35684257Y7876271D01*
X35521256Y7808754D01*
X35348215Y7774334D01*
X35171785Y7774334D01*
X34998744Y7808754D01*
X34835743Y7876271D01*
X34689046Y7974291D01*
X34564291Y8099046D01*
X34466271Y8245743D01*
X34398754Y8408744D01*
X34364334Y8581785D01*
X34364334Y8758215D01*
X34398754Y8931256D01*
X34466271Y9094257D01*
X34564291Y9240954D01*
X34689046Y9365709D01*
X34835743Y9463729D01*
X34998744Y9531246D01*
X35171785Y9565666D01*
X35348215Y9565666D01*
X35521256Y9531246D01*
G37*
G36*
X38061256Y9531246D02*
G01*
X38224257Y9463729D01*
X38370954Y9365709D01*
X38495709Y9240954D01*
X38593729Y9094257D01*
X38661246Y8931256D01*
X38695666Y8758215D01*
X38695666Y8581785D01*
X38661246Y8408744D01*
X38593729Y8245743D01*
X38495709Y8099046D01*
X38370954Y7974291D01*
X38224257Y7876271D01*
X38061256Y7808754D01*
X37888215Y7774334D01*
X37711785Y7774334D01*
X37538744Y7808754D01*
X37375743Y7876271D01*
X37229046Y7974291D01*
X37104291Y8099046D01*
X37006271Y8245743D01*
X36938754Y8408744D01*
X36904334Y8581785D01*
X36904334Y8758215D01*
X36938754Y8931256D01*
X37006271Y9094257D01*
X37104291Y9240954D01*
X37229046Y9365709D01*
X37375743Y9463729D01*
X37538744Y9531246D01*
X37711785Y9565666D01*
X37888215Y9565666D01*
X38061256Y9531246D01*
G37*
G36*
X40601256Y9531246D02*
G01*
X40764257Y9463729D01*
X40910954Y9365709D01*
X41035709Y9240954D01*
X41133729Y9094257D01*
X41201246Y8931256D01*
X41235666Y8758215D01*
X41235666Y8581785D01*
X41201246Y8408744D01*
X41133729Y8245743D01*
X41035709Y8099046D01*
X40910954Y7974291D01*
X40764257Y7876271D01*
X40601256Y7808754D01*
X40428215Y7774334D01*
X40251785Y7774334D01*
X40078744Y7808754D01*
X39915743Y7876271D01*
X39769046Y7974291D01*
X39644291Y8099046D01*
X39546271Y8245743D01*
X39478754Y8408744D01*
X39444334Y8581785D01*
X39444334Y8758215D01*
X39478754Y8931256D01*
X39546271Y9094257D01*
X39644291Y9240954D01*
X39769046Y9365709D01*
X39915743Y9463729D01*
X40078744Y9531246D01*
X40251785Y9565666D01*
X40428215Y9565666D01*
X40601256Y9531246D01*
G37*
G36*
X43141256Y9531246D02*
G01*
X43304257Y9463729D01*
X43450954Y9365709D01*
X43575709Y9240954D01*
X43673729Y9094257D01*
X43741246Y8931256D01*
X43775666Y8758215D01*
X43775666Y8581785D01*
X43741246Y8408744D01*
X43673729Y8245743D01*
X43575709Y8099046D01*
X43450954Y7974291D01*
X43304257Y7876271D01*
X43141256Y7808754D01*
X42968215Y7774334D01*
X42791785Y7774334D01*
X42618744Y7808754D01*
X42455743Y7876271D01*
X42309046Y7974291D01*
X42184291Y8099046D01*
X42086271Y8245743D01*
X42018754Y8408744D01*
X41984334Y8581785D01*
X41984334Y8758215D01*
X42018754Y8931256D01*
X42086271Y9094257D01*
X42184291Y9240954D01*
X42309046Y9365709D01*
X42455743Y9463729D01*
X42618744Y9531246D01*
X42791785Y9565666D01*
X42968215Y9565666D01*
X43141256Y9531246D01*
G37*
G36*
X45681256Y9531246D02*
G01*
X45844257Y9463729D01*
X45990954Y9365709D01*
X46115709Y9240954D01*
X46213729Y9094257D01*
X46281246Y8931256D01*
X46315666Y8758215D01*
X46315666Y8581785D01*
X46281246Y8408744D01*
X46213729Y8245743D01*
X46115709Y8099046D01*
X45990954Y7974291D01*
X45844257Y7876271D01*
X45681256Y7808754D01*
X45508215Y7774334D01*
X45331785Y7774334D01*
X45158744Y7808754D01*
X44995743Y7876271D01*
X44849046Y7974291D01*
X44724291Y8099046D01*
X44626271Y8245743D01*
X44558754Y8408744D01*
X44524334Y8581785D01*
X44524334Y8758215D01*
X44558754Y8931256D01*
X44626271Y9094257D01*
X44724291Y9240954D01*
X44849046Y9365709D01*
X44995743Y9463729D01*
X45158744Y9531246D01*
X45331785Y9565666D01*
X45508215Y9565666D01*
X45681256Y9531246D01*
G37*
G36*
X48221256Y9531246D02*
G01*
X48384257Y9463729D01*
X48530954Y9365709D01*
X48655709Y9240954D01*
X48753729Y9094257D01*
X48821246Y8931256D01*
X48855666Y8758215D01*
X48855666Y8581785D01*
X48821246Y8408744D01*
X48753729Y8245743D01*
X48655709Y8099046D01*
X48530954Y7974291D01*
X48384257Y7876271D01*
X48221256Y7808754D01*
X48048215Y7774334D01*
X47871785Y7774334D01*
X47698744Y7808754D01*
X47535743Y7876271D01*
X47389046Y7974291D01*
X47264291Y8099046D01*
X47166271Y8245743D01*
X47098754Y8408744D01*
X47064334Y8581785D01*
X47064334Y8758215D01*
X47098754Y8931256D01*
X47166271Y9094257D01*
X47264291Y9240954D01*
X47389046Y9365709D01*
X47535743Y9463729D01*
X47698744Y9531246D01*
X47871785Y9565666D01*
X48048215Y9565666D01*
X48221256Y9531246D01*
G37*
G36*
X50761256Y9531246D02*
G01*
X50924257Y9463729D01*
X51070954Y9365709D01*
X51195709Y9240954D01*
X51293729Y9094257D01*
X51361246Y8931256D01*
X51395666Y8758215D01*
X51395666Y8581785D01*
X51361246Y8408744D01*
X51293729Y8245743D01*
X51195709Y8099046D01*
X51070954Y7974291D01*
X50924257Y7876271D01*
X50761256Y7808754D01*
X50588215Y7774334D01*
X50411785Y7774334D01*
X50238744Y7808754D01*
X50075743Y7876271D01*
X49929046Y7974291D01*
X49804291Y8099046D01*
X49706271Y8245743D01*
X49638754Y8408744D01*
X49604334Y8581785D01*
X49604334Y8758215D01*
X49638754Y8931256D01*
X49706271Y9094257D01*
X49804291Y9240954D01*
X49929046Y9365709D01*
X50075743Y9463729D01*
X50238744Y9531246D01*
X50411785Y9565666D01*
X50588215Y9565666D01*
X50761256Y9531246D01*
G37*
G36*
X53301256Y9531246D02*
G01*
X53464257Y9463729D01*
X53610954Y9365709D01*
X53735709Y9240954D01*
X53833729Y9094257D01*
X53901246Y8931256D01*
X53935666Y8758215D01*
X53935666Y8581785D01*
X53901246Y8408744D01*
X53833729Y8245743D01*
X53735709Y8099046D01*
X53610954Y7974291D01*
X53464257Y7876271D01*
X53301256Y7808754D01*
X53128215Y7774334D01*
X52951785Y7774334D01*
X52778744Y7808754D01*
X52615743Y7876271D01*
X52469046Y7974291D01*
X52344291Y8099046D01*
X52246271Y8245743D01*
X52178754Y8408744D01*
X52144334Y8581785D01*
X52144334Y8758215D01*
X52178754Y8931256D01*
X52246271Y9094257D01*
X52344291Y9240954D01*
X52469046Y9365709D01*
X52615743Y9463729D01*
X52778744Y9531246D01*
X52951785Y9565666D01*
X53128215Y9565666D01*
X53301256Y9531246D01*
G37*
G36*
X55841256Y9531246D02*
G01*
X56004257Y9463729D01*
X56150954Y9365709D01*
X56275709Y9240954D01*
X56373729Y9094257D01*
X56441246Y8931256D01*
X56475666Y8758215D01*
X56475666Y8581785D01*
X56441246Y8408744D01*
X56373729Y8245743D01*
X56275709Y8099046D01*
X56150954Y7974291D01*
X56004257Y7876271D01*
X55841256Y7808754D01*
X55668215Y7774334D01*
X55491785Y7774334D01*
X55318744Y7808754D01*
X55155743Y7876271D01*
X55009046Y7974291D01*
X54884291Y8099046D01*
X54786271Y8245743D01*
X54718754Y8408744D01*
X54684334Y8581785D01*
X54684334Y8758215D01*
X54718754Y8931256D01*
X54786271Y9094257D01*
X54884291Y9240954D01*
X55009046Y9365709D01*
X55155743Y9463729D01*
X55318744Y9531246D01*
X55491785Y9565666D01*
X55668215Y9565666D01*
X55841256Y9531246D01*
G37*
G36*
X58381256Y9531246D02*
G01*
X58544257Y9463729D01*
X58690954Y9365709D01*
X58815709Y9240954D01*
X58913729Y9094257D01*
X58981246Y8931256D01*
X59015666Y8758215D01*
X59015666Y8581785D01*
X58981246Y8408744D01*
X58913729Y8245743D01*
X58815709Y8099046D01*
X58690954Y7974291D01*
X58544257Y7876271D01*
X58381256Y7808754D01*
X58208215Y7774334D01*
X58031785Y7774334D01*
X57858744Y7808754D01*
X57695743Y7876271D01*
X57549046Y7974291D01*
X57424291Y8099046D01*
X57326271Y8245743D01*
X57258754Y8408744D01*
X57224334Y8581785D01*
X57224334Y8758215D01*
X57258754Y8931256D01*
X57326271Y9094257D01*
X57424291Y9240954D01*
X57549046Y9365709D01*
X57695743Y9463729D01*
X57858744Y9531246D01*
X58031785Y9565666D01*
X58208215Y9565666D01*
X58381256Y9531246D01*
G37*
G36*
X60921256Y9531246D02*
G01*
X61084257Y9463729D01*
X61230954Y9365709D01*
X61355709Y9240954D01*
X61453729Y9094257D01*
X61521246Y8931256D01*
X61555666Y8758215D01*
X61555666Y8581785D01*
X61521246Y8408744D01*
X61453729Y8245743D01*
X61355709Y8099046D01*
X61230954Y7974291D01*
X61084257Y7876271D01*
X60921256Y7808754D01*
X60748215Y7774334D01*
X60571785Y7774334D01*
X60398744Y7808754D01*
X60235743Y7876271D01*
X60089046Y7974291D01*
X59964291Y8099046D01*
X59866271Y8245743D01*
X59798754Y8408744D01*
X59764334Y8581785D01*
X59764334Y8758215D01*
X59798754Y8931256D01*
X59866271Y9094257D01*
X59964291Y9240954D01*
X60089046Y9365709D01*
X60235743Y9463729D01*
X60398744Y9531246D01*
X60571785Y9565666D01*
X60748215Y9565666D01*
X60921256Y9531246D01*
G37*
G36*
X63461256Y9531246D02*
G01*
X63624257Y9463729D01*
X63770954Y9365709D01*
X63895709Y9240954D01*
X63993729Y9094257D01*
X64061246Y8931256D01*
X64095666Y8758215D01*
X64095666Y8581785D01*
X64061246Y8408744D01*
X63993729Y8245743D01*
X63895709Y8099046D01*
X63770954Y7974291D01*
X63624257Y7876271D01*
X63461256Y7808754D01*
X63288215Y7774334D01*
X63111785Y7774334D01*
X62938744Y7808754D01*
X62775743Y7876271D01*
X62629046Y7974291D01*
X62504291Y8099046D01*
X62406271Y8245743D01*
X62338754Y8408744D01*
X62304334Y8581785D01*
X62304334Y8758215D01*
X62338754Y8931256D01*
X62406271Y9094257D01*
X62504291Y9240954D01*
X62629046Y9365709D01*
X62775743Y9463729D01*
X62938744Y9531246D01*
X63111785Y9565666D01*
X63288215Y9565666D01*
X63461256Y9531246D01*
G37*
G36*
X66001256Y9531246D02*
G01*
X66164257Y9463729D01*
X66310954Y9365709D01*
X66435709Y9240954D01*
X66533729Y9094257D01*
X66601246Y8931256D01*
X66635666Y8758215D01*
X66635666Y8581785D01*
X66601246Y8408744D01*
X66533729Y8245743D01*
X66435709Y8099046D01*
X66310954Y7974291D01*
X66164257Y7876271D01*
X66001256Y7808754D01*
X65828215Y7774334D01*
X65651785Y7774334D01*
X65478744Y7808754D01*
X65315743Y7876271D01*
X65169046Y7974291D01*
X65044291Y8099046D01*
X64946271Y8245743D01*
X64878754Y8408744D01*
X64844334Y8581785D01*
X64844334Y8758215D01*
X64878754Y8931256D01*
X64946271Y9094257D01*
X65044291Y9240954D01*
X65169046Y9365709D01*
X65315743Y9463729D01*
X65478744Y9531246D01*
X65651785Y9565666D01*
X65828215Y9565666D01*
X66001256Y9531246D01*
G37*
G36*
X68541256Y9531246D02*
G01*
X68704257Y9463729D01*
X68850954Y9365709D01*
X68975709Y9240954D01*
X69073729Y9094257D01*
X69141246Y8931256D01*
X69175666Y8758215D01*
X69175666Y8581785D01*
X69141246Y8408744D01*
X69073729Y8245743D01*
X68975709Y8099046D01*
X68850954Y7974291D01*
X68704257Y7876271D01*
X68541256Y7808754D01*
X68368215Y7774334D01*
X68191785Y7774334D01*
X68018744Y7808754D01*
X67855743Y7876271D01*
X67709046Y7974291D01*
X67584291Y8099046D01*
X67486271Y8245743D01*
X67418754Y8408744D01*
X67384334Y8581785D01*
X67384334Y8758215D01*
X67418754Y8931256D01*
X67486271Y9094257D01*
X67584291Y9240954D01*
X67709046Y9365709D01*
X67855743Y9463729D01*
X68018744Y9531246D01*
X68191785Y9565666D01*
X68368215Y9565666D01*
X68541256Y9531246D01*
G37*
G36*
X71081256Y9531246D02*
G01*
X71244257Y9463729D01*
X71390954Y9365709D01*
X71515709Y9240954D01*
X71613729Y9094257D01*
X71681246Y8931256D01*
X71715666Y8758215D01*
X71715666Y8581785D01*
X71681246Y8408744D01*
X71613729Y8245743D01*
X71515709Y8099046D01*
X71390954Y7974291D01*
X71244257Y7876271D01*
X71081256Y7808754D01*
X70908215Y7774334D01*
X70731785Y7774334D01*
X70558744Y7808754D01*
X70395743Y7876271D01*
X70249046Y7974291D01*
X70124291Y8099046D01*
X70026271Y8245743D01*
X69958754Y8408744D01*
X69924334Y8581785D01*
X69924334Y8758215D01*
X69958754Y8931256D01*
X70026271Y9094257D01*
X70124291Y9240954D01*
X70249046Y9365709D01*
X70395743Y9463729D01*
X70558744Y9531246D01*
X70731785Y9565666D01*
X70908215Y9565666D01*
X71081256Y9531246D01*
G37*
G36*
X73621256Y9531246D02*
G01*
X73784257Y9463729D01*
X73930954Y9365709D01*
X74055709Y9240954D01*
X74153729Y9094257D01*
X74221246Y8931256D01*
X74255666Y8758215D01*
X74255666Y8581785D01*
X74221246Y8408744D01*
X74153729Y8245743D01*
X74055709Y8099046D01*
X73930954Y7974291D01*
X73784257Y7876271D01*
X73621256Y7808754D01*
X73448215Y7774334D01*
X73271785Y7774334D01*
X73098744Y7808754D01*
X72935743Y7876271D01*
X72789046Y7974291D01*
X72664291Y8099046D01*
X72566271Y8245743D01*
X72498754Y8408744D01*
X72464334Y8581785D01*
X72464334Y8758215D01*
X72498754Y8931256D01*
X72566271Y9094257D01*
X72664291Y9240954D01*
X72789046Y9365709D01*
X72935743Y9463729D01*
X73098744Y9531246D01*
X73271785Y9565666D01*
X73448215Y9565666D01*
X73621256Y9531246D01*
G37*
G36*
X82849828Y23011056D02*
G01*
X82899985Y23003749D01*
X82909192Y22999248D01*
X82925671Y22995970D01*
X82952322Y22978162D01*
X82974465Y22967337D01*
X82986428Y22955374D01*
X83006777Y22941777D01*
X83020373Y22921429D01*
X83032336Y22909466D01*
X83043160Y22887326D01*
X83060970Y22860671D01*
X83064248Y22844191D01*
X83068748Y22834986D01*
X83076053Y22784843D01*
X83080000Y22765000D01*
X83080000Y22215000D01*
X83076052Y22195153D01*
X83068748Y22145015D01*
X83064248Y22135812D01*
X83060970Y22119329D01*
X83043158Y22092672D01*
X83032336Y22070535D01*
X83020375Y22058575D01*
X83006777Y22038223D01*
X82986425Y22024625D01*
X82974465Y22012664D01*
X82952328Y22001842D01*
X82925671Y21984030D01*
X82909188Y21980752D01*
X82899985Y21976252D01*
X82849845Y21968948D01*
X82830000Y21965000D01*
X82430000Y21965000D01*
X82410155Y21968948D01*
X82360014Y21976252D01*
X82350809Y21980752D01*
X82334329Y21984030D01*
X82307674Y22001840D01*
X82285534Y22012664D01*
X82273571Y22024627D01*
X82253223Y22038223D01*
X82239626Y22058572D01*
X82227663Y22070535D01*
X82216838Y22092678D01*
X82199030Y22119329D01*
X82195752Y22135808D01*
X82191251Y22145015D01*
X82183943Y22195174D01*
X82180000Y22215000D01*
X82180000Y22765000D01*
X82183943Y22784826D01*
X82191251Y22834986D01*
X82195752Y22844194D01*
X82199030Y22860671D01*
X82216836Y22887321D01*
X82227663Y22909466D01*
X82239628Y22921432D01*
X82253223Y22941777D01*
X82273568Y22955372D01*
X82285534Y22967337D01*
X82307679Y22978164D01*
X82334329Y22995970D01*
X82350806Y22999248D01*
X82360014Y23003749D01*
X82410175Y23011057D01*
X82430000Y23015000D01*
X82830000Y23015000D01*
X82849828Y23011056D01*
G37*
G36*
X84499828Y23011056D02*
G01*
X84549985Y23003749D01*
X84559192Y22999248D01*
X84575671Y22995970D01*
X84602322Y22978162D01*
X84624465Y22967337D01*
X84636428Y22955374D01*
X84656777Y22941777D01*
X84670373Y22921429D01*
X84682336Y22909466D01*
X84693160Y22887326D01*
X84710970Y22860671D01*
X84714248Y22844191D01*
X84718748Y22834986D01*
X84726053Y22784843D01*
X84730000Y22765000D01*
X84730000Y22215000D01*
X84726052Y22195153D01*
X84718748Y22145015D01*
X84714248Y22135812D01*
X84710970Y22119329D01*
X84693158Y22092672D01*
X84682336Y22070535D01*
X84670375Y22058575D01*
X84656777Y22038223D01*
X84636425Y22024625D01*
X84624465Y22012664D01*
X84602328Y22001842D01*
X84575671Y21984030D01*
X84559188Y21980752D01*
X84549985Y21976252D01*
X84499845Y21968948D01*
X84480000Y21965000D01*
X84080000Y21965000D01*
X84060155Y21968948D01*
X84010014Y21976252D01*
X84000809Y21980752D01*
X83984329Y21984030D01*
X83957674Y22001840D01*
X83935534Y22012664D01*
X83923571Y22024627D01*
X83903223Y22038223D01*
X83889626Y22058572D01*
X83877663Y22070535D01*
X83866838Y22092678D01*
X83849030Y22119329D01*
X83845752Y22135808D01*
X83841251Y22145015D01*
X83833943Y22195174D01*
X83830000Y22215000D01*
X83830000Y22765000D01*
X83833943Y22784826D01*
X83841251Y22834986D01*
X83845752Y22844194D01*
X83849030Y22860671D01*
X83866836Y22887321D01*
X83877663Y22909466D01*
X83889628Y22921432D01*
X83903223Y22941777D01*
X83923568Y22955372D01*
X83935534Y22967337D01*
X83957679Y22978164D01*
X83984329Y22995970D01*
X84000806Y22999248D01*
X84010014Y23003749D01*
X84060175Y23011057D01*
X84080000Y23015000D01*
X84480000Y23015000D01*
X84499828Y23011056D01*
G37*
G36*
X92891896Y26074944D02*
G01*
X92902918Y26074944D01*
X92945994Y26066376D01*
X93045046Y26050687D01*
X93076906Y26040336D01*
X93104799Y26034787D01*
X93144153Y26018486D01*
X93201698Y25999789D01*
X93255611Y25972319D01*
X93294967Y25956017D01*
X93318611Y25940218D01*
X93348463Y25925008D01*
X93429604Y25866056D01*
X93466113Y25841661D01*
X93473905Y25833869D01*
X93481720Y25828191D01*
X93598190Y25711721D01*
X93603867Y25703907D01*
X93611661Y25696113D01*
X93636058Y25659600D01*
X93695007Y25578464D01*
X93710215Y25548615D01*
X93726017Y25524967D01*
X93742320Y25485607D01*
X93769788Y25431699D01*
X93788482Y25374162D01*
X93804787Y25334799D01*
X93810336Y25306901D01*
X93820686Y25275047D01*
X93836374Y25176001D01*
X93844944Y25132918D01*
X93844944Y25121897D01*
X93846455Y25112357D01*
X93846455Y24947644D01*
X93844944Y24938105D01*
X93844944Y24927082D01*
X93836373Y24883997D01*
X93820686Y24784954D01*
X93810336Y24753102D01*
X93804787Y24725201D01*
X93788481Y24685836D01*
X93769788Y24628302D01*
X93742323Y24574400D01*
X93726017Y24535033D01*
X93710213Y24511382D01*
X93695007Y24481537D01*
X93636066Y24400413D01*
X93611661Y24363887D01*
X93603865Y24356092D01*
X93598190Y24348280D01*
X93481720Y24231810D01*
X93473908Y24226135D01*
X93466113Y24218339D01*
X93429587Y24193934D01*
X93348463Y24134993D01*
X93318618Y24119787D01*
X93294967Y24103983D01*
X93255600Y24087677D01*
X93201698Y24060212D01*
X93144164Y24041519D01*
X93104799Y24025213D01*
X93076898Y24019664D01*
X93045046Y24009314D01*
X92946003Y23993627D01*
X92902918Y23985056D01*
X92891896Y23985056D01*
X92882356Y23983545D01*
X92717644Y23983545D01*
X92708104Y23985056D01*
X92697082Y23985056D01*
X92653997Y23993627D01*
X92554953Y24009314D01*
X92523099Y24019664D01*
X92495201Y24025213D01*
X92455838Y24041518D01*
X92398301Y24060212D01*
X92344393Y24087680D01*
X92305033Y24103983D01*
X92281385Y24119785D01*
X92251536Y24134993D01*
X92170400Y24193942D01*
X92133887Y24218339D01*
X92126093Y24226133D01*
X92118279Y24231810D01*
X92001809Y24348280D01*
X91996131Y24356095D01*
X91988339Y24363887D01*
X91963944Y24400396D01*
X91904992Y24481537D01*
X91889782Y24511389D01*
X91873983Y24535033D01*
X91857681Y24574389D01*
X91830211Y24628302D01*
X91811514Y24685847D01*
X91795213Y24725201D01*
X91789664Y24753094D01*
X91779313Y24784954D01*
X91763624Y24884006D01*
X91755056Y24927082D01*
X91755056Y24938105D01*
X91753545Y24947644D01*
X91753545Y25112357D01*
X91755056Y25121897D01*
X91755056Y25132918D01*
X91763623Y25175991D01*
X91779313Y25275047D01*
X91789665Y25306909D01*
X91795213Y25334799D01*
X91811512Y25374150D01*
X91830211Y25431699D01*
X91857683Y25485617D01*
X91873983Y25524967D01*
X91889779Y25548609D01*
X91904992Y25578464D01*
X91963953Y25659617D01*
X91988339Y25696113D01*
X91996128Y25703903D01*
X92001809Y25711721D01*
X92118279Y25828191D01*
X92126097Y25833872D01*
X92133887Y25841661D01*
X92170383Y25866047D01*
X92251536Y25925008D01*
X92281391Y25940221D01*
X92305033Y25956017D01*
X92344383Y25972317D01*
X92398301Y25999789D01*
X92455850Y26018488D01*
X92495201Y26034787D01*
X92523091Y26040335D01*
X92554953Y26050687D01*
X92654007Y26066376D01*
X92697082Y26074944D01*
X92708104Y26074944D01*
X92717644Y26076455D01*
X92882356Y26076455D01*
X92891896Y26074944D01*
G37*
G36*
X95196896Y26174944D02*
G01*
X95207918Y26174944D01*
X95250994Y26166376D01*
X95350046Y26150687D01*
X95381906Y26140336D01*
X95409799Y26134787D01*
X95449153Y26118486D01*
X95506698Y26099789D01*
X95560611Y26072319D01*
X95599967Y26056017D01*
X95623611Y26040218D01*
X95653463Y26025008D01*
X95734604Y25966056D01*
X95771113Y25941661D01*
X95778905Y25933869D01*
X95786720Y25928191D01*
X95903190Y25811721D01*
X95908867Y25803907D01*
X95916661Y25796113D01*
X95941058Y25759600D01*
X96000007Y25678464D01*
X96015215Y25648615D01*
X96031017Y25624967D01*
X96047320Y25585607D01*
X96074788Y25531699D01*
X96093482Y25474162D01*
X96109787Y25434799D01*
X96115336Y25406901D01*
X96125686Y25375047D01*
X96141374Y25276001D01*
X96149944Y25232918D01*
X96149944Y25221897D01*
X96151455Y25212357D01*
X96151455Y25047644D01*
X96149944Y25038105D01*
X96149944Y25027082D01*
X96141373Y24983997D01*
X96125686Y24884954D01*
X96115336Y24853102D01*
X96109787Y24825201D01*
X96093481Y24785836D01*
X96074788Y24728302D01*
X96047323Y24674400D01*
X96031017Y24635033D01*
X96015213Y24611382D01*
X96000007Y24581537D01*
X95941066Y24500413D01*
X95916661Y24463887D01*
X95908865Y24456092D01*
X95903190Y24448280D01*
X95786720Y24331810D01*
X95778908Y24326135D01*
X95771113Y24318339D01*
X95734587Y24293934D01*
X95653463Y24234993D01*
X95623618Y24219787D01*
X95599967Y24203983D01*
X95560600Y24187677D01*
X95506698Y24160212D01*
X95449164Y24141519D01*
X95409799Y24125213D01*
X95381898Y24119664D01*
X95350046Y24109314D01*
X95251003Y24093627D01*
X95207918Y24085056D01*
X95196896Y24085056D01*
X95187356Y24083545D01*
X95022644Y24083545D01*
X95013104Y24085056D01*
X95002082Y24085056D01*
X94958997Y24093627D01*
X94859953Y24109314D01*
X94828099Y24119664D01*
X94800201Y24125213D01*
X94760838Y24141518D01*
X94703301Y24160212D01*
X94649393Y24187680D01*
X94610033Y24203983D01*
X94586385Y24219785D01*
X94556536Y24234993D01*
X94475400Y24293942D01*
X94438887Y24318339D01*
X94431093Y24326133D01*
X94423279Y24331810D01*
X94306809Y24448280D01*
X94301131Y24456095D01*
X94293339Y24463887D01*
X94268944Y24500396D01*
X94209992Y24581537D01*
X94194782Y24611389D01*
X94178983Y24635033D01*
X94162681Y24674389D01*
X94135211Y24728302D01*
X94116514Y24785847D01*
X94100213Y24825201D01*
X94094664Y24853094D01*
X94084313Y24884954D01*
X94068624Y24984006D01*
X94060056Y25027082D01*
X94060056Y25038105D01*
X94058545Y25047644D01*
X94058545Y25212357D01*
X94060056Y25221897D01*
X94060056Y25232918D01*
X94068623Y25275991D01*
X94084313Y25375047D01*
X94094665Y25406909D01*
X94100213Y25434799D01*
X94116512Y25474150D01*
X94135211Y25531699D01*
X94162683Y25585617D01*
X94178983Y25624967D01*
X94194779Y25648609D01*
X94209992Y25678464D01*
X94268953Y25759617D01*
X94293339Y25796113D01*
X94301128Y25803903D01*
X94306809Y25811721D01*
X94423279Y25928191D01*
X94431097Y25933872D01*
X94438887Y25941661D01*
X94475383Y25966047D01*
X94556536Y26025008D01*
X94586391Y26040221D01*
X94610033Y26056017D01*
X94649383Y26072317D01*
X94703301Y26099789D01*
X94760850Y26118488D01*
X94800201Y26134787D01*
X94828091Y26140335D01*
X94859953Y26150687D01*
X94959007Y26166376D01*
X95002082Y26174944D01*
X95013104Y26174944D01*
X95022644Y26176455D01*
X95187356Y26176455D01*
X95196896Y26174944D01*
G37*
G36*
X82819828Y26161056D02*
G01*
X82869985Y26153749D01*
X82879192Y26149248D01*
X82895671Y26145970D01*
X82922322Y26128162D01*
X82944465Y26117337D01*
X82956428Y26105374D01*
X82976777Y26091777D01*
X82990373Y26071429D01*
X83002336Y26059466D01*
X83013160Y26037326D01*
X83030970Y26010671D01*
X83034248Y25994191D01*
X83038748Y25984986D01*
X83046053Y25934843D01*
X83050000Y25915000D01*
X83050000Y25365000D01*
X83046052Y25345153D01*
X83038748Y25295015D01*
X83034248Y25285812D01*
X83030970Y25269329D01*
X83013158Y25242672D01*
X83002336Y25220535D01*
X82990375Y25208575D01*
X82976777Y25188223D01*
X82956425Y25174625D01*
X82944465Y25162664D01*
X82922328Y25151842D01*
X82895671Y25134030D01*
X82879188Y25130752D01*
X82869985Y25126252D01*
X82819845Y25118948D01*
X82800000Y25115000D01*
X82400000Y25115000D01*
X82380155Y25118948D01*
X82330014Y25126252D01*
X82320809Y25130752D01*
X82304329Y25134030D01*
X82277674Y25151840D01*
X82255534Y25162664D01*
X82243571Y25174627D01*
X82223223Y25188223D01*
X82209626Y25208572D01*
X82197663Y25220535D01*
X82186838Y25242678D01*
X82169030Y25269329D01*
X82165752Y25285808D01*
X82161251Y25295015D01*
X82153943Y25345174D01*
X82150000Y25365000D01*
X82150000Y25915000D01*
X82153943Y25934826D01*
X82161251Y25984986D01*
X82165752Y25994194D01*
X82169030Y26010671D01*
X82186836Y26037321D01*
X82197663Y26059466D01*
X82209628Y26071432D01*
X82223223Y26091777D01*
X82243568Y26105372D01*
X82255534Y26117337D01*
X82277679Y26128164D01*
X82304329Y26145970D01*
X82320806Y26149248D01*
X82330014Y26153749D01*
X82380175Y26161057D01*
X82400000Y26165000D01*
X82800000Y26165000D01*
X82819828Y26161056D01*
G37*
G36*
X84469828Y26161056D02*
G01*
X84519985Y26153749D01*
X84529192Y26149248D01*
X84545671Y26145970D01*
X84572322Y26128162D01*
X84594465Y26117337D01*
X84606428Y26105374D01*
X84626777Y26091777D01*
X84640373Y26071429D01*
X84652336Y26059466D01*
X84663160Y26037326D01*
X84680970Y26010671D01*
X84684248Y25994191D01*
X84688748Y25984986D01*
X84696053Y25934843D01*
X84700000Y25915000D01*
X84700000Y25365000D01*
X84696052Y25345153D01*
X84688748Y25295015D01*
X84684248Y25285812D01*
X84680970Y25269329D01*
X84663158Y25242672D01*
X84652336Y25220535D01*
X84640375Y25208575D01*
X84626777Y25188223D01*
X84606425Y25174625D01*
X84594465Y25162664D01*
X84572328Y25151842D01*
X84545671Y25134030D01*
X84529188Y25130752D01*
X84519985Y25126252D01*
X84469845Y25118948D01*
X84450000Y25115000D01*
X84050000Y25115000D01*
X84030155Y25118948D01*
X83980014Y25126252D01*
X83970809Y25130752D01*
X83954329Y25134030D01*
X83927674Y25151840D01*
X83905534Y25162664D01*
X83893571Y25174627D01*
X83873223Y25188223D01*
X83859626Y25208572D01*
X83847663Y25220535D01*
X83836838Y25242678D01*
X83819030Y25269329D01*
X83815752Y25285808D01*
X83811251Y25295015D01*
X83803943Y25345174D01*
X83800000Y25365000D01*
X83800000Y25915000D01*
X83803943Y25934826D01*
X83811251Y25984986D01*
X83815752Y25994194D01*
X83819030Y26010671D01*
X83836836Y26037321D01*
X83847663Y26059466D01*
X83859628Y26071432D01*
X83873223Y26091777D01*
X83893568Y26105372D01*
X83905534Y26117337D01*
X83927679Y26128164D01*
X83954329Y26145970D01*
X83970806Y26149248D01*
X83980014Y26153749D01*
X84030175Y26161057D01*
X84050000Y26165000D01*
X84450000Y26165000D01*
X84469828Y26161056D01*
G37*
G36*
X21914828Y29511056D02*
G01*
X21964985Y29503749D01*
X21974192Y29499248D01*
X21990671Y29495970D01*
X22017322Y29478162D01*
X22039465Y29467337D01*
X22051428Y29455374D01*
X22071777Y29441777D01*
X22085373Y29421429D01*
X22097336Y29409466D01*
X22108160Y29387326D01*
X22125970Y29360671D01*
X22129248Y29344191D01*
X22133748Y29334986D01*
X22141053Y29284843D01*
X22145000Y29265000D01*
X22145000Y28715000D01*
X22141052Y28695153D01*
X22133748Y28645015D01*
X22129248Y28635812D01*
X22125970Y28619329D01*
X22108158Y28592672D01*
X22097336Y28570535D01*
X22085375Y28558575D01*
X22071777Y28538223D01*
X22051425Y28524625D01*
X22039465Y28512664D01*
X22017328Y28501842D01*
X21990671Y28484030D01*
X21974188Y28480752D01*
X21964985Y28476252D01*
X21914845Y28468948D01*
X21895000Y28465000D01*
X21495000Y28465000D01*
X21475155Y28468948D01*
X21425014Y28476252D01*
X21415809Y28480752D01*
X21399329Y28484030D01*
X21372674Y28501840D01*
X21350534Y28512664D01*
X21338571Y28524627D01*
X21318223Y28538223D01*
X21304626Y28558572D01*
X21292663Y28570535D01*
X21281838Y28592678D01*
X21264030Y28619329D01*
X21260752Y28635808D01*
X21256251Y28645015D01*
X21248943Y28695174D01*
X21245000Y28715000D01*
X21245000Y29265000D01*
X21248943Y29284826D01*
X21256251Y29334986D01*
X21260752Y29344194D01*
X21264030Y29360671D01*
X21281836Y29387321D01*
X21292663Y29409466D01*
X21304628Y29421432D01*
X21318223Y29441777D01*
X21338568Y29455372D01*
X21350534Y29467337D01*
X21372679Y29478164D01*
X21399329Y29495970D01*
X21415806Y29499248D01*
X21425014Y29503749D01*
X21475175Y29511057D01*
X21495000Y29515000D01*
X21895000Y29515000D01*
X21914828Y29511056D01*
G37*
G36*
X23564828Y29511056D02*
G01*
X23614985Y29503749D01*
X23624192Y29499248D01*
X23640671Y29495970D01*
X23667322Y29478162D01*
X23689465Y29467337D01*
X23701428Y29455374D01*
X23721777Y29441777D01*
X23735373Y29421429D01*
X23747336Y29409466D01*
X23758160Y29387326D01*
X23775970Y29360671D01*
X23779248Y29344191D01*
X23783748Y29334986D01*
X23791053Y29284843D01*
X23795000Y29265000D01*
X23795000Y28715000D01*
X23791052Y28695153D01*
X23783748Y28645015D01*
X23779248Y28635812D01*
X23775970Y28619329D01*
X23758158Y28592672D01*
X23747336Y28570535D01*
X23735375Y28558575D01*
X23721777Y28538223D01*
X23701425Y28524625D01*
X23689465Y28512664D01*
X23667328Y28501842D01*
X23640671Y28484030D01*
X23624188Y28480752D01*
X23614985Y28476252D01*
X23564845Y28468948D01*
X23545000Y28465000D01*
X23145000Y28465000D01*
X23125155Y28468948D01*
X23075014Y28476252D01*
X23065809Y28480752D01*
X23049329Y28484030D01*
X23022674Y28501840D01*
X23000534Y28512664D01*
X22988571Y28524627D01*
X22968223Y28538223D01*
X22954626Y28558572D01*
X22942663Y28570535D01*
X22931838Y28592678D01*
X22914030Y28619329D01*
X22910752Y28635808D01*
X22906251Y28645015D01*
X22898943Y28695174D01*
X22895000Y28715000D01*
X22895000Y29265000D01*
X22898943Y29284826D01*
X22906251Y29334986D01*
X22910752Y29344194D01*
X22914030Y29360671D01*
X22931836Y29387321D01*
X22942663Y29409466D01*
X22954628Y29421432D01*
X22968223Y29441777D01*
X22988568Y29455372D01*
X23000534Y29467337D01*
X23022679Y29478164D01*
X23049329Y29495970D01*
X23065806Y29499248D01*
X23075014Y29503749D01*
X23125175Y29511057D01*
X23145000Y29515000D01*
X23545000Y29515000D01*
X23564828Y29511056D01*
G37*
G36*
X15466896Y32749944D02*
G01*
X15477918Y32749944D01*
X15520994Y32741376D01*
X15620046Y32725687D01*
X15651906Y32715336D01*
X15679799Y32709787D01*
X15719153Y32693486D01*
X15776698Y32674789D01*
X15830611Y32647319D01*
X15869967Y32631017D01*
X15893611Y32615218D01*
X15923463Y32600008D01*
X16004604Y32541056D01*
X16041113Y32516661D01*
X16048905Y32508869D01*
X16056720Y32503191D01*
X16173190Y32386721D01*
X16178867Y32378907D01*
X16186661Y32371113D01*
X16211058Y32334600D01*
X16270007Y32253464D01*
X16285215Y32223615D01*
X16301017Y32199967D01*
X16317320Y32160607D01*
X16344788Y32106699D01*
X16363482Y32049162D01*
X16379787Y32009799D01*
X16385336Y31981901D01*
X16395686Y31950047D01*
X16411374Y31851001D01*
X16419944Y31807918D01*
X16419944Y31796897D01*
X16421455Y31787357D01*
X16421455Y31622644D01*
X16419944Y31613105D01*
X16419944Y31602082D01*
X16411373Y31558997D01*
X16395686Y31459954D01*
X16385336Y31428102D01*
X16379787Y31400201D01*
X16363481Y31360836D01*
X16344788Y31303302D01*
X16317323Y31249400D01*
X16301017Y31210033D01*
X16285213Y31186382D01*
X16270007Y31156537D01*
X16211066Y31075413D01*
X16186661Y31038887D01*
X16178865Y31031092D01*
X16173190Y31023280D01*
X16056720Y30906810D01*
X16048908Y30901135D01*
X16041113Y30893339D01*
X16004587Y30868934D01*
X15923463Y30809993D01*
X15893618Y30794787D01*
X15869967Y30778983D01*
X15830600Y30762677D01*
X15776698Y30735212D01*
X15719164Y30716519D01*
X15679799Y30700213D01*
X15651898Y30694664D01*
X15620046Y30684314D01*
X15521003Y30668627D01*
X15477918Y30660056D01*
X15466896Y30660056D01*
X15457356Y30658545D01*
X15292644Y30658545D01*
X15283104Y30660056D01*
X15272082Y30660056D01*
X15228997Y30668627D01*
X15129953Y30684314D01*
X15098099Y30694664D01*
X15070201Y30700213D01*
X15030838Y30716518D01*
X14973301Y30735212D01*
X14919393Y30762680D01*
X14880033Y30778983D01*
X14856385Y30794785D01*
X14826536Y30809993D01*
X14745400Y30868942D01*
X14708887Y30893339D01*
X14701093Y30901133D01*
X14693279Y30906810D01*
X14576809Y31023280D01*
X14571131Y31031095D01*
X14563339Y31038887D01*
X14538944Y31075396D01*
X14479992Y31156537D01*
X14464782Y31186389D01*
X14448983Y31210033D01*
X14432681Y31249389D01*
X14405211Y31303302D01*
X14386514Y31360847D01*
X14370213Y31400201D01*
X14364664Y31428094D01*
X14354313Y31459954D01*
X14338624Y31559006D01*
X14330056Y31602082D01*
X14330056Y31613105D01*
X14328545Y31622644D01*
X14328545Y31787357D01*
X14330056Y31796897D01*
X14330056Y31807918D01*
X14338623Y31850991D01*
X14354313Y31950047D01*
X14364665Y31981909D01*
X14370213Y32009799D01*
X14386512Y32049150D01*
X14405211Y32106699D01*
X14432683Y32160617D01*
X14448983Y32199967D01*
X14464779Y32223609D01*
X14479992Y32253464D01*
X14538953Y32334617D01*
X14563339Y32371113D01*
X14571128Y32378903D01*
X14576809Y32386721D01*
X14693279Y32503191D01*
X14701097Y32508872D01*
X14708887Y32516661D01*
X14745383Y32541047D01*
X14826536Y32600008D01*
X14856391Y32615221D01*
X14880033Y32631017D01*
X14919383Y32647317D01*
X14973301Y32674789D01*
X15030850Y32693488D01*
X15070201Y32709787D01*
X15098091Y32715335D01*
X15129953Y32725687D01*
X15229007Y32741376D01*
X15272082Y32749944D01*
X15283104Y32749944D01*
X15292644Y32751455D01*
X15457356Y32751455D01*
X15466896Y32749944D01*
G37*
G36*
X71996896Y33124944D02*
G01*
X72007918Y33124944D01*
X72050994Y33116376D01*
X72150046Y33100687D01*
X72181906Y33090336D01*
X72209799Y33084787D01*
X72249153Y33068486D01*
X72306698Y33049789D01*
X72360611Y33022319D01*
X72399967Y33006017D01*
X72423611Y32990218D01*
X72453463Y32975008D01*
X72534604Y32916056D01*
X72571113Y32891661D01*
X72578905Y32883869D01*
X72586720Y32878191D01*
X72703190Y32761721D01*
X72708867Y32753907D01*
X72716661Y32746113D01*
X72741058Y32709600D01*
X72800007Y32628464D01*
X72815215Y32598615D01*
X72831017Y32574967D01*
X72847320Y32535607D01*
X72874788Y32481699D01*
X72893482Y32424162D01*
X72909787Y32384799D01*
X72915336Y32356901D01*
X72925686Y32325047D01*
X72941374Y32226001D01*
X72949944Y32182918D01*
X72949944Y32171897D01*
X72951455Y32162357D01*
X72951455Y31997644D01*
X72949944Y31988105D01*
X72949944Y31977082D01*
X72941373Y31933997D01*
X72925686Y31834954D01*
X72915336Y31803102D01*
X72909787Y31775201D01*
X72893481Y31735836D01*
X72874788Y31678302D01*
X72847323Y31624400D01*
X72831017Y31585033D01*
X72815213Y31561382D01*
X72800007Y31531537D01*
X72741066Y31450413D01*
X72716661Y31413887D01*
X72708865Y31406092D01*
X72703190Y31398280D01*
X72586720Y31281810D01*
X72578908Y31276135D01*
X72571113Y31268339D01*
X72534587Y31243934D01*
X72453463Y31184993D01*
X72423618Y31169787D01*
X72399967Y31153983D01*
X72360600Y31137677D01*
X72306698Y31110212D01*
X72249164Y31091519D01*
X72209799Y31075213D01*
X72181898Y31069664D01*
X72150046Y31059314D01*
X72051003Y31043627D01*
X72007918Y31035056D01*
X71996896Y31035056D01*
X71987356Y31033545D01*
X71822644Y31033545D01*
X71813104Y31035056D01*
X71802082Y31035056D01*
X71758997Y31043627D01*
X71659953Y31059314D01*
X71628099Y31069664D01*
X71600201Y31075213D01*
X71560838Y31091518D01*
X71503301Y31110212D01*
X71449393Y31137680D01*
X71410033Y31153983D01*
X71386385Y31169785D01*
X71356536Y31184993D01*
X71275400Y31243942D01*
X71238887Y31268339D01*
X71231093Y31276133D01*
X71223279Y31281810D01*
X71106809Y31398280D01*
X71101131Y31406095D01*
X71093339Y31413887D01*
X71068944Y31450396D01*
X71009992Y31531537D01*
X70994782Y31561389D01*
X70978983Y31585033D01*
X70962681Y31624389D01*
X70935211Y31678302D01*
X70916514Y31735847D01*
X70900213Y31775201D01*
X70894664Y31803094D01*
X70884313Y31834954D01*
X70868624Y31934006D01*
X70860056Y31977082D01*
X70860056Y31988105D01*
X70858545Y31997644D01*
X70858545Y32162357D01*
X70860056Y32171897D01*
X70860056Y32182918D01*
X70868623Y32225991D01*
X70884313Y32325047D01*
X70894665Y32356909D01*
X70900213Y32384799D01*
X70916512Y32424150D01*
X70935211Y32481699D01*
X70962683Y32535617D01*
X70978983Y32574967D01*
X70994779Y32598609D01*
X71009992Y32628464D01*
X71068953Y32709617D01*
X71093339Y32746113D01*
X71101128Y32753903D01*
X71106809Y32761721D01*
X71223279Y32878191D01*
X71231097Y32883872D01*
X71238887Y32891661D01*
X71275383Y32916047D01*
X71356536Y32975008D01*
X71386391Y32990221D01*
X71410033Y33006017D01*
X71449383Y33022317D01*
X71503301Y33049789D01*
X71560850Y33068488D01*
X71600201Y33084787D01*
X71628091Y33090335D01*
X71659953Y33100687D01*
X71759007Y33116376D01*
X71802082Y33124944D01*
X71813104Y33124944D01*
X71822644Y33126455D01*
X71987356Y33126455D01*
X71996896Y33124944D01*
G37*
G36*
X88564828Y32981056D02*
G01*
X88614985Y32973749D01*
X88624192Y32969248D01*
X88640671Y32965970D01*
X88667322Y32948162D01*
X88689465Y32937337D01*
X88701428Y32925374D01*
X88721777Y32911777D01*
X88735373Y32891429D01*
X88747336Y32879466D01*
X88758160Y32857326D01*
X88775970Y32830671D01*
X88779248Y32814191D01*
X88783748Y32804986D01*
X88791053Y32754843D01*
X88795000Y32735000D01*
X88795000Y32335000D01*
X88791052Y32315153D01*
X88783748Y32265015D01*
X88779248Y32255812D01*
X88775970Y32239329D01*
X88758158Y32212672D01*
X88747336Y32190535D01*
X88735375Y32178575D01*
X88721777Y32158223D01*
X88701425Y32144625D01*
X88689465Y32132664D01*
X88667328Y32121842D01*
X88640671Y32104030D01*
X88624188Y32100752D01*
X88614985Y32096252D01*
X88564845Y32088948D01*
X88545000Y32085000D01*
X87995000Y32085000D01*
X87975155Y32088948D01*
X87925014Y32096252D01*
X87915809Y32100752D01*
X87899329Y32104030D01*
X87872674Y32121840D01*
X87850534Y32132664D01*
X87838571Y32144627D01*
X87818223Y32158223D01*
X87804626Y32178572D01*
X87792663Y32190535D01*
X87781838Y32212678D01*
X87764030Y32239329D01*
X87760752Y32255808D01*
X87756251Y32265015D01*
X87748943Y32315174D01*
X87745000Y32335000D01*
X87745000Y32735000D01*
X87748943Y32754826D01*
X87756251Y32804986D01*
X87760752Y32814194D01*
X87764030Y32830671D01*
X87781836Y32857321D01*
X87792663Y32879466D01*
X87804628Y32891432D01*
X87818223Y32911777D01*
X87838568Y32925372D01*
X87850534Y32937337D01*
X87872679Y32948164D01*
X87899329Y32965970D01*
X87915806Y32969248D01*
X87925014Y32973749D01*
X87975175Y32981057D01*
X87995000Y32985000D01*
X88545000Y32985000D01*
X88564828Y32981056D01*
G37*
G36*
X88564828Y34631056D02*
G01*
X88614985Y34623749D01*
X88624192Y34619248D01*
X88640671Y34615970D01*
X88667322Y34598162D01*
X88689465Y34587337D01*
X88701428Y34575374D01*
X88721777Y34561777D01*
X88735373Y34541429D01*
X88747336Y34529466D01*
X88758160Y34507326D01*
X88775970Y34480671D01*
X88779248Y34464191D01*
X88783748Y34454986D01*
X88791053Y34404843D01*
X88795000Y34385000D01*
X88795000Y33985000D01*
X88791052Y33965153D01*
X88783748Y33915015D01*
X88779248Y33905812D01*
X88775970Y33889329D01*
X88758158Y33862672D01*
X88747336Y33840535D01*
X88735375Y33828575D01*
X88721777Y33808223D01*
X88701425Y33794625D01*
X88689465Y33782664D01*
X88667328Y33771842D01*
X88640671Y33754030D01*
X88624188Y33750752D01*
X88614985Y33746252D01*
X88564845Y33738948D01*
X88545000Y33735000D01*
X87995000Y33735000D01*
X87975155Y33738948D01*
X87925014Y33746252D01*
X87915809Y33750752D01*
X87899329Y33754030D01*
X87872674Y33771840D01*
X87850534Y33782664D01*
X87838571Y33794627D01*
X87818223Y33808223D01*
X87804626Y33828572D01*
X87792663Y33840535D01*
X87781838Y33862678D01*
X87764030Y33889329D01*
X87760752Y33905808D01*
X87756251Y33915015D01*
X87748943Y33965174D01*
X87745000Y33985000D01*
X87745000Y34385000D01*
X87748943Y34404826D01*
X87756251Y34454986D01*
X87760752Y34464194D01*
X87764030Y34480671D01*
X87781836Y34507321D01*
X87792663Y34529466D01*
X87804628Y34541432D01*
X87818223Y34561777D01*
X87838568Y34575372D01*
X87850534Y34587337D01*
X87872679Y34598164D01*
X87899329Y34615970D01*
X87915806Y34619248D01*
X87925014Y34623749D01*
X87975175Y34631057D01*
X87995000Y34635000D01*
X88545000Y34635000D01*
X88564828Y34631056D01*
G37*
G36*
X77591896Y38094944D02*
G01*
X77602918Y38094944D01*
X77645994Y38086376D01*
X77745046Y38070687D01*
X77776906Y38060336D01*
X77804799Y38054787D01*
X77844153Y38038486D01*
X77901698Y38019789D01*
X77955611Y37992319D01*
X77994967Y37976017D01*
X78018611Y37960218D01*
X78048463Y37945008D01*
X78129604Y37886056D01*
X78166113Y37861661D01*
X78173905Y37853869D01*
X78181720Y37848191D01*
X78298190Y37731721D01*
X78303867Y37723907D01*
X78311661Y37716113D01*
X78336058Y37679600D01*
X78395007Y37598464D01*
X78410215Y37568615D01*
X78426017Y37544967D01*
X78442320Y37505607D01*
X78469788Y37451699D01*
X78488482Y37394162D01*
X78504787Y37354799D01*
X78510336Y37326901D01*
X78520686Y37295047D01*
X78536374Y37196001D01*
X78544944Y37152918D01*
X78544944Y37141897D01*
X78546455Y37132357D01*
X78546455Y36967644D01*
X78544944Y36958105D01*
X78544944Y36947082D01*
X78536373Y36903997D01*
X78520686Y36804954D01*
X78510336Y36773102D01*
X78504787Y36745201D01*
X78488481Y36705836D01*
X78469788Y36648302D01*
X78442323Y36594400D01*
X78426017Y36555033D01*
X78410213Y36531382D01*
X78395007Y36501537D01*
X78336066Y36420413D01*
X78311661Y36383887D01*
X78303865Y36376092D01*
X78298190Y36368280D01*
X78181720Y36251810D01*
X78173908Y36246135D01*
X78166113Y36238339D01*
X78129587Y36213934D01*
X78048463Y36154993D01*
X78018618Y36139787D01*
X77994967Y36123983D01*
X77955600Y36107677D01*
X77901698Y36080212D01*
X77844164Y36061519D01*
X77804799Y36045213D01*
X77776898Y36039664D01*
X77745046Y36029314D01*
X77646003Y36013627D01*
X77602918Y36005056D01*
X77591896Y36005056D01*
X77582356Y36003545D01*
X77417644Y36003545D01*
X77408104Y36005056D01*
X77397082Y36005056D01*
X77353997Y36013627D01*
X77254953Y36029314D01*
X77223099Y36039664D01*
X77195201Y36045213D01*
X77155838Y36061518D01*
X77098301Y36080212D01*
X77044393Y36107680D01*
X77005033Y36123983D01*
X76981385Y36139785D01*
X76951536Y36154993D01*
X76870400Y36213942D01*
X76833887Y36238339D01*
X76826093Y36246133D01*
X76818279Y36251810D01*
X76701809Y36368280D01*
X76696131Y36376095D01*
X76688339Y36383887D01*
X76663944Y36420396D01*
X76604992Y36501537D01*
X76589782Y36531389D01*
X76573983Y36555033D01*
X76557681Y36594389D01*
X76530211Y36648302D01*
X76511514Y36705847D01*
X76495213Y36745201D01*
X76489664Y36773094D01*
X76479313Y36804954D01*
X76463624Y36904006D01*
X76455056Y36947082D01*
X76455056Y36958105D01*
X76453545Y36967644D01*
X76453545Y37132357D01*
X76455056Y37141897D01*
X76455056Y37152918D01*
X76463623Y37195991D01*
X76479313Y37295047D01*
X76489665Y37326909D01*
X76495213Y37354799D01*
X76511512Y37394150D01*
X76530211Y37451699D01*
X76557683Y37505617D01*
X76573983Y37544967D01*
X76589779Y37568609D01*
X76604992Y37598464D01*
X76663953Y37679617D01*
X76688339Y37716113D01*
X76696128Y37723903D01*
X76701809Y37731721D01*
X76818279Y37848191D01*
X76826097Y37853872D01*
X76833887Y37861661D01*
X76870383Y37886047D01*
X76951536Y37945008D01*
X76981391Y37960221D01*
X77005033Y37976017D01*
X77044383Y37992317D01*
X77098301Y38019789D01*
X77155850Y38038488D01*
X77195201Y38054787D01*
X77223091Y38060335D01*
X77254953Y38070687D01*
X77354007Y38086376D01*
X77397082Y38094944D01*
X77408104Y38094944D01*
X77417644Y38096455D01*
X77582356Y38096455D01*
X77591896Y38094944D01*
G37*
G36*
X68329828Y37701056D02*
G01*
X68379985Y37693749D01*
X68389192Y37689248D01*
X68405671Y37685970D01*
X68432322Y37668162D01*
X68454465Y37657337D01*
X68466428Y37645374D01*
X68486777Y37631777D01*
X68500373Y37611429D01*
X68512336Y37599466D01*
X68523160Y37577326D01*
X68540970Y37550671D01*
X68544248Y37534191D01*
X68548748Y37524986D01*
X68556053Y37474843D01*
X68560000Y37455000D01*
X68560000Y36905000D01*
X68556052Y36885153D01*
X68548748Y36835015D01*
X68544248Y36825812D01*
X68540970Y36809329D01*
X68523158Y36782672D01*
X68512336Y36760535D01*
X68500375Y36748575D01*
X68486777Y36728223D01*
X68466425Y36714625D01*
X68454465Y36702664D01*
X68432328Y36691842D01*
X68405671Y36674030D01*
X68389188Y36670752D01*
X68379985Y36666252D01*
X68329845Y36658948D01*
X68310000Y36655000D01*
X67910000Y36655000D01*
X67890155Y36658948D01*
X67840014Y36666252D01*
X67830809Y36670752D01*
X67814329Y36674030D01*
X67787674Y36691840D01*
X67765534Y36702664D01*
X67753571Y36714627D01*
X67733223Y36728223D01*
X67719626Y36748572D01*
X67707663Y36760535D01*
X67696838Y36782678D01*
X67679030Y36809329D01*
X67675752Y36825808D01*
X67671251Y36835015D01*
X67663943Y36885174D01*
X67660000Y36905000D01*
X67660000Y37455000D01*
X67663943Y37474826D01*
X67671251Y37524986D01*
X67675752Y37534194D01*
X67679030Y37550671D01*
X67696836Y37577321D01*
X67707663Y37599466D01*
X67719628Y37611432D01*
X67733223Y37631777D01*
X67753568Y37645372D01*
X67765534Y37657337D01*
X67787679Y37668164D01*
X67814329Y37685970D01*
X67830806Y37689248D01*
X67840014Y37693749D01*
X67890175Y37701057D01*
X67910000Y37705000D01*
X68310000Y37705000D01*
X68329828Y37701056D01*
G37*
G36*
X69979828Y37701056D02*
G01*
X70029985Y37693749D01*
X70039192Y37689248D01*
X70055671Y37685970D01*
X70082322Y37668162D01*
X70104465Y37657337D01*
X70116428Y37645374D01*
X70136777Y37631777D01*
X70150373Y37611429D01*
X70162336Y37599466D01*
X70173160Y37577326D01*
X70190970Y37550671D01*
X70194248Y37534191D01*
X70198748Y37524986D01*
X70206053Y37474843D01*
X70210000Y37455000D01*
X70210000Y36905000D01*
X70206052Y36885153D01*
X70198748Y36835015D01*
X70194248Y36825812D01*
X70190970Y36809329D01*
X70173158Y36782672D01*
X70162336Y36760535D01*
X70150375Y36748575D01*
X70136777Y36728223D01*
X70116425Y36714625D01*
X70104465Y36702664D01*
X70082328Y36691842D01*
X70055671Y36674030D01*
X70039188Y36670752D01*
X70029985Y36666252D01*
X69979845Y36658948D01*
X69960000Y36655000D01*
X69560000Y36655000D01*
X69540155Y36658948D01*
X69490014Y36666252D01*
X69480809Y36670752D01*
X69464329Y36674030D01*
X69437674Y36691840D01*
X69415534Y36702664D01*
X69403571Y36714627D01*
X69383223Y36728223D01*
X69369626Y36748572D01*
X69357663Y36760535D01*
X69346838Y36782678D01*
X69329030Y36809329D01*
X69325752Y36825808D01*
X69321251Y36835015D01*
X69313943Y36885174D01*
X69310000Y36905000D01*
X69310000Y37455000D01*
X69313943Y37474826D01*
X69321251Y37524986D01*
X69325752Y37534194D01*
X69329030Y37550671D01*
X69346836Y37577321D01*
X69357663Y37599466D01*
X69369628Y37611432D01*
X69383223Y37631777D01*
X69403568Y37645372D01*
X69415534Y37657337D01*
X69437679Y37668164D01*
X69464329Y37685970D01*
X69480806Y37689248D01*
X69490014Y37693749D01*
X69540175Y37701057D01*
X69560000Y37705000D01*
X69960000Y37705000D01*
X69979828Y37701056D01*
G37*
G36*
X90266896Y39099944D02*
G01*
X90277918Y39099944D01*
X90320994Y39091376D01*
X90420046Y39075687D01*
X90451906Y39065336D01*
X90479799Y39059787D01*
X90519153Y39043486D01*
X90576698Y39024789D01*
X90630611Y38997319D01*
X90669967Y38981017D01*
X90693611Y38965218D01*
X90723463Y38950008D01*
X90804604Y38891056D01*
X90841113Y38866661D01*
X90848905Y38858869D01*
X90856720Y38853191D01*
X90973190Y38736721D01*
X90978867Y38728907D01*
X90986661Y38721113D01*
X91011058Y38684600D01*
X91070007Y38603464D01*
X91085215Y38573615D01*
X91101017Y38549967D01*
X91117320Y38510607D01*
X91144788Y38456699D01*
X91163482Y38399162D01*
X91179787Y38359799D01*
X91185336Y38331901D01*
X91195686Y38300047D01*
X91211374Y38201001D01*
X91219944Y38157918D01*
X91219944Y38146897D01*
X91221455Y38137357D01*
X91221455Y37972644D01*
X91219944Y37963105D01*
X91219944Y37952082D01*
X91211373Y37908997D01*
X91195686Y37809954D01*
X91185336Y37778102D01*
X91179787Y37750201D01*
X91163481Y37710836D01*
X91144788Y37653302D01*
X91117323Y37599400D01*
X91101017Y37560033D01*
X91085213Y37536382D01*
X91070007Y37506537D01*
X91011066Y37425413D01*
X90986661Y37388887D01*
X90978865Y37381092D01*
X90973190Y37373280D01*
X90856720Y37256810D01*
X90848908Y37251135D01*
X90841113Y37243339D01*
X90804587Y37218934D01*
X90723463Y37159993D01*
X90693618Y37144787D01*
X90669967Y37128983D01*
X90630600Y37112677D01*
X90576698Y37085212D01*
X90519164Y37066519D01*
X90479799Y37050213D01*
X90451898Y37044664D01*
X90420046Y37034314D01*
X90321003Y37018627D01*
X90277918Y37010056D01*
X90266896Y37010056D01*
X90257356Y37008545D01*
X90092644Y37008545D01*
X90083104Y37010056D01*
X90072082Y37010056D01*
X90028997Y37018627D01*
X89929953Y37034314D01*
X89898099Y37044664D01*
X89870201Y37050213D01*
X89830838Y37066518D01*
X89773301Y37085212D01*
X89719393Y37112680D01*
X89680033Y37128983D01*
X89656385Y37144785D01*
X89626536Y37159993D01*
X89545400Y37218942D01*
X89508887Y37243339D01*
X89501093Y37251133D01*
X89493279Y37256810D01*
X89376809Y37373280D01*
X89371131Y37381095D01*
X89363339Y37388887D01*
X89338944Y37425396D01*
X89279992Y37506537D01*
X89264782Y37536389D01*
X89248983Y37560033D01*
X89232681Y37599389D01*
X89205211Y37653302D01*
X89186514Y37710847D01*
X89170213Y37750201D01*
X89164664Y37778094D01*
X89154313Y37809954D01*
X89138624Y37909006D01*
X89130056Y37952082D01*
X89130056Y37963105D01*
X89128545Y37972644D01*
X89128545Y38137357D01*
X89130056Y38146897D01*
X89130056Y38157918D01*
X89138623Y38200991D01*
X89154313Y38300047D01*
X89164665Y38331909D01*
X89170213Y38359799D01*
X89186512Y38399150D01*
X89205211Y38456699D01*
X89232683Y38510617D01*
X89248983Y38549967D01*
X89264779Y38573609D01*
X89279992Y38603464D01*
X89338953Y38684617D01*
X89363339Y38721113D01*
X89371128Y38728903D01*
X89376809Y38736721D01*
X89493279Y38853191D01*
X89501097Y38858872D01*
X89508887Y38866661D01*
X89545383Y38891047D01*
X89626536Y38950008D01*
X89656391Y38965221D01*
X89680033Y38981017D01*
X89719383Y38997317D01*
X89773301Y39024789D01*
X89830850Y39043488D01*
X89870201Y39059787D01*
X89898091Y39065335D01*
X89929953Y39075687D01*
X90029007Y39091376D01*
X90072082Y39099944D01*
X90083104Y39099944D01*
X90092644Y39101455D01*
X90257356Y39101455D01*
X90266896Y39099944D01*
G37*
G36*
X72209828Y40991056D02*
G01*
X72259985Y40983749D01*
X72269192Y40979248D01*
X72285671Y40975970D01*
X72312322Y40958162D01*
X72334465Y40947337D01*
X72346428Y40935374D01*
X72366777Y40921777D01*
X72380373Y40901429D01*
X72392336Y40889466D01*
X72403160Y40867326D01*
X72420970Y40840671D01*
X72424248Y40824191D01*
X72428748Y40814986D01*
X72436053Y40764843D01*
X72440000Y40745000D01*
X72440000Y40195000D01*
X72436052Y40175153D01*
X72428748Y40125015D01*
X72424248Y40115812D01*
X72420970Y40099329D01*
X72403158Y40072672D01*
X72392336Y40050535D01*
X72380375Y40038575D01*
X72366777Y40018223D01*
X72346425Y40004625D01*
X72334465Y39992664D01*
X72312328Y39981842D01*
X72285671Y39964030D01*
X72269188Y39960752D01*
X72259985Y39956252D01*
X72209845Y39948948D01*
X72190000Y39945000D01*
X71790000Y39945000D01*
X71770155Y39948948D01*
X71720014Y39956252D01*
X71710809Y39960752D01*
X71694329Y39964030D01*
X71667674Y39981840D01*
X71645534Y39992664D01*
X71633571Y40004627D01*
X71613223Y40018223D01*
X71599626Y40038572D01*
X71587663Y40050535D01*
X71576838Y40072678D01*
X71559030Y40099329D01*
X71555752Y40115808D01*
X71551251Y40125015D01*
X71543943Y40175174D01*
X71540000Y40195000D01*
X71540000Y40745000D01*
X71543943Y40764826D01*
X71551251Y40814986D01*
X71555752Y40824194D01*
X71559030Y40840671D01*
X71576836Y40867321D01*
X71587663Y40889466D01*
X71599628Y40901432D01*
X71613223Y40921777D01*
X71633568Y40935372D01*
X71645534Y40947337D01*
X71667679Y40958164D01*
X71694329Y40975970D01*
X71710806Y40979248D01*
X71720014Y40983749D01*
X71770175Y40991057D01*
X71790000Y40995000D01*
X72190000Y40995000D01*
X72209828Y40991056D01*
G37*
G36*
X73859828Y40991056D02*
G01*
X73909985Y40983749D01*
X73919192Y40979248D01*
X73935671Y40975970D01*
X73962322Y40958162D01*
X73984465Y40947337D01*
X73996428Y40935374D01*
X74016777Y40921777D01*
X74030373Y40901429D01*
X74042336Y40889466D01*
X74053160Y40867326D01*
X74070970Y40840671D01*
X74074248Y40824191D01*
X74078748Y40814986D01*
X74086053Y40764843D01*
X74090000Y40745000D01*
X74090000Y40195000D01*
X74086052Y40175153D01*
X74078748Y40125015D01*
X74074248Y40115812D01*
X74070970Y40099329D01*
X74053158Y40072672D01*
X74042336Y40050535D01*
X74030375Y40038575D01*
X74016777Y40018223D01*
X73996425Y40004625D01*
X73984465Y39992664D01*
X73962328Y39981842D01*
X73935671Y39964030D01*
X73919188Y39960752D01*
X73909985Y39956252D01*
X73859845Y39948948D01*
X73840000Y39945000D01*
X73440000Y39945000D01*
X73420155Y39948948D01*
X73370014Y39956252D01*
X73360809Y39960752D01*
X73344329Y39964030D01*
X73317674Y39981840D01*
X73295534Y39992664D01*
X73283571Y40004627D01*
X73263223Y40018223D01*
X73249626Y40038572D01*
X73237663Y40050535D01*
X73226838Y40072678D01*
X73209030Y40099329D01*
X73205752Y40115808D01*
X73201251Y40125015D01*
X73193943Y40175174D01*
X73190000Y40195000D01*
X73190000Y40745000D01*
X73193943Y40764826D01*
X73201251Y40814986D01*
X73205752Y40824194D01*
X73209030Y40840671D01*
X73226836Y40867321D01*
X73237663Y40889466D01*
X73249628Y40901432D01*
X73263223Y40921777D01*
X73283568Y40935372D01*
X73295534Y40947337D01*
X73317679Y40958164D01*
X73344329Y40975970D01*
X73360806Y40979248D01*
X73370014Y40983749D01*
X73420175Y40991057D01*
X73440000Y40995000D01*
X73840000Y40995000D01*
X73859828Y40991056D01*
G37*
G36*
X77541896Y43074944D02*
G01*
X77552918Y43074944D01*
X77595994Y43066376D01*
X77695046Y43050687D01*
X77726906Y43040336D01*
X77754799Y43034787D01*
X77794153Y43018486D01*
X77851698Y42999789D01*
X77905611Y42972319D01*
X77944967Y42956017D01*
X77968611Y42940218D01*
X77998463Y42925008D01*
X78079604Y42866056D01*
X78116113Y42841661D01*
X78123905Y42833869D01*
X78131720Y42828191D01*
X78248190Y42711721D01*
X78253867Y42703907D01*
X78261661Y42696113D01*
X78286058Y42659600D01*
X78345007Y42578464D01*
X78360215Y42548615D01*
X78376017Y42524967D01*
X78392320Y42485607D01*
X78419788Y42431699D01*
X78438482Y42374162D01*
X78454787Y42334799D01*
X78460336Y42306901D01*
X78470686Y42275047D01*
X78486374Y42176001D01*
X78494944Y42132918D01*
X78494944Y42121897D01*
X78496455Y42112357D01*
X78496455Y41947644D01*
X78494944Y41938105D01*
X78494944Y41927082D01*
X78486373Y41883997D01*
X78470686Y41784954D01*
X78460336Y41753102D01*
X78454787Y41725201D01*
X78438481Y41685836D01*
X78419788Y41628302D01*
X78392323Y41574400D01*
X78376017Y41535033D01*
X78360213Y41511382D01*
X78345007Y41481537D01*
X78286066Y41400413D01*
X78261661Y41363887D01*
X78253865Y41356092D01*
X78248190Y41348280D01*
X78131720Y41231810D01*
X78123908Y41226135D01*
X78116113Y41218339D01*
X78079587Y41193934D01*
X77998463Y41134993D01*
X77968618Y41119787D01*
X77944967Y41103983D01*
X77905600Y41087677D01*
X77851698Y41060212D01*
X77794164Y41041519D01*
X77754799Y41025213D01*
X77726898Y41019664D01*
X77695046Y41009314D01*
X77596003Y40993627D01*
X77552918Y40985056D01*
X77541896Y40985056D01*
X77532356Y40983545D01*
X77367644Y40983545D01*
X77358104Y40985056D01*
X77347082Y40985056D01*
X77303997Y40993627D01*
X77204953Y41009314D01*
X77173099Y41019664D01*
X77145201Y41025213D01*
X77105838Y41041518D01*
X77048301Y41060212D01*
X76994393Y41087680D01*
X76955033Y41103983D01*
X76931385Y41119785D01*
X76901536Y41134993D01*
X76820400Y41193942D01*
X76783887Y41218339D01*
X76776093Y41226133D01*
X76768279Y41231810D01*
X76651809Y41348280D01*
X76646131Y41356095D01*
X76638339Y41363887D01*
X76613944Y41400396D01*
X76554992Y41481537D01*
X76539782Y41511389D01*
X76523983Y41535033D01*
X76507681Y41574389D01*
X76480211Y41628302D01*
X76461514Y41685847D01*
X76445213Y41725201D01*
X76439664Y41753094D01*
X76429313Y41784954D01*
X76413624Y41884006D01*
X76405056Y41927082D01*
X76405056Y41938105D01*
X76403545Y41947644D01*
X76403545Y42112357D01*
X76405056Y42121897D01*
X76405056Y42132918D01*
X76413623Y42175991D01*
X76429313Y42275047D01*
X76439665Y42306909D01*
X76445213Y42334799D01*
X76461512Y42374150D01*
X76480211Y42431699D01*
X76507683Y42485617D01*
X76523983Y42524967D01*
X76539779Y42548609D01*
X76554992Y42578464D01*
X76613953Y42659617D01*
X76638339Y42696113D01*
X76646128Y42703903D01*
X76651809Y42711721D01*
X76768279Y42828191D01*
X76776097Y42833872D01*
X76783887Y42841661D01*
X76820383Y42866047D01*
X76901536Y42925008D01*
X76931391Y42940221D01*
X76955033Y42956017D01*
X76994383Y42972317D01*
X77048301Y42999789D01*
X77105850Y43018488D01*
X77145201Y43034787D01*
X77173091Y43040335D01*
X77204953Y43050687D01*
X77304007Y43066376D01*
X77347082Y43074944D01*
X77358104Y43074944D01*
X77367644Y43076455D01*
X77532356Y43076455D01*
X77541896Y43074944D01*
G37*
G36*
X72119828Y44461056D02*
G01*
X72169985Y44453749D01*
X72179192Y44449248D01*
X72195671Y44445970D01*
X72222322Y44428162D01*
X72244465Y44417337D01*
X72256428Y44405374D01*
X72276777Y44391777D01*
X72290373Y44371429D01*
X72302336Y44359466D01*
X72313160Y44337326D01*
X72330970Y44310671D01*
X72334248Y44294191D01*
X72338748Y44284986D01*
X72346053Y44234843D01*
X72350000Y44215000D01*
X72350000Y43665000D01*
X72346052Y43645153D01*
X72338748Y43595015D01*
X72334248Y43585812D01*
X72330970Y43569329D01*
X72313158Y43542672D01*
X72302336Y43520535D01*
X72290375Y43508575D01*
X72276777Y43488223D01*
X72256425Y43474625D01*
X72244465Y43462664D01*
X72222328Y43451842D01*
X72195671Y43434030D01*
X72179188Y43430752D01*
X72169985Y43426252D01*
X72119845Y43418948D01*
X72100000Y43415000D01*
X71700000Y43415000D01*
X71680155Y43418948D01*
X71630014Y43426252D01*
X71620809Y43430752D01*
X71604329Y43434030D01*
X71577674Y43451840D01*
X71555534Y43462664D01*
X71543571Y43474627D01*
X71523223Y43488223D01*
X71509626Y43508572D01*
X71497663Y43520535D01*
X71486838Y43542678D01*
X71469030Y43569329D01*
X71465752Y43585808D01*
X71461251Y43595015D01*
X71453943Y43645174D01*
X71450000Y43665000D01*
X71450000Y44215000D01*
X71453943Y44234826D01*
X71461251Y44284986D01*
X71465752Y44294194D01*
X71469030Y44310671D01*
X71486836Y44337321D01*
X71497663Y44359466D01*
X71509628Y44371432D01*
X71523223Y44391777D01*
X71543568Y44405372D01*
X71555534Y44417337D01*
X71577679Y44428164D01*
X71604329Y44445970D01*
X71620806Y44449248D01*
X71630014Y44453749D01*
X71680175Y44461057D01*
X71700000Y44465000D01*
X72100000Y44465000D01*
X72119828Y44461056D01*
G37*
G36*
X73769828Y44461056D02*
G01*
X73819985Y44453749D01*
X73829192Y44449248D01*
X73845671Y44445970D01*
X73872322Y44428162D01*
X73894465Y44417337D01*
X73906428Y44405374D01*
X73926777Y44391777D01*
X73940373Y44371429D01*
X73952336Y44359466D01*
X73963160Y44337326D01*
X73980970Y44310671D01*
X73984248Y44294191D01*
X73988748Y44284986D01*
X73996053Y44234843D01*
X74000000Y44215000D01*
X74000000Y43665000D01*
X73996052Y43645153D01*
X73988748Y43595015D01*
X73984248Y43585812D01*
X73980970Y43569329D01*
X73963158Y43542672D01*
X73952336Y43520535D01*
X73940375Y43508575D01*
X73926777Y43488223D01*
X73906425Y43474625D01*
X73894465Y43462664D01*
X73872328Y43451842D01*
X73845671Y43434030D01*
X73829188Y43430752D01*
X73819985Y43426252D01*
X73769845Y43418948D01*
X73750000Y43415000D01*
X73350000Y43415000D01*
X73330155Y43418948D01*
X73280014Y43426252D01*
X73270809Y43430752D01*
X73254329Y43434030D01*
X73227674Y43451840D01*
X73205534Y43462664D01*
X73193571Y43474627D01*
X73173223Y43488223D01*
X73159626Y43508572D01*
X73147663Y43520535D01*
X73136838Y43542678D01*
X73119030Y43569329D01*
X73115752Y43585808D01*
X73111251Y43595015D01*
X73103943Y43645174D01*
X73100000Y43665000D01*
X73100000Y44215000D01*
X73103943Y44234826D01*
X73111251Y44284986D01*
X73115752Y44294194D01*
X73119030Y44310671D01*
X73136836Y44337321D01*
X73147663Y44359466D01*
X73159628Y44371432D01*
X73173223Y44391777D01*
X73193568Y44405372D01*
X73205534Y44417337D01*
X73227679Y44428164D01*
X73254329Y44445970D01*
X73270806Y44449248D01*
X73280014Y44453749D01*
X73330175Y44461057D01*
X73350000Y44465000D01*
X73750000Y44465000D01*
X73769828Y44461056D01*
G37*
G36*
X32434828Y44916056D02*
G01*
X32484985Y44908749D01*
X32494192Y44904248D01*
X32510671Y44900970D01*
X32537322Y44883162D01*
X32559465Y44872337D01*
X32571428Y44860374D01*
X32591777Y44846777D01*
X32605373Y44826429D01*
X32617336Y44814466D01*
X32628160Y44792326D01*
X32645970Y44765671D01*
X32649248Y44749191D01*
X32653748Y44739986D01*
X32661053Y44689843D01*
X32665000Y44670000D01*
X32665000Y44270000D01*
X32661052Y44250153D01*
X32653748Y44200015D01*
X32649248Y44190812D01*
X32645970Y44174329D01*
X32628158Y44147672D01*
X32617336Y44125535D01*
X32605375Y44113575D01*
X32591777Y44093223D01*
X32571425Y44079625D01*
X32559465Y44067664D01*
X32537328Y44056842D01*
X32510671Y44039030D01*
X32494188Y44035752D01*
X32484985Y44031252D01*
X32434845Y44023948D01*
X32415000Y44020000D01*
X31865000Y44020000D01*
X31845155Y44023948D01*
X31795014Y44031252D01*
X31785809Y44035752D01*
X31769329Y44039030D01*
X31742674Y44056840D01*
X31720534Y44067664D01*
X31708571Y44079627D01*
X31688223Y44093223D01*
X31674626Y44113572D01*
X31662663Y44125535D01*
X31651838Y44147678D01*
X31634030Y44174329D01*
X31630752Y44190808D01*
X31626251Y44200015D01*
X31618943Y44250174D01*
X31615000Y44270000D01*
X31615000Y44670000D01*
X31618943Y44689826D01*
X31626251Y44739986D01*
X31630752Y44749194D01*
X31634030Y44765671D01*
X31651836Y44792321D01*
X31662663Y44814466D01*
X31674628Y44826432D01*
X31688223Y44846777D01*
X31708568Y44860372D01*
X31720534Y44872337D01*
X31742679Y44883164D01*
X31769329Y44900970D01*
X31785806Y44904248D01*
X31795014Y44908749D01*
X31845175Y44916057D01*
X31865000Y44920000D01*
X32415000Y44920000D01*
X32434828Y44916056D01*
G37*
G36*
X32434828Y46566056D02*
G01*
X32484985Y46558749D01*
X32494192Y46554248D01*
X32510671Y46550970D01*
X32537322Y46533162D01*
X32559465Y46522337D01*
X32571428Y46510374D01*
X32591777Y46496777D01*
X32605373Y46476429D01*
X32617336Y46464466D01*
X32628160Y46442326D01*
X32645970Y46415671D01*
X32649248Y46399191D01*
X32653748Y46389986D01*
X32661053Y46339843D01*
X32665000Y46320000D01*
X32665000Y45920000D01*
X32661052Y45900153D01*
X32653748Y45850015D01*
X32649248Y45840812D01*
X32645970Y45824329D01*
X32628158Y45797672D01*
X32617336Y45775535D01*
X32605375Y45763575D01*
X32591777Y45743223D01*
X32571425Y45729625D01*
X32559465Y45717664D01*
X32537328Y45706842D01*
X32510671Y45689030D01*
X32494188Y45685752D01*
X32484985Y45681252D01*
X32434845Y45673948D01*
X32415000Y45670000D01*
X31865000Y45670000D01*
X31845155Y45673948D01*
X31795014Y45681252D01*
X31785809Y45685752D01*
X31769329Y45689030D01*
X31742674Y45706840D01*
X31720534Y45717664D01*
X31708571Y45729627D01*
X31688223Y45743223D01*
X31674626Y45763572D01*
X31662663Y45775535D01*
X31651838Y45797678D01*
X31634030Y45824329D01*
X31630752Y45840808D01*
X31626251Y45850015D01*
X31618943Y45900174D01*
X31615000Y45920000D01*
X31615000Y46320000D01*
X31618943Y46339826D01*
X31626251Y46389986D01*
X31630752Y46399194D01*
X31634030Y46415671D01*
X31651836Y46442321D01*
X31662663Y46464466D01*
X31674628Y46476432D01*
X31688223Y46496777D01*
X31708568Y46510372D01*
X31720534Y46522337D01*
X31742679Y46533164D01*
X31769329Y46550970D01*
X31785806Y46554248D01*
X31795014Y46558749D01*
X31845175Y46566057D01*
X31865000Y46570000D01*
X32415000Y46570000D01*
X32434828Y46566056D01*
G37*
G36*
X75291896Y51274944D02*
G01*
X75302918Y51274944D01*
X75345994Y51266376D01*
X75445046Y51250687D01*
X75476906Y51240336D01*
X75504799Y51234787D01*
X75544153Y51218486D01*
X75601698Y51199789D01*
X75655611Y51172319D01*
X75694967Y51156017D01*
X75718611Y51140218D01*
X75748463Y51125008D01*
X75829604Y51066056D01*
X75866113Y51041661D01*
X75873905Y51033869D01*
X75881720Y51028191D01*
X75998190Y50911721D01*
X76003867Y50903907D01*
X76011661Y50896113D01*
X76036058Y50859600D01*
X76095007Y50778464D01*
X76110215Y50748615D01*
X76126017Y50724967D01*
X76142320Y50685607D01*
X76169788Y50631699D01*
X76188482Y50574162D01*
X76204787Y50534799D01*
X76210336Y50506901D01*
X76220686Y50475047D01*
X76236374Y50376001D01*
X76244944Y50332918D01*
X76244944Y50321897D01*
X76246455Y50312357D01*
X76246455Y50147644D01*
X76244944Y50138105D01*
X76244944Y50127082D01*
X76236373Y50083997D01*
X76220686Y49984954D01*
X76210336Y49953102D01*
X76204787Y49925201D01*
X76188481Y49885836D01*
X76169788Y49828302D01*
X76142323Y49774400D01*
X76126017Y49735033D01*
X76110213Y49711382D01*
X76095007Y49681537D01*
X76036066Y49600413D01*
X76011661Y49563887D01*
X76003865Y49556092D01*
X75998190Y49548280D01*
X75881720Y49431810D01*
X75873908Y49426135D01*
X75866113Y49418339D01*
X75829587Y49393934D01*
X75748463Y49334993D01*
X75718618Y49319787D01*
X75694967Y49303983D01*
X75655600Y49287677D01*
X75601696Y49260211D01*
X75544161Y49241518D01*
X75504799Y49225213D01*
X75476899Y49219664D01*
X75371623Y49185458D01*
X75383952Y49028771D01*
X75395939Y49026387D01*
X75495041Y49010689D01*
X75526908Y49000335D01*
X75554799Y48994787D01*
X75594152Y48978487D01*
X75651698Y48959789D01*
X75705611Y48932319D01*
X75744967Y48916017D01*
X75768611Y48900218D01*
X75798463Y48885008D01*
X75879604Y48826056D01*
X75916113Y48801661D01*
X75923905Y48793869D01*
X75931720Y48788191D01*
X76048190Y48671721D01*
X76053867Y48663907D01*
X76061661Y48656113D01*
X76086058Y48619600D01*
X76145007Y48538464D01*
X76160215Y48508615D01*
X76176017Y48484967D01*
X76192320Y48445607D01*
X76219788Y48391699D01*
X76238482Y48334162D01*
X76254787Y48294799D01*
X76260336Y48266901D01*
X76270686Y48235047D01*
X76286374Y48136001D01*
X76294944Y48092918D01*
X76294944Y48081897D01*
X76296455Y48072357D01*
X76296455Y47907644D01*
X76294944Y47898105D01*
X76294944Y47887082D01*
X76286373Y47843997D01*
X76270686Y47744954D01*
X76260336Y47713102D01*
X76254787Y47685201D01*
X76238481Y47645836D01*
X76219788Y47588302D01*
X76192323Y47534400D01*
X76176017Y47495033D01*
X76160213Y47471382D01*
X76145007Y47441537D01*
X76086066Y47360413D01*
X76061661Y47323887D01*
X76053865Y47316092D01*
X76048190Y47308280D01*
X75931720Y47191810D01*
X75923908Y47186135D01*
X75916113Y47178339D01*
X75879587Y47153934D01*
X75798463Y47094993D01*
X75768618Y47079787D01*
X75744967Y47063983D01*
X75705600Y47047677D01*
X75651698Y47020212D01*
X75594164Y47001519D01*
X75554799Y46985213D01*
X75526898Y46979664D01*
X75495046Y46969314D01*
X75396003Y46953627D01*
X75352918Y46945056D01*
X75341896Y46945056D01*
X75332356Y46943545D01*
X75167644Y46943545D01*
X75158104Y46945056D01*
X75147082Y46945056D01*
X75103997Y46953627D01*
X75004953Y46969314D01*
X74973099Y46979664D01*
X74945201Y46985213D01*
X74905838Y47001518D01*
X74848301Y47020212D01*
X74794393Y47047680D01*
X74755033Y47063983D01*
X74731385Y47079785D01*
X74701536Y47094993D01*
X74620400Y47153942D01*
X74583887Y47178339D01*
X74576093Y47186133D01*
X74568279Y47191810D01*
X74451809Y47308280D01*
X74446131Y47316095D01*
X74438339Y47323887D01*
X74413944Y47360396D01*
X74354992Y47441537D01*
X74339782Y47471389D01*
X74323983Y47495033D01*
X74307681Y47534389D01*
X74280211Y47588302D01*
X74261514Y47645847D01*
X74245213Y47685201D01*
X74239664Y47713094D01*
X74229313Y47744954D01*
X74213624Y47844006D01*
X74205056Y47887082D01*
X74205056Y47898105D01*
X74203545Y47907644D01*
X74203545Y48072357D01*
X74205056Y48081897D01*
X74205056Y48092918D01*
X74213623Y48135991D01*
X74229313Y48235047D01*
X74239665Y48266909D01*
X74245213Y48294799D01*
X74261512Y48334150D01*
X74280211Y48391699D01*
X74307683Y48445617D01*
X74323983Y48484967D01*
X74339779Y48508609D01*
X74354992Y48538464D01*
X74413953Y48619617D01*
X74438339Y48656113D01*
X74446128Y48663903D01*
X74451809Y48671721D01*
X74568279Y48788191D01*
X74576097Y48793872D01*
X74583887Y48801661D01*
X74620383Y48826047D01*
X74701536Y48885008D01*
X74731391Y48900221D01*
X74755033Y48916017D01*
X74794383Y48932317D01*
X74848301Y48959789D01*
X74905852Y48978489D01*
X74945201Y48994787D01*
X74973088Y49000335D01*
X75078377Y49034544D01*
X75066045Y49191230D01*
X75054019Y49193622D01*
X74954954Y49209313D01*
X74923094Y49219665D01*
X74895201Y49225213D01*
X74855841Y49241517D01*
X74798301Y49260212D01*
X74744393Y49287680D01*
X74705033Y49303983D01*
X74681385Y49319785D01*
X74651536Y49334993D01*
X74570400Y49393942D01*
X74533887Y49418339D01*
X74526093Y49426133D01*
X74518279Y49431810D01*
X74401809Y49548280D01*
X74396131Y49556095D01*
X74388339Y49563887D01*
X74363944Y49600396D01*
X74304992Y49681537D01*
X74289782Y49711389D01*
X74273983Y49735033D01*
X74257681Y49774389D01*
X74230211Y49828302D01*
X74211514Y49885847D01*
X74195213Y49925201D01*
X74189664Y49953094D01*
X74179313Y49984954D01*
X74163624Y50084006D01*
X74155056Y50127082D01*
X74155056Y50138105D01*
X74153545Y50147644D01*
X74153545Y50312357D01*
X74155056Y50321897D01*
X74155056Y50332918D01*
X74163623Y50375991D01*
X74179313Y50475047D01*
X74189665Y50506909D01*
X74195213Y50534799D01*
X74211512Y50574150D01*
X74230211Y50631699D01*
X74257683Y50685617D01*
X74273983Y50724967D01*
X74289779Y50748609D01*
X74304992Y50778464D01*
X74363953Y50859617D01*
X74388339Y50896113D01*
X74396128Y50903903D01*
X74401809Y50911721D01*
X74518279Y51028191D01*
X74526097Y51033872D01*
X74533887Y51041661D01*
X74570383Y51066047D01*
X74651536Y51125008D01*
X74681391Y51140221D01*
X74705033Y51156017D01*
X74744383Y51172317D01*
X74798301Y51199789D01*
X74855850Y51218488D01*
X74895201Y51234787D01*
X74923091Y51240335D01*
X74954953Y51250687D01*
X75054007Y51266376D01*
X75097082Y51274944D01*
X75108104Y51274944D01*
X75117644Y51276455D01*
X75282356Y51276455D01*
X75291896Y51274944D01*
G37*
G36*
X71139828Y48761056D02*
G01*
X71189985Y48753749D01*
X71199192Y48749248D01*
X71215671Y48745970D01*
X71242322Y48728162D01*
X71264465Y48717337D01*
X71276428Y48705374D01*
X71296777Y48691777D01*
X71310373Y48671429D01*
X71322336Y48659466D01*
X71333160Y48637326D01*
X71350970Y48610671D01*
X71354248Y48594191D01*
X71358748Y48584986D01*
X71366053Y48534843D01*
X71370000Y48515000D01*
X71370000Y47965000D01*
X71366052Y47945153D01*
X71358748Y47895015D01*
X71354248Y47885812D01*
X71350970Y47869329D01*
X71333158Y47842672D01*
X71322336Y47820535D01*
X71310375Y47808575D01*
X71296777Y47788223D01*
X71276425Y47774625D01*
X71264465Y47762664D01*
X71242328Y47751842D01*
X71215671Y47734030D01*
X71199188Y47730752D01*
X71189985Y47726252D01*
X71139845Y47718948D01*
X71120000Y47715000D01*
X70720000Y47715000D01*
X70700155Y47718948D01*
X70650014Y47726252D01*
X70640809Y47730752D01*
X70624329Y47734030D01*
X70597674Y47751840D01*
X70575534Y47762664D01*
X70563571Y47774627D01*
X70543223Y47788223D01*
X70529626Y47808572D01*
X70517663Y47820535D01*
X70506838Y47842678D01*
X70489030Y47869329D01*
X70485752Y47885808D01*
X70481251Y47895015D01*
X70473943Y47945174D01*
X70470000Y47965000D01*
X70470000Y48515000D01*
X70473943Y48534826D01*
X70481251Y48584986D01*
X70485752Y48594194D01*
X70489030Y48610671D01*
X70506836Y48637321D01*
X70517663Y48659466D01*
X70529628Y48671432D01*
X70543223Y48691777D01*
X70563568Y48705372D01*
X70575534Y48717337D01*
X70597679Y48728164D01*
X70624329Y48745970D01*
X70640806Y48749248D01*
X70650014Y48753749D01*
X70700175Y48761057D01*
X70720000Y48765000D01*
X71120000Y48765000D01*
X71139828Y48761056D01*
G37*
G36*
X72789828Y48761056D02*
G01*
X72839985Y48753749D01*
X72849192Y48749248D01*
X72865671Y48745970D01*
X72892322Y48728162D01*
X72914465Y48717337D01*
X72926428Y48705374D01*
X72946777Y48691777D01*
X72960373Y48671429D01*
X72972336Y48659466D01*
X72983160Y48637326D01*
X73000970Y48610671D01*
X73004248Y48594191D01*
X73008748Y48584986D01*
X73016053Y48534843D01*
X73020000Y48515000D01*
X73020000Y47965000D01*
X73016052Y47945153D01*
X73008748Y47895015D01*
X73004248Y47885812D01*
X73000970Y47869329D01*
X72983158Y47842672D01*
X72972336Y47820535D01*
X72960375Y47808575D01*
X72946777Y47788223D01*
X72926425Y47774625D01*
X72914465Y47762664D01*
X72892328Y47751842D01*
X72865671Y47734030D01*
X72849188Y47730752D01*
X72839985Y47726252D01*
X72789845Y47718948D01*
X72770000Y47715000D01*
X72370000Y47715000D01*
X72350155Y47718948D01*
X72300014Y47726252D01*
X72290809Y47730752D01*
X72274329Y47734030D01*
X72247674Y47751840D01*
X72225534Y47762664D01*
X72213571Y47774627D01*
X72193223Y47788223D01*
X72179626Y47808572D01*
X72167663Y47820535D01*
X72156838Y47842678D01*
X72139030Y47869329D01*
X72135752Y47885808D01*
X72131251Y47895015D01*
X72123943Y47945174D01*
X72120000Y47965000D01*
X72120000Y48515000D01*
X72123943Y48534826D01*
X72131251Y48584986D01*
X72135752Y48594194D01*
X72139030Y48610671D01*
X72156836Y48637321D01*
X72167663Y48659466D01*
X72179628Y48671432D01*
X72193223Y48691777D01*
X72213568Y48705372D01*
X72225534Y48717337D01*
X72247679Y48728164D01*
X72274329Y48745970D01*
X72290806Y48749248D01*
X72300014Y48753749D01*
X72350175Y48761057D01*
X72370000Y48765000D01*
X72770000Y48765000D01*
X72789828Y48761056D01*
G37*
G36*
X32266896Y52349944D02*
G01*
X32277918Y52349944D01*
X32320994Y52341376D01*
X32420046Y52325687D01*
X32451906Y52315336D01*
X32479799Y52309787D01*
X32519153Y52293486D01*
X32576698Y52274789D01*
X32630611Y52247319D01*
X32669967Y52231017D01*
X32693611Y52215218D01*
X32723463Y52200008D01*
X32804604Y52141056D01*
X32841113Y52116661D01*
X32848905Y52108869D01*
X32856720Y52103191D01*
X32973190Y51986721D01*
X32978867Y51978907D01*
X32986661Y51971113D01*
X33011058Y51934600D01*
X33070007Y51853464D01*
X33085215Y51823615D01*
X33101017Y51799967D01*
X33117320Y51760607D01*
X33144788Y51706699D01*
X33163482Y51649162D01*
X33179787Y51609799D01*
X33185336Y51581901D01*
X33195686Y51550047D01*
X33211374Y51451001D01*
X33219944Y51407918D01*
X33219944Y51396897D01*
X33221455Y51387357D01*
X33221455Y51222644D01*
X33219944Y51213105D01*
X33219944Y51202082D01*
X33211373Y51158997D01*
X33195686Y51059954D01*
X33185336Y51028102D01*
X33179787Y51000201D01*
X33163481Y50960836D01*
X33144788Y50903302D01*
X33117323Y50849400D01*
X33101017Y50810033D01*
X33085213Y50786382D01*
X33070007Y50756537D01*
X33011066Y50675413D01*
X32986661Y50638887D01*
X32978865Y50631092D01*
X32973190Y50623280D01*
X32856720Y50506810D01*
X32848908Y50501135D01*
X32841113Y50493339D01*
X32804587Y50468934D01*
X32723463Y50409993D01*
X32693618Y50394787D01*
X32669967Y50378983D01*
X32630600Y50362677D01*
X32576698Y50335212D01*
X32519164Y50316519D01*
X32479799Y50300213D01*
X32451898Y50294664D01*
X32420046Y50284314D01*
X32321003Y50268627D01*
X32277918Y50260056D01*
X32266896Y50260056D01*
X32257356Y50258545D01*
X32092644Y50258545D01*
X32083104Y50260056D01*
X32072082Y50260056D01*
X32028997Y50268627D01*
X31929953Y50284314D01*
X31898099Y50294664D01*
X31870201Y50300213D01*
X31830838Y50316518D01*
X31773301Y50335212D01*
X31719393Y50362680D01*
X31680033Y50378983D01*
X31656385Y50394785D01*
X31626536Y50409993D01*
X31545400Y50468942D01*
X31508887Y50493339D01*
X31501093Y50501133D01*
X31493279Y50506810D01*
X31376809Y50623280D01*
X31371131Y50631095D01*
X31363339Y50638887D01*
X31338944Y50675396D01*
X31279992Y50756537D01*
X31264782Y50786389D01*
X31248983Y50810033D01*
X31232681Y50849389D01*
X31205211Y50903302D01*
X31186514Y50960847D01*
X31170213Y51000201D01*
X31164664Y51028094D01*
X31154313Y51059954D01*
X31138624Y51159006D01*
X31130056Y51202082D01*
X31130056Y51213105D01*
X31128545Y51222644D01*
X31128545Y51387357D01*
X31130056Y51396897D01*
X31130056Y51407918D01*
X31138623Y51450991D01*
X31154313Y51550047D01*
X31164665Y51581909D01*
X31170213Y51609799D01*
X31186512Y51649150D01*
X31205211Y51706699D01*
X31232683Y51760617D01*
X31248983Y51799967D01*
X31264779Y51823609D01*
X31279992Y51853464D01*
X31338953Y51934617D01*
X31363339Y51971113D01*
X31371128Y51978903D01*
X31376809Y51986721D01*
X31493279Y52103191D01*
X31501097Y52108872D01*
X31508887Y52116661D01*
X31545383Y52141047D01*
X31626536Y52200008D01*
X31656391Y52215221D01*
X31680033Y52231017D01*
X31719383Y52247317D01*
X31773301Y52274789D01*
X31830850Y52293488D01*
X31870201Y52309787D01*
X31898091Y52315335D01*
X31929953Y52325687D01*
X32029007Y52341376D01*
X32072082Y52349944D01*
X32083104Y52349944D01*
X32092644Y52351455D01*
X32257356Y52351455D01*
X32266896Y52349944D01*
G37*
G36*
X70979828Y51671056D02*
G01*
X71029985Y51663749D01*
X71039192Y51659248D01*
X71055671Y51655970D01*
X71082322Y51638162D01*
X71104465Y51627337D01*
X71116428Y51615374D01*
X71136777Y51601777D01*
X71150373Y51581429D01*
X71162336Y51569466D01*
X71173160Y51547326D01*
X71190970Y51520671D01*
X71194248Y51504191D01*
X71198748Y51494986D01*
X71206053Y51444843D01*
X71210000Y51425000D01*
X71210000Y50875000D01*
X71206052Y50855153D01*
X71198748Y50805015D01*
X71194248Y50795812D01*
X71190970Y50779329D01*
X71173158Y50752672D01*
X71162336Y50730535D01*
X71150375Y50718575D01*
X71136777Y50698223D01*
X71116425Y50684625D01*
X71104465Y50672664D01*
X71082328Y50661842D01*
X71055671Y50644030D01*
X71039188Y50640752D01*
X71029985Y50636252D01*
X70979845Y50628948D01*
X70960000Y50625000D01*
X70560000Y50625000D01*
X70540155Y50628948D01*
X70490014Y50636252D01*
X70480809Y50640752D01*
X70464329Y50644030D01*
X70437674Y50661840D01*
X70415534Y50672664D01*
X70403571Y50684627D01*
X70383223Y50698223D01*
X70369626Y50718572D01*
X70357663Y50730535D01*
X70346838Y50752678D01*
X70329030Y50779329D01*
X70325752Y50795808D01*
X70321251Y50805015D01*
X70313943Y50855174D01*
X70310000Y50875000D01*
X70310000Y51425000D01*
X70313943Y51444826D01*
X70321251Y51494986D01*
X70325752Y51504194D01*
X70329030Y51520671D01*
X70346836Y51547321D01*
X70357663Y51569466D01*
X70369628Y51581432D01*
X70383223Y51601777D01*
X70403568Y51615372D01*
X70415534Y51627337D01*
X70437679Y51638164D01*
X70464329Y51655970D01*
X70480806Y51659248D01*
X70490014Y51663749D01*
X70540175Y51671057D01*
X70560000Y51675000D01*
X70960000Y51675000D01*
X70979828Y51671056D01*
G37*
G36*
X72629828Y51671056D02*
G01*
X72679985Y51663749D01*
X72689192Y51659248D01*
X72705671Y51655970D01*
X72732322Y51638162D01*
X72754465Y51627337D01*
X72766428Y51615374D01*
X72786777Y51601777D01*
X72800373Y51581429D01*
X72812336Y51569466D01*
X72823160Y51547326D01*
X72840970Y51520671D01*
X72844248Y51504191D01*
X72848748Y51494986D01*
X72856053Y51444843D01*
X72860000Y51425000D01*
X72860000Y50875000D01*
X72856052Y50855153D01*
X72848748Y50805015D01*
X72844248Y50795812D01*
X72840970Y50779329D01*
X72823158Y50752672D01*
X72812336Y50730535D01*
X72800375Y50718575D01*
X72786777Y50698223D01*
X72766425Y50684625D01*
X72754465Y50672664D01*
X72732328Y50661842D01*
X72705671Y50644030D01*
X72689188Y50640752D01*
X72679985Y50636252D01*
X72629845Y50628948D01*
X72610000Y50625000D01*
X72210000Y50625000D01*
X72190155Y50628948D01*
X72140014Y50636252D01*
X72130809Y50640752D01*
X72114329Y50644030D01*
X72087674Y50661840D01*
X72065534Y50672664D01*
X72053571Y50684627D01*
X72033223Y50698223D01*
X72019626Y50718572D01*
X72007663Y50730535D01*
X71996838Y50752678D01*
X71979030Y50779329D01*
X71975752Y50795808D01*
X71971251Y50805015D01*
X71963943Y50855174D01*
X71960000Y50875000D01*
X71960000Y51425000D01*
X71963943Y51444826D01*
X71971251Y51494986D01*
X71975752Y51504194D01*
X71979030Y51520671D01*
X71996836Y51547321D01*
X72007663Y51569466D01*
X72019628Y51581432D01*
X72033223Y51601777D01*
X72053568Y51615372D01*
X72065534Y51627337D01*
X72087679Y51638164D01*
X72114329Y51655970D01*
X72130806Y51659248D01*
X72140014Y51663749D01*
X72190175Y51671057D01*
X72210000Y51675000D01*
X72610000Y51675000D01*
X72629828Y51671056D01*
G37*
G36*
X2046896Y63864944D02*
G01*
X2057918Y63864944D01*
X2100994Y63856376D01*
X2200046Y63840687D01*
X2231906Y63830336D01*
X2259799Y63824787D01*
X2299153Y63808486D01*
X2356698Y63789789D01*
X2410611Y63762319D01*
X2449967Y63746017D01*
X2473611Y63730218D01*
X2503463Y63715008D01*
X2584604Y63656056D01*
X2621113Y63631661D01*
X2628905Y63623869D01*
X2636720Y63618191D01*
X2753190Y63501721D01*
X2758867Y63493907D01*
X2766661Y63486113D01*
X2791058Y63449600D01*
X2850007Y63368464D01*
X2865215Y63338615D01*
X2881017Y63314967D01*
X2897320Y63275607D01*
X2924788Y63221699D01*
X2943482Y63164162D01*
X2959787Y63124799D01*
X2965336Y63096901D01*
X2975686Y63065047D01*
X2991374Y62966001D01*
X2999944Y62922918D01*
X2999944Y62911897D01*
X3001455Y62902357D01*
X3001455Y62737644D01*
X2999944Y62728105D01*
X2999944Y62717082D01*
X2991373Y62673997D01*
X2975686Y62574954D01*
X2965336Y62543102D01*
X2959787Y62515201D01*
X2943481Y62475836D01*
X2924788Y62418302D01*
X2897323Y62364400D01*
X2881017Y62325033D01*
X2865213Y62301382D01*
X2850007Y62271537D01*
X2791066Y62190413D01*
X2766661Y62153887D01*
X2758865Y62146092D01*
X2753190Y62138280D01*
X2636720Y62021810D01*
X2628908Y62016135D01*
X2621113Y62008339D01*
X2584587Y61983934D01*
X2503463Y61924993D01*
X2473618Y61909787D01*
X2449967Y61893983D01*
X2410600Y61877677D01*
X2356698Y61850212D01*
X2299164Y61831519D01*
X2259799Y61815213D01*
X2231898Y61809664D01*
X2200046Y61799314D01*
X2101003Y61783627D01*
X2057918Y61775056D01*
X2046896Y61775056D01*
X2037356Y61773545D01*
X1872644Y61773545D01*
X1863104Y61775056D01*
X1852082Y61775056D01*
X1808997Y61783627D01*
X1709953Y61799314D01*
X1678099Y61809664D01*
X1650201Y61815213D01*
X1610838Y61831518D01*
X1553301Y61850212D01*
X1499393Y61877680D01*
X1460033Y61893983D01*
X1436385Y61909785D01*
X1406536Y61924993D01*
X1325400Y61983942D01*
X1288887Y62008339D01*
X1281093Y62016133D01*
X1273279Y62021810D01*
X1156809Y62138280D01*
X1151131Y62146095D01*
X1143339Y62153887D01*
X1118944Y62190396D01*
X1059992Y62271537D01*
X1044782Y62301389D01*
X1028983Y62325033D01*
X1012681Y62364389D01*
X985211Y62418302D01*
X966514Y62475847D01*
X950213Y62515201D01*
X944664Y62543094D01*
X934313Y62574954D01*
X918624Y62674006D01*
X910056Y62717082D01*
X910056Y62728105D01*
X908545Y62737644D01*
X908545Y62902357D01*
X910056Y62911897D01*
X910056Y62922918D01*
X918623Y62965991D01*
X934313Y63065047D01*
X944665Y63096909D01*
X950213Y63124799D01*
X966512Y63164150D01*
X985211Y63221699D01*
X1012683Y63275617D01*
X1028983Y63314967D01*
X1044779Y63338609D01*
X1059992Y63368464D01*
X1118953Y63449617D01*
X1143339Y63486113D01*
X1151128Y63493903D01*
X1156809Y63501721D01*
X1273279Y63618191D01*
X1281097Y63623872D01*
X1288887Y63631661D01*
X1325383Y63656047D01*
X1406536Y63715008D01*
X1436391Y63730221D01*
X1460033Y63746017D01*
X1499383Y63762317D01*
X1553301Y63789789D01*
X1610850Y63808488D01*
X1650201Y63824787D01*
X1678091Y63830335D01*
X1709953Y63840687D01*
X1809007Y63856376D01*
X1852082Y63864944D01*
X1863104Y63864944D01*
X1872644Y63866455D01*
X2037356Y63866455D01*
X2046896Y63864944D01*
G37*
G36*
X24894828Y65596056D02*
G01*
X24944985Y65588749D01*
X24954192Y65584248D01*
X24970671Y65580970D01*
X24997322Y65563162D01*
X25019465Y65552337D01*
X25031428Y65540374D01*
X25051777Y65526777D01*
X25065373Y65506429D01*
X25077336Y65494466D01*
X25088160Y65472326D01*
X25105970Y65445671D01*
X25109248Y65429191D01*
X25113748Y65419986D01*
X25121053Y65369843D01*
X25125000Y65350000D01*
X25125000Y64950000D01*
X25121052Y64930153D01*
X25113748Y64880015D01*
X25109248Y64870812D01*
X25105970Y64854329D01*
X25088158Y64827672D01*
X25077336Y64805535D01*
X25065375Y64793575D01*
X25051777Y64773223D01*
X25031425Y64759625D01*
X25019465Y64747664D01*
X24997328Y64736842D01*
X24970671Y64719030D01*
X24954188Y64715752D01*
X24944985Y64711252D01*
X24894845Y64703948D01*
X24875000Y64700000D01*
X24325000Y64700000D01*
X24305155Y64703948D01*
X24255014Y64711252D01*
X24245809Y64715752D01*
X24229329Y64719030D01*
X24202674Y64736840D01*
X24180534Y64747664D01*
X24168571Y64759627D01*
X24148223Y64773223D01*
X24134626Y64793572D01*
X24122663Y64805535D01*
X24111838Y64827678D01*
X24094030Y64854329D01*
X24090752Y64870808D01*
X24086251Y64880015D01*
X24078943Y64930174D01*
X24075000Y64950000D01*
X24075000Y65350000D01*
X24078943Y65369826D01*
X24086251Y65419986D01*
X24090752Y65429194D01*
X24094030Y65445671D01*
X24111836Y65472321D01*
X24122663Y65494466D01*
X24134628Y65506432D01*
X24148223Y65526777D01*
X24168568Y65540372D01*
X24180534Y65552337D01*
X24202679Y65563164D01*
X24229329Y65580970D01*
X24245806Y65584248D01*
X24255014Y65588749D01*
X24305175Y65596057D01*
X24325000Y65600000D01*
X24875000Y65600000D01*
X24894828Y65596056D01*
G37*
G36*
X24894828Y67246056D02*
G01*
X24944985Y67238749D01*
X24954192Y67234248D01*
X24970671Y67230970D01*
X24997322Y67213162D01*
X25019465Y67202337D01*
X25031428Y67190374D01*
X25051777Y67176777D01*
X25065373Y67156429D01*
X25077336Y67144466D01*
X25088160Y67122326D01*
X25105970Y67095671D01*
X25109248Y67079191D01*
X25113748Y67069986D01*
X25121053Y67019843D01*
X25125000Y67000000D01*
X25125000Y66600000D01*
X25121052Y66580153D01*
X25113748Y66530015D01*
X25109248Y66520812D01*
X25105970Y66504329D01*
X25088158Y66477672D01*
X25077336Y66455535D01*
X25065375Y66443575D01*
X25051777Y66423223D01*
X25031425Y66409625D01*
X25019465Y66397664D01*
X24997328Y66386842D01*
X24970671Y66369030D01*
X24954188Y66365752D01*
X24944985Y66361252D01*
X24894845Y66353948D01*
X24875000Y66350000D01*
X24325000Y66350000D01*
X24305155Y66353948D01*
X24255014Y66361252D01*
X24245809Y66365752D01*
X24229329Y66369030D01*
X24202674Y66386840D01*
X24180534Y66397664D01*
X24168571Y66409627D01*
X24148223Y66423223D01*
X24134626Y66443572D01*
X24122663Y66455535D01*
X24111838Y66477678D01*
X24094030Y66504329D01*
X24090752Y66520808D01*
X24086251Y66530015D01*
X24078943Y66580174D01*
X24075000Y66600000D01*
X24075000Y67000000D01*
X24078943Y67019826D01*
X24086251Y67069986D01*
X24090752Y67079194D01*
X24094030Y67095671D01*
X24111836Y67122321D01*
X24122663Y67144466D01*
X24134628Y67156432D01*
X24148223Y67176777D01*
X24168568Y67190372D01*
X24180534Y67202337D01*
X24202679Y67213164D01*
X24229329Y67230970D01*
X24245806Y67234248D01*
X24255014Y67238749D01*
X24305175Y67246057D01*
X24325000Y67250000D01*
X24875000Y67250000D01*
X24894828Y67246056D01*
G37*
G36*
X48094828Y70056056D02*
G01*
X48144985Y70048749D01*
X48154192Y70044248D01*
X48170671Y70040970D01*
X48197322Y70023162D01*
X48219465Y70012337D01*
X48231428Y70000374D01*
X48251777Y69986777D01*
X48265373Y69966429D01*
X48277336Y69954466D01*
X48288160Y69932326D01*
X48305970Y69905671D01*
X48309248Y69889191D01*
X48313748Y69879986D01*
X48321053Y69829843D01*
X48325000Y69810000D01*
X48325000Y69410000D01*
X48321052Y69390153D01*
X48313748Y69340015D01*
X48309248Y69330812D01*
X48305970Y69314329D01*
X48288158Y69287672D01*
X48277336Y69265535D01*
X48265375Y69253575D01*
X48251777Y69233223D01*
X48231425Y69219625D01*
X48219465Y69207664D01*
X48197328Y69196842D01*
X48170671Y69179030D01*
X48154188Y69175752D01*
X48144985Y69171252D01*
X48094845Y69163948D01*
X48075000Y69160000D01*
X47525000Y69160000D01*
X47505155Y69163948D01*
X47455014Y69171252D01*
X47445809Y69175752D01*
X47429329Y69179030D01*
X47402674Y69196840D01*
X47380534Y69207664D01*
X47368571Y69219627D01*
X47348223Y69233223D01*
X47334626Y69253572D01*
X47322663Y69265535D01*
X47311838Y69287678D01*
X47294030Y69314329D01*
X47290752Y69330808D01*
X47286251Y69340015D01*
X47278943Y69390174D01*
X47275000Y69410000D01*
X47275000Y69810000D01*
X47278943Y69829826D01*
X47286251Y69879986D01*
X47290752Y69889194D01*
X47294030Y69905671D01*
X47311836Y69932321D01*
X47322663Y69954466D01*
X47334628Y69966432D01*
X47348223Y69986777D01*
X47368568Y70000372D01*
X47380534Y70012337D01*
X47402679Y70023164D01*
X47429329Y70040970D01*
X47445806Y70044248D01*
X47455014Y70048749D01*
X47505175Y70056057D01*
X47525000Y70060000D01*
X48075000Y70060000D01*
X48094828Y70056056D01*
G37*
G36*
X48094828Y71706056D02*
G01*
X48144985Y71698749D01*
X48154192Y71694248D01*
X48170671Y71690970D01*
X48197322Y71673162D01*
X48219465Y71662337D01*
X48231428Y71650374D01*
X48251777Y71636777D01*
X48265373Y71616429D01*
X48277336Y71604466D01*
X48288160Y71582326D01*
X48305970Y71555671D01*
X48309248Y71539191D01*
X48313748Y71529986D01*
X48321053Y71479843D01*
X48325000Y71460000D01*
X48325000Y71060000D01*
X48321052Y71040153D01*
X48313748Y70990015D01*
X48309248Y70980812D01*
X48305970Y70964329D01*
X48288158Y70937672D01*
X48277336Y70915535D01*
X48265375Y70903575D01*
X48251777Y70883223D01*
X48231425Y70869625D01*
X48219465Y70857664D01*
X48197328Y70846842D01*
X48170671Y70829030D01*
X48154188Y70825752D01*
X48144985Y70821252D01*
X48094845Y70813948D01*
X48075000Y70810000D01*
X47525000Y70810000D01*
X47505155Y70813948D01*
X47455014Y70821252D01*
X47445809Y70825752D01*
X47429329Y70829030D01*
X47402674Y70846840D01*
X47380534Y70857664D01*
X47368571Y70869627D01*
X47348223Y70883223D01*
X47334626Y70903572D01*
X47322663Y70915535D01*
X47311838Y70937678D01*
X47294030Y70964329D01*
X47290752Y70980808D01*
X47286251Y70990015D01*
X47278943Y71040174D01*
X47275000Y71060000D01*
X47275000Y71460000D01*
X47278943Y71479826D01*
X47286251Y71529986D01*
X47290752Y71539194D01*
X47294030Y71555671D01*
X47311836Y71582321D01*
X47322663Y71604466D01*
X47334628Y71616432D01*
X47348223Y71636777D01*
X47368568Y71650372D01*
X47380534Y71662337D01*
X47402679Y71673164D01*
X47429329Y71690970D01*
X47445806Y71694248D01*
X47455014Y71698749D01*
X47505175Y71706057D01*
X47525000Y71710000D01*
X48075000Y71710000D01*
X48094828Y71706056D01*
G37*
G36*
X83384828Y71886056D02*
G01*
X83434985Y71878749D01*
X83444192Y71874248D01*
X83460671Y71870970D01*
X83487322Y71853162D01*
X83509465Y71842337D01*
X83521428Y71830374D01*
X83541777Y71816777D01*
X83555373Y71796429D01*
X83567336Y71784466D01*
X83578160Y71762326D01*
X83595970Y71735671D01*
X83599248Y71719191D01*
X83603748Y71709986D01*
X83611053Y71659843D01*
X83615000Y71640000D01*
X83615000Y71240000D01*
X83611052Y71220153D01*
X83603748Y71170015D01*
X83599248Y71160812D01*
X83595970Y71144329D01*
X83578158Y71117672D01*
X83567336Y71095535D01*
X83555375Y71083575D01*
X83541777Y71063223D01*
X83521425Y71049625D01*
X83509465Y71037664D01*
X83487328Y71026842D01*
X83460671Y71009030D01*
X83444188Y71005752D01*
X83434985Y71001252D01*
X83384845Y70993948D01*
X83365000Y70990000D01*
X82815000Y70990000D01*
X82795155Y70993948D01*
X82745014Y71001252D01*
X82735809Y71005752D01*
X82719329Y71009030D01*
X82692674Y71026840D01*
X82670534Y71037664D01*
X82658571Y71049627D01*
X82638223Y71063223D01*
X82624626Y71083572D01*
X82612663Y71095535D01*
X82601838Y71117678D01*
X82584030Y71144329D01*
X82580752Y71160808D01*
X82576251Y71170015D01*
X82568943Y71220174D01*
X82565000Y71240000D01*
X82565000Y71640000D01*
X82568943Y71659826D01*
X82576251Y71709986D01*
X82580752Y71719194D01*
X82584030Y71735671D01*
X82601836Y71762321D01*
X82612663Y71784466D01*
X82624628Y71796432D01*
X82638223Y71816777D01*
X82658568Y71830372D01*
X82670534Y71842337D01*
X82692679Y71853164D01*
X82719329Y71870970D01*
X82735806Y71874248D01*
X82745014Y71878749D01*
X82795175Y71886057D01*
X82815000Y71890000D01*
X83365000Y71890000D01*
X83384828Y71886056D01*
G37*
G36*
X24911896Y73449944D02*
G01*
X24922918Y73449944D01*
X24965994Y73441376D01*
X25065046Y73425687D01*
X25096906Y73415336D01*
X25124799Y73409787D01*
X25164153Y73393486D01*
X25221698Y73374789D01*
X25275611Y73347319D01*
X25314967Y73331017D01*
X25338611Y73315218D01*
X25368463Y73300008D01*
X25449604Y73241056D01*
X25486113Y73216661D01*
X25493905Y73208869D01*
X25501720Y73203191D01*
X25618190Y73086721D01*
X25623867Y73078907D01*
X25631661Y73071113D01*
X25656058Y73034600D01*
X25715007Y72953464D01*
X25730215Y72923615D01*
X25746017Y72899967D01*
X25762320Y72860607D01*
X25789788Y72806699D01*
X25808482Y72749162D01*
X25824787Y72709799D01*
X25830336Y72681901D01*
X25840686Y72650047D01*
X25856374Y72551001D01*
X25864944Y72507918D01*
X25864944Y72496897D01*
X25866455Y72487357D01*
X25866455Y72322644D01*
X25864944Y72313105D01*
X25864944Y72302082D01*
X25856373Y72258997D01*
X25840686Y72159954D01*
X25830336Y72128102D01*
X25824787Y72100201D01*
X25808481Y72060836D01*
X25789788Y72003302D01*
X25762323Y71949400D01*
X25746017Y71910033D01*
X25730213Y71886382D01*
X25715007Y71856537D01*
X25656066Y71775413D01*
X25631661Y71738887D01*
X25623865Y71731092D01*
X25618190Y71723280D01*
X25501720Y71606810D01*
X25493908Y71601135D01*
X25486113Y71593339D01*
X25449587Y71568934D01*
X25368463Y71509993D01*
X25338618Y71494787D01*
X25314967Y71478983D01*
X25275600Y71462677D01*
X25221698Y71435212D01*
X25164164Y71416519D01*
X25124799Y71400213D01*
X25096898Y71394664D01*
X25065046Y71384314D01*
X24966003Y71368627D01*
X24922918Y71360056D01*
X24911896Y71360056D01*
X24902356Y71358545D01*
X24737644Y71358545D01*
X24728104Y71360056D01*
X24717082Y71360056D01*
X24673997Y71368627D01*
X24574953Y71384314D01*
X24543099Y71394664D01*
X24515201Y71400213D01*
X24475838Y71416518D01*
X24418301Y71435212D01*
X24364393Y71462680D01*
X24325033Y71478983D01*
X24301385Y71494785D01*
X24271536Y71509993D01*
X24190400Y71568942D01*
X24153887Y71593339D01*
X24146093Y71601133D01*
X24138279Y71606810D01*
X24021809Y71723280D01*
X24016131Y71731095D01*
X24008339Y71738887D01*
X23983944Y71775396D01*
X23924992Y71856537D01*
X23909782Y71886389D01*
X23893983Y71910033D01*
X23877681Y71949389D01*
X23850211Y72003302D01*
X23831514Y72060847D01*
X23815213Y72100201D01*
X23809664Y72128094D01*
X23799313Y72159954D01*
X23783624Y72259006D01*
X23775056Y72302082D01*
X23775056Y72313105D01*
X23773545Y72322644D01*
X23773545Y72487357D01*
X23775056Y72496897D01*
X23775056Y72507918D01*
X23783623Y72550991D01*
X23799313Y72650047D01*
X23809665Y72681909D01*
X23815213Y72709799D01*
X23831512Y72749150D01*
X23850211Y72806699D01*
X23877683Y72860617D01*
X23893983Y72899967D01*
X23909779Y72923609D01*
X23924992Y72953464D01*
X23983953Y73034617D01*
X24008339Y73071113D01*
X24016128Y73078903D01*
X24021809Y73086721D01*
X24138279Y73203191D01*
X24146097Y73208872D01*
X24153887Y73216661D01*
X24190383Y73241047D01*
X24271536Y73300008D01*
X24301391Y73315221D01*
X24325033Y73331017D01*
X24364383Y73347317D01*
X24418301Y73374789D01*
X24475850Y73393488D01*
X24515201Y73409787D01*
X24543091Y73415335D01*
X24574953Y73425687D01*
X24674007Y73441376D01*
X24717082Y73449944D01*
X24728104Y73449944D01*
X24737644Y73451455D01*
X24902356Y73451455D01*
X24911896Y73449944D01*
G37*
G36*
X89564828Y73476056D02*
G01*
X89614985Y73468749D01*
X89624192Y73464248D01*
X89640671Y73460970D01*
X89667322Y73443162D01*
X89689465Y73432337D01*
X89701428Y73420374D01*
X89721777Y73406777D01*
X89735373Y73386429D01*
X89747336Y73374466D01*
X89758160Y73352326D01*
X89775970Y73325671D01*
X89779248Y73309191D01*
X89783748Y73299986D01*
X89791053Y73249843D01*
X89795000Y73230000D01*
X89795000Y72830000D01*
X89791052Y72810153D01*
X89783748Y72760015D01*
X89779248Y72750812D01*
X89775970Y72734329D01*
X89758158Y72707672D01*
X89747336Y72685535D01*
X89735375Y72673575D01*
X89721777Y72653223D01*
X89701425Y72639625D01*
X89689465Y72627664D01*
X89667328Y72616842D01*
X89640671Y72599030D01*
X89624188Y72595752D01*
X89614985Y72591252D01*
X89564845Y72583948D01*
X89545000Y72580000D01*
X88995000Y72580000D01*
X88975155Y72583948D01*
X88925014Y72591252D01*
X88915809Y72595752D01*
X88899329Y72599030D01*
X88872674Y72616840D01*
X88850534Y72627664D01*
X88838571Y72639627D01*
X88818223Y72653223D01*
X88804626Y72673572D01*
X88792663Y72685535D01*
X88781838Y72707678D01*
X88764030Y72734329D01*
X88760752Y72750808D01*
X88756251Y72760015D01*
X88748943Y72810174D01*
X88745000Y72830000D01*
X88745000Y73230000D01*
X88748943Y73249826D01*
X88756251Y73299986D01*
X88760752Y73309194D01*
X88764030Y73325671D01*
X88781836Y73352321D01*
X88792663Y73374466D01*
X88804628Y73386432D01*
X88818223Y73406777D01*
X88838568Y73420372D01*
X88850534Y73432337D01*
X88872679Y73443164D01*
X88899329Y73460970D01*
X88915806Y73464248D01*
X88925014Y73468749D01*
X88975175Y73476057D01*
X88995000Y73480000D01*
X89545000Y73480000D01*
X89564828Y73476056D01*
G37*
G36*
X83384828Y73536056D02*
G01*
X83434985Y73528749D01*
X83444192Y73524248D01*
X83460671Y73520970D01*
X83487322Y73503162D01*
X83509465Y73492337D01*
X83521428Y73480374D01*
X83541777Y73466777D01*
X83555373Y73446429D01*
X83567336Y73434466D01*
X83578160Y73412326D01*
X83595970Y73385671D01*
X83599248Y73369191D01*
X83603748Y73359986D01*
X83611053Y73309843D01*
X83615000Y73290000D01*
X83615000Y72890000D01*
X83611052Y72870153D01*
X83603748Y72820015D01*
X83599248Y72810812D01*
X83595970Y72794329D01*
X83578158Y72767672D01*
X83567336Y72745535D01*
X83555375Y72733575D01*
X83541777Y72713223D01*
X83521425Y72699625D01*
X83509465Y72687664D01*
X83487328Y72676842D01*
X83460671Y72659030D01*
X83444188Y72655752D01*
X83434985Y72651252D01*
X83384845Y72643948D01*
X83365000Y72640000D01*
X82815000Y72640000D01*
X82795155Y72643948D01*
X82745014Y72651252D01*
X82735809Y72655752D01*
X82719329Y72659030D01*
X82692674Y72676840D01*
X82670534Y72687664D01*
X82658571Y72699627D01*
X82638223Y72713223D01*
X82624626Y72733572D01*
X82612663Y72745535D01*
X82601838Y72767678D01*
X82584030Y72794329D01*
X82580752Y72810808D01*
X82576251Y72820015D01*
X82568943Y72870174D01*
X82565000Y72890000D01*
X82565000Y73290000D01*
X82568943Y73309826D01*
X82576251Y73359986D01*
X82580752Y73369194D01*
X82584030Y73385671D01*
X82601836Y73412321D01*
X82612663Y73434466D01*
X82624628Y73446432D01*
X82638223Y73466777D01*
X82658568Y73480372D01*
X82670534Y73492337D01*
X82692679Y73503164D01*
X82719329Y73520970D01*
X82735806Y73524248D01*
X82745014Y73528749D01*
X82795175Y73536057D01*
X82815000Y73540000D01*
X83365000Y73540000D01*
X83384828Y73536056D01*
G37*
G36*
X89564828Y75126056D02*
G01*
X89614985Y75118749D01*
X89624192Y75114248D01*
X89640671Y75110970D01*
X89667322Y75093162D01*
X89689465Y75082337D01*
X89701428Y75070374D01*
X89721777Y75056777D01*
X89735373Y75036429D01*
X89747336Y75024466D01*
X89758160Y75002326D01*
X89775970Y74975671D01*
X89779248Y74959191D01*
X89783748Y74949986D01*
X89791053Y74899843D01*
X89795000Y74880000D01*
X89795000Y74480000D01*
X89791052Y74460153D01*
X89783748Y74410015D01*
X89779248Y74400812D01*
X89775970Y74384329D01*
X89758158Y74357672D01*
X89747336Y74335535D01*
X89735375Y74323575D01*
X89721777Y74303223D01*
X89701425Y74289625D01*
X89689465Y74277664D01*
X89667328Y74266842D01*
X89640671Y74249030D01*
X89624188Y74245752D01*
X89614985Y74241252D01*
X89564845Y74233948D01*
X89545000Y74230000D01*
X88995000Y74230000D01*
X88975155Y74233948D01*
X88925014Y74241252D01*
X88915809Y74245752D01*
X88899329Y74249030D01*
X88872674Y74266840D01*
X88850534Y74277664D01*
X88838571Y74289627D01*
X88818223Y74303223D01*
X88804626Y74323572D01*
X88792663Y74335535D01*
X88781838Y74357678D01*
X88764030Y74384329D01*
X88760752Y74400808D01*
X88756251Y74410015D01*
X88748943Y74460174D01*
X88745000Y74480000D01*
X88745000Y74880000D01*
X88748943Y74899826D01*
X88756251Y74949986D01*
X88760752Y74959194D01*
X88764030Y74975671D01*
X88781836Y75002321D01*
X88792663Y75024466D01*
X88804628Y75036432D01*
X88818223Y75056777D01*
X88838568Y75070372D01*
X88850534Y75082337D01*
X88872679Y75093164D01*
X88899329Y75110970D01*
X88915806Y75114248D01*
X88925014Y75118749D01*
X88975175Y75126057D01*
X88995000Y75130000D01*
X89545000Y75130000D01*
X89564828Y75126056D01*
G37*
G36*
X47666896Y76924944D02*
G01*
X47677918Y76924944D01*
X47720994Y76916376D01*
X47820046Y76900687D01*
X47851906Y76890336D01*
X47879799Y76884787D01*
X47919153Y76868486D01*
X47976698Y76849789D01*
X48030611Y76822319D01*
X48069967Y76806017D01*
X48093611Y76790218D01*
X48123463Y76775008D01*
X48204604Y76716056D01*
X48241113Y76691661D01*
X48248905Y76683869D01*
X48256720Y76678191D01*
X48373190Y76561721D01*
X48378867Y76553907D01*
X48386661Y76546113D01*
X48411058Y76509600D01*
X48470007Y76428464D01*
X48485215Y76398615D01*
X48501017Y76374967D01*
X48517320Y76335607D01*
X48544788Y76281699D01*
X48563482Y76224162D01*
X48579787Y76184799D01*
X48585336Y76156901D01*
X48595686Y76125047D01*
X48611374Y76026001D01*
X48619944Y75982918D01*
X48619944Y75971897D01*
X48621455Y75962357D01*
X48621455Y75797644D01*
X48619944Y75788105D01*
X48619944Y75777082D01*
X48611373Y75733997D01*
X48595686Y75634954D01*
X48585336Y75603102D01*
X48579787Y75575201D01*
X48563481Y75535836D01*
X48544788Y75478302D01*
X48517323Y75424400D01*
X48501017Y75385033D01*
X48485213Y75361382D01*
X48470007Y75331537D01*
X48411066Y75250413D01*
X48386661Y75213887D01*
X48378865Y75206092D01*
X48373190Y75198280D01*
X48256720Y75081810D01*
X48248908Y75076135D01*
X48241113Y75068339D01*
X48204587Y75043934D01*
X48123463Y74984993D01*
X48093618Y74969787D01*
X48069967Y74953983D01*
X48030600Y74937677D01*
X47976698Y74910212D01*
X47919164Y74891519D01*
X47879799Y74875213D01*
X47851898Y74869664D01*
X47820046Y74859314D01*
X47721003Y74843627D01*
X47677918Y74835056D01*
X47666896Y74835056D01*
X47657356Y74833545D01*
X47492644Y74833545D01*
X47483104Y74835056D01*
X47472082Y74835056D01*
X47428997Y74843627D01*
X47329953Y74859314D01*
X47298099Y74869664D01*
X47270201Y74875213D01*
X47230838Y74891518D01*
X47173301Y74910212D01*
X47119393Y74937680D01*
X47080033Y74953983D01*
X47056385Y74969785D01*
X47026536Y74984993D01*
X46945400Y75043942D01*
X46908887Y75068339D01*
X46901093Y75076133D01*
X46893279Y75081810D01*
X46776809Y75198280D01*
X46771131Y75206095D01*
X46763339Y75213887D01*
X46738944Y75250396D01*
X46679992Y75331537D01*
X46664782Y75361389D01*
X46648983Y75385033D01*
X46632681Y75424389D01*
X46605211Y75478302D01*
X46586514Y75535847D01*
X46570213Y75575201D01*
X46564664Y75603094D01*
X46554313Y75634954D01*
X46538624Y75734006D01*
X46530056Y75777082D01*
X46530056Y75788105D01*
X46528545Y75797644D01*
X46528545Y75962357D01*
X46530056Y75971897D01*
X46530056Y75982918D01*
X46538623Y76025991D01*
X46554313Y76125047D01*
X46564665Y76156909D01*
X46570213Y76184799D01*
X46586512Y76224150D01*
X46605211Y76281699D01*
X46632683Y76335617D01*
X46648983Y76374967D01*
X46664779Y76398609D01*
X46679992Y76428464D01*
X46738953Y76509617D01*
X46763339Y76546113D01*
X46771128Y76553903D01*
X46776809Y76561721D01*
X46893279Y76678191D01*
X46901097Y76683872D01*
X46908887Y76691661D01*
X46945383Y76716047D01*
X47026536Y76775008D01*
X47056391Y76790221D01*
X47080033Y76806017D01*
X47119383Y76822317D01*
X47173301Y76849789D01*
X47230850Y76868488D01*
X47270201Y76884787D01*
X47298091Y76890335D01*
X47329953Y76900687D01*
X47429007Y76916376D01*
X47472082Y76924944D01*
X47483104Y76924944D01*
X47492644Y76926455D01*
X47657356Y76926455D01*
X47666896Y76924944D01*
G37*
G36*
X83091896Y79224944D02*
G01*
X83102918Y79224944D01*
X83145994Y79216376D01*
X83245046Y79200687D01*
X83276906Y79190336D01*
X83304799Y79184787D01*
X83344153Y79168486D01*
X83401698Y79149789D01*
X83455611Y79122319D01*
X83494967Y79106017D01*
X83518611Y79090218D01*
X83548463Y79075008D01*
X83629604Y79016056D01*
X83666113Y78991661D01*
X83673905Y78983869D01*
X83681720Y78978191D01*
X83798190Y78861721D01*
X83803867Y78853907D01*
X83811661Y78846113D01*
X83836058Y78809600D01*
X83895007Y78728464D01*
X83910215Y78698615D01*
X83926017Y78674967D01*
X83942320Y78635607D01*
X83969788Y78581699D01*
X83988482Y78524162D01*
X84004787Y78484799D01*
X84010336Y78456901D01*
X84020686Y78425047D01*
X84036374Y78326001D01*
X84044944Y78282918D01*
X84044944Y78271897D01*
X84046455Y78262357D01*
X84046455Y78097644D01*
X84044944Y78088105D01*
X84044944Y78077082D01*
X84036373Y78033997D01*
X84020686Y77934954D01*
X84010336Y77903102D01*
X84004787Y77875201D01*
X83988481Y77835836D01*
X83969788Y77778302D01*
X83942323Y77724400D01*
X83926017Y77685033D01*
X83910213Y77661382D01*
X83895007Y77631537D01*
X83836066Y77550413D01*
X83811661Y77513887D01*
X83803865Y77506092D01*
X83798190Y77498280D01*
X83681720Y77381810D01*
X83673908Y77376135D01*
X83666113Y77368339D01*
X83629587Y77343934D01*
X83548463Y77284993D01*
X83518618Y77269787D01*
X83494967Y77253983D01*
X83455600Y77237677D01*
X83401698Y77210212D01*
X83344164Y77191519D01*
X83304799Y77175213D01*
X83276898Y77169664D01*
X83245046Y77159314D01*
X83146003Y77143627D01*
X83102918Y77135056D01*
X83091896Y77135056D01*
X83082356Y77133545D01*
X82917644Y77133545D01*
X82908104Y77135056D01*
X82897082Y77135056D01*
X82853997Y77143627D01*
X82754953Y77159314D01*
X82723099Y77169664D01*
X82695201Y77175213D01*
X82655838Y77191518D01*
X82598301Y77210212D01*
X82544393Y77237680D01*
X82505033Y77253983D01*
X82481385Y77269785D01*
X82451536Y77284993D01*
X82370400Y77343942D01*
X82333887Y77368339D01*
X82326093Y77376133D01*
X82318279Y77381810D01*
X82201809Y77498280D01*
X82196131Y77506095D01*
X82188339Y77513887D01*
X82163944Y77550396D01*
X82104992Y77631537D01*
X82089782Y77661389D01*
X82073983Y77685033D01*
X82057681Y77724389D01*
X82030211Y77778302D01*
X82011514Y77835847D01*
X81995213Y77875201D01*
X81989664Y77903094D01*
X81979313Y77934954D01*
X81963624Y78034006D01*
X81955056Y78077082D01*
X81955056Y78088105D01*
X81953545Y78097644D01*
X81953545Y78262357D01*
X81955056Y78271897D01*
X81955056Y78282918D01*
X81963623Y78325991D01*
X81979313Y78425047D01*
X81989665Y78456909D01*
X81995213Y78484799D01*
X82011512Y78524150D01*
X82030211Y78581699D01*
X82057683Y78635617D01*
X82073983Y78674967D01*
X82089779Y78698609D01*
X82104992Y78728464D01*
X82163953Y78809617D01*
X82188339Y78846113D01*
X82196128Y78853903D01*
X82201809Y78861721D01*
X82318279Y78978191D01*
X82326097Y78983872D01*
X82333887Y78991661D01*
X82370383Y79016047D01*
X82451536Y79075008D01*
X82481391Y79090221D01*
X82505033Y79106017D01*
X82544383Y79122317D01*
X82598301Y79149789D01*
X82655850Y79168488D01*
X82695201Y79184787D01*
X82723091Y79190335D01*
X82754953Y79200687D01*
X82854007Y79216376D01*
X82897082Y79224944D01*
X82908104Y79224944D01*
X82917644Y79226455D01*
X83082356Y79226455D01*
X83091896Y79224944D01*
G37*
G36*
X89391896Y81464944D02*
G01*
X89402918Y81464944D01*
X89445994Y81456376D01*
X89545046Y81440687D01*
X89576906Y81430336D01*
X89604799Y81424787D01*
X89644153Y81408486D01*
X89701698Y81389789D01*
X89755611Y81362319D01*
X89794967Y81346017D01*
X89818611Y81330218D01*
X89848463Y81315008D01*
X89929604Y81256056D01*
X89966113Y81231661D01*
X89973905Y81223869D01*
X89981720Y81218191D01*
X90098190Y81101721D01*
X90103867Y81093907D01*
X90111661Y81086113D01*
X90136058Y81049600D01*
X90195007Y80968464D01*
X90210215Y80938615D01*
X90226017Y80914967D01*
X90242320Y80875607D01*
X90269788Y80821699D01*
X90288482Y80764162D01*
X90304787Y80724799D01*
X90310336Y80696901D01*
X90320686Y80665047D01*
X90336374Y80566001D01*
X90344944Y80522918D01*
X90344944Y80511897D01*
X90346455Y80502357D01*
X90346455Y80337644D01*
X90344944Y80328105D01*
X90344944Y80317082D01*
X90336373Y80273997D01*
X90320686Y80174954D01*
X90310336Y80143102D01*
X90304787Y80115201D01*
X90288481Y80075836D01*
X90269788Y80018302D01*
X90242323Y79964400D01*
X90226017Y79925033D01*
X90210213Y79901382D01*
X90195007Y79871537D01*
X90136066Y79790413D01*
X90111661Y79753887D01*
X90103865Y79746092D01*
X90098190Y79738280D01*
X89981720Y79621810D01*
X89973908Y79616135D01*
X89966113Y79608339D01*
X89929587Y79583934D01*
X89848463Y79524993D01*
X89818618Y79509787D01*
X89794967Y79493983D01*
X89755600Y79477677D01*
X89701698Y79450212D01*
X89644164Y79431519D01*
X89604799Y79415213D01*
X89576898Y79409664D01*
X89545046Y79399314D01*
X89446003Y79383627D01*
X89402918Y79375056D01*
X89391896Y79375056D01*
X89382356Y79373545D01*
X89217644Y79373545D01*
X89208104Y79375056D01*
X89197082Y79375056D01*
X89153997Y79383627D01*
X89054953Y79399314D01*
X89023099Y79409664D01*
X88995201Y79415213D01*
X88955838Y79431518D01*
X88898301Y79450212D01*
X88844393Y79477680D01*
X88805033Y79493983D01*
X88781385Y79509785D01*
X88751536Y79524993D01*
X88670400Y79583942D01*
X88633887Y79608339D01*
X88626093Y79616133D01*
X88618279Y79621810D01*
X88501809Y79738280D01*
X88496131Y79746095D01*
X88488339Y79753887D01*
X88463944Y79790396D01*
X88404992Y79871537D01*
X88389782Y79901389D01*
X88373983Y79925033D01*
X88357681Y79964389D01*
X88330211Y80018302D01*
X88311514Y80075847D01*
X88295213Y80115201D01*
X88289664Y80143094D01*
X88279313Y80174954D01*
X88263624Y80274006D01*
X88255056Y80317082D01*
X88255056Y80328105D01*
X88253545Y80337644D01*
X88253545Y80502357D01*
X88255056Y80511897D01*
X88255056Y80522918D01*
X88263623Y80565991D01*
X88279313Y80665047D01*
X88289665Y80696909D01*
X88295213Y80724799D01*
X88311512Y80764150D01*
X88330211Y80821699D01*
X88357683Y80875617D01*
X88373983Y80914967D01*
X88389779Y80938609D01*
X88404992Y80968464D01*
X88463953Y81049617D01*
X88488339Y81086113D01*
X88496128Y81093903D01*
X88501809Y81101721D01*
X88618279Y81218191D01*
X88626097Y81223872D01*
X88633887Y81231661D01*
X88670383Y81256047D01*
X88751536Y81315008D01*
X88781391Y81330221D01*
X88805033Y81346017D01*
X88844383Y81362317D01*
X88898301Y81389789D01*
X88955850Y81408488D01*
X88995201Y81424787D01*
X89023091Y81430335D01*
X89054953Y81440687D01*
X89154007Y81456376D01*
X89197082Y81464944D01*
X89208104Y81464944D01*
X89217644Y81466455D01*
X89382356Y81466455D01*
X89391896Y81464944D01*
G37*
G36*
X39959828Y81051056D02*
G01*
X40009985Y81043749D01*
X40019192Y81039248D01*
X40035671Y81035970D01*
X40062322Y81018162D01*
X40084465Y81007337D01*
X40096428Y80995374D01*
X40116777Y80981777D01*
X40130373Y80961429D01*
X40142336Y80949466D01*
X40153160Y80927326D01*
X40170970Y80900671D01*
X40174248Y80884191D01*
X40178748Y80874986D01*
X40186053Y80824843D01*
X40190000Y80805000D01*
X40190000Y80255000D01*
X40186052Y80235153D01*
X40178748Y80185015D01*
X40174248Y80175812D01*
X40170970Y80159329D01*
X40153158Y80132672D01*
X40142336Y80110535D01*
X40130375Y80098575D01*
X40116777Y80078223D01*
X40096425Y80064625D01*
X40084465Y80052664D01*
X40062328Y80041842D01*
X40035671Y80024030D01*
X40019188Y80020752D01*
X40009985Y80016252D01*
X39959845Y80008948D01*
X39940000Y80005000D01*
X39540000Y80005000D01*
X39520155Y80008948D01*
X39470014Y80016252D01*
X39460809Y80020752D01*
X39444329Y80024030D01*
X39417674Y80041840D01*
X39395534Y80052664D01*
X39383571Y80064627D01*
X39363223Y80078223D01*
X39349626Y80098572D01*
X39337663Y80110535D01*
X39326838Y80132678D01*
X39309030Y80159329D01*
X39305752Y80175808D01*
X39301251Y80185015D01*
X39293943Y80235174D01*
X39290000Y80255000D01*
X39290000Y80805000D01*
X39293943Y80824826D01*
X39301251Y80874986D01*
X39305752Y80884194D01*
X39309030Y80900671D01*
X39326836Y80927321D01*
X39337663Y80949466D01*
X39349628Y80961432D01*
X39363223Y80981777D01*
X39383568Y80995372D01*
X39395534Y81007337D01*
X39417679Y81018164D01*
X39444329Y81035970D01*
X39460806Y81039248D01*
X39470014Y81043749D01*
X39520175Y81051057D01*
X39540000Y81055000D01*
X39940000Y81055000D01*
X39959828Y81051056D01*
G37*
G36*
X41609828Y81051056D02*
G01*
X41659985Y81043749D01*
X41669192Y81039248D01*
X41685671Y81035970D01*
X41712322Y81018162D01*
X41734465Y81007337D01*
X41746428Y80995374D01*
X41766777Y80981777D01*
X41780373Y80961429D01*
X41792336Y80949466D01*
X41803160Y80927326D01*
X41820970Y80900671D01*
X41824248Y80884191D01*
X41828748Y80874986D01*
X41836053Y80824843D01*
X41840000Y80805000D01*
X41840000Y80255000D01*
X41836052Y80235153D01*
X41828748Y80185015D01*
X41824248Y80175812D01*
X41820970Y80159329D01*
X41803158Y80132672D01*
X41792336Y80110535D01*
X41780375Y80098575D01*
X41766777Y80078223D01*
X41746425Y80064625D01*
X41734465Y80052664D01*
X41712328Y80041842D01*
X41685671Y80024030D01*
X41669188Y80020752D01*
X41659985Y80016252D01*
X41609845Y80008948D01*
X41590000Y80005000D01*
X41190000Y80005000D01*
X41170155Y80008948D01*
X41120014Y80016252D01*
X41110809Y80020752D01*
X41094329Y80024030D01*
X41067674Y80041840D01*
X41045534Y80052664D01*
X41033571Y80064627D01*
X41013223Y80078223D01*
X40999626Y80098572D01*
X40987663Y80110535D01*
X40976838Y80132678D01*
X40959030Y80159329D01*
X40955752Y80175808D01*
X40951251Y80185015D01*
X40943943Y80235174D01*
X40940000Y80255000D01*
X40940000Y80805000D01*
X40943943Y80824826D01*
X40951251Y80874986D01*
X40955752Y80884194D01*
X40959030Y80900671D01*
X40976836Y80927321D01*
X40987663Y80949466D01*
X40999628Y80961432D01*
X41013223Y80981777D01*
X41033568Y80995372D01*
X41045534Y81007337D01*
X41067679Y81018164D01*
X41094329Y81035970D01*
X41110806Y81039248D01*
X41120014Y81043749D01*
X41170175Y81051057D01*
X41190000Y81055000D01*
X41590000Y81055000D01*
X41609828Y81051056D01*
G37*
G36*
X45391896Y83424944D02*
G01*
X45402918Y83424944D01*
X45445994Y83416376D01*
X45545046Y83400687D01*
X45576906Y83390336D01*
X45604799Y83384787D01*
X45644153Y83368486D01*
X45701698Y83349789D01*
X45755611Y83322319D01*
X45794967Y83306017D01*
X45818611Y83290218D01*
X45848463Y83275008D01*
X45929604Y83216056D01*
X45966113Y83191661D01*
X45973905Y83183869D01*
X45981720Y83178191D01*
X46098190Y83061721D01*
X46103867Y83053907D01*
X46111661Y83046113D01*
X46136058Y83009600D01*
X46195007Y82928464D01*
X46210215Y82898615D01*
X46226017Y82874967D01*
X46242320Y82835607D01*
X46269788Y82781699D01*
X46288482Y82724162D01*
X46304787Y82684799D01*
X46310336Y82656901D01*
X46320686Y82625047D01*
X46336374Y82526001D01*
X46344944Y82482918D01*
X46344944Y82471897D01*
X46346455Y82462357D01*
X46346455Y82297644D01*
X46344944Y82288105D01*
X46344944Y82277082D01*
X46336373Y82233997D01*
X46320686Y82134954D01*
X46310336Y82103102D01*
X46304787Y82075201D01*
X46288481Y82035836D01*
X46269788Y81978302D01*
X46242323Y81924400D01*
X46226017Y81885033D01*
X46210213Y81861382D01*
X46195007Y81831537D01*
X46136066Y81750413D01*
X46111661Y81713887D01*
X46103865Y81706092D01*
X46098190Y81698280D01*
X45981720Y81581810D01*
X45973908Y81576135D01*
X45966113Y81568339D01*
X45929587Y81543934D01*
X45848463Y81484993D01*
X45818618Y81469787D01*
X45794967Y81453983D01*
X45755600Y81437677D01*
X45701698Y81410212D01*
X45644164Y81391519D01*
X45604799Y81375213D01*
X45576898Y81369664D01*
X45545046Y81359314D01*
X45446003Y81343627D01*
X45402918Y81335056D01*
X45391896Y81335056D01*
X45382356Y81333545D01*
X45217644Y81333545D01*
X45208104Y81335056D01*
X45197082Y81335056D01*
X45153997Y81343627D01*
X45054953Y81359314D01*
X45023099Y81369664D01*
X44995201Y81375213D01*
X44955838Y81391518D01*
X44898301Y81410212D01*
X44844393Y81437680D01*
X44805033Y81453983D01*
X44781385Y81469785D01*
X44751536Y81484993D01*
X44670400Y81543942D01*
X44633887Y81568339D01*
X44626093Y81576133D01*
X44618279Y81581810D01*
X44501809Y81698280D01*
X44496131Y81706095D01*
X44488339Y81713887D01*
X44463944Y81750396D01*
X44404992Y81831537D01*
X44389782Y81861389D01*
X44373983Y81885033D01*
X44357681Y81924389D01*
X44330211Y81978302D01*
X44311514Y82035847D01*
X44295213Y82075201D01*
X44289664Y82103094D01*
X44279313Y82134954D01*
X44263624Y82234006D01*
X44255056Y82277082D01*
X44255056Y82288105D01*
X44253545Y82297644D01*
X44253545Y82462357D01*
X44255056Y82471897D01*
X44255056Y82482918D01*
X44263623Y82525991D01*
X44279313Y82625047D01*
X44289665Y82656909D01*
X44295213Y82684799D01*
X44311512Y82724150D01*
X44330211Y82781699D01*
X44357683Y82835617D01*
X44373983Y82874967D01*
X44389779Y82898609D01*
X44404992Y82928464D01*
X44463953Y83009617D01*
X44488339Y83046113D01*
X44496128Y83053903D01*
X44501809Y83061721D01*
X44618279Y83178191D01*
X44626097Y83183872D01*
X44633887Y83191661D01*
X44670383Y83216047D01*
X44751536Y83275008D01*
X44781391Y83290221D01*
X44805033Y83306017D01*
X44844383Y83322317D01*
X44898301Y83349789D01*
X44955850Y83368488D01*
X44995201Y83384787D01*
X45023091Y83390335D01*
X45054953Y83400687D01*
X45154007Y83416376D01*
X45197082Y83424944D01*
X45208104Y83424944D01*
X45217644Y83426455D01*
X45382356Y83426455D01*
X45391896Y83424944D01*
G37*
G36*
X24880426Y85692531D02*
G01*
X25126807Y85626514D01*
X25362463Y85528902D01*
X25583362Y85401366D01*
X25785724Y85246088D01*
X25966088Y85065724D01*
X26121366Y84863362D01*
X26248902Y84642463D01*
X26346514Y84406807D01*
X26412531Y84160426D01*
X26445825Y83907536D01*
X26445825Y83652464D01*
X26412531Y83399574D01*
X26346514Y83153193D01*
X26248902Y82917537D01*
X26121366Y82696638D01*
X25966088Y82494276D01*
X25785724Y82313912D01*
X25583362Y82158634D01*
X25362463Y82031098D01*
X25126807Y81933486D01*
X24880426Y81867469D01*
X24627536Y81834175D01*
X24372464Y81834175D01*
X24119574Y81867469D01*
X23873193Y81933486D01*
X23637537Y82031098D01*
X23416638Y82158634D01*
X23214276Y82313912D01*
X23033912Y82494276D01*
X22878634Y82696638D01*
X22751098Y82917537D01*
X22653486Y83153193D01*
X22587469Y83399574D01*
X22554175Y83652464D01*
X22554175Y83907536D01*
X22587469Y84160426D01*
X22653486Y84406807D01*
X22751098Y84642463D01*
X22878634Y84863362D01*
X23033912Y85065724D01*
X23214276Y85246088D01*
X23416638Y85401366D01*
X23637537Y85528902D01*
X23873193Y85626514D01*
X24119574Y85692531D01*
X24372464Y85725825D01*
X24627536Y85725825D01*
X24880426Y85692531D01*
G37*
G36*
X95080426Y85692531D02*
G01*
X95326807Y85626514D01*
X95562463Y85528902D01*
X95783362Y85401366D01*
X95985724Y85246088D01*
X96166088Y85065724D01*
X96321366Y84863362D01*
X96448902Y84642463D01*
X96546514Y84406807D01*
X96612531Y84160426D01*
X96645825Y83907536D01*
X96645825Y83652464D01*
X96612531Y83399574D01*
X96546514Y83153193D01*
X96448902Y82917537D01*
X96321366Y82696638D01*
X96166088Y82494276D01*
X95985724Y82313912D01*
X95783362Y82158634D01*
X95562463Y82031098D01*
X95326807Y81933486D01*
X95080426Y81867469D01*
X94827536Y81834175D01*
X94572464Y81834175D01*
X94319574Y81867469D01*
X94073193Y81933486D01*
X93837537Y82031098D01*
X93616638Y82158634D01*
X93414276Y82313912D01*
X93233912Y82494276D01*
X93078634Y82696638D01*
X92951098Y82917537D01*
X92853486Y83153193D01*
X92787469Y83399574D01*
X92754175Y83652464D01*
X92754175Y83907536D01*
X92787469Y84160426D01*
X92853486Y84406807D01*
X92951098Y84642463D01*
X93078634Y84863362D01*
X93233912Y85065724D01*
X93414276Y85246088D01*
X93616638Y85401366D01*
X93837537Y85528902D01*
X94073193Y85626514D01*
X94319574Y85692531D01*
X94572464Y85725825D01*
X94827536Y85725825D01*
X95080426Y85692531D01*
G37*
M02*
