M48
; DRILL file KiCad 10.0.5-1.fc44app2 date 2026-08-31T16:04:33
; FORMAT={-:-/ absolute / metric / decimal}
; #@! TF.CreationDate,2026-08-31T16:04:33+01:00
; #@! TF.GenerationSoftware,Kicad,Pcbnew,10.0.5-1.fc44app2
; #@! TF.FileFunction,Plated,1,2,PTH
FMAT,2
METRIC
; #@! TA.AperFunction,Plated,PTH,ViaDrill
T1C0.300
; #@! TA.AperFunction,Plated,PTH,ComponentDrill
T2C1.000
; #@! TA.AperFunction,Plated,PTH,ComponentDrill
T3C2.200
%
G90
G05
T1
X6.87Y31.84
X7.11Y20.77
X7.27Y41.38
X8.81Y9.62
X8.89Y51.32
X11.07Y41.3
X11.07Y32.08
X11.8Y20.85
X11.8Y12.2
X13.01Y48.49
X14.79Y3.23
X17.37Y60.13
X17.62Y26.99
X18.34Y5.9
X18.99Y31.44
X21.42Y69.1
X21.42Y57.22
X25.3Y23.92
X27.32Y69.1
X28.61Y26.35
X29.58Y33.54
X30.23Y40.98
X31.1Y11.27
X31.36Y18.99
X32.73Y22.06
X33.92Y30.38
X34.67Y63.12
X34.67Y41.14
X34.75Y74.76
X34.91Y49.62
X35.32Y33.86
X37.65Y26.58
X37.77Y34.46
X38.55Y84.22
X38.95Y35.88
X39.6Y73.22
X39.68Y63.12
X39.68Y49.14
X40.09Y41.14
X40.3Y29.42
X42.35Y78.23
X42.99Y31.89
X43.41Y40.46
X45.7Y73.03
X46.26Y55.25
X46.4Y45.59
X46.42Y64.06
X48.83Y37.29
X49.16Y48.8
X49.42Y57.19
X49.74Y64.22
X49.88Y47.71
X50.14Y73.19
X51.18Y37.93
X51.26Y47.55
X52.53Y36.86
X53.88Y42.58
X54.43Y33.8
X54.43Y26.32
X54.53Y19.45
X54.58Y11.67
X54.75Y3.46
X55.19Y54.93
X56.54Y41.03
X58.2Y47.05
X58.6Y39.17
X59.3Y33.85
X59.35Y19.4
X59.45Y26.42
X59.45Y11.12
X61.76Y38.06
X63.32Y4.09
X64.47Y10.71
X64.52Y19.45
X64.57Y54.73
X64.72Y26.27
X65.17Y34.0
X65.27Y42.18
X65.88Y38.42
X67.03Y4.59
X67.08Y53.47
X69.39Y46.8
X69.59Y10.56
X70.04Y17.59
X70.39Y34.0
X71.85Y52.47
X71.9Y1.33
X72.1Y27.48
X72.13Y63.25
X72.2Y4.39
X72.85Y37.76
X73.5Y42.18
X74.79Y60.42
X75.06Y26.52
X76.21Y15.13
X76.31Y24.11
X76.82Y7.25
X77.22Y68.67
X77.54Y57.84
X80.03Y7.0
X80.13Y14.08
X80.21Y72.87
X80.29Y66.0
X80.63Y31.22
X81.43Y20.15
X83.2Y63.49
X83.69Y23.96
X85.95Y72.71
X89.09Y26.72
X89.14Y20.43
X90.96Y71.58
T2
X25.1Y8.67
X25.1Y6.13
X27.64Y8.67
X27.64Y6.13
X30.18Y8.67
X30.18Y6.13
X32.72Y8.67
X32.72Y6.13
X35.26Y8.67
X35.26Y6.13
X37.8Y8.67
X37.8Y6.13
X40.34Y8.67
X40.34Y6.13
X42.88Y8.67
X42.88Y6.13
X45.42Y8.67
X45.42Y6.13
X47.96Y8.67
X47.96Y6.13
X50.5Y8.67
X50.5Y6.13
X53.04Y8.67
X53.04Y6.13
X55.58Y8.67
X55.58Y6.13
X58.12Y8.67
X58.12Y6.13
X60.66Y8.67
X60.66Y6.13
X63.2Y8.67
X63.2Y6.13
X65.74Y8.67
X65.74Y6.13
X68.28Y8.67
X68.28Y6.13
X70.82Y8.67
X70.82Y6.13
X73.36Y8.67
X73.36Y6.13
T3
X4.3Y2.48
X24.5Y83.78
X94.6Y2.58
X94.7Y83.78
M30
