%TF.GenerationSoftware,KiCad,Pcbnew,10.0.5-1.fc44app2*%
%TF.CreationDate,2026-08-31T16:04:31+01:00*%
%TF.ProjectId,MO_v0.1_debug_board,4d4f5f76-302e-4315-9f64-656275675f62,rev?*%
%TF.SameCoordinates,PX81c6a80PY70ca830*%
%TF.FileFunction,Copper,L2,Bot*%
%TF.FilePolarity,Positive*%
%FSLAX46Y46*%
G04 Gerber Fmt 4.6, Leading zero omitted, Abs format (unit mm)*
G04 Created by KiCad (PCBNEW 10.0.5-1.fc44app2) date 2026-08-31 16:04:31*
%MOMM*%
%LPD*%
G01*
G04 APERTURE LIST*
%TA.AperFunction,SMDPad,CuDef*%
%ADD10C,1.000000*%
%TD*%
%TA.AperFunction,ComponentPad*%
%ADD11C,3.800000*%
%TD*%
%TA.AperFunction,ComponentPad*%
%ADD12R,1.700000X1.700000*%
%TD*%
%TA.AperFunction,ComponentPad*%
%ADD13C,1.700000*%
%TD*%
%TA.AperFunction,ViaPad*%
%ADD14C,0.600000*%
%TD*%
%TA.AperFunction,Conductor*%
%ADD15C,0.500000*%
%TD*%
%TA.AperFunction,Conductor*%
%ADD16C,0.300000*%
%TD*%
G04 APERTURE END LIST*
D10*
%TO.P,TP14,1,1_1*%
%TO.N,/Co processor/nSWDCLK*%
X95100000Y25130000D03*
%TD*%
%TO.P,TP8,1,1_1*%
%TO.N,/+3v3_LDO*%
X24820000Y72405000D03*
%TD*%
%TO.P,TP2,1,1_1*%
%TO.N,/GPIO/SD_nFLAG*%
X47575000Y75880000D03*
%TD*%
%TO.P,TP16,1,1_1*%
%TO.N,Net-(U7B-DCCH)*%
X90175000Y38055000D03*
%TD*%
%TO.P,TP15,1,1_1*%
%TO.N,/Co processor/U0_TX*%
X75250000Y48080000D03*
%TD*%
%TO.P,TP12,1,1_1*%
%TO.N,Net-(U7B-VBUS)*%
X71900000Y32080000D03*
%TD*%
%TO.P,TP5,1,1_1*%
%TO.N,Net-(U8-FAULT)*%
X15375000Y31705000D03*
%TD*%
%TO.P,TP10,1,1_1*%
%TO.N,Net-(U7B-VDD)*%
X77500000Y37055000D03*
%TD*%
D11*
%TO.P,H2,1,1_1*%
%TO.N,GND*%
X94600000Y2580000D03*
%TD*%
%TO.P,H1,1,1_1*%
%TO.N,GND*%
X4300000Y2480000D03*
%TD*%
D10*
%TO.P,TP1,1,1_1*%
%TO.N,Net-(U6-VOUT)*%
X83000000Y78180000D03*
%TD*%
D12*
%TO.P,J17,1,3V3_1*%
%TO.N,Net-(J17-3V3-Pad1)*%
X25100000Y8670000D03*
D13*
%TO.P,J17,2,5V_2*%
%TO.N,Net-(J17-5V-Pad2)*%
X25100000Y6130000D03*
%TO.P,J17,3,SDA_I2C1/GPIO02_3*%
%TO.N,unconnected-(J17-SDA_I2C1{slash}GPIO02-Pad3)*%
X27640000Y8670000D03*
%TO.P,J17,4,5V_4*%
%TO.N,Net-(J17-5V-Pad2)*%
X27640000Y6130000D03*
%TO.P,J17,5,SCL_I2C1/GPIO03_5*%
%TO.N,unconnected-(J17-SCL_I2C1{slash}GPIO03-Pad5)*%
X30180000Y8670000D03*
%TO.P,J17,6,GND_6*%
%TO.N,GND*%
X30180000Y6130000D03*
%TO.P,J17,7,GPCLK0/GPIO04_7*%
%TO.N,/FW_PWR_FAULT*%
X32720000Y8670000D03*
%TO.P,J17,8,GPIO14/UART_TXD_8*%
%TO.N,/U0_TX*%
X32720000Y6130000D03*
%TO.P,J17,9,GND_9*%
%TO.N,GND*%
X35260000Y8670000D03*
%TO.P,J17,10,GPIO15/UART_RXD_10*%
%TO.N,/U0_RX*%
X35260000Y6130000D03*
%TO.P,J17,11,GPIO17/SPI1_~{CE1}_11*%
%TO.N,/3v3_PI*%
X37800000Y8670000D03*
%TO.P,J17,12,GPIO18/SPI1_~{CE0}/PCM_CLK/PWM0_12*%
%TO.N,/3v3_LDO*%
X37800000Y6130000D03*
%TO.P,J17,13,GPIO27/SDIO_DAT3_13*%
%TO.N,/SD_PWR*%
X40340000Y8670000D03*
%TO.P,J17,14,GND_14*%
%TO.N,GND*%
X40340000Y6130000D03*
%TO.P,J17,15,GPIO22/SDIO_CLK_15*%
%TO.N,/SD_nFLAG*%
X42880000Y8670000D03*
%TO.P,J17,16,GPIO23/SDIO_CMD_16*%
%TO.N,unconnected-(J17-GPIO23{slash}SDIO_CMD-Pad16)*%
X42880000Y6130000D03*
%TO.P,J17,17,3V3_17*%
%TO.N,Net-(J17-3V3-Pad1)*%
X45420000Y8670000D03*
%TO.P,J17,18,GPIO24/SDIO_DAT0_18*%
%TO.N,unconnected-(J17-GPIO24{slash}SDIO_DAT0-Pad18)*%
X45420000Y6130000D03*
%TO.P,J17,19,MOSI_SPI0/GPIO10_19*%
%TO.N,/DAC_PWR*%
X47960000Y8670000D03*
%TO.P,J17,20,GND_20*%
%TO.N,GND*%
X47960000Y6130000D03*
%TO.P,J17,21,MISO_SPI0/GPIO09_21*%
%TO.N,/DAC_nFLAG*%
X50500000Y8670000D03*
%TO.P,J17,22,GPIO25/SDIO_DAT1_22*%
%TO.N,unconnected-(J17-GPIO25{slash}SDIO_DAT1-Pad22)*%
X50500000Y6130000D03*
%TO.P,J17,23,SCLK_SPI0/GPIO11_23*%
%TO.N,/nRF_RESET*%
X53040000Y8670000D03*
%TO.P,J17,24,~{CE0}_SPI0/GPIO08_24*%
%TO.N,unconnected-(J17-~{CE0}_SPI0{slash}GPIO08-Pad24)*%
X53040000Y6130000D03*
%TO.P,J17,25,GND_25*%
%TO.N,GND*%
X55580000Y8670000D03*
%TO.P,J17,26,~{CE1}_SPI0/GPIO07_26*%
%TO.N,unconnected-(J17-~{CE1}_SPI0{slash}GPIO07-Pad26)*%
X55580000Y6130000D03*
%TO.P,J17,27,ID_SD_I2C0/GPIO00_27*%
%TO.N,unconnected-(J17-ID_SD_I2C0{slash}GPIO00-Pad27)*%
X58120000Y8670000D03*
%TO.P,J17,28,ID_SC_I2C0/GPIO01_28*%
%TO.N,unconnected-(J17-ID_SC_I2C0{slash}GPIO01-Pad28)*%
X58120000Y6130000D03*
%TO.P,J17,29,GPCLK1/GPIO05_29*%
%TO.N,/nRF_PWR*%
X60660000Y8670000D03*
%TO.P,J17,30,GND_30*%
%TO.N,GND*%
X60660000Y6130000D03*
%TO.P,J17,31,GPCLK2/GPIO06_31*%
%TO.N,/nRF_VBUS*%
X63200000Y8670000D03*
%TO.P,J17,32,GPIO12/PWM0_32*%
%TO.N,/SWDCLK*%
X63200000Y6130000D03*
%TO.P,J17,33,GPIO13/PWM1_33*%
%TO.N,/nRF_DCCH*%
X65740000Y8670000D03*
%TO.P,J17,34,GND_34*%
%TO.N,GND*%
X65740000Y6130000D03*
%TO.P,J17,35,GPIO19/SPI1_MISO/PCM_FS_35*%
%TO.N,/SWDIO*%
X68280000Y8670000D03*
%TO.P,J17,36,GPIO16/SPI1_~{CE2}_36*%
%TO.N,unconnected-(J17-GPIO16{slash}SPI1_~{CE2}-Pad36)*%
X68280000Y6130000D03*
%TO.P,J17,37,GPIO26/SDIO_DAT2_37*%
%TO.N,unconnected-(J17-GPIO26{slash}SDIO_DAT2-Pad37)*%
X70820000Y8670000D03*
%TO.P,J17,38,GPIO20/SPI1_MOSI/PCM_DIN/PWM1_38*%
%TO.N,unconnected-(J17-GPIO20{slash}SPI1_MOSI{slash}PCM_DIN{slash}PWM1-Pad38)*%
X70820000Y6130000D03*
%TO.P,J17,39,GND_39*%
%TO.N,GND*%
X73360000Y8670000D03*
%TO.P,J17,40,GPIO21/SPI1_SCLK/PCM_DOUT_40*%
%TO.N,unconnected-(J17-GPIO21{slash}SPI1_SCLK{slash}PCM_DOUT-Pad40)*%
X73360000Y6130000D03*
%TD*%
D10*
%TO.P,TP4,1,1_1*%
%TO.N,/Co processor/nRESET*%
X77450000Y42030000D03*
%TD*%
%TO.P,TP7,1,1_1*%
%TO.N,/+3v3_PI*%
X32175000Y51305000D03*
%TD*%
%TO.P,TP11,1,1_1*%
%TO.N,/Co processor/U0_RX*%
X75200000Y50180000D03*
%TD*%
D11*
%TO.P,H4,1,1_1*%
%TO.N,GND*%
X24500000Y83780000D03*
%TD*%
D10*
%TO.P,TP9,1,1_1*%
%TO.N,GND*%
X1950000Y62820000D03*
%TD*%
D11*
%TO.P,H3,1,1_1*%
%TO.N,GND*%
X94700000Y83780000D03*
%TD*%
D10*
%TO.P,TP13,1,1_1*%
%TO.N,/Co processor/nSWDIO*%
X92800000Y25030000D03*
%TD*%
%TO.P,TP6,1,1_1*%
%TO.N,/GPIO/SD_PWR*%
X45300000Y82380000D03*
%TD*%
%TO.P,TP3,1,1_1*%
%TO.N,/GPIO/DAC_nFLAG*%
X89300000Y80420000D03*
%TD*%
D14*
%TO.N,/3v3_PI*%
X33920000Y30380000D03*
X37650000Y26580000D03*
%TO.N,GND*%
X83200000Y63490000D03*
X54750000Y3460000D03*
X45700000Y73030000D03*
X38550000Y84220000D03*
X72200000Y4390000D03*
X89090000Y26720000D03*
X34910000Y49620000D03*
X70390000Y34000000D03*
X59300000Y33850000D03*
X67080000Y53470000D03*
X31360000Y18990000D03*
X80210000Y72870000D03*
X58200000Y47050000D03*
X28610000Y26350000D03*
X39600000Y73220000D03*
X6870000Y31840000D03*
X59450000Y26420000D03*
X76210000Y15130000D03*
X64470000Y10710000D03*
X89140000Y20430000D03*
X11800000Y20850000D03*
X54580000Y11670000D03*
X67030000Y4590000D03*
X17620000Y26990000D03*
X27320000Y69100000D03*
X32730000Y22060000D03*
X76820000Y7250000D03*
X11070000Y32080000D03*
X8810000Y9620000D03*
X52530000Y36860000D03*
X73500000Y42180000D03*
X25300000Y23920000D03*
X64520000Y19450000D03*
X69590000Y10560000D03*
X8890000Y51320000D03*
X80030000Y7000000D03*
X61760000Y38060000D03*
X76310000Y24110000D03*
X21420000Y57220000D03*
X71850000Y52470000D03*
X7110000Y20770000D03*
X42350000Y78230000D03*
X11070000Y41300000D03*
X30230000Y40980000D03*
X70040000Y17590000D03*
X83690000Y23960000D03*
X77540000Y57840000D03*
X63320000Y4090000D03*
X74790000Y60420000D03*
X81430000Y20150000D03*
X59350000Y19400000D03*
X46420000Y64060000D03*
X39680000Y49140000D03*
X49160000Y48800000D03*
X40090000Y41140000D03*
X75060000Y26520000D03*
X50140000Y73190000D03*
X21420000Y69100000D03*
X18990000Y31440000D03*
X34670000Y63120000D03*
X34670000Y41140000D03*
X46260000Y55250000D03*
X49420000Y57190000D03*
X13010000Y48490000D03*
X72100000Y27480000D03*
X65880000Y38420000D03*
X85950000Y72710000D03*
X54530000Y19450000D03*
X77220000Y68670000D03*
X34750000Y74760000D03*
X46400000Y45590000D03*
X7270000Y41380000D03*
X59450000Y11120000D03*
X80290000Y66000000D03*
X90960000Y71580000D03*
X55190000Y54930000D03*
X65170000Y34000000D03*
X35320000Y33860000D03*
X14790000Y3230000D03*
X11800000Y12200000D03*
X17370000Y60130000D03*
X39680000Y63120000D03*
X58600000Y39170000D03*
X49740000Y64220000D03*
X71900000Y1330000D03*
X72130000Y63250000D03*
X38950000Y35880000D03*
X64720000Y26270000D03*
X65270000Y42180000D03*
X69390000Y46800000D03*
X80130000Y14080000D03*
X72850000Y37760000D03*
X31100000Y11270000D03*
X18340000Y5900000D03*
X29580000Y33540000D03*
X80630000Y31220000D03*
X53880000Y42580000D03*
X64570000Y54730000D03*
X54430000Y26320000D03*
X54430000Y33800000D03*
X56540000Y41030000D03*
%TO.N,/DAC_nFLAG*%
X51260000Y47550000D03*
X51180000Y37930000D03*
%TO.N,/SD_nFLAG*%
X42990000Y31890000D03*
X43410000Y40460000D03*
%TO.N,/DAC_PWR*%
X48830000Y37290000D03*
X49880000Y47710000D03*
%TO.N,/SD_PWR*%
X37770000Y34460000D03*
X40300000Y29420000D03*
%TD*%
%TO.N,/3v3_PI*%
D15*
X33920000Y30380000D02*
X37650000Y26650000D01*
X37650000Y26650000D02*
X37650000Y26580000D01*
%TO.N,/DAC_nFLAG*%
X51260000Y38010000D02*
X51180000Y37930000D01*
X51260000Y47550000D02*
X51260000Y38010000D01*
%TO.N,/SD_nFLAG*%
X43410000Y40460000D02*
X42990000Y40040000D01*
X42990000Y40040000D02*
X42990000Y31890000D01*
%TO.N,/DAC_PWR*%
X48830000Y46660000D02*
X48830000Y37290000D01*
X49880000Y47710000D02*
X48830000Y46660000D01*
%TO.N,/SD_PWR*%
X40300000Y31930000D02*
X37770000Y34460000D01*
X40300000Y29420000D02*
X40300000Y31930000D01*
%TO.N,Net-(J17-3V3-Pad1)*%
D16*
X25100000Y8670000D02*
X26340000Y7430000D01*
X44180000Y7430000D02*
X45420000Y8670000D01*
X26340000Y7430000D02*
X44180000Y7430000D01*
%TO.N,Net-(J17-5V-Pad2)*%
X27640000Y6130000D02*
X25100000Y6130000D01*
%TD*%
%TA.AperFunction,Conductor*%
%TO.N,GND*%
G36*
X97445788Y87460546D02*
G01*
X97526570Y87406570D01*
X97580546Y87325788D01*
X97599500Y87230500D01*
X97599500Y749500D01*
X97580546Y654212D01*
X97526570Y573430D01*
X97445788Y519454D01*
X97350500Y500500D01*
X749500Y500500D01*
X654212Y519454D01*
X573430Y573430D01*
X519454Y654212D01*
X500500Y749500D01*
X500500Y9567877D01*
X23749500Y9567877D01*
X23749500Y7772135D01*
X23749501Y7772131D01*
X23755908Y7712520D01*
X23755909Y7712516D01*
X23797336Y7601445D01*
X23806204Y7577669D01*
X23892454Y7462454D01*
X24007669Y7376204D01*
X24007670Y7376204D01*
X24021927Y7365531D01*
X24019572Y7362386D01*
X24068869Y7321175D01*
X24113889Y7235081D01*
X24122536Y7138311D01*
X24093492Y7045599D01*
X24074739Y7018367D01*
X24075647Y7017707D01*
X24069897Y7009794D01*
X24069896Y7009792D01*
X24010067Y6927445D01*
X23944950Y6837818D01*
X23848441Y6648408D01*
X23782753Y6446241D01*
X23749500Y6236297D01*
X23749500Y6023704D01*
X23782753Y5813760D01*
X23842460Y5630000D01*
X23848443Y5611588D01*
X23944949Y5422184D01*
X24069896Y5250208D01*
X24220208Y5099896D01*
X24392184Y4974949D01*
X24581588Y4878443D01*
X24783757Y4812754D01*
X24857601Y4801059D01*
X24993703Y4779501D01*
X24993710Y4779501D01*
X24993713Y4779500D01*
X24993716Y4779500D01*
X25206284Y4779500D01*
X25206287Y4779500D01*
X25206290Y4779501D01*
X25206296Y4779501D01*
X25305476Y4795211D01*
X25416243Y4812754D01*
X25618412Y4878443D01*
X25807816Y4974949D01*
X25979792Y5099896D01*
X26130104Y5250208D01*
X26168555Y5303133D01*
X26239897Y5369080D01*
X26331047Y5402707D01*
X26428127Y5398893D01*
X26516358Y5358219D01*
X26571444Y5303133D01*
X26609896Y5250208D01*
X26760208Y5099896D01*
X26932184Y4974949D01*
X27121588Y4878443D01*
X27323757Y4812754D01*
X27397601Y4801059D01*
X27533703Y4779501D01*
X27533710Y4779501D01*
X27533713Y4779500D01*
X27533716Y4779500D01*
X27746284Y4779500D01*
X27746287Y4779500D01*
X27746290Y4779501D01*
X27746296Y4779501D01*
X27845476Y4795211D01*
X27956243Y4812754D01*
X28158412Y4878443D01*
X28176392Y4887604D01*
X29644710Y4887604D01*
X29661781Y4878906D01*
X29661780Y4878906D01*
X29863876Y4813242D01*
X30073743Y4780001D01*
X30073756Y4780000D01*
X30286244Y4780000D01*
X30286256Y4780001D01*
X30496123Y4813242D01*
X30698219Y4878906D01*
X30715289Y4887605D01*
X30180000Y5422894D01*
X29644710Y4887604D01*
X28176392Y4887604D01*
X28347816Y4974949D01*
X28519792Y5099896D01*
X28670104Y5250208D01*
X28795051Y5422184D01*
X28819366Y5469906D01*
X28834454Y5489082D01*
X28843874Y5497144D01*
X28854077Y5511186D01*
X29650377Y6307484D01*
X29731158Y6361460D01*
X29736948Y6362612D01*
X29714075Y6322993D01*
X29680000Y6195826D01*
X29680000Y6064174D01*
X29714075Y5937007D01*
X29779901Y5822993D01*
X29872993Y5729901D01*
X29987007Y5664075D01*
X30114174Y5630000D01*
X30245826Y5630000D01*
X30372993Y5664075D01*
X30487007Y5729901D01*
X30580099Y5822993D01*
X30645925Y5937007D01*
X30680000Y6064174D01*
X30680000Y6195826D01*
X30645925Y6322993D01*
X30623051Y6362612D01*
X30628841Y6361460D01*
X30709622Y6307484D01*
X31505924Y5511183D01*
X31551715Y5448157D01*
X31564949Y5422184D01*
X31689896Y5250208D01*
X31840208Y5099896D01*
X32012184Y4974949D01*
X32201588Y4878443D01*
X32403757Y4812754D01*
X32477601Y4801059D01*
X32613703Y4779501D01*
X32613710Y4779501D01*
X32613713Y4779500D01*
X32613716Y4779500D01*
X32826284Y4779500D01*
X32826287Y4779500D01*
X32826290Y4779501D01*
X32826296Y4779501D01*
X32925476Y4795211D01*
X33036243Y4812754D01*
X33238412Y4878443D01*
X33427816Y4974949D01*
X33599792Y5099896D01*
X33750104Y5250208D01*
X33788555Y5303133D01*
X33859897Y5369080D01*
X33951047Y5402707D01*
X34048127Y5398893D01*
X34136358Y5358219D01*
X34191444Y5303133D01*
X34229896Y5250208D01*
X34380208Y5099896D01*
X34552184Y4974949D01*
X34741588Y4878443D01*
X34943757Y4812754D01*
X35017601Y4801059D01*
X35153703Y4779501D01*
X35153710Y4779501D01*
X35153713Y4779500D01*
X35153716Y4779500D01*
X35366284Y4779500D01*
X35366287Y4779500D01*
X35366290Y4779501D01*
X35366296Y4779501D01*
X35465476Y4795211D01*
X35576243Y4812754D01*
X35778412Y4878443D01*
X35967816Y4974949D01*
X36139792Y5099896D01*
X36290104Y5250208D01*
X36328555Y5303133D01*
X36399897Y5369080D01*
X36491047Y5402707D01*
X36588127Y5398893D01*
X36676358Y5358219D01*
X36731444Y5303133D01*
X36769896Y5250208D01*
X36920208Y5099896D01*
X37092184Y4974949D01*
X37281588Y4878443D01*
X37483757Y4812754D01*
X37557601Y4801059D01*
X37693703Y4779501D01*
X37693710Y4779501D01*
X37693713Y4779500D01*
X37693716Y4779500D01*
X37906284Y4779500D01*
X37906287Y4779500D01*
X37906290Y4779501D01*
X37906296Y4779501D01*
X38005476Y4795211D01*
X38116243Y4812754D01*
X38318412Y4878443D01*
X38336392Y4887604D01*
X39804710Y4887604D01*
X39821781Y4878906D01*
X39821780Y4878906D01*
X40023876Y4813242D01*
X40233743Y4780001D01*
X40233756Y4780000D01*
X40446244Y4780000D01*
X40446256Y4780001D01*
X40656123Y4813242D01*
X40858219Y4878906D01*
X40875289Y4887605D01*
X40340000Y5422894D01*
X39804710Y4887604D01*
X38336392Y4887604D01*
X38507816Y4974949D01*
X38679792Y5099896D01*
X38830104Y5250208D01*
X38955051Y5422184D01*
X38979366Y5469906D01*
X38994454Y5489082D01*
X39003874Y5497144D01*
X39014077Y5511186D01*
X39810377Y6307484D01*
X39891158Y6361460D01*
X39896948Y6362612D01*
X39874075Y6322993D01*
X39840000Y6195826D01*
X39840000Y6064174D01*
X39874075Y5937007D01*
X39939901Y5822993D01*
X40032993Y5729901D01*
X40147007Y5664075D01*
X40274174Y5630000D01*
X40405826Y5630000D01*
X40532993Y5664075D01*
X40647007Y5729901D01*
X40740099Y5822993D01*
X40805925Y5937007D01*
X40840000Y6064174D01*
X40840000Y6195826D01*
X40805925Y6322993D01*
X40783051Y6362612D01*
X40788841Y6361460D01*
X40869622Y6307484D01*
X41665924Y5511183D01*
X41711715Y5448157D01*
X41724949Y5422184D01*
X41849896Y5250208D01*
X42000208Y5099896D01*
X42172184Y4974949D01*
X42361588Y4878443D01*
X42563757Y4812754D01*
X42637601Y4801059D01*
X42773703Y4779501D01*
X42773710Y4779501D01*
X42773713Y4779500D01*
X42773716Y4779500D01*
X42986284Y4779500D01*
X42986287Y4779500D01*
X42986290Y4779501D01*
X42986296Y4779501D01*
X43085476Y4795211D01*
X43196243Y4812754D01*
X43398412Y4878443D01*
X43587816Y4974949D01*
X43759792Y5099896D01*
X43910104Y5250208D01*
X43948555Y5303133D01*
X44019897Y5369080D01*
X44111047Y5402707D01*
X44208127Y5398893D01*
X44296358Y5358219D01*
X44351444Y5303133D01*
X44389896Y5250208D01*
X44540208Y5099896D01*
X44712184Y4974949D01*
X44901588Y4878443D01*
X45103757Y4812754D01*
X45177601Y4801059D01*
X45313703Y4779501D01*
X45313710Y4779501D01*
X45313713Y4779500D01*
X45313716Y4779500D01*
X45526284Y4779500D01*
X45526287Y4779500D01*
X45526290Y4779501D01*
X45526296Y4779501D01*
X45625476Y4795211D01*
X45736243Y4812754D01*
X45938412Y4878443D01*
X45956392Y4887604D01*
X47424710Y4887604D01*
X47441781Y4878906D01*
X47441780Y4878906D01*
X47643876Y4813242D01*
X47853743Y4780001D01*
X47853756Y4780000D01*
X48066244Y4780000D01*
X48066256Y4780001D01*
X48276123Y4813242D01*
X48478219Y4878906D01*
X48495289Y4887605D01*
X47960000Y5422894D01*
X47424710Y4887604D01*
X45956392Y4887604D01*
X46127816Y4974949D01*
X46299792Y5099896D01*
X46450104Y5250208D01*
X46575051Y5422184D01*
X46599366Y5469906D01*
X46614454Y5489082D01*
X46623874Y5497144D01*
X46634077Y5511186D01*
X47252892Y6130000D01*
X47187066Y6195826D01*
X47460000Y6195826D01*
X47460000Y6064174D01*
X47494075Y5937007D01*
X47559901Y5822993D01*
X47652993Y5729901D01*
X47767007Y5664075D01*
X47894174Y5630000D01*
X48025826Y5630000D01*
X48152993Y5664075D01*
X48267007Y5729901D01*
X48360099Y5822993D01*
X48425925Y5937007D01*
X48460000Y6064174D01*
X48460000Y6195826D01*
X48425925Y6322993D01*
X48360099Y6437007D01*
X48267007Y6530099D01*
X48152993Y6595925D01*
X48025826Y6630000D01*
X47894174Y6630000D01*
X47767007Y6595925D01*
X47652993Y6530099D01*
X47559901Y6437007D01*
X47494075Y6322993D01*
X47460000Y6195826D01*
X47187066Y6195826D01*
X46634074Y6748818D01*
X46588286Y6811840D01*
X46575051Y6837816D01*
X46450104Y7009792D01*
X46299792Y7160104D01*
X46246867Y7198556D01*
X46180920Y7269897D01*
X46147293Y7361047D01*
X46151107Y7458127D01*
X46191781Y7546358D01*
X46246867Y7601445D01*
X46299792Y7639896D01*
X46450104Y7790208D01*
X46488555Y7843133D01*
X46559897Y7909080D01*
X46651047Y7942707D01*
X46748127Y7938893D01*
X46836358Y7898219D01*
X46891444Y7843133D01*
X46929896Y7790208D01*
X47080208Y7639896D01*
X47252184Y7514949D01*
X47278160Y7501714D01*
X47341182Y7455926D01*
X47960000Y6837108D01*
X48578814Y7455923D01*
X48641838Y7501714D01*
X48667816Y7514949D01*
X48839792Y7639896D01*
X48990104Y7790208D01*
X49028555Y7843133D01*
X49099897Y7909080D01*
X49191047Y7942707D01*
X49288127Y7938893D01*
X49376358Y7898219D01*
X49431444Y7843133D01*
X49469896Y7790208D01*
X49469897Y7790207D01*
X49620207Y7639897D01*
X49673131Y7601445D01*
X49739080Y7530101D01*
X49772707Y7438951D01*
X49768892Y7341871D01*
X49728217Y7253641D01*
X49673131Y7198555D01*
X49620207Y7160104D01*
X49469897Y7009794D01*
X49344948Y6837816D01*
X49331715Y6811843D01*
X49285926Y6748821D01*
X48667106Y6130001D01*
X49285924Y5511183D01*
X49331715Y5448157D01*
X49344949Y5422184D01*
X49469896Y5250208D01*
X49620208Y5099896D01*
X49792184Y4974949D01*
X49981588Y4878443D01*
X50183757Y4812754D01*
X50257601Y4801059D01*
X50393703Y4779501D01*
X50393710Y4779501D01*
X50393713Y4779500D01*
X50393716Y4779500D01*
X50606284Y4779500D01*
X50606287Y4779500D01*
X50606290Y4779501D01*
X50606296Y4779501D01*
X50705476Y4795211D01*
X50816243Y4812754D01*
X51018412Y4878443D01*
X51207816Y4974949D01*
X51379792Y5099896D01*
X51530104Y5250208D01*
X51568555Y5303133D01*
X51639897Y5369080D01*
X51731047Y5402707D01*
X51828127Y5398893D01*
X51916358Y5358219D01*
X51971444Y5303133D01*
X52009896Y5250208D01*
X52160208Y5099896D01*
X52332184Y4974949D01*
X52521588Y4878443D01*
X52723757Y4812754D01*
X52797601Y4801059D01*
X52933703Y4779501D01*
X52933710Y4779501D01*
X52933713Y4779500D01*
X52933716Y4779500D01*
X53146284Y4779500D01*
X53146287Y4779500D01*
X53146290Y4779501D01*
X53146296Y4779501D01*
X53245476Y4795211D01*
X53356243Y4812754D01*
X53558412Y4878443D01*
X53747816Y4974949D01*
X53919792Y5099896D01*
X54070104Y5250208D01*
X54108555Y5303133D01*
X54179897Y5369080D01*
X54271047Y5402707D01*
X54368127Y5398893D01*
X54456358Y5358219D01*
X54511444Y5303133D01*
X54549896Y5250208D01*
X54700208Y5099896D01*
X54872184Y4974949D01*
X55061588Y4878443D01*
X55263757Y4812754D01*
X55337601Y4801059D01*
X55473703Y4779501D01*
X55473710Y4779501D01*
X55473713Y4779500D01*
X55473716Y4779500D01*
X55686284Y4779500D01*
X55686287Y4779500D01*
X55686290Y4779501D01*
X55686296Y4779501D01*
X55785476Y4795211D01*
X55896243Y4812754D01*
X56098412Y4878443D01*
X56287816Y4974949D01*
X56459792Y5099896D01*
X56610104Y5250208D01*
X56648555Y5303133D01*
X56719897Y5369080D01*
X56811047Y5402707D01*
X56908127Y5398893D01*
X56996358Y5358219D01*
X57051444Y5303133D01*
X57089896Y5250208D01*
X57240208Y5099896D01*
X57412184Y4974949D01*
X57601588Y4878443D01*
X57803757Y4812754D01*
X57877601Y4801059D01*
X58013703Y4779501D01*
X58013710Y4779501D01*
X58013713Y4779500D01*
X58013716Y4779500D01*
X58226284Y4779500D01*
X58226287Y4779500D01*
X58226290Y4779501D01*
X58226296Y4779501D01*
X58325476Y4795211D01*
X58436243Y4812754D01*
X58638412Y4878443D01*
X58656392Y4887604D01*
X60124710Y4887604D01*
X60141781Y4878906D01*
X60141780Y4878906D01*
X60343876Y4813242D01*
X60553743Y4780001D01*
X60553756Y4780000D01*
X60766244Y4780000D01*
X60766256Y4780001D01*
X60976123Y4813242D01*
X61178219Y4878906D01*
X61195289Y4887605D01*
X60660000Y5422894D01*
X60124710Y4887604D01*
X58656392Y4887604D01*
X58827816Y4974949D01*
X58999792Y5099896D01*
X59150104Y5250208D01*
X59275051Y5422184D01*
X59299366Y5469906D01*
X59314454Y5489082D01*
X59323874Y5497144D01*
X59334077Y5511186D01*
X59952892Y6130000D01*
X59887066Y6195826D01*
X60160000Y6195826D01*
X60160000Y6064174D01*
X60194075Y5937007D01*
X60259901Y5822993D01*
X60352993Y5729901D01*
X60467007Y5664075D01*
X60594174Y5630000D01*
X60725826Y5630000D01*
X60852993Y5664075D01*
X60967007Y5729901D01*
X61060099Y5822993D01*
X61125925Y5937007D01*
X61160000Y6064174D01*
X61160000Y6195826D01*
X61125925Y6322993D01*
X61060099Y6437007D01*
X60967007Y6530099D01*
X60852993Y6595925D01*
X60725826Y6630000D01*
X60594174Y6630000D01*
X60467007Y6595925D01*
X60352993Y6530099D01*
X60259901Y6437007D01*
X60194075Y6322993D01*
X60160000Y6195826D01*
X59887066Y6195826D01*
X59334074Y6748818D01*
X59288286Y6811840D01*
X59275051Y6837816D01*
X59150104Y7009792D01*
X58999792Y7160104D01*
X58946867Y7198556D01*
X58880920Y7269897D01*
X58847293Y7361047D01*
X58851107Y7458127D01*
X58891781Y7546358D01*
X58946867Y7601445D01*
X58999792Y7639896D01*
X59150104Y7790208D01*
X59188555Y7843133D01*
X59259897Y7909080D01*
X59351047Y7942707D01*
X59448127Y7938893D01*
X59536358Y7898219D01*
X59591444Y7843133D01*
X59629896Y7790208D01*
X59780208Y7639896D01*
X59952184Y7514949D01*
X59978160Y7501714D01*
X60041182Y7455926D01*
X60660000Y6837108D01*
X61278814Y7455923D01*
X61341838Y7501714D01*
X61367816Y7514949D01*
X61539792Y7639896D01*
X61690104Y7790208D01*
X61728555Y7843133D01*
X61799897Y7909080D01*
X61891047Y7942707D01*
X61988127Y7938893D01*
X62076358Y7898219D01*
X62131444Y7843133D01*
X62169896Y7790208D01*
X62169897Y7790207D01*
X62320207Y7639897D01*
X62373131Y7601445D01*
X62439080Y7530101D01*
X62472707Y7438951D01*
X62468892Y7341871D01*
X62428217Y7253641D01*
X62373131Y7198555D01*
X62320207Y7160104D01*
X62169897Y7009794D01*
X62044948Y6837816D01*
X62031715Y6811843D01*
X61985926Y6748821D01*
X61367106Y6130001D01*
X61985924Y5511183D01*
X62031715Y5448157D01*
X62044949Y5422184D01*
X62169896Y5250208D01*
X62320208Y5099896D01*
X62492184Y4974949D01*
X62681588Y4878443D01*
X62883757Y4812754D01*
X62957601Y4801059D01*
X63093703Y4779501D01*
X63093710Y4779501D01*
X63093713Y4779500D01*
X63093716Y4779500D01*
X63306284Y4779500D01*
X63306287Y4779500D01*
X63306290Y4779501D01*
X63306296Y4779501D01*
X63405476Y4795211D01*
X63516243Y4812754D01*
X63718412Y4878443D01*
X63736392Y4887604D01*
X65204710Y4887604D01*
X65221781Y4878906D01*
X65221780Y4878906D01*
X65423876Y4813242D01*
X65633743Y4780001D01*
X65633756Y4780000D01*
X65846244Y4780000D01*
X65846256Y4780001D01*
X66056123Y4813242D01*
X66258219Y4878906D01*
X66275289Y4887605D01*
X65740000Y5422894D01*
X65204710Y4887604D01*
X63736392Y4887604D01*
X63907816Y4974949D01*
X64079792Y5099896D01*
X64230104Y5250208D01*
X64355051Y5422184D01*
X64379366Y5469906D01*
X64394454Y5489082D01*
X64403874Y5497144D01*
X64414077Y5511186D01*
X65032892Y6130000D01*
X64967066Y6195826D01*
X65240000Y6195826D01*
X65240000Y6064174D01*
X65274075Y5937007D01*
X65339901Y5822993D01*
X65432993Y5729901D01*
X65547007Y5664075D01*
X65674174Y5630000D01*
X65805826Y5630000D01*
X65932993Y5664075D01*
X66047007Y5729901D01*
X66140099Y5822993D01*
X66205925Y5937007D01*
X66240000Y6064174D01*
X66240000Y6195826D01*
X66205925Y6322993D01*
X66140099Y6437007D01*
X66047007Y6530099D01*
X65932993Y6595925D01*
X65805826Y6630000D01*
X65674174Y6630000D01*
X65547007Y6595925D01*
X65432993Y6530099D01*
X65339901Y6437007D01*
X65274075Y6322993D01*
X65240000Y6195826D01*
X64967066Y6195826D01*
X64414074Y6748818D01*
X64368286Y6811840D01*
X64355051Y6837816D01*
X64230104Y7009792D01*
X64079792Y7160104D01*
X64026867Y7198556D01*
X63960920Y7269897D01*
X63927293Y7361047D01*
X63931107Y7458127D01*
X63971781Y7546358D01*
X64026867Y7601445D01*
X64079792Y7639896D01*
X64230104Y7790208D01*
X64268555Y7843133D01*
X64339897Y7909080D01*
X64431047Y7942707D01*
X64528127Y7938893D01*
X64616358Y7898219D01*
X64671444Y7843133D01*
X64709896Y7790208D01*
X64860208Y7639896D01*
X65032184Y7514949D01*
X65058160Y7501714D01*
X65121182Y7455926D01*
X65740000Y6837108D01*
X66358814Y7455923D01*
X66421838Y7501714D01*
X66447816Y7514949D01*
X66619792Y7639896D01*
X66770104Y7790208D01*
X66808555Y7843133D01*
X66879897Y7909080D01*
X66971047Y7942707D01*
X67068127Y7938893D01*
X67156358Y7898219D01*
X67211444Y7843133D01*
X67249896Y7790208D01*
X67249897Y7790207D01*
X67400207Y7639897D01*
X67453131Y7601445D01*
X67519080Y7530101D01*
X67552707Y7438951D01*
X67548892Y7341871D01*
X67508217Y7253641D01*
X67453131Y7198555D01*
X67400207Y7160104D01*
X67249897Y7009794D01*
X67124948Y6837816D01*
X67111715Y6811843D01*
X67065926Y6748821D01*
X66447106Y6130001D01*
X67065924Y5511183D01*
X67111715Y5448157D01*
X67124949Y5422184D01*
X67249896Y5250208D01*
X67400208Y5099896D01*
X67572184Y4974949D01*
X67761588Y4878443D01*
X67963757Y4812754D01*
X68037601Y4801059D01*
X68173703Y4779501D01*
X68173710Y4779501D01*
X68173713Y4779500D01*
X68173716Y4779500D01*
X68386284Y4779500D01*
X68386287Y4779500D01*
X68386290Y4779501D01*
X68386296Y4779501D01*
X68485476Y4795211D01*
X68596243Y4812754D01*
X68798412Y4878443D01*
X68987816Y4974949D01*
X69159792Y5099896D01*
X69310104Y5250208D01*
X69348555Y5303133D01*
X69419897Y5369080D01*
X69511047Y5402707D01*
X69608127Y5398893D01*
X69696358Y5358219D01*
X69751444Y5303133D01*
X69789896Y5250208D01*
X69940208Y5099896D01*
X70112184Y4974949D01*
X70301588Y4878443D01*
X70503757Y4812754D01*
X70577601Y4801059D01*
X70713703Y4779501D01*
X70713710Y4779501D01*
X70713713Y4779500D01*
X70713716Y4779500D01*
X70926284Y4779500D01*
X70926287Y4779500D01*
X70926290Y4779501D01*
X70926296Y4779501D01*
X71025476Y4795211D01*
X71136243Y4812754D01*
X71338412Y4878443D01*
X71527816Y4974949D01*
X71699792Y5099896D01*
X71850104Y5250208D01*
X71888555Y5303133D01*
X71959897Y5369080D01*
X72051047Y5402707D01*
X72148127Y5398893D01*
X72236358Y5358219D01*
X72291444Y5303133D01*
X72329896Y5250208D01*
X72480208Y5099896D01*
X72652184Y4974949D01*
X72841588Y4878443D01*
X73043757Y4812754D01*
X73117601Y4801059D01*
X73253703Y4779501D01*
X73253710Y4779501D01*
X73253713Y4779500D01*
X73253716Y4779500D01*
X73466284Y4779500D01*
X73466287Y4779500D01*
X73466290Y4779501D01*
X73466296Y4779501D01*
X73565476Y4795211D01*
X73676243Y4812754D01*
X73878412Y4878443D01*
X74067816Y4974949D01*
X74239792Y5099896D01*
X74390104Y5250208D01*
X74515051Y5422184D01*
X74611557Y5611588D01*
X74677246Y5813757D01*
X74710500Y6023713D01*
X74710500Y6236287D01*
X74710499Y6236290D01*
X74710499Y6236297D01*
X74677246Y6446241D01*
X74677246Y6446243D01*
X74611557Y6648412D01*
X74515051Y6837816D01*
X74390104Y7009792D01*
X74239792Y7160104D01*
X74067816Y7285051D01*
X74067815Y7285052D01*
X74067813Y7285053D01*
X74041843Y7298285D01*
X73978817Y7344076D01*
X73360000Y7962894D01*
X72741179Y7344074D01*
X72678157Y7298285D01*
X72652184Y7285052D01*
X72480206Y7160103D01*
X72329896Y7009793D01*
X72291445Y6956869D01*
X72220101Y6890920D01*
X72128951Y6857293D01*
X72031871Y6861108D01*
X71943641Y6901783D01*
X71888555Y6956869D01*
X71850103Y7009793D01*
X71699793Y7160103D01*
X71699792Y7160104D01*
X71646867Y7198556D01*
X71580920Y7269897D01*
X71547293Y7361047D01*
X71551107Y7458127D01*
X71591781Y7546358D01*
X71646867Y7601445D01*
X71699792Y7639896D01*
X71850104Y7790208D01*
X71975051Y7962184D01*
X71988286Y7988162D01*
X72034077Y8051186D01*
X72652892Y8670000D01*
X72587066Y8735826D01*
X72860000Y8735826D01*
X72860000Y8604174D01*
X72894075Y8477007D01*
X72959901Y8362993D01*
X73052993Y8269901D01*
X73167007Y8204075D01*
X73294174Y8170000D01*
X73425826Y8170000D01*
X73552993Y8204075D01*
X73667007Y8269901D01*
X73760099Y8362993D01*
X73825925Y8477007D01*
X73860000Y8604174D01*
X73860000Y8670000D01*
X74067106Y8670000D01*
X74602395Y8134711D01*
X74611094Y8151781D01*
X74676758Y8353877D01*
X74709999Y8563744D01*
X74710000Y8563756D01*
X74710000Y8776245D01*
X74709999Y8776257D01*
X74676758Y8986124D01*
X74611094Y9188220D01*
X74602396Y9205290D01*
X74067106Y8670000D01*
X73860000Y8670000D01*
X73860000Y8735826D01*
X73825925Y8862993D01*
X73760099Y8977007D01*
X73667007Y9070099D01*
X73552993Y9135925D01*
X73425826Y9170000D01*
X73294174Y9170000D01*
X73167007Y9135925D01*
X73052993Y9070099D01*
X72959901Y8977007D01*
X72894075Y8862993D01*
X72860000Y8735826D01*
X72587066Y8735826D01*
X72034074Y9288818D01*
X72014452Y9310921D01*
X71999365Y9330096D01*
X71975051Y9377816D01*
X71850104Y9549792D01*
X71699792Y9700104D01*
X71527816Y9825051D01*
X71356388Y9912398D01*
X72824710Y9912398D01*
X73360000Y9377108D01*
X73895288Y9912397D01*
X73878214Y9921096D01*
X73676123Y9986759D01*
X73466256Y10020000D01*
X73253743Y10020000D01*
X73043874Y9986759D01*
X73043873Y9986759D01*
X72841793Y9921100D01*
X72841779Y9921094D01*
X72824710Y9912398D01*
X71356388Y9912398D01*
X71338412Y9921557D01*
X71338409Y9921558D01*
X71338407Y9921559D01*
X71136240Y9987247D01*
X70926296Y10020500D01*
X70926287Y10020500D01*
X70713713Y10020500D01*
X70713703Y10020500D01*
X70503759Y9987247D01*
X70301592Y9921559D01*
X70301588Y9921558D01*
X70301588Y9921557D01*
X70215213Y9877547D01*
X70112182Y9825050D01*
X69940206Y9700103D01*
X69789896Y9549793D01*
X69751445Y9496869D01*
X69680101Y9430920D01*
X69588951Y9397293D01*
X69491871Y9401108D01*
X69403641Y9441783D01*
X69348555Y9496869D01*
X69310103Y9549793D01*
X69159793Y9700103D01*
X69093768Y9748073D01*
X68987816Y9825051D01*
X68798412Y9921557D01*
X68798409Y9921558D01*
X68798407Y9921559D01*
X68596240Y9987247D01*
X68386296Y10020500D01*
X68386287Y10020500D01*
X68173713Y10020500D01*
X68173703Y10020500D01*
X67963759Y9987247D01*
X67761592Y9921559D01*
X67761588Y9921558D01*
X67761588Y9921557D01*
X67675213Y9877547D01*
X67572182Y9825050D01*
X67400206Y9700103D01*
X67249896Y9549793D01*
X67211445Y9496869D01*
X67140101Y9430920D01*
X67048951Y9397293D01*
X66951871Y9401108D01*
X66863641Y9441783D01*
X66808555Y9496869D01*
X66770103Y9549793D01*
X66619793Y9700103D01*
X66553768Y9748073D01*
X66447816Y9825051D01*
X66258412Y9921557D01*
X66258409Y9921558D01*
X66258407Y9921559D01*
X66056240Y9987247D01*
X65846296Y10020500D01*
X65846287Y10020500D01*
X65633713Y10020500D01*
X65633703Y10020500D01*
X65423759Y9987247D01*
X65221592Y9921559D01*
X65221588Y9921558D01*
X65221588Y9921557D01*
X65135213Y9877547D01*
X65032182Y9825050D01*
X64860206Y9700103D01*
X64709896Y9549793D01*
X64671445Y9496869D01*
X64600101Y9430920D01*
X64508951Y9397293D01*
X64411871Y9401108D01*
X64323641Y9441783D01*
X64268555Y9496869D01*
X64230103Y9549793D01*
X64079793Y9700103D01*
X64013768Y9748073D01*
X63907816Y9825051D01*
X63718412Y9921557D01*
X63718409Y9921558D01*
X63718407Y9921559D01*
X63516240Y9987247D01*
X63306296Y10020500D01*
X63306287Y10020500D01*
X63093713Y10020500D01*
X63093703Y10020500D01*
X62883759Y9987247D01*
X62681592Y9921559D01*
X62681588Y9921558D01*
X62681588Y9921557D01*
X62595213Y9877547D01*
X62492182Y9825050D01*
X62320206Y9700103D01*
X62169896Y9549793D01*
X62131445Y9496869D01*
X62060101Y9430920D01*
X61968951Y9397293D01*
X61871871Y9401108D01*
X61783641Y9441783D01*
X61728555Y9496869D01*
X61690103Y9549793D01*
X61539793Y9700103D01*
X61473768Y9748073D01*
X61367816Y9825051D01*
X61178412Y9921557D01*
X61178409Y9921558D01*
X61178407Y9921559D01*
X60976240Y9987247D01*
X60766296Y10020500D01*
X60766287Y10020500D01*
X60553713Y10020500D01*
X60553703Y10020500D01*
X60343759Y9987247D01*
X60141592Y9921559D01*
X60141588Y9921558D01*
X60141588Y9921557D01*
X60055213Y9877547D01*
X59952182Y9825050D01*
X59780206Y9700103D01*
X59629896Y9549793D01*
X59591445Y9496869D01*
X59520101Y9430920D01*
X59428951Y9397293D01*
X59331871Y9401108D01*
X59243641Y9441783D01*
X59188555Y9496869D01*
X59150103Y9549793D01*
X58999793Y9700103D01*
X58933768Y9748073D01*
X58827816Y9825051D01*
X58638412Y9921557D01*
X58638409Y9921558D01*
X58638407Y9921559D01*
X58436240Y9987247D01*
X58226296Y10020500D01*
X58226287Y10020500D01*
X58013713Y10020500D01*
X58013703Y10020500D01*
X57803759Y9987247D01*
X57601592Y9921559D01*
X57601588Y9921558D01*
X57601588Y9921557D01*
X57515213Y9877547D01*
X57412182Y9825050D01*
X57240206Y9700103D01*
X57089897Y9549794D01*
X56964948Y9377816D01*
X56951715Y9351843D01*
X56905926Y9288821D01*
X56287106Y8670001D01*
X56905924Y8051183D01*
X56951715Y7988157D01*
X56964949Y7962184D01*
X57051445Y7843131D01*
X57089897Y7790207D01*
X57240207Y7639897D01*
X57293131Y7601445D01*
X57359080Y7530101D01*
X57392707Y7438951D01*
X57388892Y7341871D01*
X57348217Y7253641D01*
X57293131Y7198555D01*
X57240207Y7160104D01*
X57089896Y7009793D01*
X57051445Y6956869D01*
X56980101Y6890920D01*
X56888951Y6857293D01*
X56791871Y6861108D01*
X56703641Y6901783D01*
X56648555Y6956869D01*
X56610103Y7009793D01*
X56459793Y7160103D01*
X56406869Y7198554D01*
X56287816Y7285051D01*
X56287815Y7285052D01*
X56287813Y7285053D01*
X56261843Y7298285D01*
X56198817Y7344076D01*
X55580000Y7962894D01*
X54961179Y7344074D01*
X54898157Y7298285D01*
X54872184Y7285052D01*
X54700206Y7160103D01*
X54549896Y7009793D01*
X54511445Y6956869D01*
X54440101Y6890920D01*
X54348951Y6857293D01*
X54251871Y6861108D01*
X54163641Y6901783D01*
X54108555Y6956869D01*
X54070103Y7009793D01*
X53919793Y7160103D01*
X53919792Y7160104D01*
X53866867Y7198556D01*
X53800920Y7269897D01*
X53767293Y7361047D01*
X53771107Y7458127D01*
X53811781Y7546358D01*
X53866867Y7601445D01*
X53919792Y7639896D01*
X54070104Y7790208D01*
X54195051Y7962184D01*
X54208286Y7988162D01*
X54254077Y8051186D01*
X54872892Y8670000D01*
X54807066Y8735826D01*
X55080000Y8735826D01*
X55080000Y8604174D01*
X55114075Y8477007D01*
X55179901Y8362993D01*
X55272993Y8269901D01*
X55387007Y8204075D01*
X55514174Y8170000D01*
X55645826Y8170000D01*
X55772993Y8204075D01*
X55887007Y8269901D01*
X55980099Y8362993D01*
X56045925Y8477007D01*
X56080000Y8604174D01*
X56080000Y8735826D01*
X56045925Y8862993D01*
X55980099Y8977007D01*
X55887007Y9070099D01*
X55772993Y9135925D01*
X55645826Y9170000D01*
X55514174Y9170000D01*
X55387007Y9135925D01*
X55272993Y9070099D01*
X55179901Y8977007D01*
X55114075Y8862993D01*
X55080000Y8735826D01*
X54807066Y8735826D01*
X54254074Y9288818D01*
X54234452Y9310921D01*
X54219365Y9330096D01*
X54195051Y9377816D01*
X54070104Y9549792D01*
X53919792Y9700104D01*
X53747816Y9825051D01*
X53576388Y9912398D01*
X55044710Y9912398D01*
X55580000Y9377108D01*
X56115288Y9912397D01*
X56098214Y9921096D01*
X55896123Y9986759D01*
X55686256Y10020000D01*
X55473743Y10020000D01*
X55263874Y9986759D01*
X55263873Y9986759D01*
X55061793Y9921100D01*
X55061779Y9921094D01*
X55044710Y9912398D01*
X53576388Y9912398D01*
X53558412Y9921557D01*
X53558409Y9921558D01*
X53558407Y9921559D01*
X53356240Y9987247D01*
X53146296Y10020500D01*
X53146287Y10020500D01*
X52933713Y10020500D01*
X52933703Y10020500D01*
X52723759Y9987247D01*
X52521592Y9921559D01*
X52521588Y9921558D01*
X52521588Y9921557D01*
X52435213Y9877547D01*
X52332182Y9825050D01*
X52160206Y9700103D01*
X52009896Y9549793D01*
X51971445Y9496869D01*
X51900101Y9430920D01*
X51808951Y9397293D01*
X51711871Y9401108D01*
X51623641Y9441783D01*
X51568555Y9496869D01*
X51530103Y9549793D01*
X51379793Y9700103D01*
X51313768Y9748073D01*
X51207816Y9825051D01*
X51018412Y9921557D01*
X51018409Y9921558D01*
X51018407Y9921559D01*
X50816240Y9987247D01*
X50606296Y10020500D01*
X50606287Y10020500D01*
X50393713Y10020500D01*
X50393703Y10020500D01*
X50183759Y9987247D01*
X49981592Y9921559D01*
X49981588Y9921558D01*
X49981588Y9921557D01*
X49895213Y9877547D01*
X49792182Y9825050D01*
X49620206Y9700103D01*
X49469896Y9549793D01*
X49431445Y9496869D01*
X49360101Y9430920D01*
X49268951Y9397293D01*
X49171871Y9401108D01*
X49083641Y9441783D01*
X49028555Y9496869D01*
X48990103Y9549793D01*
X48839793Y9700103D01*
X48773768Y9748073D01*
X48667816Y9825051D01*
X48478412Y9921557D01*
X48478409Y9921558D01*
X48478407Y9921559D01*
X48276240Y9987247D01*
X48066296Y10020500D01*
X48066287Y10020500D01*
X47853713Y10020500D01*
X47853703Y10020500D01*
X47643759Y9987247D01*
X47441592Y9921559D01*
X47441588Y9921558D01*
X47441588Y9921557D01*
X47355213Y9877547D01*
X47252182Y9825050D01*
X47080206Y9700103D01*
X46929896Y9549793D01*
X46891445Y9496869D01*
X46820101Y9430920D01*
X46728951Y9397293D01*
X46631871Y9401108D01*
X46543641Y9441783D01*
X46488555Y9496869D01*
X46450103Y9549793D01*
X46299793Y9700103D01*
X46233768Y9748073D01*
X46127816Y9825051D01*
X45938412Y9921557D01*
X45938409Y9921558D01*
X45938407Y9921559D01*
X45736240Y9987247D01*
X45526296Y10020500D01*
X45526287Y10020500D01*
X45313713Y10020500D01*
X45313703Y10020500D01*
X45103759Y9987247D01*
X44901592Y9921559D01*
X44901588Y9921558D01*
X44901588Y9921557D01*
X44815213Y9877547D01*
X44712182Y9825050D01*
X44540206Y9700103D01*
X44389896Y9549793D01*
X44351445Y9496869D01*
X44280101Y9430920D01*
X44188951Y9397293D01*
X44091871Y9401108D01*
X44003641Y9441783D01*
X43948555Y9496869D01*
X43910103Y9549793D01*
X43759793Y9700103D01*
X43693768Y9748073D01*
X43587816Y9825051D01*
X43398412Y9921557D01*
X43398409Y9921558D01*
X43398407Y9921559D01*
X43196240Y9987247D01*
X42986296Y10020500D01*
X42986287Y10020500D01*
X42773713Y10020500D01*
X42773703Y10020500D01*
X42563759Y9987247D01*
X42361592Y9921559D01*
X42361588Y9921558D01*
X42361588Y9921557D01*
X42275213Y9877547D01*
X42172182Y9825050D01*
X42000206Y9700103D01*
X41849896Y9549793D01*
X41811445Y9496869D01*
X41740101Y9430920D01*
X41648951Y9397293D01*
X41551871Y9401108D01*
X41463641Y9441783D01*
X41408555Y9496869D01*
X41370103Y9549793D01*
X41219793Y9700103D01*
X41153768Y9748073D01*
X41047816Y9825051D01*
X40858412Y9921557D01*
X40858409Y9921558D01*
X40858407Y9921559D01*
X40656240Y9987247D01*
X40446296Y10020500D01*
X40446287Y10020500D01*
X40233713Y10020500D01*
X40233703Y10020500D01*
X40023759Y9987247D01*
X39821592Y9921559D01*
X39821588Y9921558D01*
X39821588Y9921557D01*
X39735213Y9877547D01*
X39632182Y9825050D01*
X39460206Y9700103D01*
X39309896Y9549793D01*
X39271445Y9496869D01*
X39200101Y9430920D01*
X39108951Y9397293D01*
X39011871Y9401108D01*
X38923641Y9441783D01*
X38868555Y9496869D01*
X38830103Y9549793D01*
X38679793Y9700103D01*
X38613768Y9748073D01*
X38507816Y9825051D01*
X38318412Y9921557D01*
X38318409Y9921558D01*
X38318407Y9921559D01*
X38116240Y9987247D01*
X37906296Y10020500D01*
X37906287Y10020500D01*
X37693713Y10020500D01*
X37693703Y10020500D01*
X37483759Y9987247D01*
X37281592Y9921559D01*
X37281588Y9921558D01*
X37281588Y9921557D01*
X37195213Y9877547D01*
X37092182Y9825050D01*
X36920206Y9700103D01*
X36769897Y9549794D01*
X36644948Y9377816D01*
X36631715Y9351843D01*
X36585925Y9288820D01*
X35789621Y8492517D01*
X35708840Y8438541D01*
X35703051Y8437390D01*
X35725925Y8477007D01*
X35760000Y8604174D01*
X35760000Y8735826D01*
X35725925Y8862993D01*
X35660099Y8977007D01*
X35567007Y9070099D01*
X35452993Y9135925D01*
X35325826Y9170000D01*
X35194174Y9170000D01*
X35067007Y9135925D01*
X34952993Y9070099D01*
X34859901Y8977007D01*
X34794075Y8862993D01*
X34760000Y8735826D01*
X34760000Y8604174D01*
X34794075Y8477007D01*
X34816948Y8437390D01*
X34811157Y8438541D01*
X34730377Y8492517D01*
X33934075Y9288818D01*
X33914452Y9310921D01*
X33899365Y9330096D01*
X33875051Y9377816D01*
X33750104Y9549792D01*
X33599792Y9700104D01*
X33427816Y9825051D01*
X33256388Y9912398D01*
X34724710Y9912398D01*
X35260000Y9377108D01*
X35795288Y9912397D01*
X35778214Y9921096D01*
X35576123Y9986759D01*
X35366256Y10020000D01*
X35153743Y10020000D01*
X34943874Y9986759D01*
X34943873Y9986759D01*
X34741793Y9921100D01*
X34741779Y9921094D01*
X34724710Y9912398D01*
X33256388Y9912398D01*
X33238412Y9921557D01*
X33238409Y9921558D01*
X33238407Y9921559D01*
X33036240Y9987247D01*
X32826296Y10020500D01*
X32826287Y10020500D01*
X32613713Y10020500D01*
X32613703Y10020500D01*
X32403759Y9987247D01*
X32201592Y9921559D01*
X32201588Y9921558D01*
X32201588Y9921557D01*
X32115213Y9877547D01*
X32012182Y9825050D01*
X31840206Y9700103D01*
X31689896Y9549793D01*
X31651445Y9496869D01*
X31580101Y9430920D01*
X31488951Y9397293D01*
X31391871Y9401108D01*
X31303641Y9441783D01*
X31248555Y9496869D01*
X31210103Y9549793D01*
X31059793Y9700103D01*
X30993768Y9748073D01*
X30887816Y9825051D01*
X30698412Y9921557D01*
X30698409Y9921558D01*
X30698407Y9921559D01*
X30496240Y9987247D01*
X30286296Y10020500D01*
X30286287Y10020500D01*
X30073713Y10020500D01*
X30073703Y10020500D01*
X29863759Y9987247D01*
X29661592Y9921559D01*
X29661588Y9921558D01*
X29661588Y9921557D01*
X29575213Y9877547D01*
X29472182Y9825050D01*
X29300206Y9700103D01*
X29149896Y9549793D01*
X29111445Y9496869D01*
X29040101Y9430920D01*
X28948951Y9397293D01*
X28851871Y9401108D01*
X28763641Y9441783D01*
X28708555Y9496869D01*
X28670103Y9549793D01*
X28519793Y9700103D01*
X28453768Y9748073D01*
X28347816Y9825051D01*
X28158412Y9921557D01*
X28158409Y9921558D01*
X28158407Y9921559D01*
X27956240Y9987247D01*
X27746296Y10020500D01*
X27746287Y10020500D01*
X27533713Y10020500D01*
X27533703Y10020500D01*
X27323759Y9987247D01*
X27121592Y9921559D01*
X27121588Y9921558D01*
X27121588Y9921557D01*
X27035213Y9877547D01*
X26932182Y9825050D01*
X26845857Y9762331D01*
X26760208Y9700104D01*
X26760206Y9700103D01*
X26752293Y9694353D01*
X26750630Y9696641D01*
X26681814Y9658166D01*
X26585324Y9646816D01*
X26491835Y9673254D01*
X26415581Y9733457D01*
X26405160Y9748591D01*
X26404469Y9748073D01*
X26393796Y9762330D01*
X26393796Y9762331D01*
X26307546Y9877546D01*
X26192331Y9963796D01*
X26112117Y9993714D01*
X26057481Y10014092D01*
X25997873Y10020500D01*
X24202134Y10020500D01*
X24202130Y10020500D01*
X24202128Y10020499D01*
X24189314Y10019122D01*
X24142519Y10014092D01*
X24142515Y10014091D01*
X24007670Y9963797D01*
X23892455Y9877547D01*
X23892453Y9877545D01*
X23806204Y9762331D01*
X23755908Y9627482D01*
X23749500Y9567877D01*
X500500Y9567877D01*
X500500Y25128546D01*
X91799500Y25128546D01*
X91799500Y24931455D01*
X91837947Y24738170D01*
X91837949Y24738165D01*
X91913365Y24556092D01*
X91913366Y24556089D01*
X91913368Y24556086D01*
X92022861Y24392218D01*
X92162218Y24252861D01*
X92326086Y24143368D01*
X92508165Y24067949D01*
X92508167Y24067949D01*
X92508169Y24067948D01*
X92696453Y24030496D01*
X92701459Y24029500D01*
X92898541Y24029500D01*
X93091835Y24067949D01*
X93273914Y24143368D01*
X93437782Y24252861D01*
X93577139Y24392218D01*
X93686632Y24556086D01*
X93740665Y24686537D01*
X93794639Y24767314D01*
X93875420Y24821291D01*
X93970708Y24840246D01*
X94065996Y24821293D01*
X94146778Y24767317D01*
X94200755Y24686536D01*
X94213368Y24656086D01*
X94322861Y24492218D01*
X94462218Y24352861D01*
X94626086Y24243368D01*
X94808165Y24167949D01*
X94808167Y24167949D01*
X94808169Y24167948D01*
X94996453Y24130496D01*
X95001459Y24129500D01*
X95198541Y24129500D01*
X95391835Y24167949D01*
X95573914Y24243368D01*
X95737782Y24352861D01*
X95877139Y24492218D01*
X95986632Y24656086D01*
X96062051Y24838165D01*
X96100500Y25031459D01*
X96100500Y25228541D01*
X96081943Y25321831D01*
X96062052Y25421831D01*
X96062051Y25421833D01*
X96062051Y25421835D01*
X95986632Y25603914D01*
X95877139Y25767782D01*
X95737782Y25907139D01*
X95723576Y25916631D01*
X95573915Y26016631D01*
X95573914Y26016632D01*
X95573911Y26016634D01*
X95573908Y26016635D01*
X95391835Y26092051D01*
X95391830Y26092053D01*
X95198545Y26130500D01*
X95198541Y26130500D01*
X95001459Y26130500D01*
X95001454Y26130500D01*
X94808169Y26092053D01*
X94808164Y26092051D01*
X94626091Y26016635D01*
X94626084Y26016631D01*
X94462221Y25907142D01*
X94322858Y25767779D01*
X94213369Y25603916D01*
X94213367Y25603912D01*
X94159335Y25473467D01*
X94105359Y25392685D01*
X94024577Y25338709D01*
X93929289Y25319755D01*
X93834001Y25338709D01*
X93753219Y25392685D01*
X93699243Y25473467D01*
X93699242Y25473470D01*
X93686633Y25503912D01*
X93686632Y25503913D01*
X93686632Y25503914D01*
X93577139Y25667782D01*
X93437782Y25807139D01*
X93433108Y25810262D01*
X93288121Y25907139D01*
X93273914Y25916632D01*
X93273911Y25916634D01*
X93273908Y25916635D01*
X93091835Y25992051D01*
X93091830Y25992053D01*
X92898545Y26030500D01*
X92898541Y26030500D01*
X92701459Y26030500D01*
X92701454Y26030500D01*
X92508169Y25992053D01*
X92508164Y25992051D01*
X92326091Y25916635D01*
X92326084Y25916631D01*
X92162221Y25807142D01*
X92022858Y25667779D01*
X91913369Y25503916D01*
X91913365Y25503909D01*
X91837949Y25321836D01*
X91837947Y25321831D01*
X91799500Y25128546D01*
X500500Y25128546D01*
X500500Y30458847D01*
X33119500Y30458847D01*
X33119500Y30301154D01*
X33150261Y30146508D01*
X33150263Y30146503D01*
X33210603Y30000827D01*
X33210606Y30000820D01*
X33298208Y29869715D01*
X33298211Y29869711D01*
X33409711Y29758211D01*
X33540821Y29670606D01*
X33541493Y29670328D01*
X33542101Y29669922D01*
X33551613Y29664837D01*
X33551112Y29663901D01*
X33622275Y29616356D01*
X33622284Y29616348D01*
X36836850Y26401783D01*
X36890826Y26321001D01*
X36940605Y26200824D01*
X36940606Y26200820D01*
X37028208Y26069715D01*
X37028211Y26069711D01*
X37139711Y25958211D01*
X37139714Y25958209D01*
X37270819Y25870607D01*
X37270820Y25870607D01*
X37270821Y25870606D01*
X37416503Y25810263D01*
X37416505Y25810263D01*
X37416507Y25810262D01*
X37567148Y25780298D01*
X37571158Y25779500D01*
X37728842Y25779500D01*
X37883497Y25810263D01*
X38029179Y25870606D01*
X38160289Y25958211D01*
X38271789Y26069711D01*
X38359394Y26200821D01*
X38419737Y26346503D01*
X38450500Y26501158D01*
X38450500Y26658842D01*
X38419737Y26813497D01*
X38359394Y26959179D01*
X38271789Y27090289D01*
X38160289Y27201789D01*
X38160285Y27201792D01*
X38155258Y27206819D01*
X38147680Y27213687D01*
X38128416Y27232951D01*
X34683652Y30677716D01*
X34636097Y30748887D01*
X34635163Y30748387D01*
X34630088Y30757882D01*
X34629676Y30758498D01*
X34629394Y30759179D01*
X34541789Y30890289D01*
X34430289Y31001789D01*
X34430285Y31001792D01*
X34299180Y31089394D01*
X34299173Y31089397D01*
X34153497Y31149737D01*
X34153492Y31149739D01*
X33998846Y31180500D01*
X33998842Y31180500D01*
X33841158Y31180500D01*
X33841153Y31180500D01*
X33686507Y31149739D01*
X33686502Y31149737D01*
X33540826Y31089397D01*
X33540819Y31089394D01*
X33409714Y31001792D01*
X33298208Y30890286D01*
X33210606Y30759181D01*
X33210603Y30759174D01*
X33150263Y30613498D01*
X33150261Y30613493D01*
X33119500Y30458847D01*
X500500Y30458847D01*
X500500Y31803546D01*
X14374500Y31803546D01*
X14374500Y31606455D01*
X14412947Y31413170D01*
X14412949Y31413165D01*
X14488365Y31231092D01*
X14488366Y31231089D01*
X14488368Y31231086D01*
X14542722Y31149739D01*
X14589653Y31079501D01*
X14597861Y31067218D01*
X14737218Y30927861D01*
X14901086Y30818368D01*
X15083165Y30742949D01*
X15083167Y30742949D01*
X15083169Y30742948D01*
X15235044Y30712738D01*
X15276459Y30704500D01*
X15473541Y30704500D01*
X15494613Y30708692D01*
X15527787Y30715290D01*
X15666830Y30742948D01*
X15666830Y30742949D01*
X15666835Y30742949D01*
X15848914Y30818368D01*
X16012782Y30927861D01*
X16152139Y31067218D01*
X16261632Y31231086D01*
X16337051Y31413165D01*
X16375500Y31606459D01*
X16375500Y31803541D01*
X16337051Y31996835D01*
X16261632Y32178914D01*
X16152139Y32342782D01*
X16012782Y32482139D01*
X15848914Y32591632D01*
X15848911Y32591634D01*
X15848908Y32591635D01*
X15666835Y32667051D01*
X15666830Y32667053D01*
X15473545Y32705500D01*
X15473541Y32705500D01*
X15276459Y32705500D01*
X15276454Y32705500D01*
X15083169Y32667053D01*
X15083164Y32667051D01*
X14901091Y32591635D01*
X14901084Y32591631D01*
X14737221Y32482142D01*
X14597858Y32342779D01*
X14488369Y32178916D01*
X14488365Y32178909D01*
X14412949Y31996836D01*
X14412947Y31996831D01*
X14374500Y31803546D01*
X500500Y31803546D01*
X500500Y34538847D01*
X36969500Y34538847D01*
X36969500Y34381154D01*
X37000261Y34226508D01*
X37000263Y34226503D01*
X37060603Y34080827D01*
X37060606Y34080820D01*
X37148208Y33949715D01*
X37148211Y33949711D01*
X37259711Y33838211D01*
X37390821Y33750606D01*
X37391493Y33750328D01*
X37392101Y33749922D01*
X37401613Y33744837D01*
X37401112Y33743901D01*
X37472275Y33696356D01*
X37472284Y33696348D01*
X39476570Y31692063D01*
X39530546Y31611281D01*
X39549500Y31515993D01*
X39549500Y29749470D01*
X39532800Y29665516D01*
X39533815Y29665208D01*
X39530690Y29654908D01*
X39530547Y29654185D01*
X39530265Y29653505D01*
X39530262Y29653496D01*
X39499500Y29498847D01*
X39499500Y29341154D01*
X39530261Y29186508D01*
X39530263Y29186503D01*
X39590603Y29040827D01*
X39590606Y29040820D01*
X39678208Y28909715D01*
X39678211Y28909711D01*
X39789711Y28798211D01*
X39789714Y28798209D01*
X39920819Y28710607D01*
X39920820Y28710607D01*
X39920821Y28710606D01*
X40066503Y28650263D01*
X40066505Y28650263D01*
X40066507Y28650262D01*
X40217148Y28620298D01*
X40221158Y28619500D01*
X40378842Y28619500D01*
X40533497Y28650263D01*
X40679179Y28710606D01*
X40810289Y28798211D01*
X40921789Y28909711D01*
X41009394Y29040821D01*
X41069737Y29186503D01*
X41100500Y29341158D01*
X41100500Y29498842D01*
X41069737Y29653497D01*
X41069734Y29653505D01*
X41069453Y29654185D01*
X41069309Y29654908D01*
X41066185Y29665208D01*
X41067199Y29665516D01*
X41050500Y29749470D01*
X41050500Y31968842D01*
X42189500Y31968842D01*
X42189500Y31955243D01*
X42189500Y31811154D01*
X42220261Y31656508D01*
X42220263Y31656503D01*
X42280603Y31510827D01*
X42280606Y31510820D01*
X42368208Y31379715D01*
X42368211Y31379711D01*
X42479711Y31268211D01*
X42479714Y31268209D01*
X42610819Y31180607D01*
X42610820Y31180607D01*
X42610821Y31180606D01*
X42756503Y31120263D01*
X42756505Y31120263D01*
X42756507Y31120262D01*
X42907148Y31090298D01*
X42911158Y31089500D01*
X43068842Y31089500D01*
X43223497Y31120263D01*
X43369179Y31180606D01*
X43500289Y31268211D01*
X43611789Y31379711D01*
X43699394Y31510821D01*
X43759737Y31656503D01*
X43790500Y31811158D01*
X43790500Y31968842D01*
X43759737Y32123497D01*
X43756769Y32130661D01*
X43754452Y32137290D01*
X43748638Y32178546D01*
X70899500Y32178546D01*
X70899500Y31981455D01*
X70937947Y31788170D01*
X70937949Y31788165D01*
X71013365Y31606092D01*
X71013366Y31606089D01*
X71013368Y31606086D01*
X71122861Y31442218D01*
X71262218Y31302861D01*
X71426086Y31193368D01*
X71608165Y31117949D01*
X71608167Y31117949D01*
X71608169Y31117948D01*
X71751181Y31089501D01*
X71801459Y31079500D01*
X71998541Y31079500D01*
X72191835Y31117949D01*
X72373914Y31193368D01*
X72537782Y31302861D01*
X72677139Y31442218D01*
X72786632Y31606086D01*
X72862051Y31788165D01*
X72900500Y31981459D01*
X72900500Y32178541D01*
X72862051Y32371835D01*
X72786632Y32553914D01*
X72677139Y32717782D01*
X72537782Y32857139D01*
X72373914Y32966632D01*
X72373911Y32966634D01*
X72373908Y32966635D01*
X72191835Y33042051D01*
X72191830Y33042053D01*
X71998545Y33080500D01*
X71998541Y33080500D01*
X71801459Y33080500D01*
X71801454Y33080500D01*
X71608169Y33042053D01*
X71608164Y33042051D01*
X71426091Y32966635D01*
X71426084Y32966631D01*
X71262221Y32857142D01*
X71122858Y32717779D01*
X71013369Y32553916D01*
X71013365Y32553909D01*
X70937949Y32371836D01*
X70937947Y32371831D01*
X70899500Y32178546D01*
X43748638Y32178546D01*
X43748633Y32178578D01*
X43740500Y32219470D01*
X43740500Y37368847D01*
X48029500Y37368847D01*
X48029500Y37211154D01*
X48060261Y37056508D01*
X48060263Y37056503D01*
X48120603Y36910827D01*
X48120606Y36910820D01*
X48208208Y36779715D01*
X48208211Y36779711D01*
X48319711Y36668211D01*
X48319714Y36668209D01*
X48450819Y36580607D01*
X48450820Y36580607D01*
X48450821Y36580606D01*
X48596503Y36520263D01*
X48596505Y36520263D01*
X48596507Y36520262D01*
X48747148Y36490298D01*
X48751158Y36489500D01*
X48908842Y36489500D01*
X49063497Y36520263D01*
X49209179Y36580606D01*
X49340289Y36668211D01*
X49451789Y36779711D01*
X49539394Y36910821D01*
X49599737Y37056503D01*
X49630500Y37211158D01*
X49630500Y37368842D01*
X49599737Y37523497D01*
X49599734Y37523505D01*
X49599453Y37524185D01*
X49599309Y37524908D01*
X49596185Y37535208D01*
X49597199Y37535516D01*
X49580500Y37619470D01*
X49580500Y46245993D01*
X49599454Y46341281D01*
X49653430Y46422063D01*
X50084430Y46853063D01*
X50165212Y46907039D01*
X50260500Y46925993D01*
X50355788Y46907039D01*
X50436570Y46853063D01*
X50490546Y46772281D01*
X50509500Y46676993D01*
X50509500Y38442922D01*
X50490546Y38347634D01*
X50475895Y38320224D01*
X50476373Y38319968D01*
X50470603Y38309174D01*
X50410263Y38163498D01*
X50410261Y38163493D01*
X50379500Y38008847D01*
X50379500Y37851154D01*
X50410261Y37696508D01*
X50410263Y37696503D01*
X50470603Y37550827D01*
X50470606Y37550820D01*
X50558208Y37419715D01*
X50558211Y37419711D01*
X50669711Y37308211D01*
X50669714Y37308209D01*
X50800819Y37220607D01*
X50800820Y37220607D01*
X50800821Y37220606D01*
X50946503Y37160263D01*
X50946505Y37160263D01*
X50946507Y37160262D01*
X51097148Y37130298D01*
X51101158Y37129500D01*
X51258842Y37129500D01*
X51379729Y37153546D01*
X76499500Y37153546D01*
X76499500Y36956455D01*
X76537947Y36763170D01*
X76537949Y36763165D01*
X76613365Y36581092D01*
X76613366Y36581089D01*
X76613368Y36581086D01*
X76722861Y36417218D01*
X76862218Y36277861D01*
X77026086Y36168368D01*
X77208165Y36092949D01*
X77208167Y36092949D01*
X77208169Y36092948D01*
X77396453Y36055496D01*
X77401459Y36054500D01*
X77598541Y36054500D01*
X77791835Y36092949D01*
X77973914Y36168368D01*
X78137782Y36277861D01*
X78277139Y36417218D01*
X78386632Y36581086D01*
X78462051Y36763165D01*
X78500500Y36956459D01*
X78500500Y37153541D01*
X78462051Y37346835D01*
X78386632Y37528914D01*
X78277139Y37692782D01*
X78137782Y37832139D01*
X78137778Y37832142D01*
X77973912Y37941634D01*
X77791835Y38017051D01*
X77791830Y38017053D01*
X77598545Y38055500D01*
X77598541Y38055500D01*
X77401459Y38055500D01*
X77401454Y38055500D01*
X77208169Y38017053D01*
X77208164Y38017051D01*
X77026091Y37941635D01*
X77026084Y37941631D01*
X76862221Y37832142D01*
X76722858Y37692779D01*
X76613369Y37528916D01*
X76613365Y37528909D01*
X76537949Y37346836D01*
X76537947Y37346831D01*
X76499500Y37153546D01*
X51379729Y37153546D01*
X51413497Y37160263D01*
X51559179Y37220606D01*
X51690289Y37308211D01*
X51801789Y37419711D01*
X51889394Y37550821D01*
X51944968Y37684991D01*
X51949735Y37696498D01*
X51949735Y37696499D01*
X51949737Y37696503D01*
X51951656Y37706152D01*
X51965823Y37752862D01*
X51981658Y37791087D01*
X52010500Y37936082D01*
X52010500Y38153546D01*
X89174500Y38153546D01*
X89174500Y37956455D01*
X89212947Y37763170D01*
X89212949Y37763165D01*
X89288365Y37581092D01*
X89288366Y37581089D01*
X89288368Y37581086D01*
X89308591Y37550820D01*
X89396192Y37419715D01*
X89397861Y37417218D01*
X89537218Y37277861D01*
X89701086Y37168368D01*
X89883165Y37092949D01*
X89883167Y37092949D01*
X89883169Y37092948D01*
X90066364Y37056508D01*
X90076459Y37054500D01*
X90273541Y37054500D01*
X90466835Y37092949D01*
X90648914Y37168368D01*
X90812782Y37277861D01*
X90952139Y37417218D01*
X91061632Y37581086D01*
X91137051Y37763165D01*
X91175500Y37956459D01*
X91175500Y38153541D01*
X91137051Y38346835D01*
X91061632Y38528914D01*
X90952139Y38692782D01*
X90812782Y38832139D01*
X90648914Y38941632D01*
X90648911Y38941634D01*
X90648908Y38941635D01*
X90466835Y39017051D01*
X90466830Y39017053D01*
X90273545Y39055500D01*
X90273541Y39055500D01*
X90076459Y39055500D01*
X90076454Y39055500D01*
X89883169Y39017053D01*
X89883164Y39017051D01*
X89701091Y38941635D01*
X89701084Y38941631D01*
X89537221Y38832142D01*
X89397858Y38692779D01*
X89288369Y38528916D01*
X89288365Y38528909D01*
X89212949Y38346836D01*
X89212947Y38346831D01*
X89174500Y38153546D01*
X52010500Y38153546D01*
X52010500Y42128546D01*
X76449500Y42128546D01*
X76449500Y41931455D01*
X76487947Y41738170D01*
X76487949Y41738165D01*
X76563365Y41556092D01*
X76563366Y41556089D01*
X76563368Y41556086D01*
X76672861Y41392218D01*
X76812218Y41252861D01*
X76976086Y41143368D01*
X77158165Y41067949D01*
X77158167Y41067949D01*
X77158169Y41067948D01*
X77346453Y41030496D01*
X77351459Y41029500D01*
X77548541Y41029500D01*
X77741835Y41067949D01*
X77923914Y41143368D01*
X78087782Y41252861D01*
X78227139Y41392218D01*
X78336632Y41556086D01*
X78412051Y41738165D01*
X78450500Y41931459D01*
X78450500Y42128541D01*
X78412051Y42321835D01*
X78336632Y42503914D01*
X78227139Y42667782D01*
X78087782Y42807139D01*
X77923914Y42916632D01*
X77923911Y42916634D01*
X77923908Y42916635D01*
X77741835Y42992051D01*
X77741830Y42992053D01*
X77548545Y43030500D01*
X77548541Y43030500D01*
X77351459Y43030500D01*
X77351454Y43030500D01*
X77158169Y42992053D01*
X77158164Y42992051D01*
X76976091Y42916635D01*
X76976084Y42916631D01*
X76812221Y42807142D01*
X76672858Y42667779D01*
X76563369Y42503916D01*
X76563365Y42503909D01*
X76487949Y42321836D01*
X76487947Y42321831D01*
X76449500Y42128546D01*
X52010500Y42128546D01*
X52010500Y47220532D01*
X52027200Y47304490D01*
X52026186Y47304797D01*
X52029309Y47315095D01*
X52029454Y47315820D01*
X52029737Y47316503D01*
X52060500Y47471158D01*
X52060500Y47628842D01*
X52029737Y47783497D01*
X51969394Y47929179D01*
X51881789Y48060289D01*
X51770289Y48171789D01*
X51760184Y48178541D01*
X51639180Y48259394D01*
X51639173Y48259397D01*
X51493497Y48319737D01*
X51493492Y48319739D01*
X51338846Y48350500D01*
X51338842Y48350500D01*
X51181158Y48350500D01*
X51181153Y48350500D01*
X51026507Y48319739D01*
X51026502Y48319737D01*
X50880826Y48259397D01*
X50880819Y48259393D01*
X50800076Y48205442D01*
X50710316Y48168262D01*
X50613161Y48168263D01*
X50523402Y48205442D01*
X50485674Y48236404D01*
X50390289Y48331789D01*
X50390285Y48331792D01*
X50259180Y48419394D01*
X50259173Y48419397D01*
X50113497Y48479737D01*
X50113492Y48479739D01*
X49958846Y48510500D01*
X49958842Y48510500D01*
X49801158Y48510500D01*
X49801153Y48510500D01*
X49646507Y48479739D01*
X49646502Y48479737D01*
X49500826Y48419397D01*
X49500819Y48419394D01*
X49369714Y48331792D01*
X49258208Y48220286D01*
X49170603Y48089176D01*
X49170315Y48088478D01*
X49169894Y48087849D01*
X49164839Y48078391D01*
X49163907Y48078890D01*
X49116347Y48007717D01*
X48247051Y47138421D01*
X48197812Y47064728D01*
X48164917Y47015498D01*
X48164915Y47015493D01*
X48108341Y46878912D01*
X48079500Y46733921D01*
X48079500Y37619470D01*
X48062800Y37535516D01*
X48063815Y37535208D01*
X48060690Y37524908D01*
X48060547Y37524185D01*
X48060265Y37523505D01*
X48060262Y37523496D01*
X48029500Y37368847D01*
X43740500Y37368847D01*
X43740500Y39584987D01*
X43759454Y39680275D01*
X43813430Y39761057D01*
X43851158Y39792020D01*
X43920289Y39838211D01*
X44031789Y39949711D01*
X44119394Y40080821D01*
X44179737Y40226503D01*
X44210500Y40381158D01*
X44210500Y40538842D01*
X44179737Y40693497D01*
X44119394Y40839179D01*
X44031789Y40970289D01*
X43920289Y41081789D01*
X43828127Y41143370D01*
X43789180Y41169394D01*
X43789173Y41169397D01*
X43643497Y41229737D01*
X43643492Y41229739D01*
X43488846Y41260500D01*
X43488842Y41260500D01*
X43331158Y41260500D01*
X43331153Y41260500D01*
X43176507Y41229739D01*
X43176502Y41229737D01*
X43030826Y41169397D01*
X43030819Y41169394D01*
X42899714Y41081792D01*
X42788210Y40970288D01*
X42700604Y40839178D01*
X42700316Y40838480D01*
X42699897Y40837854D01*
X42694843Y40828397D01*
X42693911Y40828896D01*
X42646347Y40757717D01*
X42407051Y40518420D01*
X42407049Y40518417D01*
X42357812Y40444728D01*
X42324917Y40395498D01*
X42324915Y40395493D01*
X42268341Y40258912D01*
X42239500Y40113921D01*
X42239500Y32219470D01*
X42234465Y32194162D01*
X42234198Y32168358D01*
X42229431Y32145633D01*
X42220263Y32123497D01*
X42189500Y31968842D01*
X41050500Y31968842D01*
X41050500Y32003919D01*
X41050499Y32003921D01*
X41027324Y32120426D01*
X41021658Y32148913D01*
X40965084Y32285495D01*
X40882951Y32408416D01*
X40882949Y32408418D01*
X40778416Y32512952D01*
X40778416Y32512951D01*
X38533652Y34757716D01*
X38486097Y34828887D01*
X38485163Y34828387D01*
X38480088Y34837882D01*
X38479676Y34838498D01*
X38479394Y34839179D01*
X38391789Y34970289D01*
X38280289Y35081789D01*
X38280285Y35081792D01*
X38149180Y35169394D01*
X38149173Y35169397D01*
X38003497Y35229737D01*
X38003492Y35229739D01*
X37848846Y35260500D01*
X37848842Y35260500D01*
X37691158Y35260500D01*
X37691153Y35260500D01*
X37536507Y35229739D01*
X37536502Y35229737D01*
X37390826Y35169397D01*
X37390819Y35169394D01*
X37259714Y35081792D01*
X37148208Y34970286D01*
X37060606Y34839181D01*
X37060603Y34839174D01*
X37000263Y34693498D01*
X37000261Y34693493D01*
X36969500Y34538847D01*
X500500Y34538847D01*
X500500Y50278546D01*
X74199500Y50278546D01*
X74199500Y50081455D01*
X74237947Y49888170D01*
X74237949Y49888165D01*
X74313365Y49706092D01*
X74313366Y49706089D01*
X74313368Y49706086D01*
X74422861Y49542218D01*
X74562218Y49402861D01*
X74562221Y49402859D01*
X74562223Y49402857D01*
X74685731Y49320332D01*
X74754431Y49251633D01*
X74791610Y49161874D01*
X74791611Y49064719D01*
X74754431Y48974960D01*
X74685733Y48906261D01*
X74612222Y48857143D01*
X74472858Y48717779D01*
X74363369Y48553916D01*
X74363365Y48553909D01*
X74287949Y48371836D01*
X74287947Y48371831D01*
X74249500Y48178546D01*
X74249500Y47981455D01*
X74287947Y47788170D01*
X74287949Y47788165D01*
X74363365Y47606092D01*
X74363369Y47606085D01*
X74453526Y47471154D01*
X74472861Y47442218D01*
X74612218Y47302861D01*
X74776086Y47193368D01*
X74958165Y47117949D01*
X74958167Y47117949D01*
X74958169Y47117948D01*
X75107666Y47088211D01*
X75151459Y47079500D01*
X75348541Y47079500D01*
X75541835Y47117949D01*
X75723914Y47193368D01*
X75887782Y47302861D01*
X76027139Y47442218D01*
X76136632Y47606086D01*
X76212051Y47788165D01*
X76250500Y47981459D01*
X76250500Y48178541D01*
X76212051Y48371835D01*
X76136632Y48553914D01*
X76027139Y48717782D01*
X75887782Y48857139D01*
X75887776Y48857143D01*
X75764267Y48939669D01*
X75695568Y49008368D01*
X75658388Y49098127D01*
X75658388Y49195282D01*
X75695568Y49285042D01*
X75764263Y49353738D01*
X75837782Y49402861D01*
X75977139Y49542218D01*
X76086632Y49706086D01*
X76162051Y49888165D01*
X76200500Y50081459D01*
X76200500Y50278541D01*
X76172687Y50418366D01*
X76162052Y50471831D01*
X76162051Y50471833D01*
X76162051Y50471835D01*
X76086632Y50653914D01*
X75977139Y50817782D01*
X75837782Y50957139D01*
X75673914Y51066632D01*
X75673911Y51066634D01*
X75673908Y51066635D01*
X75491835Y51142051D01*
X75491830Y51142053D01*
X75298545Y51180500D01*
X75298541Y51180500D01*
X75101459Y51180500D01*
X75101454Y51180500D01*
X74908169Y51142053D01*
X74908164Y51142051D01*
X74726091Y51066635D01*
X74726084Y51066631D01*
X74562221Y50957142D01*
X74422858Y50817779D01*
X74313369Y50653916D01*
X74313365Y50653909D01*
X74237949Y50471836D01*
X74237947Y50471831D01*
X74199500Y50278546D01*
X500500Y50278546D01*
X500500Y51403546D01*
X31174500Y51403546D01*
X31174500Y51206455D01*
X31212947Y51013170D01*
X31212949Y51013165D01*
X31288365Y50831092D01*
X31288366Y50831089D01*
X31288368Y50831086D01*
X31397861Y50667218D01*
X31537218Y50527861D01*
X31701086Y50418368D01*
X31883165Y50342949D01*
X31883167Y50342949D01*
X31883169Y50342948D01*
X32071453Y50305496D01*
X32076459Y50304500D01*
X32273541Y50304500D01*
X32466835Y50342949D01*
X32648914Y50418368D01*
X32812782Y50527861D01*
X32952139Y50667218D01*
X33061632Y50831086D01*
X33137051Y51013165D01*
X33175500Y51206459D01*
X33175500Y51403541D01*
X33137051Y51596835D01*
X33061632Y51778914D01*
X32952139Y51942782D01*
X32812782Y52082139D01*
X32648914Y52191632D01*
X32648911Y52191634D01*
X32648908Y52191635D01*
X32466835Y52267051D01*
X32466830Y52267053D01*
X32273545Y52305500D01*
X32273541Y52305500D01*
X32076459Y52305500D01*
X32076454Y52305500D01*
X31883169Y52267053D01*
X31883164Y52267051D01*
X31701091Y52191635D01*
X31701084Y52191631D01*
X31537221Y52082142D01*
X31397858Y51942779D01*
X31288369Y51778916D01*
X31288365Y51778909D01*
X31212949Y51596836D01*
X31212947Y51596831D01*
X31174500Y51403546D01*
X500500Y51403546D01*
X500500Y61852254D01*
X1689358Y61852254D01*
X1851504Y61820001D01*
X1851509Y61820000D01*
X2048492Y61820000D01*
X2048496Y61820001D01*
X2210639Y61852254D01*
X1949999Y62112894D01*
X1689358Y61852254D01*
X500500Y61852254D01*
X500500Y62453156D01*
X519454Y62548444D01*
X573430Y62629226D01*
X654212Y62683202D01*
X749500Y62702156D01*
X844788Y62683202D01*
X925570Y62629226D01*
X969709Y62563166D01*
X982253Y62559361D01*
X1242893Y62820000D01*
X1242892Y62820001D01*
X2657106Y62820001D01*
X2917746Y62559361D01*
X2949999Y62721504D01*
X2950000Y62721508D01*
X2950000Y62918491D01*
X2949999Y62918496D01*
X2917746Y63080642D01*
X2657106Y62820001D01*
X1242892Y62820001D01*
X982252Y63080641D01*
X968062Y63076337D01*
X956536Y63048510D01*
X887838Y62979810D01*
X798078Y62942631D01*
X700923Y62942630D01*
X611164Y62979810D01*
X542464Y63048508D01*
X505285Y63138268D01*
X500500Y63186846D01*
X500500Y63787747D01*
X1689360Y63787747D01*
X1950000Y63527107D01*
X2210639Y63787747D01*
X2048488Y63820000D01*
X1851511Y63820000D01*
X1689360Y63787747D01*
X500500Y63787747D01*
X500500Y72503546D01*
X23819500Y72503546D01*
X23819500Y72306455D01*
X23857947Y72113170D01*
X23857949Y72113165D01*
X23933365Y71931092D01*
X23933366Y71931089D01*
X23933368Y71931086D01*
X24042861Y71767218D01*
X24182218Y71627861D01*
X24346086Y71518368D01*
X24528165Y71442949D01*
X24528167Y71442949D01*
X24528169Y71442948D01*
X24716453Y71405496D01*
X24721459Y71404500D01*
X24918541Y71404500D01*
X25111835Y71442949D01*
X25293914Y71518368D01*
X25457782Y71627861D01*
X25597139Y71767218D01*
X25706632Y71931086D01*
X25782051Y72113165D01*
X25820500Y72306459D01*
X25820500Y72503541D01*
X25782051Y72696835D01*
X25706632Y72878914D01*
X25597139Y73042782D01*
X25457782Y73182139D01*
X25293914Y73291632D01*
X25293911Y73291634D01*
X25293908Y73291635D01*
X25111835Y73367051D01*
X25111830Y73367053D01*
X24918545Y73405500D01*
X24918541Y73405500D01*
X24721459Y73405500D01*
X24721454Y73405500D01*
X24528169Y73367053D01*
X24528164Y73367051D01*
X24346091Y73291635D01*
X24346084Y73291631D01*
X24182221Y73182142D01*
X24042858Y73042779D01*
X23933369Y72878916D01*
X23933365Y72878909D01*
X23857949Y72696836D01*
X23857947Y72696831D01*
X23819500Y72503546D01*
X500500Y72503546D01*
X500500Y75978546D01*
X46574500Y75978546D01*
X46574500Y75781455D01*
X46612947Y75588170D01*
X46612949Y75588165D01*
X46688365Y75406092D01*
X46688366Y75406089D01*
X46688368Y75406086D01*
X46797861Y75242218D01*
X46937218Y75102861D01*
X47101086Y74993368D01*
X47283165Y74917949D01*
X47283167Y74917949D01*
X47283169Y74917948D01*
X47471453Y74880496D01*
X47476459Y74879500D01*
X47673541Y74879500D01*
X47866835Y74917949D01*
X48048914Y74993368D01*
X48212782Y75102861D01*
X48352139Y75242218D01*
X48461632Y75406086D01*
X48537051Y75588165D01*
X48575500Y75781459D01*
X48575500Y75978541D01*
X48537051Y76171835D01*
X48461632Y76353914D01*
X48352139Y76517782D01*
X48212782Y76657139D01*
X48048914Y76766632D01*
X48048911Y76766634D01*
X48048908Y76766635D01*
X47866835Y76842051D01*
X47866830Y76842053D01*
X47673545Y76880500D01*
X47673541Y76880500D01*
X47476459Y76880500D01*
X47476454Y76880500D01*
X47283169Y76842053D01*
X47283164Y76842051D01*
X47101091Y76766635D01*
X47101084Y76766631D01*
X46937221Y76657142D01*
X46797858Y76517779D01*
X46688369Y76353916D01*
X46688365Y76353909D01*
X46612949Y76171836D01*
X46612947Y76171831D01*
X46574500Y75978546D01*
X500500Y75978546D01*
X500500Y78278546D01*
X81999500Y78278546D01*
X81999500Y78081455D01*
X82037947Y77888170D01*
X82037949Y77888165D01*
X82113365Y77706092D01*
X82113366Y77706089D01*
X82113368Y77706086D01*
X82222861Y77542218D01*
X82362218Y77402861D01*
X82526086Y77293368D01*
X82708165Y77217949D01*
X82708167Y77217949D01*
X82708169Y77217948D01*
X82896453Y77180496D01*
X82901459Y77179500D01*
X83098541Y77179500D01*
X83291835Y77217949D01*
X83473914Y77293368D01*
X83637782Y77402861D01*
X83777139Y77542218D01*
X83886632Y77706086D01*
X83962051Y77888165D01*
X84000500Y78081459D01*
X84000500Y78278541D01*
X83962051Y78471835D01*
X83886632Y78653914D01*
X83777139Y78817782D01*
X83637782Y78957139D01*
X83473914Y79066632D01*
X83473911Y79066634D01*
X83473908Y79066635D01*
X83291835Y79142051D01*
X83291830Y79142053D01*
X83098545Y79180500D01*
X83098541Y79180500D01*
X82901459Y79180500D01*
X82901454Y79180500D01*
X82708169Y79142053D01*
X82708164Y79142051D01*
X82526091Y79066635D01*
X82526084Y79066631D01*
X82362221Y78957142D01*
X82222858Y78817779D01*
X82113369Y78653916D01*
X82113365Y78653909D01*
X82037949Y78471836D01*
X82037947Y78471831D01*
X81999500Y78278546D01*
X500500Y78278546D01*
X500500Y80518546D01*
X88299500Y80518546D01*
X88299500Y80321455D01*
X88337947Y80128170D01*
X88337949Y80128165D01*
X88413365Y79946092D01*
X88413366Y79946089D01*
X88413368Y79946086D01*
X88522861Y79782218D01*
X88662218Y79642861D01*
X88826086Y79533368D01*
X89008165Y79457949D01*
X89008167Y79457949D01*
X89008169Y79457948D01*
X89196453Y79420496D01*
X89201459Y79419500D01*
X89398541Y79419500D01*
X89591835Y79457949D01*
X89773914Y79533368D01*
X89937782Y79642861D01*
X90077139Y79782218D01*
X90186632Y79946086D01*
X90262051Y80128165D01*
X90300500Y80321459D01*
X90300500Y80518541D01*
X90262051Y80711835D01*
X90186632Y80893914D01*
X90077139Y81057782D01*
X89937782Y81197139D01*
X89773914Y81306632D01*
X89773911Y81306634D01*
X89773908Y81306635D01*
X89591835Y81382051D01*
X89591830Y81382053D01*
X89398545Y81420500D01*
X89398541Y81420500D01*
X89201459Y81420500D01*
X89201454Y81420500D01*
X89008169Y81382053D01*
X89008164Y81382051D01*
X88826091Y81306635D01*
X88826084Y81306631D01*
X88662221Y81197142D01*
X88522858Y81057779D01*
X88413369Y80893916D01*
X88413365Y80893909D01*
X88337949Y80711836D01*
X88337947Y80711831D01*
X88299500Y80518546D01*
X500500Y80518546D01*
X500500Y82478546D01*
X44299500Y82478546D01*
X44299500Y82281455D01*
X44337947Y82088170D01*
X44337949Y82088165D01*
X44413365Y81906092D01*
X44413366Y81906089D01*
X44413368Y81906086D01*
X44522861Y81742218D01*
X44662218Y81602861D01*
X44826086Y81493368D01*
X45008165Y81417949D01*
X45008167Y81417949D01*
X45008169Y81417948D01*
X45188624Y81382053D01*
X45201459Y81379500D01*
X45398541Y81379500D01*
X45591835Y81417949D01*
X45773914Y81493368D01*
X45937782Y81602861D01*
X46077139Y81742218D01*
X46186632Y81906086D01*
X46262051Y82088165D01*
X46300500Y82281459D01*
X46300500Y82478541D01*
X46262051Y82671835D01*
X46186632Y82853914D01*
X46077139Y83017782D01*
X45937782Y83157139D01*
X45773914Y83266632D01*
X45773911Y83266634D01*
X45773908Y83266635D01*
X45591835Y83342051D01*
X45591830Y83342053D01*
X45398545Y83380500D01*
X45398541Y83380500D01*
X45201459Y83380500D01*
X45201454Y83380500D01*
X45008169Y83342053D01*
X45008164Y83342051D01*
X44826091Y83266635D01*
X44826084Y83266631D01*
X44662221Y83157142D01*
X44522858Y83017779D01*
X44413369Y82853916D01*
X44413365Y82853909D01*
X44337949Y82671836D01*
X44337947Y82671831D01*
X44299500Y82478546D01*
X500500Y82478546D01*
X500500Y87230500D01*
X519454Y87325788D01*
X573430Y87406570D01*
X654212Y87460546D01*
X749500Y87479500D01*
X97350500Y87479500D01*
X97445788Y87460546D01*
G37*
%TD.AperFunction*%
%TD*%
M02*
