%TF.GenerationSoftware,KiCad,Pcbnew,10.0.5-1.fc44app2*%
%TF.CreationDate,2026-08-31T15:33:52+01:00*%
%TF.ProjectId,mainboard,6d61696e-626f-4617-9264-2e6b69636164,0.1*%
%TF.SameCoordinates,PX4b99070PY7a1c817*%
%TF.FileFunction,Legend,Top*%
%TF.FilePolarity,Positive*%
%FSLAX46Y46*%
G04 Gerber Fmt 4.6, Leading zero omitted, Abs format (unit mm)*
G04 Created by KiCad (PCBNEW 10.0.5-1.fc44app2) date 2026-08-31 15:33:52*
%MOMM*%
%LPD*%
G01*
G04 APERTURE LIST*
%ADD10C,0.200000*%
%ADD11C,0.000000*%
%ADD12C,0.100000*%
%ADD13C,0.150000*%
%ADD14C,0.120000*%
%ADD15C,0.152400*%
%ADD16C,0.127000*%
G04 APERTURE END LIST*
D10*
X16374435Y3165812D02*
X16993482Y3165812D01*
X16993482Y3165812D02*
X16660149Y2784860D01*
X16660149Y2784860D02*
X16803006Y2784860D01*
X16803006Y2784860D02*
X16898244Y2737241D01*
X16898244Y2737241D02*
X16945863Y2689622D01*
X16945863Y2689622D02*
X16993482Y2594384D01*
X16993482Y2594384D02*
X16993482Y2356289D01*
X16993482Y2356289D02*
X16945863Y2261051D01*
X16945863Y2261051D02*
X16898244Y2213431D01*
X16898244Y2213431D02*
X16803006Y2165812D01*
X16803006Y2165812D02*
X16517292Y2165812D01*
X16517292Y2165812D02*
X16422054Y2213431D01*
X16422054Y2213431D02*
X16374435Y2261051D01*
X17945863Y2165812D02*
X17374435Y2165812D01*
X17660149Y2165812D02*
X17660149Y3165812D01*
X17660149Y3165812D02*
X17564911Y3022955D01*
X17564911Y3022955D02*
X17469673Y2927717D01*
X17469673Y2927717D02*
X17374435Y2880098D01*
X19088720Y3213431D02*
X18231578Y1927717D01*
X19612530Y3165812D02*
X19707768Y3165812D01*
X19707768Y3165812D02*
X19803006Y3118193D01*
X19803006Y3118193D02*
X19850625Y3070574D01*
X19850625Y3070574D02*
X19898244Y2975336D01*
X19898244Y2975336D02*
X19945863Y2784860D01*
X19945863Y2784860D02*
X19945863Y2546765D01*
X19945863Y2546765D02*
X19898244Y2356289D01*
X19898244Y2356289D02*
X19850625Y2261051D01*
X19850625Y2261051D02*
X19803006Y2213431D01*
X19803006Y2213431D02*
X19707768Y2165812D01*
X19707768Y2165812D02*
X19612530Y2165812D01*
X19612530Y2165812D02*
X19517292Y2213431D01*
X19517292Y2213431D02*
X19469673Y2261051D01*
X19469673Y2261051D02*
X19422054Y2356289D01*
X19422054Y2356289D02*
X19374435Y2546765D01*
X19374435Y2546765D02*
X19374435Y2784860D01*
X19374435Y2784860D02*
X19422054Y2975336D01*
X19422054Y2975336D02*
X19469673Y3070574D01*
X19469673Y3070574D02*
X19517292Y3118193D01*
X19517292Y3118193D02*
X19612530Y3165812D01*
X20517292Y2737241D02*
X20422054Y2784860D01*
X20422054Y2784860D02*
X20374435Y2832479D01*
X20374435Y2832479D02*
X20326816Y2927717D01*
X20326816Y2927717D02*
X20326816Y2975336D01*
X20326816Y2975336D02*
X20374435Y3070574D01*
X20374435Y3070574D02*
X20422054Y3118193D01*
X20422054Y3118193D02*
X20517292Y3165812D01*
X20517292Y3165812D02*
X20707768Y3165812D01*
X20707768Y3165812D02*
X20803006Y3118193D01*
X20803006Y3118193D02*
X20850625Y3070574D01*
X20850625Y3070574D02*
X20898244Y2975336D01*
X20898244Y2975336D02*
X20898244Y2927717D01*
X20898244Y2927717D02*
X20850625Y2832479D01*
X20850625Y2832479D02*
X20803006Y2784860D01*
X20803006Y2784860D02*
X20707768Y2737241D01*
X20707768Y2737241D02*
X20517292Y2737241D01*
X20517292Y2737241D02*
X20422054Y2689622D01*
X20422054Y2689622D02*
X20374435Y2642003D01*
X20374435Y2642003D02*
X20326816Y2546765D01*
X20326816Y2546765D02*
X20326816Y2356289D01*
X20326816Y2356289D02*
X20374435Y2261051D01*
X20374435Y2261051D02*
X20422054Y2213431D01*
X20422054Y2213431D02*
X20517292Y2165812D01*
X20517292Y2165812D02*
X20707768Y2165812D01*
X20707768Y2165812D02*
X20803006Y2213431D01*
X20803006Y2213431D02*
X20850625Y2261051D01*
X20850625Y2261051D02*
X20898244Y2356289D01*
X20898244Y2356289D02*
X20898244Y2546765D01*
X20898244Y2546765D02*
X20850625Y2642003D01*
X20850625Y2642003D02*
X20803006Y2689622D01*
X20803006Y2689622D02*
X20707768Y2737241D01*
X22041101Y3213431D02*
X21183959Y1927717D01*
X22326816Y3070574D02*
X22374435Y3118193D01*
X22374435Y3118193D02*
X22469673Y3165812D01*
X22469673Y3165812D02*
X22707768Y3165812D01*
X22707768Y3165812D02*
X22803006Y3118193D01*
X22803006Y3118193D02*
X22850625Y3070574D01*
X22850625Y3070574D02*
X22898244Y2975336D01*
X22898244Y2975336D02*
X22898244Y2880098D01*
X22898244Y2880098D02*
X22850625Y2737241D01*
X22850625Y2737241D02*
X22279197Y2165812D01*
X22279197Y2165812D02*
X22898244Y2165812D01*
X23517292Y3165812D02*
X23612530Y3165812D01*
X23612530Y3165812D02*
X23707768Y3118193D01*
X23707768Y3118193D02*
X23755387Y3070574D01*
X23755387Y3070574D02*
X23803006Y2975336D01*
X23803006Y2975336D02*
X23850625Y2784860D01*
X23850625Y2784860D02*
X23850625Y2546765D01*
X23850625Y2546765D02*
X23803006Y2356289D01*
X23803006Y2356289D02*
X23755387Y2261051D01*
X23755387Y2261051D02*
X23707768Y2213431D01*
X23707768Y2213431D02*
X23612530Y2165812D01*
X23612530Y2165812D02*
X23517292Y2165812D01*
X23517292Y2165812D02*
X23422054Y2213431D01*
X23422054Y2213431D02*
X23374435Y2261051D01*
X23374435Y2261051D02*
X23326816Y2356289D01*
X23326816Y2356289D02*
X23279197Y2546765D01*
X23279197Y2546765D02*
X23279197Y2784860D01*
X23279197Y2784860D02*
X23326816Y2975336D01*
X23326816Y2975336D02*
X23374435Y3070574D01*
X23374435Y3070574D02*
X23422054Y3118193D01*
X23422054Y3118193D02*
X23517292Y3165812D01*
X24231578Y3070574D02*
X24279197Y3118193D01*
X24279197Y3118193D02*
X24374435Y3165812D01*
X24374435Y3165812D02*
X24612530Y3165812D01*
X24612530Y3165812D02*
X24707768Y3118193D01*
X24707768Y3118193D02*
X24755387Y3070574D01*
X24755387Y3070574D02*
X24803006Y2975336D01*
X24803006Y2975336D02*
X24803006Y2880098D01*
X24803006Y2880098D02*
X24755387Y2737241D01*
X24755387Y2737241D02*
X24183959Y2165812D01*
X24183959Y2165812D02*
X24803006Y2165812D01*
X25660149Y3165812D02*
X25469673Y3165812D01*
X25469673Y3165812D02*
X25374435Y3118193D01*
X25374435Y3118193D02*
X25326816Y3070574D01*
X25326816Y3070574D02*
X25231578Y2927717D01*
X25231578Y2927717D02*
X25183959Y2737241D01*
X25183959Y2737241D02*
X25183959Y2356289D01*
X25183959Y2356289D02*
X25231578Y2261051D01*
X25231578Y2261051D02*
X25279197Y2213431D01*
X25279197Y2213431D02*
X25374435Y2165812D01*
X25374435Y2165812D02*
X25564911Y2165812D01*
X25564911Y2165812D02*
X25660149Y2213431D01*
X25660149Y2213431D02*
X25707768Y2261051D01*
X25707768Y2261051D02*
X25755387Y2356289D01*
X25755387Y2356289D02*
X25755387Y2594384D01*
X25755387Y2594384D02*
X25707768Y2689622D01*
X25707768Y2689622D02*
X25660149Y2737241D01*
X25660149Y2737241D02*
X25564911Y2784860D01*
X25564911Y2784860D02*
X25374435Y2784860D01*
X25374435Y2784860D02*
X25279197Y2737241D01*
X25279197Y2737241D02*
X25231578Y2689622D01*
X25231578Y2689622D02*
X25183959Y2594384D01*
X20721101Y13955756D02*
X20387768Y14431947D01*
X20149673Y13955756D02*
X20149673Y14955756D01*
X20149673Y14955756D02*
X20530625Y14955756D01*
X20530625Y14955756D02*
X20625863Y14908137D01*
X20625863Y14908137D02*
X20673482Y14860518D01*
X20673482Y14860518D02*
X20721101Y14765280D01*
X20721101Y14765280D02*
X20721101Y14622423D01*
X20721101Y14622423D02*
X20673482Y14527185D01*
X20673482Y14527185D02*
X20625863Y14479566D01*
X20625863Y14479566D02*
X20530625Y14431947D01*
X20530625Y14431947D02*
X20149673Y14431947D01*
X21530625Y14003375D02*
X21435387Y13955756D01*
X21435387Y13955756D02*
X21244911Y13955756D01*
X21244911Y13955756D02*
X21149673Y14003375D01*
X21149673Y14003375D02*
X21102054Y14098614D01*
X21102054Y14098614D02*
X21102054Y14479566D01*
X21102054Y14479566D02*
X21149673Y14574804D01*
X21149673Y14574804D02*
X21244911Y14622423D01*
X21244911Y14622423D02*
X21435387Y14622423D01*
X21435387Y14622423D02*
X21530625Y14574804D01*
X21530625Y14574804D02*
X21578244Y14479566D01*
X21578244Y14479566D02*
X21578244Y14384328D01*
X21578244Y14384328D02*
X21102054Y14289090D01*
X21911578Y14622423D02*
X22149673Y13955756D01*
X22149673Y13955756D02*
X22387768Y14622423D01*
X22768721Y14050995D02*
X22816340Y14003375D01*
X22816340Y14003375D02*
X22768721Y13955756D01*
X22768721Y13955756D02*
X22721102Y14003375D01*
X22721102Y14003375D02*
X22768721Y14050995D01*
X22768721Y14050995D02*
X22768721Y13955756D01*
X22768721Y14574804D02*
X22816340Y14527185D01*
X22816340Y14527185D02*
X22768721Y14479566D01*
X22768721Y14479566D02*
X22721102Y14527185D01*
X22721102Y14527185D02*
X22768721Y14574804D01*
X22768721Y14574804D02*
X22768721Y14479566D01*
X24197292Y14955756D02*
X24292530Y14955756D01*
X24292530Y14955756D02*
X24387768Y14908137D01*
X24387768Y14908137D02*
X24435387Y14860518D01*
X24435387Y14860518D02*
X24483006Y14765280D01*
X24483006Y14765280D02*
X24530625Y14574804D01*
X24530625Y14574804D02*
X24530625Y14336709D01*
X24530625Y14336709D02*
X24483006Y14146233D01*
X24483006Y14146233D02*
X24435387Y14050995D01*
X24435387Y14050995D02*
X24387768Y14003375D01*
X24387768Y14003375D02*
X24292530Y13955756D01*
X24292530Y13955756D02*
X24197292Y13955756D01*
X24197292Y13955756D02*
X24102054Y14003375D01*
X24102054Y14003375D02*
X24054435Y14050995D01*
X24054435Y14050995D02*
X24006816Y14146233D01*
X24006816Y14146233D02*
X23959197Y14336709D01*
X23959197Y14336709D02*
X23959197Y14574804D01*
X23959197Y14574804D02*
X24006816Y14765280D01*
X24006816Y14765280D02*
X24054435Y14860518D01*
X24054435Y14860518D02*
X24102054Y14908137D01*
X24102054Y14908137D02*
X24197292Y14955756D01*
X21197292Y11964860D02*
X21149673Y12012479D01*
X21149673Y12012479D02*
X21054435Y12155336D01*
X21054435Y12155336D02*
X21006816Y12250574D01*
X21006816Y12250574D02*
X20959197Y12393431D01*
X20959197Y12393431D02*
X20911578Y12631527D01*
X20911578Y12631527D02*
X20911578Y12822003D01*
X20911578Y12822003D02*
X20959197Y13060098D01*
X20959197Y13060098D02*
X21006816Y13202955D01*
X21006816Y13202955D02*
X21054435Y13298193D01*
X21054435Y13298193D02*
X21149673Y13441051D01*
X21149673Y13441051D02*
X21197292Y13488670D01*
X22006816Y12345812D02*
X22006816Y13345812D01*
X22006816Y12393431D02*
X21911578Y12345812D01*
X21911578Y12345812D02*
X21721102Y12345812D01*
X21721102Y12345812D02*
X21625864Y12393431D01*
X21625864Y12393431D02*
X21578245Y12441051D01*
X21578245Y12441051D02*
X21530626Y12536289D01*
X21530626Y12536289D02*
X21530626Y12822003D01*
X21530626Y12822003D02*
X21578245Y12917241D01*
X21578245Y12917241D02*
X21625864Y12964860D01*
X21625864Y12964860D02*
X21721102Y13012479D01*
X21721102Y13012479D02*
X21911578Y13012479D01*
X21911578Y13012479D02*
X22006816Y12964860D01*
X22863959Y12393431D02*
X22768721Y12345812D01*
X22768721Y12345812D02*
X22578245Y12345812D01*
X22578245Y12345812D02*
X22483007Y12393431D01*
X22483007Y12393431D02*
X22435388Y12488670D01*
X22435388Y12488670D02*
X22435388Y12869622D01*
X22435388Y12869622D02*
X22483007Y12964860D01*
X22483007Y12964860D02*
X22578245Y13012479D01*
X22578245Y13012479D02*
X22768721Y13012479D01*
X22768721Y13012479D02*
X22863959Y12964860D01*
X22863959Y12964860D02*
X22911578Y12869622D01*
X22911578Y12869622D02*
X22911578Y12774384D01*
X22911578Y12774384D02*
X22435388Y12679146D01*
X23244912Y13012479D02*
X23483007Y12345812D01*
X23483007Y12345812D02*
X23721102Y13012479D01*
X24102055Y12345812D02*
X24102055Y13345812D01*
X24197293Y12726765D02*
X24483007Y12345812D01*
X24483007Y13012479D02*
X24102055Y12631527D01*
X24911579Y12345812D02*
X24911579Y13012479D01*
X24911579Y13345812D02*
X24863960Y13298193D01*
X24863960Y13298193D02*
X24911579Y13250574D01*
X24911579Y13250574D02*
X24959198Y13298193D01*
X24959198Y13298193D02*
X24911579Y13345812D01*
X24911579Y13345812D02*
X24911579Y13250574D01*
X25244912Y13012479D02*
X25625864Y13012479D01*
X25387769Y13345812D02*
X25387769Y12488670D01*
X25387769Y12488670D02*
X25435388Y12393431D01*
X25435388Y12393431D02*
X25530626Y12345812D01*
X25530626Y12345812D02*
X25625864Y12345812D01*
X25863960Y11964860D02*
X25911579Y12012479D01*
X25911579Y12012479D02*
X26006817Y12155336D01*
X26006817Y12155336D02*
X26054436Y12250574D01*
X26054436Y12250574D02*
X26102055Y12393431D01*
X26102055Y12393431D02*
X26149674Y12631527D01*
X26149674Y12631527D02*
X26149674Y12822003D01*
X26149674Y12822003D02*
X26102055Y13060098D01*
X26102055Y13060098D02*
X26054436Y13202955D01*
X26054436Y13202955D02*
X26006817Y13298193D01*
X26006817Y13298193D02*
X25911579Y13441051D01*
X25911579Y13441051D02*
X25863960Y13488670D01*
X19916816Y16705812D02*
X20488244Y16705812D01*
X20202530Y15705812D02*
X20202530Y16705812D01*
X20821578Y15705812D02*
X20821578Y16705812D01*
X20821578Y16229622D02*
X21393006Y16229622D01*
X21393006Y15705812D02*
X21393006Y16705812D01*
X21869197Y16086765D02*
X22631102Y16086765D01*
X23631101Y15705812D02*
X23059673Y15705812D01*
X23345387Y15705812D02*
X23345387Y16705812D01*
X23345387Y16705812D02*
X23250149Y16562955D01*
X23250149Y16562955D02*
X23154911Y16467717D01*
X23154911Y16467717D02*
X23059673Y16420098D01*
X24059673Y16086765D02*
X24821578Y16086765D01*
X25297768Y15705812D02*
X25297768Y16705812D01*
X25297768Y16705812D02*
X25631101Y15991527D01*
X25631101Y15991527D02*
X25964434Y16705812D01*
X25964434Y16705812D02*
X25964434Y15705812D01*
X26631101Y16705812D02*
X26821577Y16705812D01*
X26821577Y16705812D02*
X26916815Y16658193D01*
X26916815Y16658193D02*
X27012053Y16562955D01*
X27012053Y16562955D02*
X27059672Y16372479D01*
X27059672Y16372479D02*
X27059672Y16039146D01*
X27059672Y16039146D02*
X27012053Y15848670D01*
X27012053Y15848670D02*
X26916815Y15753431D01*
X26916815Y15753431D02*
X26821577Y15705812D01*
X26821577Y15705812D02*
X26631101Y15705812D01*
X26631101Y15705812D02*
X26535863Y15753431D01*
X26535863Y15753431D02*
X26440625Y15848670D01*
X26440625Y15848670D02*
X26393006Y16039146D01*
X26393006Y16039146D02*
X26393006Y16372479D01*
X26393006Y16372479D02*
X26440625Y16562955D01*
X26440625Y16562955D02*
X26535863Y16658193D01*
X26535863Y16658193D02*
X26631101Y16705812D01*
D11*
G36*
X27403537Y6141199D02*
G01*
X26968348Y6141199D01*
X26968348Y10221649D01*
X27403537Y10221649D01*
X27403537Y6141199D01*
G37*
G36*
X27651539Y3353616D02*
G01*
X27235076Y3353616D01*
X26720333Y4036798D01*
X27216360Y4036798D01*
X27651539Y3353616D01*
G37*
G36*
X30613612Y1734530D02*
G01*
X29027285Y1734530D01*
X29027285Y2193115D01*
X30613612Y2193115D01*
X30613612Y1734530D01*
G37*
G36*
X33248119Y1734530D02*
G01*
X31661794Y1734530D01*
X31661794Y2193115D01*
X33248119Y2193115D01*
X33248119Y1734530D01*
G37*
G36*
X35307061Y6141199D02*
G01*
X34871873Y6141199D01*
X34871873Y10221649D01*
X35307061Y10221649D01*
X35307061Y6141199D01*
G37*
G36*
X35555066Y3353616D02*
G01*
X35138596Y3353616D01*
X34623863Y4036798D01*
X35119879Y4036798D01*
X35555066Y3353616D01*
G37*
G36*
X29841504Y8990962D02*
G01*
X30622969Y8990962D01*
X30622969Y8616610D01*
X29836824Y8616610D01*
X29836824Y7315732D01*
X29837333Y7274855D01*
X29838872Y7236478D01*
X29841437Y7200573D01*
X29845018Y7167162D01*
X29849618Y7136231D01*
X29855252Y7107790D01*
X29858448Y7094502D01*
X29861903Y7081839D01*
X29865612Y7069782D01*
X29869578Y7058362D01*
X29873900Y7048042D01*
X29878648Y7038115D01*
X29883843Y7028589D01*
X29889468Y7019462D01*
X29895536Y7010744D01*
X29902047Y7002434D01*
X29908988Y6994520D01*
X29916375Y6987009D01*
X29924197Y6979901D01*
X29932463Y6973188D01*
X29941161Y6966879D01*
X29950298Y6960980D01*
X29959877Y6955477D01*
X29969894Y6950375D01*
X29980349Y6945677D01*
X29991246Y6941382D01*
X30002686Y6937978D01*
X30014792Y6934805D01*
X30027549Y6931840D01*
X30040961Y6929096D01*
X30055042Y6926571D01*
X30069772Y6924274D01*
X30085162Y6922191D01*
X30101206Y6920322D01*
X30135290Y6917253D01*
X30171988Y6915060D01*
X30211330Y6913744D01*
X30253293Y6913305D01*
X30277705Y6913449D01*
X30301846Y6913892D01*
X30325683Y6914621D01*
X30349217Y6915644D01*
X30372477Y6916959D01*
X30395431Y6918569D01*
X30418099Y6920474D01*
X30440469Y6922667D01*
X30493403Y6928523D01*
X30558624Y6936701D01*
X30636124Y6947229D01*
X30725911Y6960101D01*
X30725911Y6552992D01*
X30643729Y6542169D01*
X30570324Y6533101D01*
X30505683Y6525789D01*
X30449834Y6520239D01*
X30400111Y6513809D01*
X30353897Y6508539D01*
X30311202Y6504444D01*
X30272006Y6501516D01*
X30236332Y6499469D01*
X30199478Y6498009D01*
X30161459Y6497130D01*
X30122272Y6496832D01*
X30049665Y6497787D01*
X29981598Y6500636D01*
X29918057Y6505391D01*
X29859052Y6512043D01*
X29804579Y6520600D01*
X29754639Y6531051D01*
X29731371Y6536994D01*
X29709235Y6543415D01*
X29688236Y6550301D01*
X29668366Y6557670D01*
X29649454Y6565711D01*
X29631297Y6574629D01*
X29613914Y6584426D01*
X29597305Y6595104D01*
X29581450Y6606659D01*
X29566371Y6619096D01*
X29552059Y6632393D01*
X29538512Y6646575D01*
X29525737Y6661638D01*
X29513725Y6677577D01*
X29502485Y6694394D01*
X29492007Y6712089D01*
X29482304Y6730659D01*
X29473365Y6750109D01*
X29465203Y6770432D01*
X29457789Y6791641D01*
X29450996Y6813925D01*
X29444634Y6837485D01*
X29438708Y6862322D01*
X29433228Y6888446D01*
X29428183Y6915843D01*
X29423572Y6944526D01*
X29419404Y6974485D01*
X29415681Y7005724D01*
X29409538Y7072042D01*
X29405152Y7143476D01*
X29402520Y7220034D01*
X29401640Y7301697D01*
X29401640Y8616610D01*
X28812032Y8616611D01*
X28924341Y8990963D01*
X29406321Y8990963D01*
X29406321Y9515057D01*
X29841504Y9702234D01*
X29841504Y8990962D01*
G37*
G36*
X31980000Y8630653D02*
G01*
X31998710Y8630653D01*
X32013997Y8671450D01*
X32029427Y8709615D01*
X32044992Y8745152D01*
X32060712Y8778049D01*
X32076582Y8808316D01*
X32092598Y8835956D01*
X32108751Y8860959D01*
X32116888Y8872482D01*
X32125056Y8883340D01*
X32134014Y8894210D01*
X32143337Y8904618D01*
X32153027Y8914540D01*
X32163079Y8923985D01*
X32173499Y8932966D01*
X32184280Y8941469D01*
X32195430Y8949489D01*
X32206946Y8957035D01*
X32218829Y8964114D01*
X32231075Y8970708D01*
X32243689Y8976834D01*
X32256666Y8982483D01*
X32270012Y8987656D01*
X32283716Y8992360D01*
X32297796Y8996573D01*
X32312231Y9000326D01*
X32327203Y9004288D01*
X32342869Y9008002D01*
X32359229Y9011462D01*
X32376287Y9014657D01*
X32412479Y9020282D01*
X32451448Y9024885D01*
X32493198Y9028473D01*
X32537722Y9031032D01*
X32585025Y9032570D01*
X32635112Y9033075D01*
X32711157Y9031908D01*
X32782517Y9028400D01*
X32849196Y9022543D01*
X32911201Y9014363D01*
X32940443Y9009386D01*
X32968523Y9003831D01*
X32995427Y8997694D01*
X33021163Y8990963D01*
X33045732Y8983654D01*
X33069128Y8975752D01*
X33091361Y8967277D01*
X33112408Y8958204D01*
X33132467Y8948903D01*
X33151679Y8938542D01*
X33170043Y8927119D01*
X33187570Y8914631D01*
X33204257Y8901085D01*
X33220115Y8886479D01*
X33235123Y8870815D01*
X33249286Y8854091D01*
X33262610Y8836304D01*
X33275103Y8817460D01*
X33286742Y8797559D01*
X33297542Y8776585D01*
X33307505Y8754566D01*
X33316622Y8731482D01*
X33324904Y8707332D01*
X33332336Y8682119D01*
X33339712Y8656227D01*
X33346596Y8628816D01*
X33353021Y8599924D01*
X33358959Y8569523D01*
X33364429Y8537635D01*
X33369414Y8504228D01*
X33377971Y8432942D01*
X33384623Y8355665D01*
X33389376Y8272384D01*
X33392227Y8183108D01*
X33393179Y8087834D01*
X33393179Y6543631D01*
X32943954Y6543631D01*
X32943954Y8087834D01*
X32943368Y8142311D01*
X32941618Y8193417D01*
X32938689Y8241157D01*
X32934594Y8285546D01*
X32929334Y8326563D01*
X32922899Y8364218D01*
X32915292Y8398505D01*
X32906523Y8429434D01*
X32902189Y8443745D01*
X32897381Y8457439D01*
X32892097Y8470512D01*
X32886339Y8482949D01*
X32880108Y8494781D01*
X32873398Y8505990D01*
X32866207Y8516574D01*
X32858553Y8526536D01*
X32850421Y8535873D01*
X32841811Y8544595D01*
X32832726Y8552684D01*
X32823161Y8560161D01*
X32813129Y8567021D01*
X32802620Y8573249D01*
X32791639Y8578857D01*
X32780167Y8583851D01*
X32768146Y8588950D01*
X32755465Y8593727D01*
X32742119Y8598165D01*
X32728113Y8602278D01*
X32713457Y8606068D01*
X32698142Y8609521D01*
X32682163Y8612647D01*
X32665527Y8615445D01*
X32648242Y8617907D01*
X32630287Y8620053D01*
X32611674Y8621853D01*
X32592412Y8623337D01*
X32572489Y8624490D01*
X32551905Y8625314D01*
X32530670Y8625803D01*
X32508771Y8625971D01*
X32481677Y8625717D01*
X32455391Y8624949D01*
X32429915Y8623665D01*
X32405233Y8621872D01*
X32381368Y8619566D01*
X32358297Y8616757D01*
X32336028Y8613428D01*
X32314567Y8609591D01*
X32293919Y8605245D01*
X32274070Y8600381D01*
X32255030Y8595007D01*
X32236780Y8589116D01*
X32219339Y8582718D01*
X32202704Y8575816D01*
X32186875Y8568395D01*
X32171851Y8560464D01*
X32164904Y8556539D01*
X32158085Y8552379D01*
X32151408Y8547976D01*
X32144873Y8543350D01*
X32138472Y8538479D01*
X32132198Y8533368D01*
X32126079Y8528017D01*
X32120083Y8522434D01*
X32114231Y8516618D01*
X32108513Y8510552D01*
X32102940Y8504264D01*
X32097485Y8497722D01*
X32092185Y8490952D01*
X32087017Y8483942D01*
X32077091Y8469203D01*
X32067714Y8453527D01*
X32058891Y8436889D01*
X32050606Y8419308D01*
X32042872Y8400773D01*
X32035691Y8381290D01*
X32029052Y8360851D01*
X32022970Y8339465D01*
X32017431Y8317134D01*
X32008654Y8270041D01*
X32001054Y8217689D01*
X31994617Y8160079D01*
X31989353Y8097195D01*
X31985260Y8029057D01*
X31982333Y7955644D01*
X31980580Y7876968D01*
X31980000Y7793031D01*
X31980000Y6543631D01*
X31530775Y6543631D01*
X31530775Y9978316D01*
X31980000Y9978316D01*
X31980000Y8630653D01*
G37*
G36*
X30599573Y15620355D02*
G01*
X30550364Y15617139D01*
X30526581Y15614874D01*
X30503350Y15612165D01*
X30480668Y15609023D01*
X30458527Y15605441D01*
X30436940Y15601421D01*
X30415899Y15596956D01*
X30395411Y15592067D01*
X30375464Y15586726D01*
X30356077Y15580945D01*
X30337230Y15574731D01*
X30318936Y15568076D01*
X30301190Y15560987D01*
X30283982Y15553455D01*
X30267327Y15545484D01*
X30251155Y15537534D01*
X30235377Y15528892D01*
X30220007Y15519544D01*
X30205032Y15509513D01*
X30190469Y15498784D01*
X30176308Y15487354D01*
X30162541Y15475236D01*
X30149177Y15462420D01*
X30136215Y15448920D01*
X30123658Y15434717D01*
X30111503Y15419819D01*
X30099751Y15404221D01*
X30088401Y15387938D01*
X30077453Y15370963D01*
X30066901Y15353282D01*
X30056758Y15334906D01*
X30047530Y15316323D01*
X30038558Y15296815D01*
X30029829Y15276397D01*
X30021370Y15255066D01*
X30013163Y15232818D01*
X30005209Y15209659D01*
X29997513Y15185590D01*
X29990079Y15160600D01*
X29982896Y15134701D01*
X29975964Y15107888D01*
X29962880Y15051514D01*
X29950816Y14991489D01*
X29939765Y14927802D01*
X29931800Y14876839D01*
X29924271Y14824570D01*
X29917184Y14770969D01*
X29910529Y14716063D01*
X29904310Y14659827D01*
X29898538Y14602291D01*
X29888298Y14483263D01*
X29882161Y14364517D01*
X29877776Y14246950D01*
X29875138Y14130555D01*
X29874268Y14015315D01*
X29875138Y13895697D01*
X29877776Y13775496D01*
X29882161Y13654705D01*
X29888298Y13533327D01*
X29898538Y13416646D01*
X29910529Y13305215D01*
X29924271Y13199049D01*
X29931800Y13147945D01*
X29939765Y13098148D01*
X29950744Y13037684D01*
X29962587Y12980290D01*
X29975309Y12925962D01*
X29988912Y12874709D01*
X30003382Y12826518D01*
X30018732Y12781410D01*
X30034971Y12739376D01*
X30052075Y12700401D01*
X30061661Y12681974D01*
X30071676Y12664135D01*
X30082127Y12646878D01*
X30093023Y12630210D01*
X30104358Y12614124D01*
X30116131Y12598623D01*
X30128340Y12583706D01*
X30140986Y12569378D01*
X30154073Y12555636D01*
X30167604Y12542471D01*
X30181567Y12529900D01*
X30195972Y12517905D01*
X30210819Y12506498D01*
X30226095Y12495678D01*
X30241815Y12485440D01*
X30257971Y12475787D01*
X30274664Y12466633D01*
X30291977Y12457876D01*
X30309905Y12449525D01*
X30328461Y12441575D01*
X30347631Y12434022D01*
X30367425Y12426881D01*
X30387845Y12420127D01*
X30408887Y12413787D01*
X30430542Y12407852D01*
X30452825Y12402304D01*
X30475726Y12397171D01*
X30499253Y12392440D01*
X30523406Y12388107D01*
X30548171Y12384173D01*
X30573561Y12380648D01*
X30599573Y12377526D01*
X30604249Y11928296D01*
X30562043Y11928135D01*
X30520821Y11928812D01*
X30480584Y11930325D01*
X30441351Y11932687D01*
X30403089Y11935886D01*
X30365817Y11939923D01*
X30329536Y11944806D01*
X30294242Y11950527D01*
X30259928Y11957093D01*
X30226602Y11964491D01*
X30194268Y11972731D01*
X30162924Y11981817D01*
X30132564Y11991744D01*
X30103185Y12002508D01*
X30074798Y12014116D01*
X30047397Y12026567D01*
X30020838Y12039362D01*
X29994975Y12053176D01*
X29969804Y12068023D01*
X29945329Y12083889D01*
X29921549Y12100778D01*
X29898457Y12118698D01*
X29876068Y12137630D01*
X29854372Y12157588D01*
X29833368Y12178567D01*
X29813065Y12200578D01*
X29793450Y12223614D01*
X29774532Y12247667D01*
X29756306Y12272747D01*
X29738774Y12298854D01*
X29721944Y12325977D01*
X29705799Y12354126D01*
X29690231Y12382822D01*
X29675090Y12412767D01*
X29660398Y12443951D01*
X29646133Y12476367D01*
X29632324Y12510045D01*
X29618941Y12544957D01*
X29606002Y12581112D01*
X29593497Y12618504D01*
X29581429Y12657155D01*
X29569807Y12697045D01*
X29558623Y12738164D01*
X29547868Y12780544D01*
X29527694Y12869007D01*
X29509266Y12962451D01*
X29499028Y13018014D01*
X29489378Y13074753D01*
X29480311Y13132665D01*
X29471830Y13191740D01*
X29463945Y13251986D01*
X29456624Y13313402D01*
X29449896Y13375994D01*
X29443753Y13439748D01*
X29435571Y13572233D01*
X29429721Y13707646D01*
X29426206Y13845979D01*
X29425039Y13987241D01*
X29426206Y14121482D01*
X29429721Y14257479D01*
X29435571Y14395225D01*
X29443753Y14534731D01*
X29456624Y14672481D01*
X29463945Y14739384D01*
X29471830Y14804969D01*
X29480311Y14869232D01*
X29489378Y14932187D01*
X29499028Y14993825D01*
X29509266Y15054148D01*
X29527910Y15156222D01*
X29548748Y15251857D01*
X29571778Y15341052D01*
X29584119Y15383244D01*
X29597004Y15423819D01*
X29610441Y15462792D01*
X29624426Y15500153D01*
X29638952Y15535910D01*
X29654036Y15570061D01*
X29669665Y15602590D01*
X29685846Y15633519D01*
X29702565Y15662834D01*
X29719842Y15690546D01*
X29737684Y15717489D01*
X29756106Y15743342D01*
X29775117Y15768084D01*
X29794711Y15791742D01*
X29814885Y15814297D01*
X29835656Y15835760D01*
X29857006Y15856116D01*
X29878942Y15875389D01*
X29901467Y15893554D01*
X29924565Y15910629D01*
X29948257Y15926605D01*
X29972532Y15941483D01*
X29997386Y15955261D01*
X30022829Y15967949D01*
X30048858Y15979544D01*
X30075473Y15990034D01*
X30103311Y15999680D01*
X30131848Y16008750D01*
X30161078Y16017230D01*
X30191002Y16025127D01*
X30221620Y16032437D01*
X30252929Y16039161D01*
X30284936Y16045307D01*
X30317637Y16050866D01*
X30351032Y16055836D01*
X30385117Y16060223D01*
X30419904Y16064030D01*
X30455390Y16067238D01*
X30528434Y16071916D01*
X30604249Y16074260D01*
X30599573Y15620355D01*
G37*
G36*
X33234085Y15620355D02*
G01*
X33184871Y15617139D01*
X33161091Y15614874D01*
X33137858Y15612165D01*
X33115171Y15609023D01*
X33093037Y15605441D01*
X33071450Y15601421D01*
X33050411Y15596956D01*
X33029917Y15592067D01*
X33009971Y15586726D01*
X32990591Y15580945D01*
X32971736Y15574731D01*
X32953441Y15568076D01*
X32935694Y15560987D01*
X32918491Y15553455D01*
X32901841Y15545484D01*
X32885661Y15537534D01*
X32869889Y15528892D01*
X32854512Y15519544D01*
X32839549Y15509513D01*
X32824975Y15498784D01*
X32810810Y15487354D01*
X32797047Y15475236D01*
X32783682Y15462420D01*
X32770729Y15448920D01*
X32758171Y15434717D01*
X32746008Y15419819D01*
X32734260Y15404221D01*
X32722907Y15387938D01*
X32711960Y15370963D01*
X32701413Y15353282D01*
X32691267Y15334906D01*
X32682038Y15316323D01*
X32673060Y15296815D01*
X32664339Y15276397D01*
X32655876Y15255066D01*
X32647670Y15232818D01*
X32639723Y15209659D01*
X32632022Y15185590D01*
X32624584Y15160600D01*
X32617404Y15134701D01*
X32610469Y15107888D01*
X32597383Y15051514D01*
X32585324Y14991489D01*
X32574278Y14927802D01*
X32566312Y14876839D01*
X32558783Y14824570D01*
X32551685Y14770969D01*
X32545033Y14716063D01*
X32538820Y14659827D01*
X32533038Y14602291D01*
X32522811Y14483263D01*
X32516662Y14364517D01*
X32512284Y14246950D01*
X32509648Y14130555D01*
X32508771Y14015315D01*
X32509648Y13895697D01*
X32512284Y13775496D01*
X32516662Y13654705D01*
X32522811Y13533327D01*
X32533038Y13416646D01*
X32545033Y13305215D01*
X32558783Y13199049D01*
X32566312Y13147945D01*
X32574278Y13098148D01*
X32585246Y13037684D01*
X32597096Y12980290D01*
X32609813Y12925962D01*
X32623415Y12874709D01*
X32637886Y12826518D01*
X32653246Y12781410D01*
X32669478Y12739376D01*
X32686586Y12700401D01*
X32696163Y12681974D01*
X32706184Y12664135D01*
X32716637Y12646878D01*
X32727531Y12630210D01*
X32738863Y12614124D01*
X32750638Y12598623D01*
X32762850Y12583706D01*
X32775497Y12569378D01*
X32788588Y12555636D01*
X32802109Y12542471D01*
X32816072Y12529900D01*
X32830480Y12517905D01*
X32845316Y12506498D01*
X32860603Y12495678D01*
X32876327Y12485440D01*
X32892482Y12475787D01*
X32909174Y12466633D01*
X32926480Y12457876D01*
X32944409Y12449525D01*
X32962970Y12441575D01*
X32982137Y12434022D01*
X33001939Y12426881D01*
X33022356Y12420127D01*
X33043393Y12413787D01*
X33065046Y12407852D01*
X33087338Y12402304D01*
X33110231Y12397171D01*
X33133761Y12392440D01*
X33157911Y12388107D01*
X33182676Y12384173D01*
X33208067Y12380648D01*
X33234085Y12377526D01*
X33238760Y11928296D01*
X33196552Y11928135D01*
X33155334Y11928812D01*
X33115100Y11930325D01*
X33075859Y11932687D01*
X33037598Y11935886D01*
X33000330Y11939923D01*
X32964044Y11944806D01*
X32928752Y11950527D01*
X32894438Y11957093D01*
X32861113Y11964491D01*
X32828777Y11972731D01*
X32797426Y11981817D01*
X32767069Y11991744D01*
X32737699Y12002508D01*
X32709305Y12014116D01*
X32681909Y12026567D01*
X32655340Y12039362D01*
X32629479Y12053176D01*
X32604320Y12068023D01*
X32579834Y12083889D01*
X32556056Y12100778D01*
X32532968Y12118698D01*
X32510579Y12137630D01*
X32488878Y12157588D01*
X32467879Y12178567D01*
X32447574Y12200578D01*
X32427958Y12223614D01*
X32409041Y12247667D01*
X32390822Y12272747D01*
X32373290Y12298854D01*
X32356449Y12325977D01*
X32340307Y12354126D01*
X32324733Y12382822D01*
X32309604Y12412767D01*
X32294903Y12443951D01*
X32280652Y12476367D01*
X32266832Y12510045D01*
X32253449Y12544957D01*
X32240510Y12581112D01*
X32228003Y12618504D01*
X32215940Y12657155D01*
X32204320Y12697045D01*
X32193124Y12738164D01*
X32182380Y12780544D01*
X32162196Y12869007D01*
X32143775Y12962451D01*
X32133534Y13018014D01*
X32123888Y13074753D01*
X32114827Y13132665D01*
X32106344Y13191740D01*
X32098444Y13251986D01*
X32091134Y13313402D01*
X32084408Y13375994D01*
X32078262Y13439748D01*
X32070073Y13572233D01*
X32064224Y13707646D01*
X32060714Y13845979D01*
X32059547Y13987241D01*
X32060714Y14121482D01*
X32064224Y14257479D01*
X32070073Y14395225D01*
X32078262Y14534731D01*
X32091134Y14672481D01*
X32098444Y14739384D01*
X32106344Y14804969D01*
X32114827Y14869232D01*
X32123888Y14932187D01*
X32133534Y14993825D01*
X32143775Y15054148D01*
X32162422Y15156222D01*
X32183258Y15251857D01*
X32206288Y15341052D01*
X32218627Y15383244D01*
X32231509Y15423819D01*
X32244953Y15462792D01*
X32258933Y15500153D01*
X32273465Y15535910D01*
X32288547Y15570061D01*
X32304167Y15602590D01*
X32320346Y15633519D01*
X32337077Y15662834D01*
X32354344Y15690546D01*
X32372183Y15717489D01*
X32390618Y15743342D01*
X32409623Y15768084D01*
X32429224Y15791742D01*
X32449396Y15814297D01*
X32470157Y15835760D01*
X32491516Y15856116D01*
X32513454Y15875389D01*
X32535967Y15893554D01*
X32559078Y15910629D01*
X32582760Y15926605D01*
X32607041Y15941483D01*
X32631901Y15955261D01*
X32657345Y15967949D01*
X32683370Y15979544D01*
X32709983Y15990034D01*
X32737825Y15999680D01*
X32766354Y16008750D01*
X32795581Y16017230D01*
X32825508Y16025127D01*
X32856119Y16032437D01*
X32887433Y16039161D01*
X32919442Y16045307D01*
X32952141Y16050866D01*
X32985535Y16055836D01*
X33019629Y16060223D01*
X33054413Y16064030D01*
X33089898Y16067238D01*
X33162940Y16071916D01*
X33238760Y16074260D01*
X33234085Y15620355D01*
G37*
G36*
X38284263Y9771987D02*
G01*
X38329665Y9770675D01*
X38372585Y9768479D01*
X38413016Y9765408D01*
X38450962Y9761461D01*
X38486427Y9756628D01*
X38519404Y9750926D01*
X38549892Y9744347D01*
X38564273Y9741187D01*
X38578179Y9737545D01*
X38591619Y9733438D01*
X38604581Y9728851D01*
X38617067Y9723784D01*
X38629079Y9718251D01*
X38640608Y9712230D01*
X38651668Y9705746D01*
X38662247Y9698777D01*
X38672360Y9691339D01*
X38681989Y9683424D01*
X38691149Y9675035D01*
X38699831Y9666165D01*
X38708036Y9656828D01*
X38715772Y9647018D01*
X38723035Y9636724D01*
X38730451Y9626413D01*
X38737500Y9615373D01*
X38744199Y9603600D01*
X38750524Y9591100D01*
X38756476Y9577862D01*
X38762073Y9563897D01*
X38767296Y9549207D01*
X38772162Y9533782D01*
X38776664Y9517616D01*
X38780793Y9500728D01*
X38784552Y9483107D01*
X38787954Y9464761D01*
X38790996Y9445669D01*
X38793656Y9425865D01*
X38795959Y9405307D01*
X38797898Y9384033D01*
X38802286Y9338846D01*
X38806086Y9289867D01*
X38809301Y9237075D01*
X38811936Y9180478D01*
X38813984Y9120085D01*
X38815451Y9055893D01*
X38816326Y8987892D01*
X38816621Y8916085D01*
X38816621Y8705520D01*
X38811936Y7044326D01*
X38592010Y7044326D01*
X38585680Y7044414D01*
X38579576Y7044692D01*
X38573690Y7045152D01*
X38568023Y7045786D01*
X38562576Y7046618D01*
X38557345Y7047618D01*
X38552339Y7048807D01*
X38547549Y7050178D01*
X38542978Y7051730D01*
X38538625Y7053468D01*
X38534499Y7055387D01*
X38530591Y7057493D01*
X38526892Y7059775D01*
X38523428Y7062241D01*
X38520166Y7064892D01*
X38517134Y7067724D01*
X38514717Y7071581D01*
X38512159Y7076137D01*
X38509459Y7081383D01*
X38506606Y7087322D01*
X38503604Y7093958D01*
X38500461Y7101285D01*
X38493736Y7118033D01*
X38486427Y7137550D01*
X38478527Y7159852D01*
X38470049Y7184931D01*
X38460981Y7212789D01*
X38428221Y7212789D01*
X38416672Y7192464D01*
X38405414Y7173593D01*
X38394448Y7156195D01*
X38383770Y7140260D01*
X38373390Y7125777D01*
X38363299Y7112766D01*
X38353502Y7101216D01*
X38348706Y7095987D01*
X38343998Y7091122D01*
X38339234Y7086556D01*
X38334274Y7082203D01*
X38329139Y7078070D01*
X38323818Y7074155D01*
X38318318Y7070466D01*
X38312627Y7066991D01*
X38306767Y7063741D01*
X38300711Y7060707D01*
X38294473Y7057888D01*
X38288062Y7055300D01*
X38281461Y7052922D01*
X38274682Y7050762D01*
X38267724Y7048829D01*
X38260570Y7047107D01*
X38253243Y7045608D01*
X38245724Y7044326D01*
X38230811Y7042139D01*
X38214148Y7040232D01*
X38195717Y7038628D01*
X38175542Y7037306D01*
X38153602Y7036288D01*
X38129910Y7035551D01*
X38104466Y7035120D01*
X38077268Y7034967D01*
X38020240Y7035335D01*
X37966136Y7036438D01*
X37914947Y7038263D01*
X37866693Y7040819D01*
X37821356Y7044109D01*
X37778957Y7048131D01*
X37739472Y7052884D01*
X37702917Y7058365D01*
X37685642Y7062101D01*
X37668920Y7066259D01*
X37652740Y7070870D01*
X37637114Y7075911D01*
X37622032Y7081399D01*
X37607502Y7087322D01*
X37593520Y7093686D01*
X37580080Y7100484D01*
X37567195Y7107725D01*
X37554864Y7115399D01*
X37543068Y7123520D01*
X37531832Y7132064D01*
X37521131Y7141058D01*
X37510987Y7150489D01*
X37501391Y7160366D01*
X37492341Y7170677D01*
X37484334Y7182137D01*
X37476698Y7194289D01*
X37469419Y7207135D01*
X37462512Y7220683D01*
X37455965Y7234926D01*
X37449790Y7249857D01*
X37443978Y7265485D01*
X37438526Y7281812D01*
X37433449Y7298827D01*
X37428730Y7316542D01*
X37424383Y7334940D01*
X37420399Y7354047D01*
X37416781Y7373843D01*
X37413523Y7394333D01*
X37410629Y7415518D01*
X37408108Y7437399D01*
X37403723Y7483755D01*
X37399927Y7533913D01*
X37396711Y7587872D01*
X37394079Y7645633D01*
X37392029Y7707198D01*
X37390568Y7772563D01*
X37389689Y7841732D01*
X37389418Y7910014D01*
X37773105Y7910014D01*
X37773406Y7855696D01*
X37774276Y7805021D01*
X37775736Y7758010D01*
X37777789Y7714649D01*
X37780418Y7674952D01*
X37783634Y7638903D01*
X37787440Y7606517D01*
X37791823Y7577780D01*
X37794930Y7565187D01*
X37798403Y7553147D01*
X37802241Y7541643D01*
X37806447Y7530704D01*
X37811014Y7520292D01*
X37815950Y7510442D01*
X37821253Y7501136D01*
X37826919Y7492382D01*
X37832953Y7484168D01*
X37839348Y7476513D01*
X37846113Y7469410D01*
X37853245Y7462846D01*
X37860736Y7456832D01*
X37868598Y7451367D01*
X37876820Y7446448D01*
X37885415Y7442079D01*
X37895102Y7438675D01*
X37905447Y7435502D01*
X37916450Y7432539D01*
X37928113Y7429794D01*
X37940433Y7427276D01*
X37953406Y7424969D01*
X37967046Y7422886D01*
X37981343Y7421020D01*
X37996288Y7419378D01*
X38011906Y7417949D01*
X38028168Y7416747D01*
X38045100Y7415757D01*
X38080926Y7414436D01*
X38119385Y7414007D01*
X38152132Y7414436D01*
X38182554Y7415757D01*
X38210630Y7417949D01*
X38236375Y7421020D01*
X38248362Y7422886D01*
X38259764Y7424969D01*
X38270587Y7427276D01*
X38280824Y7429794D01*
X38290472Y7432539D01*
X38299537Y7435502D01*
X38308022Y7438675D01*
X38315916Y7442079D01*
X38319969Y7444195D01*
X38323921Y7446448D01*
X38327790Y7448835D01*
X38331568Y7451367D01*
X38335244Y7454026D01*
X38338836Y7456832D01*
X38342338Y7459766D01*
X38345747Y7462846D01*
X38349063Y7466054D01*
X38352295Y7469410D01*
X38355427Y7472889D01*
X38358473Y7476513D01*
X38361424Y7480277D01*
X38364285Y7484168D01*
X38367051Y7488206D01*
X38369731Y7492382D01*
X38372317Y7496698D01*
X38374814Y7501136D01*
X38379532Y7510442D01*
X38383878Y7520292D01*
X38387861Y7530704D01*
X38391489Y7541643D01*
X38394736Y7553147D01*
X38397624Y7565187D01*
X38400147Y7577780D01*
X38404534Y7605347D01*
X38408339Y7636570D01*
X38411554Y7671438D01*
X38414185Y7709973D01*
X38416229Y7752164D01*
X38417699Y7798008D01*
X38418575Y7847499D01*
X38418867Y7900660D01*
X38418575Y7957174D01*
X38417699Y8009745D01*
X38416229Y8058371D01*
X38414185Y8103042D01*
X38411554Y8143768D01*
X38408339Y8180551D01*
X38404534Y8213381D01*
X38400147Y8242257D01*
X38397624Y8255396D01*
X38394736Y8267927D01*
X38391489Y8279822D01*
X38387861Y8291098D01*
X38383878Y8301762D01*
X38379532Y8311789D01*
X38374814Y8321204D01*
X38369731Y8329994D01*
X38364285Y8338168D01*
X38358473Y8345719D01*
X38352295Y8352640D01*
X38345747Y8358948D01*
X38338836Y8364636D01*
X38331568Y8369691D01*
X38323921Y8374142D01*
X38315916Y8377959D01*
X38308022Y8381929D01*
X38299537Y8385645D01*
X38290472Y8389093D01*
X38280824Y8392291D01*
X38270587Y8395232D01*
X38259764Y8397921D01*
X38248362Y8400357D01*
X38236375Y8402520D01*
X38223791Y8404448D01*
X38210630Y8406110D01*
X38196887Y8407518D01*
X38182554Y8408668D01*
X38167642Y8409564D01*
X38152132Y8410206D01*
X38136059Y8410587D01*
X38119385Y8410719D01*
X38080926Y8410206D01*
X38045100Y8408668D01*
X38011906Y8406110D01*
X37981343Y8402520D01*
X37953406Y8397921D01*
X37940433Y8395232D01*
X37928113Y8392291D01*
X37916450Y8389093D01*
X37905447Y8385645D01*
X37895102Y8381929D01*
X37885415Y8377959D01*
X37881071Y8376125D01*
X37876820Y8374142D01*
X37872664Y8372002D01*
X37868598Y8369691D01*
X37864624Y8367244D01*
X37860736Y8364636D01*
X37856941Y8361870D01*
X37853245Y8358948D01*
X37849627Y8355872D01*
X37846113Y8352640D01*
X37842689Y8349264D01*
X37839348Y8345719D01*
X37836110Y8342027D01*
X37832953Y8338168D01*
X37829895Y8334157D01*
X37826919Y8329994D01*
X37824039Y8325677D01*
X37821253Y8321204D01*
X37815950Y8311789D01*
X37811014Y8301762D01*
X37806447Y8291098D01*
X37802241Y8279822D01*
X37798403Y8267927D01*
X37794930Y8255396D01*
X37791823Y8242257D01*
X37787440Y8214551D01*
X37783634Y8182887D01*
X37780418Y8147280D01*
X37777789Y8107724D01*
X37775736Y8064223D01*
X37774276Y8016767D01*
X37773406Y7965372D01*
X37773105Y7910014D01*
X37389418Y7910014D01*
X37389392Y7914703D01*
X37390568Y8056540D01*
X37394079Y8182596D01*
X37396711Y8239703D01*
X37399927Y8292855D01*
X37403723Y8342061D01*
X37408108Y8387316D01*
X37410612Y8409184D01*
X37413450Y8430310D01*
X37416613Y8450718D01*
X37420103Y8470376D01*
X37423924Y8489316D01*
X37428072Y8507524D01*
X37432559Y8525003D01*
X37437359Y8541737D01*
X37442495Y8557751D01*
X37447960Y8573031D01*
X37453759Y8587586D01*
X37459880Y8601405D01*
X37466327Y8614495D01*
X37473112Y8626846D01*
X37480225Y8638475D01*
X37487663Y8649373D01*
X37496088Y8660227D01*
X37504993Y8670575D01*
X37514371Y8680408D01*
X37524219Y8689727D01*
X37534545Y8698539D01*
X37545351Y8706831D01*
X37556626Y8714620D01*
X37568380Y8721895D01*
X37580614Y8728659D01*
X37593318Y8734913D01*
X37606494Y8740654D01*
X37620152Y8745879D01*
X37634278Y8750601D01*
X37648884Y8754802D01*
X37663962Y8758489D01*
X37679517Y8761671D01*
X37713740Y8768255D01*
X37750876Y8773953D01*
X37790948Y8778785D01*
X37833938Y8782733D01*
X37879857Y8785802D01*
X37928702Y8787992D01*
X37980462Y8789308D01*
X38035154Y8789752D01*
X38057893Y8789526D01*
X38079316Y8788869D01*
X38099422Y8787776D01*
X38118212Y8786244D01*
X38135686Y8784264D01*
X38151851Y8781856D01*
X38166691Y8779007D01*
X38180218Y8775715D01*
X38186633Y8774430D01*
X38193014Y8772934D01*
X38199356Y8771210D01*
X38205661Y8769278D01*
X38211930Y8767117D01*
X38218161Y8764740D01*
X38224360Y8762150D01*
X38230518Y8759333D01*
X38236644Y8756300D01*
X38242729Y8753046D01*
X38248783Y8749569D01*
X38254791Y8745879D01*
X38260770Y8741971D01*
X38266709Y8737836D01*
X38272613Y8733487D01*
X38278487Y8728918D01*
X38285013Y8724052D01*
X38291723Y8718829D01*
X38298607Y8713234D01*
X38305686Y8707277D01*
X38320373Y8694263D01*
X38335805Y8679783D01*
X38351964Y8663842D01*
X38368855Y8646442D01*
X38386474Y8627580D01*
X38404820Y8607250D01*
X38437582Y8607250D01*
X38437582Y8916085D01*
X38436704Y9014361D01*
X38435608Y9058232D01*
X38434072Y9098593D01*
X38432099Y9135435D01*
X38429686Y9168780D01*
X38426829Y9198615D01*
X38423541Y9224939D01*
X38422241Y9237513D01*
X38420693Y9249501D01*
X38418886Y9260912D01*
X38416815Y9271733D01*
X38414494Y9281967D01*
X38411915Y9291619D01*
X38409085Y9300689D01*
X38405993Y9309167D01*
X38402648Y9317059D01*
X38399049Y9324376D01*
X38395194Y9331101D01*
X38391077Y9337245D01*
X38386712Y9342800D01*
X38382088Y9347769D01*
X38377206Y9352150D01*
X38372071Y9355961D01*
X38366607Y9359357D01*
X38360745Y9362543D01*
X38354464Y9365503D01*
X38347797Y9368242D01*
X38340723Y9370764D01*
X38333248Y9373063D01*
X38325367Y9375147D01*
X38317087Y9377014D01*
X38308411Y9378658D01*
X38299319Y9380085D01*
X38289836Y9381295D01*
X38279943Y9382280D01*
X38269655Y9383048D01*
X38258966Y9383596D01*
X38247865Y9383923D01*
X38236375Y9384033D01*
X37375350Y9384033D01*
X37336893Y9383596D01*
X37301071Y9382280D01*
X37267878Y9380085D01*
X37237313Y9377014D01*
X37209382Y9373063D01*
X37184084Y9368242D01*
X37172419Y9365503D01*
X37161422Y9362543D01*
X37151079Y9359357D01*
X37141384Y9355961D01*
X37137040Y9354134D01*
X37132795Y9352175D01*
X37128629Y9350081D01*
X37124570Y9347841D01*
X37120594Y9345474D01*
X37116708Y9342963D01*
X37112918Y9340322D01*
X37109217Y9337530D01*
X37105600Y9334616D01*
X37102088Y9331556D01*
X37098658Y9328356D01*
X37095322Y9325031D01*
X37092074Y9321558D01*
X37088926Y9317954D01*
X37085867Y9314218D01*
X37082896Y9310336D01*
X37077230Y9302168D01*
X37071924Y9293438D01*
X37066987Y9284180D01*
X37062426Y9274361D01*
X37058215Y9263996D01*
X37054374Y9253085D01*
X37050905Y9241620D01*
X37047796Y9229610D01*
X37043409Y9204458D01*
X37039602Y9175797D01*
X37036396Y9143634D01*
X37033761Y9107950D01*
X37031719Y9068756D01*
X37030249Y9026055D01*
X37029372Y8979858D01*
X37029081Y8930132D01*
X37029081Y6927340D01*
X37029372Y6884355D01*
X37030249Y6844278D01*
X37031719Y6807140D01*
X37033761Y6772923D01*
X37036396Y6741630D01*
X37039602Y6713260D01*
X37043409Y6687814D01*
X37047796Y6665295D01*
X37050905Y6654987D01*
X37054374Y6645121D01*
X37058215Y6635691D01*
X37062426Y6626687D01*
X37066987Y6618134D01*
X37071924Y6610020D01*
X37077230Y6602346D01*
X37082896Y6595104D01*
X37088926Y6588308D01*
X37095322Y6581944D01*
X37102088Y6576022D01*
X37109217Y6570536D01*
X37116708Y6565496D01*
X37124570Y6560886D01*
X37132795Y6556720D01*
X37141384Y6552992D01*
X37150466Y6550161D01*
X37160174Y6547509D01*
X37170507Y6545039D01*
X37181455Y6542756D01*
X37193016Y6540652D01*
X37205217Y6538730D01*
X37218026Y6536994D01*
X37231462Y6535445D01*
X37260200Y6532880D01*
X37291424Y6531051D01*
X37325125Y6529959D01*
X37361321Y6529590D01*
X38110026Y6529590D01*
X38110025Y6141199D01*
X37370675Y6141199D01*
X37308013Y6141571D01*
X37248719Y6142665D01*
X37192789Y6144485D01*
X37140216Y6147048D01*
X37091009Y6150349D01*
X37045167Y6154362D01*
X37002687Y6159116D01*
X36963569Y6164598D01*
X36945141Y6167719D01*
X36927308Y6171254D01*
X36910047Y6175178D01*
X36893379Y6179516D01*
X36877292Y6184254D01*
X36861794Y6189388D01*
X36846874Y6194918D01*
X36832543Y6200867D01*
X36818797Y6207211D01*
X36805640Y6213954D01*
X36793067Y6221103D01*
X36781071Y6228648D01*
X36769672Y6236603D01*
X36758849Y6244955D01*
X36748613Y6253711D01*
X36738959Y6262875D01*
X36730368Y6272557D01*
X36722141Y6282895D01*
X36714278Y6293906D01*
X36706788Y6305563D01*
X36699655Y6317889D01*
X36692900Y6330863D01*
X36686495Y6344496D01*
X36680464Y6358798D01*
X36674793Y6373746D01*
X36669498Y6389358D01*
X36664566Y6405629D01*
X36659995Y6422554D01*
X36655788Y6440134D01*
X36651947Y6458376D01*
X36648474Y6477279D01*
X36645366Y6496832D01*
X36639888Y6537195D01*
X36635133Y6581065D01*
X36631114Y6628445D01*
X36627825Y6679338D01*
X36625260Y6733734D01*
X36623435Y6791641D01*
X36622336Y6853060D01*
X36621969Y6917984D01*
X36621969Y8920769D01*
X36622336Y8991477D01*
X36623435Y9058523D01*
X36625260Y9121913D01*
X36627825Y9181650D01*
X36631114Y9237733D01*
X36635133Y9290155D01*
X36639888Y9338927D01*
X36645366Y9384033D01*
X36648496Y9405324D01*
X36652018Y9425934D01*
X36655955Y9445834D01*
X36660291Y9465045D01*
X36665011Y9483566D01*
X36670151Y9501385D01*
X36675692Y9518511D01*
X36681633Y9534941D01*
X36687980Y9550684D01*
X36694728Y9565731D01*
X36701870Y9580075D01*
X36709417Y9593728D01*
X36717368Y9606693D01*
X36725717Y9618956D01*
X36734475Y9630528D01*
X36743636Y9641399D01*
X36753289Y9651693D01*
X36763525Y9661510D01*
X36774345Y9670847D01*
X36785750Y9679711D01*
X36797750Y9688106D01*
X36810319Y9696023D01*
X36823482Y9703463D01*
X36837227Y9710424D01*
X36851561Y9716913D01*
X36866466Y9722926D01*
X36881968Y9728467D01*
X36898055Y9733530D01*
X36914728Y9738117D01*
X36931983Y9742231D01*
X36949821Y9745862D01*
X36968246Y9749030D01*
X37008462Y9754512D01*
X37051891Y9759265D01*
X37098546Y9763288D01*
X37148409Y9766577D01*
X37201492Y9769140D01*
X37257779Y9770959D01*
X37317301Y9772059D01*
X37380037Y9772424D01*
X38236375Y9772424D01*
X38284263Y9771987D01*
G37*
D12*
X250000Y43393031D02*
X240000Y17773031D01*
X330305Y5900000D02*
X330305Y7283031D01*
X440000Y53973031D02*
X2880305Y56450000D01*
X483705Y85550000D02*
X483705Y84383031D01*
X483705Y85550000D02*
X1480305Y86550000D01*
X483705Y73772733D02*
X483705Y66800000D01*
X483705Y66800000D02*
X483705Y58500000D01*
X483705Y58500000D02*
X1530305Y57450000D01*
X1480305Y86550000D02*
X18380305Y86550000D01*
X1530305Y57450000D02*
X12080305Y57450000D01*
X2880305Y56450000D02*
X12080305Y56450000D01*
X5680305Y5900000D02*
X330305Y5900000D01*
X7080305Y4500000D02*
X5680305Y5900000D01*
X12080305Y57450000D02*
X13230305Y58650000D01*
X12080305Y56450000D02*
X12680305Y57050000D01*
X12680305Y57050000D02*
X14680305Y57050000D01*
X13230305Y58650000D02*
X13980305Y59400000D01*
X13980305Y62350000D02*
X15230305Y63600000D01*
X13980305Y59400000D02*
X13980305Y62350000D01*
X14680305Y57050000D02*
X15280305Y56450000D01*
X15230305Y63600000D02*
X24180305Y63600000D01*
X15280305Y56450000D02*
X15280305Y51450000D01*
X15280305Y51450000D02*
X17180305Y49550000D01*
X17180305Y49550000D02*
X17180305Y18600000D01*
X17180305Y18600000D02*
X18980305Y16800000D01*
X17330305Y4500000D02*
X7080305Y4500000D01*
X18380305Y86550000D02*
X24430305Y80500000D01*
X18980305Y16800000D02*
X18980305Y6150000D01*
X18980305Y6150000D02*
X17330305Y4500000D01*
X24180305Y63600000D02*
X25730305Y65150000D01*
X24430305Y80500000D02*
X26380305Y78550000D01*
X25730305Y65150000D02*
X26380305Y65800000D01*
X26380305Y75150000D02*
X26380305Y78550000D01*
X26380305Y65800000D02*
X26380305Y75150000D01*
X28530305Y87200000D02*
X28530305Y74000000D01*
X28530305Y74000000D02*
X29830305Y72700000D01*
X29530305Y88200000D02*
X28530305Y87200000D01*
X29830305Y72700000D02*
X43780305Y72700000D01*
X29930000Y88200000D02*
X29530305Y88200000D01*
X40380305Y14750000D02*
X40380305Y2700000D01*
X40380305Y2700000D02*
X41830305Y1250000D01*
X41830305Y1250000D02*
X50880305Y1250000D01*
X42230305Y16750000D02*
X40380305Y14800000D01*
X43300000Y88203031D02*
X43680305Y88200000D01*
X43680305Y88200000D02*
X44380305Y87500000D01*
X44380305Y87500000D02*
X44380305Y85300000D01*
X44380305Y72700000D02*
X51480305Y72700000D01*
X44930305Y84750000D02*
X44380305Y85300000D01*
X50880305Y1250000D02*
X62680305Y1250000D01*
X51480305Y72700000D02*
X52230305Y73450000D01*
X52230305Y75050000D02*
X53330305Y75050000D01*
X52230305Y73450000D02*
X52230305Y75050000D01*
X52430305Y84750000D02*
X44930305Y84750000D01*
X53330305Y83850000D02*
X52430305Y84750000D01*
X53330305Y75050000D02*
X53330305Y83850000D01*
X62680305Y1250000D02*
X64030305Y2600000D01*
X62780305Y16750000D02*
X42230305Y16750000D01*
X64030305Y15500000D02*
X62780305Y16750000D01*
X64030305Y2600000D02*
X64030305Y15500000D01*
X64455305Y15525000D02*
X64455305Y2625000D01*
X64455305Y2625000D02*
X65705305Y1375000D01*
X65705305Y1375000D02*
X86255305Y1375000D01*
X65805305Y16875000D02*
X64455305Y15525000D01*
X69980305Y87550000D02*
X69980305Y66300000D01*
X69980305Y66300000D02*
X71930305Y64350000D01*
X70730000Y88313031D02*
X69980305Y87550000D01*
X71930305Y64350000D02*
X95580305Y64350000D01*
X73530305Y45250000D02*
X74830305Y46550000D01*
X73530305Y31450000D02*
X73530305Y45250000D01*
X74630305Y30350000D02*
X73530305Y31450000D01*
X74830305Y46550000D02*
X77130305Y48850000D01*
X77130305Y48850000D02*
X97930305Y48850000D01*
X77340000Y88413031D02*
X86680305Y88400000D01*
X77605305Y16875000D02*
X65805305Y16875000D01*
X80630305Y61950000D02*
X81680305Y63000000D01*
X80630305Y51350000D02*
X80630305Y61950000D01*
X81380305Y50600000D02*
X80630305Y51350000D01*
X81580305Y30350000D02*
X74630305Y30350000D01*
X81680305Y63000000D02*
X97730305Y63000000D01*
X83730305Y28200000D02*
X81580305Y30350000D01*
X83730305Y19677331D02*
X83730305Y28200000D01*
X85930305Y16875000D02*
X77605305Y16875000D01*
X86255305Y1375000D02*
X88105305Y3325000D01*
X86680305Y88400000D02*
X91730305Y83350000D01*
X88105305Y14749432D02*
X85930305Y16875000D01*
X88105305Y3375000D02*
X88105305Y14749432D01*
X89300000Y14053031D02*
X83730305Y19677331D01*
X91730305Y83350000D02*
X96980305Y78100000D01*
X95580305Y64350000D02*
X96980305Y65750000D01*
X96980305Y73250000D02*
X96980305Y78100000D01*
X96980305Y65750000D02*
X96980305Y73250000D01*
X97030305Y14050000D02*
X89300000Y14053031D01*
X97730305Y63000000D02*
X97730305Y50600000D01*
X97730305Y50600000D02*
X81380305Y50600000D01*
X97930305Y48850000D02*
X97930305Y45363031D01*
X97930305Y14050000D02*
X97030305Y14050000D01*
X97930305Y14050000D02*
X97930305Y33773031D01*
D13*
X85162362Y21827256D02*
X84733790Y21527256D01*
X85162362Y21312970D02*
X84262362Y21312970D01*
X84262362Y21312970D02*
X84262362Y21655827D01*
X84262362Y21655827D02*
X84305219Y21741542D01*
X84305219Y21741542D02*
X84348076Y21784399D01*
X84348076Y21784399D02*
X84433790Y21827256D01*
X84433790Y21827256D02*
X84562362Y21827256D01*
X84562362Y21827256D02*
X84648076Y21784399D01*
X84648076Y21784399D02*
X84690933Y21741542D01*
X84690933Y21741542D02*
X84733790Y21655827D01*
X84733790Y21655827D02*
X84733790Y21312970D01*
X85162362Y22212970D02*
X84262362Y22212970D01*
X84262362Y22212970D02*
X84262362Y22555827D01*
X84262362Y22555827D02*
X84305219Y22641542D01*
X84305219Y22641542D02*
X84348076Y22684399D01*
X84348076Y22684399D02*
X84433790Y22727256D01*
X84433790Y22727256D02*
X84562362Y22727256D01*
X84562362Y22727256D02*
X84648076Y22684399D01*
X84648076Y22684399D02*
X84690933Y22641542D01*
X84690933Y22641542D02*
X84733790Y22555827D01*
X84733790Y22555827D02*
X84733790Y22212970D01*
X85162362Y23112970D02*
X84262362Y23112970D01*
X95772362Y20197970D02*
X94872362Y20197970D01*
X94872362Y20197970D02*
X94872362Y20540827D01*
X94872362Y20540827D02*
X94915219Y20626542D01*
X94915219Y20626542D02*
X94958076Y20669399D01*
X94958076Y20669399D02*
X95043790Y20712256D01*
X95043790Y20712256D02*
X95172362Y20712256D01*
X95172362Y20712256D02*
X95258076Y20669399D01*
X95258076Y20669399D02*
X95300933Y20626542D01*
X95300933Y20626542D02*
X95343790Y20540827D01*
X95343790Y20540827D02*
X95343790Y20197970D01*
X95772362Y21097970D02*
X94872362Y21097970D01*
X95772362Y21526541D02*
X94872362Y21526541D01*
X94872362Y21526541D02*
X95772362Y22040827D01*
X95772362Y22040827D02*
X94872362Y22040827D01*
X95729505Y22426541D02*
X95772362Y22555112D01*
X95772362Y22555112D02*
X95772362Y22769398D01*
X95772362Y22769398D02*
X95729505Y22855112D01*
X95729505Y22855112D02*
X95686647Y22897970D01*
X95686647Y22897970D02*
X95600933Y22940827D01*
X95600933Y22940827D02*
X95515219Y22940827D01*
X95515219Y22940827D02*
X95429505Y22897970D01*
X95429505Y22897970D02*
X95386647Y22855112D01*
X95386647Y22855112D02*
X95343790Y22769398D01*
X95343790Y22769398D02*
X95300933Y22597970D01*
X95300933Y22597970D02*
X95258076Y22512255D01*
X95258076Y22512255D02*
X95215219Y22469398D01*
X95215219Y22469398D02*
X95129505Y22426541D01*
X95129505Y22426541D02*
X95043790Y22426541D01*
X95043790Y22426541D02*
X94958076Y22469398D01*
X94958076Y22469398D02*
X94915219Y22512255D01*
X94915219Y22512255D02*
X94872362Y22597970D01*
X94872362Y22597970D02*
X94872362Y22812255D01*
X94872362Y22812255D02*
X94915219Y22940827D01*
D12*
X37061570Y71375200D02*
X37204427Y71327581D01*
X37204427Y71327581D02*
X37442522Y71327581D01*
X37442522Y71327581D02*
X37537760Y71375200D01*
X37537760Y71375200D02*
X37585379Y71422820D01*
X37585379Y71422820D02*
X37632998Y71518058D01*
X37632998Y71518058D02*
X37632998Y71613296D01*
X37632998Y71613296D02*
X37585379Y71708534D01*
X37585379Y71708534D02*
X37537760Y71756153D01*
X37537760Y71756153D02*
X37442522Y71803772D01*
X37442522Y71803772D02*
X37252046Y71851391D01*
X37252046Y71851391D02*
X37156808Y71899010D01*
X37156808Y71899010D02*
X37109189Y71946629D01*
X37109189Y71946629D02*
X37061570Y72041867D01*
X37061570Y72041867D02*
X37061570Y72137105D01*
X37061570Y72137105D02*
X37109189Y72232343D01*
X37109189Y72232343D02*
X37156808Y72279962D01*
X37156808Y72279962D02*
X37252046Y72327581D01*
X37252046Y72327581D02*
X37490141Y72327581D01*
X37490141Y72327581D02*
X37632998Y72279962D01*
X38061570Y71327581D02*
X38061570Y72327581D01*
X38061570Y72327581D02*
X38299665Y72327581D01*
X38299665Y72327581D02*
X38442522Y72279962D01*
X38442522Y72279962D02*
X38537760Y72184724D01*
X38537760Y72184724D02*
X38585379Y72089486D01*
X38585379Y72089486D02*
X38632998Y71899010D01*
X38632998Y71899010D02*
X38632998Y71756153D01*
X38632998Y71756153D02*
X38585379Y71565677D01*
X38585379Y71565677D02*
X38537760Y71470439D01*
X38537760Y71470439D02*
X38442522Y71375200D01*
X38442522Y71375200D02*
X38299665Y71327581D01*
X38299665Y71327581D02*
X38061570Y71327581D01*
X40252046Y71375200D02*
X40156808Y71327581D01*
X40156808Y71327581D02*
X39966332Y71327581D01*
X39966332Y71327581D02*
X39871094Y71375200D01*
X39871094Y71375200D02*
X39823475Y71422820D01*
X39823475Y71422820D02*
X39775856Y71518058D01*
X39775856Y71518058D02*
X39775856Y71803772D01*
X39775856Y71803772D02*
X39823475Y71899010D01*
X39823475Y71899010D02*
X39871094Y71946629D01*
X39871094Y71946629D02*
X39966332Y71994248D01*
X39966332Y71994248D02*
X40156808Y71994248D01*
X40156808Y71994248D02*
X40252046Y71946629D01*
X41109189Y71327581D02*
X41109189Y71851391D01*
X41109189Y71851391D02*
X41061570Y71946629D01*
X41061570Y71946629D02*
X40966332Y71994248D01*
X40966332Y71994248D02*
X40775856Y71994248D01*
X40775856Y71994248D02*
X40680618Y71946629D01*
X41109189Y71375200D02*
X41013951Y71327581D01*
X41013951Y71327581D02*
X40775856Y71327581D01*
X40775856Y71327581D02*
X40680618Y71375200D01*
X40680618Y71375200D02*
X40632999Y71470439D01*
X40632999Y71470439D02*
X40632999Y71565677D01*
X40632999Y71565677D02*
X40680618Y71660915D01*
X40680618Y71660915D02*
X40775856Y71708534D01*
X40775856Y71708534D02*
X41013951Y71708534D01*
X41013951Y71708534D02*
X41109189Y71756153D01*
X41585380Y71327581D02*
X41585380Y71994248D01*
X41585380Y71803772D02*
X41632999Y71899010D01*
X41632999Y71899010D02*
X41680618Y71946629D01*
X41680618Y71946629D02*
X41775856Y71994248D01*
X41775856Y71994248D02*
X41871094Y71994248D01*
X42632999Y71327581D02*
X42632999Y72327581D01*
X42632999Y71375200D02*
X42537761Y71327581D01*
X42537761Y71327581D02*
X42347285Y71327581D01*
X42347285Y71327581D02*
X42252047Y71375200D01*
X42252047Y71375200D02*
X42204428Y71422820D01*
X42204428Y71422820D02*
X42156809Y71518058D01*
X42156809Y71518058D02*
X42156809Y71803772D01*
X42156809Y71803772D02*
X42204428Y71899010D01*
X42204428Y71899010D02*
X42252047Y71946629D01*
X42252047Y71946629D02*
X42347285Y71994248D01*
X42347285Y71994248D02*
X42537761Y71994248D01*
X42537761Y71994248D02*
X42632999Y71946629D01*
X41980617Y2102581D02*
X41647284Y2578772D01*
X41409189Y2102581D02*
X41409189Y3102581D01*
X41409189Y3102581D02*
X41790141Y3102581D01*
X41790141Y3102581D02*
X41885379Y3054962D01*
X41885379Y3054962D02*
X41932998Y3007343D01*
X41932998Y3007343D02*
X41980617Y2912105D01*
X41980617Y2912105D02*
X41980617Y2769248D01*
X41980617Y2769248D02*
X41932998Y2674010D01*
X41932998Y2674010D02*
X41885379Y2626391D01*
X41885379Y2626391D02*
X41790141Y2578772D01*
X41790141Y2578772D02*
X41409189Y2578772D01*
X42409189Y2102581D02*
X42409189Y3102581D01*
X42409189Y3102581D02*
X42790141Y3102581D01*
X42790141Y3102581D02*
X42885379Y3054962D01*
X42885379Y3054962D02*
X42932998Y3007343D01*
X42932998Y3007343D02*
X42980617Y2912105D01*
X42980617Y2912105D02*
X42980617Y2769248D01*
X42980617Y2769248D02*
X42932998Y2674010D01*
X42932998Y2674010D02*
X42885379Y2626391D01*
X42885379Y2626391D02*
X42790141Y2578772D01*
X42790141Y2578772D02*
X42409189Y2578772D01*
X43409189Y2102581D02*
X43409189Y3102581D01*
X56684189Y66677581D02*
X56684189Y67677581D01*
X56684189Y67677581D02*
X56922284Y67677581D01*
X56922284Y67677581D02*
X57065141Y67629962D01*
X57065141Y67629962D02*
X57160379Y67534724D01*
X57160379Y67534724D02*
X57207998Y67439486D01*
X57207998Y67439486D02*
X57255617Y67249010D01*
X57255617Y67249010D02*
X57255617Y67106153D01*
X57255617Y67106153D02*
X57207998Y66915677D01*
X57207998Y66915677D02*
X57160379Y66820439D01*
X57160379Y66820439D02*
X57065141Y66725200D01*
X57065141Y66725200D02*
X56922284Y66677581D01*
X56922284Y66677581D02*
X56684189Y66677581D01*
X57684189Y66677581D02*
X57684189Y67344248D01*
X57684189Y67677581D02*
X57636570Y67629962D01*
X57636570Y67629962D02*
X57684189Y67582343D01*
X57684189Y67582343D02*
X57731808Y67629962D01*
X57731808Y67629962D02*
X57684189Y67677581D01*
X57684189Y67677581D02*
X57684189Y67582343D01*
X58112760Y66725200D02*
X58207998Y66677581D01*
X58207998Y66677581D02*
X58398474Y66677581D01*
X58398474Y66677581D02*
X58493712Y66725200D01*
X58493712Y66725200D02*
X58541331Y66820439D01*
X58541331Y66820439D02*
X58541331Y66868058D01*
X58541331Y66868058D02*
X58493712Y66963296D01*
X58493712Y66963296D02*
X58398474Y67010915D01*
X58398474Y67010915D02*
X58255617Y67010915D01*
X58255617Y67010915D02*
X58160379Y67058534D01*
X58160379Y67058534D02*
X58112760Y67153772D01*
X58112760Y67153772D02*
X58112760Y67201391D01*
X58112760Y67201391D02*
X58160379Y67296629D01*
X58160379Y67296629D02*
X58255617Y67344248D01*
X58255617Y67344248D02*
X58398474Y67344248D01*
X58398474Y67344248D02*
X58493712Y67296629D01*
X58969903Y67344248D02*
X58969903Y66344248D01*
X58969903Y67296629D02*
X59065141Y67344248D01*
X59065141Y67344248D02*
X59255617Y67344248D01*
X59255617Y67344248D02*
X59350855Y67296629D01*
X59350855Y67296629D02*
X59398474Y67249010D01*
X59398474Y67249010D02*
X59446093Y67153772D01*
X59446093Y67153772D02*
X59446093Y66868058D01*
X59446093Y66868058D02*
X59398474Y66772820D01*
X59398474Y66772820D02*
X59350855Y66725200D01*
X59350855Y66725200D02*
X59255617Y66677581D01*
X59255617Y66677581D02*
X59065141Y66677581D01*
X59065141Y66677581D02*
X58969903Y66725200D01*
X60017522Y66677581D02*
X59922284Y66725200D01*
X59922284Y66725200D02*
X59874665Y66820439D01*
X59874665Y66820439D02*
X59874665Y67677581D01*
X60827046Y66677581D02*
X60827046Y67201391D01*
X60827046Y67201391D02*
X60779427Y67296629D01*
X60779427Y67296629D02*
X60684189Y67344248D01*
X60684189Y67344248D02*
X60493713Y67344248D01*
X60493713Y67344248D02*
X60398475Y67296629D01*
X60827046Y66725200D02*
X60731808Y66677581D01*
X60731808Y66677581D02*
X60493713Y66677581D01*
X60493713Y66677581D02*
X60398475Y66725200D01*
X60398475Y66725200D02*
X60350856Y66820439D01*
X60350856Y66820439D02*
X60350856Y66915677D01*
X60350856Y66915677D02*
X60398475Y67010915D01*
X60398475Y67010915D02*
X60493713Y67058534D01*
X60493713Y67058534D02*
X60731808Y67058534D01*
X60731808Y67058534D02*
X60827046Y67106153D01*
X61207999Y67344248D02*
X61446094Y66677581D01*
X61684189Y67344248D02*
X61446094Y66677581D01*
X61446094Y66677581D02*
X61350856Y66439486D01*
X61350856Y66439486D02*
X61303237Y66391867D01*
X61303237Y66391867D02*
X61207999Y66344248D01*
X62969904Y66677581D02*
X62874666Y66725200D01*
X62874666Y66725200D02*
X62827047Y66772820D01*
X62827047Y66772820D02*
X62779428Y66868058D01*
X62779428Y66868058D02*
X62779428Y67153772D01*
X62779428Y67153772D02*
X62827047Y67249010D01*
X62827047Y67249010D02*
X62874666Y67296629D01*
X62874666Y67296629D02*
X62969904Y67344248D01*
X62969904Y67344248D02*
X63112761Y67344248D01*
X63112761Y67344248D02*
X63207999Y67296629D01*
X63207999Y67296629D02*
X63255618Y67249010D01*
X63255618Y67249010D02*
X63303237Y67153772D01*
X63303237Y67153772D02*
X63303237Y66868058D01*
X63303237Y66868058D02*
X63255618Y66772820D01*
X63255618Y66772820D02*
X63207999Y66725200D01*
X63207999Y66725200D02*
X63112761Y66677581D01*
X63112761Y66677581D02*
X62969904Y66677581D01*
X64160380Y67344248D02*
X64160380Y66677581D01*
X63731809Y67344248D02*
X63731809Y66820439D01*
X63731809Y66820439D02*
X63779428Y66725200D01*
X63779428Y66725200D02*
X63874666Y66677581D01*
X63874666Y66677581D02*
X64017523Y66677581D01*
X64017523Y66677581D02*
X64112761Y66725200D01*
X64112761Y66725200D02*
X64160380Y66772820D01*
X64493714Y67344248D02*
X64874666Y67344248D01*
X64636571Y67677581D02*
X64636571Y66820439D01*
X64636571Y66820439D02*
X64684190Y66725200D01*
X64684190Y66725200D02*
X64779428Y66677581D01*
X64779428Y66677581D02*
X64874666Y66677581D01*
X78436570Y86413296D02*
X78912760Y86413296D01*
X78341332Y86127581D02*
X78674665Y87127581D01*
X78674665Y87127581D02*
X79007998Y86127581D01*
X79769903Y86794248D02*
X79769903Y86127581D01*
X79341332Y86794248D02*
X79341332Y86270439D01*
X79341332Y86270439D02*
X79388951Y86175200D01*
X79388951Y86175200D02*
X79484189Y86127581D01*
X79484189Y86127581D02*
X79627046Y86127581D01*
X79627046Y86127581D02*
X79722284Y86175200D01*
X79722284Y86175200D02*
X79769903Y86222820D01*
X80674665Y86127581D02*
X80674665Y87127581D01*
X80674665Y86175200D02*
X80579427Y86127581D01*
X80579427Y86127581D02*
X80388951Y86127581D01*
X80388951Y86127581D02*
X80293713Y86175200D01*
X80293713Y86175200D02*
X80246094Y86222820D01*
X80246094Y86222820D02*
X80198475Y86318058D01*
X80198475Y86318058D02*
X80198475Y86603772D01*
X80198475Y86603772D02*
X80246094Y86699010D01*
X80246094Y86699010D02*
X80293713Y86746629D01*
X80293713Y86746629D02*
X80388951Y86794248D01*
X80388951Y86794248D02*
X80579427Y86794248D01*
X80579427Y86794248D02*
X80674665Y86746629D01*
X81150856Y86127581D02*
X81150856Y86794248D01*
X81150856Y87127581D02*
X81103237Y87079962D01*
X81103237Y87079962D02*
X81150856Y87032343D01*
X81150856Y87032343D02*
X81198475Y87079962D01*
X81198475Y87079962D02*
X81150856Y87127581D01*
X81150856Y87127581D02*
X81150856Y87032343D01*
X81769903Y86127581D02*
X81674665Y86175200D01*
X81674665Y86175200D02*
X81627046Y86222820D01*
X81627046Y86222820D02*
X81579427Y86318058D01*
X81579427Y86318058D02*
X81579427Y86603772D01*
X81579427Y86603772D02*
X81627046Y86699010D01*
X81627046Y86699010D02*
X81674665Y86746629D01*
X81674665Y86746629D02*
X81769903Y86794248D01*
X81769903Y86794248D02*
X81912760Y86794248D01*
X81912760Y86794248D02*
X82007998Y86746629D01*
X82007998Y86746629D02*
X82055617Y86699010D01*
X82055617Y86699010D02*
X82103236Y86603772D01*
X82103236Y86603772D02*
X82103236Y86318058D01*
X82103236Y86318058D02*
X82055617Y86222820D01*
X82055617Y86222820D02*
X82007998Y86175200D01*
X82007998Y86175200D02*
X81912760Y86127581D01*
X81912760Y86127581D02*
X81769903Y86127581D01*
X82134189Y60827581D02*
X82134189Y61827581D01*
X83181807Y60827581D02*
X82848474Y61303772D01*
X82610379Y60827581D02*
X82610379Y61827581D01*
X82610379Y61827581D02*
X82991331Y61827581D01*
X82991331Y61827581D02*
X83086569Y61779962D01*
X83086569Y61779962D02*
X83134188Y61732343D01*
X83134188Y61732343D02*
X83181807Y61637105D01*
X83181807Y61637105D02*
X83181807Y61494248D01*
X83181807Y61494248D02*
X83134188Y61399010D01*
X83134188Y61399010D02*
X83086569Y61351391D01*
X83086569Y61351391D02*
X82991331Y61303772D01*
X82991331Y61303772D02*
X82610379Y61303772D01*
X83530617Y30872820D02*
X83482998Y30825200D01*
X83482998Y30825200D02*
X83340141Y30777581D01*
X83340141Y30777581D02*
X83244903Y30777581D01*
X83244903Y30777581D02*
X83102046Y30825200D01*
X83102046Y30825200D02*
X83006808Y30920439D01*
X83006808Y30920439D02*
X82959189Y31015677D01*
X82959189Y31015677D02*
X82911570Y31206153D01*
X82911570Y31206153D02*
X82911570Y31349010D01*
X82911570Y31349010D02*
X82959189Y31539486D01*
X82959189Y31539486D02*
X83006808Y31634724D01*
X83006808Y31634724D02*
X83102046Y31729962D01*
X83102046Y31729962D02*
X83244903Y31777581D01*
X83244903Y31777581D02*
X83340141Y31777581D01*
X83340141Y31777581D02*
X83482998Y31729962D01*
X83482998Y31729962D02*
X83530617Y31682343D01*
X84102046Y30777581D02*
X84006808Y30825200D01*
X84006808Y30825200D02*
X83959189Y30872820D01*
X83959189Y30872820D02*
X83911570Y30968058D01*
X83911570Y30968058D02*
X83911570Y31253772D01*
X83911570Y31253772D02*
X83959189Y31349010D01*
X83959189Y31349010D02*
X84006808Y31396629D01*
X84006808Y31396629D02*
X84102046Y31444248D01*
X84102046Y31444248D02*
X84244903Y31444248D01*
X84244903Y31444248D02*
X84340141Y31396629D01*
X84340141Y31396629D02*
X84387760Y31349010D01*
X84387760Y31349010D02*
X84435379Y31253772D01*
X84435379Y31253772D02*
X84435379Y30968058D01*
X84435379Y30968058D02*
X84387760Y30872820D01*
X84387760Y30872820D02*
X84340141Y30825200D01*
X84340141Y30825200D02*
X84244903Y30777581D01*
X84244903Y30777581D02*
X84102046Y30777581D01*
X84863951Y31158534D02*
X85625856Y31158534D01*
X86102046Y31444248D02*
X86102046Y30444248D01*
X86102046Y31396629D02*
X86197284Y31444248D01*
X86197284Y31444248D02*
X86387760Y31444248D01*
X86387760Y31444248D02*
X86482998Y31396629D01*
X86482998Y31396629D02*
X86530617Y31349010D01*
X86530617Y31349010D02*
X86578236Y31253772D01*
X86578236Y31253772D02*
X86578236Y30968058D01*
X86578236Y30968058D02*
X86530617Y30872820D01*
X86530617Y30872820D02*
X86482998Y30825200D01*
X86482998Y30825200D02*
X86387760Y30777581D01*
X86387760Y30777581D02*
X86197284Y30777581D01*
X86197284Y30777581D02*
X86102046Y30825200D01*
X87006808Y30777581D02*
X87006808Y31444248D01*
X87006808Y31253772D02*
X87054427Y31349010D01*
X87054427Y31349010D02*
X87102046Y31396629D01*
X87102046Y31396629D02*
X87197284Y31444248D01*
X87197284Y31444248D02*
X87292522Y31444248D01*
X87768713Y30777581D02*
X87673475Y30825200D01*
X87673475Y30825200D02*
X87625856Y30872820D01*
X87625856Y30872820D02*
X87578237Y30968058D01*
X87578237Y30968058D02*
X87578237Y31253772D01*
X87578237Y31253772D02*
X87625856Y31349010D01*
X87625856Y31349010D02*
X87673475Y31396629D01*
X87673475Y31396629D02*
X87768713Y31444248D01*
X87768713Y31444248D02*
X87911570Y31444248D01*
X87911570Y31444248D02*
X88006808Y31396629D01*
X88006808Y31396629D02*
X88054427Y31349010D01*
X88054427Y31349010D02*
X88102046Y31253772D01*
X88102046Y31253772D02*
X88102046Y30968058D01*
X88102046Y30968058D02*
X88054427Y30872820D01*
X88054427Y30872820D02*
X88006808Y30825200D01*
X88006808Y30825200D02*
X87911570Y30777581D01*
X87911570Y30777581D02*
X87768713Y30777581D01*
X88959189Y30825200D02*
X88863951Y30777581D01*
X88863951Y30777581D02*
X88673475Y30777581D01*
X88673475Y30777581D02*
X88578237Y30825200D01*
X88578237Y30825200D02*
X88530618Y30872820D01*
X88530618Y30872820D02*
X88482999Y30968058D01*
X88482999Y30968058D02*
X88482999Y31253772D01*
X88482999Y31253772D02*
X88530618Y31349010D01*
X88530618Y31349010D02*
X88578237Y31396629D01*
X88578237Y31396629D02*
X88673475Y31444248D01*
X88673475Y31444248D02*
X88863951Y31444248D01*
X88863951Y31444248D02*
X88959189Y31396629D01*
X89768713Y30825200D02*
X89673475Y30777581D01*
X89673475Y30777581D02*
X89482999Y30777581D01*
X89482999Y30777581D02*
X89387761Y30825200D01*
X89387761Y30825200D02*
X89340142Y30920439D01*
X89340142Y30920439D02*
X89340142Y31301391D01*
X89340142Y31301391D02*
X89387761Y31396629D01*
X89387761Y31396629D02*
X89482999Y31444248D01*
X89482999Y31444248D02*
X89673475Y31444248D01*
X89673475Y31444248D02*
X89768713Y31396629D01*
X89768713Y31396629D02*
X89816332Y31301391D01*
X89816332Y31301391D02*
X89816332Y31206153D01*
X89816332Y31206153D02*
X89340142Y31110915D01*
X90197285Y30825200D02*
X90292523Y30777581D01*
X90292523Y30777581D02*
X90482999Y30777581D01*
X90482999Y30777581D02*
X90578237Y30825200D01*
X90578237Y30825200D02*
X90625856Y30920439D01*
X90625856Y30920439D02*
X90625856Y30968058D01*
X90625856Y30968058D02*
X90578237Y31063296D01*
X90578237Y31063296D02*
X90482999Y31110915D01*
X90482999Y31110915D02*
X90340142Y31110915D01*
X90340142Y31110915D02*
X90244904Y31158534D01*
X90244904Y31158534D02*
X90197285Y31253772D01*
X90197285Y31253772D02*
X90197285Y31301391D01*
X90197285Y31301391D02*
X90244904Y31396629D01*
X90244904Y31396629D02*
X90340142Y31444248D01*
X90340142Y31444248D02*
X90482999Y31444248D01*
X90482999Y31444248D02*
X90578237Y31396629D01*
X91006809Y30825200D02*
X91102047Y30777581D01*
X91102047Y30777581D02*
X91292523Y30777581D01*
X91292523Y30777581D02*
X91387761Y30825200D01*
X91387761Y30825200D02*
X91435380Y30920439D01*
X91435380Y30920439D02*
X91435380Y30968058D01*
X91435380Y30968058D02*
X91387761Y31063296D01*
X91387761Y31063296D02*
X91292523Y31110915D01*
X91292523Y31110915D02*
X91149666Y31110915D01*
X91149666Y31110915D02*
X91054428Y31158534D01*
X91054428Y31158534D02*
X91006809Y31253772D01*
X91006809Y31253772D02*
X91006809Y31301391D01*
X91006809Y31301391D02*
X91054428Y31396629D01*
X91054428Y31396629D02*
X91149666Y31444248D01*
X91149666Y31444248D02*
X91292523Y31444248D01*
X91292523Y31444248D02*
X91387761Y31396629D01*
X92006809Y30777581D02*
X91911571Y30825200D01*
X91911571Y30825200D02*
X91863952Y30872820D01*
X91863952Y30872820D02*
X91816333Y30968058D01*
X91816333Y30968058D02*
X91816333Y31253772D01*
X91816333Y31253772D02*
X91863952Y31349010D01*
X91863952Y31349010D02*
X91911571Y31396629D01*
X91911571Y31396629D02*
X92006809Y31444248D01*
X92006809Y31444248D02*
X92149666Y31444248D01*
X92149666Y31444248D02*
X92244904Y31396629D01*
X92244904Y31396629D02*
X92292523Y31349010D01*
X92292523Y31349010D02*
X92340142Y31253772D01*
X92340142Y31253772D02*
X92340142Y30968058D01*
X92340142Y30968058D02*
X92292523Y30872820D01*
X92292523Y30872820D02*
X92244904Y30825200D01*
X92244904Y30825200D02*
X92149666Y30777581D01*
X92149666Y30777581D02*
X92006809Y30777581D01*
X92768714Y30777581D02*
X92768714Y31444248D01*
X92768714Y31253772D02*
X92816333Y31349010D01*
X92816333Y31349010D02*
X92863952Y31396629D01*
X92863952Y31396629D02*
X92959190Y31444248D01*
X92959190Y31444248D02*
X93054428Y31444248D01*
X85034189Y3144248D02*
X85034189Y2477581D01*
X85034189Y3049010D02*
X85081808Y3096629D01*
X85081808Y3096629D02*
X85177046Y3144248D01*
X85177046Y3144248D02*
X85319903Y3144248D01*
X85319903Y3144248D02*
X85415141Y3096629D01*
X85415141Y3096629D02*
X85462760Y3001391D01*
X85462760Y3001391D02*
X85462760Y2477581D01*
X86510379Y2477581D02*
X86177046Y2953772D01*
X85938951Y2477581D02*
X85938951Y3477581D01*
X85938951Y3477581D02*
X86319903Y3477581D01*
X86319903Y3477581D02*
X86415141Y3429962D01*
X86415141Y3429962D02*
X86462760Y3382343D01*
X86462760Y3382343D02*
X86510379Y3287105D01*
X86510379Y3287105D02*
X86510379Y3144248D01*
X86510379Y3144248D02*
X86462760Y3049010D01*
X86462760Y3049010D02*
X86415141Y3001391D01*
X86415141Y3001391D02*
X86319903Y2953772D01*
X86319903Y2953772D02*
X85938951Y2953772D01*
X87272284Y3001391D02*
X86938951Y3001391D01*
X86938951Y2477581D02*
X86938951Y3477581D01*
X86938951Y3477581D02*
X87415141Y3477581D01*
X1128914Y26103885D02*
X1128914Y26437218D01*
X1652724Y26580075D02*
X1652724Y26103885D01*
X1652724Y26103885D02*
X652724Y26103885D01*
X652724Y26103885D02*
X652724Y26580075D01*
X1652724Y26913409D02*
X986057Y27437218D01*
X986057Y26913409D02*
X1652724Y27437218D01*
X986057Y27818171D02*
X1986057Y27818171D01*
X1033676Y27818171D02*
X986057Y27913409D01*
X986057Y27913409D02*
X986057Y28103885D01*
X986057Y28103885D02*
X1033676Y28199123D01*
X1033676Y28199123D02*
X1081295Y28246742D01*
X1081295Y28246742D02*
X1176533Y28294361D01*
X1176533Y28294361D02*
X1462247Y28294361D01*
X1462247Y28294361D02*
X1557485Y28246742D01*
X1557485Y28246742D02*
X1605105Y28199123D01*
X1605105Y28199123D02*
X1652724Y28103885D01*
X1652724Y28103885D02*
X1652724Y27913409D01*
X1652724Y27913409D02*
X1605105Y27818171D01*
X1652724Y29151504D02*
X1128914Y29151504D01*
X1128914Y29151504D02*
X1033676Y29103885D01*
X1033676Y29103885D02*
X986057Y29008647D01*
X986057Y29008647D02*
X986057Y28818171D01*
X986057Y28818171D02*
X1033676Y28722933D01*
X1605105Y29151504D02*
X1652724Y29056266D01*
X1652724Y29056266D02*
X1652724Y28818171D01*
X1652724Y28818171D02*
X1605105Y28722933D01*
X1605105Y28722933D02*
X1509866Y28675314D01*
X1509866Y28675314D02*
X1414628Y28675314D01*
X1414628Y28675314D02*
X1319390Y28722933D01*
X1319390Y28722933D02*
X1271771Y28818171D01*
X1271771Y28818171D02*
X1271771Y29056266D01*
X1271771Y29056266D02*
X1224152Y29151504D01*
X986057Y29627695D02*
X1652724Y29627695D01*
X1081295Y29627695D02*
X1033676Y29675314D01*
X1033676Y29675314D02*
X986057Y29770552D01*
X986057Y29770552D02*
X986057Y29913409D01*
X986057Y29913409D02*
X1033676Y30008647D01*
X1033676Y30008647D02*
X1128914Y30056266D01*
X1128914Y30056266D02*
X1652724Y30056266D01*
X1605105Y30484838D02*
X1652724Y30580076D01*
X1652724Y30580076D02*
X1652724Y30770552D01*
X1652724Y30770552D02*
X1605105Y30865790D01*
X1605105Y30865790D02*
X1509866Y30913409D01*
X1509866Y30913409D02*
X1462247Y30913409D01*
X1462247Y30913409D02*
X1367009Y30865790D01*
X1367009Y30865790D02*
X1319390Y30770552D01*
X1319390Y30770552D02*
X1319390Y30627695D01*
X1319390Y30627695D02*
X1271771Y30532457D01*
X1271771Y30532457D02*
X1176533Y30484838D01*
X1176533Y30484838D02*
X1128914Y30484838D01*
X1128914Y30484838D02*
X1033676Y30532457D01*
X1033676Y30532457D02*
X986057Y30627695D01*
X986057Y30627695D02*
X986057Y30770552D01*
X986057Y30770552D02*
X1033676Y30865790D01*
X1652724Y31341981D02*
X986057Y31341981D01*
X652724Y31341981D02*
X700343Y31294362D01*
X700343Y31294362D02*
X747962Y31341981D01*
X747962Y31341981D02*
X700343Y31389600D01*
X700343Y31389600D02*
X652724Y31341981D01*
X652724Y31341981D02*
X747962Y31341981D01*
X1652724Y31961028D02*
X1605105Y31865790D01*
X1605105Y31865790D02*
X1557485Y31818171D01*
X1557485Y31818171D02*
X1462247Y31770552D01*
X1462247Y31770552D02*
X1176533Y31770552D01*
X1176533Y31770552D02*
X1081295Y31818171D01*
X1081295Y31818171D02*
X1033676Y31865790D01*
X1033676Y31865790D02*
X986057Y31961028D01*
X986057Y31961028D02*
X986057Y32103885D01*
X986057Y32103885D02*
X1033676Y32199123D01*
X1033676Y32199123D02*
X1081295Y32246742D01*
X1081295Y32246742D02*
X1176533Y32294361D01*
X1176533Y32294361D02*
X1462247Y32294361D01*
X1462247Y32294361D02*
X1557485Y32246742D01*
X1557485Y32246742D02*
X1605105Y32199123D01*
X1605105Y32199123D02*
X1652724Y32103885D01*
X1652724Y32103885D02*
X1652724Y31961028D01*
X986057Y32722933D02*
X1652724Y32722933D01*
X1081295Y32722933D02*
X1033676Y32770552D01*
X1033676Y32770552D02*
X986057Y32865790D01*
X986057Y32865790D02*
X986057Y33008647D01*
X986057Y33008647D02*
X1033676Y33103885D01*
X1033676Y33103885D02*
X1128914Y33151504D01*
X1128914Y33151504D02*
X1652724Y33151504D01*
X1652724Y34389600D02*
X652724Y34389600D01*
X652724Y34389600D02*
X652724Y34770552D01*
X652724Y34770552D02*
X700343Y34865790D01*
X700343Y34865790D02*
X747962Y34913409D01*
X747962Y34913409D02*
X843200Y34961028D01*
X843200Y34961028D02*
X986057Y34961028D01*
X986057Y34961028D02*
X1081295Y34913409D01*
X1081295Y34913409D02*
X1128914Y34865790D01*
X1128914Y34865790D02*
X1176533Y34770552D01*
X1176533Y34770552D02*
X1176533Y34389600D01*
X1652724Y35532457D02*
X1605105Y35437219D01*
X1605105Y35437219D02*
X1557485Y35389600D01*
X1557485Y35389600D02*
X1462247Y35341981D01*
X1462247Y35341981D02*
X1176533Y35341981D01*
X1176533Y35341981D02*
X1081295Y35389600D01*
X1081295Y35389600D02*
X1033676Y35437219D01*
X1033676Y35437219D02*
X986057Y35532457D01*
X986057Y35532457D02*
X986057Y35675314D01*
X986057Y35675314D02*
X1033676Y35770552D01*
X1033676Y35770552D02*
X1081295Y35818171D01*
X1081295Y35818171D02*
X1176533Y35865790D01*
X1176533Y35865790D02*
X1462247Y35865790D01*
X1462247Y35865790D02*
X1557485Y35818171D01*
X1557485Y35818171D02*
X1605105Y35770552D01*
X1605105Y35770552D02*
X1652724Y35675314D01*
X1652724Y35675314D02*
X1652724Y35532457D01*
X1652724Y36294362D02*
X986057Y36294362D01*
X1176533Y36294362D02*
X1081295Y36341981D01*
X1081295Y36341981D02*
X1033676Y36389600D01*
X1033676Y36389600D02*
X986057Y36484838D01*
X986057Y36484838D02*
X986057Y36580076D01*
X986057Y36770553D02*
X986057Y37151505D01*
X652724Y36913410D02*
X1509866Y36913410D01*
X1509866Y36913410D02*
X1605105Y36961029D01*
X1605105Y36961029D02*
X1652724Y37056267D01*
X1652724Y37056267D02*
X1652724Y37151505D01*
X1605105Y37437220D02*
X1652724Y37532458D01*
X1652724Y37532458D02*
X1652724Y37722934D01*
X1652724Y37722934D02*
X1605105Y37818172D01*
X1605105Y37818172D02*
X1509866Y37865791D01*
X1509866Y37865791D02*
X1462247Y37865791D01*
X1462247Y37865791D02*
X1367009Y37818172D01*
X1367009Y37818172D02*
X1319390Y37722934D01*
X1319390Y37722934D02*
X1319390Y37580077D01*
X1319390Y37580077D02*
X1271771Y37484839D01*
X1271771Y37484839D02*
X1176533Y37437220D01*
X1176533Y37437220D02*
X1128914Y37437220D01*
X1128914Y37437220D02*
X1033676Y37484839D01*
X1033676Y37484839D02*
X986057Y37580077D01*
X986057Y37580077D02*
X986057Y37722934D01*
X986057Y37722934D02*
X1033676Y37818172D01*
D13*
X90569465Y14427800D02*
X90712322Y14380181D01*
X90712322Y14380181D02*
X90950417Y14380181D01*
X90950417Y14380181D02*
X91045655Y14427800D01*
X91045655Y14427800D02*
X91093274Y14475420D01*
X91093274Y14475420D02*
X91140893Y14570658D01*
X91140893Y14570658D02*
X91140893Y14665896D01*
X91140893Y14665896D02*
X91093274Y14761134D01*
X91093274Y14761134D02*
X91045655Y14808753D01*
X91045655Y14808753D02*
X90950417Y14856372D01*
X90950417Y14856372D02*
X90759941Y14903991D01*
X90759941Y14903991D02*
X90664703Y14951610D01*
X90664703Y14951610D02*
X90617084Y14999229D01*
X90617084Y14999229D02*
X90569465Y15094467D01*
X90569465Y15094467D02*
X90569465Y15189705D01*
X90569465Y15189705D02*
X90617084Y15284943D01*
X90617084Y15284943D02*
X90664703Y15332562D01*
X90664703Y15332562D02*
X90759941Y15380181D01*
X90759941Y15380181D02*
X90998036Y15380181D01*
X90998036Y15380181D02*
X91140893Y15332562D01*
X91474227Y15380181D02*
X91712322Y14380181D01*
X91712322Y14380181D02*
X91902798Y15094467D01*
X91902798Y15094467D02*
X92093274Y14380181D01*
X92093274Y14380181D02*
X92331370Y15380181D01*
X92712322Y14380181D02*
X92712322Y15380181D01*
X92712322Y15380181D02*
X92950417Y15380181D01*
X92950417Y15380181D02*
X93093274Y15332562D01*
X93093274Y15332562D02*
X93188512Y15237324D01*
X93188512Y15237324D02*
X93236131Y15142086D01*
X93236131Y15142086D02*
X93283750Y14951610D01*
X93283750Y14951610D02*
X93283750Y14808753D01*
X93283750Y14808753D02*
X93236131Y14618277D01*
X93236131Y14618277D02*
X93188512Y14523039D01*
X93188512Y14523039D02*
X93093274Y14427800D01*
X93093274Y14427800D02*
X92950417Y14380181D01*
X92950417Y14380181D02*
X92712322Y14380181D01*
X1145781Y68800153D02*
X1145781Y69800153D01*
X1145781Y69800153D02*
X1526733Y69800153D01*
X1526733Y69800153D02*
X1621971Y69752534D01*
X1621971Y69752534D02*
X1669590Y69704915D01*
X1669590Y69704915D02*
X1717209Y69609677D01*
X1717209Y69609677D02*
X1717209Y69466820D01*
X1717209Y69466820D02*
X1669590Y69371582D01*
X1669590Y69371582D02*
X1621971Y69323963D01*
X1621971Y69323963D02*
X1526733Y69276344D01*
X1526733Y69276344D02*
X1145781Y69276344D01*
X2336257Y69800153D02*
X2526733Y69800153D01*
X2526733Y69800153D02*
X2621971Y69752534D01*
X2621971Y69752534D02*
X2717209Y69657296D01*
X2717209Y69657296D02*
X2764828Y69466820D01*
X2764828Y69466820D02*
X2764828Y69133487D01*
X2764828Y69133487D02*
X2717209Y68943011D01*
X2717209Y68943011D02*
X2621971Y68847772D01*
X2621971Y68847772D02*
X2526733Y68800153D01*
X2526733Y68800153D02*
X2336257Y68800153D01*
X2336257Y68800153D02*
X2241019Y68847772D01*
X2241019Y68847772D02*
X2145781Y68943011D01*
X2145781Y68943011D02*
X2098162Y69133487D01*
X2098162Y69133487D02*
X2098162Y69466820D01*
X2098162Y69466820D02*
X2145781Y69657296D01*
X2145781Y69657296D02*
X2241019Y69752534D01*
X2241019Y69752534D02*
X2336257Y69800153D01*
X3098162Y69800153D02*
X3336257Y68800153D01*
X3336257Y68800153D02*
X3526733Y69514439D01*
X3526733Y69514439D02*
X3717209Y68800153D01*
X3717209Y68800153D02*
X3955305Y69800153D01*
X4336257Y69323963D02*
X4669590Y69323963D01*
X4812447Y68800153D02*
X4336257Y68800153D01*
X4336257Y68800153D02*
X4336257Y69800153D01*
X4336257Y69800153D02*
X4812447Y69800153D01*
X5812447Y68800153D02*
X5479114Y69276344D01*
X5241019Y68800153D02*
X5241019Y69800153D01*
X5241019Y69800153D02*
X5621971Y69800153D01*
X5621971Y69800153D02*
X5717209Y69752534D01*
X5717209Y69752534D02*
X5764828Y69704915D01*
X5764828Y69704915D02*
X5812447Y69609677D01*
X5812447Y69609677D02*
X5812447Y69466820D01*
X5812447Y69466820D02*
X5764828Y69371582D01*
X5764828Y69371582D02*
X5717209Y69323963D01*
X5717209Y69323963D02*
X5621971Y69276344D01*
X5621971Y69276344D02*
X5241019Y69276344D01*
X955305Y67237828D02*
X1098162Y67190209D01*
X1098162Y67190209D02*
X1336257Y67190209D01*
X1336257Y67190209D02*
X1431495Y67237828D01*
X1431495Y67237828D02*
X1479114Y67285448D01*
X1479114Y67285448D02*
X1526733Y67380686D01*
X1526733Y67380686D02*
X1526733Y67475924D01*
X1526733Y67475924D02*
X1479114Y67571162D01*
X1479114Y67571162D02*
X1431495Y67618781D01*
X1431495Y67618781D02*
X1336257Y67666400D01*
X1336257Y67666400D02*
X1145781Y67714019D01*
X1145781Y67714019D02*
X1050543Y67761638D01*
X1050543Y67761638D02*
X1002924Y67809257D01*
X1002924Y67809257D02*
X955305Y67904495D01*
X955305Y67904495D02*
X955305Y67999733D01*
X955305Y67999733D02*
X1002924Y68094971D01*
X1002924Y68094971D02*
X1050543Y68142590D01*
X1050543Y68142590D02*
X1145781Y68190209D01*
X1145781Y68190209D02*
X1383876Y68190209D01*
X1383876Y68190209D02*
X1526733Y68142590D01*
X1860067Y68190209D02*
X2098162Y67190209D01*
X2098162Y67190209D02*
X2288638Y67904495D01*
X2288638Y67904495D02*
X2479114Y67190209D01*
X2479114Y67190209D02*
X2717210Y68190209D01*
X3098162Y67190209D02*
X3098162Y68190209D01*
X3431495Y68190209D02*
X4002923Y68190209D01*
X3717209Y67190209D02*
X3717209Y68190209D01*
X4907685Y67285448D02*
X4860066Y67237828D01*
X4860066Y67237828D02*
X4717209Y67190209D01*
X4717209Y67190209D02*
X4621971Y67190209D01*
X4621971Y67190209D02*
X4479114Y67237828D01*
X4479114Y67237828D02*
X4383876Y67333067D01*
X4383876Y67333067D02*
X4336257Y67428305D01*
X4336257Y67428305D02*
X4288638Y67618781D01*
X4288638Y67618781D02*
X4288638Y67761638D01*
X4288638Y67761638D02*
X4336257Y67952114D01*
X4336257Y67952114D02*
X4383876Y68047352D01*
X4383876Y68047352D02*
X4479114Y68142590D01*
X4479114Y68142590D02*
X4621971Y68190209D01*
X4621971Y68190209D02*
X4717209Y68190209D01*
X4717209Y68190209D02*
X4860066Y68142590D01*
X4860066Y68142590D02*
X4907685Y68094971D01*
X5336257Y67190209D02*
X5336257Y68190209D01*
X5336257Y67714019D02*
X5907685Y67714019D01*
X5907685Y67190209D02*
X5907685Y68190209D01*
X3452924Y84870181D02*
X3452924Y85870181D01*
X3452924Y85870181D02*
X3833876Y85870181D01*
X3833876Y85870181D02*
X3929114Y85822562D01*
X3929114Y85822562D02*
X3976733Y85774943D01*
X3976733Y85774943D02*
X4024352Y85679705D01*
X4024352Y85679705D02*
X4024352Y85536848D01*
X4024352Y85536848D02*
X3976733Y85441610D01*
X3976733Y85441610D02*
X3929114Y85393991D01*
X3929114Y85393991D02*
X3833876Y85346372D01*
X3833876Y85346372D02*
X3452924Y85346372D01*
X4643400Y85870181D02*
X4833876Y85870181D01*
X4833876Y85870181D02*
X4929114Y85822562D01*
X4929114Y85822562D02*
X5024352Y85727324D01*
X5024352Y85727324D02*
X5071971Y85536848D01*
X5071971Y85536848D02*
X5071971Y85203515D01*
X5071971Y85203515D02*
X5024352Y85013039D01*
X5024352Y85013039D02*
X4929114Y84917800D01*
X4929114Y84917800D02*
X4833876Y84870181D01*
X4833876Y84870181D02*
X4643400Y84870181D01*
X4643400Y84870181D02*
X4548162Y84917800D01*
X4548162Y84917800D02*
X4452924Y85013039D01*
X4452924Y85013039D02*
X4405305Y85203515D01*
X4405305Y85203515D02*
X4405305Y85536848D01*
X4405305Y85536848D02*
X4452924Y85727324D01*
X4452924Y85727324D02*
X4548162Y85822562D01*
X4548162Y85822562D02*
X4643400Y85870181D01*
X5405305Y85870181D02*
X5643400Y84870181D01*
X5643400Y84870181D02*
X5833876Y85584467D01*
X5833876Y85584467D02*
X6024352Y84870181D01*
X6024352Y84870181D02*
X6262448Y85870181D01*
X6643400Y85393991D02*
X6976733Y85393991D01*
X7119590Y84870181D02*
X6643400Y84870181D01*
X6643400Y84870181D02*
X6643400Y85870181D01*
X6643400Y85870181D02*
X7119590Y85870181D01*
X8119590Y84870181D02*
X7786257Y85346372D01*
X7548162Y84870181D02*
X7548162Y85870181D01*
X7548162Y85870181D02*
X7929114Y85870181D01*
X7929114Y85870181D02*
X8024352Y85822562D01*
X8024352Y85822562D02*
X8071971Y85774943D01*
X8071971Y85774943D02*
X8119590Y85679705D01*
X8119590Y85679705D02*
X8119590Y85536848D01*
X8119590Y85536848D02*
X8071971Y85441610D01*
X8071971Y85441610D02*
X8024352Y85393991D01*
X8024352Y85393991D02*
X7929114Y85346372D01*
X7929114Y85346372D02*
X7548162Y85346372D01*
X9310067Y84870181D02*
X9310067Y85870181D01*
X9786257Y84870181D02*
X9786257Y85870181D01*
X9786257Y85870181D02*
X10357685Y84870181D01*
X10357685Y84870181D02*
X10357685Y85870181D01*
D12*
X76407885Y81153334D02*
X75693600Y81153334D01*
X75693600Y81153334D02*
X75550743Y81200953D01*
X75550743Y81200953D02*
X75455505Y81296191D01*
X75455505Y81296191D02*
X75407885Y81439048D01*
X75407885Y81439048D02*
X75407885Y81534286D01*
X75407885Y80629524D02*
X75407885Y80439048D01*
X75407885Y80439048D02*
X75455505Y80343810D01*
X75455505Y80343810D02*
X75503124Y80296191D01*
X75503124Y80296191D02*
X75645981Y80200953D01*
X75645981Y80200953D02*
X75836457Y80153334D01*
X75836457Y80153334D02*
X76217409Y80153334D01*
X76217409Y80153334D02*
X76312647Y80200953D01*
X76312647Y80200953D02*
X76360266Y80248572D01*
X76360266Y80248572D02*
X76407885Y80343810D01*
X76407885Y80343810D02*
X76407885Y80534286D01*
X76407885Y80534286D02*
X76360266Y80629524D01*
X76360266Y80629524D02*
X76312647Y80677143D01*
X76312647Y80677143D02*
X76217409Y80724762D01*
X76217409Y80724762D02*
X75979314Y80724762D01*
X75979314Y80724762D02*
X75884076Y80677143D01*
X75884076Y80677143D02*
X75836457Y80629524D01*
X75836457Y80629524D02*
X75788838Y80534286D01*
X75788838Y80534286D02*
X75788838Y80343810D01*
X75788838Y80343810D02*
X75836457Y80248572D01*
X75836457Y80248572D02*
X75884076Y80200953D01*
X75884076Y80200953D02*
X75979314Y80153334D01*
D13*
X16480124Y69763096D02*
X17289647Y69763096D01*
X17289647Y69763096D02*
X17384885Y69810715D01*
X17384885Y69810715D02*
X17432505Y69858334D01*
X17432505Y69858334D02*
X17480124Y69953572D01*
X17480124Y69953572D02*
X17480124Y70144048D01*
X17480124Y70144048D02*
X17432505Y70239286D01*
X17432505Y70239286D02*
X17384885Y70286905D01*
X17384885Y70286905D02*
X17289647Y70334524D01*
X17289647Y70334524D02*
X16480124Y70334524D01*
X17480124Y71334524D02*
X17480124Y70763096D01*
X17480124Y71048810D02*
X16480124Y71048810D01*
X16480124Y71048810D02*
X16622981Y70953572D01*
X16622981Y70953572D02*
X16718219Y70858334D01*
X16718219Y70858334D02*
X16765838Y70763096D01*
X93968400Y5695181D02*
X93968400Y6695181D01*
X93968400Y6218991D02*
X94539828Y6218991D01*
X94539828Y5695181D02*
X94539828Y6695181D01*
X94968400Y6599943D02*
X95016019Y6647562D01*
X95016019Y6647562D02*
X95111257Y6695181D01*
X95111257Y6695181D02*
X95349352Y6695181D01*
X95349352Y6695181D02*
X95444590Y6647562D01*
X95444590Y6647562D02*
X95492209Y6599943D01*
X95492209Y6599943D02*
X95539828Y6504705D01*
X95539828Y6504705D02*
X95539828Y6409467D01*
X95539828Y6409467D02*
X95492209Y6266610D01*
X95492209Y6266610D02*
X94920781Y5695181D01*
X94920781Y5695181D02*
X95539828Y5695181D01*
D12*
X9256666Y55195612D02*
X9256666Y54481327D01*
X9256666Y54481327D02*
X9209047Y54338470D01*
X9209047Y54338470D02*
X9113809Y54243231D01*
X9113809Y54243231D02*
X8970952Y54195612D01*
X8970952Y54195612D02*
X8875714Y54195612D01*
X10209047Y55195612D02*
X9732857Y55195612D01*
X9732857Y55195612D02*
X9685238Y54719422D01*
X9685238Y54719422D02*
X9732857Y54767041D01*
X9732857Y54767041D02*
X9828095Y54814660D01*
X9828095Y54814660D02*
X10066190Y54814660D01*
X10066190Y54814660D02*
X10161428Y54767041D01*
X10161428Y54767041D02*
X10209047Y54719422D01*
X10209047Y54719422D02*
X10256666Y54624184D01*
X10256666Y54624184D02*
X10256666Y54386089D01*
X10256666Y54386089D02*
X10209047Y54290851D01*
X10209047Y54290851D02*
X10161428Y54243231D01*
X10161428Y54243231D02*
X10066190Y54195612D01*
X10066190Y54195612D02*
X9828095Y54195612D01*
X9828095Y54195612D02*
X9732857Y54243231D01*
X9732857Y54243231D02*
X9685238Y54290851D01*
D13*
X6616666Y62938212D02*
X6616666Y62223927D01*
X6616666Y62223927D02*
X6569047Y62081070D01*
X6569047Y62081070D02*
X6473809Y61985831D01*
X6473809Y61985831D02*
X6330952Y61938212D01*
X6330952Y61938212D02*
X6235714Y61938212D01*
X6997619Y62938212D02*
X7616666Y62938212D01*
X7616666Y62938212D02*
X7283333Y62557260D01*
X7283333Y62557260D02*
X7426190Y62557260D01*
X7426190Y62557260D02*
X7521428Y62509641D01*
X7521428Y62509641D02*
X7569047Y62462022D01*
X7569047Y62462022D02*
X7616666Y62366784D01*
X7616666Y62366784D02*
X7616666Y62128689D01*
X7616666Y62128689D02*
X7569047Y62033451D01*
X7569047Y62033451D02*
X7521428Y61985831D01*
X7521428Y61985831D02*
X7426190Y61938212D01*
X7426190Y61938212D02*
X7140476Y61938212D01*
X7140476Y61938212D02*
X7045238Y61985831D01*
X7045238Y61985831D02*
X6997619Y62033451D01*
X84980900Y70820181D02*
X84980900Y70010658D01*
X84980900Y70010658D02*
X85028519Y69915420D01*
X85028519Y69915420D02*
X85076138Y69867800D01*
X85076138Y69867800D02*
X85171376Y69820181D01*
X85171376Y69820181D02*
X85361852Y69820181D01*
X85361852Y69820181D02*
X85457090Y69867800D01*
X85457090Y69867800D02*
X85504709Y69915420D01*
X85504709Y69915420D02*
X85552328Y70010658D01*
X85552328Y70010658D02*
X85552328Y70820181D01*
X86457090Y70486848D02*
X86457090Y69820181D01*
X86218995Y70867800D02*
X85980900Y70153515D01*
X85980900Y70153515D02*
X86599947Y70153515D01*
X718095Y2738212D02*
X718095Y3738212D01*
X718095Y3262022D02*
X1289523Y3262022D01*
X1289523Y2738212D02*
X1289523Y3738212D01*
X2289523Y2738212D02*
X1718095Y2738212D01*
X2003809Y2738212D02*
X2003809Y3738212D01*
X2003809Y3738212D02*
X1908571Y3595355D01*
X1908571Y3595355D02*
X1813333Y3500117D01*
X1813333Y3500117D02*
X1718095Y3452498D01*
X89671971Y62407681D02*
X89671971Y61693396D01*
X89671971Y61693396D02*
X89624352Y61550539D01*
X89624352Y61550539D02*
X89529114Y61455300D01*
X89529114Y61455300D02*
X89386257Y61407681D01*
X89386257Y61407681D02*
X89291019Y61407681D01*
X90148162Y61407681D02*
X90148162Y62407681D01*
X90148162Y62407681D02*
X90529114Y62407681D01*
X90529114Y62407681D02*
X90624352Y62360062D01*
X90624352Y62360062D02*
X90671971Y62312443D01*
X90671971Y62312443D02*
X90719590Y62217205D01*
X90719590Y62217205D02*
X90719590Y62074348D01*
X90719590Y62074348D02*
X90671971Y61979110D01*
X90671971Y61979110D02*
X90624352Y61931491D01*
X90624352Y61931491D02*
X90529114Y61883872D01*
X90529114Y61883872D02*
X90148162Y61883872D01*
X91052924Y62407681D02*
X91671971Y62407681D01*
X91671971Y62407681D02*
X91338638Y62026729D01*
X91338638Y62026729D02*
X91481495Y62026729D01*
X91481495Y62026729D02*
X91576733Y61979110D01*
X91576733Y61979110D02*
X91624352Y61931491D01*
X91624352Y61931491D02*
X91671971Y61836253D01*
X91671971Y61836253D02*
X91671971Y61598158D01*
X91671971Y61598158D02*
X91624352Y61502920D01*
X91624352Y61502920D02*
X91576733Y61455300D01*
X91576733Y61455300D02*
X91481495Y61407681D01*
X91481495Y61407681D02*
X91195781Y61407681D01*
X91195781Y61407681D02*
X91100543Y61455300D01*
X91100543Y61455300D02*
X91052924Y61502920D01*
X19066666Y68248212D02*
X19066666Y67533927D01*
X19066666Y67533927D02*
X19019047Y67391070D01*
X19019047Y67391070D02*
X18923809Y67295831D01*
X18923809Y67295831D02*
X18780952Y67248212D01*
X18780952Y67248212D02*
X18685714Y67248212D01*
X20066666Y67248212D02*
X19495238Y67248212D01*
X19780952Y67248212D02*
X19780952Y68248212D01*
X19780952Y68248212D02*
X19685714Y68105355D01*
X19685714Y68105355D02*
X19590476Y68010117D01*
X19590476Y68010117D02*
X19495238Y67962498D01*
D12*
X9186666Y19035612D02*
X9186666Y18321327D01*
X9186666Y18321327D02*
X9139047Y18178470D01*
X9139047Y18178470D02*
X9043809Y18083231D01*
X9043809Y18083231D02*
X8900952Y18035612D01*
X8900952Y18035612D02*
X8805714Y18035612D01*
X10091428Y18702279D02*
X10091428Y18035612D01*
X9853333Y19083231D02*
X9615238Y18368946D01*
X9615238Y18368946D02*
X10234285Y18368946D01*
D13*
X23868400Y86895181D02*
X23868400Y87895181D01*
X23868400Y87418991D02*
X24439828Y87418991D01*
X24439828Y86895181D02*
X24439828Y87895181D01*
X25344590Y87561848D02*
X25344590Y86895181D01*
X25106495Y87942800D02*
X24868400Y87228515D01*
X24868400Y87228515D02*
X25487447Y87228515D01*
X79691733Y42380015D02*
X79691733Y41951443D01*
X79391733Y42851443D02*
X79691733Y42380015D01*
X79691733Y42380015D02*
X79991733Y42851443D01*
X80763162Y41951443D02*
X80248876Y41951443D01*
X80506019Y41951443D02*
X80506019Y42851443D01*
X80506019Y42851443D02*
X80420305Y42722872D01*
X80420305Y42722872D02*
X80334590Y42637158D01*
X80334590Y42637158D02*
X80248876Y42594300D01*
D12*
X9666666Y73765612D02*
X9666666Y73051327D01*
X9666666Y73051327D02*
X9619047Y72908470D01*
X9619047Y72908470D02*
X9523809Y72813231D01*
X9523809Y72813231D02*
X9380952Y72765612D01*
X9380952Y72765612D02*
X9285714Y72765612D01*
X10095238Y73670374D02*
X10142857Y73717993D01*
X10142857Y73717993D02*
X10238095Y73765612D01*
X10238095Y73765612D02*
X10476190Y73765612D01*
X10476190Y73765612D02*
X10571428Y73717993D01*
X10571428Y73717993D02*
X10619047Y73670374D01*
X10619047Y73670374D02*
X10666666Y73575136D01*
X10666666Y73575136D02*
X10666666Y73479898D01*
X10666666Y73479898D02*
X10619047Y73337041D01*
X10619047Y73337041D02*
X10047619Y72765612D01*
X10047619Y72765612D02*
X10666666Y72765612D01*
D13*
X94068400Y86895181D02*
X94068400Y87895181D01*
X94068400Y87418991D02*
X94639828Y87418991D01*
X94639828Y86895181D02*
X94639828Y87895181D01*
X95020781Y87895181D02*
X95639828Y87895181D01*
X95639828Y87895181D02*
X95306495Y87514229D01*
X95306495Y87514229D02*
X95449352Y87514229D01*
X95449352Y87514229D02*
X95544590Y87466610D01*
X95544590Y87466610D02*
X95592209Y87418991D01*
X95592209Y87418991D02*
X95639828Y87323753D01*
X95639828Y87323753D02*
X95639828Y87085658D01*
X95639828Y87085658D02*
X95592209Y86990420D01*
X95592209Y86990420D02*
X95544590Y86942800D01*
X95544590Y86942800D02*
X95449352Y86895181D01*
X95449352Y86895181D02*
X95163638Y86895181D01*
X95163638Y86895181D02*
X95068400Y86942800D01*
X95068400Y86942800D02*
X95020781Y86990420D01*
D12*
X102975886Y43866803D02*
X102166363Y43866803D01*
X102166363Y43866803D02*
X102071125Y43819184D01*
X102071125Y43819184D02*
X102023506Y43771565D01*
X102023506Y43771565D02*
X101975886Y43676327D01*
X101975886Y43676327D02*
X101975886Y43485851D01*
X101975886Y43485851D02*
X102023506Y43390613D01*
X102023506Y43390613D02*
X102071125Y43342994D01*
X102071125Y43342994D02*
X102166363Y43295375D01*
X102166363Y43295375D02*
X102975886Y43295375D01*
X102975886Y42914422D02*
X102975886Y42247756D01*
X102975886Y42247756D02*
X101975886Y42676327D01*
D13*
X25626971Y39015181D02*
X25626971Y38300896D01*
X25626971Y38300896D02*
X25579352Y38158039D01*
X25579352Y38158039D02*
X25484114Y38062800D01*
X25484114Y38062800D02*
X25341257Y38015181D01*
X25341257Y38015181D02*
X25246019Y38015181D01*
X26007924Y39015181D02*
X26674590Y39015181D01*
X26674590Y39015181D02*
X26246019Y38015181D01*
%TO.C,R12*%
D14*
X74857805Y33337742D02*
X74857805Y33812258D01*
X75902805Y33337742D02*
X75902805Y33812258D01*
%TO.C,C13*%
X44695305Y80111252D02*
X44695305Y79588748D01*
X46165305Y80111252D02*
X46165305Y79588748D01*
%TO.C,S1*%
X88900305Y58317500D02*
X88900305Y55557500D01*
X94090305Y58317500D02*
X88900305Y58317500D01*
X94090305Y58317500D02*
X94090305Y55557500D01*
X94090305Y55557500D02*
X88900305Y55557500D01*
X95360305Y58317500D02*
X96740305Y58317500D01*
X96740305Y58317500D02*
X96740305Y56937500D01*
%TO.C,J9*%
D12*
X70855305Y88400000D02*
X77155305Y88400000D01*
X77155305Y74400000D01*
X70855305Y74400000D01*
X70855305Y88400000D01*
%TO.C,U1*%
D14*
X21352805Y72310000D02*
X23172805Y72310000D01*
X21352805Y72260000D02*
X21352805Y72310000D01*
X21352805Y69190000D02*
X21352805Y69240000D01*
X23172805Y72310000D02*
X23172805Y72260000D01*
X23172805Y71140000D02*
X23172805Y70360000D01*
X23172805Y69240000D02*
X23172805Y69190000D01*
X23172805Y69190000D02*
X21352805Y69190000D01*
X20812805Y72260000D02*
X20572805Y72590000D01*
X21052805Y72590000D01*
X20812805Y72260000D01*
G36*
X20812805Y72260000D02*
G01*
X20572805Y72590000D01*
X21052805Y72590000D01*
X20812805Y72260000D01*
G37*
%TO.C,D23*%
X46190000Y5035531D02*
X46190000Y5235531D01*
%TO.C,C24*%
X76645305Y33438748D02*
X76645305Y33961252D01*
X78115305Y33438748D02*
X78115305Y33961252D01*
%TO.C,D12*%
X82390000Y14820531D02*
X83390000Y14820531D01*
X82390000Y13300531D02*
X82390000Y14820531D01*
X82440000Y13300531D02*
X82390000Y13300531D01*
X84340000Y13300531D02*
X83560000Y13300531D01*
X84510000Y14820531D02*
X85510000Y14820531D01*
X85510000Y14820531D02*
X85510000Y13300531D01*
X85510000Y13300531D02*
X85460000Y13300531D01*
X83570000Y12760531D02*
X83900000Y13000531D01*
X83900000Y12520531D01*
X83570000Y12760531D01*
G36*
X83900000Y12520531D02*
G01*
X83570000Y12760531D01*
X83900000Y13000531D01*
X83900000Y12520531D01*
G37*
%TO.C,Q1*%
X89470305Y53560000D02*
X89520305Y53560000D01*
X89470305Y52040000D02*
X89470305Y53560000D01*
X90470305Y52040000D02*
X89470305Y52040000D01*
X90640305Y53560000D02*
X91420305Y53560000D01*
X92540305Y53560000D02*
X92590305Y53560000D01*
X92590305Y53560000D02*
X92590305Y52040000D01*
X92590305Y52040000D02*
X91590305Y52040000D01*
X91410305Y54100000D02*
X91080305Y53860000D01*
X91080305Y54340000D01*
X91410305Y54100000D01*
G36*
X91410305Y54100000D02*
G01*
X91080305Y53860000D01*
X91080305Y54340000D01*
X91410305Y54100000D01*
G37*
%TO.C,C26*%
X79095305Y36161252D02*
X79095305Y35638748D01*
X80565305Y36161252D02*
X80565305Y35638748D01*
%TO.C,D13*%
X58990000Y4597500D02*
X59990000Y4597500D01*
X58990000Y3077500D02*
X58990000Y4597500D01*
X59040000Y3077500D02*
X58990000Y3077500D01*
X60940000Y3077500D02*
X60160000Y3077500D01*
X61110000Y4597500D02*
X62110000Y4597500D01*
X62110000Y4597500D02*
X62110000Y3077500D01*
X62110000Y3077500D02*
X62060000Y3077500D01*
X60170000Y2537500D02*
X60500000Y2777500D01*
X60500000Y2297500D01*
X60170000Y2537500D01*
G36*
X60500000Y2297500D02*
G01*
X60170000Y2537500D01*
X60500000Y2777500D01*
X60500000Y2297500D01*
G37*
%TO.C,D24*%
X85335000Y5548031D02*
X85335000Y5348031D01*
%TO.C,J5*%
D15*
X273705Y53784601D02*
X273705Y43675401D01*
X273705Y43675401D02*
X3678565Y43675401D01*
X3678565Y53784601D02*
X273705Y53784601D01*
X6884045Y43675401D02*
X10408305Y43675401D01*
X10408305Y53784601D02*
X6884045Y53784601D01*
X10408305Y53109666D02*
X10408305Y53784601D01*
X10408305Y45909665D02*
X10408305Y51550337D01*
X10408305Y43675401D02*
X10408305Y44350336D01*
%TO.C,D25*%
D14*
X12720305Y50740000D02*
X12720305Y52050000D01*
X12720305Y50740000D02*
X13940305Y50740000D01*
X13940305Y50740000D02*
X13940305Y52050000D01*
%TO.C,J3*%
X1370000Y58873031D02*
X1370000Y60253031D01*
X2750000Y58873031D02*
X1370000Y58873031D01*
X4020000Y61633031D02*
X11750000Y61633031D01*
X4020000Y58873031D02*
X4020000Y61633031D01*
X4020000Y58873031D02*
X11750000Y58873031D01*
X11750000Y58873031D02*
X11750000Y61633031D01*
%TO.C,J11*%
X87920305Y18430000D02*
X87920305Y15670000D01*
X93110305Y18430000D02*
X87920305Y18430000D01*
X93110305Y18430000D02*
X93110305Y15670000D01*
X93110305Y15670000D02*
X87920305Y15670000D01*
X94380305Y18430000D02*
X95760305Y18430000D01*
X95760305Y18430000D02*
X95760305Y17050000D01*
%TO.C,R10*%
X51582805Y80087258D02*
X51582805Y79612742D01*
X52627805Y80087258D02*
X52627805Y79612742D01*
%TO.C,R11*%
X91507805Y47537258D02*
X91507805Y47062742D01*
X92552805Y47537258D02*
X92552805Y47062742D01*
%TO.C,JP2*%
X92340305Y22910000D02*
X94340305Y22910000D01*
X92340305Y20110000D02*
X92340305Y22910000D01*
X94340305Y22910000D02*
X94340305Y20110000D01*
X94340305Y20110000D02*
X92340305Y20110000D01*
%TO.C,D10*%
X77090000Y4570531D02*
X77140000Y4570531D01*
X77090000Y3050531D02*
X77090000Y4570531D01*
X78090000Y3050531D02*
X77090000Y3050531D01*
X78260000Y4570531D02*
X79040000Y4570531D01*
X80160000Y4570531D02*
X80210000Y4570531D01*
X80210000Y4570531D02*
X80210000Y3050531D01*
X80210000Y3050531D02*
X79210000Y3050531D01*
X79030000Y5110531D02*
X78700000Y4870531D01*
X78700000Y5350531D01*
X79030000Y5110531D01*
G36*
X79030000Y5110531D02*
G01*
X78700000Y4870531D01*
X78700000Y5350531D01*
X79030000Y5110531D01*
G37*
%TO.C,R22*%
X12877805Y43277258D02*
X12877805Y42802742D01*
X13922805Y43277258D02*
X13922805Y42802742D01*
%TO.C,C3*%
X12895305Y74040580D02*
X12895305Y73759420D01*
X13915305Y74040580D02*
X13915305Y73759420D01*
%TO.C,U4*%
X83620305Y73660000D02*
X88240305Y73660000D01*
X88240305Y66890000D02*
X83620305Y66890000D01*
X82070305Y73205000D02*
X81740305Y72965000D01*
X81740305Y73445000D01*
X82070305Y73205000D01*
G36*
X82070305Y73205000D02*
G01*
X81740305Y72965000D01*
X81740305Y73445000D01*
X82070305Y73205000D01*
G37*
%TO.C,C32*%
X10420305Y31484420D02*
X10420305Y31765580D01*
X11440305Y31484420D02*
X11440305Y31765580D01*
%TO.C,R21*%
X12847805Y8717258D02*
X12847805Y8242742D01*
X13892805Y8717258D02*
X13892805Y8242742D01*
%TO.C,R8*%
X78467563Y70897500D02*
X77993047Y70897500D01*
X78467563Y69852500D02*
X77993047Y69852500D01*
%TO.C,C12*%
X90541557Y75690000D02*
X90019053Y75690000D01*
X90541557Y74220000D02*
X90019053Y74220000D01*
%TO.C,R5*%
X93607805Y66487742D02*
X93607805Y66962258D01*
X94652805Y66487742D02*
X94652805Y66962258D01*
%TO.C,U6*%
X84920305Y83187500D02*
X84970305Y83187500D01*
X84920305Y81367500D02*
X84920305Y83187500D01*
X84970305Y81367500D02*
X84920305Y81367500D01*
X86090305Y83187500D02*
X86870305Y83187500D01*
X87990305Y83187500D02*
X88040305Y83187500D01*
X88040305Y83187500D02*
X88040305Y81367500D01*
X88040305Y81367500D02*
X87990305Y81367500D01*
X84970305Y80827500D02*
X84640305Y80587500D01*
X84640305Y81067500D01*
X84970305Y80827500D01*
G36*
X84970305Y80827500D02*
G01*
X84640305Y80587500D01*
X84640305Y81067500D01*
X84970305Y80827500D01*
G37*
%TO.C,D16*%
X56490000Y14783031D02*
X56540000Y14783031D01*
X56490000Y13263031D02*
X56490000Y14783031D01*
X57490000Y13263031D02*
X56490000Y13263031D01*
X57660000Y14783031D02*
X58440000Y14783031D01*
X59560000Y14783031D02*
X59610000Y14783031D01*
X59610000Y14783031D02*
X59610000Y13263031D01*
X59610000Y13263031D02*
X58610000Y13263031D01*
X58430000Y15323031D02*
X58100000Y15083031D01*
X58100000Y15563031D01*
X58430000Y15323031D01*
G36*
X58430000Y15323031D02*
G01*
X58100000Y15083031D01*
X58100000Y15563031D01*
X58430000Y15323031D01*
G37*
%TO.C,D19*%
X40720305Y10660000D02*
X40720305Y9350000D01*
X41940305Y10660000D02*
X40720305Y10660000D01*
X41940305Y10660000D02*
X41940305Y9350000D01*
%TO.C,U5*%
X47932805Y81410000D02*
X49752805Y81410000D01*
X47932805Y81360000D02*
X47932805Y81410000D01*
X47932805Y78290000D02*
X47932805Y78340000D01*
X49752805Y81410000D02*
X49752805Y81360000D01*
X49752805Y80240000D02*
X49752805Y79460000D01*
X49752805Y78340000D02*
X49752805Y78290000D01*
X49752805Y78290000D02*
X47932805Y78290000D01*
X47392805Y81360000D02*
X47152805Y81690000D01*
X47632805Y81690000D01*
X47392805Y81360000D01*
G36*
X47392805Y81360000D02*
G01*
X47152805Y81690000D01*
X47632805Y81690000D01*
X47392805Y81360000D01*
G37*
%TO.C,C11*%
X92720305Y70584420D02*
X92720305Y70865580D01*
X93740305Y70584420D02*
X93740305Y70865580D01*
%TO.C,R18*%
X12307805Y33437258D02*
X12307805Y32962742D01*
X13352805Y33437258D02*
X13352805Y32962742D01*
%TO.C,C22*%
X75320305Y67884420D02*
X75320305Y68165580D01*
X76340305Y67884420D02*
X76340305Y68165580D01*
%TO.C,C31*%
X10420305Y34965580D02*
X10420305Y34684420D01*
X11440305Y34965580D02*
X11440305Y34684420D01*
%TO.C,JP3*%
X86880305Y62262500D02*
X88880305Y62262500D01*
X86880305Y59462500D02*
X86880305Y62262500D01*
X88880305Y62262500D02*
X88880305Y59462500D01*
X88880305Y59462500D02*
X86880305Y59462500D01*
%TO.C,C33*%
X3030305Y27910000D02*
X4030305Y27910000D01*
X3530305Y28410000D02*
X3530305Y27410000D01*
X4270305Y28695563D02*
X4270305Y26910000D01*
X4270305Y28695563D02*
X5334742Y29760000D01*
X4270305Y22104437D02*
X4270305Y23890000D01*
X4270305Y22104437D02*
X5334742Y21040000D01*
X5334742Y29760000D02*
X12990305Y29760000D01*
X5334742Y21040000D02*
X12990305Y21040000D01*
X12990305Y29760000D02*
X12990305Y26910000D01*
X12990305Y21040000D02*
X12990305Y23890000D01*
%TO.C,J1*%
X16810000Y66883031D02*
X18190000Y66883031D01*
X16810000Y65503031D02*
X16810000Y66883031D01*
X16810000Y64233031D02*
X16810000Y64123031D01*
X16810000Y64233031D02*
X19460000Y64233031D01*
X16810000Y64123031D02*
X22110000Y64123031D01*
X19460000Y66883031D02*
X22110000Y66883031D01*
X19460000Y64233031D02*
X19460000Y66883031D01*
X22110000Y66883031D02*
X22110000Y64123031D01*
%TO.C,D22*%
X17470305Y77730000D02*
X17470305Y76420000D01*
X18690305Y77730000D02*
X17470305Y77730000D01*
X18690305Y77730000D02*
X18690305Y76420000D01*
%TO.C,C27*%
X80485885Y39970000D02*
X80204725Y39970000D01*
X80485885Y38950000D02*
X80204725Y38950000D01*
%TO.C,R4*%
X95307805Y71237742D02*
X95307805Y71712258D01*
X96352805Y71237742D02*
X96352805Y71712258D01*
%TO.C,R1*%
X16107805Y74137258D02*
X16107805Y73662742D01*
X17152805Y74137258D02*
X17152805Y73662742D01*
%TO.C,D18*%
X46270305Y14820531D02*
X46320305Y14820531D01*
X46270305Y13300531D02*
X46270305Y14820531D01*
X47270305Y13300531D02*
X46270305Y13300531D01*
X47440305Y14820531D02*
X48220305Y14820531D01*
X49340305Y14820531D02*
X49390305Y14820531D01*
X49390305Y14820531D02*
X49390305Y13300531D01*
X49390305Y13300531D02*
X48390305Y13300531D01*
X48210305Y15360531D02*
X47880305Y15120531D01*
X47880305Y15600531D01*
X48210305Y15360531D01*
G36*
X48210305Y15360531D02*
G01*
X47880305Y15120531D01*
X47880305Y15600531D01*
X48210305Y15360531D01*
G37*
%TO.C,R7*%
X90407805Y66487742D02*
X90407805Y66962258D01*
X91452805Y66487742D02*
X91452805Y66962258D01*
%TO.C,D15*%
X48815000Y4560000D02*
X49815000Y4560000D01*
X48815000Y3040000D02*
X48815000Y4560000D01*
X48865000Y3040000D02*
X48815000Y3040000D01*
X50765000Y3040000D02*
X49985000Y3040000D01*
X50935000Y4560000D02*
X51935000Y4560000D01*
X51935000Y4560000D02*
X51935000Y3040000D01*
X51935000Y3040000D02*
X51885000Y3040000D01*
X49995000Y2500000D02*
X50325000Y2740000D01*
X50325000Y2260000D01*
X49995000Y2500000D01*
G36*
X50325000Y2260000D02*
G01*
X49995000Y2500000D01*
X50325000Y2740000D01*
X50325000Y2260000D01*
G37*
%TO.C,JP1*%
X89540305Y22910000D02*
X91540305Y22910000D01*
X89540305Y20110000D02*
X89540305Y22910000D01*
X91540305Y22910000D02*
X91540305Y20110000D01*
X91540305Y20110000D02*
X89540305Y20110000D01*
%TO.C,C25*%
X81170305Y36015580D02*
X81170305Y35734420D01*
X82190305Y36015580D02*
X82190305Y35734420D01*
%TO.C,C18*%
X80220305Y71534420D02*
X80220305Y71815580D01*
X81240305Y71534420D02*
X81240305Y71815580D01*
%TO.C,C30*%
X6070305Y42260000D02*
X6070305Y40560000D01*
X6070305Y36740000D02*
X6070305Y38440000D01*
X10525868Y42260000D02*
X6070305Y42260000D01*
X10525868Y36740000D02*
X6070305Y36740000D01*
X11590305Y41195563D02*
X10525868Y42260000D01*
X11590305Y41195563D02*
X11590305Y40560000D01*
X11590305Y37804437D02*
X10525868Y36740000D01*
X11590305Y37804437D02*
X11590305Y38440000D01*
X12142805Y37502500D02*
X12142805Y38127500D01*
X12455305Y37815000D02*
X11830305Y37815000D01*
%TO.C,C29*%
X91691557Y60872500D02*
X91169053Y60872500D01*
X91691557Y59402500D02*
X91169053Y59402500D01*
%TO.C,J4*%
D15*
X283705Y17569411D02*
X283705Y7460211D01*
X283705Y7460211D02*
X3688565Y7460211D01*
X3688565Y17569411D02*
X283705Y17569411D01*
X6894045Y7460211D02*
X10418305Y7460211D01*
X10418305Y17569411D02*
X6894045Y17569411D01*
X10418305Y16894476D02*
X10418305Y17569411D01*
X10418305Y9694475D02*
X10418305Y15335147D01*
X10418305Y7460211D02*
X10418305Y8135146D01*
%TO.C,C17*%
D14*
X85114725Y75285000D02*
X85395885Y75285000D01*
X85114725Y74265000D02*
X85395885Y74265000D01*
%TO.C,C16*%
X80220305Y67690580D02*
X80220305Y67409420D01*
X81240305Y67690580D02*
X81240305Y67409420D01*
%TO.C,C14*%
X81319053Y75610000D02*
X81841557Y75610000D01*
X81319053Y74140000D02*
X81841557Y74140000D01*
%TO.C,R9*%
X78442563Y69297500D02*
X77968047Y69297500D01*
X78442563Y68252500D02*
X77968047Y68252500D01*
%TO.C,D17*%
X51365000Y14808031D02*
X51415000Y14808031D01*
X51365000Y13288031D02*
X51365000Y14808031D01*
X52365000Y13288031D02*
X51365000Y13288031D01*
X52535000Y14808031D02*
X53315000Y14808031D01*
X54435000Y14808031D02*
X54485000Y14808031D01*
X54485000Y14808031D02*
X54485000Y13288031D01*
X54485000Y13288031D02*
X53485000Y13288031D01*
X53305000Y15348031D02*
X52975000Y15108031D01*
X52975000Y15588031D01*
X53305000Y15348031D01*
G36*
X53305000Y15348031D02*
G01*
X52975000Y15108031D01*
X52975000Y15588031D01*
X53305000Y15348031D01*
G37*
%TO.C,U2*%
X13382237Y20199811D02*
X14177805Y20199811D01*
X14177805Y17429811D02*
X12957805Y17429811D01*
X13087805Y20204811D02*
X12947805Y20394811D01*
X13227805Y20394811D01*
X13087805Y20204811D01*
G36*
X13087805Y20204811D02*
G01*
X12947805Y20394811D01*
X13227805Y20394811D01*
X13087805Y20204811D01*
G37*
%TO.C,J13*%
X42665000Y11605531D02*
X42665000Y6305531D01*
X60555000Y11605531D02*
X42665000Y11605531D01*
X60555000Y11605531D02*
X60555000Y8955531D01*
X60555000Y8955531D02*
X63205000Y8955531D01*
X61825000Y11605531D02*
X63205000Y11605531D01*
X63205000Y11605531D02*
X63205000Y10225531D01*
X63205000Y8955531D02*
X63205000Y6305531D01*
X63205000Y6305531D02*
X42665000Y6305531D01*
%TO.C,J12*%
X65820000Y11603031D02*
X65820000Y6303031D01*
X83710000Y11603031D02*
X65820000Y11603031D01*
X83710000Y11603031D02*
X83710000Y8953031D01*
X83710000Y8953031D02*
X86360000Y8953031D01*
X84980000Y11603031D02*
X86360000Y11603031D01*
X86360000Y11603031D02*
X86360000Y10223031D01*
X86360000Y8953031D02*
X86360000Y6303031D01*
X86360000Y6303031D02*
X65820000Y6303031D01*
%TO.C,D7*%
X66915000Y14872500D02*
X67915000Y14872500D01*
X66915000Y13352500D02*
X66915000Y14872500D01*
X66965000Y13352500D02*
X66915000Y13352500D01*
X68865000Y13352500D02*
X68085000Y13352500D01*
X69035000Y14872500D02*
X70035000Y14872500D01*
X70035000Y14872500D02*
X70035000Y13352500D01*
X70035000Y13352500D02*
X69985000Y13352500D01*
X68095000Y12812500D02*
X68425000Y13052500D01*
X68425000Y12572500D01*
X68095000Y12812500D01*
G36*
X68425000Y12572500D02*
G01*
X68095000Y12812500D01*
X68425000Y13052500D01*
X68425000Y12572500D01*
G37*
%TO.C,R19*%
X5007805Y33137742D02*
X5007805Y33612258D01*
X6052805Y33137742D02*
X6052805Y33612258D01*
%TO.C,D3*%
X14540305Y50310000D02*
X16060305Y50310000D01*
X14540305Y50260000D02*
X14540305Y50310000D01*
X14540305Y48360000D02*
X14540305Y49140000D01*
X14540305Y47190000D02*
X14540305Y47240000D01*
X16060305Y50310000D02*
X16060305Y49310000D01*
X16060305Y48190000D02*
X16060305Y47190000D01*
X16060305Y47190000D02*
X14540305Y47190000D01*
X14000305Y49130000D02*
X14240305Y48800000D01*
X13760305Y48800000D01*
X14000305Y49130000D01*
G36*
X14240305Y48800000D02*
G01*
X13760305Y48800000D01*
X14000305Y49130000D01*
X14240305Y48800000D01*
G37*
%TO.C,C1*%
X18015305Y71961252D02*
X18015305Y71438748D01*
X19485305Y71961252D02*
X19485305Y71438748D01*
%TO.C,C5*%
X49066557Y83760000D02*
X48544053Y83760000D01*
X49066557Y82290000D02*
X48544053Y82290000D01*
%TO.C,R20*%
X16487805Y16182258D02*
X16487805Y15707742D01*
X17532805Y16182258D02*
X17532805Y15707742D01*
%TO.C,C2*%
X22436557Y74835000D02*
X21914053Y74835000D01*
X22436557Y73365000D02*
X21914053Y73365000D01*
%TO.C,JP4*%
X85665305Y24435000D02*
X88465305Y24435000D01*
X85665305Y22435000D02*
X85665305Y24435000D01*
X88465305Y24435000D02*
X88465305Y22435000D01*
X88465305Y22435000D02*
X85665305Y22435000D01*
%TO.C,SW1*%
D12*
X6255305Y70750000D02*
X13255305Y70750000D01*
X13255305Y66350000D01*
X6255305Y66350000D01*
X6255305Y70750000D01*
%TO.C,C23*%
D14*
X82695305Y81878748D02*
X82695305Y82401252D01*
X84165305Y81878748D02*
X84165305Y82401252D01*
%TO.C,Y1*%
X79195305Y43035000D02*
X79195305Y41685000D01*
X80945305Y43035000D02*
X80945305Y41685000D01*
%TO.C,R3*%
X95307805Y68037742D02*
X95307805Y68512258D01*
X96352805Y68037742D02*
X96352805Y68512258D01*
%TO.C,C4*%
X14520305Y74040580D02*
X14520305Y73759420D01*
X15540305Y74040580D02*
X15540305Y73759420D01*
%TO.C,JP5*%
X85665305Y21635000D02*
X88465305Y21635000D01*
X85665305Y19635000D02*
X85665305Y21635000D01*
X88465305Y21635000D02*
X88465305Y19635000D01*
X88465305Y19635000D02*
X85665305Y19635000D01*
%TO.C,R6*%
X92007805Y66487742D02*
X92007805Y66962258D01*
X93052805Y66487742D02*
X93052805Y66962258D01*
%TO.C,J2*%
D15*
X483705Y84154667D02*
X483705Y74045467D01*
X483705Y74045467D02*
X3888565Y74045467D01*
X3888565Y84154667D02*
X483705Y84154667D01*
X7094045Y74045467D02*
X10618305Y74045467D01*
X10618305Y84154667D02*
X7094045Y84154667D01*
X10618305Y83479732D02*
X10618305Y84154667D01*
X10618305Y76279731D02*
X10618305Y81920403D01*
X10618305Y74045467D02*
X10618305Y74720402D01*
%TO.C,J8*%
D16*
X30060305Y88200000D02*
X43160305Y88200000D01*
X30060305Y85500000D02*
X30060305Y82600000D01*
X30060305Y79600000D02*
X30060305Y77500000D01*
X30734305Y74150000D02*
X31736305Y74150000D01*
X37484305Y74150000D02*
X42486305Y74150000D01*
D10*
X33310305Y86775000D02*
G75*
G02*
X33110305Y86775000I-100000J0D01*
G01*
X33110305Y86775000D02*
G75*
G02*
X33310305Y86775000I100000J0D01*
G01*
%TO.C,D8*%
D14*
X71915000Y4570531D02*
X71965000Y4570531D01*
X71915000Y3050531D02*
X71915000Y4570531D01*
X72915000Y3050531D02*
X71915000Y3050531D01*
X73085000Y4570531D02*
X73865000Y4570531D01*
X74985000Y4570531D02*
X75035000Y4570531D01*
X75035000Y4570531D02*
X75035000Y3050531D01*
X75035000Y3050531D02*
X74035000Y3050531D01*
X73855000Y5110531D02*
X73525000Y4870531D01*
X73525000Y5350531D01*
X73855000Y5110531D01*
G36*
X73855000Y5110531D02*
G01*
X73525000Y4870531D01*
X73525000Y5350531D01*
X73855000Y5110531D01*
G37*
%TO.C,R16*%
X84717563Y58460000D02*
X84243047Y58460000D01*
X84717563Y57415000D02*
X84243047Y57415000D01*
%TO.C,D21*%
X12720305Y15720000D02*
X12720305Y14410000D01*
X13940305Y15720000D02*
X12720305Y15720000D01*
X13940305Y15720000D02*
X13940305Y14410000D01*
%TO.C,D6*%
X71965000Y14845531D02*
X72965000Y14845531D01*
X71965000Y13325531D02*
X71965000Y14845531D01*
X72015000Y13325531D02*
X71965000Y13325531D01*
X73915000Y13325531D02*
X73135000Y13325531D01*
X74085000Y14845531D02*
X75085000Y14845531D01*
X75085000Y14845531D02*
X75085000Y13325531D01*
X75085000Y13325531D02*
X75035000Y13325531D01*
X73145000Y12785531D02*
X73475000Y13025531D01*
X73475000Y12545531D01*
X73145000Y12785531D01*
G36*
X73475000Y12545531D02*
G01*
X73145000Y12785531D01*
X73475000Y13025531D01*
X73475000Y12545531D01*
G37*
%TO.C,R23*%
X15443047Y43592500D02*
X15917563Y43592500D01*
X15443047Y42547500D02*
X15917563Y42547500D01*
%TO.C,D11*%
X77090000Y14845531D02*
X78090000Y14845531D01*
X77090000Y13325531D02*
X77090000Y14845531D01*
X77140000Y13325531D02*
X77090000Y13325531D01*
X79040000Y13325531D02*
X78260000Y13325531D01*
X79210000Y14845531D02*
X80210000Y14845531D01*
X80210000Y14845531D02*
X80210000Y13325531D01*
X80210000Y13325531D02*
X80160000Y13325531D01*
X78270000Y12785531D02*
X78600000Y13025531D01*
X78600000Y12545531D01*
X78270000Y12785531D01*
G36*
X78600000Y12545531D02*
G01*
X78270000Y12785531D01*
X78600000Y13025531D01*
X78600000Y12545531D01*
G37*
%TO.C,C15*%
X77995305Y65863748D02*
X77995305Y66386252D01*
X79465305Y65863748D02*
X79465305Y66386252D01*
%TO.C,D2*%
X15720305Y14105000D02*
X17240305Y14105000D01*
X15720305Y13105000D02*
X15720305Y14105000D01*
X15720305Y10985000D02*
X15720305Y11985000D01*
X17240305Y14105000D02*
X17240305Y14055000D01*
X17240305Y12935000D02*
X17240305Y12155000D01*
X17240305Y11035000D02*
X17240305Y10985000D01*
X17240305Y10985000D02*
X15720305Y10985000D01*
X17780305Y12165000D02*
X17540305Y12495000D01*
X18020305Y12495000D01*
X17780305Y12165000D01*
G36*
X17780305Y12165000D02*
G01*
X17540305Y12495000D01*
X18020305Y12495000D01*
X17780305Y12165000D01*
G37*
%TO.C,R2*%
X89932805Y47087742D02*
X89932805Y47562258D01*
X90977805Y47087742D02*
X90977805Y47562258D01*
%TO.C,D5*%
X15207805Y84360000D02*
X16727805Y84360000D01*
X15207805Y84310000D02*
X15207805Y84360000D01*
X15207805Y82410000D02*
X15207805Y83190000D01*
X15207805Y81240000D02*
X15207805Y81290000D01*
X16727805Y84360000D02*
X16727805Y83360000D01*
X16727805Y82240000D02*
X16727805Y81240000D01*
X16727805Y81240000D02*
X15207805Y81240000D01*
X14667805Y83180000D02*
X14907805Y82850000D01*
X14427805Y82850000D01*
X14667805Y83180000D01*
G36*
X14907805Y82850000D02*
G01*
X14427805Y82850000D01*
X14667805Y83180000D01*
X14907805Y82850000D01*
G37*
%TO.C,C21*%
X75320305Y70959420D02*
X75320305Y71240580D01*
X76340305Y70959420D02*
X76340305Y71240580D01*
%TO.C,U3*%
X13372237Y56425000D02*
X14167805Y56425000D01*
X14167805Y53655000D02*
X12947805Y53655000D01*
X13077805Y56430000D02*
X12937805Y56620000D01*
X13217805Y56620000D01*
X13077805Y56430000D01*
G36*
X13077805Y56430000D02*
G01*
X12937805Y56620000D01*
X13217805Y56620000D01*
X13077805Y56430000D01*
G37*
%TO.C,U7*%
D12*
X85479306Y45181898D02*
X101735306Y45181898D01*
X101735306Y33929698D01*
X85479306Y33929698D01*
X85479306Y45181898D01*
%TO.C,D14*%
D14*
X53940000Y4570531D02*
X54940000Y4570531D01*
X53940000Y3050531D02*
X53940000Y4570531D01*
X53990000Y3050531D02*
X53940000Y3050531D01*
X55890000Y3050531D02*
X55110000Y3050531D01*
X56060000Y4570531D02*
X57060000Y4570531D01*
X57060000Y4570531D02*
X57060000Y3050531D01*
X57060000Y3050531D02*
X57010000Y3050531D01*
X55120000Y2510531D02*
X55450000Y2750531D01*
X55450000Y2270531D01*
X55120000Y2510531D01*
G36*
X55450000Y2270531D02*
G01*
X55120000Y2510531D01*
X55450000Y2750531D01*
X55450000Y2270531D01*
G37*
%TO.C,D4*%
X15207805Y80660000D02*
X16727805Y80660000D01*
X15207805Y80610000D02*
X15207805Y80660000D01*
X15207805Y78710000D02*
X15207805Y79490000D01*
X15207805Y77540000D02*
X15207805Y77590000D01*
X16727805Y80660000D02*
X16727805Y79660000D01*
X16727805Y78540000D02*
X16727805Y77540000D01*
X16727805Y77540000D02*
X15207805Y77540000D01*
X14667805Y79480000D02*
X14907805Y79150000D01*
X14427805Y79150000D01*
X14667805Y79480000D01*
G36*
X14907805Y79150000D02*
G01*
X14427805Y79150000D01*
X14667805Y79480000D01*
X14907805Y79150000D01*
G37*
%TO.C,D1*%
X87440305Y52192500D02*
X87440305Y55282500D01*
X81890305Y53737500D02*
G75*
G02*
X87440305Y55282330I2990000J0D01*
G01*
X87440305Y52192670D02*
G75*
G02*
X81890305Y53737500I-2560000J1544830D01*
G01*
X87380305Y53737500D02*
G75*
G02*
X82380305Y53737500I-2500000J0D01*
G01*
X82380305Y53737500D02*
G75*
G02*
X87380305Y53737500I2500000J0D01*
G01*
%TO.C,R17*%
X96092563Y54260000D02*
X95618047Y54260000D01*
X96092563Y53215000D02*
X95618047Y53215000D01*
%TO.C,U8*%
X6620305Y34047500D02*
X6670305Y34047500D01*
X6620305Y32227500D02*
X6620305Y34047500D01*
X6670305Y32227500D02*
X6620305Y32227500D01*
X9690305Y34047500D02*
X9740305Y34047500D01*
X9740305Y34047500D02*
X9740305Y32227500D01*
X9740305Y32227500D02*
X9690305Y32227500D01*
X9690305Y34587500D02*
X10020305Y34827500D01*
X10020305Y34347500D01*
X9690305Y34587500D01*
G36*
X10020305Y34347500D02*
G01*
X9690305Y34587500D01*
X10020305Y34827500D01*
X10020305Y34347500D01*
G37*
%TO.C,C28*%
X80304725Y45770000D02*
X80585885Y45770000D01*
X80304725Y44750000D02*
X80585885Y44750000D01*
%TO.C,J6*%
X53440305Y73890000D02*
X53440305Y72550000D01*
X53440305Y69830000D02*
X53440305Y68090000D01*
X53440305Y68090000D02*
X67740305Y68090000D01*
X54930305Y73890000D02*
X53440305Y73890000D01*
X54930305Y73890000D02*
X54930305Y75090000D01*
X66250305Y73890000D02*
X67740305Y73890000D01*
X67740305Y73890000D02*
X67740305Y72550000D01*
X67740305Y68090000D02*
X67740305Y69830000D01*
X67284310Y74530000D02*
G75*
G02*
X66456300Y74530000I-414005J0D01*
G01*
X66456300Y74530000D02*
G75*
G02*
X67284310Y74530000I414005J0D01*
G01*
%TO.C,D9*%
X66915000Y4570531D02*
X66965000Y4570531D01*
X66915000Y3050531D02*
X66915000Y4570531D01*
X67915000Y3050531D02*
X66915000Y3050531D01*
X68085000Y4570531D02*
X68865000Y4570531D01*
X69985000Y4570531D02*
X70035000Y4570531D01*
X70035000Y4570531D02*
X70035000Y3050531D01*
X70035000Y3050531D02*
X69035000Y3050531D01*
X68855000Y5110531D02*
X68525000Y4870531D01*
X68525000Y5350531D01*
X68855000Y5110531D01*
G36*
X68855000Y5110531D02*
G01*
X68525000Y4870531D01*
X68525000Y5350531D01*
X68855000Y5110531D01*
G37*
%TO.C,C19*%
X86491557Y79475000D02*
X85969053Y79475000D01*
X86491557Y78005000D02*
X85969053Y78005000D01*
%TO.C,R15*%
X76518047Y45372500D02*
X76992563Y45372500D01*
X76518047Y44327500D02*
X76992563Y44327500D01*
%TO.C,C20*%
X90595305Y72451252D02*
X90595305Y71928748D01*
X92065305Y72451252D02*
X92065305Y71928748D01*
%TO.C,R31*%
X22393047Y62322500D02*
X22867563Y62322500D01*
X22393047Y61277500D02*
X22867563Y61277500D01*
%TO.C,J7*%
X17380305Y56850000D02*
X17380305Y23850000D01*
X20880305Y20350000D02*
X68880305Y20350000D01*
X30980305Y58710000D02*
X30980305Y55910000D01*
X30980305Y58710000D02*
X31980305Y58710000D01*
X30980305Y55910000D02*
X31980305Y55910000D01*
X30980305Y24790000D02*
X30980305Y21910000D01*
X30980305Y24790000D02*
X31980305Y24790000D01*
X30980305Y21910000D02*
X31980305Y21910000D01*
X53780305Y58710000D02*
X52780305Y58710000D01*
X53780305Y58710000D02*
X53780305Y55910000D01*
X53780305Y55910000D02*
X52780305Y55910000D01*
X53780305Y24790000D02*
X52780305Y24790000D01*
X53780305Y24790000D02*
X53780305Y21910000D01*
X53780305Y21910000D02*
X52780305Y21910000D01*
X68880305Y60350000D02*
X20880305Y60350000D01*
X72380305Y23850000D02*
X72380305Y56850000D01*
X17380305Y56850000D02*
G75*
G02*
X20880305Y60350000I3499999J1D01*
G01*
X20880305Y20350000D02*
G75*
G02*
X17380305Y23850000I0J3500000D01*
G01*
X68880305Y60350000D02*
G75*
G02*
X72380305Y56850000I1J-3499999D01*
G01*
X72380305Y23850000D02*
G75*
G02*
X68880305Y20350000I-3500000J0D01*
G01*
%TD*%
M02*
