M48
; DRILL file KiCad 10.0.5-1.fc44app2 date 2026-08-31T15:34:54
; FORMAT={-:-/ absolute / metric / decimal}
; #@! TF.CreationDate,2026-08-31T15:34:54+01:00
; #@! TF.GenerationSoftware,Kicad,Pcbnew,10.0.5-1.fc44app2
; #@! TF.FileFunction,NonPlated,1,4,NPTH
FMAT,2
METRIC
; #@! TA.AperFunction,NonPlated,NPTH,ComponentDrill
T1C0.508
; #@! TA.AperFunction,NonPlated,NPTH,ComponentDrill
T2C0.660
; #@! TA.AperFunction,NonPlated,NPTH,ComponentDrill
T3C1.000
; #@! TA.AperFunction,NonPlated,NPTH,ComponentDrill
T4C2.700
%
G90
G05
T2
X8.57Y52.33
X8.58Y16.115
X8.78Y82.7
T3
X74.005Y84.4
X74.005Y76.9
T4
X20.88Y56.85
X20.88Y23.85
X68.88Y56.85
X68.88Y23.85
T1
G00X2.634Y53.22
M15
G01X3.226Y53.22
M16
G05
G00X2.634Y44.24
M15
G01X3.226Y44.24
M16
G05
G00X2.644Y17.005
M15
G01X3.236Y17.005
M16
G05
G00X2.644Y8.025
M15
G01X3.236Y8.025
M16
G05
G00X2.844Y83.59
M15
G01X3.436Y83.59
M16
G05
G00X2.844Y74.61
M15
G01X3.436Y74.61
M16
G05
G00X7.034Y52.86
M15
G01X7.626Y52.86
M16
G05
G00X7.034Y44.6
M15
G01X7.626Y44.6
M16
G05
G00X7.044Y16.645
M15
G01X7.636Y16.645
M16
G05
G00X7.044Y8.385
M15
G01X7.636Y8.385
M16
G05
G00X7.244Y83.23
M15
G01X7.836Y83.23
M16
G05
G00X7.244Y74.97
M15
G01X7.836Y74.97
M16
G05
T2
G00X8.57Y45.26
M15
G01X8.57Y44.98
M16
G05
G00X8.58Y9.045
M15
G01X8.58Y8.765
M16
G05
G00X8.78Y75.63
M15
G01X8.78Y75.35
M16
G05
M30
