%TF.GenerationSoftware,KiCad,Pcbnew,10.0.5-1.fc44app2*%
%TF.CreationDate,2026-09-05T12:07:09+01:00*%
%TF.ProjectId,mainboard,6d61696e-626f-4617-9264-2e6b69636164,0.1*%
%TF.SameCoordinates,PX4b9a3f8PY7a1c817*%
%TF.FileFunction,Legend,Top*%
%TF.FilePolarity,Positive*%
%FSLAX46Y46*%
G04 Gerber Fmt 4.6, Leading zero omitted, Abs format (unit mm)*
G04 Created by KiCad (PCBNEW 10.0.5-1.fc44app2) date 2026-09-05 12:07:09*
%MOMM*%
%LPD*%
G01*
G04 APERTURE LIST*
%ADD10C,0.200000*%
%ADD11C,0.000000*%
%ADD12C,0.100000*%
%ADD13C,0.150000*%
%ADD14C,0.120000*%
%ADD15C,0.152400*%
%ADD16C,0.127000*%
G04 APERTURE END LIST*
D10*
X15585149Y3475812D02*
X15680387Y3475812D01*
X15680387Y3475812D02*
X15775625Y3428193D01*
X15775625Y3428193D02*
X15823244Y3380574D01*
X15823244Y3380574D02*
X15870863Y3285336D01*
X15870863Y3285336D02*
X15918482Y3094860D01*
X15918482Y3094860D02*
X15918482Y2856765D01*
X15918482Y2856765D02*
X15870863Y2666289D01*
X15870863Y2666289D02*
X15823244Y2571051D01*
X15823244Y2571051D02*
X15775625Y2523431D01*
X15775625Y2523431D02*
X15680387Y2475812D01*
X15680387Y2475812D02*
X15585149Y2475812D01*
X15585149Y2475812D02*
X15489911Y2523431D01*
X15489911Y2523431D02*
X15442292Y2571051D01*
X15442292Y2571051D02*
X15394673Y2666289D01*
X15394673Y2666289D02*
X15347054Y2856765D01*
X15347054Y2856765D02*
X15347054Y3094860D01*
X15347054Y3094860D02*
X15394673Y3285336D01*
X15394673Y3285336D02*
X15442292Y3380574D01*
X15442292Y3380574D02*
X15489911Y3428193D01*
X15489911Y3428193D02*
X15585149Y3475812D01*
X16823244Y3475812D02*
X16347054Y3475812D01*
X16347054Y3475812D02*
X16299435Y2999622D01*
X16299435Y2999622D02*
X16347054Y3047241D01*
X16347054Y3047241D02*
X16442292Y3094860D01*
X16442292Y3094860D02*
X16680387Y3094860D01*
X16680387Y3094860D02*
X16775625Y3047241D01*
X16775625Y3047241D02*
X16823244Y2999622D01*
X16823244Y2999622D02*
X16870863Y2904384D01*
X16870863Y2904384D02*
X16870863Y2666289D01*
X16870863Y2666289D02*
X16823244Y2571051D01*
X16823244Y2571051D02*
X16775625Y2523431D01*
X16775625Y2523431D02*
X16680387Y2475812D01*
X16680387Y2475812D02*
X16442292Y2475812D01*
X16442292Y2475812D02*
X16347054Y2523431D01*
X16347054Y2523431D02*
X16299435Y2571051D01*
X18013720Y3523431D02*
X17156578Y2237717D01*
X18537530Y3475812D02*
X18632768Y3475812D01*
X18632768Y3475812D02*
X18728006Y3428193D01*
X18728006Y3428193D02*
X18775625Y3380574D01*
X18775625Y3380574D02*
X18823244Y3285336D01*
X18823244Y3285336D02*
X18870863Y3094860D01*
X18870863Y3094860D02*
X18870863Y2856765D01*
X18870863Y2856765D02*
X18823244Y2666289D01*
X18823244Y2666289D02*
X18775625Y2571051D01*
X18775625Y2571051D02*
X18728006Y2523431D01*
X18728006Y2523431D02*
X18632768Y2475812D01*
X18632768Y2475812D02*
X18537530Y2475812D01*
X18537530Y2475812D02*
X18442292Y2523431D01*
X18442292Y2523431D02*
X18394673Y2571051D01*
X18394673Y2571051D02*
X18347054Y2666289D01*
X18347054Y2666289D02*
X18299435Y2856765D01*
X18299435Y2856765D02*
X18299435Y3094860D01*
X18299435Y3094860D02*
X18347054Y3285336D01*
X18347054Y3285336D02*
X18394673Y3380574D01*
X18394673Y3380574D02*
X18442292Y3428193D01*
X18442292Y3428193D02*
X18537530Y3475812D01*
X19347054Y2475812D02*
X19537530Y2475812D01*
X19537530Y2475812D02*
X19632768Y2523431D01*
X19632768Y2523431D02*
X19680387Y2571051D01*
X19680387Y2571051D02*
X19775625Y2713908D01*
X19775625Y2713908D02*
X19823244Y2904384D01*
X19823244Y2904384D02*
X19823244Y3285336D01*
X19823244Y3285336D02*
X19775625Y3380574D01*
X19775625Y3380574D02*
X19728006Y3428193D01*
X19728006Y3428193D02*
X19632768Y3475812D01*
X19632768Y3475812D02*
X19442292Y3475812D01*
X19442292Y3475812D02*
X19347054Y3428193D01*
X19347054Y3428193D02*
X19299435Y3380574D01*
X19299435Y3380574D02*
X19251816Y3285336D01*
X19251816Y3285336D02*
X19251816Y3047241D01*
X19251816Y3047241D02*
X19299435Y2952003D01*
X19299435Y2952003D02*
X19347054Y2904384D01*
X19347054Y2904384D02*
X19442292Y2856765D01*
X19442292Y2856765D02*
X19632768Y2856765D01*
X19632768Y2856765D02*
X19728006Y2904384D01*
X19728006Y2904384D02*
X19775625Y2952003D01*
X19775625Y2952003D02*
X19823244Y3047241D01*
X20966101Y3523431D02*
X20108959Y2237717D01*
X21251816Y3380574D02*
X21299435Y3428193D01*
X21299435Y3428193D02*
X21394673Y3475812D01*
X21394673Y3475812D02*
X21632768Y3475812D01*
X21632768Y3475812D02*
X21728006Y3428193D01*
X21728006Y3428193D02*
X21775625Y3380574D01*
X21775625Y3380574D02*
X21823244Y3285336D01*
X21823244Y3285336D02*
X21823244Y3190098D01*
X21823244Y3190098D02*
X21775625Y3047241D01*
X21775625Y3047241D02*
X21204197Y2475812D01*
X21204197Y2475812D02*
X21823244Y2475812D01*
X22442292Y3475812D02*
X22537530Y3475812D01*
X22537530Y3475812D02*
X22632768Y3428193D01*
X22632768Y3428193D02*
X22680387Y3380574D01*
X22680387Y3380574D02*
X22728006Y3285336D01*
X22728006Y3285336D02*
X22775625Y3094860D01*
X22775625Y3094860D02*
X22775625Y2856765D01*
X22775625Y2856765D02*
X22728006Y2666289D01*
X22728006Y2666289D02*
X22680387Y2571051D01*
X22680387Y2571051D02*
X22632768Y2523431D01*
X22632768Y2523431D02*
X22537530Y2475812D01*
X22537530Y2475812D02*
X22442292Y2475812D01*
X22442292Y2475812D02*
X22347054Y2523431D01*
X22347054Y2523431D02*
X22299435Y2571051D01*
X22299435Y2571051D02*
X22251816Y2666289D01*
X22251816Y2666289D02*
X22204197Y2856765D01*
X22204197Y2856765D02*
X22204197Y3094860D01*
X22204197Y3094860D02*
X22251816Y3285336D01*
X22251816Y3285336D02*
X22299435Y3380574D01*
X22299435Y3380574D02*
X22347054Y3428193D01*
X22347054Y3428193D02*
X22442292Y3475812D01*
X23156578Y3380574D02*
X23204197Y3428193D01*
X23204197Y3428193D02*
X23299435Y3475812D01*
X23299435Y3475812D02*
X23537530Y3475812D01*
X23537530Y3475812D02*
X23632768Y3428193D01*
X23632768Y3428193D02*
X23680387Y3380574D01*
X23680387Y3380574D02*
X23728006Y3285336D01*
X23728006Y3285336D02*
X23728006Y3190098D01*
X23728006Y3190098D02*
X23680387Y3047241D01*
X23680387Y3047241D02*
X23108959Y2475812D01*
X23108959Y2475812D02*
X23728006Y2475812D01*
X24585149Y3475812D02*
X24394673Y3475812D01*
X24394673Y3475812D02*
X24299435Y3428193D01*
X24299435Y3428193D02*
X24251816Y3380574D01*
X24251816Y3380574D02*
X24156578Y3237717D01*
X24156578Y3237717D02*
X24108959Y3047241D01*
X24108959Y3047241D02*
X24108959Y2666289D01*
X24108959Y2666289D02*
X24156578Y2571051D01*
X24156578Y2571051D02*
X24204197Y2523431D01*
X24204197Y2523431D02*
X24299435Y2475812D01*
X24299435Y2475812D02*
X24489911Y2475812D01*
X24489911Y2475812D02*
X24585149Y2523431D01*
X24585149Y2523431D02*
X24632768Y2571051D01*
X24632768Y2571051D02*
X24680387Y2666289D01*
X24680387Y2666289D02*
X24680387Y2904384D01*
X24680387Y2904384D02*
X24632768Y2999622D01*
X24632768Y2999622D02*
X24585149Y3047241D01*
X24585149Y3047241D02*
X24489911Y3094860D01*
X24489911Y3094860D02*
X24299435Y3094860D01*
X24299435Y3094860D02*
X24204197Y3047241D01*
X24204197Y3047241D02*
X24156578Y2999622D01*
X24156578Y2999622D02*
X24108959Y2904384D01*
X20171816Y17935700D02*
X20743244Y17935700D01*
X20457530Y16935700D02*
X20457530Y17935700D01*
X21076578Y16935700D02*
X21076578Y17935700D01*
X21076578Y17459510D02*
X21648006Y17459510D01*
X21648006Y16935700D02*
X21648006Y17935700D01*
X22124197Y17316653D02*
X22886102Y17316653D01*
X23886101Y16935700D02*
X23314673Y16935700D01*
X23600387Y16935700D02*
X23600387Y17935700D01*
X23600387Y17935700D02*
X23505149Y17792843D01*
X23505149Y17792843D02*
X23409911Y17697605D01*
X23409911Y17697605D02*
X23314673Y17649986D01*
X25028958Y17983319D02*
X24171816Y16697605D01*
X25362292Y16935700D02*
X25362292Y17935700D01*
X25362292Y17935700D02*
X25695625Y17221415D01*
X25695625Y17221415D02*
X26028958Y17935700D01*
X26028958Y17935700D02*
X26028958Y16935700D01*
X26695625Y17935700D02*
X26886101Y17935700D01*
X26886101Y17935700D02*
X26981339Y17888081D01*
X26981339Y17888081D02*
X27076577Y17792843D01*
X27076577Y17792843D02*
X27124196Y17602367D01*
X27124196Y17602367D02*
X27124196Y17269034D01*
X27124196Y17269034D02*
X27076577Y17078558D01*
X27076577Y17078558D02*
X26981339Y16983319D01*
X26981339Y16983319D02*
X26886101Y16935700D01*
X26886101Y16935700D02*
X26695625Y16935700D01*
X26695625Y16935700D02*
X26600387Y16983319D01*
X26600387Y16983319D02*
X26505149Y17078558D01*
X26505149Y17078558D02*
X26457530Y17269034D01*
X26457530Y17269034D02*
X26457530Y17602367D01*
X26457530Y17602367D02*
X26505149Y17792843D01*
X26505149Y17792843D02*
X26600387Y17888081D01*
X26600387Y17888081D02*
X26695625Y17935700D01*
X20886101Y15325756D02*
X20552768Y15801947D01*
X20314673Y15325756D02*
X20314673Y16325756D01*
X20314673Y16325756D02*
X20695625Y16325756D01*
X20695625Y16325756D02*
X20790863Y16278137D01*
X20790863Y16278137D02*
X20838482Y16230518D01*
X20838482Y16230518D02*
X20886101Y16135280D01*
X20886101Y16135280D02*
X20886101Y15992423D01*
X20886101Y15992423D02*
X20838482Y15897185D01*
X20838482Y15897185D02*
X20790863Y15849566D01*
X20790863Y15849566D02*
X20695625Y15801947D01*
X20695625Y15801947D02*
X20314673Y15801947D01*
X21695625Y15373375D02*
X21600387Y15325756D01*
X21600387Y15325756D02*
X21409911Y15325756D01*
X21409911Y15325756D02*
X21314673Y15373375D01*
X21314673Y15373375D02*
X21267054Y15468614D01*
X21267054Y15468614D02*
X21267054Y15849566D01*
X21267054Y15849566D02*
X21314673Y15944804D01*
X21314673Y15944804D02*
X21409911Y15992423D01*
X21409911Y15992423D02*
X21600387Y15992423D01*
X21600387Y15992423D02*
X21695625Y15944804D01*
X21695625Y15944804D02*
X21743244Y15849566D01*
X21743244Y15849566D02*
X21743244Y15754328D01*
X21743244Y15754328D02*
X21267054Y15659090D01*
X22076578Y15992423D02*
X22314673Y15325756D01*
X22314673Y15325756D02*
X22552768Y15992423D01*
X22933721Y15420995D02*
X22981340Y15373375D01*
X22981340Y15373375D02*
X22933721Y15325756D01*
X22933721Y15325756D02*
X22886102Y15373375D01*
X22886102Y15373375D02*
X22933721Y15420995D01*
X22933721Y15420995D02*
X22933721Y15325756D01*
X22933721Y15944804D02*
X22981340Y15897185D01*
X22981340Y15897185D02*
X22933721Y15849566D01*
X22933721Y15849566D02*
X22886102Y15897185D01*
X22886102Y15897185D02*
X22933721Y15944804D01*
X22933721Y15944804D02*
X22933721Y15849566D01*
X24362292Y16325756D02*
X24457530Y16325756D01*
X24457530Y16325756D02*
X24552768Y16278137D01*
X24552768Y16278137D02*
X24600387Y16230518D01*
X24600387Y16230518D02*
X24648006Y16135280D01*
X24648006Y16135280D02*
X24695625Y15944804D01*
X24695625Y15944804D02*
X24695625Y15706709D01*
X24695625Y15706709D02*
X24648006Y15516233D01*
X24648006Y15516233D02*
X24600387Y15420995D01*
X24600387Y15420995D02*
X24552768Y15373375D01*
X24552768Y15373375D02*
X24457530Y15325756D01*
X24457530Y15325756D02*
X24362292Y15325756D01*
X24362292Y15325756D02*
X24267054Y15373375D01*
X24267054Y15373375D02*
X24219435Y15420995D01*
X24219435Y15420995D02*
X24171816Y15516233D01*
X24171816Y15516233D02*
X24124197Y15706709D01*
X24124197Y15706709D02*
X24124197Y15944804D01*
X24124197Y15944804D02*
X24171816Y16135280D01*
X24171816Y16135280D02*
X24219435Y16230518D01*
X24219435Y16230518D02*
X24267054Y16278137D01*
X24267054Y16278137D02*
X24362292Y16325756D01*
X21362292Y13334860D02*
X21314673Y13382479D01*
X21314673Y13382479D02*
X21219435Y13525336D01*
X21219435Y13525336D02*
X21171816Y13620574D01*
X21171816Y13620574D02*
X21124197Y13763431D01*
X21124197Y13763431D02*
X21076578Y14001527D01*
X21076578Y14001527D02*
X21076578Y14192003D01*
X21076578Y14192003D02*
X21124197Y14430098D01*
X21124197Y14430098D02*
X21171816Y14572955D01*
X21171816Y14572955D02*
X21219435Y14668193D01*
X21219435Y14668193D02*
X21314673Y14811051D01*
X21314673Y14811051D02*
X21362292Y14858670D01*
X22171816Y13715812D02*
X22171816Y14715812D01*
X22171816Y13763431D02*
X22076578Y13715812D01*
X22076578Y13715812D02*
X21886102Y13715812D01*
X21886102Y13715812D02*
X21790864Y13763431D01*
X21790864Y13763431D02*
X21743245Y13811051D01*
X21743245Y13811051D02*
X21695626Y13906289D01*
X21695626Y13906289D02*
X21695626Y14192003D01*
X21695626Y14192003D02*
X21743245Y14287241D01*
X21743245Y14287241D02*
X21790864Y14334860D01*
X21790864Y14334860D02*
X21886102Y14382479D01*
X21886102Y14382479D02*
X22076578Y14382479D01*
X22076578Y14382479D02*
X22171816Y14334860D01*
X23028959Y13763431D02*
X22933721Y13715812D01*
X22933721Y13715812D02*
X22743245Y13715812D01*
X22743245Y13715812D02*
X22648007Y13763431D01*
X22648007Y13763431D02*
X22600388Y13858670D01*
X22600388Y13858670D02*
X22600388Y14239622D01*
X22600388Y14239622D02*
X22648007Y14334860D01*
X22648007Y14334860D02*
X22743245Y14382479D01*
X22743245Y14382479D02*
X22933721Y14382479D01*
X22933721Y14382479D02*
X23028959Y14334860D01*
X23028959Y14334860D02*
X23076578Y14239622D01*
X23076578Y14239622D02*
X23076578Y14144384D01*
X23076578Y14144384D02*
X22600388Y14049146D01*
X23409912Y14382479D02*
X23648007Y13715812D01*
X23648007Y13715812D02*
X23886102Y14382479D01*
X24267055Y13715812D02*
X24267055Y14715812D01*
X24362293Y14096765D02*
X24648007Y13715812D01*
X24648007Y14382479D02*
X24267055Y14001527D01*
X25076579Y13715812D02*
X25076579Y14382479D01*
X25076579Y14715812D02*
X25028960Y14668193D01*
X25028960Y14668193D02*
X25076579Y14620574D01*
X25076579Y14620574D02*
X25124198Y14668193D01*
X25124198Y14668193D02*
X25076579Y14715812D01*
X25076579Y14715812D02*
X25076579Y14620574D01*
X25409912Y14382479D02*
X25790864Y14382479D01*
X25552769Y14715812D02*
X25552769Y13858670D01*
X25552769Y13858670D02*
X25600388Y13763431D01*
X25600388Y13763431D02*
X25695626Y13715812D01*
X25695626Y13715812D02*
X25790864Y13715812D01*
X26028960Y13334860D02*
X26076579Y13382479D01*
X26076579Y13382479D02*
X26171817Y13525336D01*
X26171817Y13525336D02*
X26219436Y13620574D01*
X26219436Y13620574D02*
X26267055Y13763431D01*
X26267055Y13763431D02*
X26314674Y14001527D01*
X26314674Y14001527D02*
X26314674Y14192003D01*
X26314674Y14192003D02*
X26267055Y14430098D01*
X26267055Y14430098D02*
X26219436Y14572955D01*
X26219436Y14572955D02*
X26171817Y14668193D01*
X26171817Y14668193D02*
X26076579Y14811051D01*
X26076579Y14811051D02*
X26028960Y14858670D01*
D11*
G36*
X26598553Y6173280D02*
G01*
X26090145Y6173280D01*
X26090145Y10940262D01*
X26598553Y10940262D01*
X26598553Y6173280D01*
G37*
G36*
X26888281Y2916688D02*
G01*
X26401748Y2916688D01*
X25800402Y3714816D01*
X26379885Y3714816D01*
X26888281Y2916688D01*
G37*
G36*
X30348719Y1025192D02*
G01*
X28495497Y1025192D01*
X28495497Y1560934D01*
X30348719Y1560934D01*
X30348719Y1025192D01*
G37*
G36*
X33426482Y1025192D02*
G01*
X31573258Y1025192D01*
X31573258Y1560934D01*
X33426482Y1560934D01*
X33426482Y1025192D01*
G37*
G36*
X35831836Y6173280D02*
G01*
X35323427Y6173280D01*
X35323427Y10940262D01*
X35831836Y10940262D01*
X35831836Y6173280D01*
G37*
G36*
X36121569Y2916688D02*
G01*
X35635030Y2916688D01*
X35033692Y3714816D01*
X35613162Y3714816D01*
X36121569Y2916688D01*
G37*
G36*
X29446706Y9502513D02*
G01*
X30359651Y9502513D01*
X30359651Y9065175D01*
X29441239Y9065175D01*
X29441239Y7545428D01*
X29441833Y7497674D01*
X29443631Y7452837D01*
X29446626Y7410892D01*
X29450812Y7371858D01*
X29456185Y7335725D01*
X29462767Y7302498D01*
X29466500Y7286976D01*
X29470537Y7272179D01*
X29474870Y7258096D01*
X29479504Y7244752D01*
X29484552Y7232697D01*
X29490100Y7221099D01*
X29496167Y7209971D01*
X29502740Y7199309D01*
X29509831Y7189126D01*
X29517435Y7179415D01*
X29525545Y7170171D01*
X29534173Y7161395D01*
X29543311Y7153092D01*
X29552971Y7145249D01*
X29563131Y7137879D01*
X29573803Y7130987D01*
X29584993Y7124557D01*
X29596697Y7118599D01*
X29608910Y7113111D01*
X29621642Y7108090D01*
X29635009Y7104119D01*
X29649149Y7100407D01*
X29664052Y7096945D01*
X29679722Y7093740D01*
X29696171Y7090789D01*
X29713381Y7088106D01*
X29731359Y7085672D01*
X29750102Y7083490D01*
X29789922Y7079905D01*
X29832793Y7077343D01*
X29878756Y7075804D01*
X29927778Y7075290D01*
X29956300Y7075458D01*
X29984500Y7075978D01*
X30012348Y7076828D01*
X30039841Y7078022D01*
X30067013Y7079562D01*
X30093832Y7081442D01*
X30120313Y7083665D01*
X30146445Y7086228D01*
X30208288Y7093066D01*
X30284481Y7102623D01*
X30375020Y7114923D01*
X30479914Y7129960D01*
X30479914Y6654356D01*
X30383905Y6641714D01*
X30298149Y6631117D01*
X30222633Y6622577D01*
X30157386Y6616093D01*
X30099299Y6608578D01*
X30045309Y6602423D01*
X29995428Y6597640D01*
X29949641Y6594221D01*
X29907961Y6591829D01*
X29864910Y6590121D01*
X29820494Y6589096D01*
X29774712Y6588747D01*
X29689890Y6589861D01*
X29610368Y6593192D01*
X29536139Y6598745D01*
X29467208Y6606518D01*
X29403571Y6616515D01*
X29345227Y6628726D01*
X29318041Y6635667D01*
X29292182Y6643167D01*
X29267651Y6651212D01*
X29244439Y6659822D01*
X29222343Y6669214D01*
X29201132Y6679636D01*
X29180823Y6691078D01*
X29161418Y6703554D01*
X29142899Y6717052D01*
X29125283Y6731578D01*
X29108562Y6747118D01*
X29092735Y6763686D01*
X29077811Y6781280D01*
X29063778Y6799903D01*
X29050646Y6819550D01*
X29038409Y6840219D01*
X29027071Y6861916D01*
X29016628Y6884639D01*
X29007092Y6908381D01*
X28998431Y6933158D01*
X28990498Y6959190D01*
X28983062Y6986714D01*
X28976142Y7015730D01*
X28969739Y7046249D01*
X28963845Y7078258D01*
X28958458Y7111767D01*
X28953591Y7146765D01*
X28949240Y7183260D01*
X28942060Y7260733D01*
X28936937Y7344188D01*
X28933861Y7433625D01*
X28932834Y7529030D01*
X28932834Y9065175D01*
X28244027Y9065176D01*
X28375230Y9502514D01*
X28938305Y9502514D01*
X28938305Y10114785D01*
X29446706Y10333454D01*
X29446706Y9502513D01*
G37*
G36*
X31945000Y9081579D02*
G01*
X31966859Y9081579D01*
X31984716Y9129241D01*
X32002745Y9173827D01*
X32020931Y9215344D01*
X32039292Y9253776D01*
X32057834Y9289134D01*
X32076543Y9321427D01*
X32095414Y9350637D01*
X32104922Y9364096D01*
X32114462Y9376782D01*
X32124926Y9389482D01*
X32135821Y9401640D01*
X32147141Y9413231D01*
X32158883Y9424266D01*
X32171056Y9434760D01*
X32183650Y9444691D01*
X32196680Y9454061D01*
X32210132Y9462878D01*
X32224012Y9471145D01*
X32238320Y9478850D01*
X32253057Y9486008D01*
X32268219Y9492605D01*
X32283808Y9498649D01*
X32299817Y9504146D01*
X32316265Y9509068D01*
X32333131Y9513452D01*
X32350621Y9518081D01*
X32368924Y9522419D01*
X32388038Y9526462D01*
X32407961Y9530194D01*
X32450243Y9536763D01*
X32495769Y9542144D01*
X32544544Y9546335D01*
X32596560Y9549323D01*
X32651821Y9551121D01*
X32710337Y9551711D01*
X32799174Y9550348D01*
X32882541Y9546247D01*
X32960439Y9539407D01*
X33032875Y9529850D01*
X33067037Y9524038D01*
X33099840Y9517547D01*
X33131271Y9510375D01*
X33161339Y9502514D01*
X33190041Y9493977D01*
X33217374Y9484742D01*
X33243349Y9474840D01*
X33267938Y9464242D01*
X33291371Y9453376D01*
X33313814Y9441271D01*
X33335268Y9427927D01*
X33355743Y9413338D01*
X33375242Y9397514D01*
X33393764Y9380451D01*
X33411297Y9362150D01*
X33427845Y9342611D01*
X33443411Y9321831D01*
X33458005Y9299820D01*
X33471601Y9276567D01*
X33484220Y9252067D01*
X33495857Y9226340D01*
X33506510Y9199374D01*
X33516185Y9171161D01*
X33524868Y9141707D01*
X33533482Y9111457D01*
X33541527Y9079436D01*
X33549031Y9045682D01*
X33555968Y9010165D01*
X33562359Y8972910D01*
X33568182Y8933885D01*
X33578180Y8850606D01*
X33585950Y8760327D01*
X33591504Y8663033D01*
X33594834Y8558737D01*
X33595947Y8447434D01*
X33595947Y6643420D01*
X33071140Y6643420D01*
X33071140Y8447434D01*
X33070454Y8511076D01*
X33068410Y8570781D01*
X33064989Y8626555D01*
X33060205Y8678409D01*
X33054061Y8726329D01*
X33046542Y8770318D01*
X33037655Y8810374D01*
X33027411Y8846507D01*
X33022348Y8863227D01*
X33016730Y8879224D01*
X33010558Y8894497D01*
X33003832Y8909025D01*
X32996549Y8922849D01*
X32988712Y8935943D01*
X32980313Y8948305D01*
X32971370Y8959945D01*
X32961872Y8970854D01*
X32951812Y8981043D01*
X32941197Y8990494D01*
X32930022Y8999229D01*
X32918304Y9007241D01*
X32906026Y9014521D01*
X32893198Y9021070D01*
X32879796Y9026906D01*
X32865750Y9032860D01*
X32850935Y9038442D01*
X32835347Y9043627D01*
X32818986Y9048433D01*
X32801861Y9052859D01*
X32783969Y9056894D01*
X32765303Y9060546D01*
X32745870Y9063814D01*
X32725674Y9066691D01*
X32704697Y9069195D01*
X32682956Y9071301D01*
X32660452Y9073034D01*
X32637174Y9074380D01*
X32613130Y9075343D01*
X32588321Y9075915D01*
X32562738Y9076112D01*
X32531083Y9075815D01*
X32500377Y9074915D01*
X32470612Y9073417D01*
X32441780Y9071325D01*
X32413899Y9068631D01*
X32386946Y9065347D01*
X32360931Y9061458D01*
X32335859Y9056977D01*
X32311737Y9051897D01*
X32288545Y9046216D01*
X32266302Y9039938D01*
X32244984Y9033056D01*
X32224610Y9025583D01*
X32205175Y9017519D01*
X32186684Y9008850D01*
X32169132Y8999581D01*
X32161013Y8994997D01*
X32153047Y8990137D01*
X32145248Y8984995D01*
X32137613Y8979590D01*
X32130133Y8973899D01*
X32122809Y8967930D01*
X32115656Y8961678D01*
X32108654Y8955155D01*
X32101817Y8948359D01*
X32095139Y8941276D01*
X32088625Y8933926D01*
X32082255Y8926284D01*
X32076063Y8918378D01*
X32070023Y8910187D01*
X32058429Y8892967D01*
X32047472Y8874653D01*
X32037167Y8855220D01*
X32027486Y8834678D01*
X32018454Y8813023D01*
X32010062Y8790265D01*
X32002307Y8766384D01*
X31995202Y8741400D01*
X31988732Y8715310D01*
X31978478Y8660297D01*
X31969598Y8599138D01*
X31962076Y8531833D01*
X31955929Y8458372D01*
X31951146Y8378767D01*
X31947728Y8293003D01*
X31945681Y8201092D01*
X31945000Y8103031D01*
X31945000Y6643420D01*
X31420194Y6643420D01*
X31420194Y10655986D01*
X31945000Y10655986D01*
X31945000Y9081579D01*
G37*
G36*
X30332316Y17247294D02*
G01*
X30274831Y17243533D01*
X30247047Y17240891D01*
X30219908Y17237725D01*
X30193409Y17234053D01*
X30167545Y17229869D01*
X30142325Y17225173D01*
X30117743Y17219959D01*
X30093806Y17214245D01*
X30070507Y17208003D01*
X30047856Y17201251D01*
X30025837Y17193993D01*
X30004466Y17186218D01*
X29983732Y17177939D01*
X29963631Y17169136D01*
X29944174Y17159827D01*
X29925282Y17150539D01*
X29906849Y17140442D01*
X29888893Y17129523D01*
X29871396Y17117803D01*
X29854384Y17105268D01*
X29837839Y17091916D01*
X29821757Y17077760D01*
X29806146Y17062787D01*
X29791003Y17047014D01*
X29776333Y17030422D01*
X29762132Y17013017D01*
X29748403Y16994794D01*
X29735145Y16975772D01*
X29722353Y16955941D01*
X29710028Y16935285D01*
X29698177Y16913819D01*
X29687397Y16892108D01*
X29676912Y16869317D01*
X29666719Y16845464D01*
X29656834Y16820544D01*
X29647249Y16794555D01*
X29637955Y16767498D01*
X29628963Y16739378D01*
X29620279Y16710186D01*
X29611887Y16679929D01*
X29603790Y16648603D01*
X29588504Y16582749D01*
X29574412Y16512619D01*
X29561501Y16438220D01*
X29552195Y16378682D01*
X29543400Y16317615D01*
X29535119Y16254999D01*
X29527345Y16190854D01*
X29520078Y16125159D01*
X29513336Y16057941D01*
X29501374Y15918885D01*
X29494202Y15780162D01*
X29489080Y15642813D01*
X29485997Y15506833D01*
X29484983Y15372207D01*
X29485997Y15232464D01*
X29489080Y15092040D01*
X29494202Y14950925D01*
X29501374Y14809126D01*
X29513336Y14672812D01*
X29527345Y14542633D01*
X29543400Y14418606D01*
X29552195Y14358903D01*
X29561501Y14300729D01*
X29574326Y14230092D01*
X29588159Y14163039D01*
X29603024Y14099573D01*
X29618915Y14039694D01*
X29635818Y13983397D01*
X29653754Y13930699D01*
X29672724Y13881592D01*
X29692707Y13836059D01*
X29703904Y13814532D01*
X29715605Y13793692D01*
X29727815Y13773531D01*
X29740543Y13754057D01*
X29753785Y13735268D01*
X29767539Y13717158D01*
X29781804Y13699733D01*
X29796575Y13682993D01*
X29811863Y13666936D01*
X29827671Y13651558D01*
X29843984Y13636870D01*
X29860812Y13622859D01*
X29878156Y13609535D01*
X29896003Y13596891D01*
X29914367Y13584933D01*
X29933244Y13573654D01*
X29952747Y13562958D01*
X29972968Y13552728D01*
X29993914Y13542973D01*
X30015592Y13533686D01*
X30037987Y13524863D01*
X30061112Y13516521D01*
X30084969Y13508630D01*
X30109554Y13501222D01*
X30134850Y13494291D01*
X30160884Y13487808D01*
X30187637Y13481813D01*
X30215120Y13476285D01*
X30243335Y13471222D01*
X30272270Y13466627D01*
X30301929Y13462509D01*
X30332316Y13458862D01*
X30337780Y12934050D01*
X30288474Y12933860D01*
X30240318Y12934652D01*
X30193314Y12936422D01*
X30147478Y12939178D01*
X30102777Y12942916D01*
X30059231Y12947632D01*
X30016848Y12953336D01*
X29975616Y12960020D01*
X29935531Y12967689D01*
X29896598Y12976335D01*
X29858820Y12985960D01*
X29822202Y12996574D01*
X29786736Y13008173D01*
X29752414Y13020749D01*
X29719253Y13034308D01*
X29687241Y13048853D01*
X29656211Y13063800D01*
X29625997Y13079941D01*
X29596591Y13097284D01*
X29568001Y13115821D01*
X29540217Y13135551D01*
X29513240Y13156486D01*
X29487085Y13178600D01*
X29461738Y13201921D01*
X29437202Y13226428D01*
X29413481Y13252143D01*
X29390565Y13279052D01*
X29368465Y13307153D01*
X29347175Y13336456D01*
X29326692Y13366953D01*
X29307030Y13398638D01*
X29288170Y13431524D01*
X29269982Y13465049D01*
X29252295Y13500032D01*
X29235129Y13536461D01*
X29218465Y13574334D01*
X29202332Y13613677D01*
X29186699Y13654464D01*
X29171582Y13696701D01*
X29156974Y13740385D01*
X29142873Y13785540D01*
X29129298Y13832137D01*
X29116230Y13880178D01*
X29103665Y13929688D01*
X29080099Y14033031D01*
X29058569Y14142199D01*
X29046609Y14207112D01*
X29035335Y14273397D01*
X29024744Y14341050D01*
X29014835Y14410066D01*
X29005623Y14480452D01*
X28997070Y14552196D01*
X28989210Y14625319D01*
X28982033Y14699801D01*
X28972472Y14854577D01*
X28965641Y15012773D01*
X28961534Y15174380D01*
X28960172Y15339408D01*
X28961534Y15496235D01*
X28965641Y15655116D01*
X28972472Y15816038D01*
X28982033Y15979014D01*
X28997070Y16139940D01*
X29005623Y16218098D01*
X29014835Y16294717D01*
X29024744Y16369796D01*
X29035335Y16443341D01*
X29046609Y16515351D01*
X29058569Y16585822D01*
X29080350Y16705070D01*
X29104694Y16816793D01*
X29131603Y16920997D01*
X29146016Y16970286D01*
X29161069Y17017689D01*
X29176767Y17063217D01*
X29193104Y17106867D01*
X29210073Y17148640D01*
X29227697Y17188535D01*
X29245957Y17226538D01*
X29264859Y17262671D01*
X29284392Y17296921D01*
X29304573Y17329292D01*
X29325419Y17360769D01*
X29346940Y17390972D01*
X29369148Y17419877D01*
X29392040Y17447514D01*
X29415610Y17473863D01*
X29439874Y17498939D01*
X29464816Y17522721D01*
X29490443Y17545237D01*
X29516757Y17566458D01*
X29543742Y17586404D01*
X29571420Y17605069D01*
X29599777Y17622451D01*
X29628817Y17638548D01*
X29658538Y17653368D01*
X29688948Y17666916D01*
X29720039Y17679169D01*
X29752564Y17690439D01*
X29785901Y17701033D01*
X29820048Y17710944D01*
X29855006Y17720167D01*
X29890778Y17728707D01*
X29927352Y17736563D01*
X29964746Y17743743D01*
X30002950Y17750236D01*
X30041959Y17756045D01*
X30081783Y17761168D01*
X30122420Y17765614D01*
X30163876Y17769363D01*
X30249213Y17774829D01*
X30337780Y17777568D01*
X30332316Y17247294D01*
G37*
G36*
X33410085Y17247294D02*
G01*
X33352589Y17243533D01*
X33324810Y17240891D01*
X33297668Y17237725D01*
X33271163Y17234053D01*
X33245307Y17229869D01*
X33220087Y17225173D01*
X33195507Y17219959D01*
X33171566Y17214245D01*
X33148265Y17208003D01*
X33125621Y17201251D01*
X33103597Y17193993D01*
X33082223Y17186218D01*
X33061490Y17177939D01*
X33041393Y17169136D01*
X33021940Y17159827D01*
X33003040Y17150539D01*
X32984613Y17140442D01*
X32966648Y17129523D01*
X32949167Y17117803D01*
X32932143Y17105268D01*
X32915594Y17091916D01*
X32899518Y17077760D01*
X32883902Y17062787D01*
X32868770Y17047014D01*
X32854100Y17030422D01*
X32839890Y17013017D01*
X32826165Y16994794D01*
X32812901Y16975772D01*
X32800113Y16955941D01*
X32787791Y16935285D01*
X32775940Y16913819D01*
X32765156Y16892108D01*
X32754669Y16869317D01*
X32744481Y16845464D01*
X32734591Y16820544D01*
X32725007Y16794555D01*
X32715724Y16767498D01*
X32706727Y16739378D01*
X32698038Y16710186D01*
X32689647Y16679929D01*
X32681546Y16648603D01*
X32666259Y16582749D01*
X32652169Y16512619D01*
X32639266Y16438220D01*
X32629962Y16378682D01*
X32621163Y16317615D01*
X32612873Y16254999D01*
X32605102Y16190854D01*
X32597842Y16125159D01*
X32591089Y16057941D01*
X32579138Y15918885D01*
X32571958Y15780162D01*
X32566842Y15642813D01*
X32563762Y15506833D01*
X32562738Y15372207D01*
X32563762Y15232464D01*
X32566842Y15092040D01*
X32571958Y14950925D01*
X32579138Y14809126D01*
X32591089Y14672812D01*
X32605102Y14542633D01*
X32621163Y14418606D01*
X32629962Y14358903D01*
X32639266Y14300729D01*
X32652081Y14230092D01*
X32665922Y14163039D01*
X32680779Y14099573D01*
X32696670Y14039694D01*
X32713578Y13983397D01*
X32731518Y13930699D01*
X32750485Y13881592D01*
X32770470Y13836059D01*
X32781657Y13814532D01*
X32793364Y13793692D01*
X32805576Y13773531D01*
X32818303Y13754057D01*
X32831542Y13735268D01*
X32845300Y13717158D01*
X32859565Y13699733D01*
X32874338Y13682993D01*
X32889634Y13666936D01*
X32905431Y13651558D01*
X32921741Y13636870D01*
X32938575Y13622859D01*
X32955908Y13609535D01*
X32973766Y13596891D01*
X32992135Y13584933D01*
X33011006Y13573654D01*
X33030509Y13562958D01*
X33050727Y13552728D01*
X33071671Y13542973D01*
X33093354Y13533686D01*
X33115747Y13524863D01*
X33138880Y13516521D01*
X33162733Y13508630D01*
X33187308Y13501222D01*
X33212607Y13494291D01*
X33238646Y13487808D01*
X33265395Y13481813D01*
X33292882Y13476285D01*
X33321095Y13471222D01*
X33350027Y13466627D01*
X33379689Y13462509D01*
X33410085Y13458862D01*
X33415547Y12934050D01*
X33366238Y12933860D01*
X33318084Y12934652D01*
X33271082Y12936422D01*
X33225238Y12939178D01*
X33180541Y12942916D01*
X33137001Y12947632D01*
X33094609Y12953336D01*
X33053383Y12960020D01*
X33013292Y12967689D01*
X32974359Y12976335D01*
X32936587Y12985960D01*
X32899961Y12996574D01*
X32864493Y13008173D01*
X32830181Y13020749D01*
X32797013Y13034308D01*
X32765005Y13048853D01*
X32733968Y13063800D01*
X32703756Y13079941D01*
X32674364Y13097284D01*
X32645756Y13115821D01*
X32617979Y13135551D01*
X32591007Y13156486D01*
X32564848Y13178600D01*
X32539499Y13201921D01*
X32514964Y13226428D01*
X32491244Y13252143D01*
X32468327Y13279052D01*
X32446230Y13307153D01*
X32424943Y13336456D01*
X32404462Y13366953D01*
X32384788Y13398638D01*
X32365931Y13431524D01*
X32347736Y13465049D01*
X32330061Y13500032D01*
X32312885Y13536461D01*
X32296238Y13574334D01*
X32280092Y13613677D01*
X32264459Y13654464D01*
X32249341Y13696701D01*
X32234731Y13740385D01*
X32220635Y13785540D01*
X32207061Y13832137D01*
X32193984Y13880178D01*
X32181433Y13929688D01*
X32157852Y14033031D01*
X32136331Y14142199D01*
X32124369Y14207112D01*
X32113097Y14273397D01*
X32102511Y14341050D01*
X32092602Y14410066D01*
X32083373Y14480452D01*
X32074833Y14552196D01*
X32066976Y14625319D01*
X32059796Y14699801D01*
X32050229Y14854577D01*
X32043399Y15012773D01*
X32039295Y15174380D01*
X32037931Y15339408D01*
X32039295Y15496235D01*
X32043399Y15655116D01*
X32050229Y15816038D01*
X32059796Y15979014D01*
X32074833Y16139940D01*
X32083373Y16218098D01*
X32092602Y16294717D01*
X32102511Y16369796D01*
X32113097Y16443341D01*
X32124369Y16515351D01*
X32136331Y16585822D01*
X32158115Y16705070D01*
X32182459Y16816793D01*
X32209362Y16920997D01*
X32223776Y16970286D01*
X32238826Y17017689D01*
X32254533Y17063217D01*
X32270863Y17106867D01*
X32287843Y17148640D01*
X32305459Y17188535D01*
X32323711Y17226538D01*
X32342612Y17262671D01*
X32362157Y17296921D01*
X32382329Y17329292D01*
X32403170Y17360769D01*
X32424704Y17390972D01*
X32446906Y17419877D01*
X32469806Y17447514D01*
X32493375Y17473863D01*
X32517628Y17498939D01*
X32542580Y17522721D01*
X32568208Y17545237D01*
X32594509Y17566458D01*
X32621510Y17586404D01*
X32649176Y17605069D01*
X32677544Y17622451D01*
X32706584Y17638548D01*
X32736310Y17653368D01*
X32766713Y17666916D01*
X32797804Y17679169D01*
X32830329Y17690439D01*
X32863658Y17701033D01*
X32897805Y17710944D01*
X32932765Y17720167D01*
X32968528Y17728707D01*
X33005110Y17736563D01*
X33042504Y17743743D01*
X33080705Y17750236D01*
X33119719Y17756045D01*
X33159548Y17761168D01*
X33200185Y17765614D01*
X33241640Y17769363D01*
X33326969Y17774829D01*
X33415547Y17777568D01*
X33410085Y17247294D01*
G37*
G36*
X39309951Y10414943D02*
G01*
X39362991Y10413409D01*
X39413133Y10410846D01*
X39460366Y10407256D01*
X39504698Y10402644D01*
X39546127Y10397002D01*
X39584653Y10390341D01*
X39620272Y10382653D01*
X39637071Y10378960D01*
X39653317Y10374708D01*
X39669019Y10369909D01*
X39684161Y10364551D01*
X39698747Y10358630D01*
X39712779Y10352165D01*
X39726248Y10345132D01*
X39739169Y10337557D01*
X39751531Y10329415D01*
X39763343Y10320726D01*
X39774592Y10311481D01*
X39785293Y10301677D01*
X39795439Y10291317D01*
X39805023Y10280409D01*
X39814060Y10268949D01*
X39822543Y10256921D01*
X39831209Y10244876D01*
X39839445Y10231979D01*
X39847269Y10218226D01*
X39854658Y10203621D01*
X39861612Y10188158D01*
X39868149Y10171842D01*
X39874251Y10154681D01*
X39879939Y10136658D01*
X39885196Y10117773D01*
X39890020Y10098044D01*
X39894412Y10077461D01*
X39898387Y10056027D01*
X39901941Y10033724D01*
X39905050Y10010585D01*
X39907740Y9986572D01*
X39910004Y9961719D01*
X39915129Y9908927D01*
X39919569Y9851707D01*
X39923327Y9790034D01*
X39926403Y9723915D01*
X39928796Y9653361D01*
X39930507Y9578366D01*
X39931532Y9498927D01*
X39931876Y9415037D01*
X39931876Y9169045D01*
X39926403Y7228357D01*
X39669475Y7228357D01*
X39662081Y7228461D01*
X39654949Y7228785D01*
X39648072Y7229320D01*
X39641450Y7230063D01*
X39635089Y7231034D01*
X39628976Y7232203D01*
X39623129Y7233594D01*
X39617534Y7235193D01*
X39612194Y7237006D01*
X39607108Y7239036D01*
X39602286Y7241277D01*
X39597722Y7243739D01*
X39593400Y7246403D01*
X39589351Y7249284D01*
X39585543Y7252382D01*
X39582000Y7255691D01*
X39579178Y7260197D01*
X39576187Y7265518D01*
X39573035Y7271647D01*
X39569701Y7278586D01*
X39566197Y7286337D01*
X39562525Y7294899D01*
X39554667Y7314463D01*
X39546127Y7337265D01*
X39536899Y7363318D01*
X39526993Y7392617D01*
X39516401Y7425161D01*
X39478128Y7425161D01*
X39464636Y7401417D01*
X39451482Y7379374D01*
X39438674Y7359048D01*
X39426199Y7340431D01*
X39414072Y7323513D01*
X39402286Y7308310D01*
X39390838Y7294818D01*
X39385237Y7288711D01*
X39379734Y7283026D01*
X39374169Y7277691D01*
X39368373Y7272607D01*
X39362377Y7267778D01*
X39356161Y7263206D01*
X39349736Y7258897D01*
X39343086Y7254835D01*
X39336237Y7251039D01*
X39329166Y7247494D01*
X39321879Y7244200D01*
X39314387Y7241177D01*
X39306676Y7238396D01*
X39298758Y7235876D01*
X39290627Y7233616D01*
X39282271Y7231607D01*
X39273710Y7229854D01*
X39264928Y7228357D01*
X39247505Y7225800D01*
X39228036Y7223573D01*
X39206508Y7221700D01*
X39182935Y7220155D01*
X39157307Y7218967D01*
X39129627Y7218106D01*
X39099904Y7217600D01*
X39068127Y7217422D01*
X39001505Y7217853D01*
X38938296Y7219140D01*
X38878498Y7221272D01*
X38822123Y7224258D01*
X38769162Y7228103D01*
X38719628Y7232802D01*
X38673500Y7238357D01*
X38630793Y7244757D01*
X38610613Y7249121D01*
X38591075Y7253980D01*
X38572172Y7259366D01*
X38553920Y7265256D01*
X38536297Y7271666D01*
X38519325Y7278586D01*
X38502990Y7286021D01*
X38487289Y7293962D01*
X38472236Y7302422D01*
X38457829Y7311387D01*
X38444049Y7320873D01*
X38430922Y7330856D01*
X38418424Y7341363D01*
X38406570Y7352381D01*
X38395361Y7363921D01*
X38384790Y7375965D01*
X38375435Y7389356D01*
X38366511Y7403553D01*
X38358010Y7418560D01*
X38349940Y7434384D01*
X38342290Y7451023D01*
X38335081Y7468468D01*
X38328289Y7486722D01*
X38321920Y7505799D01*
X38315987Y7525676D01*
X38310474Y7546371D01*
X38305397Y7567867D01*
X38300742Y7590188D01*
X38296511Y7613312D01*
X38292711Y7637251D01*
X38289331Y7662000D01*
X38286384Y7687564D01*
X38281260Y7741719D01*
X38276825Y7800316D01*
X38273067Y7863353D01*
X38269995Y7930834D01*
X38267598Y8002754D01*
X38265892Y8079121D01*
X38264866Y8159922D01*
X38264547Y8239698D01*
X38712790Y8239698D01*
X38713141Y8176240D01*
X38714158Y8117038D01*
X38715866Y8062116D01*
X38718260Y8011463D01*
X38721334Y7965084D01*
X38725090Y7922972D01*
X38729537Y7885135D01*
X38734656Y7851564D01*
X38738290Y7836853D01*
X38742344Y7822786D01*
X38746828Y7809344D01*
X38751742Y7796565D01*
X38757080Y7784404D01*
X38762844Y7772894D01*
X38769038Y7762024D01*
X38775660Y7751797D01*
X38782705Y7742203D01*
X38790180Y7733260D01*
X38798082Y7724960D01*
X38806412Y7717292D01*
X38815165Y7710264D01*
X38824351Y7703880D01*
X38833953Y7698136D01*
X38843997Y7693033D01*
X38855315Y7689054D01*
X38867397Y7685346D01*
X38880254Y7681885D01*
X38893878Y7678681D01*
X38908271Y7675736D01*
X38923426Y7673044D01*
X38939361Y7670609D01*
X38956066Y7668431D01*
X38973525Y7666510D01*
X38991768Y7664843D01*
X39010767Y7663435D01*
X39030547Y7662280D01*
X39072399Y7660736D01*
X39117331Y7660236D01*
X39155590Y7660736D01*
X39191129Y7662280D01*
X39223930Y7664843D01*
X39254005Y7668431D01*
X39268007Y7670609D01*
X39281330Y7673044D01*
X39293974Y7675736D01*
X39305933Y7678681D01*
X39317203Y7681885D01*
X39327794Y7685346D01*
X39337707Y7689054D01*
X39346930Y7693033D01*
X39351663Y7695500D01*
X39356283Y7698136D01*
X39360801Y7700924D01*
X39365215Y7703880D01*
X39369508Y7706988D01*
X39373708Y7710264D01*
X39377796Y7713694D01*
X39381777Y7717292D01*
X39385653Y7721039D01*
X39389428Y7724960D01*
X39393088Y7729026D01*
X39396645Y7733260D01*
X39400094Y7737657D01*
X39403437Y7742203D01*
X39406666Y7746920D01*
X39409796Y7751797D01*
X39412819Y7756837D01*
X39415735Y7762024D01*
X39421249Y7772894D01*
X39426325Y7784404D01*
X39430979Y7796565D01*
X39435216Y7809344D01*
X39439011Y7822786D01*
X39442383Y7836853D01*
X39445332Y7851564D01*
X39450457Y7883766D01*
X39454900Y7920243D01*
X39458657Y7960983D01*
X39461733Y8005998D01*
X39464119Y8055286D01*
X39465836Y8108847D01*
X39466859Y8166662D01*
X39467201Y8228767D01*
X39466859Y8294790D01*
X39465836Y8356205D01*
X39464119Y8413015D01*
X39461733Y8465201D01*
X39458657Y8512779D01*
X39454900Y8555751D01*
X39450457Y8594103D01*
X39445332Y8627838D01*
X39442383Y8643189D01*
X39439011Y8657829D01*
X39435216Y8671724D01*
X39430979Y8684897D01*
X39426325Y8697354D01*
X39421249Y8709068D01*
X39415735Y8720067D01*
X39409796Y8730338D01*
X39403437Y8739887D01*
X39396645Y8748707D01*
X39389428Y8756793D01*
X39381777Y8764162D01*
X39373708Y8770806D01*
X39365215Y8776714D01*
X39356283Y8781911D01*
X39346930Y8786373D01*
X39337707Y8791009D01*
X39327794Y8795348D01*
X39317203Y8799377D01*
X39305933Y8803115D01*
X39293974Y8806553D01*
X39281330Y8809691D01*
X39268007Y8812537D01*
X39254005Y8815066D01*
X39239304Y8817317D01*
X39223930Y8819257D01*
X39207871Y8820905D01*
X39191129Y8822249D01*
X39173706Y8823292D01*
X39155590Y8824046D01*
X39136811Y8824490D01*
X39117331Y8824644D01*
X39072399Y8824046D01*
X39030547Y8822249D01*
X38991768Y8819257D01*
X38956066Y8815066D01*
X38923426Y8809691D01*
X38908271Y8806553D01*
X38893878Y8803115D01*
X38880254Y8799377D01*
X38867397Y8795348D01*
X38855315Y8791009D01*
X38843997Y8786373D01*
X38838920Y8784230D01*
X38833953Y8781911D01*
X38829100Y8779410D01*
X38824351Y8776714D01*
X38819709Y8773854D01*
X38815165Y8770806D01*
X38810732Y8767574D01*
X38806412Y8764162D01*
X38802188Y8760571D01*
X38798082Y8756793D01*
X38794080Y8752848D01*
X38790180Y8748707D01*
X38786395Y8744392D01*
X38782705Y8739887D01*
X38779134Y8735201D01*
X38775660Y8730338D01*
X38772297Y8725293D01*
X38769038Y8720067D01*
X38762844Y8709068D01*
X38757080Y8697354D01*
X38751742Y8684897D01*
X38746828Y8671724D01*
X38742344Y8657829D01*
X38738290Y8643189D01*
X38734656Y8627838D01*
X38729537Y8595468D01*
X38725090Y8558481D01*
X38721334Y8516879D01*
X38718260Y8470670D01*
X38715866Y8419848D01*
X38714158Y8364411D01*
X38713141Y8304369D01*
X38712790Y8239698D01*
X38264547Y8239698D01*
X38264518Y8245173D01*
X38265892Y8410876D01*
X38269995Y8558139D01*
X38273067Y8624853D01*
X38276825Y8686948D01*
X38281260Y8744435D01*
X38286384Y8797302D01*
X38289309Y8822849D01*
X38292623Y8847529D01*
X38296318Y8871372D01*
X38300397Y8894336D01*
X38304860Y8916464D01*
X38309706Y8937737D01*
X38314946Y8958155D01*
X38320555Y8977703D01*
X38326555Y8996412D01*
X38332940Y9014266D01*
X38339714Y9031268D01*
X38346865Y9047414D01*
X38354398Y9062704D01*
X38362324Y9077135D01*
X38370635Y9090720D01*
X38379325Y9103450D01*
X38389165Y9116130D01*
X38399571Y9128216D01*
X38410524Y9139707D01*
X38422030Y9150594D01*
X38434093Y9160888D01*
X38446718Y9170577D01*
X38459887Y9179675D01*
X38473622Y9188173D01*
X38487914Y9196078D01*
X38502754Y9203383D01*
X38518147Y9210086D01*
X38534105Y9216196D01*
X38550606Y9221711D01*
X38567668Y9226617D01*
X38585284Y9230927D01*
X38603455Y9234644D01*
X38643436Y9242336D01*
X38686821Y9248991D01*
X38733635Y9254636D01*
X38783859Y9259248D01*
X38837502Y9262836D01*
X38894565Y9265393D01*
X38955034Y9266928D01*
X39018929Y9267447D01*
X39045494Y9267183D01*
X39070521Y9266419D01*
X39094012Y9265138D01*
X39115960Y9263350D01*
X39136376Y9261038D01*
X39155259Y9258228D01*
X39172596Y9254895D01*
X39188399Y9251049D01*
X39195895Y9249549D01*
X39203347Y9247801D01*
X39210757Y9245787D01*
X39218123Y9243529D01*
X39225449Y9241005D01*
X39232727Y9238229D01*
X39239966Y9235202D01*
X39247165Y9231911D01*
X39254318Y9228368D01*
X39261427Y9224567D01*
X39268500Y9220506D01*
X39275520Y9216196D01*
X39282504Y9211630D01*
X39289445Y9206798D01*
X39296340Y9201718D01*
X39303202Y9196379D01*
X39310826Y9190694D01*
X39318664Y9184592D01*
X39326707Y9178055D01*
X39334974Y9171096D01*
X39352138Y9155893D01*
X39370165Y9138978D01*
X39389041Y9120355D01*
X39408774Y9100026D01*
X39429358Y9077989D01*
X39450792Y9054242D01*
X39489063Y9054242D01*
X39489063Y9415037D01*
X39488040Y9529848D01*
X39486759Y9581099D01*
X39484965Y9628252D01*
X39482660Y9671295D01*
X39479840Y9710247D01*
X39476503Y9745101D01*
X39472662Y9775854D01*
X39471142Y9790545D01*
X39469335Y9804548D01*
X39467224Y9817880D01*
X39464804Y9830519D01*
X39462094Y9842477D01*
X39459080Y9853753D01*
X39455772Y9864349D01*
X39452164Y9874256D01*
X39448253Y9883477D01*
X39444048Y9892021D01*
X39439545Y9899880D01*
X39434733Y9907053D01*
X39429637Y9913545D01*
X39424235Y9919352D01*
X39418531Y9924471D01*
X39412532Y9928922D01*
X39406149Y9932890D01*
X39399301Y9936608D01*
X39391964Y9940068D01*
X39384173Y9943270D01*
X39375910Y9946216D01*
X39367175Y9948902D01*
X39357972Y9951337D01*
X39348296Y9953516D01*
X39338163Y9955439D01*
X39327539Y9957107D01*
X39316460Y9958515D01*
X39304905Y9959669D01*
X39292883Y9960567D01*
X39280398Y9961206D01*
X39267428Y9961589D01*
X39254005Y9961719D01*
X38248116Y9961719D01*
X38203187Y9961206D01*
X38161336Y9959669D01*
X38122558Y9957107D01*
X38086850Y9953516D01*
X38054219Y9948902D01*
X38024666Y9943270D01*
X38011039Y9940068D01*
X37998192Y9936608D01*
X37986108Y9932890D01*
X37974782Y9928922D01*
X37969707Y9926788D01*
X37964749Y9924498D01*
X37959883Y9922052D01*
X37955138Y9919435D01*
X37950495Y9916671D01*
X37945954Y9913736D01*
X37941526Y9910652D01*
X37937203Y9907392D01*
X37932976Y9903984D01*
X37928876Y9900409D01*
X37924870Y9896672D01*
X37920969Y9892787D01*
X37917178Y9888731D01*
X37913498Y9884520D01*
X37909926Y9880154D01*
X37906454Y9875619D01*
X37899835Y9866077D01*
X37893637Y9855882D01*
X37887869Y9845063D01*
X37882540Y9833592D01*
X37877622Y9821483D01*
X37873134Y9808737D01*
X37869081Y9795343D01*
X37865450Y9781311D01*
X37860322Y9751929D01*
X37855879Y9718447D01*
X37852129Y9680871D01*
X37849051Y9639183D01*
X37846667Y9593394D01*
X37844949Y9543510D01*
X37843923Y9489537D01*
X37843585Y9431447D01*
X37843585Y7091690D01*
X37843923Y7041472D01*
X37844949Y6994651D01*
X37846667Y6951264D01*
X37849051Y6911290D01*
X37852129Y6874734D01*
X37855879Y6841590D01*
X37860322Y6811862D01*
X37865450Y6785553D01*
X37869081Y6773511D01*
X37873134Y6761986D01*
X37877622Y6750968D01*
X37882540Y6740453D01*
X37887869Y6730457D01*
X37893637Y6720978D01*
X37899835Y6712014D01*
X37906454Y6703554D01*
X37913498Y6695614D01*
X37920969Y6688178D01*
X37928876Y6681263D01*
X37937203Y6674853D01*
X37945954Y6668963D01*
X37955138Y6663578D01*
X37964749Y6658710D01*
X37974782Y6654356D01*
X37985394Y6651048D01*
X37996734Y6647951D01*
X38008805Y6645066D01*
X38021596Y6642396D01*
X38035104Y6639939D01*
X38049357Y6637695D01*
X38064323Y6635667D01*
X38080015Y6633856D01*
X38113591Y6630861D01*
X38150065Y6628726D01*
X38189439Y6627448D01*
X38231723Y6627018D01*
X39106398Y6627018D01*
X39106397Y6173280D01*
X38242652Y6173280D01*
X38169449Y6173714D01*
X38100180Y6174991D01*
X38034835Y6177119D01*
X37973418Y6180112D01*
X37915932Y6183966D01*
X37862379Y6188657D01*
X37812749Y6194211D01*
X37767053Y6200615D01*
X37745521Y6204262D01*
X37724689Y6208389D01*
X37704522Y6212976D01*
X37685050Y6218043D01*
X37666258Y6223578D01*
X37648149Y6229577D01*
X37630725Y6236040D01*
X37613980Y6242986D01*
X37597923Y6250396D01*
X37582549Y6258276D01*
X37567861Y6266626D01*
X37553847Y6275442D01*
X37540528Y6284735D01*
X37527886Y6294491D01*
X37515929Y6304720D01*
X37504650Y6315424D01*
X37494614Y6326740D01*
X37485001Y6338816D01*
X37475818Y6351678D01*
X37467066Y6365296D01*
X37458734Y6379695D01*
X37450840Y6394853D01*
X37443359Y6410781D01*
X37436314Y6427489D01*
X37429688Y6444952D01*
X37423503Y6463188D01*
X37417741Y6482197D01*
X37412399Y6501970D01*
X37407486Y6522510D01*
X37402998Y6543820D01*
X37398941Y6565902D01*
X37395310Y6588747D01*
X37388909Y6635901D01*
X37383357Y6687151D01*
X37378660Y6742506D01*
X37374818Y6801961D01*
X37371822Y6865509D01*
X37369691Y6933158D01*
X37368404Y7004911D01*
X37367975Y7080759D01*
X37367975Y9420509D01*
X37368404Y9503112D01*
X37369691Y9581439D01*
X37371822Y9655496D01*
X37374818Y9725282D01*
X37378660Y9790801D01*
X37383357Y9852043D01*
X37388909Y9909020D01*
X37395310Y9961719D01*
X37398968Y9986593D01*
X37403083Y10010668D01*
X37407681Y10033916D01*
X37412744Y10056358D01*
X37418264Y10077997D01*
X37424268Y10098812D01*
X37430737Y10118822D01*
X37437677Y10138016D01*
X37445095Y10156406D01*
X37452977Y10173984D01*
X37461320Y10190741D01*
X37470136Y10206694D01*
X37479425Y10221837D01*
X37489181Y10236166D01*
X37499412Y10249683D01*
X37510113Y10262385D01*
X37521392Y10274408D01*
X37533350Y10285881D01*
X37545988Y10296788D01*
X37559314Y10307142D01*
X37573331Y10316949D01*
X37588016Y10326199D01*
X37603394Y10334891D01*
X37619453Y10343023D01*
X37636197Y10350605D01*
X37653609Y10357630D01*
X37671720Y10364102D01*
X37690516Y10370016D01*
X37709992Y10375374D01*
X37730152Y10380179D01*
X37750989Y10384423D01*
X37772514Y10388124D01*
X37819498Y10394529D01*
X37870233Y10400081D01*
X37924735Y10404780D01*
X37982988Y10408622D01*
X38045003Y10411615D01*
X38110762Y10413742D01*
X38180296Y10415028D01*
X38253589Y10415453D01*
X39254005Y10415453D01*
X39309951Y10414943D01*
G37*
D12*
X245000Y43393031D02*
X235000Y17773031D01*
X325305Y5900000D02*
X325305Y7283031D01*
X435000Y53973031D02*
X2875305Y56450000D01*
X478705Y85550000D02*
X478705Y84383031D01*
X478705Y85550000D02*
X1475305Y86550000D01*
X478705Y73772733D02*
X478705Y66800000D01*
X478705Y66800000D02*
X478705Y58500000D01*
X478705Y58500000D02*
X1525305Y57450000D01*
X1475305Y86550000D02*
X18375305Y86550000D01*
X1525305Y57450000D02*
X12075305Y57450000D01*
X2875305Y56450000D02*
X12075305Y56450000D01*
X5675305Y5900000D02*
X325305Y5900000D01*
X7075305Y4500000D02*
X5675305Y5900000D01*
X12075305Y57450000D02*
X13225305Y58650000D01*
X12075305Y56450000D02*
X12675305Y57050000D01*
X12675305Y57050000D02*
X14675305Y57050000D01*
X13225305Y58650000D02*
X13975305Y59400000D01*
X13975305Y62350000D02*
X15225305Y63600000D01*
X13975305Y59400000D02*
X13975305Y62350000D01*
X14675305Y57050000D02*
X15275305Y56450000D01*
X15225305Y63600000D02*
X24175305Y63600000D01*
X15275305Y56450000D02*
X15275305Y51450000D01*
X15275305Y51450000D02*
X17175305Y49550000D01*
X17175305Y49550000D02*
X17175305Y18600000D01*
X17175305Y18600000D02*
X18975305Y16800000D01*
X17325305Y4500000D02*
X7075305Y4500000D01*
X18375305Y86550000D02*
X24425305Y80500000D01*
X18975305Y16800000D02*
X18975305Y6150000D01*
X18975305Y6150000D02*
X17325305Y4500000D01*
X24175305Y63600000D02*
X25725305Y65150000D01*
X24425305Y80500000D02*
X26375305Y78550000D01*
X25725305Y65150000D02*
X26375305Y65800000D01*
X26375305Y75150000D02*
X26375305Y78550000D01*
X26375305Y65800000D02*
X26375305Y75150000D01*
X28525305Y87200000D02*
X28525305Y74000000D01*
X28525305Y74000000D02*
X29825305Y72700000D01*
X29525305Y88200000D02*
X28525305Y87200000D01*
X29825305Y72700000D02*
X43775305Y72700000D01*
X29925000Y88200000D02*
X29525305Y88200000D01*
X40375305Y14750000D02*
X40375305Y2700000D01*
X40375305Y2700000D02*
X41825305Y1250000D01*
X41825305Y1250000D02*
X50875305Y1250000D01*
X42225305Y16750000D02*
X40375305Y14800000D01*
X43295000Y88203031D02*
X43675305Y88200000D01*
X43675305Y88200000D02*
X44375305Y87500000D01*
X44375305Y87500000D02*
X44375305Y85300000D01*
X44375305Y72700000D02*
X51475305Y72700000D01*
X44925305Y84750000D02*
X44375305Y85300000D01*
X50875305Y1250000D02*
X62675305Y1250000D01*
X51475305Y72700000D02*
X52225305Y73450000D01*
X52225305Y75050000D02*
X53325305Y75050000D01*
X52225305Y73450000D02*
X52225305Y75050000D01*
X52425305Y84750000D02*
X44925305Y84750000D01*
X53325305Y83850000D02*
X52425305Y84750000D01*
X53325305Y75050000D02*
X53325305Y83850000D01*
X62675305Y1250000D02*
X64025305Y2600000D01*
X62775305Y16750000D02*
X42225305Y16750000D01*
X64025305Y15500000D02*
X62775305Y16750000D01*
X64025305Y2600000D02*
X64025305Y15500000D01*
X64450305Y15525000D02*
X64450305Y2625000D01*
X64450305Y2625000D02*
X65700305Y1375000D01*
X65700305Y1375000D02*
X86250305Y1375000D01*
X65800305Y16875000D02*
X64450305Y15525000D01*
X69975305Y87550000D02*
X69975305Y66300000D01*
X69975305Y66300000D02*
X71925305Y64350000D01*
X70725000Y88313031D02*
X69975305Y87550000D01*
X71925305Y64350000D02*
X95575305Y64350000D01*
X73525305Y45250000D02*
X74825305Y46550000D01*
X73525305Y31450000D02*
X73525305Y45250000D01*
X74625305Y30350000D02*
X73525305Y31450000D01*
X74825305Y46550000D02*
X77125305Y48850000D01*
X77125305Y48850000D02*
X97925305Y48850000D01*
X77335000Y88413031D02*
X86675305Y88400000D01*
X77600305Y16875000D02*
X65800305Y16875000D01*
X80625305Y61950000D02*
X81675305Y63000000D01*
X80625305Y51350000D02*
X80625305Y61950000D01*
X81375305Y50600000D02*
X80625305Y51350000D01*
X81575305Y30350000D02*
X74625305Y30350000D01*
X81675305Y63000000D02*
X97725305Y63000000D01*
X83725305Y28200000D02*
X81575305Y30350000D01*
X83725305Y19677331D02*
X83725305Y28200000D01*
X85925305Y16875000D02*
X77600305Y16875000D01*
X86250305Y1375000D02*
X88100305Y3325000D01*
X86675305Y88400000D02*
X91725305Y83350000D01*
X88100305Y14749432D02*
X85925305Y16875000D01*
X88100305Y3375000D02*
X88100305Y14749432D01*
X89295000Y14053031D02*
X83725305Y19677331D01*
X91725305Y83350000D02*
X96975305Y78100000D01*
X95575305Y64350000D02*
X96975305Y65750000D01*
X96975305Y73250000D02*
X96975305Y78100000D01*
X96975305Y65750000D02*
X96975305Y73250000D01*
X97025305Y14050000D02*
X89295000Y14053031D01*
X97725305Y63000000D02*
X97725305Y50600000D01*
X97725305Y50600000D02*
X81375305Y50600000D01*
X97925305Y48850000D02*
X97925305Y45363031D01*
X97925305Y14050000D02*
X97025305Y14050000D01*
X97925305Y14050000D02*
X97925305Y33773031D01*
D13*
X85157362Y21827256D02*
X84728790Y21527256D01*
X85157362Y21312970D02*
X84257362Y21312970D01*
X84257362Y21312970D02*
X84257362Y21655827D01*
X84257362Y21655827D02*
X84300219Y21741542D01*
X84300219Y21741542D02*
X84343076Y21784399D01*
X84343076Y21784399D02*
X84428790Y21827256D01*
X84428790Y21827256D02*
X84557362Y21827256D01*
X84557362Y21827256D02*
X84643076Y21784399D01*
X84643076Y21784399D02*
X84685933Y21741542D01*
X84685933Y21741542D02*
X84728790Y21655827D01*
X84728790Y21655827D02*
X84728790Y21312970D01*
X85157362Y22212970D02*
X84257362Y22212970D01*
X84257362Y22212970D02*
X84257362Y22555827D01*
X84257362Y22555827D02*
X84300219Y22641542D01*
X84300219Y22641542D02*
X84343076Y22684399D01*
X84343076Y22684399D02*
X84428790Y22727256D01*
X84428790Y22727256D02*
X84557362Y22727256D01*
X84557362Y22727256D02*
X84643076Y22684399D01*
X84643076Y22684399D02*
X84685933Y22641542D01*
X84685933Y22641542D02*
X84728790Y22555827D01*
X84728790Y22555827D02*
X84728790Y22212970D01*
X85157362Y23112970D02*
X84257362Y23112970D01*
X95767362Y20197970D02*
X94867362Y20197970D01*
X94867362Y20197970D02*
X94867362Y20540827D01*
X94867362Y20540827D02*
X94910219Y20626542D01*
X94910219Y20626542D02*
X94953076Y20669399D01*
X94953076Y20669399D02*
X95038790Y20712256D01*
X95038790Y20712256D02*
X95167362Y20712256D01*
X95167362Y20712256D02*
X95253076Y20669399D01*
X95253076Y20669399D02*
X95295933Y20626542D01*
X95295933Y20626542D02*
X95338790Y20540827D01*
X95338790Y20540827D02*
X95338790Y20197970D01*
X95767362Y21097970D02*
X94867362Y21097970D01*
X95767362Y21526541D02*
X94867362Y21526541D01*
X94867362Y21526541D02*
X95767362Y22040827D01*
X95767362Y22040827D02*
X94867362Y22040827D01*
X95724505Y22426541D02*
X95767362Y22555112D01*
X95767362Y22555112D02*
X95767362Y22769398D01*
X95767362Y22769398D02*
X95724505Y22855112D01*
X95724505Y22855112D02*
X95681647Y22897970D01*
X95681647Y22897970D02*
X95595933Y22940827D01*
X95595933Y22940827D02*
X95510219Y22940827D01*
X95510219Y22940827D02*
X95424505Y22897970D01*
X95424505Y22897970D02*
X95381647Y22855112D01*
X95381647Y22855112D02*
X95338790Y22769398D01*
X95338790Y22769398D02*
X95295933Y22597970D01*
X95295933Y22597970D02*
X95253076Y22512255D01*
X95253076Y22512255D02*
X95210219Y22469398D01*
X95210219Y22469398D02*
X95124505Y22426541D01*
X95124505Y22426541D02*
X95038790Y22426541D01*
X95038790Y22426541D02*
X94953076Y22469398D01*
X94953076Y22469398D02*
X94910219Y22512255D01*
X94910219Y22512255D02*
X94867362Y22597970D01*
X94867362Y22597970D02*
X94867362Y22812255D01*
X94867362Y22812255D02*
X94910219Y22940827D01*
D12*
X37056570Y71375200D02*
X37199427Y71327581D01*
X37199427Y71327581D02*
X37437522Y71327581D01*
X37437522Y71327581D02*
X37532760Y71375200D01*
X37532760Y71375200D02*
X37580379Y71422820D01*
X37580379Y71422820D02*
X37627998Y71518058D01*
X37627998Y71518058D02*
X37627998Y71613296D01*
X37627998Y71613296D02*
X37580379Y71708534D01*
X37580379Y71708534D02*
X37532760Y71756153D01*
X37532760Y71756153D02*
X37437522Y71803772D01*
X37437522Y71803772D02*
X37247046Y71851391D01*
X37247046Y71851391D02*
X37151808Y71899010D01*
X37151808Y71899010D02*
X37104189Y71946629D01*
X37104189Y71946629D02*
X37056570Y72041867D01*
X37056570Y72041867D02*
X37056570Y72137105D01*
X37056570Y72137105D02*
X37104189Y72232343D01*
X37104189Y72232343D02*
X37151808Y72279962D01*
X37151808Y72279962D02*
X37247046Y72327581D01*
X37247046Y72327581D02*
X37485141Y72327581D01*
X37485141Y72327581D02*
X37627998Y72279962D01*
X38056570Y71327581D02*
X38056570Y72327581D01*
X38056570Y72327581D02*
X38294665Y72327581D01*
X38294665Y72327581D02*
X38437522Y72279962D01*
X38437522Y72279962D02*
X38532760Y72184724D01*
X38532760Y72184724D02*
X38580379Y72089486D01*
X38580379Y72089486D02*
X38627998Y71899010D01*
X38627998Y71899010D02*
X38627998Y71756153D01*
X38627998Y71756153D02*
X38580379Y71565677D01*
X38580379Y71565677D02*
X38532760Y71470439D01*
X38532760Y71470439D02*
X38437522Y71375200D01*
X38437522Y71375200D02*
X38294665Y71327581D01*
X38294665Y71327581D02*
X38056570Y71327581D01*
X40247046Y71375200D02*
X40151808Y71327581D01*
X40151808Y71327581D02*
X39961332Y71327581D01*
X39961332Y71327581D02*
X39866094Y71375200D01*
X39866094Y71375200D02*
X39818475Y71422820D01*
X39818475Y71422820D02*
X39770856Y71518058D01*
X39770856Y71518058D02*
X39770856Y71803772D01*
X39770856Y71803772D02*
X39818475Y71899010D01*
X39818475Y71899010D02*
X39866094Y71946629D01*
X39866094Y71946629D02*
X39961332Y71994248D01*
X39961332Y71994248D02*
X40151808Y71994248D01*
X40151808Y71994248D02*
X40247046Y71946629D01*
X41104189Y71327581D02*
X41104189Y71851391D01*
X41104189Y71851391D02*
X41056570Y71946629D01*
X41056570Y71946629D02*
X40961332Y71994248D01*
X40961332Y71994248D02*
X40770856Y71994248D01*
X40770856Y71994248D02*
X40675618Y71946629D01*
X41104189Y71375200D02*
X41008951Y71327581D01*
X41008951Y71327581D02*
X40770856Y71327581D01*
X40770856Y71327581D02*
X40675618Y71375200D01*
X40675618Y71375200D02*
X40627999Y71470439D01*
X40627999Y71470439D02*
X40627999Y71565677D01*
X40627999Y71565677D02*
X40675618Y71660915D01*
X40675618Y71660915D02*
X40770856Y71708534D01*
X40770856Y71708534D02*
X41008951Y71708534D01*
X41008951Y71708534D02*
X41104189Y71756153D01*
X41580380Y71327581D02*
X41580380Y71994248D01*
X41580380Y71803772D02*
X41627999Y71899010D01*
X41627999Y71899010D02*
X41675618Y71946629D01*
X41675618Y71946629D02*
X41770856Y71994248D01*
X41770856Y71994248D02*
X41866094Y71994248D01*
X42627999Y71327581D02*
X42627999Y72327581D01*
X42627999Y71375200D02*
X42532761Y71327581D01*
X42532761Y71327581D02*
X42342285Y71327581D01*
X42342285Y71327581D02*
X42247047Y71375200D01*
X42247047Y71375200D02*
X42199428Y71422820D01*
X42199428Y71422820D02*
X42151809Y71518058D01*
X42151809Y71518058D02*
X42151809Y71803772D01*
X42151809Y71803772D02*
X42199428Y71899010D01*
X42199428Y71899010D02*
X42247047Y71946629D01*
X42247047Y71946629D02*
X42342285Y71994248D01*
X42342285Y71994248D02*
X42532761Y71994248D01*
X42532761Y71994248D02*
X42627999Y71946629D01*
X41975617Y2102581D02*
X41642284Y2578772D01*
X41404189Y2102581D02*
X41404189Y3102581D01*
X41404189Y3102581D02*
X41785141Y3102581D01*
X41785141Y3102581D02*
X41880379Y3054962D01*
X41880379Y3054962D02*
X41927998Y3007343D01*
X41927998Y3007343D02*
X41975617Y2912105D01*
X41975617Y2912105D02*
X41975617Y2769248D01*
X41975617Y2769248D02*
X41927998Y2674010D01*
X41927998Y2674010D02*
X41880379Y2626391D01*
X41880379Y2626391D02*
X41785141Y2578772D01*
X41785141Y2578772D02*
X41404189Y2578772D01*
X42404189Y2102581D02*
X42404189Y3102581D01*
X42404189Y3102581D02*
X42785141Y3102581D01*
X42785141Y3102581D02*
X42880379Y3054962D01*
X42880379Y3054962D02*
X42927998Y3007343D01*
X42927998Y3007343D02*
X42975617Y2912105D01*
X42975617Y2912105D02*
X42975617Y2769248D01*
X42975617Y2769248D02*
X42927998Y2674010D01*
X42927998Y2674010D02*
X42880379Y2626391D01*
X42880379Y2626391D02*
X42785141Y2578772D01*
X42785141Y2578772D02*
X42404189Y2578772D01*
X43404189Y2102581D02*
X43404189Y3102581D01*
X56679189Y66677581D02*
X56679189Y67677581D01*
X56679189Y67677581D02*
X56917284Y67677581D01*
X56917284Y67677581D02*
X57060141Y67629962D01*
X57060141Y67629962D02*
X57155379Y67534724D01*
X57155379Y67534724D02*
X57202998Y67439486D01*
X57202998Y67439486D02*
X57250617Y67249010D01*
X57250617Y67249010D02*
X57250617Y67106153D01*
X57250617Y67106153D02*
X57202998Y66915677D01*
X57202998Y66915677D02*
X57155379Y66820439D01*
X57155379Y66820439D02*
X57060141Y66725200D01*
X57060141Y66725200D02*
X56917284Y66677581D01*
X56917284Y66677581D02*
X56679189Y66677581D01*
X57679189Y66677581D02*
X57679189Y67344248D01*
X57679189Y67677581D02*
X57631570Y67629962D01*
X57631570Y67629962D02*
X57679189Y67582343D01*
X57679189Y67582343D02*
X57726808Y67629962D01*
X57726808Y67629962D02*
X57679189Y67677581D01*
X57679189Y67677581D02*
X57679189Y67582343D01*
X58107760Y66725200D02*
X58202998Y66677581D01*
X58202998Y66677581D02*
X58393474Y66677581D01*
X58393474Y66677581D02*
X58488712Y66725200D01*
X58488712Y66725200D02*
X58536331Y66820439D01*
X58536331Y66820439D02*
X58536331Y66868058D01*
X58536331Y66868058D02*
X58488712Y66963296D01*
X58488712Y66963296D02*
X58393474Y67010915D01*
X58393474Y67010915D02*
X58250617Y67010915D01*
X58250617Y67010915D02*
X58155379Y67058534D01*
X58155379Y67058534D02*
X58107760Y67153772D01*
X58107760Y67153772D02*
X58107760Y67201391D01*
X58107760Y67201391D02*
X58155379Y67296629D01*
X58155379Y67296629D02*
X58250617Y67344248D01*
X58250617Y67344248D02*
X58393474Y67344248D01*
X58393474Y67344248D02*
X58488712Y67296629D01*
X58964903Y67344248D02*
X58964903Y66344248D01*
X58964903Y67296629D02*
X59060141Y67344248D01*
X59060141Y67344248D02*
X59250617Y67344248D01*
X59250617Y67344248D02*
X59345855Y67296629D01*
X59345855Y67296629D02*
X59393474Y67249010D01*
X59393474Y67249010D02*
X59441093Y67153772D01*
X59441093Y67153772D02*
X59441093Y66868058D01*
X59441093Y66868058D02*
X59393474Y66772820D01*
X59393474Y66772820D02*
X59345855Y66725200D01*
X59345855Y66725200D02*
X59250617Y66677581D01*
X59250617Y66677581D02*
X59060141Y66677581D01*
X59060141Y66677581D02*
X58964903Y66725200D01*
X60012522Y66677581D02*
X59917284Y66725200D01*
X59917284Y66725200D02*
X59869665Y66820439D01*
X59869665Y66820439D02*
X59869665Y67677581D01*
X60822046Y66677581D02*
X60822046Y67201391D01*
X60822046Y67201391D02*
X60774427Y67296629D01*
X60774427Y67296629D02*
X60679189Y67344248D01*
X60679189Y67344248D02*
X60488713Y67344248D01*
X60488713Y67344248D02*
X60393475Y67296629D01*
X60822046Y66725200D02*
X60726808Y66677581D01*
X60726808Y66677581D02*
X60488713Y66677581D01*
X60488713Y66677581D02*
X60393475Y66725200D01*
X60393475Y66725200D02*
X60345856Y66820439D01*
X60345856Y66820439D02*
X60345856Y66915677D01*
X60345856Y66915677D02*
X60393475Y67010915D01*
X60393475Y67010915D02*
X60488713Y67058534D01*
X60488713Y67058534D02*
X60726808Y67058534D01*
X60726808Y67058534D02*
X60822046Y67106153D01*
X61202999Y67344248D02*
X61441094Y66677581D01*
X61679189Y67344248D02*
X61441094Y66677581D01*
X61441094Y66677581D02*
X61345856Y66439486D01*
X61345856Y66439486D02*
X61298237Y66391867D01*
X61298237Y66391867D02*
X61202999Y66344248D01*
X62964904Y66677581D02*
X62869666Y66725200D01*
X62869666Y66725200D02*
X62822047Y66772820D01*
X62822047Y66772820D02*
X62774428Y66868058D01*
X62774428Y66868058D02*
X62774428Y67153772D01*
X62774428Y67153772D02*
X62822047Y67249010D01*
X62822047Y67249010D02*
X62869666Y67296629D01*
X62869666Y67296629D02*
X62964904Y67344248D01*
X62964904Y67344248D02*
X63107761Y67344248D01*
X63107761Y67344248D02*
X63202999Y67296629D01*
X63202999Y67296629D02*
X63250618Y67249010D01*
X63250618Y67249010D02*
X63298237Y67153772D01*
X63298237Y67153772D02*
X63298237Y66868058D01*
X63298237Y66868058D02*
X63250618Y66772820D01*
X63250618Y66772820D02*
X63202999Y66725200D01*
X63202999Y66725200D02*
X63107761Y66677581D01*
X63107761Y66677581D02*
X62964904Y66677581D01*
X64155380Y67344248D02*
X64155380Y66677581D01*
X63726809Y67344248D02*
X63726809Y66820439D01*
X63726809Y66820439D02*
X63774428Y66725200D01*
X63774428Y66725200D02*
X63869666Y66677581D01*
X63869666Y66677581D02*
X64012523Y66677581D01*
X64012523Y66677581D02*
X64107761Y66725200D01*
X64107761Y66725200D02*
X64155380Y66772820D01*
X64488714Y67344248D02*
X64869666Y67344248D01*
X64631571Y67677581D02*
X64631571Y66820439D01*
X64631571Y66820439D02*
X64679190Y66725200D01*
X64679190Y66725200D02*
X64774428Y66677581D01*
X64774428Y66677581D02*
X64869666Y66677581D01*
X78431570Y86413296D02*
X78907760Y86413296D01*
X78336332Y86127581D02*
X78669665Y87127581D01*
X78669665Y87127581D02*
X79002998Y86127581D01*
X79764903Y86794248D02*
X79764903Y86127581D01*
X79336332Y86794248D02*
X79336332Y86270439D01*
X79336332Y86270439D02*
X79383951Y86175200D01*
X79383951Y86175200D02*
X79479189Y86127581D01*
X79479189Y86127581D02*
X79622046Y86127581D01*
X79622046Y86127581D02*
X79717284Y86175200D01*
X79717284Y86175200D02*
X79764903Y86222820D01*
X80669665Y86127581D02*
X80669665Y87127581D01*
X80669665Y86175200D02*
X80574427Y86127581D01*
X80574427Y86127581D02*
X80383951Y86127581D01*
X80383951Y86127581D02*
X80288713Y86175200D01*
X80288713Y86175200D02*
X80241094Y86222820D01*
X80241094Y86222820D02*
X80193475Y86318058D01*
X80193475Y86318058D02*
X80193475Y86603772D01*
X80193475Y86603772D02*
X80241094Y86699010D01*
X80241094Y86699010D02*
X80288713Y86746629D01*
X80288713Y86746629D02*
X80383951Y86794248D01*
X80383951Y86794248D02*
X80574427Y86794248D01*
X80574427Y86794248D02*
X80669665Y86746629D01*
X81145856Y86127581D02*
X81145856Y86794248D01*
X81145856Y87127581D02*
X81098237Y87079962D01*
X81098237Y87079962D02*
X81145856Y87032343D01*
X81145856Y87032343D02*
X81193475Y87079962D01*
X81193475Y87079962D02*
X81145856Y87127581D01*
X81145856Y87127581D02*
X81145856Y87032343D01*
X81764903Y86127581D02*
X81669665Y86175200D01*
X81669665Y86175200D02*
X81622046Y86222820D01*
X81622046Y86222820D02*
X81574427Y86318058D01*
X81574427Y86318058D02*
X81574427Y86603772D01*
X81574427Y86603772D02*
X81622046Y86699010D01*
X81622046Y86699010D02*
X81669665Y86746629D01*
X81669665Y86746629D02*
X81764903Y86794248D01*
X81764903Y86794248D02*
X81907760Y86794248D01*
X81907760Y86794248D02*
X82002998Y86746629D01*
X82002998Y86746629D02*
X82050617Y86699010D01*
X82050617Y86699010D02*
X82098236Y86603772D01*
X82098236Y86603772D02*
X82098236Y86318058D01*
X82098236Y86318058D02*
X82050617Y86222820D01*
X82050617Y86222820D02*
X82002998Y86175200D01*
X82002998Y86175200D02*
X81907760Y86127581D01*
X81907760Y86127581D02*
X81764903Y86127581D01*
X82129189Y60827581D02*
X82129189Y61827581D01*
X83176807Y60827581D02*
X82843474Y61303772D01*
X82605379Y60827581D02*
X82605379Y61827581D01*
X82605379Y61827581D02*
X82986331Y61827581D01*
X82986331Y61827581D02*
X83081569Y61779962D01*
X83081569Y61779962D02*
X83129188Y61732343D01*
X83129188Y61732343D02*
X83176807Y61637105D01*
X83176807Y61637105D02*
X83176807Y61494248D01*
X83176807Y61494248D02*
X83129188Y61399010D01*
X83129188Y61399010D02*
X83081569Y61351391D01*
X83081569Y61351391D02*
X82986331Y61303772D01*
X82986331Y61303772D02*
X82605379Y61303772D01*
X83525617Y30872820D02*
X83477998Y30825200D01*
X83477998Y30825200D02*
X83335141Y30777581D01*
X83335141Y30777581D02*
X83239903Y30777581D01*
X83239903Y30777581D02*
X83097046Y30825200D01*
X83097046Y30825200D02*
X83001808Y30920439D01*
X83001808Y30920439D02*
X82954189Y31015677D01*
X82954189Y31015677D02*
X82906570Y31206153D01*
X82906570Y31206153D02*
X82906570Y31349010D01*
X82906570Y31349010D02*
X82954189Y31539486D01*
X82954189Y31539486D02*
X83001808Y31634724D01*
X83001808Y31634724D02*
X83097046Y31729962D01*
X83097046Y31729962D02*
X83239903Y31777581D01*
X83239903Y31777581D02*
X83335141Y31777581D01*
X83335141Y31777581D02*
X83477998Y31729962D01*
X83477998Y31729962D02*
X83525617Y31682343D01*
X84097046Y30777581D02*
X84001808Y30825200D01*
X84001808Y30825200D02*
X83954189Y30872820D01*
X83954189Y30872820D02*
X83906570Y30968058D01*
X83906570Y30968058D02*
X83906570Y31253772D01*
X83906570Y31253772D02*
X83954189Y31349010D01*
X83954189Y31349010D02*
X84001808Y31396629D01*
X84001808Y31396629D02*
X84097046Y31444248D01*
X84097046Y31444248D02*
X84239903Y31444248D01*
X84239903Y31444248D02*
X84335141Y31396629D01*
X84335141Y31396629D02*
X84382760Y31349010D01*
X84382760Y31349010D02*
X84430379Y31253772D01*
X84430379Y31253772D02*
X84430379Y30968058D01*
X84430379Y30968058D02*
X84382760Y30872820D01*
X84382760Y30872820D02*
X84335141Y30825200D01*
X84335141Y30825200D02*
X84239903Y30777581D01*
X84239903Y30777581D02*
X84097046Y30777581D01*
X84858951Y31158534D02*
X85620856Y31158534D01*
X86097046Y31444248D02*
X86097046Y30444248D01*
X86097046Y31396629D02*
X86192284Y31444248D01*
X86192284Y31444248D02*
X86382760Y31444248D01*
X86382760Y31444248D02*
X86477998Y31396629D01*
X86477998Y31396629D02*
X86525617Y31349010D01*
X86525617Y31349010D02*
X86573236Y31253772D01*
X86573236Y31253772D02*
X86573236Y30968058D01*
X86573236Y30968058D02*
X86525617Y30872820D01*
X86525617Y30872820D02*
X86477998Y30825200D01*
X86477998Y30825200D02*
X86382760Y30777581D01*
X86382760Y30777581D02*
X86192284Y30777581D01*
X86192284Y30777581D02*
X86097046Y30825200D01*
X87001808Y30777581D02*
X87001808Y31444248D01*
X87001808Y31253772D02*
X87049427Y31349010D01*
X87049427Y31349010D02*
X87097046Y31396629D01*
X87097046Y31396629D02*
X87192284Y31444248D01*
X87192284Y31444248D02*
X87287522Y31444248D01*
X87763713Y30777581D02*
X87668475Y30825200D01*
X87668475Y30825200D02*
X87620856Y30872820D01*
X87620856Y30872820D02*
X87573237Y30968058D01*
X87573237Y30968058D02*
X87573237Y31253772D01*
X87573237Y31253772D02*
X87620856Y31349010D01*
X87620856Y31349010D02*
X87668475Y31396629D01*
X87668475Y31396629D02*
X87763713Y31444248D01*
X87763713Y31444248D02*
X87906570Y31444248D01*
X87906570Y31444248D02*
X88001808Y31396629D01*
X88001808Y31396629D02*
X88049427Y31349010D01*
X88049427Y31349010D02*
X88097046Y31253772D01*
X88097046Y31253772D02*
X88097046Y30968058D01*
X88097046Y30968058D02*
X88049427Y30872820D01*
X88049427Y30872820D02*
X88001808Y30825200D01*
X88001808Y30825200D02*
X87906570Y30777581D01*
X87906570Y30777581D02*
X87763713Y30777581D01*
X88954189Y30825200D02*
X88858951Y30777581D01*
X88858951Y30777581D02*
X88668475Y30777581D01*
X88668475Y30777581D02*
X88573237Y30825200D01*
X88573237Y30825200D02*
X88525618Y30872820D01*
X88525618Y30872820D02*
X88477999Y30968058D01*
X88477999Y30968058D02*
X88477999Y31253772D01*
X88477999Y31253772D02*
X88525618Y31349010D01*
X88525618Y31349010D02*
X88573237Y31396629D01*
X88573237Y31396629D02*
X88668475Y31444248D01*
X88668475Y31444248D02*
X88858951Y31444248D01*
X88858951Y31444248D02*
X88954189Y31396629D01*
X89763713Y30825200D02*
X89668475Y30777581D01*
X89668475Y30777581D02*
X89477999Y30777581D01*
X89477999Y30777581D02*
X89382761Y30825200D01*
X89382761Y30825200D02*
X89335142Y30920439D01*
X89335142Y30920439D02*
X89335142Y31301391D01*
X89335142Y31301391D02*
X89382761Y31396629D01*
X89382761Y31396629D02*
X89477999Y31444248D01*
X89477999Y31444248D02*
X89668475Y31444248D01*
X89668475Y31444248D02*
X89763713Y31396629D01*
X89763713Y31396629D02*
X89811332Y31301391D01*
X89811332Y31301391D02*
X89811332Y31206153D01*
X89811332Y31206153D02*
X89335142Y31110915D01*
X90192285Y30825200D02*
X90287523Y30777581D01*
X90287523Y30777581D02*
X90477999Y30777581D01*
X90477999Y30777581D02*
X90573237Y30825200D01*
X90573237Y30825200D02*
X90620856Y30920439D01*
X90620856Y30920439D02*
X90620856Y30968058D01*
X90620856Y30968058D02*
X90573237Y31063296D01*
X90573237Y31063296D02*
X90477999Y31110915D01*
X90477999Y31110915D02*
X90335142Y31110915D01*
X90335142Y31110915D02*
X90239904Y31158534D01*
X90239904Y31158534D02*
X90192285Y31253772D01*
X90192285Y31253772D02*
X90192285Y31301391D01*
X90192285Y31301391D02*
X90239904Y31396629D01*
X90239904Y31396629D02*
X90335142Y31444248D01*
X90335142Y31444248D02*
X90477999Y31444248D01*
X90477999Y31444248D02*
X90573237Y31396629D01*
X91001809Y30825200D02*
X91097047Y30777581D01*
X91097047Y30777581D02*
X91287523Y30777581D01*
X91287523Y30777581D02*
X91382761Y30825200D01*
X91382761Y30825200D02*
X91430380Y30920439D01*
X91430380Y30920439D02*
X91430380Y30968058D01*
X91430380Y30968058D02*
X91382761Y31063296D01*
X91382761Y31063296D02*
X91287523Y31110915D01*
X91287523Y31110915D02*
X91144666Y31110915D01*
X91144666Y31110915D02*
X91049428Y31158534D01*
X91049428Y31158534D02*
X91001809Y31253772D01*
X91001809Y31253772D02*
X91001809Y31301391D01*
X91001809Y31301391D02*
X91049428Y31396629D01*
X91049428Y31396629D02*
X91144666Y31444248D01*
X91144666Y31444248D02*
X91287523Y31444248D01*
X91287523Y31444248D02*
X91382761Y31396629D01*
X92001809Y30777581D02*
X91906571Y30825200D01*
X91906571Y30825200D02*
X91858952Y30872820D01*
X91858952Y30872820D02*
X91811333Y30968058D01*
X91811333Y30968058D02*
X91811333Y31253772D01*
X91811333Y31253772D02*
X91858952Y31349010D01*
X91858952Y31349010D02*
X91906571Y31396629D01*
X91906571Y31396629D02*
X92001809Y31444248D01*
X92001809Y31444248D02*
X92144666Y31444248D01*
X92144666Y31444248D02*
X92239904Y31396629D01*
X92239904Y31396629D02*
X92287523Y31349010D01*
X92287523Y31349010D02*
X92335142Y31253772D01*
X92335142Y31253772D02*
X92335142Y30968058D01*
X92335142Y30968058D02*
X92287523Y30872820D01*
X92287523Y30872820D02*
X92239904Y30825200D01*
X92239904Y30825200D02*
X92144666Y30777581D01*
X92144666Y30777581D02*
X92001809Y30777581D01*
X92763714Y30777581D02*
X92763714Y31444248D01*
X92763714Y31253772D02*
X92811333Y31349010D01*
X92811333Y31349010D02*
X92858952Y31396629D01*
X92858952Y31396629D02*
X92954190Y31444248D01*
X92954190Y31444248D02*
X93049428Y31444248D01*
X85029189Y3144248D02*
X85029189Y2477581D01*
X85029189Y3049010D02*
X85076808Y3096629D01*
X85076808Y3096629D02*
X85172046Y3144248D01*
X85172046Y3144248D02*
X85314903Y3144248D01*
X85314903Y3144248D02*
X85410141Y3096629D01*
X85410141Y3096629D02*
X85457760Y3001391D01*
X85457760Y3001391D02*
X85457760Y2477581D01*
X86505379Y2477581D02*
X86172046Y2953772D01*
X85933951Y2477581D02*
X85933951Y3477581D01*
X85933951Y3477581D02*
X86314903Y3477581D01*
X86314903Y3477581D02*
X86410141Y3429962D01*
X86410141Y3429962D02*
X86457760Y3382343D01*
X86457760Y3382343D02*
X86505379Y3287105D01*
X86505379Y3287105D02*
X86505379Y3144248D01*
X86505379Y3144248D02*
X86457760Y3049010D01*
X86457760Y3049010D02*
X86410141Y3001391D01*
X86410141Y3001391D02*
X86314903Y2953772D01*
X86314903Y2953772D02*
X85933951Y2953772D01*
X87267284Y3001391D02*
X86933951Y3001391D01*
X86933951Y2477581D02*
X86933951Y3477581D01*
X86933951Y3477581D02*
X87410141Y3477581D01*
X1123914Y26103885D02*
X1123914Y26437218D01*
X1647724Y26580075D02*
X1647724Y26103885D01*
X1647724Y26103885D02*
X647724Y26103885D01*
X647724Y26103885D02*
X647724Y26580075D01*
X1647724Y26913409D02*
X981057Y27437218D01*
X981057Y26913409D02*
X1647724Y27437218D01*
X981057Y27818171D02*
X1981057Y27818171D01*
X1028676Y27818171D02*
X981057Y27913409D01*
X981057Y27913409D02*
X981057Y28103885D01*
X981057Y28103885D02*
X1028676Y28199123D01*
X1028676Y28199123D02*
X1076295Y28246742D01*
X1076295Y28246742D02*
X1171533Y28294361D01*
X1171533Y28294361D02*
X1457247Y28294361D01*
X1457247Y28294361D02*
X1552485Y28246742D01*
X1552485Y28246742D02*
X1600105Y28199123D01*
X1600105Y28199123D02*
X1647724Y28103885D01*
X1647724Y28103885D02*
X1647724Y27913409D01*
X1647724Y27913409D02*
X1600105Y27818171D01*
X1647724Y29151504D02*
X1123914Y29151504D01*
X1123914Y29151504D02*
X1028676Y29103885D01*
X1028676Y29103885D02*
X981057Y29008647D01*
X981057Y29008647D02*
X981057Y28818171D01*
X981057Y28818171D02*
X1028676Y28722933D01*
X1600105Y29151504D02*
X1647724Y29056266D01*
X1647724Y29056266D02*
X1647724Y28818171D01*
X1647724Y28818171D02*
X1600105Y28722933D01*
X1600105Y28722933D02*
X1504866Y28675314D01*
X1504866Y28675314D02*
X1409628Y28675314D01*
X1409628Y28675314D02*
X1314390Y28722933D01*
X1314390Y28722933D02*
X1266771Y28818171D01*
X1266771Y28818171D02*
X1266771Y29056266D01*
X1266771Y29056266D02*
X1219152Y29151504D01*
X981057Y29627695D02*
X1647724Y29627695D01*
X1076295Y29627695D02*
X1028676Y29675314D01*
X1028676Y29675314D02*
X981057Y29770552D01*
X981057Y29770552D02*
X981057Y29913409D01*
X981057Y29913409D02*
X1028676Y30008647D01*
X1028676Y30008647D02*
X1123914Y30056266D01*
X1123914Y30056266D02*
X1647724Y30056266D01*
X1600105Y30484838D02*
X1647724Y30580076D01*
X1647724Y30580076D02*
X1647724Y30770552D01*
X1647724Y30770552D02*
X1600105Y30865790D01*
X1600105Y30865790D02*
X1504866Y30913409D01*
X1504866Y30913409D02*
X1457247Y30913409D01*
X1457247Y30913409D02*
X1362009Y30865790D01*
X1362009Y30865790D02*
X1314390Y30770552D01*
X1314390Y30770552D02*
X1314390Y30627695D01*
X1314390Y30627695D02*
X1266771Y30532457D01*
X1266771Y30532457D02*
X1171533Y30484838D01*
X1171533Y30484838D02*
X1123914Y30484838D01*
X1123914Y30484838D02*
X1028676Y30532457D01*
X1028676Y30532457D02*
X981057Y30627695D01*
X981057Y30627695D02*
X981057Y30770552D01*
X981057Y30770552D02*
X1028676Y30865790D01*
X1647724Y31341981D02*
X981057Y31341981D01*
X647724Y31341981D02*
X695343Y31294362D01*
X695343Y31294362D02*
X742962Y31341981D01*
X742962Y31341981D02*
X695343Y31389600D01*
X695343Y31389600D02*
X647724Y31341981D01*
X647724Y31341981D02*
X742962Y31341981D01*
X1647724Y31961028D02*
X1600105Y31865790D01*
X1600105Y31865790D02*
X1552485Y31818171D01*
X1552485Y31818171D02*
X1457247Y31770552D01*
X1457247Y31770552D02*
X1171533Y31770552D01*
X1171533Y31770552D02*
X1076295Y31818171D01*
X1076295Y31818171D02*
X1028676Y31865790D01*
X1028676Y31865790D02*
X981057Y31961028D01*
X981057Y31961028D02*
X981057Y32103885D01*
X981057Y32103885D02*
X1028676Y32199123D01*
X1028676Y32199123D02*
X1076295Y32246742D01*
X1076295Y32246742D02*
X1171533Y32294361D01*
X1171533Y32294361D02*
X1457247Y32294361D01*
X1457247Y32294361D02*
X1552485Y32246742D01*
X1552485Y32246742D02*
X1600105Y32199123D01*
X1600105Y32199123D02*
X1647724Y32103885D01*
X1647724Y32103885D02*
X1647724Y31961028D01*
X981057Y32722933D02*
X1647724Y32722933D01*
X1076295Y32722933D02*
X1028676Y32770552D01*
X1028676Y32770552D02*
X981057Y32865790D01*
X981057Y32865790D02*
X981057Y33008647D01*
X981057Y33008647D02*
X1028676Y33103885D01*
X1028676Y33103885D02*
X1123914Y33151504D01*
X1123914Y33151504D02*
X1647724Y33151504D01*
X1647724Y34389600D02*
X647724Y34389600D01*
X647724Y34389600D02*
X647724Y34770552D01*
X647724Y34770552D02*
X695343Y34865790D01*
X695343Y34865790D02*
X742962Y34913409D01*
X742962Y34913409D02*
X838200Y34961028D01*
X838200Y34961028D02*
X981057Y34961028D01*
X981057Y34961028D02*
X1076295Y34913409D01*
X1076295Y34913409D02*
X1123914Y34865790D01*
X1123914Y34865790D02*
X1171533Y34770552D01*
X1171533Y34770552D02*
X1171533Y34389600D01*
X1647724Y35532457D02*
X1600105Y35437219D01*
X1600105Y35437219D02*
X1552485Y35389600D01*
X1552485Y35389600D02*
X1457247Y35341981D01*
X1457247Y35341981D02*
X1171533Y35341981D01*
X1171533Y35341981D02*
X1076295Y35389600D01*
X1076295Y35389600D02*
X1028676Y35437219D01*
X1028676Y35437219D02*
X981057Y35532457D01*
X981057Y35532457D02*
X981057Y35675314D01*
X981057Y35675314D02*
X1028676Y35770552D01*
X1028676Y35770552D02*
X1076295Y35818171D01*
X1076295Y35818171D02*
X1171533Y35865790D01*
X1171533Y35865790D02*
X1457247Y35865790D01*
X1457247Y35865790D02*
X1552485Y35818171D01*
X1552485Y35818171D02*
X1600105Y35770552D01*
X1600105Y35770552D02*
X1647724Y35675314D01*
X1647724Y35675314D02*
X1647724Y35532457D01*
X1647724Y36294362D02*
X981057Y36294362D01*
X1171533Y36294362D02*
X1076295Y36341981D01*
X1076295Y36341981D02*
X1028676Y36389600D01*
X1028676Y36389600D02*
X981057Y36484838D01*
X981057Y36484838D02*
X981057Y36580076D01*
X981057Y36770553D02*
X981057Y37151505D01*
X647724Y36913410D02*
X1504866Y36913410D01*
X1504866Y36913410D02*
X1600105Y36961029D01*
X1600105Y36961029D02*
X1647724Y37056267D01*
X1647724Y37056267D02*
X1647724Y37151505D01*
X1600105Y37437220D02*
X1647724Y37532458D01*
X1647724Y37532458D02*
X1647724Y37722934D01*
X1647724Y37722934D02*
X1600105Y37818172D01*
X1600105Y37818172D02*
X1504866Y37865791D01*
X1504866Y37865791D02*
X1457247Y37865791D01*
X1457247Y37865791D02*
X1362009Y37818172D01*
X1362009Y37818172D02*
X1314390Y37722934D01*
X1314390Y37722934D02*
X1314390Y37580077D01*
X1314390Y37580077D02*
X1266771Y37484839D01*
X1266771Y37484839D02*
X1171533Y37437220D01*
X1171533Y37437220D02*
X1123914Y37437220D01*
X1123914Y37437220D02*
X1028676Y37484839D01*
X1028676Y37484839D02*
X981057Y37580077D01*
X981057Y37580077D02*
X981057Y37722934D01*
X981057Y37722934D02*
X1028676Y37818172D01*
D13*
X90564465Y14427800D02*
X90707322Y14380181D01*
X90707322Y14380181D02*
X90945417Y14380181D01*
X90945417Y14380181D02*
X91040655Y14427800D01*
X91040655Y14427800D02*
X91088274Y14475420D01*
X91088274Y14475420D02*
X91135893Y14570658D01*
X91135893Y14570658D02*
X91135893Y14665896D01*
X91135893Y14665896D02*
X91088274Y14761134D01*
X91088274Y14761134D02*
X91040655Y14808753D01*
X91040655Y14808753D02*
X90945417Y14856372D01*
X90945417Y14856372D02*
X90754941Y14903991D01*
X90754941Y14903991D02*
X90659703Y14951610D01*
X90659703Y14951610D02*
X90612084Y14999229D01*
X90612084Y14999229D02*
X90564465Y15094467D01*
X90564465Y15094467D02*
X90564465Y15189705D01*
X90564465Y15189705D02*
X90612084Y15284943D01*
X90612084Y15284943D02*
X90659703Y15332562D01*
X90659703Y15332562D02*
X90754941Y15380181D01*
X90754941Y15380181D02*
X90993036Y15380181D01*
X90993036Y15380181D02*
X91135893Y15332562D01*
X91469227Y15380181D02*
X91707322Y14380181D01*
X91707322Y14380181D02*
X91897798Y15094467D01*
X91897798Y15094467D02*
X92088274Y14380181D01*
X92088274Y14380181D02*
X92326370Y15380181D01*
X92707322Y14380181D02*
X92707322Y15380181D01*
X92707322Y15380181D02*
X92945417Y15380181D01*
X92945417Y15380181D02*
X93088274Y15332562D01*
X93088274Y15332562D02*
X93183512Y15237324D01*
X93183512Y15237324D02*
X93231131Y15142086D01*
X93231131Y15142086D02*
X93278750Y14951610D01*
X93278750Y14951610D02*
X93278750Y14808753D01*
X93278750Y14808753D02*
X93231131Y14618277D01*
X93231131Y14618277D02*
X93183512Y14523039D01*
X93183512Y14523039D02*
X93088274Y14427800D01*
X93088274Y14427800D02*
X92945417Y14380181D01*
X92945417Y14380181D02*
X92707322Y14380181D01*
X1140781Y68800153D02*
X1140781Y69800153D01*
X1140781Y69800153D02*
X1521733Y69800153D01*
X1521733Y69800153D02*
X1616971Y69752534D01*
X1616971Y69752534D02*
X1664590Y69704915D01*
X1664590Y69704915D02*
X1712209Y69609677D01*
X1712209Y69609677D02*
X1712209Y69466820D01*
X1712209Y69466820D02*
X1664590Y69371582D01*
X1664590Y69371582D02*
X1616971Y69323963D01*
X1616971Y69323963D02*
X1521733Y69276344D01*
X1521733Y69276344D02*
X1140781Y69276344D01*
X2331257Y69800153D02*
X2521733Y69800153D01*
X2521733Y69800153D02*
X2616971Y69752534D01*
X2616971Y69752534D02*
X2712209Y69657296D01*
X2712209Y69657296D02*
X2759828Y69466820D01*
X2759828Y69466820D02*
X2759828Y69133487D01*
X2759828Y69133487D02*
X2712209Y68943011D01*
X2712209Y68943011D02*
X2616971Y68847772D01*
X2616971Y68847772D02*
X2521733Y68800153D01*
X2521733Y68800153D02*
X2331257Y68800153D01*
X2331257Y68800153D02*
X2236019Y68847772D01*
X2236019Y68847772D02*
X2140781Y68943011D01*
X2140781Y68943011D02*
X2093162Y69133487D01*
X2093162Y69133487D02*
X2093162Y69466820D01*
X2093162Y69466820D02*
X2140781Y69657296D01*
X2140781Y69657296D02*
X2236019Y69752534D01*
X2236019Y69752534D02*
X2331257Y69800153D01*
X3093162Y69800153D02*
X3331257Y68800153D01*
X3331257Y68800153D02*
X3521733Y69514439D01*
X3521733Y69514439D02*
X3712209Y68800153D01*
X3712209Y68800153D02*
X3950305Y69800153D01*
X4331257Y69323963D02*
X4664590Y69323963D01*
X4807447Y68800153D02*
X4331257Y68800153D01*
X4331257Y68800153D02*
X4331257Y69800153D01*
X4331257Y69800153D02*
X4807447Y69800153D01*
X5807447Y68800153D02*
X5474114Y69276344D01*
X5236019Y68800153D02*
X5236019Y69800153D01*
X5236019Y69800153D02*
X5616971Y69800153D01*
X5616971Y69800153D02*
X5712209Y69752534D01*
X5712209Y69752534D02*
X5759828Y69704915D01*
X5759828Y69704915D02*
X5807447Y69609677D01*
X5807447Y69609677D02*
X5807447Y69466820D01*
X5807447Y69466820D02*
X5759828Y69371582D01*
X5759828Y69371582D02*
X5712209Y69323963D01*
X5712209Y69323963D02*
X5616971Y69276344D01*
X5616971Y69276344D02*
X5236019Y69276344D01*
X950305Y67237828D02*
X1093162Y67190209D01*
X1093162Y67190209D02*
X1331257Y67190209D01*
X1331257Y67190209D02*
X1426495Y67237828D01*
X1426495Y67237828D02*
X1474114Y67285448D01*
X1474114Y67285448D02*
X1521733Y67380686D01*
X1521733Y67380686D02*
X1521733Y67475924D01*
X1521733Y67475924D02*
X1474114Y67571162D01*
X1474114Y67571162D02*
X1426495Y67618781D01*
X1426495Y67618781D02*
X1331257Y67666400D01*
X1331257Y67666400D02*
X1140781Y67714019D01*
X1140781Y67714019D02*
X1045543Y67761638D01*
X1045543Y67761638D02*
X997924Y67809257D01*
X997924Y67809257D02*
X950305Y67904495D01*
X950305Y67904495D02*
X950305Y67999733D01*
X950305Y67999733D02*
X997924Y68094971D01*
X997924Y68094971D02*
X1045543Y68142590D01*
X1045543Y68142590D02*
X1140781Y68190209D01*
X1140781Y68190209D02*
X1378876Y68190209D01*
X1378876Y68190209D02*
X1521733Y68142590D01*
X1855067Y68190209D02*
X2093162Y67190209D01*
X2093162Y67190209D02*
X2283638Y67904495D01*
X2283638Y67904495D02*
X2474114Y67190209D01*
X2474114Y67190209D02*
X2712210Y68190209D01*
X3093162Y67190209D02*
X3093162Y68190209D01*
X3426495Y68190209D02*
X3997923Y68190209D01*
X3712209Y67190209D02*
X3712209Y68190209D01*
X4902685Y67285448D02*
X4855066Y67237828D01*
X4855066Y67237828D02*
X4712209Y67190209D01*
X4712209Y67190209D02*
X4616971Y67190209D01*
X4616971Y67190209D02*
X4474114Y67237828D01*
X4474114Y67237828D02*
X4378876Y67333067D01*
X4378876Y67333067D02*
X4331257Y67428305D01*
X4331257Y67428305D02*
X4283638Y67618781D01*
X4283638Y67618781D02*
X4283638Y67761638D01*
X4283638Y67761638D02*
X4331257Y67952114D01*
X4331257Y67952114D02*
X4378876Y68047352D01*
X4378876Y68047352D02*
X4474114Y68142590D01*
X4474114Y68142590D02*
X4616971Y68190209D01*
X4616971Y68190209D02*
X4712209Y68190209D01*
X4712209Y68190209D02*
X4855066Y68142590D01*
X4855066Y68142590D02*
X4902685Y68094971D01*
X5331257Y67190209D02*
X5331257Y68190209D01*
X5331257Y67714019D02*
X5902685Y67714019D01*
X5902685Y67190209D02*
X5902685Y68190209D01*
X3447924Y84870181D02*
X3447924Y85870181D01*
X3447924Y85870181D02*
X3828876Y85870181D01*
X3828876Y85870181D02*
X3924114Y85822562D01*
X3924114Y85822562D02*
X3971733Y85774943D01*
X3971733Y85774943D02*
X4019352Y85679705D01*
X4019352Y85679705D02*
X4019352Y85536848D01*
X4019352Y85536848D02*
X3971733Y85441610D01*
X3971733Y85441610D02*
X3924114Y85393991D01*
X3924114Y85393991D02*
X3828876Y85346372D01*
X3828876Y85346372D02*
X3447924Y85346372D01*
X4638400Y85870181D02*
X4828876Y85870181D01*
X4828876Y85870181D02*
X4924114Y85822562D01*
X4924114Y85822562D02*
X5019352Y85727324D01*
X5019352Y85727324D02*
X5066971Y85536848D01*
X5066971Y85536848D02*
X5066971Y85203515D01*
X5066971Y85203515D02*
X5019352Y85013039D01*
X5019352Y85013039D02*
X4924114Y84917800D01*
X4924114Y84917800D02*
X4828876Y84870181D01*
X4828876Y84870181D02*
X4638400Y84870181D01*
X4638400Y84870181D02*
X4543162Y84917800D01*
X4543162Y84917800D02*
X4447924Y85013039D01*
X4447924Y85013039D02*
X4400305Y85203515D01*
X4400305Y85203515D02*
X4400305Y85536848D01*
X4400305Y85536848D02*
X4447924Y85727324D01*
X4447924Y85727324D02*
X4543162Y85822562D01*
X4543162Y85822562D02*
X4638400Y85870181D01*
X5400305Y85870181D02*
X5638400Y84870181D01*
X5638400Y84870181D02*
X5828876Y85584467D01*
X5828876Y85584467D02*
X6019352Y84870181D01*
X6019352Y84870181D02*
X6257448Y85870181D01*
X6638400Y85393991D02*
X6971733Y85393991D01*
X7114590Y84870181D02*
X6638400Y84870181D01*
X6638400Y84870181D02*
X6638400Y85870181D01*
X6638400Y85870181D02*
X7114590Y85870181D01*
X8114590Y84870181D02*
X7781257Y85346372D01*
X7543162Y84870181D02*
X7543162Y85870181D01*
X7543162Y85870181D02*
X7924114Y85870181D01*
X7924114Y85870181D02*
X8019352Y85822562D01*
X8019352Y85822562D02*
X8066971Y85774943D01*
X8066971Y85774943D02*
X8114590Y85679705D01*
X8114590Y85679705D02*
X8114590Y85536848D01*
X8114590Y85536848D02*
X8066971Y85441610D01*
X8066971Y85441610D02*
X8019352Y85393991D01*
X8019352Y85393991D02*
X7924114Y85346372D01*
X7924114Y85346372D02*
X7543162Y85346372D01*
X9305067Y84870181D02*
X9305067Y85870181D01*
X9781257Y84870181D02*
X9781257Y85870181D01*
X9781257Y85870181D02*
X10352685Y84870181D01*
X10352685Y84870181D02*
X10352685Y85870181D01*
D12*
X76402885Y81153334D02*
X75688600Y81153334D01*
X75688600Y81153334D02*
X75545743Y81200953D01*
X75545743Y81200953D02*
X75450505Y81296191D01*
X75450505Y81296191D02*
X75402885Y81439048D01*
X75402885Y81439048D02*
X75402885Y81534286D01*
X75402885Y80629524D02*
X75402885Y80439048D01*
X75402885Y80439048D02*
X75450505Y80343810D01*
X75450505Y80343810D02*
X75498124Y80296191D01*
X75498124Y80296191D02*
X75640981Y80200953D01*
X75640981Y80200953D02*
X75831457Y80153334D01*
X75831457Y80153334D02*
X76212409Y80153334D01*
X76212409Y80153334D02*
X76307647Y80200953D01*
X76307647Y80200953D02*
X76355266Y80248572D01*
X76355266Y80248572D02*
X76402885Y80343810D01*
X76402885Y80343810D02*
X76402885Y80534286D01*
X76402885Y80534286D02*
X76355266Y80629524D01*
X76355266Y80629524D02*
X76307647Y80677143D01*
X76307647Y80677143D02*
X76212409Y80724762D01*
X76212409Y80724762D02*
X75974314Y80724762D01*
X75974314Y80724762D02*
X75879076Y80677143D01*
X75879076Y80677143D02*
X75831457Y80629524D01*
X75831457Y80629524D02*
X75783838Y80534286D01*
X75783838Y80534286D02*
X75783838Y80343810D01*
X75783838Y80343810D02*
X75831457Y80248572D01*
X75831457Y80248572D02*
X75879076Y80200953D01*
X75879076Y80200953D02*
X75974314Y80153334D01*
D13*
X16475124Y69763096D02*
X17284647Y69763096D01*
X17284647Y69763096D02*
X17379885Y69810715D01*
X17379885Y69810715D02*
X17427505Y69858334D01*
X17427505Y69858334D02*
X17475124Y69953572D01*
X17475124Y69953572D02*
X17475124Y70144048D01*
X17475124Y70144048D02*
X17427505Y70239286D01*
X17427505Y70239286D02*
X17379885Y70286905D01*
X17379885Y70286905D02*
X17284647Y70334524D01*
X17284647Y70334524D02*
X16475124Y70334524D01*
X17475124Y71334524D02*
X17475124Y70763096D01*
X17475124Y71048810D02*
X16475124Y71048810D01*
X16475124Y71048810D02*
X16617981Y70953572D01*
X16617981Y70953572D02*
X16713219Y70858334D01*
X16713219Y70858334D02*
X16760838Y70763096D01*
X93963400Y5695181D02*
X93963400Y6695181D01*
X93963400Y6218991D02*
X94534828Y6218991D01*
X94534828Y5695181D02*
X94534828Y6695181D01*
X94963400Y6599943D02*
X95011019Y6647562D01*
X95011019Y6647562D02*
X95106257Y6695181D01*
X95106257Y6695181D02*
X95344352Y6695181D01*
X95344352Y6695181D02*
X95439590Y6647562D01*
X95439590Y6647562D02*
X95487209Y6599943D01*
X95487209Y6599943D02*
X95534828Y6504705D01*
X95534828Y6504705D02*
X95534828Y6409467D01*
X95534828Y6409467D02*
X95487209Y6266610D01*
X95487209Y6266610D02*
X94915781Y5695181D01*
X94915781Y5695181D02*
X95534828Y5695181D01*
D12*
X9251666Y55195612D02*
X9251666Y54481327D01*
X9251666Y54481327D02*
X9204047Y54338470D01*
X9204047Y54338470D02*
X9108809Y54243231D01*
X9108809Y54243231D02*
X8965952Y54195612D01*
X8965952Y54195612D02*
X8870714Y54195612D01*
X10204047Y55195612D02*
X9727857Y55195612D01*
X9727857Y55195612D02*
X9680238Y54719422D01*
X9680238Y54719422D02*
X9727857Y54767041D01*
X9727857Y54767041D02*
X9823095Y54814660D01*
X9823095Y54814660D02*
X10061190Y54814660D01*
X10061190Y54814660D02*
X10156428Y54767041D01*
X10156428Y54767041D02*
X10204047Y54719422D01*
X10204047Y54719422D02*
X10251666Y54624184D01*
X10251666Y54624184D02*
X10251666Y54386089D01*
X10251666Y54386089D02*
X10204047Y54290851D01*
X10204047Y54290851D02*
X10156428Y54243231D01*
X10156428Y54243231D02*
X10061190Y54195612D01*
X10061190Y54195612D02*
X9823095Y54195612D01*
X9823095Y54195612D02*
X9727857Y54243231D01*
X9727857Y54243231D02*
X9680238Y54290851D01*
D13*
X6611666Y62938212D02*
X6611666Y62223927D01*
X6611666Y62223927D02*
X6564047Y62081070D01*
X6564047Y62081070D02*
X6468809Y61985831D01*
X6468809Y61985831D02*
X6325952Y61938212D01*
X6325952Y61938212D02*
X6230714Y61938212D01*
X6992619Y62938212D02*
X7611666Y62938212D01*
X7611666Y62938212D02*
X7278333Y62557260D01*
X7278333Y62557260D02*
X7421190Y62557260D01*
X7421190Y62557260D02*
X7516428Y62509641D01*
X7516428Y62509641D02*
X7564047Y62462022D01*
X7564047Y62462022D02*
X7611666Y62366784D01*
X7611666Y62366784D02*
X7611666Y62128689D01*
X7611666Y62128689D02*
X7564047Y62033451D01*
X7564047Y62033451D02*
X7516428Y61985831D01*
X7516428Y61985831D02*
X7421190Y61938212D01*
X7421190Y61938212D02*
X7135476Y61938212D01*
X7135476Y61938212D02*
X7040238Y61985831D01*
X7040238Y61985831D02*
X6992619Y62033451D01*
X84975900Y70820181D02*
X84975900Y70010658D01*
X84975900Y70010658D02*
X85023519Y69915420D01*
X85023519Y69915420D02*
X85071138Y69867800D01*
X85071138Y69867800D02*
X85166376Y69820181D01*
X85166376Y69820181D02*
X85356852Y69820181D01*
X85356852Y69820181D02*
X85452090Y69867800D01*
X85452090Y69867800D02*
X85499709Y69915420D01*
X85499709Y69915420D02*
X85547328Y70010658D01*
X85547328Y70010658D02*
X85547328Y70820181D01*
X86452090Y70486848D02*
X86452090Y69820181D01*
X86213995Y70867800D02*
X85975900Y70153515D01*
X85975900Y70153515D02*
X86594947Y70153515D01*
X713095Y2738212D02*
X713095Y3738212D01*
X713095Y3262022D02*
X1284523Y3262022D01*
X1284523Y2738212D02*
X1284523Y3738212D01*
X2284523Y2738212D02*
X1713095Y2738212D01*
X1998809Y2738212D02*
X1998809Y3738212D01*
X1998809Y3738212D02*
X1903571Y3595355D01*
X1903571Y3595355D02*
X1808333Y3500117D01*
X1808333Y3500117D02*
X1713095Y3452498D01*
X89666971Y62407681D02*
X89666971Y61693396D01*
X89666971Y61693396D02*
X89619352Y61550539D01*
X89619352Y61550539D02*
X89524114Y61455300D01*
X89524114Y61455300D02*
X89381257Y61407681D01*
X89381257Y61407681D02*
X89286019Y61407681D01*
X90143162Y61407681D02*
X90143162Y62407681D01*
X90143162Y62407681D02*
X90524114Y62407681D01*
X90524114Y62407681D02*
X90619352Y62360062D01*
X90619352Y62360062D02*
X90666971Y62312443D01*
X90666971Y62312443D02*
X90714590Y62217205D01*
X90714590Y62217205D02*
X90714590Y62074348D01*
X90714590Y62074348D02*
X90666971Y61979110D01*
X90666971Y61979110D02*
X90619352Y61931491D01*
X90619352Y61931491D02*
X90524114Y61883872D01*
X90524114Y61883872D02*
X90143162Y61883872D01*
X91047924Y62407681D02*
X91666971Y62407681D01*
X91666971Y62407681D02*
X91333638Y62026729D01*
X91333638Y62026729D02*
X91476495Y62026729D01*
X91476495Y62026729D02*
X91571733Y61979110D01*
X91571733Y61979110D02*
X91619352Y61931491D01*
X91619352Y61931491D02*
X91666971Y61836253D01*
X91666971Y61836253D02*
X91666971Y61598158D01*
X91666971Y61598158D02*
X91619352Y61502920D01*
X91619352Y61502920D02*
X91571733Y61455300D01*
X91571733Y61455300D02*
X91476495Y61407681D01*
X91476495Y61407681D02*
X91190781Y61407681D01*
X91190781Y61407681D02*
X91095543Y61455300D01*
X91095543Y61455300D02*
X91047924Y61502920D01*
X19061666Y68248212D02*
X19061666Y67533927D01*
X19061666Y67533927D02*
X19014047Y67391070D01*
X19014047Y67391070D02*
X18918809Y67295831D01*
X18918809Y67295831D02*
X18775952Y67248212D01*
X18775952Y67248212D02*
X18680714Y67248212D01*
X20061666Y67248212D02*
X19490238Y67248212D01*
X19775952Y67248212D02*
X19775952Y68248212D01*
X19775952Y68248212D02*
X19680714Y68105355D01*
X19680714Y68105355D02*
X19585476Y68010117D01*
X19585476Y68010117D02*
X19490238Y67962498D01*
D12*
X9181666Y19035612D02*
X9181666Y18321327D01*
X9181666Y18321327D02*
X9134047Y18178470D01*
X9134047Y18178470D02*
X9038809Y18083231D01*
X9038809Y18083231D02*
X8895952Y18035612D01*
X8895952Y18035612D02*
X8800714Y18035612D01*
X10086428Y18702279D02*
X10086428Y18035612D01*
X9848333Y19083231D02*
X9610238Y18368946D01*
X9610238Y18368946D02*
X10229285Y18368946D01*
D13*
X23863400Y86895181D02*
X23863400Y87895181D01*
X23863400Y87418991D02*
X24434828Y87418991D01*
X24434828Y86895181D02*
X24434828Y87895181D01*
X25339590Y87561848D02*
X25339590Y86895181D01*
X25101495Y87942800D02*
X24863400Y87228515D01*
X24863400Y87228515D02*
X25482447Y87228515D01*
X79686733Y42380015D02*
X79686733Y41951443D01*
X79386733Y42851443D02*
X79686733Y42380015D01*
X79686733Y42380015D02*
X79986733Y42851443D01*
X80758162Y41951443D02*
X80243876Y41951443D01*
X80501019Y41951443D02*
X80501019Y42851443D01*
X80501019Y42851443D02*
X80415305Y42722872D01*
X80415305Y42722872D02*
X80329590Y42637158D01*
X80329590Y42637158D02*
X80243876Y42594300D01*
D12*
X9661666Y73765612D02*
X9661666Y73051327D01*
X9661666Y73051327D02*
X9614047Y72908470D01*
X9614047Y72908470D02*
X9518809Y72813231D01*
X9518809Y72813231D02*
X9375952Y72765612D01*
X9375952Y72765612D02*
X9280714Y72765612D01*
X10090238Y73670374D02*
X10137857Y73717993D01*
X10137857Y73717993D02*
X10233095Y73765612D01*
X10233095Y73765612D02*
X10471190Y73765612D01*
X10471190Y73765612D02*
X10566428Y73717993D01*
X10566428Y73717993D02*
X10614047Y73670374D01*
X10614047Y73670374D02*
X10661666Y73575136D01*
X10661666Y73575136D02*
X10661666Y73479898D01*
X10661666Y73479898D02*
X10614047Y73337041D01*
X10614047Y73337041D02*
X10042619Y72765612D01*
X10042619Y72765612D02*
X10661666Y72765612D01*
D13*
X94063400Y86895181D02*
X94063400Y87895181D01*
X94063400Y87418991D02*
X94634828Y87418991D01*
X94634828Y86895181D02*
X94634828Y87895181D01*
X95015781Y87895181D02*
X95634828Y87895181D01*
X95634828Y87895181D02*
X95301495Y87514229D01*
X95301495Y87514229D02*
X95444352Y87514229D01*
X95444352Y87514229D02*
X95539590Y87466610D01*
X95539590Y87466610D02*
X95587209Y87418991D01*
X95587209Y87418991D02*
X95634828Y87323753D01*
X95634828Y87323753D02*
X95634828Y87085658D01*
X95634828Y87085658D02*
X95587209Y86990420D01*
X95587209Y86990420D02*
X95539590Y86942800D01*
X95539590Y86942800D02*
X95444352Y86895181D01*
X95444352Y86895181D02*
X95158638Y86895181D01*
X95158638Y86895181D02*
X95063400Y86942800D01*
X95063400Y86942800D02*
X95015781Y86990420D01*
D12*
X102970886Y43866803D02*
X102161363Y43866803D01*
X102161363Y43866803D02*
X102066125Y43819184D01*
X102066125Y43819184D02*
X102018506Y43771565D01*
X102018506Y43771565D02*
X101970886Y43676327D01*
X101970886Y43676327D02*
X101970886Y43485851D01*
X101970886Y43485851D02*
X102018506Y43390613D01*
X102018506Y43390613D02*
X102066125Y43342994D01*
X102066125Y43342994D02*
X102161363Y43295375D01*
X102161363Y43295375D02*
X102970886Y43295375D01*
X102970886Y42914422D02*
X102970886Y42247756D01*
X102970886Y42247756D02*
X101970886Y42676327D01*
D13*
X25621971Y39015181D02*
X25621971Y38300896D01*
X25621971Y38300896D02*
X25574352Y38158039D01*
X25574352Y38158039D02*
X25479114Y38062800D01*
X25479114Y38062800D02*
X25336257Y38015181D01*
X25336257Y38015181D02*
X25241019Y38015181D01*
X26002924Y39015181D02*
X26669590Y39015181D01*
X26669590Y39015181D02*
X26241019Y38015181D01*
%TO.C,R12*%
D14*
X74852805Y33337742D02*
X74852805Y33812258D01*
X75897805Y33337742D02*
X75897805Y33812258D01*
%TO.C,C13*%
X44690305Y80111252D02*
X44690305Y79588748D01*
X46160305Y80111252D02*
X46160305Y79588748D01*
%TO.C,S1*%
X88895305Y58317500D02*
X88895305Y55557500D01*
X94085305Y58317500D02*
X88895305Y58317500D01*
X94085305Y58317500D02*
X94085305Y55557500D01*
X94085305Y55557500D02*
X88895305Y55557500D01*
X95355305Y58317500D02*
X96735305Y58317500D01*
X96735305Y58317500D02*
X96735305Y56937500D01*
%TO.C,J9*%
D12*
X70850305Y88400000D02*
X77150305Y88400000D01*
X77150305Y74400000D01*
X70850305Y74400000D01*
X70850305Y88400000D01*
%TO.C,U1*%
D14*
X21347805Y72310000D02*
X23167805Y72310000D01*
X21347805Y72260000D02*
X21347805Y72310000D01*
X21347805Y69190000D02*
X21347805Y69240000D01*
X23167805Y72310000D02*
X23167805Y72260000D01*
X23167805Y71140000D02*
X23167805Y70360000D01*
X23167805Y69240000D02*
X23167805Y69190000D01*
X23167805Y69190000D02*
X21347805Y69190000D01*
X20807805Y72260000D02*
X20567805Y72590000D01*
X21047805Y72590000D01*
X20807805Y72260000D01*
G36*
X20807805Y72260000D02*
G01*
X20567805Y72590000D01*
X21047805Y72590000D01*
X20807805Y72260000D01*
G37*
%TO.C,D23*%
X46185000Y5035531D02*
X46185000Y5235531D01*
%TO.C,C24*%
X76640305Y33438748D02*
X76640305Y33961252D01*
X78110305Y33438748D02*
X78110305Y33961252D01*
%TO.C,D12*%
X82385000Y14820531D02*
X83385000Y14820531D01*
X82385000Y13300531D02*
X82385000Y14820531D01*
X82435000Y13300531D02*
X82385000Y13300531D01*
X84335000Y13300531D02*
X83555000Y13300531D01*
X84505000Y14820531D02*
X85505000Y14820531D01*
X85505000Y14820531D02*
X85505000Y13300531D01*
X85505000Y13300531D02*
X85455000Y13300531D01*
X83565000Y12760531D02*
X83895000Y13000531D01*
X83895000Y12520531D01*
X83565000Y12760531D01*
G36*
X83895000Y12520531D02*
G01*
X83565000Y12760531D01*
X83895000Y13000531D01*
X83895000Y12520531D01*
G37*
%TO.C,Q1*%
X89465305Y53560000D02*
X89515305Y53560000D01*
X89465305Y52040000D02*
X89465305Y53560000D01*
X90465305Y52040000D02*
X89465305Y52040000D01*
X90635305Y53560000D02*
X91415305Y53560000D01*
X92535305Y53560000D02*
X92585305Y53560000D01*
X92585305Y53560000D02*
X92585305Y52040000D01*
X92585305Y52040000D02*
X91585305Y52040000D01*
X91405305Y54100000D02*
X91075305Y53860000D01*
X91075305Y54340000D01*
X91405305Y54100000D01*
G36*
X91405305Y54100000D02*
G01*
X91075305Y53860000D01*
X91075305Y54340000D01*
X91405305Y54100000D01*
G37*
%TO.C,C26*%
X79090305Y36161252D02*
X79090305Y35638748D01*
X80560305Y36161252D02*
X80560305Y35638748D01*
%TO.C,D13*%
X58985000Y4597500D02*
X59985000Y4597500D01*
X58985000Y3077500D02*
X58985000Y4597500D01*
X59035000Y3077500D02*
X58985000Y3077500D01*
X60935000Y3077500D02*
X60155000Y3077500D01*
X61105000Y4597500D02*
X62105000Y4597500D01*
X62105000Y4597500D02*
X62105000Y3077500D01*
X62105000Y3077500D02*
X62055000Y3077500D01*
X60165000Y2537500D02*
X60495000Y2777500D01*
X60495000Y2297500D01*
X60165000Y2537500D01*
G36*
X60495000Y2297500D02*
G01*
X60165000Y2537500D01*
X60495000Y2777500D01*
X60495000Y2297500D01*
G37*
%TO.C,D24*%
X85330000Y5548031D02*
X85330000Y5348031D01*
%TO.C,J5*%
D15*
X268705Y53784601D02*
X268705Y43675401D01*
X268705Y43675401D02*
X3673565Y43675401D01*
X3673565Y53784601D02*
X268705Y53784601D01*
X6879045Y43675401D02*
X10403305Y43675401D01*
X10403305Y53784601D02*
X6879045Y53784601D01*
X10403305Y53109666D02*
X10403305Y53784601D01*
X10403305Y45909665D02*
X10403305Y51550337D01*
X10403305Y43675401D02*
X10403305Y44350336D01*
%TO.C,D25*%
D14*
X12715305Y50740000D02*
X12715305Y52050000D01*
X12715305Y50740000D02*
X13935305Y50740000D01*
X13935305Y50740000D02*
X13935305Y52050000D01*
%TO.C,J3*%
X1365000Y58873031D02*
X1365000Y60253031D01*
X2745000Y58873031D02*
X1365000Y58873031D01*
X4015000Y61633031D02*
X11745000Y61633031D01*
X4015000Y58873031D02*
X4015000Y61633031D01*
X4015000Y58873031D02*
X11745000Y58873031D01*
X11745000Y58873031D02*
X11745000Y61633031D01*
%TO.C,J11*%
X87915305Y18430000D02*
X87915305Y15670000D01*
X93105305Y18430000D02*
X87915305Y18430000D01*
X93105305Y18430000D02*
X93105305Y15670000D01*
X93105305Y15670000D02*
X87915305Y15670000D01*
X94375305Y18430000D02*
X95755305Y18430000D01*
X95755305Y18430000D02*
X95755305Y17050000D01*
%TO.C,R10*%
X51577805Y80087258D02*
X51577805Y79612742D01*
X52622805Y80087258D02*
X52622805Y79612742D01*
%TO.C,R11*%
X91502805Y47537258D02*
X91502805Y47062742D01*
X92547805Y47537258D02*
X92547805Y47062742D01*
%TO.C,JP2*%
X92335305Y22910000D02*
X94335305Y22910000D01*
X92335305Y20110000D02*
X92335305Y22910000D01*
X94335305Y22910000D02*
X94335305Y20110000D01*
X94335305Y20110000D02*
X92335305Y20110000D01*
%TO.C,D10*%
X77085000Y4570531D02*
X77135000Y4570531D01*
X77085000Y3050531D02*
X77085000Y4570531D01*
X78085000Y3050531D02*
X77085000Y3050531D01*
X78255000Y4570531D02*
X79035000Y4570531D01*
X80155000Y4570531D02*
X80205000Y4570531D01*
X80205000Y4570531D02*
X80205000Y3050531D01*
X80205000Y3050531D02*
X79205000Y3050531D01*
X79025000Y5110531D02*
X78695000Y4870531D01*
X78695000Y5350531D01*
X79025000Y5110531D01*
G36*
X79025000Y5110531D02*
G01*
X78695000Y4870531D01*
X78695000Y5350531D01*
X79025000Y5110531D01*
G37*
%TO.C,R22*%
X12872805Y43277258D02*
X12872805Y42802742D01*
X13917805Y43277258D02*
X13917805Y42802742D01*
%TO.C,C3*%
X12890305Y74040580D02*
X12890305Y73759420D01*
X13910305Y74040580D02*
X13910305Y73759420D01*
%TO.C,U4*%
X83615305Y73660000D02*
X88235305Y73660000D01*
X88235305Y66890000D02*
X83615305Y66890000D01*
X82065305Y73205000D02*
X81735305Y72965000D01*
X81735305Y73445000D01*
X82065305Y73205000D01*
G36*
X82065305Y73205000D02*
G01*
X81735305Y72965000D01*
X81735305Y73445000D01*
X82065305Y73205000D01*
G37*
%TO.C,C32*%
X10415305Y31484420D02*
X10415305Y31765580D01*
X11435305Y31484420D02*
X11435305Y31765580D01*
%TO.C,R21*%
X12842805Y8717258D02*
X12842805Y8242742D01*
X13887805Y8717258D02*
X13887805Y8242742D01*
%TO.C,R8*%
X78462563Y70897500D02*
X77988047Y70897500D01*
X78462563Y69852500D02*
X77988047Y69852500D01*
%TO.C,C12*%
X90536557Y75690000D02*
X90014053Y75690000D01*
X90536557Y74220000D02*
X90014053Y74220000D01*
%TO.C,R5*%
X93602805Y66487742D02*
X93602805Y66962258D01*
X94647805Y66487742D02*
X94647805Y66962258D01*
%TO.C,U6*%
X84915305Y83187500D02*
X84965305Y83187500D01*
X84915305Y81367500D02*
X84915305Y83187500D01*
X84965305Y81367500D02*
X84915305Y81367500D01*
X86085305Y83187500D02*
X86865305Y83187500D01*
X87985305Y83187500D02*
X88035305Y83187500D01*
X88035305Y83187500D02*
X88035305Y81367500D01*
X88035305Y81367500D02*
X87985305Y81367500D01*
X84965305Y80827500D02*
X84635305Y80587500D01*
X84635305Y81067500D01*
X84965305Y80827500D01*
G36*
X84965305Y80827500D02*
G01*
X84635305Y80587500D01*
X84635305Y81067500D01*
X84965305Y80827500D01*
G37*
%TO.C,D16*%
X56485000Y14783031D02*
X56535000Y14783031D01*
X56485000Y13263031D02*
X56485000Y14783031D01*
X57485000Y13263031D02*
X56485000Y13263031D01*
X57655000Y14783031D02*
X58435000Y14783031D01*
X59555000Y14783031D02*
X59605000Y14783031D01*
X59605000Y14783031D02*
X59605000Y13263031D01*
X59605000Y13263031D02*
X58605000Y13263031D01*
X58425000Y15323031D02*
X58095000Y15083031D01*
X58095000Y15563031D01*
X58425000Y15323031D01*
G36*
X58425000Y15323031D02*
G01*
X58095000Y15083031D01*
X58095000Y15563031D01*
X58425000Y15323031D01*
G37*
%TO.C,D19*%
X40715305Y10660000D02*
X40715305Y9350000D01*
X41935305Y10660000D02*
X40715305Y10660000D01*
X41935305Y10660000D02*
X41935305Y9350000D01*
%TO.C,U5*%
X47927805Y81410000D02*
X49747805Y81410000D01*
X47927805Y81360000D02*
X47927805Y81410000D01*
X47927805Y78290000D02*
X47927805Y78340000D01*
X49747805Y81410000D02*
X49747805Y81360000D01*
X49747805Y80240000D02*
X49747805Y79460000D01*
X49747805Y78340000D02*
X49747805Y78290000D01*
X49747805Y78290000D02*
X47927805Y78290000D01*
X47387805Y81360000D02*
X47147805Y81690000D01*
X47627805Y81690000D01*
X47387805Y81360000D01*
G36*
X47387805Y81360000D02*
G01*
X47147805Y81690000D01*
X47627805Y81690000D01*
X47387805Y81360000D01*
G37*
%TO.C,C11*%
X92715305Y70584420D02*
X92715305Y70865580D01*
X93735305Y70584420D02*
X93735305Y70865580D01*
%TO.C,R18*%
X12302805Y33437258D02*
X12302805Y32962742D01*
X13347805Y33437258D02*
X13347805Y32962742D01*
%TO.C,C22*%
X75315305Y67884420D02*
X75315305Y68165580D01*
X76335305Y67884420D02*
X76335305Y68165580D01*
%TO.C,C31*%
X10415305Y34965580D02*
X10415305Y34684420D01*
X11435305Y34965580D02*
X11435305Y34684420D01*
%TO.C,JP3*%
X86875305Y62262500D02*
X88875305Y62262500D01*
X86875305Y59462500D02*
X86875305Y62262500D01*
X88875305Y62262500D02*
X88875305Y59462500D01*
X88875305Y59462500D02*
X86875305Y59462500D01*
%TO.C,C33*%
X3025305Y27910000D02*
X4025305Y27910000D01*
X3525305Y28410000D02*
X3525305Y27410000D01*
X4265305Y28695563D02*
X4265305Y26910000D01*
X4265305Y28695563D02*
X5329742Y29760000D01*
X4265305Y22104437D02*
X4265305Y23890000D01*
X4265305Y22104437D02*
X5329742Y21040000D01*
X5329742Y29760000D02*
X12985305Y29760000D01*
X5329742Y21040000D02*
X12985305Y21040000D01*
X12985305Y29760000D02*
X12985305Y26910000D01*
X12985305Y21040000D02*
X12985305Y23890000D01*
%TO.C,J1*%
X16805000Y66883031D02*
X18185000Y66883031D01*
X16805000Y65503031D02*
X16805000Y66883031D01*
X16805000Y64233031D02*
X16805000Y64123031D01*
X16805000Y64233031D02*
X19455000Y64233031D01*
X16805000Y64123031D02*
X22105000Y64123031D01*
X19455000Y66883031D02*
X22105000Y66883031D01*
X19455000Y64233031D02*
X19455000Y66883031D01*
X22105000Y66883031D02*
X22105000Y64123031D01*
%TO.C,D22*%
X17465305Y77730000D02*
X17465305Y76420000D01*
X18685305Y77730000D02*
X17465305Y77730000D01*
X18685305Y77730000D02*
X18685305Y76420000D01*
%TO.C,C27*%
X80480885Y39970000D02*
X80199725Y39970000D01*
X80480885Y38950000D02*
X80199725Y38950000D01*
%TO.C,R4*%
X95302805Y71237742D02*
X95302805Y71712258D01*
X96347805Y71237742D02*
X96347805Y71712258D01*
%TO.C,R1*%
X16102805Y74137258D02*
X16102805Y73662742D01*
X17147805Y74137258D02*
X17147805Y73662742D01*
%TO.C,D18*%
X46265305Y14820531D02*
X46315305Y14820531D01*
X46265305Y13300531D02*
X46265305Y14820531D01*
X47265305Y13300531D02*
X46265305Y13300531D01*
X47435305Y14820531D02*
X48215305Y14820531D01*
X49335305Y14820531D02*
X49385305Y14820531D01*
X49385305Y14820531D02*
X49385305Y13300531D01*
X49385305Y13300531D02*
X48385305Y13300531D01*
X48205305Y15360531D02*
X47875305Y15120531D01*
X47875305Y15600531D01*
X48205305Y15360531D01*
G36*
X48205305Y15360531D02*
G01*
X47875305Y15120531D01*
X47875305Y15600531D01*
X48205305Y15360531D01*
G37*
%TO.C,R7*%
X90402805Y66487742D02*
X90402805Y66962258D01*
X91447805Y66487742D02*
X91447805Y66962258D01*
%TO.C,D15*%
X48810000Y4560000D02*
X49810000Y4560000D01*
X48810000Y3040000D02*
X48810000Y4560000D01*
X48860000Y3040000D02*
X48810000Y3040000D01*
X50760000Y3040000D02*
X49980000Y3040000D01*
X50930000Y4560000D02*
X51930000Y4560000D01*
X51930000Y4560000D02*
X51930000Y3040000D01*
X51930000Y3040000D02*
X51880000Y3040000D01*
X49990000Y2500000D02*
X50320000Y2740000D01*
X50320000Y2260000D01*
X49990000Y2500000D01*
G36*
X50320000Y2260000D02*
G01*
X49990000Y2500000D01*
X50320000Y2740000D01*
X50320000Y2260000D01*
G37*
%TO.C,JP1*%
X89535305Y22910000D02*
X91535305Y22910000D01*
X89535305Y20110000D02*
X89535305Y22910000D01*
X91535305Y22910000D02*
X91535305Y20110000D01*
X91535305Y20110000D02*
X89535305Y20110000D01*
%TO.C,C25*%
X81165305Y36015580D02*
X81165305Y35734420D01*
X82185305Y36015580D02*
X82185305Y35734420D01*
%TO.C,C18*%
X80215305Y71534420D02*
X80215305Y71815580D01*
X81235305Y71534420D02*
X81235305Y71815580D01*
%TO.C,C30*%
X6065305Y42260000D02*
X6065305Y40560000D01*
X6065305Y36740000D02*
X6065305Y38440000D01*
X10520868Y42260000D02*
X6065305Y42260000D01*
X10520868Y36740000D02*
X6065305Y36740000D01*
X11585305Y41195563D02*
X10520868Y42260000D01*
X11585305Y41195563D02*
X11585305Y40560000D01*
X11585305Y37804437D02*
X10520868Y36740000D01*
X11585305Y37804437D02*
X11585305Y38440000D01*
X12137805Y37502500D02*
X12137805Y38127500D01*
X12450305Y37815000D02*
X11825305Y37815000D01*
%TO.C,C29*%
X91686557Y60872500D02*
X91164053Y60872500D01*
X91686557Y59402500D02*
X91164053Y59402500D01*
%TO.C,J4*%
D15*
X278705Y17569411D02*
X278705Y7460211D01*
X278705Y7460211D02*
X3683565Y7460211D01*
X3683565Y17569411D02*
X278705Y17569411D01*
X6889045Y7460211D02*
X10413305Y7460211D01*
X10413305Y17569411D02*
X6889045Y17569411D01*
X10413305Y16894476D02*
X10413305Y17569411D01*
X10413305Y9694475D02*
X10413305Y15335147D01*
X10413305Y7460211D02*
X10413305Y8135146D01*
%TO.C,C17*%
D14*
X85109725Y75285000D02*
X85390885Y75285000D01*
X85109725Y74265000D02*
X85390885Y74265000D01*
%TO.C,C16*%
X80215305Y67690580D02*
X80215305Y67409420D01*
X81235305Y67690580D02*
X81235305Y67409420D01*
%TO.C,C14*%
X81314053Y75610000D02*
X81836557Y75610000D01*
X81314053Y74140000D02*
X81836557Y74140000D01*
%TO.C,R9*%
X78437563Y69297500D02*
X77963047Y69297500D01*
X78437563Y68252500D02*
X77963047Y68252500D01*
%TO.C,D17*%
X51360000Y14808031D02*
X51410000Y14808031D01*
X51360000Y13288031D02*
X51360000Y14808031D01*
X52360000Y13288031D02*
X51360000Y13288031D01*
X52530000Y14808031D02*
X53310000Y14808031D01*
X54430000Y14808031D02*
X54480000Y14808031D01*
X54480000Y14808031D02*
X54480000Y13288031D01*
X54480000Y13288031D02*
X53480000Y13288031D01*
X53300000Y15348031D02*
X52970000Y15108031D01*
X52970000Y15588031D01*
X53300000Y15348031D01*
G36*
X53300000Y15348031D02*
G01*
X52970000Y15108031D01*
X52970000Y15588031D01*
X53300000Y15348031D01*
G37*
%TO.C,U2*%
X13377237Y20199811D02*
X14172805Y20199811D01*
X14172805Y17429811D02*
X12952805Y17429811D01*
X13082805Y20204811D02*
X12942805Y20394811D01*
X13222805Y20394811D01*
X13082805Y20204811D01*
G36*
X13082805Y20204811D02*
G01*
X12942805Y20394811D01*
X13222805Y20394811D01*
X13082805Y20204811D01*
G37*
%TO.C,J13*%
X42660000Y11605531D02*
X42660000Y6305531D01*
X60550000Y11605531D02*
X42660000Y11605531D01*
X60550000Y11605531D02*
X60550000Y8955531D01*
X60550000Y8955531D02*
X63200000Y8955531D01*
X61820000Y11605531D02*
X63200000Y11605531D01*
X63200000Y11605531D02*
X63200000Y10225531D01*
X63200000Y8955531D02*
X63200000Y6305531D01*
X63200000Y6305531D02*
X42660000Y6305531D01*
%TO.C,J12*%
X65815000Y11603031D02*
X65815000Y6303031D01*
X83705000Y11603031D02*
X65815000Y11603031D01*
X83705000Y11603031D02*
X83705000Y8953031D01*
X83705000Y8953031D02*
X86355000Y8953031D01*
X84975000Y11603031D02*
X86355000Y11603031D01*
X86355000Y11603031D02*
X86355000Y10223031D01*
X86355000Y8953031D02*
X86355000Y6303031D01*
X86355000Y6303031D02*
X65815000Y6303031D01*
%TO.C,D7*%
X66910000Y14872500D02*
X67910000Y14872500D01*
X66910000Y13352500D02*
X66910000Y14872500D01*
X66960000Y13352500D02*
X66910000Y13352500D01*
X68860000Y13352500D02*
X68080000Y13352500D01*
X69030000Y14872500D02*
X70030000Y14872500D01*
X70030000Y14872500D02*
X70030000Y13352500D01*
X70030000Y13352500D02*
X69980000Y13352500D01*
X68090000Y12812500D02*
X68420000Y13052500D01*
X68420000Y12572500D01*
X68090000Y12812500D01*
G36*
X68420000Y12572500D02*
G01*
X68090000Y12812500D01*
X68420000Y13052500D01*
X68420000Y12572500D01*
G37*
%TO.C,R19*%
X5002805Y33137742D02*
X5002805Y33612258D01*
X6047805Y33137742D02*
X6047805Y33612258D01*
%TO.C,D3*%
X14535305Y50310000D02*
X16055305Y50310000D01*
X14535305Y50260000D02*
X14535305Y50310000D01*
X14535305Y48360000D02*
X14535305Y49140000D01*
X14535305Y47190000D02*
X14535305Y47240000D01*
X16055305Y50310000D02*
X16055305Y49310000D01*
X16055305Y48190000D02*
X16055305Y47190000D01*
X16055305Y47190000D02*
X14535305Y47190000D01*
X13995305Y49130000D02*
X14235305Y48800000D01*
X13755305Y48800000D01*
X13995305Y49130000D01*
G36*
X14235305Y48800000D02*
G01*
X13755305Y48800000D01*
X13995305Y49130000D01*
X14235305Y48800000D01*
G37*
%TO.C,C1*%
X18010305Y71961252D02*
X18010305Y71438748D01*
X19480305Y71961252D02*
X19480305Y71438748D01*
%TO.C,C5*%
X49061557Y83760000D02*
X48539053Y83760000D01*
X49061557Y82290000D02*
X48539053Y82290000D01*
%TO.C,R20*%
X16482805Y16182258D02*
X16482805Y15707742D01*
X17527805Y16182258D02*
X17527805Y15707742D01*
%TO.C,C2*%
X22431557Y74835000D02*
X21909053Y74835000D01*
X22431557Y73365000D02*
X21909053Y73365000D01*
%TO.C,JP4*%
X85660305Y24435000D02*
X88460305Y24435000D01*
X85660305Y22435000D02*
X85660305Y24435000D01*
X88460305Y24435000D02*
X88460305Y22435000D01*
X88460305Y22435000D02*
X85660305Y22435000D01*
%TO.C,SW1*%
D12*
X6250305Y70750000D02*
X13250305Y70750000D01*
X13250305Y66350000D01*
X6250305Y66350000D01*
X6250305Y70750000D01*
%TO.C,C23*%
D14*
X82690305Y81878748D02*
X82690305Y82401252D01*
X84160305Y81878748D02*
X84160305Y82401252D01*
%TO.C,Y1*%
X79190305Y43035000D02*
X79190305Y41685000D01*
X80940305Y43035000D02*
X80940305Y41685000D01*
%TO.C,R3*%
X95302805Y68037742D02*
X95302805Y68512258D01*
X96347805Y68037742D02*
X96347805Y68512258D01*
%TO.C,C4*%
X14515305Y74040580D02*
X14515305Y73759420D01*
X15535305Y74040580D02*
X15535305Y73759420D01*
%TO.C,JP5*%
X85660305Y21635000D02*
X88460305Y21635000D01*
X85660305Y19635000D02*
X85660305Y21635000D01*
X88460305Y21635000D02*
X88460305Y19635000D01*
X88460305Y19635000D02*
X85660305Y19635000D01*
%TO.C,R6*%
X92002805Y66487742D02*
X92002805Y66962258D01*
X93047805Y66487742D02*
X93047805Y66962258D01*
%TO.C,J2*%
D15*
X478705Y84154667D02*
X478705Y74045467D01*
X478705Y74045467D02*
X3883565Y74045467D01*
X3883565Y84154667D02*
X478705Y84154667D01*
X7089045Y74045467D02*
X10613305Y74045467D01*
X10613305Y84154667D02*
X7089045Y84154667D01*
X10613305Y83479732D02*
X10613305Y84154667D01*
X10613305Y76279731D02*
X10613305Y81920403D01*
X10613305Y74045467D02*
X10613305Y74720402D01*
%TO.C,J8*%
D16*
X30055305Y88200000D02*
X43155305Y88200000D01*
X30055305Y85500000D02*
X30055305Y82600000D01*
X30055305Y79600000D02*
X30055305Y77500000D01*
X30729305Y74150000D02*
X31731305Y74150000D01*
X37479305Y74150000D02*
X42481305Y74150000D01*
D10*
X33305305Y86775000D02*
G75*
G02*
X33105305Y86775000I-100000J0D01*
G01*
X33105305Y86775000D02*
G75*
G02*
X33305305Y86775000I100000J0D01*
G01*
%TO.C,D8*%
D14*
X71910000Y4570531D02*
X71960000Y4570531D01*
X71910000Y3050531D02*
X71910000Y4570531D01*
X72910000Y3050531D02*
X71910000Y3050531D01*
X73080000Y4570531D02*
X73860000Y4570531D01*
X74980000Y4570531D02*
X75030000Y4570531D01*
X75030000Y4570531D02*
X75030000Y3050531D01*
X75030000Y3050531D02*
X74030000Y3050531D01*
X73850000Y5110531D02*
X73520000Y4870531D01*
X73520000Y5350531D01*
X73850000Y5110531D01*
G36*
X73850000Y5110531D02*
G01*
X73520000Y4870531D01*
X73520000Y5350531D01*
X73850000Y5110531D01*
G37*
%TO.C,R16*%
X84712563Y58460000D02*
X84238047Y58460000D01*
X84712563Y57415000D02*
X84238047Y57415000D01*
%TO.C,D21*%
X12715305Y15720000D02*
X12715305Y14410000D01*
X13935305Y15720000D02*
X12715305Y15720000D01*
X13935305Y15720000D02*
X13935305Y14410000D01*
%TO.C,D6*%
X71960000Y14845531D02*
X72960000Y14845531D01*
X71960000Y13325531D02*
X71960000Y14845531D01*
X72010000Y13325531D02*
X71960000Y13325531D01*
X73910000Y13325531D02*
X73130000Y13325531D01*
X74080000Y14845531D02*
X75080000Y14845531D01*
X75080000Y14845531D02*
X75080000Y13325531D01*
X75080000Y13325531D02*
X75030000Y13325531D01*
X73140000Y12785531D02*
X73470000Y13025531D01*
X73470000Y12545531D01*
X73140000Y12785531D01*
G36*
X73470000Y12545531D02*
G01*
X73140000Y12785531D01*
X73470000Y13025531D01*
X73470000Y12545531D01*
G37*
%TO.C,R23*%
X15438047Y43592500D02*
X15912563Y43592500D01*
X15438047Y42547500D02*
X15912563Y42547500D01*
%TO.C,D11*%
X77085000Y14845531D02*
X78085000Y14845531D01*
X77085000Y13325531D02*
X77085000Y14845531D01*
X77135000Y13325531D02*
X77085000Y13325531D01*
X79035000Y13325531D02*
X78255000Y13325531D01*
X79205000Y14845531D02*
X80205000Y14845531D01*
X80205000Y14845531D02*
X80205000Y13325531D01*
X80205000Y13325531D02*
X80155000Y13325531D01*
X78265000Y12785531D02*
X78595000Y13025531D01*
X78595000Y12545531D01*
X78265000Y12785531D01*
G36*
X78595000Y12545531D02*
G01*
X78265000Y12785531D01*
X78595000Y13025531D01*
X78595000Y12545531D01*
G37*
%TO.C,C15*%
X77990305Y65863748D02*
X77990305Y66386252D01*
X79460305Y65863748D02*
X79460305Y66386252D01*
%TO.C,D2*%
X15715305Y14105000D02*
X17235305Y14105000D01*
X15715305Y13105000D02*
X15715305Y14105000D01*
X15715305Y10985000D02*
X15715305Y11985000D01*
X17235305Y14105000D02*
X17235305Y14055000D01*
X17235305Y12935000D02*
X17235305Y12155000D01*
X17235305Y11035000D02*
X17235305Y10985000D01*
X17235305Y10985000D02*
X15715305Y10985000D01*
X17775305Y12165000D02*
X17535305Y12495000D01*
X18015305Y12495000D01*
X17775305Y12165000D01*
G36*
X17775305Y12165000D02*
G01*
X17535305Y12495000D01*
X18015305Y12495000D01*
X17775305Y12165000D01*
G37*
%TO.C,R2*%
X89927805Y47087742D02*
X89927805Y47562258D01*
X90972805Y47087742D02*
X90972805Y47562258D01*
%TO.C,D5*%
X15202805Y84360000D02*
X16722805Y84360000D01*
X15202805Y84310000D02*
X15202805Y84360000D01*
X15202805Y82410000D02*
X15202805Y83190000D01*
X15202805Y81240000D02*
X15202805Y81290000D01*
X16722805Y84360000D02*
X16722805Y83360000D01*
X16722805Y82240000D02*
X16722805Y81240000D01*
X16722805Y81240000D02*
X15202805Y81240000D01*
X14662805Y83180000D02*
X14902805Y82850000D01*
X14422805Y82850000D01*
X14662805Y83180000D01*
G36*
X14902805Y82850000D02*
G01*
X14422805Y82850000D01*
X14662805Y83180000D01*
X14902805Y82850000D01*
G37*
%TO.C,C21*%
X75315305Y70959420D02*
X75315305Y71240580D01*
X76335305Y70959420D02*
X76335305Y71240580D01*
%TO.C,U3*%
X13367237Y56425000D02*
X14162805Y56425000D01*
X14162805Y53655000D02*
X12942805Y53655000D01*
X13072805Y56430000D02*
X12932805Y56620000D01*
X13212805Y56620000D01*
X13072805Y56430000D01*
G36*
X13072805Y56430000D02*
G01*
X12932805Y56620000D01*
X13212805Y56620000D01*
X13072805Y56430000D01*
G37*
%TO.C,U7*%
D12*
X85474306Y45181898D02*
X101730306Y45181898D01*
X101730306Y33929698D01*
X85474306Y33929698D01*
X85474306Y45181898D01*
%TO.C,D14*%
D14*
X53935000Y4570531D02*
X54935000Y4570531D01*
X53935000Y3050531D02*
X53935000Y4570531D01*
X53985000Y3050531D02*
X53935000Y3050531D01*
X55885000Y3050531D02*
X55105000Y3050531D01*
X56055000Y4570531D02*
X57055000Y4570531D01*
X57055000Y4570531D02*
X57055000Y3050531D01*
X57055000Y3050531D02*
X57005000Y3050531D01*
X55115000Y2510531D02*
X55445000Y2750531D01*
X55445000Y2270531D01*
X55115000Y2510531D01*
G36*
X55445000Y2270531D02*
G01*
X55115000Y2510531D01*
X55445000Y2750531D01*
X55445000Y2270531D01*
G37*
%TO.C,D4*%
X15202805Y80660000D02*
X16722805Y80660000D01*
X15202805Y80610000D02*
X15202805Y80660000D01*
X15202805Y78710000D02*
X15202805Y79490000D01*
X15202805Y77540000D02*
X15202805Y77590000D01*
X16722805Y80660000D02*
X16722805Y79660000D01*
X16722805Y78540000D02*
X16722805Y77540000D01*
X16722805Y77540000D02*
X15202805Y77540000D01*
X14662805Y79480000D02*
X14902805Y79150000D01*
X14422805Y79150000D01*
X14662805Y79480000D01*
G36*
X14902805Y79150000D02*
G01*
X14422805Y79150000D01*
X14662805Y79480000D01*
X14902805Y79150000D01*
G37*
%TO.C,D1*%
X87435305Y52192500D02*
X87435305Y55282500D01*
X81885305Y53737500D02*
G75*
G02*
X87435305Y55282330I2990000J0D01*
G01*
X87435305Y52192670D02*
G75*
G02*
X81885305Y53737500I-2560000J1544830D01*
G01*
X87375305Y53737500D02*
G75*
G02*
X82375305Y53737500I-2500000J0D01*
G01*
X82375305Y53737500D02*
G75*
G02*
X87375305Y53737500I2500000J0D01*
G01*
%TO.C,R17*%
X96087563Y54260000D02*
X95613047Y54260000D01*
X96087563Y53215000D02*
X95613047Y53215000D01*
%TO.C,U8*%
X6615305Y34047500D02*
X6665305Y34047500D01*
X6615305Y32227500D02*
X6615305Y34047500D01*
X6665305Y32227500D02*
X6615305Y32227500D01*
X9685305Y34047500D02*
X9735305Y34047500D01*
X9735305Y34047500D02*
X9735305Y32227500D01*
X9735305Y32227500D02*
X9685305Y32227500D01*
X9685305Y34587500D02*
X10015305Y34827500D01*
X10015305Y34347500D01*
X9685305Y34587500D01*
G36*
X10015305Y34347500D02*
G01*
X9685305Y34587500D01*
X10015305Y34827500D01*
X10015305Y34347500D01*
G37*
%TO.C,C28*%
X80299725Y45770000D02*
X80580885Y45770000D01*
X80299725Y44750000D02*
X80580885Y44750000D01*
%TO.C,J6*%
X53435305Y73890000D02*
X53435305Y72550000D01*
X53435305Y69830000D02*
X53435305Y68090000D01*
X53435305Y68090000D02*
X67735305Y68090000D01*
X54925305Y73890000D02*
X53435305Y73890000D01*
X54925305Y73890000D02*
X54925305Y75090000D01*
X66245305Y73890000D02*
X67735305Y73890000D01*
X67735305Y73890000D02*
X67735305Y72550000D01*
X67735305Y68090000D02*
X67735305Y69830000D01*
X67279310Y74530000D02*
G75*
G02*
X66451300Y74530000I-414005J0D01*
G01*
X66451300Y74530000D02*
G75*
G02*
X67279310Y74530000I414005J0D01*
G01*
%TO.C,D9*%
X66910000Y4570531D02*
X66960000Y4570531D01*
X66910000Y3050531D02*
X66910000Y4570531D01*
X67910000Y3050531D02*
X66910000Y3050531D01*
X68080000Y4570531D02*
X68860000Y4570531D01*
X69980000Y4570531D02*
X70030000Y4570531D01*
X70030000Y4570531D02*
X70030000Y3050531D01*
X70030000Y3050531D02*
X69030000Y3050531D01*
X68850000Y5110531D02*
X68520000Y4870531D01*
X68520000Y5350531D01*
X68850000Y5110531D01*
G36*
X68850000Y5110531D02*
G01*
X68520000Y4870531D01*
X68520000Y5350531D01*
X68850000Y5110531D01*
G37*
%TO.C,C19*%
X86486557Y79475000D02*
X85964053Y79475000D01*
X86486557Y78005000D02*
X85964053Y78005000D01*
%TO.C,R15*%
X76513047Y45372500D02*
X76987563Y45372500D01*
X76513047Y44327500D02*
X76987563Y44327500D01*
%TO.C,C20*%
X90590305Y72451252D02*
X90590305Y71928748D01*
X92060305Y72451252D02*
X92060305Y71928748D01*
%TO.C,R31*%
X22388047Y62322500D02*
X22862563Y62322500D01*
X22388047Y61277500D02*
X22862563Y61277500D01*
%TO.C,J7*%
X17375305Y56850000D02*
X17375305Y23850000D01*
X20875305Y20350000D02*
X68875305Y20350000D01*
X30975305Y58710000D02*
X30975305Y55910000D01*
X30975305Y58710000D02*
X31975305Y58710000D01*
X30975305Y55910000D02*
X31975305Y55910000D01*
X30975305Y24790000D02*
X30975305Y21910000D01*
X30975305Y24790000D02*
X31975305Y24790000D01*
X30975305Y21910000D02*
X31975305Y21910000D01*
X53775305Y58710000D02*
X52775305Y58710000D01*
X53775305Y58710000D02*
X53775305Y55910000D01*
X53775305Y55910000D02*
X52775305Y55910000D01*
X53775305Y24790000D02*
X52775305Y24790000D01*
X53775305Y24790000D02*
X53775305Y21910000D01*
X53775305Y21910000D02*
X52775305Y21910000D01*
X68875305Y60350000D02*
X20875305Y60350000D01*
X72375305Y23850000D02*
X72375305Y56850000D01*
X17375305Y56850000D02*
G75*
G02*
X20875305Y60350000I3499999J1D01*
G01*
X20875305Y20350000D02*
G75*
G02*
X17375305Y23850000I0J3500000D01*
G01*
X68875305Y60350000D02*
G75*
G02*
X72375305Y56850000I1J-3499999D01*
G01*
X72375305Y23850000D02*
G75*
G02*
X68875305Y20350000I-3500000J0D01*
G01*
%TD*%
M02*
