%TF.GenerationSoftware,KiCad,Pcbnew,10.0.5-1.fc44app2*%
%TF.CreationDate,2026-08-31T15:33:53+01:00*%
%TF.ProjectId,mainboard,6d61696e-626f-4617-9264-2e6b69636164,0.1*%
%TF.SameCoordinates,PX4b99070PY7a1c817*%
%TF.FileFunction,Legend,Bot*%
%TF.FilePolarity,Positive*%
%FSLAX46Y46*%
G04 Gerber Fmt 4.6, Leading zero omitted, Abs format (unit mm)*
G04 Created by KiCad (PCBNEW 10.0.5-1.fc44app2) date 2026-08-31 15:33:53*
%MOMM*%
%LPD*%
G01*
G04 APERTURE LIST*
%ADD10C,0.150000*%
%ADD11C,0.100000*%
%ADD12C,0.125000*%
%ADD13C,0.120000*%
G04 APERTURE END LIST*
D10*
X75782362Y43557031D02*
X76382362Y43557031D01*
X75868076Y43557031D02*
X75825219Y43514174D01*
X75825219Y43514174D02*
X75782362Y43428459D01*
X75782362Y43428459D02*
X75782362Y43299888D01*
X75782362Y43299888D02*
X75825219Y43214174D01*
X75825219Y43214174D02*
X75910933Y43171316D01*
X75910933Y43171316D02*
X76382362Y43171316D01*
X76382362Y42228459D02*
X75953790Y42528459D01*
X76382362Y42742745D02*
X75482362Y42742745D01*
X75482362Y42742745D02*
X75482362Y42399888D01*
X75482362Y42399888D02*
X75525219Y42314173D01*
X75525219Y42314173D02*
X75568076Y42271316D01*
X75568076Y42271316D02*
X75653790Y42228459D01*
X75653790Y42228459D02*
X75782362Y42228459D01*
X75782362Y42228459D02*
X75868076Y42271316D01*
X75868076Y42271316D02*
X75910933Y42314173D01*
X75910933Y42314173D02*
X75953790Y42399888D01*
X75953790Y42399888D02*
X75953790Y42742745D01*
X75910933Y41842745D02*
X75910933Y41542745D01*
X76382362Y41414173D02*
X76382362Y41842745D01*
X76382362Y41842745D02*
X75482362Y41842745D01*
X75482362Y41842745D02*
X75482362Y41414173D01*
X76339505Y41071316D02*
X76382362Y40942744D01*
X76382362Y40942744D02*
X76382362Y40728459D01*
X76382362Y40728459D02*
X76339505Y40642744D01*
X76339505Y40642744D02*
X76296647Y40599887D01*
X76296647Y40599887D02*
X76210933Y40557030D01*
X76210933Y40557030D02*
X76125219Y40557030D01*
X76125219Y40557030D02*
X76039505Y40599887D01*
X76039505Y40599887D02*
X75996647Y40642744D01*
X75996647Y40642744D02*
X75953790Y40728459D01*
X75953790Y40728459D02*
X75910933Y40899887D01*
X75910933Y40899887D02*
X75868076Y40985602D01*
X75868076Y40985602D02*
X75825219Y41028459D01*
X75825219Y41028459D02*
X75739505Y41071316D01*
X75739505Y41071316D02*
X75653790Y41071316D01*
X75653790Y41071316D02*
X75568076Y41028459D01*
X75568076Y41028459D02*
X75525219Y40985602D01*
X75525219Y40985602D02*
X75482362Y40899887D01*
X75482362Y40899887D02*
X75482362Y40685602D01*
X75482362Y40685602D02*
X75525219Y40557030D01*
X75910933Y40171316D02*
X75910933Y39871316D01*
X76382362Y39742744D02*
X76382362Y40171316D01*
X76382362Y40171316D02*
X75482362Y40171316D01*
X75482362Y40171316D02*
X75482362Y39742744D01*
X75482362Y39485601D02*
X75482362Y38971315D01*
X76382362Y39228458D02*
X75482362Y39228458D01*
D11*
X44001771Y14616116D02*
X44001771Y13854211D01*
X44382724Y14235164D02*
X43620819Y14235164D01*
X43382724Y12901831D02*
X43382724Y13378021D01*
X43382724Y13378021D02*
X43858914Y13425640D01*
X43858914Y13425640D02*
X43811295Y13378021D01*
X43811295Y13378021D02*
X43763676Y13282783D01*
X43763676Y13282783D02*
X43763676Y13044688D01*
X43763676Y13044688D02*
X43811295Y12949450D01*
X43811295Y12949450D02*
X43858914Y12901831D01*
X43858914Y12901831D02*
X43954152Y12854212D01*
X43954152Y12854212D02*
X44192247Y12854212D01*
X44192247Y12854212D02*
X44287485Y12901831D01*
X44287485Y12901831D02*
X44335105Y12949450D01*
X44335105Y12949450D02*
X44382724Y13044688D01*
X44382724Y13044688D02*
X44382724Y13282783D01*
X44382724Y13282783D02*
X44335105Y13378021D01*
X44335105Y13378021D02*
X44287485Y13425640D01*
X43716057Y12520878D02*
X44382724Y12282783D01*
X44382724Y12282783D02*
X43716057Y12044688D01*
X44071771Y5816116D02*
X44071771Y5054211D01*
X44452724Y5435164D02*
X43690819Y5435164D01*
X43452724Y4101831D02*
X43452724Y4578021D01*
X43452724Y4578021D02*
X43928914Y4625640D01*
X43928914Y4625640D02*
X43881295Y4578021D01*
X43881295Y4578021D02*
X43833676Y4482783D01*
X43833676Y4482783D02*
X43833676Y4244688D01*
X43833676Y4244688D02*
X43881295Y4149450D01*
X43881295Y4149450D02*
X43928914Y4101831D01*
X43928914Y4101831D02*
X44024152Y4054212D01*
X44024152Y4054212D02*
X44262247Y4054212D01*
X44262247Y4054212D02*
X44357485Y4101831D01*
X44357485Y4101831D02*
X44405105Y4149450D01*
X44405105Y4149450D02*
X44452724Y4244688D01*
X44452724Y4244688D02*
X44452724Y4482783D01*
X44452724Y4482783D02*
X44405105Y4578021D01*
X44405105Y4578021D02*
X44357485Y4625640D01*
X43786057Y3720878D02*
X44452724Y3482783D01*
X44452724Y3482783D02*
X43786057Y3244688D01*
X46581771Y5816116D02*
X46581771Y5054211D01*
X46962724Y5435164D02*
X46200819Y5435164D01*
X45962724Y4673259D02*
X45962724Y4054212D01*
X45962724Y4054212D02*
X46343676Y4387545D01*
X46343676Y4387545D02*
X46343676Y4244688D01*
X46343676Y4244688D02*
X46391295Y4149450D01*
X46391295Y4149450D02*
X46438914Y4101831D01*
X46438914Y4101831D02*
X46534152Y4054212D01*
X46534152Y4054212D02*
X46772247Y4054212D01*
X46772247Y4054212D02*
X46867485Y4101831D01*
X46867485Y4101831D02*
X46915105Y4149450D01*
X46915105Y4149450D02*
X46962724Y4244688D01*
X46962724Y4244688D02*
X46962724Y4530402D01*
X46962724Y4530402D02*
X46915105Y4625640D01*
X46915105Y4625640D02*
X46867485Y4673259D01*
X46296057Y3720878D02*
X46962724Y3482783D01*
X46962724Y3482783D02*
X46296057Y3244688D01*
X45962724Y2958973D02*
X45962724Y2339926D01*
X45962724Y2339926D02*
X46343676Y2673259D01*
X46343676Y2673259D02*
X46343676Y2530402D01*
X46343676Y2530402D02*
X46391295Y2435164D01*
X46391295Y2435164D02*
X46438914Y2387545D01*
X46438914Y2387545D02*
X46534152Y2339926D01*
X46534152Y2339926D02*
X46772247Y2339926D01*
X46772247Y2339926D02*
X46867485Y2387545D01*
X46867485Y2387545D02*
X46915105Y2435164D01*
X46915105Y2435164D02*
X46962724Y2530402D01*
X46962724Y2530402D02*
X46962724Y2816116D01*
X46962724Y2816116D02*
X46915105Y2911354D01*
X46915105Y2911354D02*
X46867485Y2958973D01*
X46180343Y14142307D02*
X46132724Y14237545D01*
X46132724Y14237545D02*
X46132724Y14380402D01*
X46132724Y14380402D02*
X46180343Y14523259D01*
X46180343Y14523259D02*
X46275581Y14618497D01*
X46275581Y14618497D02*
X46370819Y14666116D01*
X46370819Y14666116D02*
X46561295Y14713735D01*
X46561295Y14713735D02*
X46704152Y14713735D01*
X46704152Y14713735D02*
X46894628Y14666116D01*
X46894628Y14666116D02*
X46989866Y14618497D01*
X46989866Y14618497D02*
X47085105Y14523259D01*
X47085105Y14523259D02*
X47132724Y14380402D01*
X47132724Y14380402D02*
X47132724Y14285164D01*
X47132724Y14285164D02*
X47085105Y14142307D01*
X47085105Y14142307D02*
X47037485Y14094688D01*
X47037485Y14094688D02*
X46704152Y14094688D01*
X46704152Y14094688D02*
X46704152Y14285164D01*
X47132724Y13666116D02*
X46132724Y13666116D01*
X46132724Y13666116D02*
X47132724Y13094688D01*
X47132724Y13094688D02*
X46132724Y13094688D01*
X47132724Y12618497D02*
X46132724Y12618497D01*
X46132724Y12618497D02*
X46132724Y12380402D01*
X46132724Y12380402D02*
X46180343Y12237545D01*
X46180343Y12237545D02*
X46275581Y12142307D01*
X46275581Y12142307D02*
X46370819Y12094688D01*
X46370819Y12094688D02*
X46561295Y12047069D01*
X46561295Y12047069D02*
X46704152Y12047069D01*
X46704152Y12047069D02*
X46894628Y12094688D01*
X46894628Y12094688D02*
X46989866Y12142307D01*
X46989866Y12142307D02*
X47085105Y12237545D01*
X47085105Y12237545D02*
X47132724Y12380402D01*
X47132724Y12380402D02*
X47132724Y12618497D01*
X48640343Y15012307D02*
X48592724Y15107545D01*
X48592724Y15107545D02*
X48592724Y15250402D01*
X48592724Y15250402D02*
X48640343Y15393259D01*
X48640343Y15393259D02*
X48735581Y15488497D01*
X48735581Y15488497D02*
X48830819Y15536116D01*
X48830819Y15536116D02*
X49021295Y15583735D01*
X49021295Y15583735D02*
X49164152Y15583735D01*
X49164152Y15583735D02*
X49354628Y15536116D01*
X49354628Y15536116D02*
X49449866Y15488497D01*
X49449866Y15488497D02*
X49545105Y15393259D01*
X49545105Y15393259D02*
X49592724Y15250402D01*
X49592724Y15250402D02*
X49592724Y15155164D01*
X49592724Y15155164D02*
X49545105Y15012307D01*
X49545105Y15012307D02*
X49497485Y14964688D01*
X49497485Y14964688D02*
X49164152Y14964688D01*
X49164152Y14964688D02*
X49164152Y15155164D01*
X49592724Y14536116D02*
X48592724Y14536116D01*
X48592724Y14536116D02*
X48592724Y14155164D01*
X48592724Y14155164D02*
X48640343Y14059926D01*
X48640343Y14059926D02*
X48687962Y14012307D01*
X48687962Y14012307D02*
X48783200Y13964688D01*
X48783200Y13964688D02*
X48926057Y13964688D01*
X48926057Y13964688D02*
X49021295Y14012307D01*
X49021295Y14012307D02*
X49068914Y14059926D01*
X49068914Y14059926D02*
X49116533Y14155164D01*
X49116533Y14155164D02*
X49116533Y14536116D01*
X48592724Y13345640D02*
X48592724Y13250402D01*
X48592724Y13250402D02*
X48640343Y13155164D01*
X48640343Y13155164D02*
X48687962Y13107545D01*
X48687962Y13107545D02*
X48783200Y13059926D01*
X48783200Y13059926D02*
X48973676Y13012307D01*
X48973676Y13012307D02*
X49211771Y13012307D01*
X49211771Y13012307D02*
X49402247Y13059926D01*
X49402247Y13059926D02*
X49497485Y13107545D01*
X49497485Y13107545D02*
X49545105Y13155164D01*
X49545105Y13155164D02*
X49592724Y13250402D01*
X49592724Y13250402D02*
X49592724Y13345640D01*
X49592724Y13345640D02*
X49545105Y13440878D01*
X49545105Y13440878D02*
X49497485Y13488497D01*
X49497485Y13488497D02*
X49402247Y13536116D01*
X49402247Y13536116D02*
X49211771Y13583735D01*
X49211771Y13583735D02*
X48973676Y13583735D01*
X48973676Y13583735D02*
X48783200Y13536116D01*
X48783200Y13536116D02*
X48687962Y13488497D01*
X48687962Y13488497D02*
X48640343Y13440878D01*
X48640343Y13440878D02*
X48592724Y13345640D01*
X48687962Y12631354D02*
X48640343Y12583735D01*
X48640343Y12583735D02*
X48592724Y12488497D01*
X48592724Y12488497D02*
X48592724Y12250402D01*
X48592724Y12250402D02*
X48640343Y12155164D01*
X48640343Y12155164D02*
X48687962Y12107545D01*
X48687962Y12107545D02*
X48783200Y12059926D01*
X48783200Y12059926D02*
X48878438Y12059926D01*
X48878438Y12059926D02*
X49021295Y12107545D01*
X49021295Y12107545D02*
X49592724Y12678973D01*
X49592724Y12678973D02*
X49592724Y12059926D01*
X48700343Y5232307D02*
X48652724Y5327545D01*
X48652724Y5327545D02*
X48652724Y5470402D01*
X48652724Y5470402D02*
X48700343Y5613259D01*
X48700343Y5613259D02*
X48795581Y5708497D01*
X48795581Y5708497D02*
X48890819Y5756116D01*
X48890819Y5756116D02*
X49081295Y5803735D01*
X49081295Y5803735D02*
X49224152Y5803735D01*
X49224152Y5803735D02*
X49414628Y5756116D01*
X49414628Y5756116D02*
X49509866Y5708497D01*
X49509866Y5708497D02*
X49605105Y5613259D01*
X49605105Y5613259D02*
X49652724Y5470402D01*
X49652724Y5470402D02*
X49652724Y5375164D01*
X49652724Y5375164D02*
X49605105Y5232307D01*
X49605105Y5232307D02*
X49557485Y5184688D01*
X49557485Y5184688D02*
X49224152Y5184688D01*
X49224152Y5184688D02*
X49224152Y5375164D01*
X49652724Y4756116D02*
X48652724Y4756116D01*
X48652724Y4756116D02*
X48652724Y4375164D01*
X48652724Y4375164D02*
X48700343Y4279926D01*
X48700343Y4279926D02*
X48747962Y4232307D01*
X48747962Y4232307D02*
X48843200Y4184688D01*
X48843200Y4184688D02*
X48986057Y4184688D01*
X48986057Y4184688D02*
X49081295Y4232307D01*
X49081295Y4232307D02*
X49128914Y4279926D01*
X49128914Y4279926D02*
X49176533Y4375164D01*
X49176533Y4375164D02*
X49176533Y4756116D01*
X48652724Y3565640D02*
X48652724Y3470402D01*
X48652724Y3470402D02*
X48700343Y3375164D01*
X48700343Y3375164D02*
X48747962Y3327545D01*
X48747962Y3327545D02*
X48843200Y3279926D01*
X48843200Y3279926D02*
X49033676Y3232307D01*
X49033676Y3232307D02*
X49271771Y3232307D01*
X49271771Y3232307D02*
X49462247Y3279926D01*
X49462247Y3279926D02*
X49557485Y3327545D01*
X49557485Y3327545D02*
X49605105Y3375164D01*
X49605105Y3375164D02*
X49652724Y3470402D01*
X49652724Y3470402D02*
X49652724Y3565640D01*
X49652724Y3565640D02*
X49605105Y3660878D01*
X49605105Y3660878D02*
X49557485Y3708497D01*
X49557485Y3708497D02*
X49462247Y3756116D01*
X49462247Y3756116D02*
X49271771Y3803735D01*
X49271771Y3803735D02*
X49033676Y3803735D01*
X49033676Y3803735D02*
X48843200Y3756116D01*
X48843200Y3756116D02*
X48747962Y3708497D01*
X48747962Y3708497D02*
X48700343Y3660878D01*
X48700343Y3660878D02*
X48652724Y3565640D01*
X48652724Y2898973D02*
X48652724Y2279926D01*
X48652724Y2279926D02*
X49033676Y2613259D01*
X49033676Y2613259D02*
X49033676Y2470402D01*
X49033676Y2470402D02*
X49081295Y2375164D01*
X49081295Y2375164D02*
X49128914Y2327545D01*
X49128914Y2327545D02*
X49224152Y2279926D01*
X49224152Y2279926D02*
X49462247Y2279926D01*
X49462247Y2279926D02*
X49557485Y2327545D01*
X49557485Y2327545D02*
X49605105Y2375164D01*
X49605105Y2375164D02*
X49652724Y2470402D01*
X49652724Y2470402D02*
X49652724Y2756116D01*
X49652724Y2756116D02*
X49605105Y2851354D01*
X49605105Y2851354D02*
X49557485Y2898973D01*
X51280343Y5262307D02*
X51232724Y5357545D01*
X51232724Y5357545D02*
X51232724Y5500402D01*
X51232724Y5500402D02*
X51280343Y5643259D01*
X51280343Y5643259D02*
X51375581Y5738497D01*
X51375581Y5738497D02*
X51470819Y5786116D01*
X51470819Y5786116D02*
X51661295Y5833735D01*
X51661295Y5833735D02*
X51804152Y5833735D01*
X51804152Y5833735D02*
X51994628Y5786116D01*
X51994628Y5786116D02*
X52089866Y5738497D01*
X52089866Y5738497D02*
X52185105Y5643259D01*
X52185105Y5643259D02*
X52232724Y5500402D01*
X52232724Y5500402D02*
X52232724Y5405164D01*
X52232724Y5405164D02*
X52185105Y5262307D01*
X52185105Y5262307D02*
X52137485Y5214688D01*
X52137485Y5214688D02*
X51804152Y5214688D01*
X51804152Y5214688D02*
X51804152Y5405164D01*
X52232724Y4786116D02*
X51232724Y4786116D01*
X51232724Y4786116D02*
X51232724Y4405164D01*
X51232724Y4405164D02*
X51280343Y4309926D01*
X51280343Y4309926D02*
X51327962Y4262307D01*
X51327962Y4262307D02*
X51423200Y4214688D01*
X51423200Y4214688D02*
X51566057Y4214688D01*
X51566057Y4214688D02*
X51661295Y4262307D01*
X51661295Y4262307D02*
X51708914Y4309926D01*
X51708914Y4309926D02*
X51756533Y4405164D01*
X51756533Y4405164D02*
X51756533Y4786116D01*
X51232724Y3595640D02*
X51232724Y3500402D01*
X51232724Y3500402D02*
X51280343Y3405164D01*
X51280343Y3405164D02*
X51327962Y3357545D01*
X51327962Y3357545D02*
X51423200Y3309926D01*
X51423200Y3309926D02*
X51613676Y3262307D01*
X51613676Y3262307D02*
X51851771Y3262307D01*
X51851771Y3262307D02*
X52042247Y3309926D01*
X52042247Y3309926D02*
X52137485Y3357545D01*
X52137485Y3357545D02*
X52185105Y3405164D01*
X52185105Y3405164D02*
X52232724Y3500402D01*
X52232724Y3500402D02*
X52232724Y3595640D01*
X52232724Y3595640D02*
X52185105Y3690878D01*
X52185105Y3690878D02*
X52137485Y3738497D01*
X52137485Y3738497D02*
X52042247Y3786116D01*
X52042247Y3786116D02*
X51851771Y3833735D01*
X51851771Y3833735D02*
X51613676Y3833735D01*
X51613676Y3833735D02*
X51423200Y3786116D01*
X51423200Y3786116D02*
X51327962Y3738497D01*
X51327962Y3738497D02*
X51280343Y3690878D01*
X51280343Y3690878D02*
X51232724Y3595640D01*
X51566057Y2405164D02*
X52232724Y2405164D01*
X51185105Y2643259D02*
X51899390Y2881354D01*
X51899390Y2881354D02*
X51899390Y2262307D01*
X51410343Y15052307D02*
X51362724Y15147545D01*
X51362724Y15147545D02*
X51362724Y15290402D01*
X51362724Y15290402D02*
X51410343Y15433259D01*
X51410343Y15433259D02*
X51505581Y15528497D01*
X51505581Y15528497D02*
X51600819Y15576116D01*
X51600819Y15576116D02*
X51791295Y15623735D01*
X51791295Y15623735D02*
X51934152Y15623735D01*
X51934152Y15623735D02*
X52124628Y15576116D01*
X52124628Y15576116D02*
X52219866Y15528497D01*
X52219866Y15528497D02*
X52315105Y15433259D01*
X52315105Y15433259D02*
X52362724Y15290402D01*
X52362724Y15290402D02*
X52362724Y15195164D01*
X52362724Y15195164D02*
X52315105Y15052307D01*
X52315105Y15052307D02*
X52267485Y15004688D01*
X52267485Y15004688D02*
X51934152Y15004688D01*
X51934152Y15004688D02*
X51934152Y15195164D01*
X52362724Y14576116D02*
X51362724Y14576116D01*
X51362724Y14576116D02*
X51362724Y14195164D01*
X51362724Y14195164D02*
X51410343Y14099926D01*
X51410343Y14099926D02*
X51457962Y14052307D01*
X51457962Y14052307D02*
X51553200Y14004688D01*
X51553200Y14004688D02*
X51696057Y14004688D01*
X51696057Y14004688D02*
X51791295Y14052307D01*
X51791295Y14052307D02*
X51838914Y14099926D01*
X51838914Y14099926D02*
X51886533Y14195164D01*
X51886533Y14195164D02*
X51886533Y14576116D01*
X52362724Y13052307D02*
X52362724Y13623735D01*
X52362724Y13338021D02*
X51362724Y13338021D01*
X51362724Y13338021D02*
X51505581Y13433259D01*
X51505581Y13433259D02*
X51600819Y13528497D01*
X51600819Y13528497D02*
X51648438Y13623735D01*
X51362724Y12718973D02*
X51362724Y12052307D01*
X51362724Y12052307D02*
X52362724Y12480878D01*
X53780343Y5262307D02*
X53732724Y5357545D01*
X53732724Y5357545D02*
X53732724Y5500402D01*
X53732724Y5500402D02*
X53780343Y5643259D01*
X53780343Y5643259D02*
X53875581Y5738497D01*
X53875581Y5738497D02*
X53970819Y5786116D01*
X53970819Y5786116D02*
X54161295Y5833735D01*
X54161295Y5833735D02*
X54304152Y5833735D01*
X54304152Y5833735D02*
X54494628Y5786116D01*
X54494628Y5786116D02*
X54589866Y5738497D01*
X54589866Y5738497D02*
X54685105Y5643259D01*
X54685105Y5643259D02*
X54732724Y5500402D01*
X54732724Y5500402D02*
X54732724Y5405164D01*
X54732724Y5405164D02*
X54685105Y5262307D01*
X54685105Y5262307D02*
X54637485Y5214688D01*
X54637485Y5214688D02*
X54304152Y5214688D01*
X54304152Y5214688D02*
X54304152Y5405164D01*
X54732724Y4786116D02*
X53732724Y4786116D01*
X53732724Y4786116D02*
X53732724Y4405164D01*
X53732724Y4405164D02*
X53780343Y4309926D01*
X53780343Y4309926D02*
X53827962Y4262307D01*
X53827962Y4262307D02*
X53923200Y4214688D01*
X53923200Y4214688D02*
X54066057Y4214688D01*
X54066057Y4214688D02*
X54161295Y4262307D01*
X54161295Y4262307D02*
X54208914Y4309926D01*
X54208914Y4309926D02*
X54256533Y4405164D01*
X54256533Y4405164D02*
X54256533Y4786116D01*
X54732724Y3738497D02*
X54732724Y3548021D01*
X54732724Y3548021D02*
X54685105Y3452783D01*
X54685105Y3452783D02*
X54637485Y3405164D01*
X54637485Y3405164D02*
X54494628Y3309926D01*
X54494628Y3309926D02*
X54304152Y3262307D01*
X54304152Y3262307D02*
X53923200Y3262307D01*
X53923200Y3262307D02*
X53827962Y3309926D01*
X53827962Y3309926D02*
X53780343Y3357545D01*
X53780343Y3357545D02*
X53732724Y3452783D01*
X53732724Y3452783D02*
X53732724Y3643259D01*
X53732724Y3643259D02*
X53780343Y3738497D01*
X53780343Y3738497D02*
X53827962Y3786116D01*
X53827962Y3786116D02*
X53923200Y3833735D01*
X53923200Y3833735D02*
X54161295Y3833735D01*
X54161295Y3833735D02*
X54256533Y3786116D01*
X54256533Y3786116D02*
X54304152Y3738497D01*
X54304152Y3738497D02*
X54351771Y3643259D01*
X54351771Y3643259D02*
X54351771Y3452783D01*
X54351771Y3452783D02*
X54304152Y3357545D01*
X54304152Y3357545D02*
X54256533Y3309926D01*
X54256533Y3309926D02*
X54161295Y3262307D01*
X53840343Y15082307D02*
X53792724Y15177545D01*
X53792724Y15177545D02*
X53792724Y15320402D01*
X53792724Y15320402D02*
X53840343Y15463259D01*
X53840343Y15463259D02*
X53935581Y15558497D01*
X53935581Y15558497D02*
X54030819Y15606116D01*
X54030819Y15606116D02*
X54221295Y15653735D01*
X54221295Y15653735D02*
X54364152Y15653735D01*
X54364152Y15653735D02*
X54554628Y15606116D01*
X54554628Y15606116D02*
X54649866Y15558497D01*
X54649866Y15558497D02*
X54745105Y15463259D01*
X54745105Y15463259D02*
X54792724Y15320402D01*
X54792724Y15320402D02*
X54792724Y15225164D01*
X54792724Y15225164D02*
X54745105Y15082307D01*
X54745105Y15082307D02*
X54697485Y15034688D01*
X54697485Y15034688D02*
X54364152Y15034688D01*
X54364152Y15034688D02*
X54364152Y15225164D01*
X54792724Y14606116D02*
X53792724Y14606116D01*
X53792724Y14606116D02*
X53792724Y14225164D01*
X53792724Y14225164D02*
X53840343Y14129926D01*
X53840343Y14129926D02*
X53887962Y14082307D01*
X53887962Y14082307D02*
X53983200Y14034688D01*
X53983200Y14034688D02*
X54126057Y14034688D01*
X54126057Y14034688D02*
X54221295Y14082307D01*
X54221295Y14082307D02*
X54268914Y14129926D01*
X54268914Y14129926D02*
X54316533Y14225164D01*
X54316533Y14225164D02*
X54316533Y14606116D01*
X53887962Y13653735D02*
X53840343Y13606116D01*
X53840343Y13606116D02*
X53792724Y13510878D01*
X53792724Y13510878D02*
X53792724Y13272783D01*
X53792724Y13272783D02*
X53840343Y13177545D01*
X53840343Y13177545D02*
X53887962Y13129926D01*
X53887962Y13129926D02*
X53983200Y13082307D01*
X53983200Y13082307D02*
X54078438Y13082307D01*
X54078438Y13082307D02*
X54221295Y13129926D01*
X54221295Y13129926D02*
X54792724Y13701354D01*
X54792724Y13701354D02*
X54792724Y13082307D01*
X53792724Y12748973D02*
X53792724Y12082307D01*
X53792724Y12082307D02*
X54792724Y12510878D01*
X56260343Y15012307D02*
X56212724Y15107545D01*
X56212724Y15107545D02*
X56212724Y15250402D01*
X56212724Y15250402D02*
X56260343Y15393259D01*
X56260343Y15393259D02*
X56355581Y15488497D01*
X56355581Y15488497D02*
X56450819Y15536116D01*
X56450819Y15536116D02*
X56641295Y15583735D01*
X56641295Y15583735D02*
X56784152Y15583735D01*
X56784152Y15583735D02*
X56974628Y15536116D01*
X56974628Y15536116D02*
X57069866Y15488497D01*
X57069866Y15488497D02*
X57165105Y15393259D01*
X57165105Y15393259D02*
X57212724Y15250402D01*
X57212724Y15250402D02*
X57212724Y15155164D01*
X57212724Y15155164D02*
X57165105Y15012307D01*
X57165105Y15012307D02*
X57117485Y14964688D01*
X57117485Y14964688D02*
X56784152Y14964688D01*
X56784152Y14964688D02*
X56784152Y15155164D01*
X57212724Y14536116D02*
X56212724Y14536116D01*
X56212724Y14536116D02*
X56212724Y14155164D01*
X56212724Y14155164D02*
X56260343Y14059926D01*
X56260343Y14059926D02*
X56307962Y14012307D01*
X56307962Y14012307D02*
X56403200Y13964688D01*
X56403200Y13964688D02*
X56546057Y13964688D01*
X56546057Y13964688D02*
X56641295Y14012307D01*
X56641295Y14012307D02*
X56688914Y14059926D01*
X56688914Y14059926D02*
X56736533Y14155164D01*
X56736533Y14155164D02*
X56736533Y14536116D01*
X56212724Y13345640D02*
X56212724Y13250402D01*
X56212724Y13250402D02*
X56260343Y13155164D01*
X56260343Y13155164D02*
X56307962Y13107545D01*
X56307962Y13107545D02*
X56403200Y13059926D01*
X56403200Y13059926D02*
X56593676Y13012307D01*
X56593676Y13012307D02*
X56831771Y13012307D01*
X56831771Y13012307D02*
X57022247Y13059926D01*
X57022247Y13059926D02*
X57117485Y13107545D01*
X57117485Y13107545D02*
X57165105Y13155164D01*
X57165105Y13155164D02*
X57212724Y13250402D01*
X57212724Y13250402D02*
X57212724Y13345640D01*
X57212724Y13345640D02*
X57165105Y13440878D01*
X57165105Y13440878D02*
X57117485Y13488497D01*
X57117485Y13488497D02*
X57022247Y13536116D01*
X57022247Y13536116D02*
X56831771Y13583735D01*
X56831771Y13583735D02*
X56593676Y13583735D01*
X56593676Y13583735D02*
X56403200Y13536116D01*
X56403200Y13536116D02*
X56307962Y13488497D01*
X56307962Y13488497D02*
X56260343Y13440878D01*
X56260343Y13440878D02*
X56212724Y13345640D01*
X56212724Y12107545D02*
X56212724Y12583735D01*
X56212724Y12583735D02*
X56688914Y12631354D01*
X56688914Y12631354D02*
X56641295Y12583735D01*
X56641295Y12583735D02*
X56593676Y12488497D01*
X56593676Y12488497D02*
X56593676Y12250402D01*
X56593676Y12250402D02*
X56641295Y12155164D01*
X56641295Y12155164D02*
X56688914Y12107545D01*
X56688914Y12107545D02*
X56784152Y12059926D01*
X56784152Y12059926D02*
X57022247Y12059926D01*
X57022247Y12059926D02*
X57117485Y12107545D01*
X57117485Y12107545D02*
X57165105Y12155164D01*
X57165105Y12155164D02*
X57212724Y12250402D01*
X57212724Y12250402D02*
X57212724Y12488497D01*
X57212724Y12488497D02*
X57165105Y12583735D01*
X57165105Y12583735D02*
X57117485Y12631354D01*
X56340343Y5242307D02*
X56292724Y5337545D01*
X56292724Y5337545D02*
X56292724Y5480402D01*
X56292724Y5480402D02*
X56340343Y5623259D01*
X56340343Y5623259D02*
X56435581Y5718497D01*
X56435581Y5718497D02*
X56530819Y5766116D01*
X56530819Y5766116D02*
X56721295Y5813735D01*
X56721295Y5813735D02*
X56864152Y5813735D01*
X56864152Y5813735D02*
X57054628Y5766116D01*
X57054628Y5766116D02*
X57149866Y5718497D01*
X57149866Y5718497D02*
X57245105Y5623259D01*
X57245105Y5623259D02*
X57292724Y5480402D01*
X57292724Y5480402D02*
X57292724Y5385164D01*
X57292724Y5385164D02*
X57245105Y5242307D01*
X57245105Y5242307D02*
X57197485Y5194688D01*
X57197485Y5194688D02*
X56864152Y5194688D01*
X56864152Y5194688D02*
X56864152Y5385164D01*
X57292724Y4766116D02*
X56292724Y4766116D01*
X56292724Y4766116D02*
X56292724Y4385164D01*
X56292724Y4385164D02*
X56340343Y4289926D01*
X56340343Y4289926D02*
X56387962Y4242307D01*
X56387962Y4242307D02*
X56483200Y4194688D01*
X56483200Y4194688D02*
X56626057Y4194688D01*
X56626057Y4194688D02*
X56721295Y4242307D01*
X56721295Y4242307D02*
X56768914Y4289926D01*
X56768914Y4289926D02*
X56816533Y4385164D01*
X56816533Y4385164D02*
X56816533Y4766116D01*
X57292724Y3242307D02*
X57292724Y3813735D01*
X57292724Y3528021D02*
X56292724Y3528021D01*
X56292724Y3528021D02*
X56435581Y3623259D01*
X56435581Y3623259D02*
X56530819Y3718497D01*
X56530819Y3718497D02*
X56578438Y3813735D01*
X57292724Y2289926D02*
X57292724Y2861354D01*
X57292724Y2575640D02*
X56292724Y2575640D01*
X56292724Y2575640D02*
X56435581Y2670878D01*
X56435581Y2670878D02*
X56530819Y2766116D01*
X56530819Y2766116D02*
X56578438Y2861354D01*
X58840343Y15012307D02*
X58792724Y15107545D01*
X58792724Y15107545D02*
X58792724Y15250402D01*
X58792724Y15250402D02*
X58840343Y15393259D01*
X58840343Y15393259D02*
X58935581Y15488497D01*
X58935581Y15488497D02*
X59030819Y15536116D01*
X59030819Y15536116D02*
X59221295Y15583735D01*
X59221295Y15583735D02*
X59364152Y15583735D01*
X59364152Y15583735D02*
X59554628Y15536116D01*
X59554628Y15536116D02*
X59649866Y15488497D01*
X59649866Y15488497D02*
X59745105Y15393259D01*
X59745105Y15393259D02*
X59792724Y15250402D01*
X59792724Y15250402D02*
X59792724Y15155164D01*
X59792724Y15155164D02*
X59745105Y15012307D01*
X59745105Y15012307D02*
X59697485Y14964688D01*
X59697485Y14964688D02*
X59364152Y14964688D01*
X59364152Y14964688D02*
X59364152Y15155164D01*
X59792724Y14536116D02*
X58792724Y14536116D01*
X58792724Y14536116D02*
X58792724Y14155164D01*
X58792724Y14155164D02*
X58840343Y14059926D01*
X58840343Y14059926D02*
X58887962Y14012307D01*
X58887962Y14012307D02*
X58983200Y13964688D01*
X58983200Y13964688D02*
X59126057Y13964688D01*
X59126057Y13964688D02*
X59221295Y14012307D01*
X59221295Y14012307D02*
X59268914Y14059926D01*
X59268914Y14059926D02*
X59316533Y14155164D01*
X59316533Y14155164D02*
X59316533Y14536116D01*
X58887962Y13583735D02*
X58840343Y13536116D01*
X58840343Y13536116D02*
X58792724Y13440878D01*
X58792724Y13440878D02*
X58792724Y13202783D01*
X58792724Y13202783D02*
X58840343Y13107545D01*
X58840343Y13107545D02*
X58887962Y13059926D01*
X58887962Y13059926D02*
X58983200Y13012307D01*
X58983200Y13012307D02*
X59078438Y13012307D01*
X59078438Y13012307D02*
X59221295Y13059926D01*
X59221295Y13059926D02*
X59792724Y13631354D01*
X59792724Y13631354D02*
X59792724Y13012307D01*
X58792724Y12678973D02*
X58792724Y12059926D01*
X58792724Y12059926D02*
X59173676Y12393259D01*
X59173676Y12393259D02*
X59173676Y12250402D01*
X59173676Y12250402D02*
X59221295Y12155164D01*
X59221295Y12155164D02*
X59268914Y12107545D01*
X59268914Y12107545D02*
X59364152Y12059926D01*
X59364152Y12059926D02*
X59602247Y12059926D01*
X59602247Y12059926D02*
X59697485Y12107545D01*
X59697485Y12107545D02*
X59745105Y12155164D01*
X59745105Y12155164D02*
X59792724Y12250402D01*
X59792724Y12250402D02*
X59792724Y12536116D01*
X59792724Y12536116D02*
X59745105Y12631354D01*
X59745105Y12631354D02*
X59697485Y12678973D01*
X58870343Y5242307D02*
X58822724Y5337545D01*
X58822724Y5337545D02*
X58822724Y5480402D01*
X58822724Y5480402D02*
X58870343Y5623259D01*
X58870343Y5623259D02*
X58965581Y5718497D01*
X58965581Y5718497D02*
X59060819Y5766116D01*
X59060819Y5766116D02*
X59251295Y5813735D01*
X59251295Y5813735D02*
X59394152Y5813735D01*
X59394152Y5813735D02*
X59584628Y5766116D01*
X59584628Y5766116D02*
X59679866Y5718497D01*
X59679866Y5718497D02*
X59775105Y5623259D01*
X59775105Y5623259D02*
X59822724Y5480402D01*
X59822724Y5480402D02*
X59822724Y5385164D01*
X59822724Y5385164D02*
X59775105Y5242307D01*
X59775105Y5242307D02*
X59727485Y5194688D01*
X59727485Y5194688D02*
X59394152Y5194688D01*
X59394152Y5194688D02*
X59394152Y5385164D01*
X59822724Y4766116D02*
X58822724Y4766116D01*
X58822724Y4766116D02*
X58822724Y4385164D01*
X58822724Y4385164D02*
X58870343Y4289926D01*
X58870343Y4289926D02*
X58917962Y4242307D01*
X58917962Y4242307D02*
X59013200Y4194688D01*
X59013200Y4194688D02*
X59156057Y4194688D01*
X59156057Y4194688D02*
X59251295Y4242307D01*
X59251295Y4242307D02*
X59298914Y4289926D01*
X59298914Y4289926D02*
X59346533Y4385164D01*
X59346533Y4385164D02*
X59346533Y4766116D01*
X59822724Y3242307D02*
X59822724Y3813735D01*
X59822724Y3528021D02*
X58822724Y3528021D01*
X58822724Y3528021D02*
X58965581Y3623259D01*
X58965581Y3623259D02*
X59060819Y3718497D01*
X59060819Y3718497D02*
X59108438Y3813735D01*
X59251295Y2670878D02*
X59203676Y2766116D01*
X59203676Y2766116D02*
X59156057Y2813735D01*
X59156057Y2813735D02*
X59060819Y2861354D01*
X59060819Y2861354D02*
X59013200Y2861354D01*
X59013200Y2861354D02*
X58917962Y2813735D01*
X58917962Y2813735D02*
X58870343Y2766116D01*
X58870343Y2766116D02*
X58822724Y2670878D01*
X58822724Y2670878D02*
X58822724Y2480402D01*
X58822724Y2480402D02*
X58870343Y2385164D01*
X58870343Y2385164D02*
X58917962Y2337545D01*
X58917962Y2337545D02*
X59013200Y2289926D01*
X59013200Y2289926D02*
X59060819Y2289926D01*
X59060819Y2289926D02*
X59156057Y2337545D01*
X59156057Y2337545D02*
X59203676Y2385164D01*
X59203676Y2385164D02*
X59251295Y2480402D01*
X59251295Y2480402D02*
X59251295Y2670878D01*
X59251295Y2670878D02*
X59298914Y2766116D01*
X59298914Y2766116D02*
X59346533Y2813735D01*
X59346533Y2813735D02*
X59441771Y2861354D01*
X59441771Y2861354D02*
X59632247Y2861354D01*
X59632247Y2861354D02*
X59727485Y2813735D01*
X59727485Y2813735D02*
X59775105Y2766116D01*
X59775105Y2766116D02*
X59822724Y2670878D01*
X59822724Y2670878D02*
X59822724Y2480402D01*
X59822724Y2480402D02*
X59775105Y2385164D01*
X59775105Y2385164D02*
X59727485Y2337545D01*
X59727485Y2337545D02*
X59632247Y2289926D01*
X59632247Y2289926D02*
X59441771Y2289926D01*
X59441771Y2289926D02*
X59346533Y2337545D01*
X59346533Y2337545D02*
X59298914Y2385164D01*
X59298914Y2385164D02*
X59251295Y2480402D01*
X61400343Y14132307D02*
X61352724Y14227545D01*
X61352724Y14227545D02*
X61352724Y14370402D01*
X61352724Y14370402D02*
X61400343Y14513259D01*
X61400343Y14513259D02*
X61495581Y14608497D01*
X61495581Y14608497D02*
X61590819Y14656116D01*
X61590819Y14656116D02*
X61781295Y14703735D01*
X61781295Y14703735D02*
X61924152Y14703735D01*
X61924152Y14703735D02*
X62114628Y14656116D01*
X62114628Y14656116D02*
X62209866Y14608497D01*
X62209866Y14608497D02*
X62305105Y14513259D01*
X62305105Y14513259D02*
X62352724Y14370402D01*
X62352724Y14370402D02*
X62352724Y14275164D01*
X62352724Y14275164D02*
X62305105Y14132307D01*
X62305105Y14132307D02*
X62257485Y14084688D01*
X62257485Y14084688D02*
X61924152Y14084688D01*
X61924152Y14084688D02*
X61924152Y14275164D01*
X62352724Y13656116D02*
X61352724Y13656116D01*
X61352724Y13656116D02*
X62352724Y13084688D01*
X62352724Y13084688D02*
X61352724Y13084688D01*
X62352724Y12608497D02*
X61352724Y12608497D01*
X61352724Y12608497D02*
X61352724Y12370402D01*
X61352724Y12370402D02*
X61400343Y12227545D01*
X61400343Y12227545D02*
X61495581Y12132307D01*
X61495581Y12132307D02*
X61590819Y12084688D01*
X61590819Y12084688D02*
X61781295Y12037069D01*
X61781295Y12037069D02*
X61924152Y12037069D01*
X61924152Y12037069D02*
X62114628Y12084688D01*
X62114628Y12084688D02*
X62209866Y12132307D01*
X62209866Y12132307D02*
X62305105Y12227545D01*
X62305105Y12227545D02*
X62352724Y12370402D01*
X62352724Y12370402D02*
X62352724Y12608497D01*
X61440343Y5242307D02*
X61392724Y5337545D01*
X61392724Y5337545D02*
X61392724Y5480402D01*
X61392724Y5480402D02*
X61440343Y5623259D01*
X61440343Y5623259D02*
X61535581Y5718497D01*
X61535581Y5718497D02*
X61630819Y5766116D01*
X61630819Y5766116D02*
X61821295Y5813735D01*
X61821295Y5813735D02*
X61964152Y5813735D01*
X61964152Y5813735D02*
X62154628Y5766116D01*
X62154628Y5766116D02*
X62249866Y5718497D01*
X62249866Y5718497D02*
X62345105Y5623259D01*
X62345105Y5623259D02*
X62392724Y5480402D01*
X62392724Y5480402D02*
X62392724Y5385164D01*
X62392724Y5385164D02*
X62345105Y5242307D01*
X62345105Y5242307D02*
X62297485Y5194688D01*
X62297485Y5194688D02*
X61964152Y5194688D01*
X61964152Y5194688D02*
X61964152Y5385164D01*
X62392724Y4766116D02*
X61392724Y4766116D01*
X61392724Y4766116D02*
X61392724Y4385164D01*
X61392724Y4385164D02*
X61440343Y4289926D01*
X61440343Y4289926D02*
X61487962Y4242307D01*
X61487962Y4242307D02*
X61583200Y4194688D01*
X61583200Y4194688D02*
X61726057Y4194688D01*
X61726057Y4194688D02*
X61821295Y4242307D01*
X61821295Y4242307D02*
X61868914Y4289926D01*
X61868914Y4289926D02*
X61916533Y4385164D01*
X61916533Y4385164D02*
X61916533Y4766116D01*
X62392724Y3242307D02*
X62392724Y3813735D01*
X62392724Y3528021D02*
X61392724Y3528021D01*
X61392724Y3528021D02*
X61535581Y3623259D01*
X61535581Y3623259D02*
X61630819Y3718497D01*
X61630819Y3718497D02*
X61678438Y3813735D01*
X62392724Y2766116D02*
X62392724Y2575640D01*
X62392724Y2575640D02*
X62345105Y2480402D01*
X62345105Y2480402D02*
X62297485Y2432783D01*
X62297485Y2432783D02*
X62154628Y2337545D01*
X62154628Y2337545D02*
X61964152Y2289926D01*
X61964152Y2289926D02*
X61583200Y2289926D01*
X61583200Y2289926D02*
X61487962Y2337545D01*
X61487962Y2337545D02*
X61440343Y2385164D01*
X61440343Y2385164D02*
X61392724Y2480402D01*
X61392724Y2480402D02*
X61392724Y2670878D01*
X61392724Y2670878D02*
X61440343Y2766116D01*
X61440343Y2766116D02*
X61487962Y2813735D01*
X61487962Y2813735D02*
X61583200Y2861354D01*
X61583200Y2861354D02*
X61821295Y2861354D01*
X61821295Y2861354D02*
X61916533Y2813735D01*
X61916533Y2813735D02*
X61964152Y2766116D01*
X61964152Y2766116D02*
X62011771Y2670878D01*
X62011771Y2670878D02*
X62011771Y2480402D01*
X62011771Y2480402D02*
X61964152Y2385164D01*
X61964152Y2385164D02*
X61916533Y2337545D01*
X61916533Y2337545D02*
X61821295Y2289926D01*
X66700343Y16462307D02*
X66652724Y16557545D01*
X66652724Y16557545D02*
X66652724Y16700402D01*
X66652724Y16700402D02*
X66700343Y16843259D01*
X66700343Y16843259D02*
X66795581Y16938497D01*
X66795581Y16938497D02*
X66890819Y16986116D01*
X66890819Y16986116D02*
X67081295Y17033735D01*
X67081295Y17033735D02*
X67224152Y17033735D01*
X67224152Y17033735D02*
X67414628Y16986116D01*
X67414628Y16986116D02*
X67509866Y16938497D01*
X67509866Y16938497D02*
X67605105Y16843259D01*
X67605105Y16843259D02*
X67652724Y16700402D01*
X67652724Y16700402D02*
X67652724Y16605164D01*
X67652724Y16605164D02*
X67605105Y16462307D01*
X67605105Y16462307D02*
X67557485Y16414688D01*
X67557485Y16414688D02*
X67224152Y16414688D01*
X67224152Y16414688D02*
X67224152Y16605164D01*
X67652724Y15986116D02*
X66652724Y15986116D01*
X66652724Y15986116D02*
X66652724Y15605164D01*
X66652724Y15605164D02*
X66700343Y15509926D01*
X66700343Y15509926D02*
X66747962Y15462307D01*
X66747962Y15462307D02*
X66843200Y15414688D01*
X66843200Y15414688D02*
X66986057Y15414688D01*
X66986057Y15414688D02*
X67081295Y15462307D01*
X67081295Y15462307D02*
X67128914Y15509926D01*
X67128914Y15509926D02*
X67176533Y15605164D01*
X67176533Y15605164D02*
X67176533Y15986116D01*
X66652724Y14795640D02*
X66652724Y14700402D01*
X66652724Y14700402D02*
X66700343Y14605164D01*
X66700343Y14605164D02*
X66747962Y14557545D01*
X66747962Y14557545D02*
X66843200Y14509926D01*
X66843200Y14509926D02*
X67033676Y14462307D01*
X67033676Y14462307D02*
X67271771Y14462307D01*
X67271771Y14462307D02*
X67462247Y14509926D01*
X67462247Y14509926D02*
X67557485Y14557545D01*
X67557485Y14557545D02*
X67605105Y14605164D01*
X67605105Y14605164D02*
X67652724Y14700402D01*
X67652724Y14700402D02*
X67652724Y14795640D01*
X67652724Y14795640D02*
X67605105Y14890878D01*
X67605105Y14890878D02*
X67557485Y14938497D01*
X67557485Y14938497D02*
X67462247Y14986116D01*
X67462247Y14986116D02*
X67271771Y15033735D01*
X67271771Y15033735D02*
X67033676Y15033735D01*
X67033676Y15033735D02*
X66843200Y14986116D01*
X66843200Y14986116D02*
X66747962Y14938497D01*
X66747962Y14938497D02*
X66700343Y14890878D01*
X66700343Y14890878D02*
X66652724Y14795640D01*
X67557485Y14033735D02*
X67605105Y13986116D01*
X67605105Y13986116D02*
X67652724Y14033735D01*
X67652724Y14033735D02*
X67605105Y14081354D01*
X67605105Y14081354D02*
X67557485Y14033735D01*
X67557485Y14033735D02*
X67652724Y14033735D01*
X66652724Y13367069D02*
X66652724Y13271831D01*
X66652724Y13271831D02*
X66700343Y13176593D01*
X66700343Y13176593D02*
X66747962Y13128974D01*
X66747962Y13128974D02*
X66843200Y13081355D01*
X66843200Y13081355D02*
X67033676Y13033736D01*
X67033676Y13033736D02*
X67271771Y13033736D01*
X67271771Y13033736D02*
X67462247Y13081355D01*
X67462247Y13081355D02*
X67557485Y13128974D01*
X67557485Y13128974D02*
X67605105Y13176593D01*
X67605105Y13176593D02*
X67652724Y13271831D01*
X67652724Y13271831D02*
X67652724Y13367069D01*
X67652724Y13367069D02*
X67605105Y13462307D01*
X67605105Y13462307D02*
X67557485Y13509926D01*
X67557485Y13509926D02*
X67462247Y13557545D01*
X67462247Y13557545D02*
X67271771Y13605164D01*
X67271771Y13605164D02*
X67033676Y13605164D01*
X67033676Y13605164D02*
X66843200Y13557545D01*
X66843200Y13557545D02*
X66747962Y13509926D01*
X66747962Y13509926D02*
X66700343Y13462307D01*
X66700343Y13462307D02*
X66652724Y13367069D01*
X66986057Y12176593D02*
X67652724Y12176593D01*
X66605105Y12414688D02*
X67319390Y12652783D01*
X67319390Y12652783D02*
X67319390Y12033736D01*
X66770343Y5232307D02*
X66722724Y5327545D01*
X66722724Y5327545D02*
X66722724Y5470402D01*
X66722724Y5470402D02*
X66770343Y5613259D01*
X66770343Y5613259D02*
X66865581Y5708497D01*
X66865581Y5708497D02*
X66960819Y5756116D01*
X66960819Y5756116D02*
X67151295Y5803735D01*
X67151295Y5803735D02*
X67294152Y5803735D01*
X67294152Y5803735D02*
X67484628Y5756116D01*
X67484628Y5756116D02*
X67579866Y5708497D01*
X67579866Y5708497D02*
X67675105Y5613259D01*
X67675105Y5613259D02*
X67722724Y5470402D01*
X67722724Y5470402D02*
X67722724Y5375164D01*
X67722724Y5375164D02*
X67675105Y5232307D01*
X67675105Y5232307D02*
X67627485Y5184688D01*
X67627485Y5184688D02*
X67294152Y5184688D01*
X67294152Y5184688D02*
X67294152Y5375164D01*
X67722724Y4756116D02*
X66722724Y4756116D01*
X66722724Y4756116D02*
X66722724Y4375164D01*
X66722724Y4375164D02*
X66770343Y4279926D01*
X66770343Y4279926D02*
X66817962Y4232307D01*
X66817962Y4232307D02*
X66913200Y4184688D01*
X66913200Y4184688D02*
X67056057Y4184688D01*
X67056057Y4184688D02*
X67151295Y4232307D01*
X67151295Y4232307D02*
X67198914Y4279926D01*
X67198914Y4279926D02*
X67246533Y4375164D01*
X67246533Y4375164D02*
X67246533Y4756116D01*
X66722724Y3565640D02*
X66722724Y3470402D01*
X66722724Y3470402D02*
X66770343Y3375164D01*
X66770343Y3375164D02*
X66817962Y3327545D01*
X66817962Y3327545D02*
X66913200Y3279926D01*
X66913200Y3279926D02*
X67103676Y3232307D01*
X67103676Y3232307D02*
X67341771Y3232307D01*
X67341771Y3232307D02*
X67532247Y3279926D01*
X67532247Y3279926D02*
X67627485Y3327545D01*
X67627485Y3327545D02*
X67675105Y3375164D01*
X67675105Y3375164D02*
X67722724Y3470402D01*
X67722724Y3470402D02*
X67722724Y3565640D01*
X67722724Y3565640D02*
X67675105Y3660878D01*
X67675105Y3660878D02*
X67627485Y3708497D01*
X67627485Y3708497D02*
X67532247Y3756116D01*
X67532247Y3756116D02*
X67341771Y3803735D01*
X67341771Y3803735D02*
X67103676Y3803735D01*
X67103676Y3803735D02*
X66913200Y3756116D01*
X66913200Y3756116D02*
X66817962Y3708497D01*
X66817962Y3708497D02*
X66770343Y3660878D01*
X66770343Y3660878D02*
X66722724Y3565640D01*
X67627485Y2803735D02*
X67675105Y2756116D01*
X67675105Y2756116D02*
X67722724Y2803735D01*
X67722724Y2803735D02*
X67675105Y2851354D01*
X67675105Y2851354D02*
X67627485Y2803735D01*
X67627485Y2803735D02*
X67722724Y2803735D01*
X66817962Y2375164D02*
X66770343Y2327545D01*
X66770343Y2327545D02*
X66722724Y2232307D01*
X66722724Y2232307D02*
X66722724Y1994212D01*
X66722724Y1994212D02*
X66770343Y1898974D01*
X66770343Y1898974D02*
X66817962Y1851355D01*
X66817962Y1851355D02*
X66913200Y1803736D01*
X66913200Y1803736D02*
X67008438Y1803736D01*
X67008438Y1803736D02*
X67151295Y1851355D01*
X67151295Y1851355D02*
X67722724Y2422783D01*
X67722724Y2422783D02*
X67722724Y1803736D01*
X66722724Y946593D02*
X66722724Y1137069D01*
X66722724Y1137069D02*
X66770343Y1232307D01*
X66770343Y1232307D02*
X66817962Y1279926D01*
X66817962Y1279926D02*
X66960819Y1375164D01*
X66960819Y1375164D02*
X67151295Y1422783D01*
X67151295Y1422783D02*
X67532247Y1422783D01*
X67532247Y1422783D02*
X67627485Y1375164D01*
X67627485Y1375164D02*
X67675105Y1327545D01*
X67675105Y1327545D02*
X67722724Y1232307D01*
X67722724Y1232307D02*
X67722724Y1041831D01*
X67722724Y1041831D02*
X67675105Y946593D01*
X67675105Y946593D02*
X67627485Y898974D01*
X67627485Y898974D02*
X67532247Y851355D01*
X67532247Y851355D02*
X67294152Y851355D01*
X67294152Y851355D02*
X67198914Y898974D01*
X67198914Y898974D02*
X67151295Y946593D01*
X67151295Y946593D02*
X67103676Y1041831D01*
X67103676Y1041831D02*
X67103676Y1232307D01*
X67103676Y1232307D02*
X67151295Y1327545D01*
X67151295Y1327545D02*
X67198914Y1375164D01*
X67198914Y1375164D02*
X67294152Y1422783D01*
X69250343Y16442307D02*
X69202724Y16537545D01*
X69202724Y16537545D02*
X69202724Y16680402D01*
X69202724Y16680402D02*
X69250343Y16823259D01*
X69250343Y16823259D02*
X69345581Y16918497D01*
X69345581Y16918497D02*
X69440819Y16966116D01*
X69440819Y16966116D02*
X69631295Y17013735D01*
X69631295Y17013735D02*
X69774152Y17013735D01*
X69774152Y17013735D02*
X69964628Y16966116D01*
X69964628Y16966116D02*
X70059866Y16918497D01*
X70059866Y16918497D02*
X70155105Y16823259D01*
X70155105Y16823259D02*
X70202724Y16680402D01*
X70202724Y16680402D02*
X70202724Y16585164D01*
X70202724Y16585164D02*
X70155105Y16442307D01*
X70155105Y16442307D02*
X70107485Y16394688D01*
X70107485Y16394688D02*
X69774152Y16394688D01*
X69774152Y16394688D02*
X69774152Y16585164D01*
X70202724Y15966116D02*
X69202724Y15966116D01*
X69202724Y15966116D02*
X69202724Y15585164D01*
X69202724Y15585164D02*
X69250343Y15489926D01*
X69250343Y15489926D02*
X69297962Y15442307D01*
X69297962Y15442307D02*
X69393200Y15394688D01*
X69393200Y15394688D02*
X69536057Y15394688D01*
X69536057Y15394688D02*
X69631295Y15442307D01*
X69631295Y15442307D02*
X69678914Y15489926D01*
X69678914Y15489926D02*
X69726533Y15585164D01*
X69726533Y15585164D02*
X69726533Y15966116D01*
X69202724Y14775640D02*
X69202724Y14680402D01*
X69202724Y14680402D02*
X69250343Y14585164D01*
X69250343Y14585164D02*
X69297962Y14537545D01*
X69297962Y14537545D02*
X69393200Y14489926D01*
X69393200Y14489926D02*
X69583676Y14442307D01*
X69583676Y14442307D02*
X69821771Y14442307D01*
X69821771Y14442307D02*
X70012247Y14489926D01*
X70012247Y14489926D02*
X70107485Y14537545D01*
X70107485Y14537545D02*
X70155105Y14585164D01*
X70155105Y14585164D02*
X70202724Y14680402D01*
X70202724Y14680402D02*
X70202724Y14775640D01*
X70202724Y14775640D02*
X70155105Y14870878D01*
X70155105Y14870878D02*
X70107485Y14918497D01*
X70107485Y14918497D02*
X70012247Y14966116D01*
X70012247Y14966116D02*
X69821771Y15013735D01*
X69821771Y15013735D02*
X69583676Y15013735D01*
X69583676Y15013735D02*
X69393200Y14966116D01*
X69393200Y14966116D02*
X69297962Y14918497D01*
X69297962Y14918497D02*
X69250343Y14870878D01*
X69250343Y14870878D02*
X69202724Y14775640D01*
X70107485Y14013735D02*
X70155105Y13966116D01*
X70155105Y13966116D02*
X70202724Y14013735D01*
X70202724Y14013735D02*
X70155105Y14061354D01*
X70155105Y14061354D02*
X70107485Y14013735D01*
X70107485Y14013735D02*
X70202724Y14013735D01*
X69202724Y13347069D02*
X69202724Y13251831D01*
X69202724Y13251831D02*
X69250343Y13156593D01*
X69250343Y13156593D02*
X69297962Y13108974D01*
X69297962Y13108974D02*
X69393200Y13061355D01*
X69393200Y13061355D02*
X69583676Y13013736D01*
X69583676Y13013736D02*
X69821771Y13013736D01*
X69821771Y13013736D02*
X70012247Y13061355D01*
X70012247Y13061355D02*
X70107485Y13108974D01*
X70107485Y13108974D02*
X70155105Y13156593D01*
X70155105Y13156593D02*
X70202724Y13251831D01*
X70202724Y13251831D02*
X70202724Y13347069D01*
X70202724Y13347069D02*
X70155105Y13442307D01*
X70155105Y13442307D02*
X70107485Y13489926D01*
X70107485Y13489926D02*
X70012247Y13537545D01*
X70012247Y13537545D02*
X69821771Y13585164D01*
X69821771Y13585164D02*
X69583676Y13585164D01*
X69583676Y13585164D02*
X69393200Y13537545D01*
X69393200Y13537545D02*
X69297962Y13489926D01*
X69297962Y13489926D02*
X69250343Y13442307D01*
X69250343Y13442307D02*
X69202724Y13347069D01*
X69202724Y12156593D02*
X69202724Y12347069D01*
X69202724Y12347069D02*
X69250343Y12442307D01*
X69250343Y12442307D02*
X69297962Y12489926D01*
X69297962Y12489926D02*
X69440819Y12585164D01*
X69440819Y12585164D02*
X69631295Y12632783D01*
X69631295Y12632783D02*
X70012247Y12632783D01*
X70012247Y12632783D02*
X70107485Y12585164D01*
X70107485Y12585164D02*
X70155105Y12537545D01*
X70155105Y12537545D02*
X70202724Y12442307D01*
X70202724Y12442307D02*
X70202724Y12251831D01*
X70202724Y12251831D02*
X70155105Y12156593D01*
X70155105Y12156593D02*
X70107485Y12108974D01*
X70107485Y12108974D02*
X70012247Y12061355D01*
X70012247Y12061355D02*
X69774152Y12061355D01*
X69774152Y12061355D02*
X69678914Y12108974D01*
X69678914Y12108974D02*
X69631295Y12156593D01*
X69631295Y12156593D02*
X69583676Y12251831D01*
X69583676Y12251831D02*
X69583676Y12442307D01*
X69583676Y12442307D02*
X69631295Y12537545D01*
X69631295Y12537545D02*
X69678914Y12585164D01*
X69678914Y12585164D02*
X69774152Y12632783D01*
X69270343Y5232307D02*
X69222724Y5327545D01*
X69222724Y5327545D02*
X69222724Y5470402D01*
X69222724Y5470402D02*
X69270343Y5613259D01*
X69270343Y5613259D02*
X69365581Y5708497D01*
X69365581Y5708497D02*
X69460819Y5756116D01*
X69460819Y5756116D02*
X69651295Y5803735D01*
X69651295Y5803735D02*
X69794152Y5803735D01*
X69794152Y5803735D02*
X69984628Y5756116D01*
X69984628Y5756116D02*
X70079866Y5708497D01*
X70079866Y5708497D02*
X70175105Y5613259D01*
X70175105Y5613259D02*
X70222724Y5470402D01*
X70222724Y5470402D02*
X70222724Y5375164D01*
X70222724Y5375164D02*
X70175105Y5232307D01*
X70175105Y5232307D02*
X70127485Y5184688D01*
X70127485Y5184688D02*
X69794152Y5184688D01*
X69794152Y5184688D02*
X69794152Y5375164D01*
X70222724Y4756116D02*
X69222724Y4756116D01*
X69222724Y4756116D02*
X69222724Y4375164D01*
X69222724Y4375164D02*
X69270343Y4279926D01*
X69270343Y4279926D02*
X69317962Y4232307D01*
X69317962Y4232307D02*
X69413200Y4184688D01*
X69413200Y4184688D02*
X69556057Y4184688D01*
X69556057Y4184688D02*
X69651295Y4232307D01*
X69651295Y4232307D02*
X69698914Y4279926D01*
X69698914Y4279926D02*
X69746533Y4375164D01*
X69746533Y4375164D02*
X69746533Y4756116D01*
X69222724Y3565640D02*
X69222724Y3470402D01*
X69222724Y3470402D02*
X69270343Y3375164D01*
X69270343Y3375164D02*
X69317962Y3327545D01*
X69317962Y3327545D02*
X69413200Y3279926D01*
X69413200Y3279926D02*
X69603676Y3232307D01*
X69603676Y3232307D02*
X69841771Y3232307D01*
X69841771Y3232307D02*
X70032247Y3279926D01*
X70032247Y3279926D02*
X70127485Y3327545D01*
X70127485Y3327545D02*
X70175105Y3375164D01*
X70175105Y3375164D02*
X70222724Y3470402D01*
X70222724Y3470402D02*
X70222724Y3565640D01*
X70222724Y3565640D02*
X70175105Y3660878D01*
X70175105Y3660878D02*
X70127485Y3708497D01*
X70127485Y3708497D02*
X70032247Y3756116D01*
X70032247Y3756116D02*
X69841771Y3803735D01*
X69841771Y3803735D02*
X69603676Y3803735D01*
X69603676Y3803735D02*
X69413200Y3756116D01*
X69413200Y3756116D02*
X69317962Y3708497D01*
X69317962Y3708497D02*
X69270343Y3660878D01*
X69270343Y3660878D02*
X69222724Y3565640D01*
X70127485Y2803735D02*
X70175105Y2756116D01*
X70175105Y2756116D02*
X70222724Y2803735D01*
X70222724Y2803735D02*
X70175105Y2851354D01*
X70175105Y2851354D02*
X70127485Y2803735D01*
X70127485Y2803735D02*
X70222724Y2803735D01*
X69222724Y2137069D02*
X69222724Y2041831D01*
X69222724Y2041831D02*
X69270343Y1946593D01*
X69270343Y1946593D02*
X69317962Y1898974D01*
X69317962Y1898974D02*
X69413200Y1851355D01*
X69413200Y1851355D02*
X69603676Y1803736D01*
X69603676Y1803736D02*
X69841771Y1803736D01*
X69841771Y1803736D02*
X70032247Y1851355D01*
X70032247Y1851355D02*
X70127485Y1898974D01*
X70127485Y1898974D02*
X70175105Y1946593D01*
X70175105Y1946593D02*
X70222724Y2041831D01*
X70222724Y2041831D02*
X70222724Y2137069D01*
X70222724Y2137069D02*
X70175105Y2232307D01*
X70175105Y2232307D02*
X70127485Y2279926D01*
X70127485Y2279926D02*
X70032247Y2327545D01*
X70032247Y2327545D02*
X69841771Y2375164D01*
X69841771Y2375164D02*
X69603676Y2375164D01*
X69603676Y2375164D02*
X69413200Y2327545D01*
X69413200Y2327545D02*
X69317962Y2279926D01*
X69317962Y2279926D02*
X69270343Y2232307D01*
X69270343Y2232307D02*
X69222724Y2137069D01*
X69651295Y1232307D02*
X69603676Y1327545D01*
X69603676Y1327545D02*
X69556057Y1375164D01*
X69556057Y1375164D02*
X69460819Y1422783D01*
X69460819Y1422783D02*
X69413200Y1422783D01*
X69413200Y1422783D02*
X69317962Y1375164D01*
X69317962Y1375164D02*
X69270343Y1327545D01*
X69270343Y1327545D02*
X69222724Y1232307D01*
X69222724Y1232307D02*
X69222724Y1041831D01*
X69222724Y1041831D02*
X69270343Y946593D01*
X69270343Y946593D02*
X69317962Y898974D01*
X69317962Y898974D02*
X69413200Y851355D01*
X69413200Y851355D02*
X69460819Y851355D01*
X69460819Y851355D02*
X69556057Y898974D01*
X69556057Y898974D02*
X69603676Y946593D01*
X69603676Y946593D02*
X69651295Y1041831D01*
X69651295Y1041831D02*
X69651295Y1232307D01*
X69651295Y1232307D02*
X69698914Y1327545D01*
X69698914Y1327545D02*
X69746533Y1375164D01*
X69746533Y1375164D02*
X69841771Y1422783D01*
X69841771Y1422783D02*
X70032247Y1422783D01*
X70032247Y1422783D02*
X70127485Y1375164D01*
X70127485Y1375164D02*
X70175105Y1327545D01*
X70175105Y1327545D02*
X70222724Y1232307D01*
X70222724Y1232307D02*
X70222724Y1041831D01*
X70222724Y1041831D02*
X70175105Y946593D01*
X70175105Y946593D02*
X70127485Y898974D01*
X70127485Y898974D02*
X70032247Y851355D01*
X70032247Y851355D02*
X69841771Y851355D01*
X69841771Y851355D02*
X69746533Y898974D01*
X69746533Y898974D02*
X69698914Y946593D01*
X69698914Y946593D02*
X69651295Y1041831D01*
X71830343Y5232307D02*
X71782724Y5327545D01*
X71782724Y5327545D02*
X71782724Y5470402D01*
X71782724Y5470402D02*
X71830343Y5613259D01*
X71830343Y5613259D02*
X71925581Y5708497D01*
X71925581Y5708497D02*
X72020819Y5756116D01*
X72020819Y5756116D02*
X72211295Y5803735D01*
X72211295Y5803735D02*
X72354152Y5803735D01*
X72354152Y5803735D02*
X72544628Y5756116D01*
X72544628Y5756116D02*
X72639866Y5708497D01*
X72639866Y5708497D02*
X72735105Y5613259D01*
X72735105Y5613259D02*
X72782724Y5470402D01*
X72782724Y5470402D02*
X72782724Y5375164D01*
X72782724Y5375164D02*
X72735105Y5232307D01*
X72735105Y5232307D02*
X72687485Y5184688D01*
X72687485Y5184688D02*
X72354152Y5184688D01*
X72354152Y5184688D02*
X72354152Y5375164D01*
X72782724Y4756116D02*
X71782724Y4756116D01*
X71782724Y4756116D02*
X71782724Y4375164D01*
X71782724Y4375164D02*
X71830343Y4279926D01*
X71830343Y4279926D02*
X71877962Y4232307D01*
X71877962Y4232307D02*
X71973200Y4184688D01*
X71973200Y4184688D02*
X72116057Y4184688D01*
X72116057Y4184688D02*
X72211295Y4232307D01*
X72211295Y4232307D02*
X72258914Y4279926D01*
X72258914Y4279926D02*
X72306533Y4375164D01*
X72306533Y4375164D02*
X72306533Y4756116D01*
X71782724Y3565640D02*
X71782724Y3470402D01*
X71782724Y3470402D02*
X71830343Y3375164D01*
X71830343Y3375164D02*
X71877962Y3327545D01*
X71877962Y3327545D02*
X71973200Y3279926D01*
X71973200Y3279926D02*
X72163676Y3232307D01*
X72163676Y3232307D02*
X72401771Y3232307D01*
X72401771Y3232307D02*
X72592247Y3279926D01*
X72592247Y3279926D02*
X72687485Y3327545D01*
X72687485Y3327545D02*
X72735105Y3375164D01*
X72735105Y3375164D02*
X72782724Y3470402D01*
X72782724Y3470402D02*
X72782724Y3565640D01*
X72782724Y3565640D02*
X72735105Y3660878D01*
X72735105Y3660878D02*
X72687485Y3708497D01*
X72687485Y3708497D02*
X72592247Y3756116D01*
X72592247Y3756116D02*
X72401771Y3803735D01*
X72401771Y3803735D02*
X72163676Y3803735D01*
X72163676Y3803735D02*
X71973200Y3756116D01*
X71973200Y3756116D02*
X71877962Y3708497D01*
X71877962Y3708497D02*
X71830343Y3660878D01*
X71830343Y3660878D02*
X71782724Y3565640D01*
X72687485Y2803735D02*
X72735105Y2756116D01*
X72735105Y2756116D02*
X72782724Y2803735D01*
X72782724Y2803735D02*
X72735105Y2851354D01*
X72735105Y2851354D02*
X72687485Y2803735D01*
X72687485Y2803735D02*
X72782724Y2803735D01*
X71782724Y2137069D02*
X71782724Y2041831D01*
X71782724Y2041831D02*
X71830343Y1946593D01*
X71830343Y1946593D02*
X71877962Y1898974D01*
X71877962Y1898974D02*
X71973200Y1851355D01*
X71973200Y1851355D02*
X72163676Y1803736D01*
X72163676Y1803736D02*
X72401771Y1803736D01*
X72401771Y1803736D02*
X72592247Y1851355D01*
X72592247Y1851355D02*
X72687485Y1898974D01*
X72687485Y1898974D02*
X72735105Y1946593D01*
X72735105Y1946593D02*
X72782724Y2041831D01*
X72782724Y2041831D02*
X72782724Y2137069D01*
X72782724Y2137069D02*
X72735105Y2232307D01*
X72735105Y2232307D02*
X72687485Y2279926D01*
X72687485Y2279926D02*
X72592247Y2327545D01*
X72592247Y2327545D02*
X72401771Y2375164D01*
X72401771Y2375164D02*
X72163676Y2375164D01*
X72163676Y2375164D02*
X71973200Y2327545D01*
X71973200Y2327545D02*
X71877962Y2279926D01*
X71877962Y2279926D02*
X71830343Y2232307D01*
X71830343Y2232307D02*
X71782724Y2137069D01*
X71782724Y1470402D02*
X71782724Y803736D01*
X71782724Y803736D02*
X72782724Y1232307D01*
X71850343Y16442307D02*
X71802724Y16537545D01*
X71802724Y16537545D02*
X71802724Y16680402D01*
X71802724Y16680402D02*
X71850343Y16823259D01*
X71850343Y16823259D02*
X71945581Y16918497D01*
X71945581Y16918497D02*
X72040819Y16966116D01*
X72040819Y16966116D02*
X72231295Y17013735D01*
X72231295Y17013735D02*
X72374152Y17013735D01*
X72374152Y17013735D02*
X72564628Y16966116D01*
X72564628Y16966116D02*
X72659866Y16918497D01*
X72659866Y16918497D02*
X72755105Y16823259D01*
X72755105Y16823259D02*
X72802724Y16680402D01*
X72802724Y16680402D02*
X72802724Y16585164D01*
X72802724Y16585164D02*
X72755105Y16442307D01*
X72755105Y16442307D02*
X72707485Y16394688D01*
X72707485Y16394688D02*
X72374152Y16394688D01*
X72374152Y16394688D02*
X72374152Y16585164D01*
X72802724Y15966116D02*
X71802724Y15966116D01*
X71802724Y15966116D02*
X71802724Y15585164D01*
X71802724Y15585164D02*
X71850343Y15489926D01*
X71850343Y15489926D02*
X71897962Y15442307D01*
X71897962Y15442307D02*
X71993200Y15394688D01*
X71993200Y15394688D02*
X72136057Y15394688D01*
X72136057Y15394688D02*
X72231295Y15442307D01*
X72231295Y15442307D02*
X72278914Y15489926D01*
X72278914Y15489926D02*
X72326533Y15585164D01*
X72326533Y15585164D02*
X72326533Y15966116D01*
X71802724Y14775640D02*
X71802724Y14680402D01*
X71802724Y14680402D02*
X71850343Y14585164D01*
X71850343Y14585164D02*
X71897962Y14537545D01*
X71897962Y14537545D02*
X71993200Y14489926D01*
X71993200Y14489926D02*
X72183676Y14442307D01*
X72183676Y14442307D02*
X72421771Y14442307D01*
X72421771Y14442307D02*
X72612247Y14489926D01*
X72612247Y14489926D02*
X72707485Y14537545D01*
X72707485Y14537545D02*
X72755105Y14585164D01*
X72755105Y14585164D02*
X72802724Y14680402D01*
X72802724Y14680402D02*
X72802724Y14775640D01*
X72802724Y14775640D02*
X72755105Y14870878D01*
X72755105Y14870878D02*
X72707485Y14918497D01*
X72707485Y14918497D02*
X72612247Y14966116D01*
X72612247Y14966116D02*
X72421771Y15013735D01*
X72421771Y15013735D02*
X72183676Y15013735D01*
X72183676Y15013735D02*
X71993200Y14966116D01*
X71993200Y14966116D02*
X71897962Y14918497D01*
X71897962Y14918497D02*
X71850343Y14870878D01*
X71850343Y14870878D02*
X71802724Y14775640D01*
X72707485Y14013735D02*
X72755105Y13966116D01*
X72755105Y13966116D02*
X72802724Y14013735D01*
X72802724Y14013735D02*
X72755105Y14061354D01*
X72755105Y14061354D02*
X72707485Y14013735D01*
X72707485Y14013735D02*
X72802724Y14013735D01*
X71802724Y13347069D02*
X71802724Y13251831D01*
X71802724Y13251831D02*
X71850343Y13156593D01*
X71850343Y13156593D02*
X71897962Y13108974D01*
X71897962Y13108974D02*
X71993200Y13061355D01*
X71993200Y13061355D02*
X72183676Y13013736D01*
X72183676Y13013736D02*
X72421771Y13013736D01*
X72421771Y13013736D02*
X72612247Y13061355D01*
X72612247Y13061355D02*
X72707485Y13108974D01*
X72707485Y13108974D02*
X72755105Y13156593D01*
X72755105Y13156593D02*
X72802724Y13251831D01*
X72802724Y13251831D02*
X72802724Y13347069D01*
X72802724Y13347069D02*
X72755105Y13442307D01*
X72755105Y13442307D02*
X72707485Y13489926D01*
X72707485Y13489926D02*
X72612247Y13537545D01*
X72612247Y13537545D02*
X72421771Y13585164D01*
X72421771Y13585164D02*
X72183676Y13585164D01*
X72183676Y13585164D02*
X71993200Y13537545D01*
X71993200Y13537545D02*
X71897962Y13489926D01*
X71897962Y13489926D02*
X71850343Y13442307D01*
X71850343Y13442307D02*
X71802724Y13347069D01*
X71802724Y12108974D02*
X71802724Y12585164D01*
X71802724Y12585164D02*
X72278914Y12632783D01*
X72278914Y12632783D02*
X72231295Y12585164D01*
X72231295Y12585164D02*
X72183676Y12489926D01*
X72183676Y12489926D02*
X72183676Y12251831D01*
X72183676Y12251831D02*
X72231295Y12156593D01*
X72231295Y12156593D02*
X72278914Y12108974D01*
X72278914Y12108974D02*
X72374152Y12061355D01*
X72374152Y12061355D02*
X72612247Y12061355D01*
X72612247Y12061355D02*
X72707485Y12108974D01*
X72707485Y12108974D02*
X72755105Y12156593D01*
X72755105Y12156593D02*
X72802724Y12251831D01*
X72802724Y12251831D02*
X72802724Y12489926D01*
X72802724Y12489926D02*
X72755105Y12585164D01*
X72755105Y12585164D02*
X72707485Y12632783D01*
X74260343Y16462307D02*
X74212724Y16557545D01*
X74212724Y16557545D02*
X74212724Y16700402D01*
X74212724Y16700402D02*
X74260343Y16843259D01*
X74260343Y16843259D02*
X74355581Y16938497D01*
X74355581Y16938497D02*
X74450819Y16986116D01*
X74450819Y16986116D02*
X74641295Y17033735D01*
X74641295Y17033735D02*
X74784152Y17033735D01*
X74784152Y17033735D02*
X74974628Y16986116D01*
X74974628Y16986116D02*
X75069866Y16938497D01*
X75069866Y16938497D02*
X75165105Y16843259D01*
X75165105Y16843259D02*
X75212724Y16700402D01*
X75212724Y16700402D02*
X75212724Y16605164D01*
X75212724Y16605164D02*
X75165105Y16462307D01*
X75165105Y16462307D02*
X75117485Y16414688D01*
X75117485Y16414688D02*
X74784152Y16414688D01*
X74784152Y16414688D02*
X74784152Y16605164D01*
X75212724Y15986116D02*
X74212724Y15986116D01*
X74212724Y15986116D02*
X74212724Y15605164D01*
X74212724Y15605164D02*
X74260343Y15509926D01*
X74260343Y15509926D02*
X74307962Y15462307D01*
X74307962Y15462307D02*
X74403200Y15414688D01*
X74403200Y15414688D02*
X74546057Y15414688D01*
X74546057Y15414688D02*
X74641295Y15462307D01*
X74641295Y15462307D02*
X74688914Y15509926D01*
X74688914Y15509926D02*
X74736533Y15605164D01*
X74736533Y15605164D02*
X74736533Y15986116D01*
X74212724Y14795640D02*
X74212724Y14700402D01*
X74212724Y14700402D02*
X74260343Y14605164D01*
X74260343Y14605164D02*
X74307962Y14557545D01*
X74307962Y14557545D02*
X74403200Y14509926D01*
X74403200Y14509926D02*
X74593676Y14462307D01*
X74593676Y14462307D02*
X74831771Y14462307D01*
X74831771Y14462307D02*
X75022247Y14509926D01*
X75022247Y14509926D02*
X75117485Y14557545D01*
X75117485Y14557545D02*
X75165105Y14605164D01*
X75165105Y14605164D02*
X75212724Y14700402D01*
X75212724Y14700402D02*
X75212724Y14795640D01*
X75212724Y14795640D02*
X75165105Y14890878D01*
X75165105Y14890878D02*
X75117485Y14938497D01*
X75117485Y14938497D02*
X75022247Y14986116D01*
X75022247Y14986116D02*
X74831771Y15033735D01*
X74831771Y15033735D02*
X74593676Y15033735D01*
X74593676Y15033735D02*
X74403200Y14986116D01*
X74403200Y14986116D02*
X74307962Y14938497D01*
X74307962Y14938497D02*
X74260343Y14890878D01*
X74260343Y14890878D02*
X74212724Y14795640D01*
X75117485Y14033735D02*
X75165105Y13986116D01*
X75165105Y13986116D02*
X75212724Y14033735D01*
X75212724Y14033735D02*
X75165105Y14081354D01*
X75165105Y14081354D02*
X75117485Y14033735D01*
X75117485Y14033735D02*
X75212724Y14033735D01*
X75212724Y13033736D02*
X75212724Y13605164D01*
X75212724Y13319450D02*
X74212724Y13319450D01*
X74212724Y13319450D02*
X74355581Y13414688D01*
X74355581Y13414688D02*
X74450819Y13509926D01*
X74450819Y13509926D02*
X74498438Y13605164D01*
X74546057Y12176593D02*
X75212724Y12176593D01*
X74165105Y12414688D02*
X74879390Y12652783D01*
X74879390Y12652783D02*
X74879390Y12033736D01*
X74370343Y5232307D02*
X74322724Y5327545D01*
X74322724Y5327545D02*
X74322724Y5470402D01*
X74322724Y5470402D02*
X74370343Y5613259D01*
X74370343Y5613259D02*
X74465581Y5708497D01*
X74465581Y5708497D02*
X74560819Y5756116D01*
X74560819Y5756116D02*
X74751295Y5803735D01*
X74751295Y5803735D02*
X74894152Y5803735D01*
X74894152Y5803735D02*
X75084628Y5756116D01*
X75084628Y5756116D02*
X75179866Y5708497D01*
X75179866Y5708497D02*
X75275105Y5613259D01*
X75275105Y5613259D02*
X75322724Y5470402D01*
X75322724Y5470402D02*
X75322724Y5375164D01*
X75322724Y5375164D02*
X75275105Y5232307D01*
X75275105Y5232307D02*
X75227485Y5184688D01*
X75227485Y5184688D02*
X74894152Y5184688D01*
X74894152Y5184688D02*
X74894152Y5375164D01*
X75322724Y4756116D02*
X74322724Y4756116D01*
X74322724Y4756116D02*
X74322724Y4375164D01*
X74322724Y4375164D02*
X74370343Y4279926D01*
X74370343Y4279926D02*
X74417962Y4232307D01*
X74417962Y4232307D02*
X74513200Y4184688D01*
X74513200Y4184688D02*
X74656057Y4184688D01*
X74656057Y4184688D02*
X74751295Y4232307D01*
X74751295Y4232307D02*
X74798914Y4279926D01*
X74798914Y4279926D02*
X74846533Y4375164D01*
X74846533Y4375164D02*
X74846533Y4756116D01*
X74322724Y3565640D02*
X74322724Y3470402D01*
X74322724Y3470402D02*
X74370343Y3375164D01*
X74370343Y3375164D02*
X74417962Y3327545D01*
X74417962Y3327545D02*
X74513200Y3279926D01*
X74513200Y3279926D02*
X74703676Y3232307D01*
X74703676Y3232307D02*
X74941771Y3232307D01*
X74941771Y3232307D02*
X75132247Y3279926D01*
X75132247Y3279926D02*
X75227485Y3327545D01*
X75227485Y3327545D02*
X75275105Y3375164D01*
X75275105Y3375164D02*
X75322724Y3470402D01*
X75322724Y3470402D02*
X75322724Y3565640D01*
X75322724Y3565640D02*
X75275105Y3660878D01*
X75275105Y3660878D02*
X75227485Y3708497D01*
X75227485Y3708497D02*
X75132247Y3756116D01*
X75132247Y3756116D02*
X74941771Y3803735D01*
X74941771Y3803735D02*
X74703676Y3803735D01*
X74703676Y3803735D02*
X74513200Y3756116D01*
X74513200Y3756116D02*
X74417962Y3708497D01*
X74417962Y3708497D02*
X74370343Y3660878D01*
X74370343Y3660878D02*
X74322724Y3565640D01*
X75227485Y2803735D02*
X75275105Y2756116D01*
X75275105Y2756116D02*
X75322724Y2803735D01*
X75322724Y2803735D02*
X75275105Y2851354D01*
X75275105Y2851354D02*
X75227485Y2803735D01*
X75227485Y2803735D02*
X75322724Y2803735D01*
X75322724Y1803736D02*
X75322724Y2375164D01*
X75322724Y2089450D02*
X74322724Y2089450D01*
X74322724Y2089450D02*
X74465581Y2184688D01*
X74465581Y2184688D02*
X74560819Y2279926D01*
X74560819Y2279926D02*
X74608438Y2375164D01*
X74322724Y1470402D02*
X74322724Y851355D01*
X74322724Y851355D02*
X74703676Y1184688D01*
X74703676Y1184688D02*
X74703676Y1041831D01*
X74703676Y1041831D02*
X74751295Y946593D01*
X74751295Y946593D02*
X74798914Y898974D01*
X74798914Y898974D02*
X74894152Y851355D01*
X74894152Y851355D02*
X75132247Y851355D01*
X75132247Y851355D02*
X75227485Y898974D01*
X75227485Y898974D02*
X75275105Y946593D01*
X75275105Y946593D02*
X75322724Y1041831D01*
X75322724Y1041831D02*
X75322724Y1327545D01*
X75322724Y1327545D02*
X75275105Y1422783D01*
X75275105Y1422783D02*
X75227485Y1470402D01*
X76890343Y5232307D02*
X76842724Y5327545D01*
X76842724Y5327545D02*
X76842724Y5470402D01*
X76842724Y5470402D02*
X76890343Y5613259D01*
X76890343Y5613259D02*
X76985581Y5708497D01*
X76985581Y5708497D02*
X77080819Y5756116D01*
X77080819Y5756116D02*
X77271295Y5803735D01*
X77271295Y5803735D02*
X77414152Y5803735D01*
X77414152Y5803735D02*
X77604628Y5756116D01*
X77604628Y5756116D02*
X77699866Y5708497D01*
X77699866Y5708497D02*
X77795105Y5613259D01*
X77795105Y5613259D02*
X77842724Y5470402D01*
X77842724Y5470402D02*
X77842724Y5375164D01*
X77842724Y5375164D02*
X77795105Y5232307D01*
X77795105Y5232307D02*
X77747485Y5184688D01*
X77747485Y5184688D02*
X77414152Y5184688D01*
X77414152Y5184688D02*
X77414152Y5375164D01*
X77842724Y4756116D02*
X76842724Y4756116D01*
X76842724Y4756116D02*
X76842724Y4375164D01*
X76842724Y4375164D02*
X76890343Y4279926D01*
X76890343Y4279926D02*
X76937962Y4232307D01*
X76937962Y4232307D02*
X77033200Y4184688D01*
X77033200Y4184688D02*
X77176057Y4184688D01*
X77176057Y4184688D02*
X77271295Y4232307D01*
X77271295Y4232307D02*
X77318914Y4279926D01*
X77318914Y4279926D02*
X77366533Y4375164D01*
X77366533Y4375164D02*
X77366533Y4756116D01*
X76842724Y3565640D02*
X76842724Y3470402D01*
X76842724Y3470402D02*
X76890343Y3375164D01*
X76890343Y3375164D02*
X76937962Y3327545D01*
X76937962Y3327545D02*
X77033200Y3279926D01*
X77033200Y3279926D02*
X77223676Y3232307D01*
X77223676Y3232307D02*
X77461771Y3232307D01*
X77461771Y3232307D02*
X77652247Y3279926D01*
X77652247Y3279926D02*
X77747485Y3327545D01*
X77747485Y3327545D02*
X77795105Y3375164D01*
X77795105Y3375164D02*
X77842724Y3470402D01*
X77842724Y3470402D02*
X77842724Y3565640D01*
X77842724Y3565640D02*
X77795105Y3660878D01*
X77795105Y3660878D02*
X77747485Y3708497D01*
X77747485Y3708497D02*
X77652247Y3756116D01*
X77652247Y3756116D02*
X77461771Y3803735D01*
X77461771Y3803735D02*
X77223676Y3803735D01*
X77223676Y3803735D02*
X77033200Y3756116D01*
X77033200Y3756116D02*
X76937962Y3708497D01*
X76937962Y3708497D02*
X76890343Y3660878D01*
X76890343Y3660878D02*
X76842724Y3565640D01*
X77747485Y2803735D02*
X77795105Y2756116D01*
X77795105Y2756116D02*
X77842724Y2803735D01*
X77842724Y2803735D02*
X77795105Y2851354D01*
X77795105Y2851354D02*
X77747485Y2803735D01*
X77747485Y2803735D02*
X77842724Y2803735D01*
X77842724Y1803736D02*
X77842724Y2375164D01*
X77842724Y2089450D02*
X76842724Y2089450D01*
X76842724Y2089450D02*
X76985581Y2184688D01*
X76985581Y2184688D02*
X77080819Y2279926D01*
X77080819Y2279926D02*
X77128438Y2375164D01*
X76842724Y946593D02*
X76842724Y1137069D01*
X76842724Y1137069D02*
X76890343Y1232307D01*
X76890343Y1232307D02*
X76937962Y1279926D01*
X76937962Y1279926D02*
X77080819Y1375164D01*
X77080819Y1375164D02*
X77271295Y1422783D01*
X77271295Y1422783D02*
X77652247Y1422783D01*
X77652247Y1422783D02*
X77747485Y1375164D01*
X77747485Y1375164D02*
X77795105Y1327545D01*
X77795105Y1327545D02*
X77842724Y1232307D01*
X77842724Y1232307D02*
X77842724Y1041831D01*
X77842724Y1041831D02*
X77795105Y946593D01*
X77795105Y946593D02*
X77747485Y898974D01*
X77747485Y898974D02*
X77652247Y851355D01*
X77652247Y851355D02*
X77414152Y851355D01*
X77414152Y851355D02*
X77318914Y898974D01*
X77318914Y898974D02*
X77271295Y946593D01*
X77271295Y946593D02*
X77223676Y1041831D01*
X77223676Y1041831D02*
X77223676Y1232307D01*
X77223676Y1232307D02*
X77271295Y1327545D01*
X77271295Y1327545D02*
X77318914Y1375164D01*
X77318914Y1375164D02*
X77414152Y1422783D01*
X76930343Y16422307D02*
X76882724Y16517545D01*
X76882724Y16517545D02*
X76882724Y16660402D01*
X76882724Y16660402D02*
X76930343Y16803259D01*
X76930343Y16803259D02*
X77025581Y16898497D01*
X77025581Y16898497D02*
X77120819Y16946116D01*
X77120819Y16946116D02*
X77311295Y16993735D01*
X77311295Y16993735D02*
X77454152Y16993735D01*
X77454152Y16993735D02*
X77644628Y16946116D01*
X77644628Y16946116D02*
X77739866Y16898497D01*
X77739866Y16898497D02*
X77835105Y16803259D01*
X77835105Y16803259D02*
X77882724Y16660402D01*
X77882724Y16660402D02*
X77882724Y16565164D01*
X77882724Y16565164D02*
X77835105Y16422307D01*
X77835105Y16422307D02*
X77787485Y16374688D01*
X77787485Y16374688D02*
X77454152Y16374688D01*
X77454152Y16374688D02*
X77454152Y16565164D01*
X77882724Y15946116D02*
X76882724Y15946116D01*
X76882724Y15946116D02*
X76882724Y15565164D01*
X76882724Y15565164D02*
X76930343Y15469926D01*
X76930343Y15469926D02*
X76977962Y15422307D01*
X76977962Y15422307D02*
X77073200Y15374688D01*
X77073200Y15374688D02*
X77216057Y15374688D01*
X77216057Y15374688D02*
X77311295Y15422307D01*
X77311295Y15422307D02*
X77358914Y15469926D01*
X77358914Y15469926D02*
X77406533Y15565164D01*
X77406533Y15565164D02*
X77406533Y15946116D01*
X76882724Y14755640D02*
X76882724Y14660402D01*
X76882724Y14660402D02*
X76930343Y14565164D01*
X76930343Y14565164D02*
X76977962Y14517545D01*
X76977962Y14517545D02*
X77073200Y14469926D01*
X77073200Y14469926D02*
X77263676Y14422307D01*
X77263676Y14422307D02*
X77501771Y14422307D01*
X77501771Y14422307D02*
X77692247Y14469926D01*
X77692247Y14469926D02*
X77787485Y14517545D01*
X77787485Y14517545D02*
X77835105Y14565164D01*
X77835105Y14565164D02*
X77882724Y14660402D01*
X77882724Y14660402D02*
X77882724Y14755640D01*
X77882724Y14755640D02*
X77835105Y14850878D01*
X77835105Y14850878D02*
X77787485Y14898497D01*
X77787485Y14898497D02*
X77692247Y14946116D01*
X77692247Y14946116D02*
X77501771Y14993735D01*
X77501771Y14993735D02*
X77263676Y14993735D01*
X77263676Y14993735D02*
X77073200Y14946116D01*
X77073200Y14946116D02*
X76977962Y14898497D01*
X76977962Y14898497D02*
X76930343Y14850878D01*
X76930343Y14850878D02*
X76882724Y14755640D01*
X77787485Y13993735D02*
X77835105Y13946116D01*
X77835105Y13946116D02*
X77882724Y13993735D01*
X77882724Y13993735D02*
X77835105Y14041354D01*
X77835105Y14041354D02*
X77787485Y13993735D01*
X77787485Y13993735D02*
X77882724Y13993735D01*
X77882724Y12993736D02*
X77882724Y13565164D01*
X77882724Y13279450D02*
X76882724Y13279450D01*
X76882724Y13279450D02*
X77025581Y13374688D01*
X77025581Y13374688D02*
X77120819Y13469926D01*
X77120819Y13469926D02*
X77168438Y13565164D01*
X76882724Y12088974D02*
X76882724Y12565164D01*
X76882724Y12565164D02*
X77358914Y12612783D01*
X77358914Y12612783D02*
X77311295Y12565164D01*
X77311295Y12565164D02*
X77263676Y12469926D01*
X77263676Y12469926D02*
X77263676Y12231831D01*
X77263676Y12231831D02*
X77311295Y12136593D01*
X77311295Y12136593D02*
X77358914Y12088974D01*
X77358914Y12088974D02*
X77454152Y12041355D01*
X77454152Y12041355D02*
X77692247Y12041355D01*
X77692247Y12041355D02*
X77787485Y12088974D01*
X77787485Y12088974D02*
X77835105Y12136593D01*
X77835105Y12136593D02*
X77882724Y12231831D01*
X77882724Y12231831D02*
X77882724Y12469926D01*
X77882724Y12469926D02*
X77835105Y12565164D01*
X77835105Y12565164D02*
X77787485Y12612783D01*
X79480343Y5232307D02*
X79432724Y5327545D01*
X79432724Y5327545D02*
X79432724Y5470402D01*
X79432724Y5470402D02*
X79480343Y5613259D01*
X79480343Y5613259D02*
X79575581Y5708497D01*
X79575581Y5708497D02*
X79670819Y5756116D01*
X79670819Y5756116D02*
X79861295Y5803735D01*
X79861295Y5803735D02*
X80004152Y5803735D01*
X80004152Y5803735D02*
X80194628Y5756116D01*
X80194628Y5756116D02*
X80289866Y5708497D01*
X80289866Y5708497D02*
X80385105Y5613259D01*
X80385105Y5613259D02*
X80432724Y5470402D01*
X80432724Y5470402D02*
X80432724Y5375164D01*
X80432724Y5375164D02*
X80385105Y5232307D01*
X80385105Y5232307D02*
X80337485Y5184688D01*
X80337485Y5184688D02*
X80004152Y5184688D01*
X80004152Y5184688D02*
X80004152Y5375164D01*
X80432724Y4756116D02*
X79432724Y4756116D01*
X79432724Y4756116D02*
X79432724Y4375164D01*
X79432724Y4375164D02*
X79480343Y4279926D01*
X79480343Y4279926D02*
X79527962Y4232307D01*
X79527962Y4232307D02*
X79623200Y4184688D01*
X79623200Y4184688D02*
X79766057Y4184688D01*
X79766057Y4184688D02*
X79861295Y4232307D01*
X79861295Y4232307D02*
X79908914Y4279926D01*
X79908914Y4279926D02*
X79956533Y4375164D01*
X79956533Y4375164D02*
X79956533Y4756116D01*
X79432724Y3565640D02*
X79432724Y3470402D01*
X79432724Y3470402D02*
X79480343Y3375164D01*
X79480343Y3375164D02*
X79527962Y3327545D01*
X79527962Y3327545D02*
X79623200Y3279926D01*
X79623200Y3279926D02*
X79813676Y3232307D01*
X79813676Y3232307D02*
X80051771Y3232307D01*
X80051771Y3232307D02*
X80242247Y3279926D01*
X80242247Y3279926D02*
X80337485Y3327545D01*
X80337485Y3327545D02*
X80385105Y3375164D01*
X80385105Y3375164D02*
X80432724Y3470402D01*
X80432724Y3470402D02*
X80432724Y3565640D01*
X80432724Y3565640D02*
X80385105Y3660878D01*
X80385105Y3660878D02*
X80337485Y3708497D01*
X80337485Y3708497D02*
X80242247Y3756116D01*
X80242247Y3756116D02*
X80051771Y3803735D01*
X80051771Y3803735D02*
X79813676Y3803735D01*
X79813676Y3803735D02*
X79623200Y3756116D01*
X79623200Y3756116D02*
X79527962Y3708497D01*
X79527962Y3708497D02*
X79480343Y3660878D01*
X79480343Y3660878D02*
X79432724Y3565640D01*
X80337485Y2803735D02*
X80385105Y2756116D01*
X80385105Y2756116D02*
X80432724Y2803735D01*
X80432724Y2803735D02*
X80385105Y2851354D01*
X80385105Y2851354D02*
X80337485Y2803735D01*
X80337485Y2803735D02*
X80432724Y2803735D01*
X80432724Y1803736D02*
X80432724Y2375164D01*
X80432724Y2089450D02*
X79432724Y2089450D01*
X79432724Y2089450D02*
X79575581Y2184688D01*
X79575581Y2184688D02*
X79670819Y2279926D01*
X79670819Y2279926D02*
X79718438Y2375164D01*
X80432724Y1327545D02*
X80432724Y1137069D01*
X80432724Y1137069D02*
X80385105Y1041831D01*
X80385105Y1041831D02*
X80337485Y994212D01*
X80337485Y994212D02*
X80194628Y898974D01*
X80194628Y898974D02*
X80004152Y851355D01*
X80004152Y851355D02*
X79623200Y851355D01*
X79623200Y851355D02*
X79527962Y898974D01*
X79527962Y898974D02*
X79480343Y946593D01*
X79480343Y946593D02*
X79432724Y1041831D01*
X79432724Y1041831D02*
X79432724Y1232307D01*
X79432724Y1232307D02*
X79480343Y1327545D01*
X79480343Y1327545D02*
X79527962Y1375164D01*
X79527962Y1375164D02*
X79623200Y1422783D01*
X79623200Y1422783D02*
X79861295Y1422783D01*
X79861295Y1422783D02*
X79956533Y1375164D01*
X79956533Y1375164D02*
X80004152Y1327545D01*
X80004152Y1327545D02*
X80051771Y1232307D01*
X80051771Y1232307D02*
X80051771Y1041831D01*
X80051771Y1041831D02*
X80004152Y946593D01*
X80004152Y946593D02*
X79956533Y898974D01*
X79956533Y898974D02*
X79861295Y851355D01*
X79560343Y16462307D02*
X79512724Y16557545D01*
X79512724Y16557545D02*
X79512724Y16700402D01*
X79512724Y16700402D02*
X79560343Y16843259D01*
X79560343Y16843259D02*
X79655581Y16938497D01*
X79655581Y16938497D02*
X79750819Y16986116D01*
X79750819Y16986116D02*
X79941295Y17033735D01*
X79941295Y17033735D02*
X80084152Y17033735D01*
X80084152Y17033735D02*
X80274628Y16986116D01*
X80274628Y16986116D02*
X80369866Y16938497D01*
X80369866Y16938497D02*
X80465105Y16843259D01*
X80465105Y16843259D02*
X80512724Y16700402D01*
X80512724Y16700402D02*
X80512724Y16605164D01*
X80512724Y16605164D02*
X80465105Y16462307D01*
X80465105Y16462307D02*
X80417485Y16414688D01*
X80417485Y16414688D02*
X80084152Y16414688D01*
X80084152Y16414688D02*
X80084152Y16605164D01*
X80512724Y15986116D02*
X79512724Y15986116D01*
X79512724Y15986116D02*
X79512724Y15605164D01*
X79512724Y15605164D02*
X79560343Y15509926D01*
X79560343Y15509926D02*
X79607962Y15462307D01*
X79607962Y15462307D02*
X79703200Y15414688D01*
X79703200Y15414688D02*
X79846057Y15414688D01*
X79846057Y15414688D02*
X79941295Y15462307D01*
X79941295Y15462307D02*
X79988914Y15509926D01*
X79988914Y15509926D02*
X80036533Y15605164D01*
X80036533Y15605164D02*
X80036533Y15986116D01*
X79512724Y14795640D02*
X79512724Y14700402D01*
X79512724Y14700402D02*
X79560343Y14605164D01*
X79560343Y14605164D02*
X79607962Y14557545D01*
X79607962Y14557545D02*
X79703200Y14509926D01*
X79703200Y14509926D02*
X79893676Y14462307D01*
X79893676Y14462307D02*
X80131771Y14462307D01*
X80131771Y14462307D02*
X80322247Y14509926D01*
X80322247Y14509926D02*
X80417485Y14557545D01*
X80417485Y14557545D02*
X80465105Y14605164D01*
X80465105Y14605164D02*
X80512724Y14700402D01*
X80512724Y14700402D02*
X80512724Y14795640D01*
X80512724Y14795640D02*
X80465105Y14890878D01*
X80465105Y14890878D02*
X80417485Y14938497D01*
X80417485Y14938497D02*
X80322247Y14986116D01*
X80322247Y14986116D02*
X80131771Y15033735D01*
X80131771Y15033735D02*
X79893676Y15033735D01*
X79893676Y15033735D02*
X79703200Y14986116D01*
X79703200Y14986116D02*
X79607962Y14938497D01*
X79607962Y14938497D02*
X79560343Y14890878D01*
X79560343Y14890878D02*
X79512724Y14795640D01*
X80417485Y14033735D02*
X80465105Y13986116D01*
X80465105Y13986116D02*
X80512724Y14033735D01*
X80512724Y14033735D02*
X80465105Y14081354D01*
X80465105Y14081354D02*
X80417485Y14033735D01*
X80417485Y14033735D02*
X80512724Y14033735D01*
X80512724Y13033736D02*
X80512724Y13605164D01*
X80512724Y13319450D02*
X79512724Y13319450D01*
X79512724Y13319450D02*
X79655581Y13414688D01*
X79655581Y13414688D02*
X79750819Y13509926D01*
X79750819Y13509926D02*
X79798438Y13605164D01*
X79512724Y12700402D02*
X79512724Y12033736D01*
X79512724Y12033736D02*
X80512724Y12462307D01*
X81930343Y16462307D02*
X81882724Y16557545D01*
X81882724Y16557545D02*
X81882724Y16700402D01*
X81882724Y16700402D02*
X81930343Y16843259D01*
X81930343Y16843259D02*
X82025581Y16938497D01*
X82025581Y16938497D02*
X82120819Y16986116D01*
X82120819Y16986116D02*
X82311295Y17033735D01*
X82311295Y17033735D02*
X82454152Y17033735D01*
X82454152Y17033735D02*
X82644628Y16986116D01*
X82644628Y16986116D02*
X82739866Y16938497D01*
X82739866Y16938497D02*
X82835105Y16843259D01*
X82835105Y16843259D02*
X82882724Y16700402D01*
X82882724Y16700402D02*
X82882724Y16605164D01*
X82882724Y16605164D02*
X82835105Y16462307D01*
X82835105Y16462307D02*
X82787485Y16414688D01*
X82787485Y16414688D02*
X82454152Y16414688D01*
X82454152Y16414688D02*
X82454152Y16605164D01*
X82882724Y15986116D02*
X81882724Y15986116D01*
X81882724Y15986116D02*
X81882724Y15605164D01*
X81882724Y15605164D02*
X81930343Y15509926D01*
X81930343Y15509926D02*
X81977962Y15462307D01*
X81977962Y15462307D02*
X82073200Y15414688D01*
X82073200Y15414688D02*
X82216057Y15414688D01*
X82216057Y15414688D02*
X82311295Y15462307D01*
X82311295Y15462307D02*
X82358914Y15509926D01*
X82358914Y15509926D02*
X82406533Y15605164D01*
X82406533Y15605164D02*
X82406533Y15986116D01*
X81882724Y14795640D02*
X81882724Y14700402D01*
X81882724Y14700402D02*
X81930343Y14605164D01*
X81930343Y14605164D02*
X81977962Y14557545D01*
X81977962Y14557545D02*
X82073200Y14509926D01*
X82073200Y14509926D02*
X82263676Y14462307D01*
X82263676Y14462307D02*
X82501771Y14462307D01*
X82501771Y14462307D02*
X82692247Y14509926D01*
X82692247Y14509926D02*
X82787485Y14557545D01*
X82787485Y14557545D02*
X82835105Y14605164D01*
X82835105Y14605164D02*
X82882724Y14700402D01*
X82882724Y14700402D02*
X82882724Y14795640D01*
X82882724Y14795640D02*
X82835105Y14890878D01*
X82835105Y14890878D02*
X82787485Y14938497D01*
X82787485Y14938497D02*
X82692247Y14986116D01*
X82692247Y14986116D02*
X82501771Y15033735D01*
X82501771Y15033735D02*
X82263676Y15033735D01*
X82263676Y15033735D02*
X82073200Y14986116D01*
X82073200Y14986116D02*
X81977962Y14938497D01*
X81977962Y14938497D02*
X81930343Y14890878D01*
X81930343Y14890878D02*
X81882724Y14795640D01*
X82787485Y14033735D02*
X82835105Y13986116D01*
X82835105Y13986116D02*
X82882724Y14033735D01*
X82882724Y14033735D02*
X82835105Y14081354D01*
X82835105Y14081354D02*
X82787485Y14033735D01*
X82787485Y14033735D02*
X82882724Y14033735D01*
X81977962Y13605164D02*
X81930343Y13557545D01*
X81930343Y13557545D02*
X81882724Y13462307D01*
X81882724Y13462307D02*
X81882724Y13224212D01*
X81882724Y13224212D02*
X81930343Y13128974D01*
X81930343Y13128974D02*
X81977962Y13081355D01*
X81977962Y13081355D02*
X82073200Y13033736D01*
X82073200Y13033736D02*
X82168438Y13033736D01*
X82168438Y13033736D02*
X82311295Y13081355D01*
X82311295Y13081355D02*
X82882724Y13652783D01*
X82882724Y13652783D02*
X82882724Y13033736D01*
X82882724Y12081355D02*
X82882724Y12652783D01*
X82882724Y12367069D02*
X81882724Y12367069D01*
X81882724Y12367069D02*
X82025581Y12462307D01*
X82025581Y12462307D02*
X82120819Y12557545D01*
X82120819Y12557545D02*
X82168438Y12652783D01*
X82020343Y5232307D02*
X81972724Y5327545D01*
X81972724Y5327545D02*
X81972724Y5470402D01*
X81972724Y5470402D02*
X82020343Y5613259D01*
X82020343Y5613259D02*
X82115581Y5708497D01*
X82115581Y5708497D02*
X82210819Y5756116D01*
X82210819Y5756116D02*
X82401295Y5803735D01*
X82401295Y5803735D02*
X82544152Y5803735D01*
X82544152Y5803735D02*
X82734628Y5756116D01*
X82734628Y5756116D02*
X82829866Y5708497D01*
X82829866Y5708497D02*
X82925105Y5613259D01*
X82925105Y5613259D02*
X82972724Y5470402D01*
X82972724Y5470402D02*
X82972724Y5375164D01*
X82972724Y5375164D02*
X82925105Y5232307D01*
X82925105Y5232307D02*
X82877485Y5184688D01*
X82877485Y5184688D02*
X82544152Y5184688D01*
X82544152Y5184688D02*
X82544152Y5375164D01*
X82972724Y4756116D02*
X81972724Y4756116D01*
X81972724Y4756116D02*
X81972724Y4375164D01*
X81972724Y4375164D02*
X82020343Y4279926D01*
X82020343Y4279926D02*
X82067962Y4232307D01*
X82067962Y4232307D02*
X82163200Y4184688D01*
X82163200Y4184688D02*
X82306057Y4184688D01*
X82306057Y4184688D02*
X82401295Y4232307D01*
X82401295Y4232307D02*
X82448914Y4279926D01*
X82448914Y4279926D02*
X82496533Y4375164D01*
X82496533Y4375164D02*
X82496533Y4756116D01*
X81972724Y3565640D02*
X81972724Y3470402D01*
X81972724Y3470402D02*
X82020343Y3375164D01*
X82020343Y3375164D02*
X82067962Y3327545D01*
X82067962Y3327545D02*
X82163200Y3279926D01*
X82163200Y3279926D02*
X82353676Y3232307D01*
X82353676Y3232307D02*
X82591771Y3232307D01*
X82591771Y3232307D02*
X82782247Y3279926D01*
X82782247Y3279926D02*
X82877485Y3327545D01*
X82877485Y3327545D02*
X82925105Y3375164D01*
X82925105Y3375164D02*
X82972724Y3470402D01*
X82972724Y3470402D02*
X82972724Y3565640D01*
X82972724Y3565640D02*
X82925105Y3660878D01*
X82925105Y3660878D02*
X82877485Y3708497D01*
X82877485Y3708497D02*
X82782247Y3756116D01*
X82782247Y3756116D02*
X82591771Y3803735D01*
X82591771Y3803735D02*
X82353676Y3803735D01*
X82353676Y3803735D02*
X82163200Y3756116D01*
X82163200Y3756116D02*
X82067962Y3708497D01*
X82067962Y3708497D02*
X82020343Y3660878D01*
X82020343Y3660878D02*
X81972724Y3565640D01*
X82877485Y2803735D02*
X82925105Y2756116D01*
X82925105Y2756116D02*
X82972724Y2803735D01*
X82972724Y2803735D02*
X82925105Y2851354D01*
X82925105Y2851354D02*
X82877485Y2803735D01*
X82877485Y2803735D02*
X82972724Y2803735D01*
X82067962Y2375164D02*
X82020343Y2327545D01*
X82020343Y2327545D02*
X81972724Y2232307D01*
X81972724Y2232307D02*
X81972724Y1994212D01*
X81972724Y1994212D02*
X82020343Y1898974D01*
X82020343Y1898974D02*
X82067962Y1851355D01*
X82067962Y1851355D02*
X82163200Y1803736D01*
X82163200Y1803736D02*
X82258438Y1803736D01*
X82258438Y1803736D02*
X82401295Y1851355D01*
X82401295Y1851355D02*
X82972724Y2422783D01*
X82972724Y2422783D02*
X82972724Y1803736D01*
X82972724Y851355D02*
X82972724Y1422783D01*
X82972724Y1137069D02*
X81972724Y1137069D01*
X81972724Y1137069D02*
X82115581Y1232307D01*
X82115581Y1232307D02*
X82210819Y1327545D01*
X82210819Y1327545D02*
X82258438Y1422783D01*
X84981771Y5826116D02*
X84981771Y5064211D01*
X85362724Y5445164D02*
X84600819Y5445164D01*
X84362724Y4683259D02*
X84362724Y4064212D01*
X84362724Y4064212D02*
X84743676Y4397545D01*
X84743676Y4397545D02*
X84743676Y4254688D01*
X84743676Y4254688D02*
X84791295Y4159450D01*
X84791295Y4159450D02*
X84838914Y4111831D01*
X84838914Y4111831D02*
X84934152Y4064212D01*
X84934152Y4064212D02*
X85172247Y4064212D01*
X85172247Y4064212D02*
X85267485Y4111831D01*
X85267485Y4111831D02*
X85315105Y4159450D01*
X85315105Y4159450D02*
X85362724Y4254688D01*
X85362724Y4254688D02*
X85362724Y4540402D01*
X85362724Y4540402D02*
X85315105Y4635640D01*
X85315105Y4635640D02*
X85267485Y4683259D01*
X84696057Y3730878D02*
X85362724Y3492783D01*
X85362724Y3492783D02*
X84696057Y3254688D01*
X84362724Y2968973D02*
X84362724Y2349926D01*
X84362724Y2349926D02*
X84743676Y2683259D01*
X84743676Y2683259D02*
X84743676Y2540402D01*
X84743676Y2540402D02*
X84791295Y2445164D01*
X84791295Y2445164D02*
X84838914Y2397545D01*
X84838914Y2397545D02*
X84934152Y2349926D01*
X84934152Y2349926D02*
X85172247Y2349926D01*
X85172247Y2349926D02*
X85267485Y2397545D01*
X85267485Y2397545D02*
X85315105Y2445164D01*
X85315105Y2445164D02*
X85362724Y2540402D01*
X85362724Y2540402D02*
X85362724Y2826116D01*
X85362724Y2826116D02*
X85315105Y2921354D01*
X85315105Y2921354D02*
X85267485Y2968973D01*
X84590343Y14172307D02*
X84542724Y14267545D01*
X84542724Y14267545D02*
X84542724Y14410402D01*
X84542724Y14410402D02*
X84590343Y14553259D01*
X84590343Y14553259D02*
X84685581Y14648497D01*
X84685581Y14648497D02*
X84780819Y14696116D01*
X84780819Y14696116D02*
X84971295Y14743735D01*
X84971295Y14743735D02*
X85114152Y14743735D01*
X85114152Y14743735D02*
X85304628Y14696116D01*
X85304628Y14696116D02*
X85399866Y14648497D01*
X85399866Y14648497D02*
X85495105Y14553259D01*
X85495105Y14553259D02*
X85542724Y14410402D01*
X85542724Y14410402D02*
X85542724Y14315164D01*
X85542724Y14315164D02*
X85495105Y14172307D01*
X85495105Y14172307D02*
X85447485Y14124688D01*
X85447485Y14124688D02*
X85114152Y14124688D01*
X85114152Y14124688D02*
X85114152Y14315164D01*
X85542724Y13696116D02*
X84542724Y13696116D01*
X84542724Y13696116D02*
X85542724Y13124688D01*
X85542724Y13124688D02*
X84542724Y13124688D01*
X85542724Y12648497D02*
X84542724Y12648497D01*
X84542724Y12648497D02*
X84542724Y12410402D01*
X84542724Y12410402D02*
X84590343Y12267545D01*
X84590343Y12267545D02*
X84685581Y12172307D01*
X84685581Y12172307D02*
X84780819Y12124688D01*
X84780819Y12124688D02*
X84971295Y12077069D01*
X84971295Y12077069D02*
X85114152Y12077069D01*
X85114152Y12077069D02*
X85304628Y12124688D01*
X85304628Y12124688D02*
X85399866Y12172307D01*
X85399866Y12172307D02*
X85495105Y12267545D01*
X85495105Y12267545D02*
X85542724Y12410402D01*
X85542724Y12410402D02*
X85542724Y12648497D01*
D10*
X5292209Y63747562D02*
X5387447Y63795181D01*
X5387447Y63795181D02*
X5530304Y63795181D01*
X5530304Y63795181D02*
X5673161Y63747562D01*
X5673161Y63747562D02*
X5768399Y63652324D01*
X5768399Y63652324D02*
X5816018Y63557086D01*
X5816018Y63557086D02*
X5863637Y63366610D01*
X5863637Y63366610D02*
X5863637Y63223753D01*
X5863637Y63223753D02*
X5816018Y63033277D01*
X5816018Y63033277D02*
X5768399Y62938039D01*
X5768399Y62938039D02*
X5673161Y62842800D01*
X5673161Y62842800D02*
X5530304Y62795181D01*
X5530304Y62795181D02*
X5435066Y62795181D01*
X5435066Y62795181D02*
X5292209Y62842800D01*
X5292209Y62842800D02*
X5244590Y62890420D01*
X5244590Y62890420D02*
X5244590Y63223753D01*
X5244590Y63223753D02*
X5435066Y63223753D01*
X4816018Y62795181D02*
X4816018Y63795181D01*
X4816018Y63795181D02*
X4244590Y62795181D01*
X4244590Y62795181D02*
X4244590Y63795181D01*
X3768399Y62795181D02*
X3768399Y63795181D01*
X3768399Y63795181D02*
X3530304Y63795181D01*
X3530304Y63795181D02*
X3387447Y63747562D01*
X3387447Y63747562D02*
X3292209Y63652324D01*
X3292209Y63652324D02*
X3244590Y63557086D01*
X3244590Y63557086D02*
X3196971Y63366610D01*
X3196971Y63366610D02*
X3196971Y63223753D01*
X3196971Y63223753D02*
X3244590Y63033277D01*
X3244590Y63033277D02*
X3292209Y62938039D01*
X3292209Y62938039D02*
X3387447Y62842800D01*
X3387447Y62842800D02*
X3530304Y62795181D01*
X3530304Y62795181D02*
X3768399Y62795181D01*
X91635124Y26873809D02*
X90635124Y26873809D01*
X90635124Y26873809D02*
X90635124Y26635714D01*
X90635124Y26635714D02*
X90682743Y26492857D01*
X90682743Y26492857D02*
X90777981Y26397619D01*
X90777981Y26397619D02*
X90873219Y26350000D01*
X90873219Y26350000D02*
X91063695Y26302381D01*
X91063695Y26302381D02*
X91206552Y26302381D01*
X91206552Y26302381D02*
X91397028Y26350000D01*
X91397028Y26350000D02*
X91492266Y26397619D01*
X91492266Y26397619D02*
X91587505Y26492857D01*
X91587505Y26492857D02*
X91635124Y26635714D01*
X91635124Y26635714D02*
X91635124Y26873809D01*
X91635124Y25873809D02*
X90635124Y25873809D01*
X90635124Y25207143D02*
X90635124Y25016667D01*
X90635124Y25016667D02*
X90682743Y24921429D01*
X90682743Y24921429D02*
X90777981Y24826191D01*
X90777981Y24826191D02*
X90968457Y24778572D01*
X90968457Y24778572D02*
X91301790Y24778572D01*
X91301790Y24778572D02*
X91492266Y24826191D01*
X91492266Y24826191D02*
X91587505Y24921429D01*
X91587505Y24921429D02*
X91635124Y25016667D01*
X91635124Y25016667D02*
X91635124Y25207143D01*
X91635124Y25207143D02*
X91587505Y25302381D01*
X91587505Y25302381D02*
X91492266Y25397619D01*
X91492266Y25397619D02*
X91301790Y25445238D01*
X91301790Y25445238D02*
X90968457Y25445238D01*
X90968457Y25445238D02*
X90777981Y25397619D01*
X90777981Y25397619D02*
X90682743Y25302381D01*
X90682743Y25302381D02*
X90635124Y25207143D01*
X97439885Y26645239D02*
X97487505Y26692858D01*
X97487505Y26692858D02*
X97535124Y26835715D01*
X97535124Y26835715D02*
X97535124Y26930953D01*
X97535124Y26930953D02*
X97487505Y27073810D01*
X97487505Y27073810D02*
X97392266Y27169048D01*
X97392266Y27169048D02*
X97297028Y27216667D01*
X97297028Y27216667D02*
X97106552Y27264286D01*
X97106552Y27264286D02*
X96963695Y27264286D01*
X96963695Y27264286D02*
X96773219Y27216667D01*
X96773219Y27216667D02*
X96677981Y27169048D01*
X96677981Y27169048D02*
X96582743Y27073810D01*
X96582743Y27073810D02*
X96535124Y26930953D01*
X96535124Y26930953D02*
X96535124Y26835715D01*
X96535124Y26835715D02*
X96582743Y26692858D01*
X96582743Y26692858D02*
X96630362Y26645239D01*
X97535124Y25740477D02*
X97535124Y26216667D01*
X97535124Y26216667D02*
X96535124Y26216667D01*
X97535124Y25407143D02*
X96535124Y25407143D01*
X97535124Y24835715D02*
X96963695Y25264286D01*
X96535124Y24835715D02*
X97106552Y25407143D01*
X71465124Y37398095D02*
X71465124Y36826667D01*
X72465124Y37112381D02*
X71465124Y37112381D01*
X72465124Y36493333D02*
X71465124Y36493333D01*
X71465124Y36493333D02*
X71465124Y36112381D01*
X71465124Y36112381D02*
X71512743Y36017143D01*
X71512743Y36017143D02*
X71560362Y35969524D01*
X71560362Y35969524D02*
X71655600Y35921905D01*
X71655600Y35921905D02*
X71798457Y35921905D01*
X71798457Y35921905D02*
X71893695Y35969524D01*
X71893695Y35969524D02*
X71941314Y36017143D01*
X71941314Y36017143D02*
X71988933Y36112381D01*
X71988933Y36112381D02*
X71988933Y36493333D01*
X72465124Y34969524D02*
X72465124Y35540952D01*
X72465124Y35255238D02*
X71465124Y35255238D01*
X71465124Y35255238D02*
X71607981Y35350476D01*
X71607981Y35350476D02*
X71703219Y35445714D01*
X71703219Y35445714D02*
X71750838Y35540952D01*
X71560362Y34588571D02*
X71512743Y34540952D01*
X71512743Y34540952D02*
X71465124Y34445714D01*
X71465124Y34445714D02*
X71465124Y34207619D01*
X71465124Y34207619D02*
X71512743Y34112381D01*
X71512743Y34112381D02*
X71560362Y34064762D01*
X71560362Y34064762D02*
X71655600Y34017143D01*
X71655600Y34017143D02*
X71750838Y34017143D01*
X71750838Y34017143D02*
X71893695Y34064762D01*
X71893695Y34064762D02*
X72465124Y34636190D01*
X72465124Y34636190D02*
X72465124Y34017143D01*
X47165124Y75481905D02*
X47165124Y74910477D01*
X48165124Y75196191D02*
X47165124Y75196191D01*
X48165124Y74577143D02*
X47165124Y74577143D01*
X47165124Y74577143D02*
X47165124Y74196191D01*
X47165124Y74196191D02*
X47212743Y74100953D01*
X47212743Y74100953D02*
X47260362Y74053334D01*
X47260362Y74053334D02*
X47355600Y74005715D01*
X47355600Y74005715D02*
X47498457Y74005715D01*
X47498457Y74005715D02*
X47593695Y74053334D01*
X47593695Y74053334D02*
X47641314Y74100953D01*
X47641314Y74100953D02*
X47688933Y74196191D01*
X47688933Y74196191D02*
X47688933Y74577143D01*
X47260362Y73624762D02*
X47212743Y73577143D01*
X47212743Y73577143D02*
X47165124Y73481905D01*
X47165124Y73481905D02*
X47165124Y73243810D01*
X47165124Y73243810D02*
X47212743Y73148572D01*
X47212743Y73148572D02*
X47260362Y73100953D01*
X47260362Y73100953D02*
X47355600Y73053334D01*
X47355600Y73053334D02*
X47450838Y73053334D01*
X47450838Y73053334D02*
X47593695Y73100953D01*
X47593695Y73100953D02*
X48165124Y73672381D01*
X48165124Y73672381D02*
X48165124Y73053334D01*
X82585124Y82561905D02*
X82585124Y81990477D01*
X83585124Y82276191D02*
X82585124Y82276191D01*
X83585124Y81657143D02*
X82585124Y81657143D01*
X82585124Y81657143D02*
X82585124Y81276191D01*
X82585124Y81276191D02*
X82632743Y81180953D01*
X82632743Y81180953D02*
X82680362Y81133334D01*
X82680362Y81133334D02*
X82775600Y81085715D01*
X82775600Y81085715D02*
X82918457Y81085715D01*
X82918457Y81085715D02*
X83013695Y81133334D01*
X83013695Y81133334D02*
X83061314Y81180953D01*
X83061314Y81180953D02*
X83108933Y81276191D01*
X83108933Y81276191D02*
X83108933Y81657143D01*
X83585124Y80133334D02*
X83585124Y80704762D01*
X83585124Y80419048D02*
X82585124Y80419048D01*
X82585124Y80419048D02*
X82727981Y80514286D01*
X82727981Y80514286D02*
X82823219Y80609524D01*
X82823219Y80609524D02*
X82870838Y80704762D01*
D12*
X94686424Y30513095D02*
X94686424Y29941667D01*
X95686424Y30227381D02*
X94686424Y30227381D01*
X95686424Y29608333D02*
X94686424Y29608333D01*
X94686424Y29608333D02*
X94686424Y29227381D01*
X94686424Y29227381D02*
X94734043Y29132143D01*
X94734043Y29132143D02*
X94781662Y29084524D01*
X94781662Y29084524D02*
X94876900Y29036905D01*
X94876900Y29036905D02*
X95019757Y29036905D01*
X95019757Y29036905D02*
X95114995Y29084524D01*
X95114995Y29084524D02*
X95162614Y29132143D01*
X95162614Y29132143D02*
X95210233Y29227381D01*
X95210233Y29227381D02*
X95210233Y29608333D01*
X95686424Y28084524D02*
X95686424Y28655952D01*
X95686424Y28370238D02*
X94686424Y28370238D01*
X94686424Y28370238D02*
X94829281Y28465476D01*
X94829281Y28465476D02*
X94924519Y28560714D01*
X94924519Y28560714D02*
X94972138Y28655952D01*
X95019757Y27227381D02*
X95686424Y27227381D01*
X94638805Y27465476D02*
X95353090Y27703571D01*
X95353090Y27703571D02*
X95353090Y27084524D01*
D10*
X44885124Y86961905D02*
X44885124Y86390477D01*
X45885124Y86676191D02*
X44885124Y86676191D01*
X45885124Y86057143D02*
X44885124Y86057143D01*
X44885124Y86057143D02*
X44885124Y85676191D01*
X44885124Y85676191D02*
X44932743Y85580953D01*
X44932743Y85580953D02*
X44980362Y85533334D01*
X44980362Y85533334D02*
X45075600Y85485715D01*
X45075600Y85485715D02*
X45218457Y85485715D01*
X45218457Y85485715D02*
X45313695Y85533334D01*
X45313695Y85533334D02*
X45361314Y85580953D01*
X45361314Y85580953D02*
X45408933Y85676191D01*
X45408933Y85676191D02*
X45408933Y86057143D01*
X44885124Y84628572D02*
X44885124Y84819048D01*
X44885124Y84819048D02*
X44932743Y84914286D01*
X44932743Y84914286D02*
X44980362Y84961905D01*
X44980362Y84961905D02*
X45123219Y85057143D01*
X45123219Y85057143D02*
X45313695Y85104762D01*
X45313695Y85104762D02*
X45694647Y85104762D01*
X45694647Y85104762D02*
X45789885Y85057143D01*
X45789885Y85057143D02*
X45837505Y85009524D01*
X45837505Y85009524D02*
X45885124Y84914286D01*
X45885124Y84914286D02*
X45885124Y84723810D01*
X45885124Y84723810D02*
X45837505Y84628572D01*
X45837505Y84628572D02*
X45789885Y84580953D01*
X45789885Y84580953D02*
X45694647Y84533334D01*
X45694647Y84533334D02*
X45456552Y84533334D01*
X45456552Y84533334D02*
X45361314Y84580953D01*
X45361314Y84580953D02*
X45313695Y84628572D01*
X45313695Y84628572D02*
X45266076Y84723810D01*
X45266076Y84723810D02*
X45266076Y84914286D01*
X45266076Y84914286D02*
X45313695Y85009524D01*
X45313695Y85009524D02*
X45361314Y85057143D01*
X45361314Y85057143D02*
X45456552Y85104762D01*
X3321904Y65748212D02*
X2750476Y65748212D01*
X3036190Y64748212D02*
X3036190Y65748212D01*
X2417142Y64748212D02*
X2417142Y65748212D01*
X2417142Y65748212D02*
X2036190Y65748212D01*
X2036190Y65748212D02*
X1940952Y65700593D01*
X1940952Y65700593D02*
X1893333Y65652974D01*
X1893333Y65652974D02*
X1845714Y65557736D01*
X1845714Y65557736D02*
X1845714Y65414879D01*
X1845714Y65414879D02*
X1893333Y65319641D01*
X1893333Y65319641D02*
X1940952Y65272022D01*
X1940952Y65272022D02*
X2036190Y65224403D01*
X2036190Y65224403D02*
X2417142Y65224403D01*
X1369523Y64748212D02*
X1179047Y64748212D01*
X1179047Y64748212D02*
X1083809Y64795831D01*
X1083809Y64795831D02*
X1036190Y64843451D01*
X1036190Y64843451D02*
X940952Y64986308D01*
X940952Y64986308D02*
X893333Y65176784D01*
X893333Y65176784D02*
X893333Y65557736D01*
X893333Y65557736D02*
X940952Y65652974D01*
X940952Y65652974D02*
X988571Y65700593D01*
X988571Y65700593D02*
X1083809Y65748212D01*
X1083809Y65748212D02*
X1274285Y65748212D01*
X1274285Y65748212D02*
X1369523Y65700593D01*
X1369523Y65700593D02*
X1417142Y65652974D01*
X1417142Y65652974D02*
X1464761Y65557736D01*
X1464761Y65557736D02*
X1464761Y65319641D01*
X1464761Y65319641D02*
X1417142Y65224403D01*
X1417142Y65224403D02*
X1369523Y65176784D01*
X1369523Y65176784D02*
X1274285Y65129165D01*
X1274285Y65129165D02*
X1083809Y65129165D01*
X1083809Y65129165D02*
X988571Y65176784D01*
X988571Y65176784D02*
X940952Y65224403D01*
X940952Y65224403D02*
X893333Y65319641D01*
X31745124Y50821905D02*
X31745124Y50250477D01*
X32745124Y50536191D02*
X31745124Y50536191D01*
X32745124Y49917143D02*
X31745124Y49917143D01*
X31745124Y49917143D02*
X31745124Y49536191D01*
X31745124Y49536191D02*
X31792743Y49440953D01*
X31792743Y49440953D02*
X31840362Y49393334D01*
X31840362Y49393334D02*
X31935600Y49345715D01*
X31935600Y49345715D02*
X32078457Y49345715D01*
X32078457Y49345715D02*
X32173695Y49393334D01*
X32173695Y49393334D02*
X32221314Y49440953D01*
X32221314Y49440953D02*
X32268933Y49536191D01*
X32268933Y49536191D02*
X32268933Y49917143D01*
X31745124Y49012381D02*
X31745124Y48345715D01*
X31745124Y48345715D02*
X32745124Y48774286D01*
X77005124Y36588095D02*
X77005124Y36016667D01*
X78005124Y36302381D02*
X77005124Y36302381D01*
X78005124Y35683333D02*
X77005124Y35683333D01*
X77005124Y35683333D02*
X77005124Y35302381D01*
X77005124Y35302381D02*
X77052743Y35207143D01*
X77052743Y35207143D02*
X77100362Y35159524D01*
X77100362Y35159524D02*
X77195600Y35111905D01*
X77195600Y35111905D02*
X77338457Y35111905D01*
X77338457Y35111905D02*
X77433695Y35159524D01*
X77433695Y35159524D02*
X77481314Y35207143D01*
X77481314Y35207143D02*
X77528933Y35302381D01*
X77528933Y35302381D02*
X77528933Y35683333D01*
X78005124Y34159524D02*
X78005124Y34730952D01*
X78005124Y34445238D02*
X77005124Y34445238D01*
X77005124Y34445238D02*
X77147981Y34540476D01*
X77147981Y34540476D02*
X77243219Y34635714D01*
X77243219Y34635714D02*
X77290838Y34730952D01*
X77005124Y33540476D02*
X77005124Y33445238D01*
X77005124Y33445238D02*
X77052743Y33350000D01*
X77052743Y33350000D02*
X77100362Y33302381D01*
X77100362Y33302381D02*
X77195600Y33254762D01*
X77195600Y33254762D02*
X77386076Y33207143D01*
X77386076Y33207143D02*
X77624171Y33207143D01*
X77624171Y33207143D02*
X77814647Y33254762D01*
X77814647Y33254762D02*
X77909885Y33302381D01*
X77909885Y33302381D02*
X77957505Y33350000D01*
X77957505Y33350000D02*
X78005124Y33445238D01*
X78005124Y33445238D02*
X78005124Y33540476D01*
X78005124Y33540476D02*
X77957505Y33635714D01*
X77957505Y33635714D02*
X77909885Y33683333D01*
X77909885Y33683333D02*
X77814647Y33730952D01*
X77814647Y33730952D02*
X77624171Y33778571D01*
X77624171Y33778571D02*
X77386076Y33778571D01*
X77386076Y33778571D02*
X77195600Y33730952D01*
X77195600Y33730952D02*
X77100362Y33683333D01*
X77100362Y33683333D02*
X77052743Y33635714D01*
X77052743Y33635714D02*
X77005124Y33540476D01*
X73918399Y49295181D02*
X73346971Y49295181D01*
X73632685Y48295181D02*
X73632685Y49295181D01*
X73013637Y48295181D02*
X73013637Y49295181D01*
X73013637Y49295181D02*
X72632685Y49295181D01*
X72632685Y49295181D02*
X72537447Y49247562D01*
X72537447Y49247562D02*
X72489828Y49199943D01*
X72489828Y49199943D02*
X72442209Y49104705D01*
X72442209Y49104705D02*
X72442209Y48961848D01*
X72442209Y48961848D02*
X72489828Y48866610D01*
X72489828Y48866610D02*
X72537447Y48818991D01*
X72537447Y48818991D02*
X72632685Y48771372D01*
X72632685Y48771372D02*
X73013637Y48771372D01*
X71489828Y48295181D02*
X72061256Y48295181D01*
X71775542Y48295181D02*
X71775542Y49295181D01*
X71775542Y49295181D02*
X71870780Y49152324D01*
X71870780Y49152324D02*
X71966018Y49057086D01*
X71966018Y49057086D02*
X72061256Y49009467D01*
X70585066Y49295181D02*
X71061256Y49295181D01*
X71061256Y49295181D02*
X71108875Y48818991D01*
X71108875Y48818991D02*
X71061256Y48866610D01*
X71061256Y48866610D02*
X70966018Y48914229D01*
X70966018Y48914229D02*
X70727923Y48914229D01*
X70727923Y48914229D02*
X70632685Y48866610D01*
X70632685Y48866610D02*
X70585066Y48818991D01*
X70585066Y48818991D02*
X70537447Y48723753D01*
X70537447Y48723753D02*
X70537447Y48485658D01*
X70537447Y48485658D02*
X70585066Y48390420D01*
X70585066Y48390420D02*
X70632685Y48342800D01*
X70632685Y48342800D02*
X70727923Y48295181D01*
X70727923Y48295181D02*
X70966018Y48295181D01*
X70966018Y48295181D02*
X71061256Y48342800D01*
X71061256Y48342800D02*
X71108875Y48390420D01*
X14945124Y36051905D02*
X14945124Y35480477D01*
X15945124Y35766191D02*
X14945124Y35766191D01*
X15945124Y35147143D02*
X14945124Y35147143D01*
X14945124Y35147143D02*
X14945124Y34766191D01*
X14945124Y34766191D02*
X14992743Y34670953D01*
X14992743Y34670953D02*
X15040362Y34623334D01*
X15040362Y34623334D02*
X15135600Y34575715D01*
X15135600Y34575715D02*
X15278457Y34575715D01*
X15278457Y34575715D02*
X15373695Y34623334D01*
X15373695Y34623334D02*
X15421314Y34670953D01*
X15421314Y34670953D02*
X15468933Y34766191D01*
X15468933Y34766191D02*
X15468933Y35147143D01*
X14945124Y33670953D02*
X14945124Y34147143D01*
X14945124Y34147143D02*
X15421314Y34194762D01*
X15421314Y34194762D02*
X15373695Y34147143D01*
X15373695Y34147143D02*
X15326076Y34051905D01*
X15326076Y34051905D02*
X15326076Y33813810D01*
X15326076Y33813810D02*
X15373695Y33718572D01*
X15373695Y33718572D02*
X15421314Y33670953D01*
X15421314Y33670953D02*
X15516552Y33623334D01*
X15516552Y33623334D02*
X15754647Y33623334D01*
X15754647Y33623334D02*
X15849885Y33670953D01*
X15849885Y33670953D02*
X15897505Y33718572D01*
X15897505Y33718572D02*
X15945124Y33813810D01*
X15945124Y33813810D02*
X15945124Y34051905D01*
X15945124Y34051905D02*
X15897505Y34147143D01*
X15897505Y34147143D02*
X15849885Y34194762D01*
X73893399Y51495181D02*
X73321971Y51495181D01*
X73607685Y50495181D02*
X73607685Y51495181D01*
X72988637Y50495181D02*
X72988637Y51495181D01*
X72988637Y51495181D02*
X72607685Y51495181D01*
X72607685Y51495181D02*
X72512447Y51447562D01*
X72512447Y51447562D02*
X72464828Y51399943D01*
X72464828Y51399943D02*
X72417209Y51304705D01*
X72417209Y51304705D02*
X72417209Y51161848D01*
X72417209Y51161848D02*
X72464828Y51066610D01*
X72464828Y51066610D02*
X72512447Y51018991D01*
X72512447Y51018991D02*
X72607685Y50971372D01*
X72607685Y50971372D02*
X72988637Y50971372D01*
X71464828Y50495181D02*
X72036256Y50495181D01*
X71750542Y50495181D02*
X71750542Y51495181D01*
X71750542Y51495181D02*
X71845780Y51352324D01*
X71845780Y51352324D02*
X71941018Y51257086D01*
X71941018Y51257086D02*
X72036256Y51209467D01*
X70512447Y50495181D02*
X71083875Y50495181D01*
X70798161Y50495181D02*
X70798161Y51495181D01*
X70798161Y51495181D02*
X70893399Y51352324D01*
X70893399Y51352324D02*
X70988637Y51257086D01*
X70988637Y51257086D02*
X71083875Y51209467D01*
X24400124Y76886905D02*
X24400124Y76315477D01*
X25400124Y76601191D02*
X24400124Y76601191D01*
X25400124Y75982143D02*
X24400124Y75982143D01*
X24400124Y75982143D02*
X24400124Y75601191D01*
X24400124Y75601191D02*
X24447743Y75505953D01*
X24447743Y75505953D02*
X24495362Y75458334D01*
X24495362Y75458334D02*
X24590600Y75410715D01*
X24590600Y75410715D02*
X24733457Y75410715D01*
X24733457Y75410715D02*
X24828695Y75458334D01*
X24828695Y75458334D02*
X24876314Y75505953D01*
X24876314Y75505953D02*
X24923933Y75601191D01*
X24923933Y75601191D02*
X24923933Y75982143D01*
X24828695Y74839286D02*
X24781076Y74934524D01*
X24781076Y74934524D02*
X24733457Y74982143D01*
X24733457Y74982143D02*
X24638219Y75029762D01*
X24638219Y75029762D02*
X24590600Y75029762D01*
X24590600Y75029762D02*
X24495362Y74982143D01*
X24495362Y74982143D02*
X24447743Y74934524D01*
X24447743Y74934524D02*
X24400124Y74839286D01*
X24400124Y74839286D02*
X24400124Y74648810D01*
X24400124Y74648810D02*
X24447743Y74553572D01*
X24447743Y74553572D02*
X24495362Y74505953D01*
X24495362Y74505953D02*
X24590600Y74458334D01*
X24590600Y74458334D02*
X24638219Y74458334D01*
X24638219Y74458334D02*
X24733457Y74505953D01*
X24733457Y74505953D02*
X24781076Y74553572D01*
X24781076Y74553572D02*
X24828695Y74648810D01*
X24828695Y74648810D02*
X24828695Y74839286D01*
X24828695Y74839286D02*
X24876314Y74934524D01*
X24876314Y74934524D02*
X24923933Y74982143D01*
X24923933Y74982143D02*
X25019171Y75029762D01*
X25019171Y75029762D02*
X25209647Y75029762D01*
X25209647Y75029762D02*
X25304885Y74982143D01*
X25304885Y74982143D02*
X25352505Y74934524D01*
X25352505Y74934524D02*
X25400124Y74839286D01*
X25400124Y74839286D02*
X25400124Y74648810D01*
X25400124Y74648810D02*
X25352505Y74553572D01*
X25352505Y74553572D02*
X25304885Y74505953D01*
X25304885Y74505953D02*
X25209647Y74458334D01*
X25209647Y74458334D02*
X25019171Y74458334D01*
X25019171Y74458334D02*
X24923933Y74505953D01*
X24923933Y74505953D02*
X24876314Y74553572D01*
X24876314Y74553572D02*
X24828695Y74648810D01*
X92385124Y30413095D02*
X92385124Y29841667D01*
X93385124Y30127381D02*
X92385124Y30127381D01*
X93385124Y29508333D02*
X92385124Y29508333D01*
X92385124Y29508333D02*
X92385124Y29127381D01*
X92385124Y29127381D02*
X92432743Y29032143D01*
X92432743Y29032143D02*
X92480362Y28984524D01*
X92480362Y28984524D02*
X92575600Y28936905D01*
X92575600Y28936905D02*
X92718457Y28936905D01*
X92718457Y28936905D02*
X92813695Y28984524D01*
X92813695Y28984524D02*
X92861314Y29032143D01*
X92861314Y29032143D02*
X92908933Y29127381D01*
X92908933Y29127381D02*
X92908933Y29508333D01*
X93385124Y27984524D02*
X93385124Y28555952D01*
X93385124Y28270238D02*
X92385124Y28270238D01*
X92385124Y28270238D02*
X92527981Y28365476D01*
X92527981Y28365476D02*
X92623219Y28460714D01*
X92623219Y28460714D02*
X92670838Y28555952D01*
X92385124Y27651190D02*
X92385124Y27032143D01*
X92385124Y27032143D02*
X92766076Y27365476D01*
X92766076Y27365476D02*
X92766076Y27222619D01*
X92766076Y27222619D02*
X92813695Y27127381D01*
X92813695Y27127381D02*
X92861314Y27079762D01*
X92861314Y27079762D02*
X92956552Y27032143D01*
X92956552Y27032143D02*
X93194647Y27032143D01*
X93194647Y27032143D02*
X93289885Y27079762D01*
X93289885Y27079762D02*
X93337505Y27127381D01*
X93337505Y27127381D02*
X93385124Y27222619D01*
X93385124Y27222619D02*
X93385124Y27508333D01*
X93385124Y27508333D02*
X93337505Y27603571D01*
X93337505Y27603571D02*
X93289885Y27651190D01*
X89725124Y43358095D02*
X89725124Y42786667D01*
X90725124Y43072381D02*
X89725124Y43072381D01*
X90725124Y42453333D02*
X89725124Y42453333D01*
X89725124Y42453333D02*
X89725124Y42072381D01*
X89725124Y42072381D02*
X89772743Y41977143D01*
X89772743Y41977143D02*
X89820362Y41929524D01*
X89820362Y41929524D02*
X89915600Y41881905D01*
X89915600Y41881905D02*
X90058457Y41881905D01*
X90058457Y41881905D02*
X90153695Y41929524D01*
X90153695Y41929524D02*
X90201314Y41977143D01*
X90201314Y41977143D02*
X90248933Y42072381D01*
X90248933Y42072381D02*
X90248933Y42453333D01*
X90725124Y40929524D02*
X90725124Y41500952D01*
X90725124Y41215238D02*
X89725124Y41215238D01*
X89725124Y41215238D02*
X89867981Y41310476D01*
X89867981Y41310476D02*
X89963219Y41405714D01*
X89963219Y41405714D02*
X90010838Y41500952D01*
X89725124Y40072381D02*
X89725124Y40262857D01*
X89725124Y40262857D02*
X89772743Y40358095D01*
X89772743Y40358095D02*
X89820362Y40405714D01*
X89820362Y40405714D02*
X89963219Y40500952D01*
X89963219Y40500952D02*
X90153695Y40548571D01*
X90153695Y40548571D02*
X90534647Y40548571D01*
X90534647Y40548571D02*
X90629885Y40500952D01*
X90629885Y40500952D02*
X90677505Y40453333D01*
X90677505Y40453333D02*
X90725124Y40358095D01*
X90725124Y40358095D02*
X90725124Y40167619D01*
X90725124Y40167619D02*
X90677505Y40072381D01*
X90677505Y40072381D02*
X90629885Y40024762D01*
X90629885Y40024762D02*
X90534647Y39977143D01*
X90534647Y39977143D02*
X90296552Y39977143D01*
X90296552Y39977143D02*
X90201314Y40024762D01*
X90201314Y40024762D02*
X90153695Y40072381D01*
X90153695Y40072381D02*
X90106076Y40167619D01*
X90106076Y40167619D02*
X90106076Y40358095D01*
X90106076Y40358095D02*
X90153695Y40453333D01*
X90153695Y40453333D02*
X90201314Y40500952D01*
X90201314Y40500952D02*
X90296552Y40548571D01*
X77075124Y41581905D02*
X77075124Y41010477D01*
X78075124Y41296191D02*
X77075124Y41296191D01*
X78075124Y40677143D02*
X77075124Y40677143D01*
X77075124Y40677143D02*
X77075124Y40296191D01*
X77075124Y40296191D02*
X77122743Y40200953D01*
X77122743Y40200953D02*
X77170362Y40153334D01*
X77170362Y40153334D02*
X77265600Y40105715D01*
X77265600Y40105715D02*
X77408457Y40105715D01*
X77408457Y40105715D02*
X77503695Y40153334D01*
X77503695Y40153334D02*
X77551314Y40200953D01*
X77551314Y40200953D02*
X77598933Y40296191D01*
X77598933Y40296191D02*
X77598933Y40677143D01*
X77408457Y39248572D02*
X78075124Y39248572D01*
X77027505Y39486667D02*
X77741790Y39724762D01*
X77741790Y39724762D02*
X77741790Y39105715D01*
X88885124Y84751905D02*
X88885124Y84180477D01*
X89885124Y84466191D02*
X88885124Y84466191D01*
X89885124Y83847143D02*
X88885124Y83847143D01*
X88885124Y83847143D02*
X88885124Y83466191D01*
X88885124Y83466191D02*
X88932743Y83370953D01*
X88932743Y83370953D02*
X88980362Y83323334D01*
X88980362Y83323334D02*
X89075600Y83275715D01*
X89075600Y83275715D02*
X89218457Y83275715D01*
X89218457Y83275715D02*
X89313695Y83323334D01*
X89313695Y83323334D02*
X89361314Y83370953D01*
X89361314Y83370953D02*
X89408933Y83466191D01*
X89408933Y83466191D02*
X89408933Y83847143D01*
X88885124Y82942381D02*
X88885124Y82323334D01*
X88885124Y82323334D02*
X89266076Y82656667D01*
X89266076Y82656667D02*
X89266076Y82513810D01*
X89266076Y82513810D02*
X89313695Y82418572D01*
X89313695Y82418572D02*
X89361314Y82370953D01*
X89361314Y82370953D02*
X89456552Y82323334D01*
X89456552Y82323334D02*
X89694647Y82323334D01*
X89694647Y82323334D02*
X89789885Y82370953D01*
X89789885Y82370953D02*
X89837505Y82418572D01*
X89837505Y82418572D02*
X89885124Y82513810D01*
X89885124Y82513810D02*
X89885124Y82799524D01*
X89885124Y82799524D02*
X89837505Y82894762D01*
X89837505Y82894762D02*
X89789885Y82942381D01*
%TO.C,TP12*%
D13*
X72730305Y32800000D02*
G75*
G02*
X71330305Y32800000I-700000J0D01*
G01*
X71330305Y32800000D02*
G75*
G02*
X72730305Y32800000I700000J0D01*
G01*
%TO.C,TP2*%
X48405305Y76600000D02*
G75*
G02*
X47005305Y76600000I-700000J0D01*
G01*
X47005305Y76600000D02*
G75*
G02*
X48405305Y76600000I700000J0D01*
G01*
%TO.C,TP1*%
X83830305Y78900000D02*
G75*
G02*
X82430305Y78900000I-700000J0D01*
G01*
X82430305Y78900000D02*
G75*
G02*
X83830305Y78900000I700000J0D01*
G01*
%TO.C,TP14*%
X95930305Y25850000D02*
G75*
G02*
X94530305Y25850000I-700000J0D01*
G01*
X94530305Y25850000D02*
G75*
G02*
X95930305Y25850000I700000J0D01*
G01*
%TO.C,TP6*%
X46130305Y83100000D02*
G75*
G02*
X44730305Y83100000I-700000J0D01*
G01*
X44730305Y83100000D02*
G75*
G02*
X46130305Y83100000I700000J0D01*
G01*
%TO.C,TP9*%
X2770305Y63575000D02*
G75*
G02*
X1370305Y63575000I-700000J0D01*
G01*
X1370305Y63575000D02*
G75*
G02*
X2770305Y63575000I700000J0D01*
G01*
%TO.C,TP7*%
X33005305Y52025000D02*
G75*
G02*
X31605305Y52025000I-700000J0D01*
G01*
X31605305Y52025000D02*
G75*
G02*
X33005305Y52025000I700000J0D01*
G01*
%TO.C,TP10*%
X78330305Y37775000D02*
G75*
G02*
X76930305Y37775000I-700000J0D01*
G01*
X76930305Y37775000D02*
G75*
G02*
X78330305Y37775000I700000J0D01*
G01*
%TO.C,TP15*%
X76080305Y48800000D02*
G75*
G02*
X74680305Y48800000I-700000J0D01*
G01*
X74680305Y48800000D02*
G75*
G02*
X76080305Y48800000I700000J0D01*
G01*
%TO.C,TP5*%
X16205305Y32425000D02*
G75*
G02*
X14805305Y32425000I-700000J0D01*
G01*
X14805305Y32425000D02*
G75*
G02*
X16205305Y32425000I700000J0D01*
G01*
%TO.C,TP11*%
X76030305Y50900000D02*
G75*
G02*
X74630305Y50900000I-700000J0D01*
G01*
X74630305Y50900000D02*
G75*
G02*
X76030305Y50900000I700000J0D01*
G01*
%TO.C,TP8*%
X25650305Y73125000D02*
G75*
G02*
X24250305Y73125000I-700000J0D01*
G01*
X24250305Y73125000D02*
G75*
G02*
X25650305Y73125000I700000J0D01*
G01*
%TO.C,TP13*%
X93630305Y25750000D02*
G75*
G02*
X92230305Y25750000I-700000J0D01*
G01*
X92230305Y25750000D02*
G75*
G02*
X93630305Y25750000I700000J0D01*
G01*
%TO.C,TP16*%
X91005305Y38775000D02*
G75*
G02*
X89605305Y38775000I-700000J0D01*
G01*
X89605305Y38775000D02*
G75*
G02*
X91005305Y38775000I700000J0D01*
G01*
%TO.C,TP4*%
X78280305Y42750000D02*
G75*
G02*
X76880305Y42750000I-700000J0D01*
G01*
X76880305Y42750000D02*
G75*
G02*
X78280305Y42750000I700000J0D01*
G01*
%TO.C,TP3*%
X90130305Y81140000D02*
G75*
G02*
X88730305Y81140000I-700000J0D01*
G01*
X88730305Y81140000D02*
G75*
G02*
X90130305Y81140000I700000J0D01*
G01*
%TD*%
M02*
