%TF.GenerationSoftware,KiCad,Pcbnew,10.0.5-1.fc44app2*%
%TF.CreationDate,2026-08-31T15:33:52+01:00*%
%TF.ProjectId,mainboard,6d61696e-626f-4617-9264-2e6b69636164,0.1*%
%TF.SameCoordinates,PX4b99070PY7a1c817*%
%TF.FileFunction,Paste,Top*%
%TF.FilePolarity,Positive*%
%FSLAX46Y46*%
G04 Gerber Fmt 4.6, Leading zero omitted, Abs format (unit mm)*
G04 Created by KiCad (PCBNEW 10.0.5-1.fc44app2) date 2026-08-31 15:33:52*
%MOMM*%
%LPD*%
G01*
G04 APERTURE LIST*
G04 Aperture macros list*
%AMRoundRect*
0 Rectangle with rounded corners*
0 $1 Rounding radius*
0 $2 $3 $4 $5 $6 $7 $8 $9 X,Y pos of 4 corners*
0 Add a 4 corners polygon primitive as box body*
4,1,4,$2,$3,$4,$5,$6,$7,$8,$9,$2,$3,0*
0 Add four circle primitives for the rounded corners*
1,1,$1+$1,$2,$3*
1,1,$1+$1,$4,$5*
1,1,$1+$1,$6,$7*
1,1,$1+$1,$8,$9*
0 Add four rect primitives between the rounded corners*
20,1,$1+$1,$2,$3,$4,$5,0*
20,1,$1+$1,$4,$5,$6,$7,0*
20,1,$1+$1,$6,$7,$8,$9,0*
20,1,$1+$1,$8,$9,$2,$3,0*%
G04 Aperture macros list end*
%ADD10C,0.128000*%
%ADD11RoundRect,0.200000X0.275000X-0.200000X0.275000X0.200000X-0.275000X0.200000X-0.275000X-0.200000X0*%
%ADD12RoundRect,0.250000X-0.475000X0.250000X-0.475000X-0.250000X0.475000X-0.250000X0.475000X0.250000X0*%
%ADD13RoundRect,0.150000X-0.512500X-0.150000X0.512500X-0.150000X0.512500X0.150000X-0.512500X0.150000X0*%
%ADD14RoundRect,0.250000X0.475000X-0.250000X0.475000X0.250000X-0.475000X0.250000X-0.475000X-0.250000X0*%
%ADD15RoundRect,0.150000X0.150000X-0.587500X0.150000X0.587500X-0.150000X0.587500X-0.150000X-0.587500X0*%
%ADD16RoundRect,0.150000X-0.150000X0.587500X-0.150000X-0.587500X0.150000X-0.587500X0.150000X0.587500X0*%
%ADD17R,0.889000X0.304800*%
%ADD18RoundRect,0.050000X0.250000X-0.100000X0.250000X0.100000X-0.250000X0.100000X-0.250000X-0.100000X0*%
%ADD19RoundRect,0.200000X-0.275000X0.200000X-0.275000X-0.200000X0.275000X-0.200000X0.275000X0.200000X0*%
%ADD20RoundRect,0.225000X-0.250000X0.225000X-0.250000X-0.225000X0.250000X-0.225000X0.250000X0.225000X0*%
%ADD21RoundRect,0.100000X-0.637500X-0.100000X0.637500X-0.100000X0.637500X0.100000X-0.637500X0.100000X0*%
%ADD22RoundRect,0.225000X0.250000X-0.225000X0.250000X0.225000X-0.250000X0.225000X-0.250000X-0.225000X0*%
%ADD23RoundRect,0.200000X0.200000X0.275000X-0.200000X0.275000X-0.200000X-0.275000X0.200000X-0.275000X0*%
%ADD24RoundRect,0.250000X0.250000X0.475000X-0.250000X0.475000X-0.250000X-0.475000X0.250000X-0.475000X0*%
%ADD25RoundRect,0.150000X0.150000X-0.512500X0.150000X0.512500X-0.150000X0.512500X-0.150000X-0.512500X0*%
%ADD26RoundRect,0.050000X-0.250000X0.100000X-0.250000X-0.100000X0.250000X-0.100000X0.250000X0.100000X0*%
%ADD27RoundRect,0.250000X-1.950000X-1.000000X1.950000X-1.000000X1.950000X1.000000X-1.950000X1.000000X0*%
%ADD28RoundRect,0.225000X0.225000X0.250000X-0.225000X0.250000X-0.225000X-0.250000X0.225000X-0.250000X0*%
%ADD29RoundRect,0.250000X1.250000X0.550000X-1.250000X0.550000X-1.250000X-0.550000X1.250000X-0.550000X0*%
%ADD30RoundRect,0.225000X-0.225000X-0.250000X0.225000X-0.250000X0.225000X0.250000X-0.225000X0.250000X0*%
%ADD31RoundRect,0.079500X-0.079500X-0.100500X0.079500X-0.100500X0.079500X0.100500X-0.079500X0.100500X0*%
%ADD32RoundRect,0.250000X-0.250000X-0.475000X0.250000X-0.475000X0.250000X0.475000X-0.250000X0.475000X0*%
%ADD33RoundRect,0.062500X-0.250000X-0.062500X0.250000X-0.062500X0.250000X0.062500X-0.250000X0.062500X0*%
%ADD34RoundRect,0.112500X-0.237500X-0.112500X0.237500X-0.112500X0.237500X0.112500X-0.237500X0.112500X0*%
%ADD35RoundRect,0.112500X-0.175000X-0.112500X0.175000X-0.112500X0.175000X0.112500X-0.175000X0.112500X0*%
%ADD36RoundRect,0.079500X-0.100500X0.079500X-0.100500X-0.079500X0.100500X-0.079500X0.100500X0.079500X0*%
%ADD37RoundRect,0.150000X-0.587500X-0.150000X0.587500X-0.150000X0.587500X0.150000X-0.587500X0.150000X0*%
%ADD38RoundRect,0.250000X0.525000X0.250000X-0.525000X0.250000X-0.525000X-0.250000X0.525000X-0.250000X0*%
%ADD39R,1.800000X1.000000*%
%ADD40R,0.700000X1.100000*%
%ADD41R,0.900000X0.930000*%
%ADD42R,1.050000X0.780000*%
%ADD43R,0.700000X3.330000*%
%ADD44R,1.140000X1.830000*%
%ADD45R,0.860000X2.800000*%
%ADD46RoundRect,0.200000X-0.200000X-0.275000X0.200000X-0.275000X0.200000X0.275000X-0.200000X0.275000X0*%
%ADD47RoundRect,0.150000X0.587500X0.150000X-0.587500X0.150000X-0.587500X-0.150000X0.587500X-0.150000X0*%
%ADD48R,0.406400X0.609600*%
%ADD49R,0.609600X0.406400*%
%ADD50RoundRect,0.150000X-0.150000X0.512500X-0.150000X-0.512500X0.150000X-0.512500X0.150000X0.512500X0*%
%ADD51R,0.300000X1.300000*%
%ADD52R,1.800000X2.200000*%
%ADD53R,0.200000X0.700000*%
G04 APERTURE END LIST*
%TO.C,D23*%
D10*
X46606000Y5135531D02*
G75*
G02*
X46478000Y5135531I-64000J0D01*
G01*
X46478000Y5135531D02*
G75*
G02*
X46606000Y5135531I64000J0D01*
G01*
X47022000Y5135531D02*
G75*
G02*
X46894000Y5135531I-64000J0D01*
G01*
X46894000Y5135531D02*
G75*
G02*
X47022000Y5135531I64000J0D01*
G01*
%TO.C,D24*%
X84631000Y5448031D02*
G75*
G02*
X84503000Y5448031I-64000J0D01*
G01*
X84503000Y5448031D02*
G75*
G02*
X84631000Y5448031I64000J0D01*
G01*
X85047000Y5448031D02*
G75*
G02*
X84919000Y5448031I-64000J0D01*
G01*
X84919000Y5448031D02*
G75*
G02*
X85047000Y5448031I64000J0D01*
G01*
%TD*%
D11*
%TO.C,R12*%
X75380305Y32750000D03*
X75380305Y34400000D03*
%TD*%
D12*
%TO.C,C13*%
X45430305Y80800000D03*
X45430305Y78900000D03*
%TD*%
D13*
%TO.C,U1*%
X21125305Y71700000D03*
X21125305Y70750000D03*
X21125305Y69800000D03*
X23400305Y69800000D03*
X23400305Y71700000D03*
%TD*%
D14*
%TO.C,C24*%
X77380305Y32750000D03*
X77380305Y34650000D03*
%TD*%
D15*
%TO.C,D12*%
X83000000Y13123031D03*
X84900000Y13123031D03*
X83950000Y14998031D03*
%TD*%
D16*
%TO.C,Q1*%
X91980305Y53737500D03*
X90080305Y53737500D03*
X91030305Y51862500D03*
%TD*%
D12*
%TO.C,C26*%
X79830305Y36850000D03*
X79830305Y34950000D03*
%TD*%
D15*
%TO.C,D13*%
X59600000Y2900000D03*
X61500000Y2900000D03*
X60550000Y4775000D03*
%TD*%
D17*
%TO.C,J5*%
X9135305Y51480694D03*
X9135305Y50980568D03*
X9135305Y50480442D03*
X9135305Y49980316D03*
X9135305Y49480190D03*
X9135305Y48980064D03*
X9135305Y48479938D03*
X9135305Y47979812D03*
X9135305Y47479686D03*
X9135305Y46979560D03*
X9135305Y46479434D03*
X9135305Y45979308D03*
%TD*%
D18*
%TO.C,D25*%
X13330305Y51200000D03*
X13330305Y51900000D03*
%TD*%
D19*
%TO.C,R10*%
X52105305Y80675000D03*
X52105305Y79025000D03*
%TD*%
%TO.C,R11*%
X92030305Y48125000D03*
X92030305Y46475000D03*
%TD*%
D16*
%TO.C,D10*%
X79600000Y4748031D03*
X77700000Y4748031D03*
X78650000Y2873031D03*
%TD*%
D19*
%TO.C,R22*%
X13400305Y43865000D03*
X13400305Y42215000D03*
%TD*%
D20*
%TO.C,C3*%
X13405305Y74675000D03*
X13405305Y73125000D03*
%TD*%
D21*
%TO.C,U4*%
X83067805Y73200000D03*
X83067805Y72550000D03*
X83067805Y71900000D03*
X83067805Y71250000D03*
X83067805Y70600000D03*
X83067805Y69950000D03*
X83067805Y69300000D03*
X83067805Y68650000D03*
X83067805Y68000000D03*
X83067805Y67350000D03*
X88792805Y67350000D03*
X88792805Y68000000D03*
X88792805Y68650000D03*
X88792805Y69300000D03*
X88792805Y69950000D03*
X88792805Y70600000D03*
X88792805Y71250000D03*
X88792805Y71900000D03*
X88792805Y72550000D03*
X88792805Y73200000D03*
%TD*%
D22*
%TO.C,C32*%
X10930305Y30850000D03*
X10930305Y32400000D03*
%TD*%
D19*
%TO.C,R21*%
X13370305Y9305000D03*
X13370305Y7655000D03*
%TD*%
D23*
%TO.C,R8*%
X79055305Y70375000D03*
X77405305Y70375000D03*
%TD*%
D24*
%TO.C,C12*%
X91230305Y74955000D03*
X89330305Y74955000D03*
%TD*%
D11*
%TO.C,R5*%
X94130305Y65900000D03*
X94130305Y67550000D03*
%TD*%
D25*
%TO.C,U6*%
X85530305Y81140000D03*
X86480305Y81140000D03*
X87430305Y81140000D03*
X87430305Y83415000D03*
X85530305Y83415000D03*
%TD*%
D16*
%TO.C,D16*%
X59000000Y14960531D03*
X57100000Y14960531D03*
X58050000Y13085531D03*
%TD*%
D26*
%TO.C,D19*%
X41330305Y10200000D03*
X41330305Y9500000D03*
%TD*%
D13*
%TO.C,U5*%
X47705305Y80800000D03*
X47705305Y79850000D03*
X47705305Y78900000D03*
X49980305Y78900000D03*
X49980305Y80800000D03*
%TD*%
D22*
%TO.C,C11*%
X93230305Y69950000D03*
X93230305Y71500000D03*
%TD*%
D19*
%TO.C,R18*%
X12830305Y34025000D03*
X12830305Y32375000D03*
%TD*%
D22*
%TO.C,C22*%
X75830305Y67250000D03*
X75830305Y68800000D03*
%TD*%
D20*
%TO.C,C31*%
X10930305Y35600000D03*
X10930305Y34050000D03*
%TD*%
D27*
%TO.C,C33*%
X4930305Y25400000D03*
X12330305Y25400000D03*
%TD*%
D26*
%TO.C,D22*%
X18080305Y77270000D03*
X18080305Y76570000D03*
%TD*%
D28*
%TO.C,C27*%
X81120305Y39460000D03*
X79570305Y39460000D03*
%TD*%
D11*
%TO.C,R4*%
X95830305Y70650000D03*
X95830305Y72300000D03*
%TD*%
D19*
%TO.C,R1*%
X16630305Y74725000D03*
X16630305Y73075000D03*
%TD*%
D16*
%TO.C,D18*%
X48780305Y14998031D03*
X46880305Y14998031D03*
X47830305Y13123031D03*
%TD*%
D11*
%TO.C,R7*%
X90930305Y65900000D03*
X90930305Y67550000D03*
%TD*%
D15*
%TO.C,D15*%
X49425000Y2862500D03*
X51325000Y2862500D03*
X50375000Y4737500D03*
%TD*%
D20*
%TO.C,C25*%
X81680305Y36650000D03*
X81680305Y35100000D03*
%TD*%
D22*
%TO.C,C18*%
X80730305Y70900000D03*
X80730305Y72450000D03*
%TD*%
D29*
%TO.C,C30*%
X11030305Y39500000D03*
X6630305Y39500000D03*
%TD*%
D24*
%TO.C,C29*%
X92380305Y60137500D03*
X90480305Y60137500D03*
%TD*%
D17*
%TO.C,J4*%
X9145305Y15265504D03*
X9145305Y14765378D03*
X9145305Y14265252D03*
X9145305Y13765126D03*
X9145305Y13265000D03*
X9145305Y12764874D03*
X9145305Y12264748D03*
X9145305Y11764622D03*
X9145305Y11264496D03*
X9145305Y10764370D03*
X9145305Y10264244D03*
X9145305Y9764118D03*
%TD*%
D30*
%TO.C,C17*%
X84480305Y74775000D03*
X86030305Y74775000D03*
%TD*%
D31*
%TO.C,FB3*%
X74985305Y36850000D03*
X75675305Y36850000D03*
%TD*%
D20*
%TO.C,C16*%
X80730305Y68325000D03*
X80730305Y66775000D03*
%TD*%
D32*
%TO.C,C14*%
X80630305Y74875000D03*
X82530305Y74875000D03*
%TD*%
D23*
%TO.C,R9*%
X79030305Y68775000D03*
X77380305Y68775000D03*
%TD*%
D16*
%TO.C,D17*%
X53875000Y14985531D03*
X51975000Y14985531D03*
X52925000Y13110531D03*
%TD*%
D33*
%TO.C,U2*%
X13180305Y19814811D03*
X13180305Y19314811D03*
D34*
X13217805Y18814811D03*
D33*
X13180305Y18314811D03*
X13180305Y17814811D03*
X13955305Y17814811D03*
X13955305Y18314811D03*
D35*
X13980305Y18814811D03*
D33*
X13955305Y19314811D03*
X13955305Y19814811D03*
%TD*%
D15*
%TO.C,D7*%
X67525000Y13175000D03*
X69425000Y13175000D03*
X68475000Y15050000D03*
%TD*%
D36*
%TO.C,FB1*%
X89330305Y77140000D03*
X89330305Y76450000D03*
%TD*%
D11*
%TO.C,R19*%
X5530305Y32550000D03*
X5530305Y34200000D03*
%TD*%
D37*
%TO.C,D3*%
X14362805Y49700000D03*
X14362805Y47800000D03*
X16237805Y48750000D03*
%TD*%
D36*
%TO.C,FB2*%
X83410305Y76975000D03*
X83410305Y76285000D03*
%TD*%
D12*
%TO.C,C1*%
X18750305Y72650000D03*
X18750305Y70750000D03*
%TD*%
D24*
%TO.C,C5*%
X49755305Y83025000D03*
X47855305Y83025000D03*
%TD*%
D19*
%TO.C,R20*%
X17010305Y16770000D03*
X17010305Y15120000D03*
%TD*%
D24*
%TO.C,C2*%
X23125305Y74100000D03*
X21225305Y74100000D03*
%TD*%
D38*
%TO.C,SW1*%
X12355305Y66950000D03*
X7105305Y66950000D03*
X12355305Y70150000D03*
X7105305Y70150000D03*
%TD*%
D14*
%TO.C,C23*%
X83430305Y81190000D03*
X83430305Y83090000D03*
%TD*%
D39*
%TO.C,Y1*%
X80070305Y41110000D03*
X80070305Y43610000D03*
%TD*%
D11*
%TO.C,R3*%
X95830305Y67450000D03*
X95830305Y69100000D03*
%TD*%
D20*
%TO.C,C4*%
X15030305Y74675000D03*
X15030305Y73125000D03*
%TD*%
D11*
%TO.C,R6*%
X92530305Y65900000D03*
X92530305Y67550000D03*
%TD*%
D17*
%TO.C,J2*%
X9345305Y81850760D03*
X9345305Y81350634D03*
X9345305Y80850508D03*
X9345305Y80350382D03*
X9345305Y79850256D03*
X9345305Y79350130D03*
X9345305Y78850004D03*
X9345305Y78349878D03*
X9345305Y77849752D03*
X9345305Y77349626D03*
X9345305Y76849500D03*
X9345305Y76349374D03*
%TD*%
D40*
%TO.C,J8*%
X34230305Y86800000D03*
X35330305Y86800000D03*
X36430305Y86800000D03*
X37530305Y86800000D03*
X38630305Y86800000D03*
X39730305Y86800000D03*
X40830305Y86800000D03*
X41930305Y86800000D03*
D41*
X32440305Y74335000D03*
D42*
X36705305Y74260000D03*
D43*
X30130305Y75535000D03*
D44*
X30350305Y86785000D03*
D45*
X43010305Y86300000D03*
D43*
X43090305Y75535000D03*
%TD*%
D16*
%TO.C,D8*%
X74425000Y4748031D03*
X72525000Y4748031D03*
X73475000Y2873031D03*
%TD*%
D23*
%TO.C,R16*%
X85305305Y57937500D03*
X83655305Y57937500D03*
%TD*%
D26*
%TO.C,D21*%
X13330305Y15260000D03*
X13330305Y14560000D03*
%TD*%
D15*
%TO.C,D6*%
X72575000Y13148031D03*
X74475000Y13148031D03*
X73525000Y15023031D03*
%TD*%
D46*
%TO.C,R23*%
X14855305Y43070000D03*
X16505305Y43070000D03*
%TD*%
D15*
%TO.C,D11*%
X77700000Y13148031D03*
X79600000Y13148031D03*
X78650000Y15023031D03*
%TD*%
D14*
%TO.C,C15*%
X78730305Y65175000D03*
X78730305Y67075000D03*
%TD*%
D47*
%TO.C,D2*%
X17417805Y11595000D03*
X17417805Y13495000D03*
X15542805Y12545000D03*
%TD*%
D11*
%TO.C,R2*%
X90455305Y46500000D03*
X90455305Y48150000D03*
%TD*%
D37*
%TO.C,D5*%
X15030305Y83750000D03*
X15030305Y81850000D03*
X16905305Y82800000D03*
%TD*%
D22*
%TO.C,C21*%
X75830305Y70325000D03*
X75830305Y71875000D03*
%TD*%
D33*
%TO.C,U3*%
X13170305Y56040000D03*
X13170305Y55540000D03*
D34*
X13207805Y55040000D03*
D33*
X13170305Y54540000D03*
X13170305Y54040000D03*
X13945305Y54040000D03*
X13945305Y54540000D03*
D35*
X13970305Y55040000D03*
D33*
X13945305Y55540000D03*
X13945305Y56040000D03*
%TD*%
D48*
%TO.C,U7*%
X97180305Y44200000D03*
X96080305Y44200000D03*
X95280305Y44200000D03*
X93680305Y44200000D03*
X93280305Y43300000D03*
X92880305Y44200000D03*
X92480305Y43300000D03*
X92080305Y44200000D03*
X91680305Y43300000D03*
X91280305Y44200000D03*
X90880305Y43300000D03*
X90480305Y44200000D03*
X90080305Y43300000D03*
X89680305Y44200000D03*
D49*
X86280305Y44349999D03*
X86280305Y43549998D03*
X86280305Y42749997D03*
X86280305Y41949998D03*
X87180305Y41549998D03*
X86280305Y41149997D03*
X87180305Y40749997D03*
X86280305Y40349999D03*
X87180305Y39949999D03*
X86280305Y39549998D03*
X87180305Y39149998D03*
X86280305Y38749997D03*
X87180305Y38349997D03*
X86280305Y37949999D03*
X87180305Y37549999D03*
X86280305Y37149998D03*
X86280305Y36349999D03*
X86280305Y35549998D03*
X86280305Y34750000D03*
D48*
X87280305Y34900000D03*
X88080305Y34900000D03*
X88480305Y35800000D03*
X88880305Y34900000D03*
X89280305Y35800000D03*
X89680305Y34900000D03*
X90080305Y35800000D03*
X90480305Y34900000D03*
X90880305Y35800000D03*
X91680305Y35800000D03*
X92080305Y34900000D03*
X92480305Y35800000D03*
X92880305Y34900000D03*
X93280305Y35800000D03*
X93680305Y34900000D03*
X94080305Y35800000D03*
X94880305Y35800000D03*
X95280305Y34900000D03*
X95680305Y35800000D03*
X96080305Y34900000D03*
X96480305Y35800000D03*
X97180305Y34900000D03*
D49*
X92880305Y41549998D03*
X92880305Y40749997D03*
X92880305Y39949999D03*
X92880305Y39149998D03*
X92880305Y38349997D03*
X92880305Y37549999D03*
%TD*%
D15*
%TO.C,D14*%
X54550000Y2873031D03*
X56450000Y2873031D03*
X55500000Y4748031D03*
%TD*%
D37*
%TO.C,D4*%
X15030305Y80050000D03*
X15030305Y78150000D03*
X16905305Y79100000D03*
%TD*%
D23*
%TO.C,R17*%
X96680305Y53737500D03*
X95030305Y53737500D03*
%TD*%
D50*
%TO.C,U8*%
X9130305Y34275000D03*
X8180305Y34275000D03*
X7230305Y34275000D03*
X7230305Y32000000D03*
X8180305Y32000000D03*
X9130305Y32000000D03*
%TD*%
D30*
%TO.C,C28*%
X79670305Y45260000D03*
X81220305Y45260000D03*
%TD*%
D51*
%TO.C,J6*%
X65840305Y74440000D03*
X65340305Y74440000D03*
X64840305Y74440000D03*
X64340305Y74440000D03*
X63840305Y74440000D03*
X63340305Y74440000D03*
X62840305Y74440000D03*
X62340305Y74440000D03*
X61840305Y74440000D03*
X61340305Y74440000D03*
X60840305Y74440000D03*
X60340305Y74440000D03*
X59840305Y74440000D03*
X59340305Y74440000D03*
X58840305Y74440000D03*
X58340305Y74440000D03*
X57840305Y74440000D03*
X57340305Y74440000D03*
X56840305Y74440000D03*
X56340305Y74440000D03*
X55840305Y74440000D03*
X55340305Y74440000D03*
D52*
X53440305Y71190000D03*
X67740305Y71190000D03*
%TD*%
D16*
%TO.C,D9*%
X69425000Y4748031D03*
X67525000Y4748031D03*
X68475000Y2873031D03*
%TD*%
D24*
%TO.C,C19*%
X87180305Y78740000D03*
X85280305Y78740000D03*
%TD*%
D46*
%TO.C,R15*%
X75930305Y44850000D03*
X77580305Y44850000D03*
%TD*%
D12*
%TO.C,C20*%
X91330305Y73140000D03*
X91330305Y71240000D03*
%TD*%
D46*
%TO.C,R31*%
X21805305Y61800000D03*
X23455305Y61800000D03*
%TD*%
D53*
%TO.C,J7*%
X52180305Y58890000D03*
X52180305Y55810000D03*
X51780305Y58890000D03*
X51780305Y55810000D03*
X51380305Y58890000D03*
X51380305Y55810000D03*
X50980305Y58890000D03*
X50980305Y55810000D03*
X50580305Y58890000D03*
X50580305Y55810000D03*
X50180305Y58890000D03*
X50180305Y55810000D03*
X49780305Y58890000D03*
X49780305Y55810000D03*
X49380305Y58890000D03*
X49380305Y55810000D03*
X48980305Y58890000D03*
X48980305Y55810000D03*
X48580305Y58890000D03*
X48580305Y55810000D03*
X48180305Y58890000D03*
X48180305Y55810000D03*
X47780305Y58890000D03*
X47780305Y55810000D03*
X47380305Y58890000D03*
X47380305Y55810000D03*
X46980305Y58890000D03*
X46980305Y55810000D03*
X46580305Y58890000D03*
X46580305Y55810000D03*
X46180305Y58890000D03*
X46180305Y55810000D03*
X45780305Y58890000D03*
X45780305Y55810000D03*
X45380305Y58890000D03*
X45380305Y55810000D03*
X44980305Y58890000D03*
X44980305Y55810000D03*
X44580305Y58890000D03*
X44580305Y55810000D03*
X44180305Y58890000D03*
X44180305Y55810000D03*
X43780305Y58890000D03*
X43780305Y55810000D03*
X43380305Y58890000D03*
X43380305Y55810000D03*
X42980305Y58890000D03*
X42980305Y55810000D03*
X42580305Y58890000D03*
X42580305Y55810000D03*
X42180305Y58890000D03*
X42180305Y55810000D03*
X41780305Y58890000D03*
X41780305Y55810000D03*
X41380305Y58890000D03*
X41380305Y55810000D03*
X40980305Y58890000D03*
X40980305Y55810000D03*
X40580305Y58890000D03*
X40580305Y55810000D03*
X40180305Y58890000D03*
X40180305Y55810000D03*
X39780305Y58890000D03*
X39780305Y55810000D03*
X39380305Y58890000D03*
X39380305Y55810000D03*
X38980305Y58890000D03*
X38980305Y55810000D03*
X38580305Y58890000D03*
X38580305Y55810000D03*
X38180305Y58890000D03*
X38180305Y55810000D03*
X37780305Y58890000D03*
X37780305Y55810000D03*
X37380305Y58890000D03*
X37380305Y55810000D03*
X36980305Y58890000D03*
X36980305Y55810000D03*
X36580305Y58890000D03*
X36580305Y55810000D03*
X36180305Y58890000D03*
X36180305Y55810000D03*
X35780305Y58890000D03*
X35780305Y55810000D03*
X35380305Y58890000D03*
X35380305Y55810000D03*
X34980305Y58890000D03*
X34980305Y55810000D03*
X34580305Y58890000D03*
X34580305Y55810000D03*
X34180305Y58890000D03*
X34180305Y55810000D03*
X33780305Y58890000D03*
X33780305Y55810000D03*
X33380305Y58890000D03*
X33380305Y55810000D03*
X32980305Y58890000D03*
X32980305Y55810000D03*
X32580305Y58890000D03*
X32580305Y55810000D03*
X52180305Y24890000D03*
X52180305Y21810000D03*
X51780305Y24890000D03*
X51780305Y21810000D03*
X51380305Y24890000D03*
X51380305Y21810000D03*
X50980305Y24890000D03*
X50980305Y21810000D03*
X50580305Y24890000D03*
X50580305Y21810000D03*
X50180305Y24890000D03*
X50180305Y21810000D03*
X49780305Y24890000D03*
X49780305Y21810000D03*
X49380305Y24890000D03*
X49380305Y21810000D03*
X48980305Y24890000D03*
X48980305Y21810000D03*
X48580305Y24890000D03*
X48580305Y21810000D03*
X48180305Y24890000D03*
X48180305Y21810000D03*
X47780305Y24890000D03*
X47780305Y21810000D03*
X47380305Y24890000D03*
X47380305Y21810000D03*
X46980305Y24890000D03*
X46980305Y21810000D03*
X46580305Y24890000D03*
X46580305Y21810000D03*
X46180305Y24890000D03*
X46180305Y21810000D03*
X45780305Y24890000D03*
X45780305Y21810000D03*
X45380305Y24890000D03*
X45380305Y21810000D03*
X44980305Y24890000D03*
X44980305Y21810000D03*
X44580305Y24890000D03*
X44580305Y21810000D03*
X44180305Y24890000D03*
X44180305Y21810000D03*
X43780305Y24890000D03*
X43780305Y21810000D03*
X43380305Y24890000D03*
X43380305Y21810000D03*
X42980305Y24890000D03*
X42980305Y21810000D03*
X42580305Y24890000D03*
X42580305Y21810000D03*
X42180305Y24890000D03*
X42180305Y21810000D03*
X41780305Y24890000D03*
X41780305Y21810000D03*
X41380305Y24890000D03*
X41380305Y21810000D03*
X40980305Y24890000D03*
X40980305Y21810000D03*
X40580305Y24890000D03*
X40580305Y21810000D03*
X40180305Y24890000D03*
X40180305Y21810000D03*
X39780305Y24890000D03*
X39780305Y21810000D03*
X39380305Y24890000D03*
X39380305Y21810000D03*
X38980305Y24890000D03*
X38980305Y21810000D03*
X38580305Y24890000D03*
X38580305Y21810000D03*
X38180305Y24890000D03*
X38180305Y21810000D03*
X37780305Y24890000D03*
X37780305Y21810000D03*
X37380305Y24890000D03*
X37380305Y21810000D03*
X36980305Y24890000D03*
X36980305Y21810000D03*
X36580305Y24890000D03*
X36580305Y21810000D03*
X36180305Y24890000D03*
X36180305Y21810000D03*
X35780305Y24890000D03*
X35780305Y21810000D03*
X35380305Y24890000D03*
X35380305Y21810000D03*
X34980305Y24890000D03*
X34980305Y21810000D03*
X34580305Y24890000D03*
X34580305Y21810000D03*
X34180305Y24890000D03*
X34180305Y21810000D03*
X33780305Y24890000D03*
X33780305Y21810000D03*
X33380305Y24890000D03*
X33380305Y21810000D03*
X32980305Y24890000D03*
X32980305Y21810000D03*
X32580305Y24890000D03*
X32580305Y21810000D03*
%TD*%
M02*
