%TF.GenerationSoftware,KiCad,Pcbnew,10.0.5-1.fc44app2*%
%TF.CreationDate,2026-09-05T12:07:09+01:00*%
%TF.ProjectId,mainboard,6d61696e-626f-4617-9264-2e6b69636164,0.1*%
%TF.SameCoordinates,PX4b9a3f8PY7a1c817*%
%TF.FileFunction,Legend,Bot*%
%TF.FilePolarity,Positive*%
%FSLAX46Y46*%
G04 Gerber Fmt 4.6, Leading zero omitted, Abs format (unit mm)*
G04 Created by KiCad (PCBNEW 10.0.5-1.fc44app2) date 2026-09-05 12:07:09*
%MOMM*%
%LPD*%
G01*
G04 APERTURE LIST*
%ADD10C,0.150000*%
%ADD11C,0.100000*%
%ADD12C,0.125000*%
%ADD13C,0.120000*%
G04 APERTURE END LIST*
D10*
X75777362Y43557031D02*
X76377362Y43557031D01*
X75863076Y43557031D02*
X75820219Y43514174D01*
X75820219Y43514174D02*
X75777362Y43428459D01*
X75777362Y43428459D02*
X75777362Y43299888D01*
X75777362Y43299888D02*
X75820219Y43214174D01*
X75820219Y43214174D02*
X75905933Y43171316D01*
X75905933Y43171316D02*
X76377362Y43171316D01*
X76377362Y42228459D02*
X75948790Y42528459D01*
X76377362Y42742745D02*
X75477362Y42742745D01*
X75477362Y42742745D02*
X75477362Y42399888D01*
X75477362Y42399888D02*
X75520219Y42314173D01*
X75520219Y42314173D02*
X75563076Y42271316D01*
X75563076Y42271316D02*
X75648790Y42228459D01*
X75648790Y42228459D02*
X75777362Y42228459D01*
X75777362Y42228459D02*
X75863076Y42271316D01*
X75863076Y42271316D02*
X75905933Y42314173D01*
X75905933Y42314173D02*
X75948790Y42399888D01*
X75948790Y42399888D02*
X75948790Y42742745D01*
X75905933Y41842745D02*
X75905933Y41542745D01*
X76377362Y41414173D02*
X76377362Y41842745D01*
X76377362Y41842745D02*
X75477362Y41842745D01*
X75477362Y41842745D02*
X75477362Y41414173D01*
X76334505Y41071316D02*
X76377362Y40942744D01*
X76377362Y40942744D02*
X76377362Y40728459D01*
X76377362Y40728459D02*
X76334505Y40642744D01*
X76334505Y40642744D02*
X76291647Y40599887D01*
X76291647Y40599887D02*
X76205933Y40557030D01*
X76205933Y40557030D02*
X76120219Y40557030D01*
X76120219Y40557030D02*
X76034505Y40599887D01*
X76034505Y40599887D02*
X75991647Y40642744D01*
X75991647Y40642744D02*
X75948790Y40728459D01*
X75948790Y40728459D02*
X75905933Y40899887D01*
X75905933Y40899887D02*
X75863076Y40985602D01*
X75863076Y40985602D02*
X75820219Y41028459D01*
X75820219Y41028459D02*
X75734505Y41071316D01*
X75734505Y41071316D02*
X75648790Y41071316D01*
X75648790Y41071316D02*
X75563076Y41028459D01*
X75563076Y41028459D02*
X75520219Y40985602D01*
X75520219Y40985602D02*
X75477362Y40899887D01*
X75477362Y40899887D02*
X75477362Y40685602D01*
X75477362Y40685602D02*
X75520219Y40557030D01*
X75905933Y40171316D02*
X75905933Y39871316D01*
X76377362Y39742744D02*
X76377362Y40171316D01*
X76377362Y40171316D02*
X75477362Y40171316D01*
X75477362Y40171316D02*
X75477362Y39742744D01*
X75477362Y39485601D02*
X75477362Y38971315D01*
X76377362Y39228458D02*
X75477362Y39228458D01*
D11*
X43996771Y14616116D02*
X43996771Y13854211D01*
X44377724Y14235164D02*
X43615819Y14235164D01*
X43377724Y12901831D02*
X43377724Y13378021D01*
X43377724Y13378021D02*
X43853914Y13425640D01*
X43853914Y13425640D02*
X43806295Y13378021D01*
X43806295Y13378021D02*
X43758676Y13282783D01*
X43758676Y13282783D02*
X43758676Y13044688D01*
X43758676Y13044688D02*
X43806295Y12949450D01*
X43806295Y12949450D02*
X43853914Y12901831D01*
X43853914Y12901831D02*
X43949152Y12854212D01*
X43949152Y12854212D02*
X44187247Y12854212D01*
X44187247Y12854212D02*
X44282485Y12901831D01*
X44282485Y12901831D02*
X44330105Y12949450D01*
X44330105Y12949450D02*
X44377724Y13044688D01*
X44377724Y13044688D02*
X44377724Y13282783D01*
X44377724Y13282783D02*
X44330105Y13378021D01*
X44330105Y13378021D02*
X44282485Y13425640D01*
X43711057Y12520878D02*
X44377724Y12282783D01*
X44377724Y12282783D02*
X43711057Y12044688D01*
X44066771Y5816116D02*
X44066771Y5054211D01*
X44447724Y5435164D02*
X43685819Y5435164D01*
X43447724Y4101831D02*
X43447724Y4578021D01*
X43447724Y4578021D02*
X43923914Y4625640D01*
X43923914Y4625640D02*
X43876295Y4578021D01*
X43876295Y4578021D02*
X43828676Y4482783D01*
X43828676Y4482783D02*
X43828676Y4244688D01*
X43828676Y4244688D02*
X43876295Y4149450D01*
X43876295Y4149450D02*
X43923914Y4101831D01*
X43923914Y4101831D02*
X44019152Y4054212D01*
X44019152Y4054212D02*
X44257247Y4054212D01*
X44257247Y4054212D02*
X44352485Y4101831D01*
X44352485Y4101831D02*
X44400105Y4149450D01*
X44400105Y4149450D02*
X44447724Y4244688D01*
X44447724Y4244688D02*
X44447724Y4482783D01*
X44447724Y4482783D02*
X44400105Y4578021D01*
X44400105Y4578021D02*
X44352485Y4625640D01*
X43781057Y3720878D02*
X44447724Y3482783D01*
X44447724Y3482783D02*
X43781057Y3244688D01*
X46576771Y5816116D02*
X46576771Y5054211D01*
X46957724Y5435164D02*
X46195819Y5435164D01*
X45957724Y4673259D02*
X45957724Y4054212D01*
X45957724Y4054212D02*
X46338676Y4387545D01*
X46338676Y4387545D02*
X46338676Y4244688D01*
X46338676Y4244688D02*
X46386295Y4149450D01*
X46386295Y4149450D02*
X46433914Y4101831D01*
X46433914Y4101831D02*
X46529152Y4054212D01*
X46529152Y4054212D02*
X46767247Y4054212D01*
X46767247Y4054212D02*
X46862485Y4101831D01*
X46862485Y4101831D02*
X46910105Y4149450D01*
X46910105Y4149450D02*
X46957724Y4244688D01*
X46957724Y4244688D02*
X46957724Y4530402D01*
X46957724Y4530402D02*
X46910105Y4625640D01*
X46910105Y4625640D02*
X46862485Y4673259D01*
X46291057Y3720878D02*
X46957724Y3482783D01*
X46957724Y3482783D02*
X46291057Y3244688D01*
X45957724Y2958973D02*
X45957724Y2339926D01*
X45957724Y2339926D02*
X46338676Y2673259D01*
X46338676Y2673259D02*
X46338676Y2530402D01*
X46338676Y2530402D02*
X46386295Y2435164D01*
X46386295Y2435164D02*
X46433914Y2387545D01*
X46433914Y2387545D02*
X46529152Y2339926D01*
X46529152Y2339926D02*
X46767247Y2339926D01*
X46767247Y2339926D02*
X46862485Y2387545D01*
X46862485Y2387545D02*
X46910105Y2435164D01*
X46910105Y2435164D02*
X46957724Y2530402D01*
X46957724Y2530402D02*
X46957724Y2816116D01*
X46957724Y2816116D02*
X46910105Y2911354D01*
X46910105Y2911354D02*
X46862485Y2958973D01*
X46175343Y14142307D02*
X46127724Y14237545D01*
X46127724Y14237545D02*
X46127724Y14380402D01*
X46127724Y14380402D02*
X46175343Y14523259D01*
X46175343Y14523259D02*
X46270581Y14618497D01*
X46270581Y14618497D02*
X46365819Y14666116D01*
X46365819Y14666116D02*
X46556295Y14713735D01*
X46556295Y14713735D02*
X46699152Y14713735D01*
X46699152Y14713735D02*
X46889628Y14666116D01*
X46889628Y14666116D02*
X46984866Y14618497D01*
X46984866Y14618497D02*
X47080105Y14523259D01*
X47080105Y14523259D02*
X47127724Y14380402D01*
X47127724Y14380402D02*
X47127724Y14285164D01*
X47127724Y14285164D02*
X47080105Y14142307D01*
X47080105Y14142307D02*
X47032485Y14094688D01*
X47032485Y14094688D02*
X46699152Y14094688D01*
X46699152Y14094688D02*
X46699152Y14285164D01*
X47127724Y13666116D02*
X46127724Y13666116D01*
X46127724Y13666116D02*
X47127724Y13094688D01*
X47127724Y13094688D02*
X46127724Y13094688D01*
X47127724Y12618497D02*
X46127724Y12618497D01*
X46127724Y12618497D02*
X46127724Y12380402D01*
X46127724Y12380402D02*
X46175343Y12237545D01*
X46175343Y12237545D02*
X46270581Y12142307D01*
X46270581Y12142307D02*
X46365819Y12094688D01*
X46365819Y12094688D02*
X46556295Y12047069D01*
X46556295Y12047069D02*
X46699152Y12047069D01*
X46699152Y12047069D02*
X46889628Y12094688D01*
X46889628Y12094688D02*
X46984866Y12142307D01*
X46984866Y12142307D02*
X47080105Y12237545D01*
X47080105Y12237545D02*
X47127724Y12380402D01*
X47127724Y12380402D02*
X47127724Y12618497D01*
X48635343Y15012307D02*
X48587724Y15107545D01*
X48587724Y15107545D02*
X48587724Y15250402D01*
X48587724Y15250402D02*
X48635343Y15393259D01*
X48635343Y15393259D02*
X48730581Y15488497D01*
X48730581Y15488497D02*
X48825819Y15536116D01*
X48825819Y15536116D02*
X49016295Y15583735D01*
X49016295Y15583735D02*
X49159152Y15583735D01*
X49159152Y15583735D02*
X49349628Y15536116D01*
X49349628Y15536116D02*
X49444866Y15488497D01*
X49444866Y15488497D02*
X49540105Y15393259D01*
X49540105Y15393259D02*
X49587724Y15250402D01*
X49587724Y15250402D02*
X49587724Y15155164D01*
X49587724Y15155164D02*
X49540105Y15012307D01*
X49540105Y15012307D02*
X49492485Y14964688D01*
X49492485Y14964688D02*
X49159152Y14964688D01*
X49159152Y14964688D02*
X49159152Y15155164D01*
X49587724Y14536116D02*
X48587724Y14536116D01*
X48587724Y14536116D02*
X48587724Y14155164D01*
X48587724Y14155164D02*
X48635343Y14059926D01*
X48635343Y14059926D02*
X48682962Y14012307D01*
X48682962Y14012307D02*
X48778200Y13964688D01*
X48778200Y13964688D02*
X48921057Y13964688D01*
X48921057Y13964688D02*
X49016295Y14012307D01*
X49016295Y14012307D02*
X49063914Y14059926D01*
X49063914Y14059926D02*
X49111533Y14155164D01*
X49111533Y14155164D02*
X49111533Y14536116D01*
X48587724Y13345640D02*
X48587724Y13250402D01*
X48587724Y13250402D02*
X48635343Y13155164D01*
X48635343Y13155164D02*
X48682962Y13107545D01*
X48682962Y13107545D02*
X48778200Y13059926D01*
X48778200Y13059926D02*
X48968676Y13012307D01*
X48968676Y13012307D02*
X49206771Y13012307D01*
X49206771Y13012307D02*
X49397247Y13059926D01*
X49397247Y13059926D02*
X49492485Y13107545D01*
X49492485Y13107545D02*
X49540105Y13155164D01*
X49540105Y13155164D02*
X49587724Y13250402D01*
X49587724Y13250402D02*
X49587724Y13345640D01*
X49587724Y13345640D02*
X49540105Y13440878D01*
X49540105Y13440878D02*
X49492485Y13488497D01*
X49492485Y13488497D02*
X49397247Y13536116D01*
X49397247Y13536116D02*
X49206771Y13583735D01*
X49206771Y13583735D02*
X48968676Y13583735D01*
X48968676Y13583735D02*
X48778200Y13536116D01*
X48778200Y13536116D02*
X48682962Y13488497D01*
X48682962Y13488497D02*
X48635343Y13440878D01*
X48635343Y13440878D02*
X48587724Y13345640D01*
X48682962Y12631354D02*
X48635343Y12583735D01*
X48635343Y12583735D02*
X48587724Y12488497D01*
X48587724Y12488497D02*
X48587724Y12250402D01*
X48587724Y12250402D02*
X48635343Y12155164D01*
X48635343Y12155164D02*
X48682962Y12107545D01*
X48682962Y12107545D02*
X48778200Y12059926D01*
X48778200Y12059926D02*
X48873438Y12059926D01*
X48873438Y12059926D02*
X49016295Y12107545D01*
X49016295Y12107545D02*
X49587724Y12678973D01*
X49587724Y12678973D02*
X49587724Y12059926D01*
X48695343Y5232307D02*
X48647724Y5327545D01*
X48647724Y5327545D02*
X48647724Y5470402D01*
X48647724Y5470402D02*
X48695343Y5613259D01*
X48695343Y5613259D02*
X48790581Y5708497D01*
X48790581Y5708497D02*
X48885819Y5756116D01*
X48885819Y5756116D02*
X49076295Y5803735D01*
X49076295Y5803735D02*
X49219152Y5803735D01*
X49219152Y5803735D02*
X49409628Y5756116D01*
X49409628Y5756116D02*
X49504866Y5708497D01*
X49504866Y5708497D02*
X49600105Y5613259D01*
X49600105Y5613259D02*
X49647724Y5470402D01*
X49647724Y5470402D02*
X49647724Y5375164D01*
X49647724Y5375164D02*
X49600105Y5232307D01*
X49600105Y5232307D02*
X49552485Y5184688D01*
X49552485Y5184688D02*
X49219152Y5184688D01*
X49219152Y5184688D02*
X49219152Y5375164D01*
X49647724Y4756116D02*
X48647724Y4756116D01*
X48647724Y4756116D02*
X48647724Y4375164D01*
X48647724Y4375164D02*
X48695343Y4279926D01*
X48695343Y4279926D02*
X48742962Y4232307D01*
X48742962Y4232307D02*
X48838200Y4184688D01*
X48838200Y4184688D02*
X48981057Y4184688D01*
X48981057Y4184688D02*
X49076295Y4232307D01*
X49076295Y4232307D02*
X49123914Y4279926D01*
X49123914Y4279926D02*
X49171533Y4375164D01*
X49171533Y4375164D02*
X49171533Y4756116D01*
X48647724Y3565640D02*
X48647724Y3470402D01*
X48647724Y3470402D02*
X48695343Y3375164D01*
X48695343Y3375164D02*
X48742962Y3327545D01*
X48742962Y3327545D02*
X48838200Y3279926D01*
X48838200Y3279926D02*
X49028676Y3232307D01*
X49028676Y3232307D02*
X49266771Y3232307D01*
X49266771Y3232307D02*
X49457247Y3279926D01*
X49457247Y3279926D02*
X49552485Y3327545D01*
X49552485Y3327545D02*
X49600105Y3375164D01*
X49600105Y3375164D02*
X49647724Y3470402D01*
X49647724Y3470402D02*
X49647724Y3565640D01*
X49647724Y3565640D02*
X49600105Y3660878D01*
X49600105Y3660878D02*
X49552485Y3708497D01*
X49552485Y3708497D02*
X49457247Y3756116D01*
X49457247Y3756116D02*
X49266771Y3803735D01*
X49266771Y3803735D02*
X49028676Y3803735D01*
X49028676Y3803735D02*
X48838200Y3756116D01*
X48838200Y3756116D02*
X48742962Y3708497D01*
X48742962Y3708497D02*
X48695343Y3660878D01*
X48695343Y3660878D02*
X48647724Y3565640D01*
X48647724Y2898973D02*
X48647724Y2279926D01*
X48647724Y2279926D02*
X49028676Y2613259D01*
X49028676Y2613259D02*
X49028676Y2470402D01*
X49028676Y2470402D02*
X49076295Y2375164D01*
X49076295Y2375164D02*
X49123914Y2327545D01*
X49123914Y2327545D02*
X49219152Y2279926D01*
X49219152Y2279926D02*
X49457247Y2279926D01*
X49457247Y2279926D02*
X49552485Y2327545D01*
X49552485Y2327545D02*
X49600105Y2375164D01*
X49600105Y2375164D02*
X49647724Y2470402D01*
X49647724Y2470402D02*
X49647724Y2756116D01*
X49647724Y2756116D02*
X49600105Y2851354D01*
X49600105Y2851354D02*
X49552485Y2898973D01*
X51275343Y5262307D02*
X51227724Y5357545D01*
X51227724Y5357545D02*
X51227724Y5500402D01*
X51227724Y5500402D02*
X51275343Y5643259D01*
X51275343Y5643259D02*
X51370581Y5738497D01*
X51370581Y5738497D02*
X51465819Y5786116D01*
X51465819Y5786116D02*
X51656295Y5833735D01*
X51656295Y5833735D02*
X51799152Y5833735D01*
X51799152Y5833735D02*
X51989628Y5786116D01*
X51989628Y5786116D02*
X52084866Y5738497D01*
X52084866Y5738497D02*
X52180105Y5643259D01*
X52180105Y5643259D02*
X52227724Y5500402D01*
X52227724Y5500402D02*
X52227724Y5405164D01*
X52227724Y5405164D02*
X52180105Y5262307D01*
X52180105Y5262307D02*
X52132485Y5214688D01*
X52132485Y5214688D02*
X51799152Y5214688D01*
X51799152Y5214688D02*
X51799152Y5405164D01*
X52227724Y4786116D02*
X51227724Y4786116D01*
X51227724Y4786116D02*
X51227724Y4405164D01*
X51227724Y4405164D02*
X51275343Y4309926D01*
X51275343Y4309926D02*
X51322962Y4262307D01*
X51322962Y4262307D02*
X51418200Y4214688D01*
X51418200Y4214688D02*
X51561057Y4214688D01*
X51561057Y4214688D02*
X51656295Y4262307D01*
X51656295Y4262307D02*
X51703914Y4309926D01*
X51703914Y4309926D02*
X51751533Y4405164D01*
X51751533Y4405164D02*
X51751533Y4786116D01*
X51227724Y3595640D02*
X51227724Y3500402D01*
X51227724Y3500402D02*
X51275343Y3405164D01*
X51275343Y3405164D02*
X51322962Y3357545D01*
X51322962Y3357545D02*
X51418200Y3309926D01*
X51418200Y3309926D02*
X51608676Y3262307D01*
X51608676Y3262307D02*
X51846771Y3262307D01*
X51846771Y3262307D02*
X52037247Y3309926D01*
X52037247Y3309926D02*
X52132485Y3357545D01*
X52132485Y3357545D02*
X52180105Y3405164D01*
X52180105Y3405164D02*
X52227724Y3500402D01*
X52227724Y3500402D02*
X52227724Y3595640D01*
X52227724Y3595640D02*
X52180105Y3690878D01*
X52180105Y3690878D02*
X52132485Y3738497D01*
X52132485Y3738497D02*
X52037247Y3786116D01*
X52037247Y3786116D02*
X51846771Y3833735D01*
X51846771Y3833735D02*
X51608676Y3833735D01*
X51608676Y3833735D02*
X51418200Y3786116D01*
X51418200Y3786116D02*
X51322962Y3738497D01*
X51322962Y3738497D02*
X51275343Y3690878D01*
X51275343Y3690878D02*
X51227724Y3595640D01*
X51561057Y2405164D02*
X52227724Y2405164D01*
X51180105Y2643259D02*
X51894390Y2881354D01*
X51894390Y2881354D02*
X51894390Y2262307D01*
X51405343Y15052307D02*
X51357724Y15147545D01*
X51357724Y15147545D02*
X51357724Y15290402D01*
X51357724Y15290402D02*
X51405343Y15433259D01*
X51405343Y15433259D02*
X51500581Y15528497D01*
X51500581Y15528497D02*
X51595819Y15576116D01*
X51595819Y15576116D02*
X51786295Y15623735D01*
X51786295Y15623735D02*
X51929152Y15623735D01*
X51929152Y15623735D02*
X52119628Y15576116D01*
X52119628Y15576116D02*
X52214866Y15528497D01*
X52214866Y15528497D02*
X52310105Y15433259D01*
X52310105Y15433259D02*
X52357724Y15290402D01*
X52357724Y15290402D02*
X52357724Y15195164D01*
X52357724Y15195164D02*
X52310105Y15052307D01*
X52310105Y15052307D02*
X52262485Y15004688D01*
X52262485Y15004688D02*
X51929152Y15004688D01*
X51929152Y15004688D02*
X51929152Y15195164D01*
X52357724Y14576116D02*
X51357724Y14576116D01*
X51357724Y14576116D02*
X51357724Y14195164D01*
X51357724Y14195164D02*
X51405343Y14099926D01*
X51405343Y14099926D02*
X51452962Y14052307D01*
X51452962Y14052307D02*
X51548200Y14004688D01*
X51548200Y14004688D02*
X51691057Y14004688D01*
X51691057Y14004688D02*
X51786295Y14052307D01*
X51786295Y14052307D02*
X51833914Y14099926D01*
X51833914Y14099926D02*
X51881533Y14195164D01*
X51881533Y14195164D02*
X51881533Y14576116D01*
X52357724Y13052307D02*
X52357724Y13623735D01*
X52357724Y13338021D02*
X51357724Y13338021D01*
X51357724Y13338021D02*
X51500581Y13433259D01*
X51500581Y13433259D02*
X51595819Y13528497D01*
X51595819Y13528497D02*
X51643438Y13623735D01*
X51357724Y12718973D02*
X51357724Y12052307D01*
X51357724Y12052307D02*
X52357724Y12480878D01*
X53775343Y5262307D02*
X53727724Y5357545D01*
X53727724Y5357545D02*
X53727724Y5500402D01*
X53727724Y5500402D02*
X53775343Y5643259D01*
X53775343Y5643259D02*
X53870581Y5738497D01*
X53870581Y5738497D02*
X53965819Y5786116D01*
X53965819Y5786116D02*
X54156295Y5833735D01*
X54156295Y5833735D02*
X54299152Y5833735D01*
X54299152Y5833735D02*
X54489628Y5786116D01*
X54489628Y5786116D02*
X54584866Y5738497D01*
X54584866Y5738497D02*
X54680105Y5643259D01*
X54680105Y5643259D02*
X54727724Y5500402D01*
X54727724Y5500402D02*
X54727724Y5405164D01*
X54727724Y5405164D02*
X54680105Y5262307D01*
X54680105Y5262307D02*
X54632485Y5214688D01*
X54632485Y5214688D02*
X54299152Y5214688D01*
X54299152Y5214688D02*
X54299152Y5405164D01*
X54727724Y4786116D02*
X53727724Y4786116D01*
X53727724Y4786116D02*
X53727724Y4405164D01*
X53727724Y4405164D02*
X53775343Y4309926D01*
X53775343Y4309926D02*
X53822962Y4262307D01*
X53822962Y4262307D02*
X53918200Y4214688D01*
X53918200Y4214688D02*
X54061057Y4214688D01*
X54061057Y4214688D02*
X54156295Y4262307D01*
X54156295Y4262307D02*
X54203914Y4309926D01*
X54203914Y4309926D02*
X54251533Y4405164D01*
X54251533Y4405164D02*
X54251533Y4786116D01*
X54727724Y3738497D02*
X54727724Y3548021D01*
X54727724Y3548021D02*
X54680105Y3452783D01*
X54680105Y3452783D02*
X54632485Y3405164D01*
X54632485Y3405164D02*
X54489628Y3309926D01*
X54489628Y3309926D02*
X54299152Y3262307D01*
X54299152Y3262307D02*
X53918200Y3262307D01*
X53918200Y3262307D02*
X53822962Y3309926D01*
X53822962Y3309926D02*
X53775343Y3357545D01*
X53775343Y3357545D02*
X53727724Y3452783D01*
X53727724Y3452783D02*
X53727724Y3643259D01*
X53727724Y3643259D02*
X53775343Y3738497D01*
X53775343Y3738497D02*
X53822962Y3786116D01*
X53822962Y3786116D02*
X53918200Y3833735D01*
X53918200Y3833735D02*
X54156295Y3833735D01*
X54156295Y3833735D02*
X54251533Y3786116D01*
X54251533Y3786116D02*
X54299152Y3738497D01*
X54299152Y3738497D02*
X54346771Y3643259D01*
X54346771Y3643259D02*
X54346771Y3452783D01*
X54346771Y3452783D02*
X54299152Y3357545D01*
X54299152Y3357545D02*
X54251533Y3309926D01*
X54251533Y3309926D02*
X54156295Y3262307D01*
X53835343Y15082307D02*
X53787724Y15177545D01*
X53787724Y15177545D02*
X53787724Y15320402D01*
X53787724Y15320402D02*
X53835343Y15463259D01*
X53835343Y15463259D02*
X53930581Y15558497D01*
X53930581Y15558497D02*
X54025819Y15606116D01*
X54025819Y15606116D02*
X54216295Y15653735D01*
X54216295Y15653735D02*
X54359152Y15653735D01*
X54359152Y15653735D02*
X54549628Y15606116D01*
X54549628Y15606116D02*
X54644866Y15558497D01*
X54644866Y15558497D02*
X54740105Y15463259D01*
X54740105Y15463259D02*
X54787724Y15320402D01*
X54787724Y15320402D02*
X54787724Y15225164D01*
X54787724Y15225164D02*
X54740105Y15082307D01*
X54740105Y15082307D02*
X54692485Y15034688D01*
X54692485Y15034688D02*
X54359152Y15034688D01*
X54359152Y15034688D02*
X54359152Y15225164D01*
X54787724Y14606116D02*
X53787724Y14606116D01*
X53787724Y14606116D02*
X53787724Y14225164D01*
X53787724Y14225164D02*
X53835343Y14129926D01*
X53835343Y14129926D02*
X53882962Y14082307D01*
X53882962Y14082307D02*
X53978200Y14034688D01*
X53978200Y14034688D02*
X54121057Y14034688D01*
X54121057Y14034688D02*
X54216295Y14082307D01*
X54216295Y14082307D02*
X54263914Y14129926D01*
X54263914Y14129926D02*
X54311533Y14225164D01*
X54311533Y14225164D02*
X54311533Y14606116D01*
X53882962Y13653735D02*
X53835343Y13606116D01*
X53835343Y13606116D02*
X53787724Y13510878D01*
X53787724Y13510878D02*
X53787724Y13272783D01*
X53787724Y13272783D02*
X53835343Y13177545D01*
X53835343Y13177545D02*
X53882962Y13129926D01*
X53882962Y13129926D02*
X53978200Y13082307D01*
X53978200Y13082307D02*
X54073438Y13082307D01*
X54073438Y13082307D02*
X54216295Y13129926D01*
X54216295Y13129926D02*
X54787724Y13701354D01*
X54787724Y13701354D02*
X54787724Y13082307D01*
X53787724Y12748973D02*
X53787724Y12082307D01*
X53787724Y12082307D02*
X54787724Y12510878D01*
X56255343Y15012307D02*
X56207724Y15107545D01*
X56207724Y15107545D02*
X56207724Y15250402D01*
X56207724Y15250402D02*
X56255343Y15393259D01*
X56255343Y15393259D02*
X56350581Y15488497D01*
X56350581Y15488497D02*
X56445819Y15536116D01*
X56445819Y15536116D02*
X56636295Y15583735D01*
X56636295Y15583735D02*
X56779152Y15583735D01*
X56779152Y15583735D02*
X56969628Y15536116D01*
X56969628Y15536116D02*
X57064866Y15488497D01*
X57064866Y15488497D02*
X57160105Y15393259D01*
X57160105Y15393259D02*
X57207724Y15250402D01*
X57207724Y15250402D02*
X57207724Y15155164D01*
X57207724Y15155164D02*
X57160105Y15012307D01*
X57160105Y15012307D02*
X57112485Y14964688D01*
X57112485Y14964688D02*
X56779152Y14964688D01*
X56779152Y14964688D02*
X56779152Y15155164D01*
X57207724Y14536116D02*
X56207724Y14536116D01*
X56207724Y14536116D02*
X56207724Y14155164D01*
X56207724Y14155164D02*
X56255343Y14059926D01*
X56255343Y14059926D02*
X56302962Y14012307D01*
X56302962Y14012307D02*
X56398200Y13964688D01*
X56398200Y13964688D02*
X56541057Y13964688D01*
X56541057Y13964688D02*
X56636295Y14012307D01*
X56636295Y14012307D02*
X56683914Y14059926D01*
X56683914Y14059926D02*
X56731533Y14155164D01*
X56731533Y14155164D02*
X56731533Y14536116D01*
X56207724Y13345640D02*
X56207724Y13250402D01*
X56207724Y13250402D02*
X56255343Y13155164D01*
X56255343Y13155164D02*
X56302962Y13107545D01*
X56302962Y13107545D02*
X56398200Y13059926D01*
X56398200Y13059926D02*
X56588676Y13012307D01*
X56588676Y13012307D02*
X56826771Y13012307D01*
X56826771Y13012307D02*
X57017247Y13059926D01*
X57017247Y13059926D02*
X57112485Y13107545D01*
X57112485Y13107545D02*
X57160105Y13155164D01*
X57160105Y13155164D02*
X57207724Y13250402D01*
X57207724Y13250402D02*
X57207724Y13345640D01*
X57207724Y13345640D02*
X57160105Y13440878D01*
X57160105Y13440878D02*
X57112485Y13488497D01*
X57112485Y13488497D02*
X57017247Y13536116D01*
X57017247Y13536116D02*
X56826771Y13583735D01*
X56826771Y13583735D02*
X56588676Y13583735D01*
X56588676Y13583735D02*
X56398200Y13536116D01*
X56398200Y13536116D02*
X56302962Y13488497D01*
X56302962Y13488497D02*
X56255343Y13440878D01*
X56255343Y13440878D02*
X56207724Y13345640D01*
X56207724Y12107545D02*
X56207724Y12583735D01*
X56207724Y12583735D02*
X56683914Y12631354D01*
X56683914Y12631354D02*
X56636295Y12583735D01*
X56636295Y12583735D02*
X56588676Y12488497D01*
X56588676Y12488497D02*
X56588676Y12250402D01*
X56588676Y12250402D02*
X56636295Y12155164D01*
X56636295Y12155164D02*
X56683914Y12107545D01*
X56683914Y12107545D02*
X56779152Y12059926D01*
X56779152Y12059926D02*
X57017247Y12059926D01*
X57017247Y12059926D02*
X57112485Y12107545D01*
X57112485Y12107545D02*
X57160105Y12155164D01*
X57160105Y12155164D02*
X57207724Y12250402D01*
X57207724Y12250402D02*
X57207724Y12488497D01*
X57207724Y12488497D02*
X57160105Y12583735D01*
X57160105Y12583735D02*
X57112485Y12631354D01*
X56335343Y5242307D02*
X56287724Y5337545D01*
X56287724Y5337545D02*
X56287724Y5480402D01*
X56287724Y5480402D02*
X56335343Y5623259D01*
X56335343Y5623259D02*
X56430581Y5718497D01*
X56430581Y5718497D02*
X56525819Y5766116D01*
X56525819Y5766116D02*
X56716295Y5813735D01*
X56716295Y5813735D02*
X56859152Y5813735D01*
X56859152Y5813735D02*
X57049628Y5766116D01*
X57049628Y5766116D02*
X57144866Y5718497D01*
X57144866Y5718497D02*
X57240105Y5623259D01*
X57240105Y5623259D02*
X57287724Y5480402D01*
X57287724Y5480402D02*
X57287724Y5385164D01*
X57287724Y5385164D02*
X57240105Y5242307D01*
X57240105Y5242307D02*
X57192485Y5194688D01*
X57192485Y5194688D02*
X56859152Y5194688D01*
X56859152Y5194688D02*
X56859152Y5385164D01*
X57287724Y4766116D02*
X56287724Y4766116D01*
X56287724Y4766116D02*
X56287724Y4385164D01*
X56287724Y4385164D02*
X56335343Y4289926D01*
X56335343Y4289926D02*
X56382962Y4242307D01*
X56382962Y4242307D02*
X56478200Y4194688D01*
X56478200Y4194688D02*
X56621057Y4194688D01*
X56621057Y4194688D02*
X56716295Y4242307D01*
X56716295Y4242307D02*
X56763914Y4289926D01*
X56763914Y4289926D02*
X56811533Y4385164D01*
X56811533Y4385164D02*
X56811533Y4766116D01*
X57287724Y3242307D02*
X57287724Y3813735D01*
X57287724Y3528021D02*
X56287724Y3528021D01*
X56287724Y3528021D02*
X56430581Y3623259D01*
X56430581Y3623259D02*
X56525819Y3718497D01*
X56525819Y3718497D02*
X56573438Y3813735D01*
X57287724Y2289926D02*
X57287724Y2861354D01*
X57287724Y2575640D02*
X56287724Y2575640D01*
X56287724Y2575640D02*
X56430581Y2670878D01*
X56430581Y2670878D02*
X56525819Y2766116D01*
X56525819Y2766116D02*
X56573438Y2861354D01*
X58835343Y15012307D02*
X58787724Y15107545D01*
X58787724Y15107545D02*
X58787724Y15250402D01*
X58787724Y15250402D02*
X58835343Y15393259D01*
X58835343Y15393259D02*
X58930581Y15488497D01*
X58930581Y15488497D02*
X59025819Y15536116D01*
X59025819Y15536116D02*
X59216295Y15583735D01*
X59216295Y15583735D02*
X59359152Y15583735D01*
X59359152Y15583735D02*
X59549628Y15536116D01*
X59549628Y15536116D02*
X59644866Y15488497D01*
X59644866Y15488497D02*
X59740105Y15393259D01*
X59740105Y15393259D02*
X59787724Y15250402D01*
X59787724Y15250402D02*
X59787724Y15155164D01*
X59787724Y15155164D02*
X59740105Y15012307D01*
X59740105Y15012307D02*
X59692485Y14964688D01*
X59692485Y14964688D02*
X59359152Y14964688D01*
X59359152Y14964688D02*
X59359152Y15155164D01*
X59787724Y14536116D02*
X58787724Y14536116D01*
X58787724Y14536116D02*
X58787724Y14155164D01*
X58787724Y14155164D02*
X58835343Y14059926D01*
X58835343Y14059926D02*
X58882962Y14012307D01*
X58882962Y14012307D02*
X58978200Y13964688D01*
X58978200Y13964688D02*
X59121057Y13964688D01*
X59121057Y13964688D02*
X59216295Y14012307D01*
X59216295Y14012307D02*
X59263914Y14059926D01*
X59263914Y14059926D02*
X59311533Y14155164D01*
X59311533Y14155164D02*
X59311533Y14536116D01*
X58882962Y13583735D02*
X58835343Y13536116D01*
X58835343Y13536116D02*
X58787724Y13440878D01*
X58787724Y13440878D02*
X58787724Y13202783D01*
X58787724Y13202783D02*
X58835343Y13107545D01*
X58835343Y13107545D02*
X58882962Y13059926D01*
X58882962Y13059926D02*
X58978200Y13012307D01*
X58978200Y13012307D02*
X59073438Y13012307D01*
X59073438Y13012307D02*
X59216295Y13059926D01*
X59216295Y13059926D02*
X59787724Y13631354D01*
X59787724Y13631354D02*
X59787724Y13012307D01*
X58787724Y12678973D02*
X58787724Y12059926D01*
X58787724Y12059926D02*
X59168676Y12393259D01*
X59168676Y12393259D02*
X59168676Y12250402D01*
X59168676Y12250402D02*
X59216295Y12155164D01*
X59216295Y12155164D02*
X59263914Y12107545D01*
X59263914Y12107545D02*
X59359152Y12059926D01*
X59359152Y12059926D02*
X59597247Y12059926D01*
X59597247Y12059926D02*
X59692485Y12107545D01*
X59692485Y12107545D02*
X59740105Y12155164D01*
X59740105Y12155164D02*
X59787724Y12250402D01*
X59787724Y12250402D02*
X59787724Y12536116D01*
X59787724Y12536116D02*
X59740105Y12631354D01*
X59740105Y12631354D02*
X59692485Y12678973D01*
X58865343Y5242307D02*
X58817724Y5337545D01*
X58817724Y5337545D02*
X58817724Y5480402D01*
X58817724Y5480402D02*
X58865343Y5623259D01*
X58865343Y5623259D02*
X58960581Y5718497D01*
X58960581Y5718497D02*
X59055819Y5766116D01*
X59055819Y5766116D02*
X59246295Y5813735D01*
X59246295Y5813735D02*
X59389152Y5813735D01*
X59389152Y5813735D02*
X59579628Y5766116D01*
X59579628Y5766116D02*
X59674866Y5718497D01*
X59674866Y5718497D02*
X59770105Y5623259D01*
X59770105Y5623259D02*
X59817724Y5480402D01*
X59817724Y5480402D02*
X59817724Y5385164D01*
X59817724Y5385164D02*
X59770105Y5242307D01*
X59770105Y5242307D02*
X59722485Y5194688D01*
X59722485Y5194688D02*
X59389152Y5194688D01*
X59389152Y5194688D02*
X59389152Y5385164D01*
X59817724Y4766116D02*
X58817724Y4766116D01*
X58817724Y4766116D02*
X58817724Y4385164D01*
X58817724Y4385164D02*
X58865343Y4289926D01*
X58865343Y4289926D02*
X58912962Y4242307D01*
X58912962Y4242307D02*
X59008200Y4194688D01*
X59008200Y4194688D02*
X59151057Y4194688D01*
X59151057Y4194688D02*
X59246295Y4242307D01*
X59246295Y4242307D02*
X59293914Y4289926D01*
X59293914Y4289926D02*
X59341533Y4385164D01*
X59341533Y4385164D02*
X59341533Y4766116D01*
X59817724Y3242307D02*
X59817724Y3813735D01*
X59817724Y3528021D02*
X58817724Y3528021D01*
X58817724Y3528021D02*
X58960581Y3623259D01*
X58960581Y3623259D02*
X59055819Y3718497D01*
X59055819Y3718497D02*
X59103438Y3813735D01*
X59246295Y2670878D02*
X59198676Y2766116D01*
X59198676Y2766116D02*
X59151057Y2813735D01*
X59151057Y2813735D02*
X59055819Y2861354D01*
X59055819Y2861354D02*
X59008200Y2861354D01*
X59008200Y2861354D02*
X58912962Y2813735D01*
X58912962Y2813735D02*
X58865343Y2766116D01*
X58865343Y2766116D02*
X58817724Y2670878D01*
X58817724Y2670878D02*
X58817724Y2480402D01*
X58817724Y2480402D02*
X58865343Y2385164D01*
X58865343Y2385164D02*
X58912962Y2337545D01*
X58912962Y2337545D02*
X59008200Y2289926D01*
X59008200Y2289926D02*
X59055819Y2289926D01*
X59055819Y2289926D02*
X59151057Y2337545D01*
X59151057Y2337545D02*
X59198676Y2385164D01*
X59198676Y2385164D02*
X59246295Y2480402D01*
X59246295Y2480402D02*
X59246295Y2670878D01*
X59246295Y2670878D02*
X59293914Y2766116D01*
X59293914Y2766116D02*
X59341533Y2813735D01*
X59341533Y2813735D02*
X59436771Y2861354D01*
X59436771Y2861354D02*
X59627247Y2861354D01*
X59627247Y2861354D02*
X59722485Y2813735D01*
X59722485Y2813735D02*
X59770105Y2766116D01*
X59770105Y2766116D02*
X59817724Y2670878D01*
X59817724Y2670878D02*
X59817724Y2480402D01*
X59817724Y2480402D02*
X59770105Y2385164D01*
X59770105Y2385164D02*
X59722485Y2337545D01*
X59722485Y2337545D02*
X59627247Y2289926D01*
X59627247Y2289926D02*
X59436771Y2289926D01*
X59436771Y2289926D02*
X59341533Y2337545D01*
X59341533Y2337545D02*
X59293914Y2385164D01*
X59293914Y2385164D02*
X59246295Y2480402D01*
X61395343Y14132307D02*
X61347724Y14227545D01*
X61347724Y14227545D02*
X61347724Y14370402D01*
X61347724Y14370402D02*
X61395343Y14513259D01*
X61395343Y14513259D02*
X61490581Y14608497D01*
X61490581Y14608497D02*
X61585819Y14656116D01*
X61585819Y14656116D02*
X61776295Y14703735D01*
X61776295Y14703735D02*
X61919152Y14703735D01*
X61919152Y14703735D02*
X62109628Y14656116D01*
X62109628Y14656116D02*
X62204866Y14608497D01*
X62204866Y14608497D02*
X62300105Y14513259D01*
X62300105Y14513259D02*
X62347724Y14370402D01*
X62347724Y14370402D02*
X62347724Y14275164D01*
X62347724Y14275164D02*
X62300105Y14132307D01*
X62300105Y14132307D02*
X62252485Y14084688D01*
X62252485Y14084688D02*
X61919152Y14084688D01*
X61919152Y14084688D02*
X61919152Y14275164D01*
X62347724Y13656116D02*
X61347724Y13656116D01*
X61347724Y13656116D02*
X62347724Y13084688D01*
X62347724Y13084688D02*
X61347724Y13084688D01*
X62347724Y12608497D02*
X61347724Y12608497D01*
X61347724Y12608497D02*
X61347724Y12370402D01*
X61347724Y12370402D02*
X61395343Y12227545D01*
X61395343Y12227545D02*
X61490581Y12132307D01*
X61490581Y12132307D02*
X61585819Y12084688D01*
X61585819Y12084688D02*
X61776295Y12037069D01*
X61776295Y12037069D02*
X61919152Y12037069D01*
X61919152Y12037069D02*
X62109628Y12084688D01*
X62109628Y12084688D02*
X62204866Y12132307D01*
X62204866Y12132307D02*
X62300105Y12227545D01*
X62300105Y12227545D02*
X62347724Y12370402D01*
X62347724Y12370402D02*
X62347724Y12608497D01*
X61435343Y5242307D02*
X61387724Y5337545D01*
X61387724Y5337545D02*
X61387724Y5480402D01*
X61387724Y5480402D02*
X61435343Y5623259D01*
X61435343Y5623259D02*
X61530581Y5718497D01*
X61530581Y5718497D02*
X61625819Y5766116D01*
X61625819Y5766116D02*
X61816295Y5813735D01*
X61816295Y5813735D02*
X61959152Y5813735D01*
X61959152Y5813735D02*
X62149628Y5766116D01*
X62149628Y5766116D02*
X62244866Y5718497D01*
X62244866Y5718497D02*
X62340105Y5623259D01*
X62340105Y5623259D02*
X62387724Y5480402D01*
X62387724Y5480402D02*
X62387724Y5385164D01*
X62387724Y5385164D02*
X62340105Y5242307D01*
X62340105Y5242307D02*
X62292485Y5194688D01*
X62292485Y5194688D02*
X61959152Y5194688D01*
X61959152Y5194688D02*
X61959152Y5385164D01*
X62387724Y4766116D02*
X61387724Y4766116D01*
X61387724Y4766116D02*
X61387724Y4385164D01*
X61387724Y4385164D02*
X61435343Y4289926D01*
X61435343Y4289926D02*
X61482962Y4242307D01*
X61482962Y4242307D02*
X61578200Y4194688D01*
X61578200Y4194688D02*
X61721057Y4194688D01*
X61721057Y4194688D02*
X61816295Y4242307D01*
X61816295Y4242307D02*
X61863914Y4289926D01*
X61863914Y4289926D02*
X61911533Y4385164D01*
X61911533Y4385164D02*
X61911533Y4766116D01*
X62387724Y3242307D02*
X62387724Y3813735D01*
X62387724Y3528021D02*
X61387724Y3528021D01*
X61387724Y3528021D02*
X61530581Y3623259D01*
X61530581Y3623259D02*
X61625819Y3718497D01*
X61625819Y3718497D02*
X61673438Y3813735D01*
X62387724Y2766116D02*
X62387724Y2575640D01*
X62387724Y2575640D02*
X62340105Y2480402D01*
X62340105Y2480402D02*
X62292485Y2432783D01*
X62292485Y2432783D02*
X62149628Y2337545D01*
X62149628Y2337545D02*
X61959152Y2289926D01*
X61959152Y2289926D02*
X61578200Y2289926D01*
X61578200Y2289926D02*
X61482962Y2337545D01*
X61482962Y2337545D02*
X61435343Y2385164D01*
X61435343Y2385164D02*
X61387724Y2480402D01*
X61387724Y2480402D02*
X61387724Y2670878D01*
X61387724Y2670878D02*
X61435343Y2766116D01*
X61435343Y2766116D02*
X61482962Y2813735D01*
X61482962Y2813735D02*
X61578200Y2861354D01*
X61578200Y2861354D02*
X61816295Y2861354D01*
X61816295Y2861354D02*
X61911533Y2813735D01*
X61911533Y2813735D02*
X61959152Y2766116D01*
X61959152Y2766116D02*
X62006771Y2670878D01*
X62006771Y2670878D02*
X62006771Y2480402D01*
X62006771Y2480402D02*
X61959152Y2385164D01*
X61959152Y2385164D02*
X61911533Y2337545D01*
X61911533Y2337545D02*
X61816295Y2289926D01*
X66695343Y16462307D02*
X66647724Y16557545D01*
X66647724Y16557545D02*
X66647724Y16700402D01*
X66647724Y16700402D02*
X66695343Y16843259D01*
X66695343Y16843259D02*
X66790581Y16938497D01*
X66790581Y16938497D02*
X66885819Y16986116D01*
X66885819Y16986116D02*
X67076295Y17033735D01*
X67076295Y17033735D02*
X67219152Y17033735D01*
X67219152Y17033735D02*
X67409628Y16986116D01*
X67409628Y16986116D02*
X67504866Y16938497D01*
X67504866Y16938497D02*
X67600105Y16843259D01*
X67600105Y16843259D02*
X67647724Y16700402D01*
X67647724Y16700402D02*
X67647724Y16605164D01*
X67647724Y16605164D02*
X67600105Y16462307D01*
X67600105Y16462307D02*
X67552485Y16414688D01*
X67552485Y16414688D02*
X67219152Y16414688D01*
X67219152Y16414688D02*
X67219152Y16605164D01*
X67647724Y15986116D02*
X66647724Y15986116D01*
X66647724Y15986116D02*
X66647724Y15605164D01*
X66647724Y15605164D02*
X66695343Y15509926D01*
X66695343Y15509926D02*
X66742962Y15462307D01*
X66742962Y15462307D02*
X66838200Y15414688D01*
X66838200Y15414688D02*
X66981057Y15414688D01*
X66981057Y15414688D02*
X67076295Y15462307D01*
X67076295Y15462307D02*
X67123914Y15509926D01*
X67123914Y15509926D02*
X67171533Y15605164D01*
X67171533Y15605164D02*
X67171533Y15986116D01*
X66647724Y14795640D02*
X66647724Y14700402D01*
X66647724Y14700402D02*
X66695343Y14605164D01*
X66695343Y14605164D02*
X66742962Y14557545D01*
X66742962Y14557545D02*
X66838200Y14509926D01*
X66838200Y14509926D02*
X67028676Y14462307D01*
X67028676Y14462307D02*
X67266771Y14462307D01*
X67266771Y14462307D02*
X67457247Y14509926D01*
X67457247Y14509926D02*
X67552485Y14557545D01*
X67552485Y14557545D02*
X67600105Y14605164D01*
X67600105Y14605164D02*
X67647724Y14700402D01*
X67647724Y14700402D02*
X67647724Y14795640D01*
X67647724Y14795640D02*
X67600105Y14890878D01*
X67600105Y14890878D02*
X67552485Y14938497D01*
X67552485Y14938497D02*
X67457247Y14986116D01*
X67457247Y14986116D02*
X67266771Y15033735D01*
X67266771Y15033735D02*
X67028676Y15033735D01*
X67028676Y15033735D02*
X66838200Y14986116D01*
X66838200Y14986116D02*
X66742962Y14938497D01*
X66742962Y14938497D02*
X66695343Y14890878D01*
X66695343Y14890878D02*
X66647724Y14795640D01*
X67552485Y14033735D02*
X67600105Y13986116D01*
X67600105Y13986116D02*
X67647724Y14033735D01*
X67647724Y14033735D02*
X67600105Y14081354D01*
X67600105Y14081354D02*
X67552485Y14033735D01*
X67552485Y14033735D02*
X67647724Y14033735D01*
X66647724Y13367069D02*
X66647724Y13271831D01*
X66647724Y13271831D02*
X66695343Y13176593D01*
X66695343Y13176593D02*
X66742962Y13128974D01*
X66742962Y13128974D02*
X66838200Y13081355D01*
X66838200Y13081355D02*
X67028676Y13033736D01*
X67028676Y13033736D02*
X67266771Y13033736D01*
X67266771Y13033736D02*
X67457247Y13081355D01*
X67457247Y13081355D02*
X67552485Y13128974D01*
X67552485Y13128974D02*
X67600105Y13176593D01*
X67600105Y13176593D02*
X67647724Y13271831D01*
X67647724Y13271831D02*
X67647724Y13367069D01*
X67647724Y13367069D02*
X67600105Y13462307D01*
X67600105Y13462307D02*
X67552485Y13509926D01*
X67552485Y13509926D02*
X67457247Y13557545D01*
X67457247Y13557545D02*
X67266771Y13605164D01*
X67266771Y13605164D02*
X67028676Y13605164D01*
X67028676Y13605164D02*
X66838200Y13557545D01*
X66838200Y13557545D02*
X66742962Y13509926D01*
X66742962Y13509926D02*
X66695343Y13462307D01*
X66695343Y13462307D02*
X66647724Y13367069D01*
X66981057Y12176593D02*
X67647724Y12176593D01*
X66600105Y12414688D02*
X67314390Y12652783D01*
X67314390Y12652783D02*
X67314390Y12033736D01*
X66765343Y5232307D02*
X66717724Y5327545D01*
X66717724Y5327545D02*
X66717724Y5470402D01*
X66717724Y5470402D02*
X66765343Y5613259D01*
X66765343Y5613259D02*
X66860581Y5708497D01*
X66860581Y5708497D02*
X66955819Y5756116D01*
X66955819Y5756116D02*
X67146295Y5803735D01*
X67146295Y5803735D02*
X67289152Y5803735D01*
X67289152Y5803735D02*
X67479628Y5756116D01*
X67479628Y5756116D02*
X67574866Y5708497D01*
X67574866Y5708497D02*
X67670105Y5613259D01*
X67670105Y5613259D02*
X67717724Y5470402D01*
X67717724Y5470402D02*
X67717724Y5375164D01*
X67717724Y5375164D02*
X67670105Y5232307D01*
X67670105Y5232307D02*
X67622485Y5184688D01*
X67622485Y5184688D02*
X67289152Y5184688D01*
X67289152Y5184688D02*
X67289152Y5375164D01*
X67717724Y4756116D02*
X66717724Y4756116D01*
X66717724Y4756116D02*
X66717724Y4375164D01*
X66717724Y4375164D02*
X66765343Y4279926D01*
X66765343Y4279926D02*
X66812962Y4232307D01*
X66812962Y4232307D02*
X66908200Y4184688D01*
X66908200Y4184688D02*
X67051057Y4184688D01*
X67051057Y4184688D02*
X67146295Y4232307D01*
X67146295Y4232307D02*
X67193914Y4279926D01*
X67193914Y4279926D02*
X67241533Y4375164D01*
X67241533Y4375164D02*
X67241533Y4756116D01*
X66717724Y3565640D02*
X66717724Y3470402D01*
X66717724Y3470402D02*
X66765343Y3375164D01*
X66765343Y3375164D02*
X66812962Y3327545D01*
X66812962Y3327545D02*
X66908200Y3279926D01*
X66908200Y3279926D02*
X67098676Y3232307D01*
X67098676Y3232307D02*
X67336771Y3232307D01*
X67336771Y3232307D02*
X67527247Y3279926D01*
X67527247Y3279926D02*
X67622485Y3327545D01*
X67622485Y3327545D02*
X67670105Y3375164D01*
X67670105Y3375164D02*
X67717724Y3470402D01*
X67717724Y3470402D02*
X67717724Y3565640D01*
X67717724Y3565640D02*
X67670105Y3660878D01*
X67670105Y3660878D02*
X67622485Y3708497D01*
X67622485Y3708497D02*
X67527247Y3756116D01*
X67527247Y3756116D02*
X67336771Y3803735D01*
X67336771Y3803735D02*
X67098676Y3803735D01*
X67098676Y3803735D02*
X66908200Y3756116D01*
X66908200Y3756116D02*
X66812962Y3708497D01*
X66812962Y3708497D02*
X66765343Y3660878D01*
X66765343Y3660878D02*
X66717724Y3565640D01*
X67622485Y2803735D02*
X67670105Y2756116D01*
X67670105Y2756116D02*
X67717724Y2803735D01*
X67717724Y2803735D02*
X67670105Y2851354D01*
X67670105Y2851354D02*
X67622485Y2803735D01*
X67622485Y2803735D02*
X67717724Y2803735D01*
X66812962Y2375164D02*
X66765343Y2327545D01*
X66765343Y2327545D02*
X66717724Y2232307D01*
X66717724Y2232307D02*
X66717724Y1994212D01*
X66717724Y1994212D02*
X66765343Y1898974D01*
X66765343Y1898974D02*
X66812962Y1851355D01*
X66812962Y1851355D02*
X66908200Y1803736D01*
X66908200Y1803736D02*
X67003438Y1803736D01*
X67003438Y1803736D02*
X67146295Y1851355D01*
X67146295Y1851355D02*
X67717724Y2422783D01*
X67717724Y2422783D02*
X67717724Y1803736D01*
X66717724Y946593D02*
X66717724Y1137069D01*
X66717724Y1137069D02*
X66765343Y1232307D01*
X66765343Y1232307D02*
X66812962Y1279926D01*
X66812962Y1279926D02*
X66955819Y1375164D01*
X66955819Y1375164D02*
X67146295Y1422783D01*
X67146295Y1422783D02*
X67527247Y1422783D01*
X67527247Y1422783D02*
X67622485Y1375164D01*
X67622485Y1375164D02*
X67670105Y1327545D01*
X67670105Y1327545D02*
X67717724Y1232307D01*
X67717724Y1232307D02*
X67717724Y1041831D01*
X67717724Y1041831D02*
X67670105Y946593D01*
X67670105Y946593D02*
X67622485Y898974D01*
X67622485Y898974D02*
X67527247Y851355D01*
X67527247Y851355D02*
X67289152Y851355D01*
X67289152Y851355D02*
X67193914Y898974D01*
X67193914Y898974D02*
X67146295Y946593D01*
X67146295Y946593D02*
X67098676Y1041831D01*
X67098676Y1041831D02*
X67098676Y1232307D01*
X67098676Y1232307D02*
X67146295Y1327545D01*
X67146295Y1327545D02*
X67193914Y1375164D01*
X67193914Y1375164D02*
X67289152Y1422783D01*
X69245343Y16442307D02*
X69197724Y16537545D01*
X69197724Y16537545D02*
X69197724Y16680402D01*
X69197724Y16680402D02*
X69245343Y16823259D01*
X69245343Y16823259D02*
X69340581Y16918497D01*
X69340581Y16918497D02*
X69435819Y16966116D01*
X69435819Y16966116D02*
X69626295Y17013735D01*
X69626295Y17013735D02*
X69769152Y17013735D01*
X69769152Y17013735D02*
X69959628Y16966116D01*
X69959628Y16966116D02*
X70054866Y16918497D01*
X70054866Y16918497D02*
X70150105Y16823259D01*
X70150105Y16823259D02*
X70197724Y16680402D01*
X70197724Y16680402D02*
X70197724Y16585164D01*
X70197724Y16585164D02*
X70150105Y16442307D01*
X70150105Y16442307D02*
X70102485Y16394688D01*
X70102485Y16394688D02*
X69769152Y16394688D01*
X69769152Y16394688D02*
X69769152Y16585164D01*
X70197724Y15966116D02*
X69197724Y15966116D01*
X69197724Y15966116D02*
X69197724Y15585164D01*
X69197724Y15585164D02*
X69245343Y15489926D01*
X69245343Y15489926D02*
X69292962Y15442307D01*
X69292962Y15442307D02*
X69388200Y15394688D01*
X69388200Y15394688D02*
X69531057Y15394688D01*
X69531057Y15394688D02*
X69626295Y15442307D01*
X69626295Y15442307D02*
X69673914Y15489926D01*
X69673914Y15489926D02*
X69721533Y15585164D01*
X69721533Y15585164D02*
X69721533Y15966116D01*
X69197724Y14775640D02*
X69197724Y14680402D01*
X69197724Y14680402D02*
X69245343Y14585164D01*
X69245343Y14585164D02*
X69292962Y14537545D01*
X69292962Y14537545D02*
X69388200Y14489926D01*
X69388200Y14489926D02*
X69578676Y14442307D01*
X69578676Y14442307D02*
X69816771Y14442307D01*
X69816771Y14442307D02*
X70007247Y14489926D01*
X70007247Y14489926D02*
X70102485Y14537545D01*
X70102485Y14537545D02*
X70150105Y14585164D01*
X70150105Y14585164D02*
X70197724Y14680402D01*
X70197724Y14680402D02*
X70197724Y14775640D01*
X70197724Y14775640D02*
X70150105Y14870878D01*
X70150105Y14870878D02*
X70102485Y14918497D01*
X70102485Y14918497D02*
X70007247Y14966116D01*
X70007247Y14966116D02*
X69816771Y15013735D01*
X69816771Y15013735D02*
X69578676Y15013735D01*
X69578676Y15013735D02*
X69388200Y14966116D01*
X69388200Y14966116D02*
X69292962Y14918497D01*
X69292962Y14918497D02*
X69245343Y14870878D01*
X69245343Y14870878D02*
X69197724Y14775640D01*
X70102485Y14013735D02*
X70150105Y13966116D01*
X70150105Y13966116D02*
X70197724Y14013735D01*
X70197724Y14013735D02*
X70150105Y14061354D01*
X70150105Y14061354D02*
X70102485Y14013735D01*
X70102485Y14013735D02*
X70197724Y14013735D01*
X69197724Y13347069D02*
X69197724Y13251831D01*
X69197724Y13251831D02*
X69245343Y13156593D01*
X69245343Y13156593D02*
X69292962Y13108974D01*
X69292962Y13108974D02*
X69388200Y13061355D01*
X69388200Y13061355D02*
X69578676Y13013736D01*
X69578676Y13013736D02*
X69816771Y13013736D01*
X69816771Y13013736D02*
X70007247Y13061355D01*
X70007247Y13061355D02*
X70102485Y13108974D01*
X70102485Y13108974D02*
X70150105Y13156593D01*
X70150105Y13156593D02*
X70197724Y13251831D01*
X70197724Y13251831D02*
X70197724Y13347069D01*
X70197724Y13347069D02*
X70150105Y13442307D01*
X70150105Y13442307D02*
X70102485Y13489926D01*
X70102485Y13489926D02*
X70007247Y13537545D01*
X70007247Y13537545D02*
X69816771Y13585164D01*
X69816771Y13585164D02*
X69578676Y13585164D01*
X69578676Y13585164D02*
X69388200Y13537545D01*
X69388200Y13537545D02*
X69292962Y13489926D01*
X69292962Y13489926D02*
X69245343Y13442307D01*
X69245343Y13442307D02*
X69197724Y13347069D01*
X69197724Y12156593D02*
X69197724Y12347069D01*
X69197724Y12347069D02*
X69245343Y12442307D01*
X69245343Y12442307D02*
X69292962Y12489926D01*
X69292962Y12489926D02*
X69435819Y12585164D01*
X69435819Y12585164D02*
X69626295Y12632783D01*
X69626295Y12632783D02*
X70007247Y12632783D01*
X70007247Y12632783D02*
X70102485Y12585164D01*
X70102485Y12585164D02*
X70150105Y12537545D01*
X70150105Y12537545D02*
X70197724Y12442307D01*
X70197724Y12442307D02*
X70197724Y12251831D01*
X70197724Y12251831D02*
X70150105Y12156593D01*
X70150105Y12156593D02*
X70102485Y12108974D01*
X70102485Y12108974D02*
X70007247Y12061355D01*
X70007247Y12061355D02*
X69769152Y12061355D01*
X69769152Y12061355D02*
X69673914Y12108974D01*
X69673914Y12108974D02*
X69626295Y12156593D01*
X69626295Y12156593D02*
X69578676Y12251831D01*
X69578676Y12251831D02*
X69578676Y12442307D01*
X69578676Y12442307D02*
X69626295Y12537545D01*
X69626295Y12537545D02*
X69673914Y12585164D01*
X69673914Y12585164D02*
X69769152Y12632783D01*
X69265343Y5232307D02*
X69217724Y5327545D01*
X69217724Y5327545D02*
X69217724Y5470402D01*
X69217724Y5470402D02*
X69265343Y5613259D01*
X69265343Y5613259D02*
X69360581Y5708497D01*
X69360581Y5708497D02*
X69455819Y5756116D01*
X69455819Y5756116D02*
X69646295Y5803735D01*
X69646295Y5803735D02*
X69789152Y5803735D01*
X69789152Y5803735D02*
X69979628Y5756116D01*
X69979628Y5756116D02*
X70074866Y5708497D01*
X70074866Y5708497D02*
X70170105Y5613259D01*
X70170105Y5613259D02*
X70217724Y5470402D01*
X70217724Y5470402D02*
X70217724Y5375164D01*
X70217724Y5375164D02*
X70170105Y5232307D01*
X70170105Y5232307D02*
X70122485Y5184688D01*
X70122485Y5184688D02*
X69789152Y5184688D01*
X69789152Y5184688D02*
X69789152Y5375164D01*
X70217724Y4756116D02*
X69217724Y4756116D01*
X69217724Y4756116D02*
X69217724Y4375164D01*
X69217724Y4375164D02*
X69265343Y4279926D01*
X69265343Y4279926D02*
X69312962Y4232307D01*
X69312962Y4232307D02*
X69408200Y4184688D01*
X69408200Y4184688D02*
X69551057Y4184688D01*
X69551057Y4184688D02*
X69646295Y4232307D01*
X69646295Y4232307D02*
X69693914Y4279926D01*
X69693914Y4279926D02*
X69741533Y4375164D01*
X69741533Y4375164D02*
X69741533Y4756116D01*
X69217724Y3565640D02*
X69217724Y3470402D01*
X69217724Y3470402D02*
X69265343Y3375164D01*
X69265343Y3375164D02*
X69312962Y3327545D01*
X69312962Y3327545D02*
X69408200Y3279926D01*
X69408200Y3279926D02*
X69598676Y3232307D01*
X69598676Y3232307D02*
X69836771Y3232307D01*
X69836771Y3232307D02*
X70027247Y3279926D01*
X70027247Y3279926D02*
X70122485Y3327545D01*
X70122485Y3327545D02*
X70170105Y3375164D01*
X70170105Y3375164D02*
X70217724Y3470402D01*
X70217724Y3470402D02*
X70217724Y3565640D01*
X70217724Y3565640D02*
X70170105Y3660878D01*
X70170105Y3660878D02*
X70122485Y3708497D01*
X70122485Y3708497D02*
X70027247Y3756116D01*
X70027247Y3756116D02*
X69836771Y3803735D01*
X69836771Y3803735D02*
X69598676Y3803735D01*
X69598676Y3803735D02*
X69408200Y3756116D01*
X69408200Y3756116D02*
X69312962Y3708497D01*
X69312962Y3708497D02*
X69265343Y3660878D01*
X69265343Y3660878D02*
X69217724Y3565640D01*
X70122485Y2803735D02*
X70170105Y2756116D01*
X70170105Y2756116D02*
X70217724Y2803735D01*
X70217724Y2803735D02*
X70170105Y2851354D01*
X70170105Y2851354D02*
X70122485Y2803735D01*
X70122485Y2803735D02*
X70217724Y2803735D01*
X69217724Y2137069D02*
X69217724Y2041831D01*
X69217724Y2041831D02*
X69265343Y1946593D01*
X69265343Y1946593D02*
X69312962Y1898974D01*
X69312962Y1898974D02*
X69408200Y1851355D01*
X69408200Y1851355D02*
X69598676Y1803736D01*
X69598676Y1803736D02*
X69836771Y1803736D01*
X69836771Y1803736D02*
X70027247Y1851355D01*
X70027247Y1851355D02*
X70122485Y1898974D01*
X70122485Y1898974D02*
X70170105Y1946593D01*
X70170105Y1946593D02*
X70217724Y2041831D01*
X70217724Y2041831D02*
X70217724Y2137069D01*
X70217724Y2137069D02*
X70170105Y2232307D01*
X70170105Y2232307D02*
X70122485Y2279926D01*
X70122485Y2279926D02*
X70027247Y2327545D01*
X70027247Y2327545D02*
X69836771Y2375164D01*
X69836771Y2375164D02*
X69598676Y2375164D01*
X69598676Y2375164D02*
X69408200Y2327545D01*
X69408200Y2327545D02*
X69312962Y2279926D01*
X69312962Y2279926D02*
X69265343Y2232307D01*
X69265343Y2232307D02*
X69217724Y2137069D01*
X69646295Y1232307D02*
X69598676Y1327545D01*
X69598676Y1327545D02*
X69551057Y1375164D01*
X69551057Y1375164D02*
X69455819Y1422783D01*
X69455819Y1422783D02*
X69408200Y1422783D01*
X69408200Y1422783D02*
X69312962Y1375164D01*
X69312962Y1375164D02*
X69265343Y1327545D01*
X69265343Y1327545D02*
X69217724Y1232307D01*
X69217724Y1232307D02*
X69217724Y1041831D01*
X69217724Y1041831D02*
X69265343Y946593D01*
X69265343Y946593D02*
X69312962Y898974D01*
X69312962Y898974D02*
X69408200Y851355D01*
X69408200Y851355D02*
X69455819Y851355D01*
X69455819Y851355D02*
X69551057Y898974D01*
X69551057Y898974D02*
X69598676Y946593D01*
X69598676Y946593D02*
X69646295Y1041831D01*
X69646295Y1041831D02*
X69646295Y1232307D01*
X69646295Y1232307D02*
X69693914Y1327545D01*
X69693914Y1327545D02*
X69741533Y1375164D01*
X69741533Y1375164D02*
X69836771Y1422783D01*
X69836771Y1422783D02*
X70027247Y1422783D01*
X70027247Y1422783D02*
X70122485Y1375164D01*
X70122485Y1375164D02*
X70170105Y1327545D01*
X70170105Y1327545D02*
X70217724Y1232307D01*
X70217724Y1232307D02*
X70217724Y1041831D01*
X70217724Y1041831D02*
X70170105Y946593D01*
X70170105Y946593D02*
X70122485Y898974D01*
X70122485Y898974D02*
X70027247Y851355D01*
X70027247Y851355D02*
X69836771Y851355D01*
X69836771Y851355D02*
X69741533Y898974D01*
X69741533Y898974D02*
X69693914Y946593D01*
X69693914Y946593D02*
X69646295Y1041831D01*
X71825343Y5232307D02*
X71777724Y5327545D01*
X71777724Y5327545D02*
X71777724Y5470402D01*
X71777724Y5470402D02*
X71825343Y5613259D01*
X71825343Y5613259D02*
X71920581Y5708497D01*
X71920581Y5708497D02*
X72015819Y5756116D01*
X72015819Y5756116D02*
X72206295Y5803735D01*
X72206295Y5803735D02*
X72349152Y5803735D01*
X72349152Y5803735D02*
X72539628Y5756116D01*
X72539628Y5756116D02*
X72634866Y5708497D01*
X72634866Y5708497D02*
X72730105Y5613259D01*
X72730105Y5613259D02*
X72777724Y5470402D01*
X72777724Y5470402D02*
X72777724Y5375164D01*
X72777724Y5375164D02*
X72730105Y5232307D01*
X72730105Y5232307D02*
X72682485Y5184688D01*
X72682485Y5184688D02*
X72349152Y5184688D01*
X72349152Y5184688D02*
X72349152Y5375164D01*
X72777724Y4756116D02*
X71777724Y4756116D01*
X71777724Y4756116D02*
X71777724Y4375164D01*
X71777724Y4375164D02*
X71825343Y4279926D01*
X71825343Y4279926D02*
X71872962Y4232307D01*
X71872962Y4232307D02*
X71968200Y4184688D01*
X71968200Y4184688D02*
X72111057Y4184688D01*
X72111057Y4184688D02*
X72206295Y4232307D01*
X72206295Y4232307D02*
X72253914Y4279926D01*
X72253914Y4279926D02*
X72301533Y4375164D01*
X72301533Y4375164D02*
X72301533Y4756116D01*
X71777724Y3565640D02*
X71777724Y3470402D01*
X71777724Y3470402D02*
X71825343Y3375164D01*
X71825343Y3375164D02*
X71872962Y3327545D01*
X71872962Y3327545D02*
X71968200Y3279926D01*
X71968200Y3279926D02*
X72158676Y3232307D01*
X72158676Y3232307D02*
X72396771Y3232307D01*
X72396771Y3232307D02*
X72587247Y3279926D01*
X72587247Y3279926D02*
X72682485Y3327545D01*
X72682485Y3327545D02*
X72730105Y3375164D01*
X72730105Y3375164D02*
X72777724Y3470402D01*
X72777724Y3470402D02*
X72777724Y3565640D01*
X72777724Y3565640D02*
X72730105Y3660878D01*
X72730105Y3660878D02*
X72682485Y3708497D01*
X72682485Y3708497D02*
X72587247Y3756116D01*
X72587247Y3756116D02*
X72396771Y3803735D01*
X72396771Y3803735D02*
X72158676Y3803735D01*
X72158676Y3803735D02*
X71968200Y3756116D01*
X71968200Y3756116D02*
X71872962Y3708497D01*
X71872962Y3708497D02*
X71825343Y3660878D01*
X71825343Y3660878D02*
X71777724Y3565640D01*
X72682485Y2803735D02*
X72730105Y2756116D01*
X72730105Y2756116D02*
X72777724Y2803735D01*
X72777724Y2803735D02*
X72730105Y2851354D01*
X72730105Y2851354D02*
X72682485Y2803735D01*
X72682485Y2803735D02*
X72777724Y2803735D01*
X71777724Y2137069D02*
X71777724Y2041831D01*
X71777724Y2041831D02*
X71825343Y1946593D01*
X71825343Y1946593D02*
X71872962Y1898974D01*
X71872962Y1898974D02*
X71968200Y1851355D01*
X71968200Y1851355D02*
X72158676Y1803736D01*
X72158676Y1803736D02*
X72396771Y1803736D01*
X72396771Y1803736D02*
X72587247Y1851355D01*
X72587247Y1851355D02*
X72682485Y1898974D01*
X72682485Y1898974D02*
X72730105Y1946593D01*
X72730105Y1946593D02*
X72777724Y2041831D01*
X72777724Y2041831D02*
X72777724Y2137069D01*
X72777724Y2137069D02*
X72730105Y2232307D01*
X72730105Y2232307D02*
X72682485Y2279926D01*
X72682485Y2279926D02*
X72587247Y2327545D01*
X72587247Y2327545D02*
X72396771Y2375164D01*
X72396771Y2375164D02*
X72158676Y2375164D01*
X72158676Y2375164D02*
X71968200Y2327545D01*
X71968200Y2327545D02*
X71872962Y2279926D01*
X71872962Y2279926D02*
X71825343Y2232307D01*
X71825343Y2232307D02*
X71777724Y2137069D01*
X71777724Y1470402D02*
X71777724Y803736D01*
X71777724Y803736D02*
X72777724Y1232307D01*
X71845343Y16442307D02*
X71797724Y16537545D01*
X71797724Y16537545D02*
X71797724Y16680402D01*
X71797724Y16680402D02*
X71845343Y16823259D01*
X71845343Y16823259D02*
X71940581Y16918497D01*
X71940581Y16918497D02*
X72035819Y16966116D01*
X72035819Y16966116D02*
X72226295Y17013735D01*
X72226295Y17013735D02*
X72369152Y17013735D01*
X72369152Y17013735D02*
X72559628Y16966116D01*
X72559628Y16966116D02*
X72654866Y16918497D01*
X72654866Y16918497D02*
X72750105Y16823259D01*
X72750105Y16823259D02*
X72797724Y16680402D01*
X72797724Y16680402D02*
X72797724Y16585164D01*
X72797724Y16585164D02*
X72750105Y16442307D01*
X72750105Y16442307D02*
X72702485Y16394688D01*
X72702485Y16394688D02*
X72369152Y16394688D01*
X72369152Y16394688D02*
X72369152Y16585164D01*
X72797724Y15966116D02*
X71797724Y15966116D01*
X71797724Y15966116D02*
X71797724Y15585164D01*
X71797724Y15585164D02*
X71845343Y15489926D01*
X71845343Y15489926D02*
X71892962Y15442307D01*
X71892962Y15442307D02*
X71988200Y15394688D01*
X71988200Y15394688D02*
X72131057Y15394688D01*
X72131057Y15394688D02*
X72226295Y15442307D01*
X72226295Y15442307D02*
X72273914Y15489926D01*
X72273914Y15489926D02*
X72321533Y15585164D01*
X72321533Y15585164D02*
X72321533Y15966116D01*
X71797724Y14775640D02*
X71797724Y14680402D01*
X71797724Y14680402D02*
X71845343Y14585164D01*
X71845343Y14585164D02*
X71892962Y14537545D01*
X71892962Y14537545D02*
X71988200Y14489926D01*
X71988200Y14489926D02*
X72178676Y14442307D01*
X72178676Y14442307D02*
X72416771Y14442307D01*
X72416771Y14442307D02*
X72607247Y14489926D01*
X72607247Y14489926D02*
X72702485Y14537545D01*
X72702485Y14537545D02*
X72750105Y14585164D01*
X72750105Y14585164D02*
X72797724Y14680402D01*
X72797724Y14680402D02*
X72797724Y14775640D01*
X72797724Y14775640D02*
X72750105Y14870878D01*
X72750105Y14870878D02*
X72702485Y14918497D01*
X72702485Y14918497D02*
X72607247Y14966116D01*
X72607247Y14966116D02*
X72416771Y15013735D01*
X72416771Y15013735D02*
X72178676Y15013735D01*
X72178676Y15013735D02*
X71988200Y14966116D01*
X71988200Y14966116D02*
X71892962Y14918497D01*
X71892962Y14918497D02*
X71845343Y14870878D01*
X71845343Y14870878D02*
X71797724Y14775640D01*
X72702485Y14013735D02*
X72750105Y13966116D01*
X72750105Y13966116D02*
X72797724Y14013735D01*
X72797724Y14013735D02*
X72750105Y14061354D01*
X72750105Y14061354D02*
X72702485Y14013735D01*
X72702485Y14013735D02*
X72797724Y14013735D01*
X71797724Y13347069D02*
X71797724Y13251831D01*
X71797724Y13251831D02*
X71845343Y13156593D01*
X71845343Y13156593D02*
X71892962Y13108974D01*
X71892962Y13108974D02*
X71988200Y13061355D01*
X71988200Y13061355D02*
X72178676Y13013736D01*
X72178676Y13013736D02*
X72416771Y13013736D01*
X72416771Y13013736D02*
X72607247Y13061355D01*
X72607247Y13061355D02*
X72702485Y13108974D01*
X72702485Y13108974D02*
X72750105Y13156593D01*
X72750105Y13156593D02*
X72797724Y13251831D01*
X72797724Y13251831D02*
X72797724Y13347069D01*
X72797724Y13347069D02*
X72750105Y13442307D01*
X72750105Y13442307D02*
X72702485Y13489926D01*
X72702485Y13489926D02*
X72607247Y13537545D01*
X72607247Y13537545D02*
X72416771Y13585164D01*
X72416771Y13585164D02*
X72178676Y13585164D01*
X72178676Y13585164D02*
X71988200Y13537545D01*
X71988200Y13537545D02*
X71892962Y13489926D01*
X71892962Y13489926D02*
X71845343Y13442307D01*
X71845343Y13442307D02*
X71797724Y13347069D01*
X71797724Y12108974D02*
X71797724Y12585164D01*
X71797724Y12585164D02*
X72273914Y12632783D01*
X72273914Y12632783D02*
X72226295Y12585164D01*
X72226295Y12585164D02*
X72178676Y12489926D01*
X72178676Y12489926D02*
X72178676Y12251831D01*
X72178676Y12251831D02*
X72226295Y12156593D01*
X72226295Y12156593D02*
X72273914Y12108974D01*
X72273914Y12108974D02*
X72369152Y12061355D01*
X72369152Y12061355D02*
X72607247Y12061355D01*
X72607247Y12061355D02*
X72702485Y12108974D01*
X72702485Y12108974D02*
X72750105Y12156593D01*
X72750105Y12156593D02*
X72797724Y12251831D01*
X72797724Y12251831D02*
X72797724Y12489926D01*
X72797724Y12489926D02*
X72750105Y12585164D01*
X72750105Y12585164D02*
X72702485Y12632783D01*
X74255343Y16462307D02*
X74207724Y16557545D01*
X74207724Y16557545D02*
X74207724Y16700402D01*
X74207724Y16700402D02*
X74255343Y16843259D01*
X74255343Y16843259D02*
X74350581Y16938497D01*
X74350581Y16938497D02*
X74445819Y16986116D01*
X74445819Y16986116D02*
X74636295Y17033735D01*
X74636295Y17033735D02*
X74779152Y17033735D01*
X74779152Y17033735D02*
X74969628Y16986116D01*
X74969628Y16986116D02*
X75064866Y16938497D01*
X75064866Y16938497D02*
X75160105Y16843259D01*
X75160105Y16843259D02*
X75207724Y16700402D01*
X75207724Y16700402D02*
X75207724Y16605164D01*
X75207724Y16605164D02*
X75160105Y16462307D01*
X75160105Y16462307D02*
X75112485Y16414688D01*
X75112485Y16414688D02*
X74779152Y16414688D01*
X74779152Y16414688D02*
X74779152Y16605164D01*
X75207724Y15986116D02*
X74207724Y15986116D01*
X74207724Y15986116D02*
X74207724Y15605164D01*
X74207724Y15605164D02*
X74255343Y15509926D01*
X74255343Y15509926D02*
X74302962Y15462307D01*
X74302962Y15462307D02*
X74398200Y15414688D01*
X74398200Y15414688D02*
X74541057Y15414688D01*
X74541057Y15414688D02*
X74636295Y15462307D01*
X74636295Y15462307D02*
X74683914Y15509926D01*
X74683914Y15509926D02*
X74731533Y15605164D01*
X74731533Y15605164D02*
X74731533Y15986116D01*
X74207724Y14795640D02*
X74207724Y14700402D01*
X74207724Y14700402D02*
X74255343Y14605164D01*
X74255343Y14605164D02*
X74302962Y14557545D01*
X74302962Y14557545D02*
X74398200Y14509926D01*
X74398200Y14509926D02*
X74588676Y14462307D01*
X74588676Y14462307D02*
X74826771Y14462307D01*
X74826771Y14462307D02*
X75017247Y14509926D01*
X75017247Y14509926D02*
X75112485Y14557545D01*
X75112485Y14557545D02*
X75160105Y14605164D01*
X75160105Y14605164D02*
X75207724Y14700402D01*
X75207724Y14700402D02*
X75207724Y14795640D01*
X75207724Y14795640D02*
X75160105Y14890878D01*
X75160105Y14890878D02*
X75112485Y14938497D01*
X75112485Y14938497D02*
X75017247Y14986116D01*
X75017247Y14986116D02*
X74826771Y15033735D01*
X74826771Y15033735D02*
X74588676Y15033735D01*
X74588676Y15033735D02*
X74398200Y14986116D01*
X74398200Y14986116D02*
X74302962Y14938497D01*
X74302962Y14938497D02*
X74255343Y14890878D01*
X74255343Y14890878D02*
X74207724Y14795640D01*
X75112485Y14033735D02*
X75160105Y13986116D01*
X75160105Y13986116D02*
X75207724Y14033735D01*
X75207724Y14033735D02*
X75160105Y14081354D01*
X75160105Y14081354D02*
X75112485Y14033735D01*
X75112485Y14033735D02*
X75207724Y14033735D01*
X75207724Y13033736D02*
X75207724Y13605164D01*
X75207724Y13319450D02*
X74207724Y13319450D01*
X74207724Y13319450D02*
X74350581Y13414688D01*
X74350581Y13414688D02*
X74445819Y13509926D01*
X74445819Y13509926D02*
X74493438Y13605164D01*
X74541057Y12176593D02*
X75207724Y12176593D01*
X74160105Y12414688D02*
X74874390Y12652783D01*
X74874390Y12652783D02*
X74874390Y12033736D01*
X74365343Y5232307D02*
X74317724Y5327545D01*
X74317724Y5327545D02*
X74317724Y5470402D01*
X74317724Y5470402D02*
X74365343Y5613259D01*
X74365343Y5613259D02*
X74460581Y5708497D01*
X74460581Y5708497D02*
X74555819Y5756116D01*
X74555819Y5756116D02*
X74746295Y5803735D01*
X74746295Y5803735D02*
X74889152Y5803735D01*
X74889152Y5803735D02*
X75079628Y5756116D01*
X75079628Y5756116D02*
X75174866Y5708497D01*
X75174866Y5708497D02*
X75270105Y5613259D01*
X75270105Y5613259D02*
X75317724Y5470402D01*
X75317724Y5470402D02*
X75317724Y5375164D01*
X75317724Y5375164D02*
X75270105Y5232307D01*
X75270105Y5232307D02*
X75222485Y5184688D01*
X75222485Y5184688D02*
X74889152Y5184688D01*
X74889152Y5184688D02*
X74889152Y5375164D01*
X75317724Y4756116D02*
X74317724Y4756116D01*
X74317724Y4756116D02*
X74317724Y4375164D01*
X74317724Y4375164D02*
X74365343Y4279926D01*
X74365343Y4279926D02*
X74412962Y4232307D01*
X74412962Y4232307D02*
X74508200Y4184688D01*
X74508200Y4184688D02*
X74651057Y4184688D01*
X74651057Y4184688D02*
X74746295Y4232307D01*
X74746295Y4232307D02*
X74793914Y4279926D01*
X74793914Y4279926D02*
X74841533Y4375164D01*
X74841533Y4375164D02*
X74841533Y4756116D01*
X74317724Y3565640D02*
X74317724Y3470402D01*
X74317724Y3470402D02*
X74365343Y3375164D01*
X74365343Y3375164D02*
X74412962Y3327545D01*
X74412962Y3327545D02*
X74508200Y3279926D01*
X74508200Y3279926D02*
X74698676Y3232307D01*
X74698676Y3232307D02*
X74936771Y3232307D01*
X74936771Y3232307D02*
X75127247Y3279926D01*
X75127247Y3279926D02*
X75222485Y3327545D01*
X75222485Y3327545D02*
X75270105Y3375164D01*
X75270105Y3375164D02*
X75317724Y3470402D01*
X75317724Y3470402D02*
X75317724Y3565640D01*
X75317724Y3565640D02*
X75270105Y3660878D01*
X75270105Y3660878D02*
X75222485Y3708497D01*
X75222485Y3708497D02*
X75127247Y3756116D01*
X75127247Y3756116D02*
X74936771Y3803735D01*
X74936771Y3803735D02*
X74698676Y3803735D01*
X74698676Y3803735D02*
X74508200Y3756116D01*
X74508200Y3756116D02*
X74412962Y3708497D01*
X74412962Y3708497D02*
X74365343Y3660878D01*
X74365343Y3660878D02*
X74317724Y3565640D01*
X75222485Y2803735D02*
X75270105Y2756116D01*
X75270105Y2756116D02*
X75317724Y2803735D01*
X75317724Y2803735D02*
X75270105Y2851354D01*
X75270105Y2851354D02*
X75222485Y2803735D01*
X75222485Y2803735D02*
X75317724Y2803735D01*
X75317724Y1803736D02*
X75317724Y2375164D01*
X75317724Y2089450D02*
X74317724Y2089450D01*
X74317724Y2089450D02*
X74460581Y2184688D01*
X74460581Y2184688D02*
X74555819Y2279926D01*
X74555819Y2279926D02*
X74603438Y2375164D01*
X74317724Y1470402D02*
X74317724Y851355D01*
X74317724Y851355D02*
X74698676Y1184688D01*
X74698676Y1184688D02*
X74698676Y1041831D01*
X74698676Y1041831D02*
X74746295Y946593D01*
X74746295Y946593D02*
X74793914Y898974D01*
X74793914Y898974D02*
X74889152Y851355D01*
X74889152Y851355D02*
X75127247Y851355D01*
X75127247Y851355D02*
X75222485Y898974D01*
X75222485Y898974D02*
X75270105Y946593D01*
X75270105Y946593D02*
X75317724Y1041831D01*
X75317724Y1041831D02*
X75317724Y1327545D01*
X75317724Y1327545D02*
X75270105Y1422783D01*
X75270105Y1422783D02*
X75222485Y1470402D01*
X76885343Y5232307D02*
X76837724Y5327545D01*
X76837724Y5327545D02*
X76837724Y5470402D01*
X76837724Y5470402D02*
X76885343Y5613259D01*
X76885343Y5613259D02*
X76980581Y5708497D01*
X76980581Y5708497D02*
X77075819Y5756116D01*
X77075819Y5756116D02*
X77266295Y5803735D01*
X77266295Y5803735D02*
X77409152Y5803735D01*
X77409152Y5803735D02*
X77599628Y5756116D01*
X77599628Y5756116D02*
X77694866Y5708497D01*
X77694866Y5708497D02*
X77790105Y5613259D01*
X77790105Y5613259D02*
X77837724Y5470402D01*
X77837724Y5470402D02*
X77837724Y5375164D01*
X77837724Y5375164D02*
X77790105Y5232307D01*
X77790105Y5232307D02*
X77742485Y5184688D01*
X77742485Y5184688D02*
X77409152Y5184688D01*
X77409152Y5184688D02*
X77409152Y5375164D01*
X77837724Y4756116D02*
X76837724Y4756116D01*
X76837724Y4756116D02*
X76837724Y4375164D01*
X76837724Y4375164D02*
X76885343Y4279926D01*
X76885343Y4279926D02*
X76932962Y4232307D01*
X76932962Y4232307D02*
X77028200Y4184688D01*
X77028200Y4184688D02*
X77171057Y4184688D01*
X77171057Y4184688D02*
X77266295Y4232307D01*
X77266295Y4232307D02*
X77313914Y4279926D01*
X77313914Y4279926D02*
X77361533Y4375164D01*
X77361533Y4375164D02*
X77361533Y4756116D01*
X76837724Y3565640D02*
X76837724Y3470402D01*
X76837724Y3470402D02*
X76885343Y3375164D01*
X76885343Y3375164D02*
X76932962Y3327545D01*
X76932962Y3327545D02*
X77028200Y3279926D01*
X77028200Y3279926D02*
X77218676Y3232307D01*
X77218676Y3232307D02*
X77456771Y3232307D01*
X77456771Y3232307D02*
X77647247Y3279926D01*
X77647247Y3279926D02*
X77742485Y3327545D01*
X77742485Y3327545D02*
X77790105Y3375164D01*
X77790105Y3375164D02*
X77837724Y3470402D01*
X77837724Y3470402D02*
X77837724Y3565640D01*
X77837724Y3565640D02*
X77790105Y3660878D01*
X77790105Y3660878D02*
X77742485Y3708497D01*
X77742485Y3708497D02*
X77647247Y3756116D01*
X77647247Y3756116D02*
X77456771Y3803735D01*
X77456771Y3803735D02*
X77218676Y3803735D01*
X77218676Y3803735D02*
X77028200Y3756116D01*
X77028200Y3756116D02*
X76932962Y3708497D01*
X76932962Y3708497D02*
X76885343Y3660878D01*
X76885343Y3660878D02*
X76837724Y3565640D01*
X77742485Y2803735D02*
X77790105Y2756116D01*
X77790105Y2756116D02*
X77837724Y2803735D01*
X77837724Y2803735D02*
X77790105Y2851354D01*
X77790105Y2851354D02*
X77742485Y2803735D01*
X77742485Y2803735D02*
X77837724Y2803735D01*
X77837724Y1803736D02*
X77837724Y2375164D01*
X77837724Y2089450D02*
X76837724Y2089450D01*
X76837724Y2089450D02*
X76980581Y2184688D01*
X76980581Y2184688D02*
X77075819Y2279926D01*
X77075819Y2279926D02*
X77123438Y2375164D01*
X76837724Y946593D02*
X76837724Y1137069D01*
X76837724Y1137069D02*
X76885343Y1232307D01*
X76885343Y1232307D02*
X76932962Y1279926D01*
X76932962Y1279926D02*
X77075819Y1375164D01*
X77075819Y1375164D02*
X77266295Y1422783D01*
X77266295Y1422783D02*
X77647247Y1422783D01*
X77647247Y1422783D02*
X77742485Y1375164D01*
X77742485Y1375164D02*
X77790105Y1327545D01*
X77790105Y1327545D02*
X77837724Y1232307D01*
X77837724Y1232307D02*
X77837724Y1041831D01*
X77837724Y1041831D02*
X77790105Y946593D01*
X77790105Y946593D02*
X77742485Y898974D01*
X77742485Y898974D02*
X77647247Y851355D01*
X77647247Y851355D02*
X77409152Y851355D01*
X77409152Y851355D02*
X77313914Y898974D01*
X77313914Y898974D02*
X77266295Y946593D01*
X77266295Y946593D02*
X77218676Y1041831D01*
X77218676Y1041831D02*
X77218676Y1232307D01*
X77218676Y1232307D02*
X77266295Y1327545D01*
X77266295Y1327545D02*
X77313914Y1375164D01*
X77313914Y1375164D02*
X77409152Y1422783D01*
X76925343Y16422307D02*
X76877724Y16517545D01*
X76877724Y16517545D02*
X76877724Y16660402D01*
X76877724Y16660402D02*
X76925343Y16803259D01*
X76925343Y16803259D02*
X77020581Y16898497D01*
X77020581Y16898497D02*
X77115819Y16946116D01*
X77115819Y16946116D02*
X77306295Y16993735D01*
X77306295Y16993735D02*
X77449152Y16993735D01*
X77449152Y16993735D02*
X77639628Y16946116D01*
X77639628Y16946116D02*
X77734866Y16898497D01*
X77734866Y16898497D02*
X77830105Y16803259D01*
X77830105Y16803259D02*
X77877724Y16660402D01*
X77877724Y16660402D02*
X77877724Y16565164D01*
X77877724Y16565164D02*
X77830105Y16422307D01*
X77830105Y16422307D02*
X77782485Y16374688D01*
X77782485Y16374688D02*
X77449152Y16374688D01*
X77449152Y16374688D02*
X77449152Y16565164D01*
X77877724Y15946116D02*
X76877724Y15946116D01*
X76877724Y15946116D02*
X76877724Y15565164D01*
X76877724Y15565164D02*
X76925343Y15469926D01*
X76925343Y15469926D02*
X76972962Y15422307D01*
X76972962Y15422307D02*
X77068200Y15374688D01*
X77068200Y15374688D02*
X77211057Y15374688D01*
X77211057Y15374688D02*
X77306295Y15422307D01*
X77306295Y15422307D02*
X77353914Y15469926D01*
X77353914Y15469926D02*
X77401533Y15565164D01*
X77401533Y15565164D02*
X77401533Y15946116D01*
X76877724Y14755640D02*
X76877724Y14660402D01*
X76877724Y14660402D02*
X76925343Y14565164D01*
X76925343Y14565164D02*
X76972962Y14517545D01*
X76972962Y14517545D02*
X77068200Y14469926D01*
X77068200Y14469926D02*
X77258676Y14422307D01*
X77258676Y14422307D02*
X77496771Y14422307D01*
X77496771Y14422307D02*
X77687247Y14469926D01*
X77687247Y14469926D02*
X77782485Y14517545D01*
X77782485Y14517545D02*
X77830105Y14565164D01*
X77830105Y14565164D02*
X77877724Y14660402D01*
X77877724Y14660402D02*
X77877724Y14755640D01*
X77877724Y14755640D02*
X77830105Y14850878D01*
X77830105Y14850878D02*
X77782485Y14898497D01*
X77782485Y14898497D02*
X77687247Y14946116D01*
X77687247Y14946116D02*
X77496771Y14993735D01*
X77496771Y14993735D02*
X77258676Y14993735D01*
X77258676Y14993735D02*
X77068200Y14946116D01*
X77068200Y14946116D02*
X76972962Y14898497D01*
X76972962Y14898497D02*
X76925343Y14850878D01*
X76925343Y14850878D02*
X76877724Y14755640D01*
X77782485Y13993735D02*
X77830105Y13946116D01*
X77830105Y13946116D02*
X77877724Y13993735D01*
X77877724Y13993735D02*
X77830105Y14041354D01*
X77830105Y14041354D02*
X77782485Y13993735D01*
X77782485Y13993735D02*
X77877724Y13993735D01*
X77877724Y12993736D02*
X77877724Y13565164D01*
X77877724Y13279450D02*
X76877724Y13279450D01*
X76877724Y13279450D02*
X77020581Y13374688D01*
X77020581Y13374688D02*
X77115819Y13469926D01*
X77115819Y13469926D02*
X77163438Y13565164D01*
X76877724Y12088974D02*
X76877724Y12565164D01*
X76877724Y12565164D02*
X77353914Y12612783D01*
X77353914Y12612783D02*
X77306295Y12565164D01*
X77306295Y12565164D02*
X77258676Y12469926D01*
X77258676Y12469926D02*
X77258676Y12231831D01*
X77258676Y12231831D02*
X77306295Y12136593D01*
X77306295Y12136593D02*
X77353914Y12088974D01*
X77353914Y12088974D02*
X77449152Y12041355D01*
X77449152Y12041355D02*
X77687247Y12041355D01*
X77687247Y12041355D02*
X77782485Y12088974D01*
X77782485Y12088974D02*
X77830105Y12136593D01*
X77830105Y12136593D02*
X77877724Y12231831D01*
X77877724Y12231831D02*
X77877724Y12469926D01*
X77877724Y12469926D02*
X77830105Y12565164D01*
X77830105Y12565164D02*
X77782485Y12612783D01*
X79475343Y5232307D02*
X79427724Y5327545D01*
X79427724Y5327545D02*
X79427724Y5470402D01*
X79427724Y5470402D02*
X79475343Y5613259D01*
X79475343Y5613259D02*
X79570581Y5708497D01*
X79570581Y5708497D02*
X79665819Y5756116D01*
X79665819Y5756116D02*
X79856295Y5803735D01*
X79856295Y5803735D02*
X79999152Y5803735D01*
X79999152Y5803735D02*
X80189628Y5756116D01*
X80189628Y5756116D02*
X80284866Y5708497D01*
X80284866Y5708497D02*
X80380105Y5613259D01*
X80380105Y5613259D02*
X80427724Y5470402D01*
X80427724Y5470402D02*
X80427724Y5375164D01*
X80427724Y5375164D02*
X80380105Y5232307D01*
X80380105Y5232307D02*
X80332485Y5184688D01*
X80332485Y5184688D02*
X79999152Y5184688D01*
X79999152Y5184688D02*
X79999152Y5375164D01*
X80427724Y4756116D02*
X79427724Y4756116D01*
X79427724Y4756116D02*
X79427724Y4375164D01*
X79427724Y4375164D02*
X79475343Y4279926D01*
X79475343Y4279926D02*
X79522962Y4232307D01*
X79522962Y4232307D02*
X79618200Y4184688D01*
X79618200Y4184688D02*
X79761057Y4184688D01*
X79761057Y4184688D02*
X79856295Y4232307D01*
X79856295Y4232307D02*
X79903914Y4279926D01*
X79903914Y4279926D02*
X79951533Y4375164D01*
X79951533Y4375164D02*
X79951533Y4756116D01*
X79427724Y3565640D02*
X79427724Y3470402D01*
X79427724Y3470402D02*
X79475343Y3375164D01*
X79475343Y3375164D02*
X79522962Y3327545D01*
X79522962Y3327545D02*
X79618200Y3279926D01*
X79618200Y3279926D02*
X79808676Y3232307D01*
X79808676Y3232307D02*
X80046771Y3232307D01*
X80046771Y3232307D02*
X80237247Y3279926D01*
X80237247Y3279926D02*
X80332485Y3327545D01*
X80332485Y3327545D02*
X80380105Y3375164D01*
X80380105Y3375164D02*
X80427724Y3470402D01*
X80427724Y3470402D02*
X80427724Y3565640D01*
X80427724Y3565640D02*
X80380105Y3660878D01*
X80380105Y3660878D02*
X80332485Y3708497D01*
X80332485Y3708497D02*
X80237247Y3756116D01*
X80237247Y3756116D02*
X80046771Y3803735D01*
X80046771Y3803735D02*
X79808676Y3803735D01*
X79808676Y3803735D02*
X79618200Y3756116D01*
X79618200Y3756116D02*
X79522962Y3708497D01*
X79522962Y3708497D02*
X79475343Y3660878D01*
X79475343Y3660878D02*
X79427724Y3565640D01*
X80332485Y2803735D02*
X80380105Y2756116D01*
X80380105Y2756116D02*
X80427724Y2803735D01*
X80427724Y2803735D02*
X80380105Y2851354D01*
X80380105Y2851354D02*
X80332485Y2803735D01*
X80332485Y2803735D02*
X80427724Y2803735D01*
X80427724Y1803736D02*
X80427724Y2375164D01*
X80427724Y2089450D02*
X79427724Y2089450D01*
X79427724Y2089450D02*
X79570581Y2184688D01*
X79570581Y2184688D02*
X79665819Y2279926D01*
X79665819Y2279926D02*
X79713438Y2375164D01*
X80427724Y1327545D02*
X80427724Y1137069D01*
X80427724Y1137069D02*
X80380105Y1041831D01*
X80380105Y1041831D02*
X80332485Y994212D01*
X80332485Y994212D02*
X80189628Y898974D01*
X80189628Y898974D02*
X79999152Y851355D01*
X79999152Y851355D02*
X79618200Y851355D01*
X79618200Y851355D02*
X79522962Y898974D01*
X79522962Y898974D02*
X79475343Y946593D01*
X79475343Y946593D02*
X79427724Y1041831D01*
X79427724Y1041831D02*
X79427724Y1232307D01*
X79427724Y1232307D02*
X79475343Y1327545D01*
X79475343Y1327545D02*
X79522962Y1375164D01*
X79522962Y1375164D02*
X79618200Y1422783D01*
X79618200Y1422783D02*
X79856295Y1422783D01*
X79856295Y1422783D02*
X79951533Y1375164D01*
X79951533Y1375164D02*
X79999152Y1327545D01*
X79999152Y1327545D02*
X80046771Y1232307D01*
X80046771Y1232307D02*
X80046771Y1041831D01*
X80046771Y1041831D02*
X79999152Y946593D01*
X79999152Y946593D02*
X79951533Y898974D01*
X79951533Y898974D02*
X79856295Y851355D01*
X79555343Y16462307D02*
X79507724Y16557545D01*
X79507724Y16557545D02*
X79507724Y16700402D01*
X79507724Y16700402D02*
X79555343Y16843259D01*
X79555343Y16843259D02*
X79650581Y16938497D01*
X79650581Y16938497D02*
X79745819Y16986116D01*
X79745819Y16986116D02*
X79936295Y17033735D01*
X79936295Y17033735D02*
X80079152Y17033735D01*
X80079152Y17033735D02*
X80269628Y16986116D01*
X80269628Y16986116D02*
X80364866Y16938497D01*
X80364866Y16938497D02*
X80460105Y16843259D01*
X80460105Y16843259D02*
X80507724Y16700402D01*
X80507724Y16700402D02*
X80507724Y16605164D01*
X80507724Y16605164D02*
X80460105Y16462307D01*
X80460105Y16462307D02*
X80412485Y16414688D01*
X80412485Y16414688D02*
X80079152Y16414688D01*
X80079152Y16414688D02*
X80079152Y16605164D01*
X80507724Y15986116D02*
X79507724Y15986116D01*
X79507724Y15986116D02*
X79507724Y15605164D01*
X79507724Y15605164D02*
X79555343Y15509926D01*
X79555343Y15509926D02*
X79602962Y15462307D01*
X79602962Y15462307D02*
X79698200Y15414688D01*
X79698200Y15414688D02*
X79841057Y15414688D01*
X79841057Y15414688D02*
X79936295Y15462307D01*
X79936295Y15462307D02*
X79983914Y15509926D01*
X79983914Y15509926D02*
X80031533Y15605164D01*
X80031533Y15605164D02*
X80031533Y15986116D01*
X79507724Y14795640D02*
X79507724Y14700402D01*
X79507724Y14700402D02*
X79555343Y14605164D01*
X79555343Y14605164D02*
X79602962Y14557545D01*
X79602962Y14557545D02*
X79698200Y14509926D01*
X79698200Y14509926D02*
X79888676Y14462307D01*
X79888676Y14462307D02*
X80126771Y14462307D01*
X80126771Y14462307D02*
X80317247Y14509926D01*
X80317247Y14509926D02*
X80412485Y14557545D01*
X80412485Y14557545D02*
X80460105Y14605164D01*
X80460105Y14605164D02*
X80507724Y14700402D01*
X80507724Y14700402D02*
X80507724Y14795640D01*
X80507724Y14795640D02*
X80460105Y14890878D01*
X80460105Y14890878D02*
X80412485Y14938497D01*
X80412485Y14938497D02*
X80317247Y14986116D01*
X80317247Y14986116D02*
X80126771Y15033735D01*
X80126771Y15033735D02*
X79888676Y15033735D01*
X79888676Y15033735D02*
X79698200Y14986116D01*
X79698200Y14986116D02*
X79602962Y14938497D01*
X79602962Y14938497D02*
X79555343Y14890878D01*
X79555343Y14890878D02*
X79507724Y14795640D01*
X80412485Y14033735D02*
X80460105Y13986116D01*
X80460105Y13986116D02*
X80507724Y14033735D01*
X80507724Y14033735D02*
X80460105Y14081354D01*
X80460105Y14081354D02*
X80412485Y14033735D01*
X80412485Y14033735D02*
X80507724Y14033735D01*
X80507724Y13033736D02*
X80507724Y13605164D01*
X80507724Y13319450D02*
X79507724Y13319450D01*
X79507724Y13319450D02*
X79650581Y13414688D01*
X79650581Y13414688D02*
X79745819Y13509926D01*
X79745819Y13509926D02*
X79793438Y13605164D01*
X79507724Y12700402D02*
X79507724Y12033736D01*
X79507724Y12033736D02*
X80507724Y12462307D01*
X81925343Y16462307D02*
X81877724Y16557545D01*
X81877724Y16557545D02*
X81877724Y16700402D01*
X81877724Y16700402D02*
X81925343Y16843259D01*
X81925343Y16843259D02*
X82020581Y16938497D01*
X82020581Y16938497D02*
X82115819Y16986116D01*
X82115819Y16986116D02*
X82306295Y17033735D01*
X82306295Y17033735D02*
X82449152Y17033735D01*
X82449152Y17033735D02*
X82639628Y16986116D01*
X82639628Y16986116D02*
X82734866Y16938497D01*
X82734866Y16938497D02*
X82830105Y16843259D01*
X82830105Y16843259D02*
X82877724Y16700402D01*
X82877724Y16700402D02*
X82877724Y16605164D01*
X82877724Y16605164D02*
X82830105Y16462307D01*
X82830105Y16462307D02*
X82782485Y16414688D01*
X82782485Y16414688D02*
X82449152Y16414688D01*
X82449152Y16414688D02*
X82449152Y16605164D01*
X82877724Y15986116D02*
X81877724Y15986116D01*
X81877724Y15986116D02*
X81877724Y15605164D01*
X81877724Y15605164D02*
X81925343Y15509926D01*
X81925343Y15509926D02*
X81972962Y15462307D01*
X81972962Y15462307D02*
X82068200Y15414688D01*
X82068200Y15414688D02*
X82211057Y15414688D01*
X82211057Y15414688D02*
X82306295Y15462307D01*
X82306295Y15462307D02*
X82353914Y15509926D01*
X82353914Y15509926D02*
X82401533Y15605164D01*
X82401533Y15605164D02*
X82401533Y15986116D01*
X81877724Y14795640D02*
X81877724Y14700402D01*
X81877724Y14700402D02*
X81925343Y14605164D01*
X81925343Y14605164D02*
X81972962Y14557545D01*
X81972962Y14557545D02*
X82068200Y14509926D01*
X82068200Y14509926D02*
X82258676Y14462307D01*
X82258676Y14462307D02*
X82496771Y14462307D01*
X82496771Y14462307D02*
X82687247Y14509926D01*
X82687247Y14509926D02*
X82782485Y14557545D01*
X82782485Y14557545D02*
X82830105Y14605164D01*
X82830105Y14605164D02*
X82877724Y14700402D01*
X82877724Y14700402D02*
X82877724Y14795640D01*
X82877724Y14795640D02*
X82830105Y14890878D01*
X82830105Y14890878D02*
X82782485Y14938497D01*
X82782485Y14938497D02*
X82687247Y14986116D01*
X82687247Y14986116D02*
X82496771Y15033735D01*
X82496771Y15033735D02*
X82258676Y15033735D01*
X82258676Y15033735D02*
X82068200Y14986116D01*
X82068200Y14986116D02*
X81972962Y14938497D01*
X81972962Y14938497D02*
X81925343Y14890878D01*
X81925343Y14890878D02*
X81877724Y14795640D01*
X82782485Y14033735D02*
X82830105Y13986116D01*
X82830105Y13986116D02*
X82877724Y14033735D01*
X82877724Y14033735D02*
X82830105Y14081354D01*
X82830105Y14081354D02*
X82782485Y14033735D01*
X82782485Y14033735D02*
X82877724Y14033735D01*
X81972962Y13605164D02*
X81925343Y13557545D01*
X81925343Y13557545D02*
X81877724Y13462307D01*
X81877724Y13462307D02*
X81877724Y13224212D01*
X81877724Y13224212D02*
X81925343Y13128974D01*
X81925343Y13128974D02*
X81972962Y13081355D01*
X81972962Y13081355D02*
X82068200Y13033736D01*
X82068200Y13033736D02*
X82163438Y13033736D01*
X82163438Y13033736D02*
X82306295Y13081355D01*
X82306295Y13081355D02*
X82877724Y13652783D01*
X82877724Y13652783D02*
X82877724Y13033736D01*
X82877724Y12081355D02*
X82877724Y12652783D01*
X82877724Y12367069D02*
X81877724Y12367069D01*
X81877724Y12367069D02*
X82020581Y12462307D01*
X82020581Y12462307D02*
X82115819Y12557545D01*
X82115819Y12557545D02*
X82163438Y12652783D01*
X82015343Y5232307D02*
X81967724Y5327545D01*
X81967724Y5327545D02*
X81967724Y5470402D01*
X81967724Y5470402D02*
X82015343Y5613259D01*
X82015343Y5613259D02*
X82110581Y5708497D01*
X82110581Y5708497D02*
X82205819Y5756116D01*
X82205819Y5756116D02*
X82396295Y5803735D01*
X82396295Y5803735D02*
X82539152Y5803735D01*
X82539152Y5803735D02*
X82729628Y5756116D01*
X82729628Y5756116D02*
X82824866Y5708497D01*
X82824866Y5708497D02*
X82920105Y5613259D01*
X82920105Y5613259D02*
X82967724Y5470402D01*
X82967724Y5470402D02*
X82967724Y5375164D01*
X82967724Y5375164D02*
X82920105Y5232307D01*
X82920105Y5232307D02*
X82872485Y5184688D01*
X82872485Y5184688D02*
X82539152Y5184688D01*
X82539152Y5184688D02*
X82539152Y5375164D01*
X82967724Y4756116D02*
X81967724Y4756116D01*
X81967724Y4756116D02*
X81967724Y4375164D01*
X81967724Y4375164D02*
X82015343Y4279926D01*
X82015343Y4279926D02*
X82062962Y4232307D01*
X82062962Y4232307D02*
X82158200Y4184688D01*
X82158200Y4184688D02*
X82301057Y4184688D01*
X82301057Y4184688D02*
X82396295Y4232307D01*
X82396295Y4232307D02*
X82443914Y4279926D01*
X82443914Y4279926D02*
X82491533Y4375164D01*
X82491533Y4375164D02*
X82491533Y4756116D01*
X81967724Y3565640D02*
X81967724Y3470402D01*
X81967724Y3470402D02*
X82015343Y3375164D01*
X82015343Y3375164D02*
X82062962Y3327545D01*
X82062962Y3327545D02*
X82158200Y3279926D01*
X82158200Y3279926D02*
X82348676Y3232307D01*
X82348676Y3232307D02*
X82586771Y3232307D01*
X82586771Y3232307D02*
X82777247Y3279926D01*
X82777247Y3279926D02*
X82872485Y3327545D01*
X82872485Y3327545D02*
X82920105Y3375164D01*
X82920105Y3375164D02*
X82967724Y3470402D01*
X82967724Y3470402D02*
X82967724Y3565640D01*
X82967724Y3565640D02*
X82920105Y3660878D01*
X82920105Y3660878D02*
X82872485Y3708497D01*
X82872485Y3708497D02*
X82777247Y3756116D01*
X82777247Y3756116D02*
X82586771Y3803735D01*
X82586771Y3803735D02*
X82348676Y3803735D01*
X82348676Y3803735D02*
X82158200Y3756116D01*
X82158200Y3756116D02*
X82062962Y3708497D01*
X82062962Y3708497D02*
X82015343Y3660878D01*
X82015343Y3660878D02*
X81967724Y3565640D01*
X82872485Y2803735D02*
X82920105Y2756116D01*
X82920105Y2756116D02*
X82967724Y2803735D01*
X82967724Y2803735D02*
X82920105Y2851354D01*
X82920105Y2851354D02*
X82872485Y2803735D01*
X82872485Y2803735D02*
X82967724Y2803735D01*
X82062962Y2375164D02*
X82015343Y2327545D01*
X82015343Y2327545D02*
X81967724Y2232307D01*
X81967724Y2232307D02*
X81967724Y1994212D01*
X81967724Y1994212D02*
X82015343Y1898974D01*
X82015343Y1898974D02*
X82062962Y1851355D01*
X82062962Y1851355D02*
X82158200Y1803736D01*
X82158200Y1803736D02*
X82253438Y1803736D01*
X82253438Y1803736D02*
X82396295Y1851355D01*
X82396295Y1851355D02*
X82967724Y2422783D01*
X82967724Y2422783D02*
X82967724Y1803736D01*
X82967724Y851355D02*
X82967724Y1422783D01*
X82967724Y1137069D02*
X81967724Y1137069D01*
X81967724Y1137069D02*
X82110581Y1232307D01*
X82110581Y1232307D02*
X82205819Y1327545D01*
X82205819Y1327545D02*
X82253438Y1422783D01*
X84976771Y5826116D02*
X84976771Y5064211D01*
X85357724Y5445164D02*
X84595819Y5445164D01*
X84357724Y4683259D02*
X84357724Y4064212D01*
X84357724Y4064212D02*
X84738676Y4397545D01*
X84738676Y4397545D02*
X84738676Y4254688D01*
X84738676Y4254688D02*
X84786295Y4159450D01*
X84786295Y4159450D02*
X84833914Y4111831D01*
X84833914Y4111831D02*
X84929152Y4064212D01*
X84929152Y4064212D02*
X85167247Y4064212D01*
X85167247Y4064212D02*
X85262485Y4111831D01*
X85262485Y4111831D02*
X85310105Y4159450D01*
X85310105Y4159450D02*
X85357724Y4254688D01*
X85357724Y4254688D02*
X85357724Y4540402D01*
X85357724Y4540402D02*
X85310105Y4635640D01*
X85310105Y4635640D02*
X85262485Y4683259D01*
X84691057Y3730878D02*
X85357724Y3492783D01*
X85357724Y3492783D02*
X84691057Y3254688D01*
X84357724Y2968973D02*
X84357724Y2349926D01*
X84357724Y2349926D02*
X84738676Y2683259D01*
X84738676Y2683259D02*
X84738676Y2540402D01*
X84738676Y2540402D02*
X84786295Y2445164D01*
X84786295Y2445164D02*
X84833914Y2397545D01*
X84833914Y2397545D02*
X84929152Y2349926D01*
X84929152Y2349926D02*
X85167247Y2349926D01*
X85167247Y2349926D02*
X85262485Y2397545D01*
X85262485Y2397545D02*
X85310105Y2445164D01*
X85310105Y2445164D02*
X85357724Y2540402D01*
X85357724Y2540402D02*
X85357724Y2826116D01*
X85357724Y2826116D02*
X85310105Y2921354D01*
X85310105Y2921354D02*
X85262485Y2968973D01*
X84585343Y14172307D02*
X84537724Y14267545D01*
X84537724Y14267545D02*
X84537724Y14410402D01*
X84537724Y14410402D02*
X84585343Y14553259D01*
X84585343Y14553259D02*
X84680581Y14648497D01*
X84680581Y14648497D02*
X84775819Y14696116D01*
X84775819Y14696116D02*
X84966295Y14743735D01*
X84966295Y14743735D02*
X85109152Y14743735D01*
X85109152Y14743735D02*
X85299628Y14696116D01*
X85299628Y14696116D02*
X85394866Y14648497D01*
X85394866Y14648497D02*
X85490105Y14553259D01*
X85490105Y14553259D02*
X85537724Y14410402D01*
X85537724Y14410402D02*
X85537724Y14315164D01*
X85537724Y14315164D02*
X85490105Y14172307D01*
X85490105Y14172307D02*
X85442485Y14124688D01*
X85442485Y14124688D02*
X85109152Y14124688D01*
X85109152Y14124688D02*
X85109152Y14315164D01*
X85537724Y13696116D02*
X84537724Y13696116D01*
X84537724Y13696116D02*
X85537724Y13124688D01*
X85537724Y13124688D02*
X84537724Y13124688D01*
X85537724Y12648497D02*
X84537724Y12648497D01*
X84537724Y12648497D02*
X84537724Y12410402D01*
X84537724Y12410402D02*
X84585343Y12267545D01*
X84585343Y12267545D02*
X84680581Y12172307D01*
X84680581Y12172307D02*
X84775819Y12124688D01*
X84775819Y12124688D02*
X84966295Y12077069D01*
X84966295Y12077069D02*
X85109152Y12077069D01*
X85109152Y12077069D02*
X85299628Y12124688D01*
X85299628Y12124688D02*
X85394866Y12172307D01*
X85394866Y12172307D02*
X85490105Y12267545D01*
X85490105Y12267545D02*
X85537724Y12410402D01*
X85537724Y12410402D02*
X85537724Y12648497D01*
D10*
X5287209Y63747562D02*
X5382447Y63795181D01*
X5382447Y63795181D02*
X5525304Y63795181D01*
X5525304Y63795181D02*
X5668161Y63747562D01*
X5668161Y63747562D02*
X5763399Y63652324D01*
X5763399Y63652324D02*
X5811018Y63557086D01*
X5811018Y63557086D02*
X5858637Y63366610D01*
X5858637Y63366610D02*
X5858637Y63223753D01*
X5858637Y63223753D02*
X5811018Y63033277D01*
X5811018Y63033277D02*
X5763399Y62938039D01*
X5763399Y62938039D02*
X5668161Y62842800D01*
X5668161Y62842800D02*
X5525304Y62795181D01*
X5525304Y62795181D02*
X5430066Y62795181D01*
X5430066Y62795181D02*
X5287209Y62842800D01*
X5287209Y62842800D02*
X5239590Y62890420D01*
X5239590Y62890420D02*
X5239590Y63223753D01*
X5239590Y63223753D02*
X5430066Y63223753D01*
X4811018Y62795181D02*
X4811018Y63795181D01*
X4811018Y63795181D02*
X4239590Y62795181D01*
X4239590Y62795181D02*
X4239590Y63795181D01*
X3763399Y62795181D02*
X3763399Y63795181D01*
X3763399Y63795181D02*
X3525304Y63795181D01*
X3525304Y63795181D02*
X3382447Y63747562D01*
X3382447Y63747562D02*
X3287209Y63652324D01*
X3287209Y63652324D02*
X3239590Y63557086D01*
X3239590Y63557086D02*
X3191971Y63366610D01*
X3191971Y63366610D02*
X3191971Y63223753D01*
X3191971Y63223753D02*
X3239590Y63033277D01*
X3239590Y63033277D02*
X3287209Y62938039D01*
X3287209Y62938039D02*
X3382447Y62842800D01*
X3382447Y62842800D02*
X3525304Y62795181D01*
X3525304Y62795181D02*
X3763399Y62795181D01*
X91630124Y26873809D02*
X90630124Y26873809D01*
X90630124Y26873809D02*
X90630124Y26635714D01*
X90630124Y26635714D02*
X90677743Y26492857D01*
X90677743Y26492857D02*
X90772981Y26397619D01*
X90772981Y26397619D02*
X90868219Y26350000D01*
X90868219Y26350000D02*
X91058695Y26302381D01*
X91058695Y26302381D02*
X91201552Y26302381D01*
X91201552Y26302381D02*
X91392028Y26350000D01*
X91392028Y26350000D02*
X91487266Y26397619D01*
X91487266Y26397619D02*
X91582505Y26492857D01*
X91582505Y26492857D02*
X91630124Y26635714D01*
X91630124Y26635714D02*
X91630124Y26873809D01*
X91630124Y25873809D02*
X90630124Y25873809D01*
X90630124Y25207143D02*
X90630124Y25016667D01*
X90630124Y25016667D02*
X90677743Y24921429D01*
X90677743Y24921429D02*
X90772981Y24826191D01*
X90772981Y24826191D02*
X90963457Y24778572D01*
X90963457Y24778572D02*
X91296790Y24778572D01*
X91296790Y24778572D02*
X91487266Y24826191D01*
X91487266Y24826191D02*
X91582505Y24921429D01*
X91582505Y24921429D02*
X91630124Y25016667D01*
X91630124Y25016667D02*
X91630124Y25207143D01*
X91630124Y25207143D02*
X91582505Y25302381D01*
X91582505Y25302381D02*
X91487266Y25397619D01*
X91487266Y25397619D02*
X91296790Y25445238D01*
X91296790Y25445238D02*
X90963457Y25445238D01*
X90963457Y25445238D02*
X90772981Y25397619D01*
X90772981Y25397619D02*
X90677743Y25302381D01*
X90677743Y25302381D02*
X90630124Y25207143D01*
X97434885Y26645239D02*
X97482505Y26692858D01*
X97482505Y26692858D02*
X97530124Y26835715D01*
X97530124Y26835715D02*
X97530124Y26930953D01*
X97530124Y26930953D02*
X97482505Y27073810D01*
X97482505Y27073810D02*
X97387266Y27169048D01*
X97387266Y27169048D02*
X97292028Y27216667D01*
X97292028Y27216667D02*
X97101552Y27264286D01*
X97101552Y27264286D02*
X96958695Y27264286D01*
X96958695Y27264286D02*
X96768219Y27216667D01*
X96768219Y27216667D02*
X96672981Y27169048D01*
X96672981Y27169048D02*
X96577743Y27073810D01*
X96577743Y27073810D02*
X96530124Y26930953D01*
X96530124Y26930953D02*
X96530124Y26835715D01*
X96530124Y26835715D02*
X96577743Y26692858D01*
X96577743Y26692858D02*
X96625362Y26645239D01*
X97530124Y25740477D02*
X97530124Y26216667D01*
X97530124Y26216667D02*
X96530124Y26216667D01*
X97530124Y25407143D02*
X96530124Y25407143D01*
X97530124Y24835715D02*
X96958695Y25264286D01*
X96530124Y24835715D02*
X97101552Y25407143D01*
X71460124Y37398095D02*
X71460124Y36826667D01*
X72460124Y37112381D02*
X71460124Y37112381D01*
X72460124Y36493333D02*
X71460124Y36493333D01*
X71460124Y36493333D02*
X71460124Y36112381D01*
X71460124Y36112381D02*
X71507743Y36017143D01*
X71507743Y36017143D02*
X71555362Y35969524D01*
X71555362Y35969524D02*
X71650600Y35921905D01*
X71650600Y35921905D02*
X71793457Y35921905D01*
X71793457Y35921905D02*
X71888695Y35969524D01*
X71888695Y35969524D02*
X71936314Y36017143D01*
X71936314Y36017143D02*
X71983933Y36112381D01*
X71983933Y36112381D02*
X71983933Y36493333D01*
X72460124Y34969524D02*
X72460124Y35540952D01*
X72460124Y35255238D02*
X71460124Y35255238D01*
X71460124Y35255238D02*
X71602981Y35350476D01*
X71602981Y35350476D02*
X71698219Y35445714D01*
X71698219Y35445714D02*
X71745838Y35540952D01*
X71555362Y34588571D02*
X71507743Y34540952D01*
X71507743Y34540952D02*
X71460124Y34445714D01*
X71460124Y34445714D02*
X71460124Y34207619D01*
X71460124Y34207619D02*
X71507743Y34112381D01*
X71507743Y34112381D02*
X71555362Y34064762D01*
X71555362Y34064762D02*
X71650600Y34017143D01*
X71650600Y34017143D02*
X71745838Y34017143D01*
X71745838Y34017143D02*
X71888695Y34064762D01*
X71888695Y34064762D02*
X72460124Y34636190D01*
X72460124Y34636190D02*
X72460124Y34017143D01*
X47160124Y75481905D02*
X47160124Y74910477D01*
X48160124Y75196191D02*
X47160124Y75196191D01*
X48160124Y74577143D02*
X47160124Y74577143D01*
X47160124Y74577143D02*
X47160124Y74196191D01*
X47160124Y74196191D02*
X47207743Y74100953D01*
X47207743Y74100953D02*
X47255362Y74053334D01*
X47255362Y74053334D02*
X47350600Y74005715D01*
X47350600Y74005715D02*
X47493457Y74005715D01*
X47493457Y74005715D02*
X47588695Y74053334D01*
X47588695Y74053334D02*
X47636314Y74100953D01*
X47636314Y74100953D02*
X47683933Y74196191D01*
X47683933Y74196191D02*
X47683933Y74577143D01*
X47255362Y73624762D02*
X47207743Y73577143D01*
X47207743Y73577143D02*
X47160124Y73481905D01*
X47160124Y73481905D02*
X47160124Y73243810D01*
X47160124Y73243810D02*
X47207743Y73148572D01*
X47207743Y73148572D02*
X47255362Y73100953D01*
X47255362Y73100953D02*
X47350600Y73053334D01*
X47350600Y73053334D02*
X47445838Y73053334D01*
X47445838Y73053334D02*
X47588695Y73100953D01*
X47588695Y73100953D02*
X48160124Y73672381D01*
X48160124Y73672381D02*
X48160124Y73053334D01*
X82580124Y82561905D02*
X82580124Y81990477D01*
X83580124Y82276191D02*
X82580124Y82276191D01*
X83580124Y81657143D02*
X82580124Y81657143D01*
X82580124Y81657143D02*
X82580124Y81276191D01*
X82580124Y81276191D02*
X82627743Y81180953D01*
X82627743Y81180953D02*
X82675362Y81133334D01*
X82675362Y81133334D02*
X82770600Y81085715D01*
X82770600Y81085715D02*
X82913457Y81085715D01*
X82913457Y81085715D02*
X83008695Y81133334D01*
X83008695Y81133334D02*
X83056314Y81180953D01*
X83056314Y81180953D02*
X83103933Y81276191D01*
X83103933Y81276191D02*
X83103933Y81657143D01*
X83580124Y80133334D02*
X83580124Y80704762D01*
X83580124Y80419048D02*
X82580124Y80419048D01*
X82580124Y80419048D02*
X82722981Y80514286D01*
X82722981Y80514286D02*
X82818219Y80609524D01*
X82818219Y80609524D02*
X82865838Y80704762D01*
D12*
X94681424Y30513095D02*
X94681424Y29941667D01*
X95681424Y30227381D02*
X94681424Y30227381D01*
X95681424Y29608333D02*
X94681424Y29608333D01*
X94681424Y29608333D02*
X94681424Y29227381D01*
X94681424Y29227381D02*
X94729043Y29132143D01*
X94729043Y29132143D02*
X94776662Y29084524D01*
X94776662Y29084524D02*
X94871900Y29036905D01*
X94871900Y29036905D02*
X95014757Y29036905D01*
X95014757Y29036905D02*
X95109995Y29084524D01*
X95109995Y29084524D02*
X95157614Y29132143D01*
X95157614Y29132143D02*
X95205233Y29227381D01*
X95205233Y29227381D02*
X95205233Y29608333D01*
X95681424Y28084524D02*
X95681424Y28655952D01*
X95681424Y28370238D02*
X94681424Y28370238D01*
X94681424Y28370238D02*
X94824281Y28465476D01*
X94824281Y28465476D02*
X94919519Y28560714D01*
X94919519Y28560714D02*
X94967138Y28655952D01*
X95014757Y27227381D02*
X95681424Y27227381D01*
X94633805Y27465476D02*
X95348090Y27703571D01*
X95348090Y27703571D02*
X95348090Y27084524D01*
D10*
X44880124Y86961905D02*
X44880124Y86390477D01*
X45880124Y86676191D02*
X44880124Y86676191D01*
X45880124Y86057143D02*
X44880124Y86057143D01*
X44880124Y86057143D02*
X44880124Y85676191D01*
X44880124Y85676191D02*
X44927743Y85580953D01*
X44927743Y85580953D02*
X44975362Y85533334D01*
X44975362Y85533334D02*
X45070600Y85485715D01*
X45070600Y85485715D02*
X45213457Y85485715D01*
X45213457Y85485715D02*
X45308695Y85533334D01*
X45308695Y85533334D02*
X45356314Y85580953D01*
X45356314Y85580953D02*
X45403933Y85676191D01*
X45403933Y85676191D02*
X45403933Y86057143D01*
X44880124Y84628572D02*
X44880124Y84819048D01*
X44880124Y84819048D02*
X44927743Y84914286D01*
X44927743Y84914286D02*
X44975362Y84961905D01*
X44975362Y84961905D02*
X45118219Y85057143D01*
X45118219Y85057143D02*
X45308695Y85104762D01*
X45308695Y85104762D02*
X45689647Y85104762D01*
X45689647Y85104762D02*
X45784885Y85057143D01*
X45784885Y85057143D02*
X45832505Y85009524D01*
X45832505Y85009524D02*
X45880124Y84914286D01*
X45880124Y84914286D02*
X45880124Y84723810D01*
X45880124Y84723810D02*
X45832505Y84628572D01*
X45832505Y84628572D02*
X45784885Y84580953D01*
X45784885Y84580953D02*
X45689647Y84533334D01*
X45689647Y84533334D02*
X45451552Y84533334D01*
X45451552Y84533334D02*
X45356314Y84580953D01*
X45356314Y84580953D02*
X45308695Y84628572D01*
X45308695Y84628572D02*
X45261076Y84723810D01*
X45261076Y84723810D02*
X45261076Y84914286D01*
X45261076Y84914286D02*
X45308695Y85009524D01*
X45308695Y85009524D02*
X45356314Y85057143D01*
X45356314Y85057143D02*
X45451552Y85104762D01*
X3316904Y65748212D02*
X2745476Y65748212D01*
X3031190Y64748212D02*
X3031190Y65748212D01*
X2412142Y64748212D02*
X2412142Y65748212D01*
X2412142Y65748212D02*
X2031190Y65748212D01*
X2031190Y65748212D02*
X1935952Y65700593D01*
X1935952Y65700593D02*
X1888333Y65652974D01*
X1888333Y65652974D02*
X1840714Y65557736D01*
X1840714Y65557736D02*
X1840714Y65414879D01*
X1840714Y65414879D02*
X1888333Y65319641D01*
X1888333Y65319641D02*
X1935952Y65272022D01*
X1935952Y65272022D02*
X2031190Y65224403D01*
X2031190Y65224403D02*
X2412142Y65224403D01*
X1364523Y64748212D02*
X1174047Y64748212D01*
X1174047Y64748212D02*
X1078809Y64795831D01*
X1078809Y64795831D02*
X1031190Y64843451D01*
X1031190Y64843451D02*
X935952Y64986308D01*
X935952Y64986308D02*
X888333Y65176784D01*
X888333Y65176784D02*
X888333Y65557736D01*
X888333Y65557736D02*
X935952Y65652974D01*
X935952Y65652974D02*
X983571Y65700593D01*
X983571Y65700593D02*
X1078809Y65748212D01*
X1078809Y65748212D02*
X1269285Y65748212D01*
X1269285Y65748212D02*
X1364523Y65700593D01*
X1364523Y65700593D02*
X1412142Y65652974D01*
X1412142Y65652974D02*
X1459761Y65557736D01*
X1459761Y65557736D02*
X1459761Y65319641D01*
X1459761Y65319641D02*
X1412142Y65224403D01*
X1412142Y65224403D02*
X1364523Y65176784D01*
X1364523Y65176784D02*
X1269285Y65129165D01*
X1269285Y65129165D02*
X1078809Y65129165D01*
X1078809Y65129165D02*
X983571Y65176784D01*
X983571Y65176784D02*
X935952Y65224403D01*
X935952Y65224403D02*
X888333Y65319641D01*
X31740124Y50821905D02*
X31740124Y50250477D01*
X32740124Y50536191D02*
X31740124Y50536191D01*
X32740124Y49917143D02*
X31740124Y49917143D01*
X31740124Y49917143D02*
X31740124Y49536191D01*
X31740124Y49536191D02*
X31787743Y49440953D01*
X31787743Y49440953D02*
X31835362Y49393334D01*
X31835362Y49393334D02*
X31930600Y49345715D01*
X31930600Y49345715D02*
X32073457Y49345715D01*
X32073457Y49345715D02*
X32168695Y49393334D01*
X32168695Y49393334D02*
X32216314Y49440953D01*
X32216314Y49440953D02*
X32263933Y49536191D01*
X32263933Y49536191D02*
X32263933Y49917143D01*
X31740124Y49012381D02*
X31740124Y48345715D01*
X31740124Y48345715D02*
X32740124Y48774286D01*
X77000124Y36588095D02*
X77000124Y36016667D01*
X78000124Y36302381D02*
X77000124Y36302381D01*
X78000124Y35683333D02*
X77000124Y35683333D01*
X77000124Y35683333D02*
X77000124Y35302381D01*
X77000124Y35302381D02*
X77047743Y35207143D01*
X77047743Y35207143D02*
X77095362Y35159524D01*
X77095362Y35159524D02*
X77190600Y35111905D01*
X77190600Y35111905D02*
X77333457Y35111905D01*
X77333457Y35111905D02*
X77428695Y35159524D01*
X77428695Y35159524D02*
X77476314Y35207143D01*
X77476314Y35207143D02*
X77523933Y35302381D01*
X77523933Y35302381D02*
X77523933Y35683333D01*
X78000124Y34159524D02*
X78000124Y34730952D01*
X78000124Y34445238D02*
X77000124Y34445238D01*
X77000124Y34445238D02*
X77142981Y34540476D01*
X77142981Y34540476D02*
X77238219Y34635714D01*
X77238219Y34635714D02*
X77285838Y34730952D01*
X77000124Y33540476D02*
X77000124Y33445238D01*
X77000124Y33445238D02*
X77047743Y33350000D01*
X77047743Y33350000D02*
X77095362Y33302381D01*
X77095362Y33302381D02*
X77190600Y33254762D01*
X77190600Y33254762D02*
X77381076Y33207143D01*
X77381076Y33207143D02*
X77619171Y33207143D01*
X77619171Y33207143D02*
X77809647Y33254762D01*
X77809647Y33254762D02*
X77904885Y33302381D01*
X77904885Y33302381D02*
X77952505Y33350000D01*
X77952505Y33350000D02*
X78000124Y33445238D01*
X78000124Y33445238D02*
X78000124Y33540476D01*
X78000124Y33540476D02*
X77952505Y33635714D01*
X77952505Y33635714D02*
X77904885Y33683333D01*
X77904885Y33683333D02*
X77809647Y33730952D01*
X77809647Y33730952D02*
X77619171Y33778571D01*
X77619171Y33778571D02*
X77381076Y33778571D01*
X77381076Y33778571D02*
X77190600Y33730952D01*
X77190600Y33730952D02*
X77095362Y33683333D01*
X77095362Y33683333D02*
X77047743Y33635714D01*
X77047743Y33635714D02*
X77000124Y33540476D01*
X73913399Y49295181D02*
X73341971Y49295181D01*
X73627685Y48295181D02*
X73627685Y49295181D01*
X73008637Y48295181D02*
X73008637Y49295181D01*
X73008637Y49295181D02*
X72627685Y49295181D01*
X72627685Y49295181D02*
X72532447Y49247562D01*
X72532447Y49247562D02*
X72484828Y49199943D01*
X72484828Y49199943D02*
X72437209Y49104705D01*
X72437209Y49104705D02*
X72437209Y48961848D01*
X72437209Y48961848D02*
X72484828Y48866610D01*
X72484828Y48866610D02*
X72532447Y48818991D01*
X72532447Y48818991D02*
X72627685Y48771372D01*
X72627685Y48771372D02*
X73008637Y48771372D01*
X71484828Y48295181D02*
X72056256Y48295181D01*
X71770542Y48295181D02*
X71770542Y49295181D01*
X71770542Y49295181D02*
X71865780Y49152324D01*
X71865780Y49152324D02*
X71961018Y49057086D01*
X71961018Y49057086D02*
X72056256Y49009467D01*
X70580066Y49295181D02*
X71056256Y49295181D01*
X71056256Y49295181D02*
X71103875Y48818991D01*
X71103875Y48818991D02*
X71056256Y48866610D01*
X71056256Y48866610D02*
X70961018Y48914229D01*
X70961018Y48914229D02*
X70722923Y48914229D01*
X70722923Y48914229D02*
X70627685Y48866610D01*
X70627685Y48866610D02*
X70580066Y48818991D01*
X70580066Y48818991D02*
X70532447Y48723753D01*
X70532447Y48723753D02*
X70532447Y48485658D01*
X70532447Y48485658D02*
X70580066Y48390420D01*
X70580066Y48390420D02*
X70627685Y48342800D01*
X70627685Y48342800D02*
X70722923Y48295181D01*
X70722923Y48295181D02*
X70961018Y48295181D01*
X70961018Y48295181D02*
X71056256Y48342800D01*
X71056256Y48342800D02*
X71103875Y48390420D01*
X14940124Y36051905D02*
X14940124Y35480477D01*
X15940124Y35766191D02*
X14940124Y35766191D01*
X15940124Y35147143D02*
X14940124Y35147143D01*
X14940124Y35147143D02*
X14940124Y34766191D01*
X14940124Y34766191D02*
X14987743Y34670953D01*
X14987743Y34670953D02*
X15035362Y34623334D01*
X15035362Y34623334D02*
X15130600Y34575715D01*
X15130600Y34575715D02*
X15273457Y34575715D01*
X15273457Y34575715D02*
X15368695Y34623334D01*
X15368695Y34623334D02*
X15416314Y34670953D01*
X15416314Y34670953D02*
X15463933Y34766191D01*
X15463933Y34766191D02*
X15463933Y35147143D01*
X14940124Y33670953D02*
X14940124Y34147143D01*
X14940124Y34147143D02*
X15416314Y34194762D01*
X15416314Y34194762D02*
X15368695Y34147143D01*
X15368695Y34147143D02*
X15321076Y34051905D01*
X15321076Y34051905D02*
X15321076Y33813810D01*
X15321076Y33813810D02*
X15368695Y33718572D01*
X15368695Y33718572D02*
X15416314Y33670953D01*
X15416314Y33670953D02*
X15511552Y33623334D01*
X15511552Y33623334D02*
X15749647Y33623334D01*
X15749647Y33623334D02*
X15844885Y33670953D01*
X15844885Y33670953D02*
X15892505Y33718572D01*
X15892505Y33718572D02*
X15940124Y33813810D01*
X15940124Y33813810D02*
X15940124Y34051905D01*
X15940124Y34051905D02*
X15892505Y34147143D01*
X15892505Y34147143D02*
X15844885Y34194762D01*
X73888399Y51495181D02*
X73316971Y51495181D01*
X73602685Y50495181D02*
X73602685Y51495181D01*
X72983637Y50495181D02*
X72983637Y51495181D01*
X72983637Y51495181D02*
X72602685Y51495181D01*
X72602685Y51495181D02*
X72507447Y51447562D01*
X72507447Y51447562D02*
X72459828Y51399943D01*
X72459828Y51399943D02*
X72412209Y51304705D01*
X72412209Y51304705D02*
X72412209Y51161848D01*
X72412209Y51161848D02*
X72459828Y51066610D01*
X72459828Y51066610D02*
X72507447Y51018991D01*
X72507447Y51018991D02*
X72602685Y50971372D01*
X72602685Y50971372D02*
X72983637Y50971372D01*
X71459828Y50495181D02*
X72031256Y50495181D01*
X71745542Y50495181D02*
X71745542Y51495181D01*
X71745542Y51495181D02*
X71840780Y51352324D01*
X71840780Y51352324D02*
X71936018Y51257086D01*
X71936018Y51257086D02*
X72031256Y51209467D01*
X70507447Y50495181D02*
X71078875Y50495181D01*
X70793161Y50495181D02*
X70793161Y51495181D01*
X70793161Y51495181D02*
X70888399Y51352324D01*
X70888399Y51352324D02*
X70983637Y51257086D01*
X70983637Y51257086D02*
X71078875Y51209467D01*
X24395124Y76886905D02*
X24395124Y76315477D01*
X25395124Y76601191D02*
X24395124Y76601191D01*
X25395124Y75982143D02*
X24395124Y75982143D01*
X24395124Y75982143D02*
X24395124Y75601191D01*
X24395124Y75601191D02*
X24442743Y75505953D01*
X24442743Y75505953D02*
X24490362Y75458334D01*
X24490362Y75458334D02*
X24585600Y75410715D01*
X24585600Y75410715D02*
X24728457Y75410715D01*
X24728457Y75410715D02*
X24823695Y75458334D01*
X24823695Y75458334D02*
X24871314Y75505953D01*
X24871314Y75505953D02*
X24918933Y75601191D01*
X24918933Y75601191D02*
X24918933Y75982143D01*
X24823695Y74839286D02*
X24776076Y74934524D01*
X24776076Y74934524D02*
X24728457Y74982143D01*
X24728457Y74982143D02*
X24633219Y75029762D01*
X24633219Y75029762D02*
X24585600Y75029762D01*
X24585600Y75029762D02*
X24490362Y74982143D01*
X24490362Y74982143D02*
X24442743Y74934524D01*
X24442743Y74934524D02*
X24395124Y74839286D01*
X24395124Y74839286D02*
X24395124Y74648810D01*
X24395124Y74648810D02*
X24442743Y74553572D01*
X24442743Y74553572D02*
X24490362Y74505953D01*
X24490362Y74505953D02*
X24585600Y74458334D01*
X24585600Y74458334D02*
X24633219Y74458334D01*
X24633219Y74458334D02*
X24728457Y74505953D01*
X24728457Y74505953D02*
X24776076Y74553572D01*
X24776076Y74553572D02*
X24823695Y74648810D01*
X24823695Y74648810D02*
X24823695Y74839286D01*
X24823695Y74839286D02*
X24871314Y74934524D01*
X24871314Y74934524D02*
X24918933Y74982143D01*
X24918933Y74982143D02*
X25014171Y75029762D01*
X25014171Y75029762D02*
X25204647Y75029762D01*
X25204647Y75029762D02*
X25299885Y74982143D01*
X25299885Y74982143D02*
X25347505Y74934524D01*
X25347505Y74934524D02*
X25395124Y74839286D01*
X25395124Y74839286D02*
X25395124Y74648810D01*
X25395124Y74648810D02*
X25347505Y74553572D01*
X25347505Y74553572D02*
X25299885Y74505953D01*
X25299885Y74505953D02*
X25204647Y74458334D01*
X25204647Y74458334D02*
X25014171Y74458334D01*
X25014171Y74458334D02*
X24918933Y74505953D01*
X24918933Y74505953D02*
X24871314Y74553572D01*
X24871314Y74553572D02*
X24823695Y74648810D01*
X92380124Y30413095D02*
X92380124Y29841667D01*
X93380124Y30127381D02*
X92380124Y30127381D01*
X93380124Y29508333D02*
X92380124Y29508333D01*
X92380124Y29508333D02*
X92380124Y29127381D01*
X92380124Y29127381D02*
X92427743Y29032143D01*
X92427743Y29032143D02*
X92475362Y28984524D01*
X92475362Y28984524D02*
X92570600Y28936905D01*
X92570600Y28936905D02*
X92713457Y28936905D01*
X92713457Y28936905D02*
X92808695Y28984524D01*
X92808695Y28984524D02*
X92856314Y29032143D01*
X92856314Y29032143D02*
X92903933Y29127381D01*
X92903933Y29127381D02*
X92903933Y29508333D01*
X93380124Y27984524D02*
X93380124Y28555952D01*
X93380124Y28270238D02*
X92380124Y28270238D01*
X92380124Y28270238D02*
X92522981Y28365476D01*
X92522981Y28365476D02*
X92618219Y28460714D01*
X92618219Y28460714D02*
X92665838Y28555952D01*
X92380124Y27651190D02*
X92380124Y27032143D01*
X92380124Y27032143D02*
X92761076Y27365476D01*
X92761076Y27365476D02*
X92761076Y27222619D01*
X92761076Y27222619D02*
X92808695Y27127381D01*
X92808695Y27127381D02*
X92856314Y27079762D01*
X92856314Y27079762D02*
X92951552Y27032143D01*
X92951552Y27032143D02*
X93189647Y27032143D01*
X93189647Y27032143D02*
X93284885Y27079762D01*
X93284885Y27079762D02*
X93332505Y27127381D01*
X93332505Y27127381D02*
X93380124Y27222619D01*
X93380124Y27222619D02*
X93380124Y27508333D01*
X93380124Y27508333D02*
X93332505Y27603571D01*
X93332505Y27603571D02*
X93284885Y27651190D01*
X89720124Y43358095D02*
X89720124Y42786667D01*
X90720124Y43072381D02*
X89720124Y43072381D01*
X90720124Y42453333D02*
X89720124Y42453333D01*
X89720124Y42453333D02*
X89720124Y42072381D01*
X89720124Y42072381D02*
X89767743Y41977143D01*
X89767743Y41977143D02*
X89815362Y41929524D01*
X89815362Y41929524D02*
X89910600Y41881905D01*
X89910600Y41881905D02*
X90053457Y41881905D01*
X90053457Y41881905D02*
X90148695Y41929524D01*
X90148695Y41929524D02*
X90196314Y41977143D01*
X90196314Y41977143D02*
X90243933Y42072381D01*
X90243933Y42072381D02*
X90243933Y42453333D01*
X90720124Y40929524D02*
X90720124Y41500952D01*
X90720124Y41215238D02*
X89720124Y41215238D01*
X89720124Y41215238D02*
X89862981Y41310476D01*
X89862981Y41310476D02*
X89958219Y41405714D01*
X89958219Y41405714D02*
X90005838Y41500952D01*
X89720124Y40072381D02*
X89720124Y40262857D01*
X89720124Y40262857D02*
X89767743Y40358095D01*
X89767743Y40358095D02*
X89815362Y40405714D01*
X89815362Y40405714D02*
X89958219Y40500952D01*
X89958219Y40500952D02*
X90148695Y40548571D01*
X90148695Y40548571D02*
X90529647Y40548571D01*
X90529647Y40548571D02*
X90624885Y40500952D01*
X90624885Y40500952D02*
X90672505Y40453333D01*
X90672505Y40453333D02*
X90720124Y40358095D01*
X90720124Y40358095D02*
X90720124Y40167619D01*
X90720124Y40167619D02*
X90672505Y40072381D01*
X90672505Y40072381D02*
X90624885Y40024762D01*
X90624885Y40024762D02*
X90529647Y39977143D01*
X90529647Y39977143D02*
X90291552Y39977143D01*
X90291552Y39977143D02*
X90196314Y40024762D01*
X90196314Y40024762D02*
X90148695Y40072381D01*
X90148695Y40072381D02*
X90101076Y40167619D01*
X90101076Y40167619D02*
X90101076Y40358095D01*
X90101076Y40358095D02*
X90148695Y40453333D01*
X90148695Y40453333D02*
X90196314Y40500952D01*
X90196314Y40500952D02*
X90291552Y40548571D01*
X77070124Y41581905D02*
X77070124Y41010477D01*
X78070124Y41296191D02*
X77070124Y41296191D01*
X78070124Y40677143D02*
X77070124Y40677143D01*
X77070124Y40677143D02*
X77070124Y40296191D01*
X77070124Y40296191D02*
X77117743Y40200953D01*
X77117743Y40200953D02*
X77165362Y40153334D01*
X77165362Y40153334D02*
X77260600Y40105715D01*
X77260600Y40105715D02*
X77403457Y40105715D01*
X77403457Y40105715D02*
X77498695Y40153334D01*
X77498695Y40153334D02*
X77546314Y40200953D01*
X77546314Y40200953D02*
X77593933Y40296191D01*
X77593933Y40296191D02*
X77593933Y40677143D01*
X77403457Y39248572D02*
X78070124Y39248572D01*
X77022505Y39486667D02*
X77736790Y39724762D01*
X77736790Y39724762D02*
X77736790Y39105715D01*
X88880124Y84751905D02*
X88880124Y84180477D01*
X89880124Y84466191D02*
X88880124Y84466191D01*
X89880124Y83847143D02*
X88880124Y83847143D01*
X88880124Y83847143D02*
X88880124Y83466191D01*
X88880124Y83466191D02*
X88927743Y83370953D01*
X88927743Y83370953D02*
X88975362Y83323334D01*
X88975362Y83323334D02*
X89070600Y83275715D01*
X89070600Y83275715D02*
X89213457Y83275715D01*
X89213457Y83275715D02*
X89308695Y83323334D01*
X89308695Y83323334D02*
X89356314Y83370953D01*
X89356314Y83370953D02*
X89403933Y83466191D01*
X89403933Y83466191D02*
X89403933Y83847143D01*
X88880124Y82942381D02*
X88880124Y82323334D01*
X88880124Y82323334D02*
X89261076Y82656667D01*
X89261076Y82656667D02*
X89261076Y82513810D01*
X89261076Y82513810D02*
X89308695Y82418572D01*
X89308695Y82418572D02*
X89356314Y82370953D01*
X89356314Y82370953D02*
X89451552Y82323334D01*
X89451552Y82323334D02*
X89689647Y82323334D01*
X89689647Y82323334D02*
X89784885Y82370953D01*
X89784885Y82370953D02*
X89832505Y82418572D01*
X89832505Y82418572D02*
X89880124Y82513810D01*
X89880124Y82513810D02*
X89880124Y82799524D01*
X89880124Y82799524D02*
X89832505Y82894762D01*
X89832505Y82894762D02*
X89784885Y82942381D01*
%TO.C,TP12*%
D13*
X72725305Y32800000D02*
G75*
G02*
X71325305Y32800000I-700000J0D01*
G01*
X71325305Y32800000D02*
G75*
G02*
X72725305Y32800000I700000J0D01*
G01*
%TO.C,TP2*%
X48400305Y76600000D02*
G75*
G02*
X47000305Y76600000I-700000J0D01*
G01*
X47000305Y76600000D02*
G75*
G02*
X48400305Y76600000I700000J0D01*
G01*
%TO.C,TP1*%
X83825305Y78900000D02*
G75*
G02*
X82425305Y78900000I-700000J0D01*
G01*
X82425305Y78900000D02*
G75*
G02*
X83825305Y78900000I700000J0D01*
G01*
%TO.C,TP14*%
X95925305Y25850000D02*
G75*
G02*
X94525305Y25850000I-700000J0D01*
G01*
X94525305Y25850000D02*
G75*
G02*
X95925305Y25850000I700000J0D01*
G01*
%TO.C,TP6*%
X46125305Y83100000D02*
G75*
G02*
X44725305Y83100000I-700000J0D01*
G01*
X44725305Y83100000D02*
G75*
G02*
X46125305Y83100000I700000J0D01*
G01*
%TO.C,TP9*%
X2765305Y63575000D02*
G75*
G02*
X1365305Y63575000I-700000J0D01*
G01*
X1365305Y63575000D02*
G75*
G02*
X2765305Y63575000I700000J0D01*
G01*
%TO.C,TP7*%
X33000305Y52025000D02*
G75*
G02*
X31600305Y52025000I-700000J0D01*
G01*
X31600305Y52025000D02*
G75*
G02*
X33000305Y52025000I700000J0D01*
G01*
%TO.C,TP10*%
X78325305Y37775000D02*
G75*
G02*
X76925305Y37775000I-700000J0D01*
G01*
X76925305Y37775000D02*
G75*
G02*
X78325305Y37775000I700000J0D01*
G01*
%TO.C,TP15*%
X76075305Y48800000D02*
G75*
G02*
X74675305Y48800000I-700000J0D01*
G01*
X74675305Y48800000D02*
G75*
G02*
X76075305Y48800000I700000J0D01*
G01*
%TO.C,TP5*%
X16200305Y32425000D02*
G75*
G02*
X14800305Y32425000I-700000J0D01*
G01*
X14800305Y32425000D02*
G75*
G02*
X16200305Y32425000I700000J0D01*
G01*
%TO.C,TP11*%
X76025305Y50900000D02*
G75*
G02*
X74625305Y50900000I-700000J0D01*
G01*
X74625305Y50900000D02*
G75*
G02*
X76025305Y50900000I700000J0D01*
G01*
%TO.C,TP8*%
X25645305Y73125000D02*
G75*
G02*
X24245305Y73125000I-700000J0D01*
G01*
X24245305Y73125000D02*
G75*
G02*
X25645305Y73125000I700000J0D01*
G01*
%TO.C,TP13*%
X93625305Y25750000D02*
G75*
G02*
X92225305Y25750000I-700000J0D01*
G01*
X92225305Y25750000D02*
G75*
G02*
X93625305Y25750000I700000J0D01*
G01*
%TO.C,TP16*%
X91000305Y38775000D02*
G75*
G02*
X89600305Y38775000I-700000J0D01*
G01*
X89600305Y38775000D02*
G75*
G02*
X91000305Y38775000I700000J0D01*
G01*
%TO.C,TP4*%
X78275305Y42750000D02*
G75*
G02*
X76875305Y42750000I-700000J0D01*
G01*
X76875305Y42750000D02*
G75*
G02*
X78275305Y42750000I700000J0D01*
G01*
%TO.C,TP3*%
X90125305Y81140000D02*
G75*
G02*
X88725305Y81140000I-700000J0D01*
G01*
X88725305Y81140000D02*
G75*
G02*
X90125305Y81140000I700000J0D01*
G01*
%TD*%
M02*
