%TF.GenerationSoftware,KiCad,Pcbnew,10.0.5-1.fc44app2*%
%TF.CreationDate,2026-09-05T12:07:09+01:00*%
%TF.ProjectId,mainboard,6d61696e-626f-4617-9264-2e6b69636164,0.1*%
%TF.SameCoordinates,PX4b9a3f8PY7a1c817*%
%TF.FileFunction,Paste,Top*%
%TF.FilePolarity,Positive*%
%FSLAX46Y46*%
G04 Gerber Fmt 4.6, Leading zero omitted, Abs format (unit mm)*
G04 Created by KiCad (PCBNEW 10.0.5-1.fc44app2) date 2026-09-05 12:07:09*
%MOMM*%
%LPD*%
G01*
G04 APERTURE LIST*
G04 Aperture macros list*
%AMRoundRect*
0 Rectangle with rounded corners*
0 $1 Rounding radius*
0 $2 $3 $4 $5 $6 $7 $8 $9 X,Y pos of 4 corners*
0 Add a 4 corners polygon primitive as box body*
4,1,4,$2,$3,$4,$5,$6,$7,$8,$9,$2,$3,0*
0 Add four circle primitives for the rounded corners*
1,1,$1+$1,$2,$3*
1,1,$1+$1,$4,$5*
1,1,$1+$1,$6,$7*
1,1,$1+$1,$8,$9*
0 Add four rect primitives between the rounded corners*
20,1,$1+$1,$2,$3,$4,$5,0*
20,1,$1+$1,$4,$5,$6,$7,0*
20,1,$1+$1,$6,$7,$8,$9,0*
20,1,$1+$1,$8,$9,$2,$3,0*%
G04 Aperture macros list end*
%ADD10C,0.128000*%
%ADD11RoundRect,0.200000X0.275000X-0.200000X0.275000X0.200000X-0.275000X0.200000X-0.275000X-0.200000X0*%
%ADD12RoundRect,0.250000X-0.475000X0.250000X-0.475000X-0.250000X0.475000X-0.250000X0.475000X0.250000X0*%
%ADD13RoundRect,0.150000X-0.512500X-0.150000X0.512500X-0.150000X0.512500X0.150000X-0.512500X0.150000X0*%
%ADD14RoundRect,0.250000X0.475000X-0.250000X0.475000X0.250000X-0.475000X0.250000X-0.475000X-0.250000X0*%
%ADD15RoundRect,0.150000X0.150000X-0.587500X0.150000X0.587500X-0.150000X0.587500X-0.150000X-0.587500X0*%
%ADD16RoundRect,0.150000X-0.150000X0.587500X-0.150000X-0.587500X0.150000X-0.587500X0.150000X0.587500X0*%
%ADD17R,0.889000X0.304800*%
%ADD18RoundRect,0.050000X0.250000X-0.100000X0.250000X0.100000X-0.250000X0.100000X-0.250000X-0.100000X0*%
%ADD19RoundRect,0.200000X-0.275000X0.200000X-0.275000X-0.200000X0.275000X-0.200000X0.275000X0.200000X0*%
%ADD20RoundRect,0.225000X-0.250000X0.225000X-0.250000X-0.225000X0.250000X-0.225000X0.250000X0.225000X0*%
%ADD21RoundRect,0.100000X-0.637500X-0.100000X0.637500X-0.100000X0.637500X0.100000X-0.637500X0.100000X0*%
%ADD22RoundRect,0.225000X0.250000X-0.225000X0.250000X0.225000X-0.250000X0.225000X-0.250000X-0.225000X0*%
%ADD23RoundRect,0.200000X0.200000X0.275000X-0.200000X0.275000X-0.200000X-0.275000X0.200000X-0.275000X0*%
%ADD24RoundRect,0.250000X0.250000X0.475000X-0.250000X0.475000X-0.250000X-0.475000X0.250000X-0.475000X0*%
%ADD25RoundRect,0.150000X0.150000X-0.512500X0.150000X0.512500X-0.150000X0.512500X-0.150000X-0.512500X0*%
%ADD26RoundRect,0.050000X-0.250000X0.100000X-0.250000X-0.100000X0.250000X-0.100000X0.250000X0.100000X0*%
%ADD27RoundRect,0.250000X-1.950000X-1.000000X1.950000X-1.000000X1.950000X1.000000X-1.950000X1.000000X0*%
%ADD28RoundRect,0.225000X0.225000X0.250000X-0.225000X0.250000X-0.225000X-0.250000X0.225000X-0.250000X0*%
%ADD29RoundRect,0.250000X1.250000X0.550000X-1.250000X0.550000X-1.250000X-0.550000X1.250000X-0.550000X0*%
%ADD30RoundRect,0.225000X-0.225000X-0.250000X0.225000X-0.250000X0.225000X0.250000X-0.225000X0.250000X0*%
%ADD31RoundRect,0.079500X-0.079500X-0.100500X0.079500X-0.100500X0.079500X0.100500X-0.079500X0.100500X0*%
%ADD32RoundRect,0.250000X-0.250000X-0.475000X0.250000X-0.475000X0.250000X0.475000X-0.250000X0.475000X0*%
%ADD33RoundRect,0.062500X-0.250000X-0.062500X0.250000X-0.062500X0.250000X0.062500X-0.250000X0.062500X0*%
%ADD34RoundRect,0.112500X-0.237500X-0.112500X0.237500X-0.112500X0.237500X0.112500X-0.237500X0.112500X0*%
%ADD35RoundRect,0.112500X-0.175000X-0.112500X0.175000X-0.112500X0.175000X0.112500X-0.175000X0.112500X0*%
%ADD36RoundRect,0.079500X-0.100500X0.079500X-0.100500X-0.079500X0.100500X-0.079500X0.100500X0.079500X0*%
%ADD37RoundRect,0.150000X-0.587500X-0.150000X0.587500X-0.150000X0.587500X0.150000X-0.587500X0.150000X0*%
%ADD38RoundRect,0.250000X0.525000X0.250000X-0.525000X0.250000X-0.525000X-0.250000X0.525000X-0.250000X0*%
%ADD39R,1.800000X1.000000*%
%ADD40R,0.700000X1.100000*%
%ADD41R,0.900000X0.930000*%
%ADD42R,1.050000X0.780000*%
%ADD43R,0.700000X3.330000*%
%ADD44R,1.140000X1.830000*%
%ADD45R,0.860000X2.800000*%
%ADD46RoundRect,0.200000X-0.200000X-0.275000X0.200000X-0.275000X0.200000X0.275000X-0.200000X0.275000X0*%
%ADD47RoundRect,0.150000X0.587500X0.150000X-0.587500X0.150000X-0.587500X-0.150000X0.587500X-0.150000X0*%
%ADD48R,0.406400X0.609600*%
%ADD49R,0.609600X0.406400*%
%ADD50RoundRect,0.150000X-0.150000X0.512500X-0.150000X-0.512500X0.150000X-0.512500X0.150000X0.512500X0*%
%ADD51R,0.300000X1.300000*%
%ADD52R,1.800000X2.200000*%
%ADD53R,0.200000X0.700000*%
G04 APERTURE END LIST*
%TO.C,D23*%
D10*
X46601000Y5135531D02*
G75*
G02*
X46473000Y5135531I-64000J0D01*
G01*
X46473000Y5135531D02*
G75*
G02*
X46601000Y5135531I64000J0D01*
G01*
X47017000Y5135531D02*
G75*
G02*
X46889000Y5135531I-64000J0D01*
G01*
X46889000Y5135531D02*
G75*
G02*
X47017000Y5135531I64000J0D01*
G01*
%TO.C,D24*%
X84626000Y5448031D02*
G75*
G02*
X84498000Y5448031I-64000J0D01*
G01*
X84498000Y5448031D02*
G75*
G02*
X84626000Y5448031I64000J0D01*
G01*
X85042000Y5448031D02*
G75*
G02*
X84914000Y5448031I-64000J0D01*
G01*
X84914000Y5448031D02*
G75*
G02*
X85042000Y5448031I64000J0D01*
G01*
%TD*%
D11*
%TO.C,R12*%
X75375305Y32750000D03*
X75375305Y34400000D03*
%TD*%
D12*
%TO.C,C13*%
X45425305Y80800000D03*
X45425305Y78900000D03*
%TD*%
D13*
%TO.C,U1*%
X21120305Y71700000D03*
X21120305Y70750000D03*
X21120305Y69800000D03*
X23395305Y69800000D03*
X23395305Y71700000D03*
%TD*%
D14*
%TO.C,C24*%
X77375305Y32750000D03*
X77375305Y34650000D03*
%TD*%
D15*
%TO.C,D12*%
X82995000Y13123031D03*
X84895000Y13123031D03*
X83945000Y14998031D03*
%TD*%
D16*
%TO.C,Q1*%
X91975305Y53737500D03*
X90075305Y53737500D03*
X91025305Y51862500D03*
%TD*%
D12*
%TO.C,C26*%
X79825305Y36850000D03*
X79825305Y34950000D03*
%TD*%
D15*
%TO.C,D13*%
X59595000Y2900000D03*
X61495000Y2900000D03*
X60545000Y4775000D03*
%TD*%
D17*
%TO.C,J5*%
X9130305Y51480694D03*
X9130305Y50980568D03*
X9130305Y50480442D03*
X9130305Y49980316D03*
X9130305Y49480190D03*
X9130305Y48980064D03*
X9130305Y48479938D03*
X9130305Y47979812D03*
X9130305Y47479686D03*
X9130305Y46979560D03*
X9130305Y46479434D03*
X9130305Y45979308D03*
%TD*%
D18*
%TO.C,D25*%
X13325305Y51200000D03*
X13325305Y51900000D03*
%TD*%
D19*
%TO.C,R10*%
X52100305Y80675000D03*
X52100305Y79025000D03*
%TD*%
%TO.C,R11*%
X92025305Y48125000D03*
X92025305Y46475000D03*
%TD*%
D16*
%TO.C,D10*%
X79595000Y4748031D03*
X77695000Y4748031D03*
X78645000Y2873031D03*
%TD*%
D19*
%TO.C,R22*%
X13395305Y43865000D03*
X13395305Y42215000D03*
%TD*%
D20*
%TO.C,C3*%
X13400305Y74675000D03*
X13400305Y73125000D03*
%TD*%
D21*
%TO.C,U4*%
X83062805Y73200000D03*
X83062805Y72550000D03*
X83062805Y71900000D03*
X83062805Y71250000D03*
X83062805Y70600000D03*
X83062805Y69950000D03*
X83062805Y69300000D03*
X83062805Y68650000D03*
X83062805Y68000000D03*
X83062805Y67350000D03*
X88787805Y67350000D03*
X88787805Y68000000D03*
X88787805Y68650000D03*
X88787805Y69300000D03*
X88787805Y69950000D03*
X88787805Y70600000D03*
X88787805Y71250000D03*
X88787805Y71900000D03*
X88787805Y72550000D03*
X88787805Y73200000D03*
%TD*%
D22*
%TO.C,C32*%
X10925305Y30850000D03*
X10925305Y32400000D03*
%TD*%
D19*
%TO.C,R21*%
X13365305Y9305000D03*
X13365305Y7655000D03*
%TD*%
D23*
%TO.C,R8*%
X79050305Y70375000D03*
X77400305Y70375000D03*
%TD*%
D24*
%TO.C,C12*%
X91225305Y74955000D03*
X89325305Y74955000D03*
%TD*%
D11*
%TO.C,R5*%
X94125305Y65900000D03*
X94125305Y67550000D03*
%TD*%
D25*
%TO.C,U6*%
X85525305Y81140000D03*
X86475305Y81140000D03*
X87425305Y81140000D03*
X87425305Y83415000D03*
X85525305Y83415000D03*
%TD*%
D16*
%TO.C,D16*%
X58995000Y14960531D03*
X57095000Y14960531D03*
X58045000Y13085531D03*
%TD*%
D26*
%TO.C,D19*%
X41325305Y10200000D03*
X41325305Y9500000D03*
%TD*%
D13*
%TO.C,U5*%
X47700305Y80800000D03*
X47700305Y79850000D03*
X47700305Y78900000D03*
X49975305Y78900000D03*
X49975305Y80800000D03*
%TD*%
D22*
%TO.C,C11*%
X93225305Y69950000D03*
X93225305Y71500000D03*
%TD*%
D19*
%TO.C,R18*%
X12825305Y34025000D03*
X12825305Y32375000D03*
%TD*%
D22*
%TO.C,C22*%
X75825305Y67250000D03*
X75825305Y68800000D03*
%TD*%
D20*
%TO.C,C31*%
X10925305Y35600000D03*
X10925305Y34050000D03*
%TD*%
D27*
%TO.C,C33*%
X4925305Y25400000D03*
X12325305Y25400000D03*
%TD*%
D26*
%TO.C,D22*%
X18075305Y77270000D03*
X18075305Y76570000D03*
%TD*%
D28*
%TO.C,C27*%
X81115305Y39460000D03*
X79565305Y39460000D03*
%TD*%
D11*
%TO.C,R4*%
X95825305Y70650000D03*
X95825305Y72300000D03*
%TD*%
D19*
%TO.C,R1*%
X16625305Y74725000D03*
X16625305Y73075000D03*
%TD*%
D16*
%TO.C,D18*%
X48775305Y14998031D03*
X46875305Y14998031D03*
X47825305Y13123031D03*
%TD*%
D11*
%TO.C,R7*%
X90925305Y65900000D03*
X90925305Y67550000D03*
%TD*%
D15*
%TO.C,D15*%
X49420000Y2862500D03*
X51320000Y2862500D03*
X50370000Y4737500D03*
%TD*%
D20*
%TO.C,C25*%
X81675305Y36650000D03*
X81675305Y35100000D03*
%TD*%
D22*
%TO.C,C18*%
X80725305Y70900000D03*
X80725305Y72450000D03*
%TD*%
D29*
%TO.C,C30*%
X11025305Y39500000D03*
X6625305Y39500000D03*
%TD*%
D24*
%TO.C,C29*%
X92375305Y60137500D03*
X90475305Y60137500D03*
%TD*%
D17*
%TO.C,J4*%
X9140305Y15265504D03*
X9140305Y14765378D03*
X9140305Y14265252D03*
X9140305Y13765126D03*
X9140305Y13265000D03*
X9140305Y12764874D03*
X9140305Y12264748D03*
X9140305Y11764622D03*
X9140305Y11264496D03*
X9140305Y10764370D03*
X9140305Y10264244D03*
X9140305Y9764118D03*
%TD*%
D30*
%TO.C,C17*%
X84475305Y74775000D03*
X86025305Y74775000D03*
%TD*%
D31*
%TO.C,FB3*%
X74980305Y36850000D03*
X75670305Y36850000D03*
%TD*%
D20*
%TO.C,C16*%
X80725305Y68325000D03*
X80725305Y66775000D03*
%TD*%
D32*
%TO.C,C14*%
X80625305Y74875000D03*
X82525305Y74875000D03*
%TD*%
D23*
%TO.C,R9*%
X79025305Y68775000D03*
X77375305Y68775000D03*
%TD*%
D16*
%TO.C,D17*%
X53870000Y14985531D03*
X51970000Y14985531D03*
X52920000Y13110531D03*
%TD*%
D33*
%TO.C,U2*%
X13175305Y19814811D03*
X13175305Y19314811D03*
D34*
X13212805Y18814811D03*
D33*
X13175305Y18314811D03*
X13175305Y17814811D03*
X13950305Y17814811D03*
X13950305Y18314811D03*
D35*
X13975305Y18814811D03*
D33*
X13950305Y19314811D03*
X13950305Y19814811D03*
%TD*%
D15*
%TO.C,D7*%
X67520000Y13175000D03*
X69420000Y13175000D03*
X68470000Y15050000D03*
%TD*%
D36*
%TO.C,FB1*%
X89325305Y77140000D03*
X89325305Y76450000D03*
%TD*%
D11*
%TO.C,R19*%
X5525305Y32550000D03*
X5525305Y34200000D03*
%TD*%
D37*
%TO.C,D3*%
X14357805Y49700000D03*
X14357805Y47800000D03*
X16232805Y48750000D03*
%TD*%
D36*
%TO.C,FB2*%
X83405305Y76975000D03*
X83405305Y76285000D03*
%TD*%
D12*
%TO.C,C1*%
X18745305Y72650000D03*
X18745305Y70750000D03*
%TD*%
D24*
%TO.C,C5*%
X49750305Y83025000D03*
X47850305Y83025000D03*
%TD*%
D19*
%TO.C,R20*%
X17005305Y16770000D03*
X17005305Y15120000D03*
%TD*%
D24*
%TO.C,C2*%
X23120305Y74100000D03*
X21220305Y74100000D03*
%TD*%
D38*
%TO.C,SW1*%
X12350305Y66950000D03*
X7100305Y66950000D03*
X12350305Y70150000D03*
X7100305Y70150000D03*
%TD*%
D14*
%TO.C,C23*%
X83425305Y81190000D03*
X83425305Y83090000D03*
%TD*%
D39*
%TO.C,Y1*%
X80065305Y41110000D03*
X80065305Y43610000D03*
%TD*%
D11*
%TO.C,R3*%
X95825305Y67450000D03*
X95825305Y69100000D03*
%TD*%
D20*
%TO.C,C4*%
X15025305Y74675000D03*
X15025305Y73125000D03*
%TD*%
D11*
%TO.C,R6*%
X92525305Y65900000D03*
X92525305Y67550000D03*
%TD*%
D17*
%TO.C,J2*%
X9340305Y81850760D03*
X9340305Y81350634D03*
X9340305Y80850508D03*
X9340305Y80350382D03*
X9340305Y79850256D03*
X9340305Y79350130D03*
X9340305Y78850004D03*
X9340305Y78349878D03*
X9340305Y77849752D03*
X9340305Y77349626D03*
X9340305Y76849500D03*
X9340305Y76349374D03*
%TD*%
D40*
%TO.C,J8*%
X34225305Y86800000D03*
X35325305Y86800000D03*
X36425305Y86800000D03*
X37525305Y86800000D03*
X38625305Y86800000D03*
X39725305Y86800000D03*
X40825305Y86800000D03*
X41925305Y86800000D03*
D41*
X32435305Y74335000D03*
D42*
X36700305Y74260000D03*
D43*
X30125305Y75535000D03*
D44*
X30345305Y86785000D03*
D45*
X43005305Y86300000D03*
D43*
X43085305Y75535000D03*
%TD*%
D16*
%TO.C,D8*%
X74420000Y4748031D03*
X72520000Y4748031D03*
X73470000Y2873031D03*
%TD*%
D23*
%TO.C,R16*%
X85300305Y57937500D03*
X83650305Y57937500D03*
%TD*%
D26*
%TO.C,D21*%
X13325305Y15260000D03*
X13325305Y14560000D03*
%TD*%
D15*
%TO.C,D6*%
X72570000Y13148031D03*
X74470000Y13148031D03*
X73520000Y15023031D03*
%TD*%
D46*
%TO.C,R23*%
X14850305Y43070000D03*
X16500305Y43070000D03*
%TD*%
D15*
%TO.C,D11*%
X77695000Y13148031D03*
X79595000Y13148031D03*
X78645000Y15023031D03*
%TD*%
D14*
%TO.C,C15*%
X78725305Y65175000D03*
X78725305Y67075000D03*
%TD*%
D47*
%TO.C,D2*%
X17412805Y11595000D03*
X17412805Y13495000D03*
X15537805Y12545000D03*
%TD*%
D11*
%TO.C,R2*%
X90450305Y46500000D03*
X90450305Y48150000D03*
%TD*%
D37*
%TO.C,D5*%
X15025305Y83750000D03*
X15025305Y81850000D03*
X16900305Y82800000D03*
%TD*%
D22*
%TO.C,C21*%
X75825305Y70325000D03*
X75825305Y71875000D03*
%TD*%
D33*
%TO.C,U3*%
X13165305Y56040000D03*
X13165305Y55540000D03*
D34*
X13202805Y55040000D03*
D33*
X13165305Y54540000D03*
X13165305Y54040000D03*
X13940305Y54040000D03*
X13940305Y54540000D03*
D35*
X13965305Y55040000D03*
D33*
X13940305Y55540000D03*
X13940305Y56040000D03*
%TD*%
D48*
%TO.C,U7*%
X97175305Y44200000D03*
X96075305Y44200000D03*
X95275305Y44200000D03*
X93675305Y44200000D03*
X93275305Y43300000D03*
X92875305Y44200000D03*
X92475305Y43300000D03*
X92075305Y44200000D03*
X91675305Y43300000D03*
X91275305Y44200000D03*
X90875305Y43300000D03*
X90475305Y44200000D03*
X90075305Y43300000D03*
X89675305Y44200000D03*
D49*
X86275305Y44349999D03*
X86275305Y43549998D03*
X86275305Y42749997D03*
X86275305Y41949998D03*
X87175305Y41549998D03*
X86275305Y41149997D03*
X87175305Y40749997D03*
X86275305Y40349999D03*
X87175305Y39949999D03*
X86275305Y39549998D03*
X87175305Y39149998D03*
X86275305Y38749997D03*
X87175305Y38349997D03*
X86275305Y37949999D03*
X87175305Y37549999D03*
X86275305Y37149998D03*
X86275305Y36349999D03*
X86275305Y35549998D03*
X86275305Y34750000D03*
D48*
X87275305Y34900000D03*
X88075305Y34900000D03*
X88475305Y35800000D03*
X88875305Y34900000D03*
X89275305Y35800000D03*
X89675305Y34900000D03*
X90075305Y35800000D03*
X90475305Y34900000D03*
X90875305Y35800000D03*
X91675305Y35800000D03*
X92075305Y34900000D03*
X92475305Y35800000D03*
X92875305Y34900000D03*
X93275305Y35800000D03*
X93675305Y34900000D03*
X94075305Y35800000D03*
X94875305Y35800000D03*
X95275305Y34900000D03*
X95675305Y35800000D03*
X96075305Y34900000D03*
X96475305Y35800000D03*
X97175305Y34900000D03*
D49*
X92875305Y41549998D03*
X92875305Y40749997D03*
X92875305Y39949999D03*
X92875305Y39149998D03*
X92875305Y38349997D03*
X92875305Y37549999D03*
%TD*%
D15*
%TO.C,D14*%
X54545000Y2873031D03*
X56445000Y2873031D03*
X55495000Y4748031D03*
%TD*%
D37*
%TO.C,D4*%
X15025305Y80050000D03*
X15025305Y78150000D03*
X16900305Y79100000D03*
%TD*%
D23*
%TO.C,R17*%
X96675305Y53737500D03*
X95025305Y53737500D03*
%TD*%
D50*
%TO.C,U8*%
X9125305Y34275000D03*
X8175305Y34275000D03*
X7225305Y34275000D03*
X7225305Y32000000D03*
X8175305Y32000000D03*
X9125305Y32000000D03*
%TD*%
D30*
%TO.C,C28*%
X79665305Y45260000D03*
X81215305Y45260000D03*
%TD*%
D51*
%TO.C,J6*%
X65835305Y74440000D03*
X65335305Y74440000D03*
X64835305Y74440000D03*
X64335305Y74440000D03*
X63835305Y74440000D03*
X63335305Y74440000D03*
X62835305Y74440000D03*
X62335305Y74440000D03*
X61835305Y74440000D03*
X61335305Y74440000D03*
X60835305Y74440000D03*
X60335305Y74440000D03*
X59835305Y74440000D03*
X59335305Y74440000D03*
X58835305Y74440000D03*
X58335305Y74440000D03*
X57835305Y74440000D03*
X57335305Y74440000D03*
X56835305Y74440000D03*
X56335305Y74440000D03*
X55835305Y74440000D03*
X55335305Y74440000D03*
D52*
X53435305Y71190000D03*
X67735305Y71190000D03*
%TD*%
D16*
%TO.C,D9*%
X69420000Y4748031D03*
X67520000Y4748031D03*
X68470000Y2873031D03*
%TD*%
D24*
%TO.C,C19*%
X87175305Y78740000D03*
X85275305Y78740000D03*
%TD*%
D46*
%TO.C,R15*%
X75925305Y44850000D03*
X77575305Y44850000D03*
%TD*%
D12*
%TO.C,C20*%
X91325305Y73140000D03*
X91325305Y71240000D03*
%TD*%
D46*
%TO.C,R31*%
X21800305Y61800000D03*
X23450305Y61800000D03*
%TD*%
D53*
%TO.C,J7*%
X52175305Y58890000D03*
X52175305Y55810000D03*
X51775305Y58890000D03*
X51775305Y55810000D03*
X51375305Y58890000D03*
X51375305Y55810000D03*
X50975305Y58890000D03*
X50975305Y55810000D03*
X50575305Y58890000D03*
X50575305Y55810000D03*
X50175305Y58890000D03*
X50175305Y55810000D03*
X49775305Y58890000D03*
X49775305Y55810000D03*
X49375305Y58890000D03*
X49375305Y55810000D03*
X48975305Y58890000D03*
X48975305Y55810000D03*
X48575305Y58890000D03*
X48575305Y55810000D03*
X48175305Y58890000D03*
X48175305Y55810000D03*
X47775305Y58890000D03*
X47775305Y55810000D03*
X47375305Y58890000D03*
X47375305Y55810000D03*
X46975305Y58890000D03*
X46975305Y55810000D03*
X46575305Y58890000D03*
X46575305Y55810000D03*
X46175305Y58890000D03*
X46175305Y55810000D03*
X45775305Y58890000D03*
X45775305Y55810000D03*
X45375305Y58890000D03*
X45375305Y55810000D03*
X44975305Y58890000D03*
X44975305Y55810000D03*
X44575305Y58890000D03*
X44575305Y55810000D03*
X44175305Y58890000D03*
X44175305Y55810000D03*
X43775305Y58890000D03*
X43775305Y55810000D03*
X43375305Y58890000D03*
X43375305Y55810000D03*
X42975305Y58890000D03*
X42975305Y55810000D03*
X42575305Y58890000D03*
X42575305Y55810000D03*
X42175305Y58890000D03*
X42175305Y55810000D03*
X41775305Y58890000D03*
X41775305Y55810000D03*
X41375305Y58890000D03*
X41375305Y55810000D03*
X40975305Y58890000D03*
X40975305Y55810000D03*
X40575305Y58890000D03*
X40575305Y55810000D03*
X40175305Y58890000D03*
X40175305Y55810000D03*
X39775305Y58890000D03*
X39775305Y55810000D03*
X39375305Y58890000D03*
X39375305Y55810000D03*
X38975305Y58890000D03*
X38975305Y55810000D03*
X38575305Y58890000D03*
X38575305Y55810000D03*
X38175305Y58890000D03*
X38175305Y55810000D03*
X37775305Y58890000D03*
X37775305Y55810000D03*
X37375305Y58890000D03*
X37375305Y55810000D03*
X36975305Y58890000D03*
X36975305Y55810000D03*
X36575305Y58890000D03*
X36575305Y55810000D03*
X36175305Y58890000D03*
X36175305Y55810000D03*
X35775305Y58890000D03*
X35775305Y55810000D03*
X35375305Y58890000D03*
X35375305Y55810000D03*
X34975305Y58890000D03*
X34975305Y55810000D03*
X34575305Y58890000D03*
X34575305Y55810000D03*
X34175305Y58890000D03*
X34175305Y55810000D03*
X33775305Y58890000D03*
X33775305Y55810000D03*
X33375305Y58890000D03*
X33375305Y55810000D03*
X32975305Y58890000D03*
X32975305Y55810000D03*
X32575305Y58890000D03*
X32575305Y55810000D03*
X52175305Y24890000D03*
X52175305Y21810000D03*
X51775305Y24890000D03*
X51775305Y21810000D03*
X51375305Y24890000D03*
X51375305Y21810000D03*
X50975305Y24890000D03*
X50975305Y21810000D03*
X50575305Y24890000D03*
X50575305Y21810000D03*
X50175305Y24890000D03*
X50175305Y21810000D03*
X49775305Y24890000D03*
X49775305Y21810000D03*
X49375305Y24890000D03*
X49375305Y21810000D03*
X48975305Y24890000D03*
X48975305Y21810000D03*
X48575305Y24890000D03*
X48575305Y21810000D03*
X48175305Y24890000D03*
X48175305Y21810000D03*
X47775305Y24890000D03*
X47775305Y21810000D03*
X47375305Y24890000D03*
X47375305Y21810000D03*
X46975305Y24890000D03*
X46975305Y21810000D03*
X46575305Y24890000D03*
X46575305Y21810000D03*
X46175305Y24890000D03*
X46175305Y21810000D03*
X45775305Y24890000D03*
X45775305Y21810000D03*
X45375305Y24890000D03*
X45375305Y21810000D03*
X44975305Y24890000D03*
X44975305Y21810000D03*
X44575305Y24890000D03*
X44575305Y21810000D03*
X44175305Y24890000D03*
X44175305Y21810000D03*
X43775305Y24890000D03*
X43775305Y21810000D03*
X43375305Y24890000D03*
X43375305Y21810000D03*
X42975305Y24890000D03*
X42975305Y21810000D03*
X42575305Y24890000D03*
X42575305Y21810000D03*
X42175305Y24890000D03*
X42175305Y21810000D03*
X41775305Y24890000D03*
X41775305Y21810000D03*
X41375305Y24890000D03*
X41375305Y21810000D03*
X40975305Y24890000D03*
X40975305Y21810000D03*
X40575305Y24890000D03*
X40575305Y21810000D03*
X40175305Y24890000D03*
X40175305Y21810000D03*
X39775305Y24890000D03*
X39775305Y21810000D03*
X39375305Y24890000D03*
X39375305Y21810000D03*
X38975305Y24890000D03*
X38975305Y21810000D03*
X38575305Y24890000D03*
X38575305Y21810000D03*
X38175305Y24890000D03*
X38175305Y21810000D03*
X37775305Y24890000D03*
X37775305Y21810000D03*
X37375305Y24890000D03*
X37375305Y21810000D03*
X36975305Y24890000D03*
X36975305Y21810000D03*
X36575305Y24890000D03*
X36575305Y21810000D03*
X36175305Y24890000D03*
X36175305Y21810000D03*
X35775305Y24890000D03*
X35775305Y21810000D03*
X35375305Y24890000D03*
X35375305Y21810000D03*
X34975305Y24890000D03*
X34975305Y21810000D03*
X34575305Y24890000D03*
X34575305Y21810000D03*
X34175305Y24890000D03*
X34175305Y21810000D03*
X33775305Y24890000D03*
X33775305Y21810000D03*
X33375305Y24890000D03*
X33375305Y21810000D03*
X32975305Y24890000D03*
X32975305Y21810000D03*
X32575305Y24890000D03*
X32575305Y21810000D03*
%TD*%
M02*
