M48
; DRILL file KiCad 10.0.5-1.fc44app2 date 2026-09-05T12:07:14
; FORMAT={-:-/ absolute / metric / decimal}
; #@! TF.CreationDate,2026-09-05T12:07:14+01:00
; #@! TF.GenerationSoftware,Kicad,Pcbnew,10.0.5-1.fc44app2
; #@! TF.FileFunction,Plated,1,4,PTH
FMAT,2
METRIC
; #@! TA.AperFunction,Plated,PTH,ViaDrill
T1C0.300
; #@! TA.AperFunction,Plated,PTH,ComponentDrill
T2C0.320
; #@! TA.AperFunction,Plated,PTH,ComponentDrill
T3C0.700
; #@! TA.AperFunction,Plated,PTH,ComponentDrill
T4C0.900
; #@! TA.AperFunction,Plated,PTH,ComponentDrill
T5C1.000
; #@! TA.AperFunction,Plated,PTH,ComponentDrill
T6C2.200
%
G90
G05
T1
X0.945Y0.923
X0.957Y87.84
X0.957Y85.02
X0.957Y82.23
X0.957Y79.02
X0.957Y75.05
X0.957Y69.91
X0.957Y65.13
X0.957Y60.69
X0.957Y56.59
X0.957Y51.72
X0.957Y47.73
X0.957Y42.63
X0.957Y37.85
X0.957Y31.75
X0.957Y27.67
X0.957Y22.7
X0.957Y15.99
X0.957Y10.1
X0.957Y4.79
X3.225Y55.05
X3.595Y20.13
X3.645Y46.26
X3.817Y0.803
X3.849Y87.83
X3.985Y12.11
X4.675Y39.5
X4.815Y81.56
X4.825Y50.0
X4.825Y49.16
X5.245Y23.0
X5.245Y22.29
X5.5Y38.175
X5.525Y35.2
X5.55Y40.75
X6.005Y28.8
X6.025Y51.6
X6.095Y54.46
X6.115Y48.62
X6.425Y81.56
X6.455Y12.48
X6.84Y0.803
X6.844Y87.83
X7.075Y18.24
X7.11Y71.33
X7.75Y38.175
X7.8Y40.75
X7.825Y30.7
X8.025Y35.7
X8.5Y33.2
X8.625Y39.5
X9.525Y4.14
X9.65Y24.675
X9.7Y26.2
X9.84Y87.83
X9.862Y0.803
X9.935Y56.96
X10.225Y33.2
X10.425Y47.5
X10.445Y49.52
X10.675Y27.1
X10.675Y10.46
X10.695Y6.56
X10.7Y23.725
X10.705Y11.65
X11.074Y46.852
X11.115Y76.9
X11.145Y64.52
X11.205Y85.76
X11.205Y83.74
X11.225Y78.3
X11.284Y9.852
X11.325Y50.4
X11.335Y14.39
X11.425Y80.6
X11.425Y47.91
X11.625Y33.1
X11.8Y54.975
X11.985Y14.56
X12.015Y50.4
X12.155Y29.6
X12.175Y18.725
X12.275Y73.0
X12.325Y42.22
X12.325Y27.15
X12.35Y71.3
X12.425Y31.4
X12.475Y23.725
X12.495Y12.89
X12.505Y9.31
X12.836Y87.83
X12.885Y0.803
X12.905Y12.13
X12.995Y49.24
X13.015Y48.23
X13.095Y47.313
X13.325Y52.55
X13.325Y15.9
X13.375Y72.05
X13.4Y75.615
X13.555Y84.73
X13.625Y79.463
X13.625Y78.713
X13.925Y32.3
X14.125Y23.725
X14.225Y27.075
X14.375Y67.52
X14.405Y46.133
X14.665Y61.51
X14.8Y48.775
X15.025Y75.75
X15.025Y72.0
X15.075Y26.175
X15.075Y24.675
X15.285Y79.1
X15.335Y30.46
X15.515Y16.82
X15.515Y16.15
X15.832Y87.83
X15.907Y0.803
X15.975Y77.03
X16.075Y44.273
X16.075Y70.22
X16.085Y75.613
X16.335Y21.5
X16.345Y47.213
X16.525Y62.25
X16.735Y39.85
X16.975Y12.55
X17.365Y29.01
X17.385Y63.853
X17.585Y42.793
X18.075Y75.97
X18.235Y82.8
X18.425Y84.77
X18.5Y45.31
X18.675Y74.29
X18.828Y87.83
X18.93Y0.803
X19.64Y77.375
X19.675Y48.163
X19.825Y81.83
X19.945Y16.68
X19.995Y43.643
X19.995Y40.383
X20.035Y13.91
X20.085Y11.2
X20.525Y80.35
X21.824Y87.83
X21.845Y81.8
X21.953Y0.803
X22.115Y45.14
X22.125Y35.7
X22.195Y38.193
X22.275Y51.473
X22.615Y40.853
X22.815Y63.77
X22.985Y76.3
X23.395Y72.785
X23.485Y32.74
X23.645Y36.713
X23.695Y20.96
X23.945Y81.54
X24.195Y39.273
X24.225Y72.425
X24.555Y75.02
X24.745Y71.725
X24.819Y87.83
X24.975Y0.803
X25.113Y58.162
X25.475Y67.44
X25.763Y59.962
X26.305Y78.58
X26.555Y51.83
X26.605Y16.62
X27.815Y87.83
X27.865Y32.543
X27.895Y35.743
X27.997Y0.803
X28.325Y27.6
X28.465Y13.74
X28.475Y53.47
X28.485Y11.36
X28.495Y29.81
X28.575Y55.9
X28.575Y54.7
X28.935Y22.42
X28.975Y57.85
X29.005Y67.7
X29.085Y72.73
X29.115Y63.45
X29.135Y31.233
X29.255Y39.84
X30.225Y59.1
X30.925Y29.373
X31.02Y0.803
X31.025Y33.7
X31.205Y19.6
X31.675Y56.4
X31.825Y37.6
X32.075Y28.223
X32.145Y45.85
X32.175Y31.373
X32.645Y40.18
X32.915Y85.12
X32.975Y25.7
X32.975Y21.05
X33.035Y35.98
X33.186Y28.261
X33.225Y53.82
X33.505Y87.853
X33.525Y52.55
X33.717Y28.791
X33.765Y30.083
X34.042Y0.803
X34.145Y16.88
X34.175Y25.7
X34.175Y21.05
X34.395Y48.1
X34.545Y44.15
X34.995Y60.47
X35.015Y61.75
X35.025Y34.3
X35.075Y37.78
X35.375Y25.7
X35.375Y21.05
X35.525Y46.4
X35.575Y57.625
X35.645Y61.11
X35.665Y59.903
X36.175Y57.0
X36.225Y54.5
X36.275Y61.73
X36.295Y60.47
X36.395Y64.24
X36.425Y80.26
X36.555Y52.35
X36.575Y25.7
X36.575Y20.95
X36.585Y48.06
X36.905Y61.09
X37.045Y59.913
X37.065Y0.803
X37.375Y72.98
X37.625Y85.3
X37.775Y54.95
X37.775Y25.7
X37.775Y20.95
X37.835Y67.66
X37.855Y40.88
X37.925Y64.9
X37.935Y65.863
X37.945Y62.85
X38.3Y53.375
X38.725Y73.65
X38.925Y57.7
X38.975Y20.95
X39.075Y24.0
X39.175Y79.7
X39.325Y56.9
X39.375Y55.0
X39.505Y29.743
X39.725Y85.5
X39.925Y57.5
X39.955Y38.75
X40.087Y0.803
X40.175Y24.0
X40.175Y20.95
X40.225Y82.4
X40.275Y54.8
X40.345Y15.19
X40.375Y60.6
X40.575Y58.1
X41.315Y41.0
X41.325Y8.35
X41.375Y24.05
X41.375Y20.95
X41.625Y60.55
X41.715Y72.53
X41.775Y59.75
X41.925Y77.4
X42.025Y53.4
X42.095Y36.593
X42.125Y13.57
X42.165Y30.693
X42.175Y43.99
X42.375Y61.35
X42.39Y37.505
X42.575Y20.95
X42.725Y56.7
X42.921Y38.035
X42.975Y62.0
X43.085Y35.553
X43.11Y0.803
X43.525Y20.9
X43.575Y56.823
X43.605Y80.67
X43.625Y64.9
X43.675Y65.883
X43.715Y68.46
X43.775Y58.1
X43.825Y54.8
X44.015Y63.03
X44.05Y66.775
X44.115Y75.58
X44.245Y84.48
X44.425Y56.9
X44.725Y19.2
X44.825Y42.7
X44.975Y24.1
X45.325Y57.95
X45.425Y82.0
X45.425Y77.975
X45.425Y43.3
X45.755Y72.15
X45.845Y74.09
X45.95Y87.83
X46.025Y54.5
X46.025Y53.55
X46.025Y43.9
X46.133Y0.803
X46.175Y24.1
X46.425Y20.7
X46.675Y44.5
X46.9Y83.05
X46.975Y57.0
X47.025Y54.3
X47.15Y66.275
X47.275Y45.1
X47.375Y24.1
X47.375Y21.0
X47.725Y77.7
X47.825Y45.7
X47.825Y14.35
X48.025Y57.95
X48.175Y55.0
X48.375Y46.3
X48.575Y24.05
X48.575Y21.05
X48.725Y79.85
X48.925Y46.9
X48.973Y87.83
X49.155Y0.803
X49.525Y47.5
X49.775Y55.0
X49.775Y24.05
X49.775Y21.05
X49.825Y58.0
X50.065Y19.04
X50.225Y37.2
X50.225Y26.3
X50.365Y48.69
X50.375Y6.46
X50.375Y3.45
X50.41Y29.485
X50.525Y38.2
X50.585Y76.44
X50.725Y31.523
X50.895Y72.29
X50.925Y16.6
X50.941Y30.015
X50.975Y55.0
X50.975Y24.0
X50.975Y21.05
X50.995Y74.18
X51.025Y58.0
X51.125Y38.8
X51.595Y64.73
X51.725Y39.45
X51.755Y67.83
X51.995Y87.83
X52.177Y0.803
X52.225Y58.0
X52.325Y40.05
X52.725Y55.8
X52.825Y40.7
X52.885Y8.77
X52.925Y14.35
X53.325Y41.35
X53.385Y77.8
X53.805Y26.433
X53.875Y41.95
X53.915Y32.223
X54.025Y74.075
X54.175Y52.57
X54.525Y42.5
X55.018Y87.83
X55.165Y77.78
X55.2Y0.803
X55.475Y3.45
X55.485Y6.46
X56.025Y19.9
X56.485Y43.55
X56.7Y72.95
X56.85Y75.5
X57.325Y63.3
X57.425Y62.0
X57.425Y60.6
X57.425Y55.86
X57.525Y59.3
X57.835Y69.24
X57.925Y65.0
X57.925Y62.7
X57.925Y61.3
X57.925Y8.91
X58.025Y60.0
X58.025Y14.35
X58.04Y87.83
X58.2Y71.45
X58.222Y0.803
X58.225Y63.95
X58.275Y57.9
X58.275Y56.85
X58.325Y75.475
X58.605Y35.95
X59.515Y82.6
X59.755Y33.683
X59.775Y26.263
X59.85Y75.475
X60.525Y18.8
X60.525Y3.5
X60.545Y6.48
X61.063Y87.83
X61.245Y0.803
X61.265Y81.13
X61.325Y75.5
X61.685Y48.44
X62.025Y39.29
X62.675Y50.75
X62.875Y75.5
X63.955Y35.48
X64.085Y87.83
X64.267Y0.803
X64.325Y75.475
X64.525Y50.15
X64.645Y52.29
X65.625Y35.65
X65.875Y75.475
X65.925Y73.25
X65.975Y63.95
X66.025Y53.55
X66.135Y69.26
X66.605Y43.71
X66.675Y54.1
X66.775Y51.74
X66.825Y49.23
X67.025Y35.42
X67.108Y87.83
X67.29Y0.803
X67.805Y29.84
X68.45Y13.95
X68.455Y8.89
X68.475Y4.15
X68.555Y41.18
X69.085Y29.15
X69.235Y84.8
X69.715Y28.21
X70.075Y17.76
X70.115Y39.64
X70.13Y87.83
X70.312Y0.803
X70.475Y30.36
X71.145Y48.51
X71.825Y17.81
X72.275Y25.575
X72.325Y48.5
X72.925Y56.6
X73.055Y70.03
X73.075Y25.025
X73.153Y87.83
X73.225Y52.0
X73.225Y48.5
X73.335Y0.803
X73.465Y8.89
X73.475Y4.05
X73.525Y13.825
X73.775Y24.4
X74.045Y63.22
X74.175Y50.5
X74.175Y49.25
X74.175Y34.4
X74.325Y36.85
X74.4Y32.75
X74.435Y47.5
X74.725Y53.15
X75.035Y67.23
X75.075Y44.875
X75.105Y71.89
X75.125Y18.19
X75.175Y56.1
X75.225Y22.975
X75.775Y22.35
X75.825Y63.25
X76.175Y87.83
X76.25Y21.65
X76.358Y0.803
X76.45Y37.35
X76.645Y46.42
X76.695Y67.22
X76.705Y71.88
X76.935Y60.78
X76.965Y17.97
X77.285Y24.15
X77.4Y35.55
X77.575Y43.85
X77.675Y54.05
X77.825Y20.35
X78.35Y63.225
X78.475Y72.51
X78.575Y4.1
X78.625Y13.8
X78.655Y8.89
X78.795Y49.84
X78.835Y52.79
X79.125Y24.16
X79.198Y87.83
X79.38Y0.803
X79.6Y19.95
X79.915Y65.14
X79.995Y47.9
X80.1Y56.275
X80.135Y24.06
X80.325Y18.03
X80.625Y73.57
X80.825Y34.1
X80.935Y77.81
X81.275Y84.82
X81.315Y86.99
X81.395Y31.75
X81.755Y71.9
X81.838Y66.775
X81.865Y24.1
X81.975Y39.45
X82.075Y45.25
X82.22Y87.83
X82.295Y17.5
X82.325Y34.45
X82.402Y0.803
X82.945Y48.58
X82.975Y19.925
X83.075Y37.88
X83.325Y24.05
X83.425Y84.09
X83.765Y73.5
X83.785Y8.94
X83.925Y13.8
X84.035Y37.85
X84.115Y61.91
X84.145Y68.0
X84.185Y67.35
X84.25Y5.425
X84.255Y78.9
X84.315Y65.28
X84.795Y69.67
X84.9Y24.175
X84.9Y19.85
X84.935Y76.38
X84.965Y37.81
X85.035Y84.38
X85.125Y44.35
X85.125Y34.7
X85.243Y87.83
X85.325Y45.3
X85.325Y33.75
X85.425Y0.803
X85.985Y82.27
X85.995Y68.25
X86.195Y71.82
X86.275Y45.45
X86.275Y33.65
X86.405Y25.4
X86.485Y80.03
X86.625Y61.6
X87.225Y42.75
X87.455Y70.6
X87.455Y68.41
X87.595Y75.18
X87.795Y72.55
X87.83Y67.465
X87.955Y41.55
X87.975Y38.65
X88.265Y87.83
X88.315Y81.15
X88.455Y0.803
X88.475Y36.4
X88.525Y50.7
X88.525Y49.5
X88.685Y38.25
X89.065Y65.84
X89.125Y50.1
X89.125Y48.9
X89.155Y41.55
X89.275Y36.45
X89.775Y37.55
X90.075Y72.55
X90.085Y29.02
X90.16Y19.685
X90.165Y23.9
X90.325Y51.65
X91.015Y40.11
X91.288Y87.83
X91.305Y42.0
X91.325Y73.94
X91.345Y78.51
X91.47Y0.803
X91.825Y51.7
X92.025Y45.675
X92.43Y72.295
X92.705Y62.25
X93.075Y36.7
X93.425Y60.1
X93.555Y32.85
X93.675Y26.65
X93.765Y72.94
X94.165Y64.54
X94.275Y37.0
X94.31Y87.83
X94.35Y63.25
X94.425Y34.95
X94.435Y68.88
X94.475Y34.1
X94.505Y71.72
X94.785Y28.84
X94.875Y37.75
X95.075Y42.65
X95.825Y43.45
X95.875Y44.95
X96.075Y26.65
X96.125Y52.7
X97.025Y33.15
X97.075Y33.9
X97.125Y36.4
X97.175Y44.85
X97.175Y43.55
X97.295Y28.858
X97.295Y25.836
X97.295Y22.813
X97.333Y87.83
X97.365Y0.843
X97.375Y18.736
X97.375Y15.713
X97.375Y12.691
X97.375Y9.668
X97.375Y6.646
X97.375Y3.623
X97.385Y83.795
X97.385Y80.772
X97.385Y77.75
X97.425Y73.596
X97.425Y70.573
X97.425Y67.551
X97.425Y64.528
X97.425Y61.506
X97.425Y58.483
T2
X7.215Y51.13
X7.215Y50.33
X7.215Y49.555
X7.215Y47.955
X7.215Y47.13
X7.215Y46.33
X7.225Y14.915
X7.225Y14.115
X7.225Y13.34
X7.225Y11.74
X7.225Y10.915
X7.225Y10.115
X7.425Y81.5
X7.425Y80.7
X7.425Y79.925
X7.425Y78.325
X7.425Y77.5
X7.425Y76.7
X7.915Y51.53
X7.915Y49.93
X7.915Y49.118
X7.915Y48.317
X7.915Y47.53
X7.915Y45.93
X7.925Y15.315
X7.925Y13.715
X7.925Y12.902
X7.925Y12.102
X7.925Y11.315
X7.925Y9.715
X8.125Y81.9
X8.125Y80.3
X8.125Y79.488
X8.125Y78.688
X8.125Y77.9
X8.125Y76.3
T4
X83.605Y53.737
X86.145Y53.737
T5
X2.745Y60.253
X5.285Y60.253
X7.825Y60.253
X10.365Y60.253
X18.185Y65.503
X20.725Y65.503
X44.04Y10.226
X44.04Y7.686
X46.58Y10.226
X46.58Y7.686
X49.12Y10.226
X49.12Y7.686
X51.66Y10.226
X51.66Y7.686
X54.2Y10.226
X54.2Y7.686
X56.74Y10.226
X56.74Y7.686
X59.28Y10.226
X59.28Y7.686
X61.82Y10.226
X61.82Y7.686
X67.195Y10.223
X67.195Y7.683
X69.735Y10.223
X69.735Y7.683
X72.275Y10.223
X72.275Y7.683
X74.815Y10.223
X74.815Y7.683
X77.355Y10.223
X77.355Y7.683
X79.895Y10.223
X79.895Y7.683
X82.435Y10.223
X82.435Y7.683
X84.975Y10.223
X84.975Y7.683
X89.295Y17.05
X90.275Y56.938
X91.835Y17.05
X92.815Y56.938
X94.375Y17.05
X95.355Y56.938
T6
X4.425Y3.2
X24.625Y84.5
X94.725Y3.3
X94.825Y84.5
T3
G00X71.25Y74.75
M15
G01X71.25Y75.25
M16
G05
G00X72.5Y79.95
M15
G01X72.5Y80.45
M16
G05
G00X76.75Y74.75
M15
G01X76.75Y75.25
M16
G05
M30
